<?xml version="1.0" encoding="utf-8"?>
<!-- Generator: Adobe Illustrator 21.1.0, SVG Export Plug-In . SVG Version: 6.00 Build 0)  -->
<svg version="1.1" id="Layer_1" xmlns="http://www.w3.org/2000/svg" xmlns:xlink="http://www.w3.org/1999/xlink" x="0px" y="0px"
	 viewBox="0 0 1081.3 774.9" style="enable-background:new 0 0 1081.3 774.9;" xml:space="preserve">
<style type="text/css">
	.st0{fill:none;stroke:#1C425C;stroke-width:3;stroke-linejoin:round;stroke-miterlimit:10;stroke-dasharray:5,5,5,5,5,5;}
	.st1{fill:#1C425C;}
	.st2{font-family:'URWGeometric-ExtraBold';}
	.st3{font-size:24px;}
	.st4{fill:#EFEFEF;stroke:#132B3B;stroke-width:3;stroke-miterlimit:10;}
	.st5{fill:#023550;}
	.st6{font-family:'URWGeometric-Bold';}
	.st7{font-size:20px;}
	.st8{fill:#FFFFFF;}
	.st9{font-size:18px;}
	.st10{fill:#F7A600;}
	.st11{fill:#00BFC0;}
	.st12{font-size:15px;}
	.st13{font-family:'URWGeometric-SemiBold';}
	.st14{font-size:14px;}
	.st15{fill:none;stroke:#1C425C;stroke-width:2;stroke-miterlimit:10;}
	.st16{font-family:'OpenSans-Semibold';}
	.st17{font-size:17px;}
	.st18{fill:#00BFC0;stroke:#1C425C;stroke-width:3;stroke-miterlimit:10;}
	.st19{fill:none;}
	.st20{fill:none;stroke:#1C425C;stroke-width:3;stroke-linejoin:round;stroke-miterlimit:10;}
	.st21{fill:none;stroke:#1C425C;stroke-width:3;stroke-linecap:round;stroke-linejoin:round;}
</style>
<path class="st0" d="M1074.7,670h-947c-1.7,0-3.1-1.2-3.1-2.6V57.6c0-1.4,1.4-2.6,3.1-2.6h947c1.7,0,3.1,1.2,3.1,2.6v609.9
	C1077.7,668.8,1076.4,670,1074.7,670z"/>
<text transform="matrix(1 0 0 1 519.2858 45.6996)" class="st1 st2 st3">THIS IS A PIPELINE</text>
<path class="st4" d="M419.6,634.9H156.3c-2.4,0-4.3-1.8-4.3-4.2V89.4c0-2.3,1.9-4.2,4.3-4.2h263.3c2.4,0,4.3,1.8,4.3,4.2v541.3
	C423.9,633,422,634.9,419.6,634.9z"/>
<text transform="matrix(1 0 0 1 263.7065 121.1499)" class="st5 st6 st7">STAGE 1</text>
<path class="st8" d="M401.4,363.2H176.7c-1.8,0-3.2-1.5-3.2-3.2V145.3c0-1.8,1.5-3.2,3.2-3.2h224.7c1.8,0,3.2,1.5,3.2,3.2v214.6
	C404.6,361.7,403.1,363.2,401.4,363.2z"/>
<text transform="matrix(1 0 0 1 269.6708 167.7636)" class="st1 st6 st9">JOB</text>
<path class="st10" d="M389,217.4H194.8c-1.7,0-3-1.3-3-3v-29.1c0-1.7,1.3-3,3-3H389c1.7,0,3,1.3,3,3v29.1
	C392,216,390.7,217.4,389,217.4z"/>
<g>
	<path class="st11" d="M192.7,215.9c-0.9,0-1.5-0.6-1.5-1.5v-29.1c0-0.9,0.6-1.5,1.5-1.5h43.4v32.1H192.7z"/>
	<path class="st1" d="M234.6,185.3v29.1l-41.9,0l0-29.1H234.6 M237.6,182.3h-44.9c-1.7,0-3,1.3-3,3v29.1c0,1.7,1.3,3,3,3h44.9V182.3
		L237.6,182.3z"/>
</g>
<text transform="matrix(1 0 0 1 197.9325 204.4512)" class="st8 st6 st12">TASK</text>
<text transform="matrix(1 0 0 1 244.9325 203.5303)" class="st1 st13 st14">ant -Dmodule=A compile</text>
<polygon class="st10" points="242.3,207 229.7,199.7 242.3,192.4 "/>
<path class="st10" d="M389,279.4H194.8c-1.7,0-3-1.3-3-3v-29.1c0-1.7,1.3-3,3-3H389c1.7,0,3,1.3,3,3v29.1
	C392,278,390.7,279.4,389,279.4z"/>
<g>
	<path class="st11" d="M192.7,277.9c-0.9,0-1.5-0.6-1.5-1.5v-29.1c0-0.9,0.6-1.5,1.5-1.5h43.4v32.1H192.7z"/>
	<path class="st1" d="M234.6,247.3v29.1l-41.9,0l0-29.1H234.6 M237.6,244.3h-44.9c-1.7,0-3,1.3-3,3v29.1c0,1.7,1.3,3,3,3h44.9V244.3
		L237.6,244.3z"/>
</g>
<text transform="matrix(1 0 0 1 197.9325 266.4512)" class="st8 st6 st12">TASK</text>
<text transform="matrix(1 0 0 1 244.9325 265.5303)" class="st1 st13 st14">rake create_docs</text>
<polygon class="st10" points="242.3,269 229.7,261.7 242.3,254.4 "/>
<path class="st10" d="M389,340.4H194.8c-1.7,0-3-1.3-3-3v-29.1c0-1.7,1.3-3,3-3H389c1.7,0,3,1.3,3,3v29.1
	C392,339,390.7,340.4,389,340.4z"/>
<g>
	<path class="st11" d="M192.7,338.9c-0.9,0-1.5-0.6-1.5-1.5v-29.1c0-0.9,0.6-1.5,1.5-1.5h43.4v32.1H192.7z"/>
	<path class="st1" d="M234.6,308.3v29.1l-41.9,0l0-29.1H234.6 M237.6,305.3h-44.9c-1.7,0-3,1.3-3,3v29.1c0,1.7,1.3,3,3,3h44.9V305.3
		L237.6,305.3z"/>
</g>
<text transform="matrix(1 0 0 1 197.9325 327.4512)" class="st8 st6 st12">TASK</text>
<text transform="matrix(1 0 0 1 244.9325 326.5303)" class="st1 st13 st14">create_package.sh</text>
<polygon class="st10" points="242.3,330 229.7,322.7 242.3,315.4 "/>
<g>
	<g>
		<line class="st15" x1="526.3" y1="225" x2="526.3" y2="234"/>
		<g>
			<polygon class="st1" points="530.7,233 521.2,233 525.9,237.7 			"/>
		</g>
	</g>
</g>
<g>
	<g>
		<line class="st15" x1="526.3" y1="288" x2="526.3" y2="297"/>
		<g>
			<polygon class="st1" points="530.7,296 521.2,296 525.9,300.7 			"/>
		</g>
	</g>
</g>
<g>
	<g>
		<line class="st15" x1="287.3" y1="225" x2="287.3" y2="234"/>
		<g>
			<polygon class="st1" points="291.7,233 282.2,233 286.9,237.7 			"/>
		</g>
	</g>
</g>
<g>
	<g>
		<line class="st15" x1="287.3" y1="288" x2="287.3" y2="297"/>
		<g>
			<polygon class="st1" points="291.7,296 282.2,296 286.9,300.7 			"/>
		</g>
	</g>
</g>
<path class="st8" d="M400.4,609.8H175.7c-1.8,0-3.2-1.5-3.2-3.2V391.3c0-1.8,1.5-3.2,3.2-3.2h224.7c1.8,0,3.2,1.5,3.2,3.2v215.2
	C403.6,608.3,402.1,609.8,400.4,609.8z"/>
<g>
	<text transform="matrix(1 0 0 1 266.6708 413.7636)" class="st1 st6 st9">JOB</text>
</g>
<path class="st10" d="M387.9,465.4H193.7c-1.7,0-3-1.3-3-3v-29.1c0-1.7,1.3-3,3-3h194.2c1.7,0,3,1.3,3,3v29.1
	C391,464,389.7,465.4,387.9,465.4z"/>
<g>
	<path class="st11" d="M191.7,463.9c-0.9,0-1.5-0.6-1.5-1.5v-29.1c0-0.9,0.6-1.5,1.5-1.5h43.4v32.1H191.7z"/>
	<path class="st1" d="M233.6,433.3v29.1l-41.9,0l0-29.1H233.6 M236.6,430.3h-44.9c-1.7,0-3,1.3-3,3v29.1c0,1.7,1.3,3,3,3h44.9V430.3
		L236.6,430.3z"/>
</g>
<text transform="matrix(1 0 0 1 196.9325 452.4512)" class="st8 st6 st12">TASK</text>
<text transform="matrix(1 0 0 1 243.9325 451.5303)" class="st1 st13 st14">ant -Dmodule=A compile</text>
<polygon class="st10" points="241.3,455 228.7,447.7 241.3,440.4 "/>
<path class="st10" d="M387.9,526.4H193.7c-1.7,0-3-1.3-3-3v-29.1c0-1.7,1.3-3,3-3h194.2c1.7,0,3,1.3,3,3v29.1
	C391,525,389.7,526.4,387.9,526.4z"/>
<g>
	<path class="st11" d="M191.7,524.9c-0.9,0-1.5-0.6-1.5-1.5v-29.1c0-0.9,0.6-1.5,1.5-1.5h43.4v32.1H191.7z"/>
	<path class="st1" d="M233.6,494.3v29.1l-41.9,0l0-29.1H233.6 M236.6,491.3h-44.9c-1.7,0-3,1.3-3,3v29.1c0,1.7,1.3,3,3,3h44.9V491.3
		L236.6,491.3z"/>
</g>
<text transform="matrix(1 0 0 1 196.9325 513.4512)" class="st8 st6 st12">TASK</text>
<text transform="matrix(1 0 0 1 243.9325 512.5303)" class="st1 st13 st14">rake create_docs</text>
<polygon class="st10" points="241.3,516 228.7,508.7 241.3,501.4 "/>
<path class="st10" d="M387.9,587.4H193.7c-1.7,0-3-1.3-3-3v-29.1c0-1.7,1.3-3,3-3h194.2c1.7,0,3,1.3,3,3v29.1
	C391,586,389.7,587.4,387.9,587.4z"/>
<g>
	<path class="st11" d="M191.7,585.9c-0.9,0-1.5-0.6-1.5-1.5v-29.1c0-0.9,0.6-1.5,1.5-1.5h43.4v32.1H191.7z"/>
	<path class="st1" d="M233.6,555.3v29.1l-41.9,0l0-29.1H233.6 M236.6,552.3h-44.9c-1.7,0-3,1.3-3,3v29.1c0,1.7,1.3,3,3,3h44.9V552.3
		L236.6,552.3z"/>
</g>
<text transform="matrix(1 0 0 1 196.9325 574.4512)" class="st8 st6 st12">TASK</text>
<text transform="matrix(1 0 0 1 243.9325 573.5303)" class="st1 st13 st14">create_package.sh</text>
<polygon class="st10" points="241.3,577 228.7,569.7 241.3,562.4 "/>
<g>
	<g>
		<line class="st15" x1="291.3" y1="472" x2="291.3" y2="481"/>
		<g>
			<polygon class="st1" points="295.7,480 286.2,480 290.9,484.7 			"/>
		</g>
	</g>
</g>
<g>
	<g>
		<line class="st15" x1="291.3" y1="535" x2="291.3" y2="544"/>
		<g>
			<polygon class="st1" points="295.7,543 286.2,543 290.9,547.7 			"/>
		</g>
	</g>
</g>
<text transform="matrix(1 0 0 1 560.7065 117.1499)" class="st5 st16 st17">Stage 2</text>
<path class="st4" d="M732.3,574.5H469.6c-2.6,0-4.7-1.6-4.7-3.5V88.6c0-1.9,2.1-3.5,4.7-3.5h262.7c2.6,0,4.7,1.6,4.7,3.5V571
	C736.9,572.9,734.8,574.5,732.3,574.5z"/>
<path class="st8" d="M714.4,548.8H489.7c-1.8,0-3.2-1.5-3.2-3.2V330.3c0-1.8,1.5-3.2,3.2-3.2h224.7c1.8,0,3.2,1.5,3.2,3.2v215.2
	C717.6,547.3,716.1,548.8,714.4,548.8z"/>
<g>
	<text transform="matrix(1 0 0 1 578.6708 352.7636)" class="st1 st6 st9">JOB</text>
</g>
<path class="st10" d="M702,404.4H508.7c-1.7,0-3-1.3-3-3v-29.1c0-1.7,1.3-3,3-3H702c1.7,0,3,1.3,3,3v29.1
	C705,403,703.7,404.4,702,404.4z"/>
<path class="st18" d="M548.6,404.4h-44.9c-1.7,0-3-1.3-3-3v-29.1c0-1.7,1.3-3,3-3h44.9V404.4z"/>
<text transform="matrix(1 0 0 1 508.9326 391.4512)" class="st8 st6 st12">TASK</text>
<text transform="matrix(1 0 0 1 555.9326 390.5303)" class="st1 st13 st14">ant -Dmodule=A compile</text>
<polygon class="st10" points="553.3,394 540.7,386.7 553.3,379.4 "/>
<path class="st10" d="M702,465.4H508.7c-1.7,0-3-1.3-3-3v-29.1c0-1.7,1.3-3,3-3H702c1.7,0,3,1.3,3,3v29.1
	C705,464,703.7,465.4,702,465.4z"/>
<g>
	<path class="st11" d="M503.7,463.9c-0.9,0-1.5-0.6-1.5-1.5v-29.1c0-0.9,0.6-1.5,1.5-1.5h43.4v32.1H503.7z"/>
	<path class="st1" d="M545.6,433.3v29.1l-41.9,0l0-29.1H545.6 M548.6,430.3h-44.9c-1.7,0-3,1.3-3,3v29.1c0,1.7,1.3,3,3,3h44.9V430.3
		L548.6,430.3z"/>
</g>
<text transform="matrix(1 0 0 1 508.9326 452.4512)" class="st8 st6 st12">TASK</text>
<text transform="matrix(1 0 0 1 555.9326 451.5303)" class="st1 st13 st14">rake create_docs</text>
<polygon class="st10" points="553.3,455 540.7,447.7 553.3,440.4 "/>
<path class="st10" d="M702,526.4H508.7c-1.7,0-3-1.3-3-3v-29.1c0-1.7,1.3-3,3-3H702c1.7,0,3,1.3,3,3v29.1
	C705,525,703.7,526.4,702,526.4z"/>
<g>
	<path class="st11" d="M503.7,524.9c-0.9,0-1.5-0.6-1.5-1.5v-29.1c0-0.9,0.6-1.5,1.5-1.5h43.4v32.1H503.7z"/>
	<path class="st1" d="M545.6,494.3v29.1l-41.9,0l0-29.1H545.6 M548.6,491.3h-44.9c-1.7,0-3,1.3-3,3v29.1c0,1.7,1.3,3,3,3h44.9V491.3
		L548.6,491.3z"/>
</g>
<text transform="matrix(1 0 0 1 508.9326 513.4512)" class="st8 st6 st12">TASK</text>
<text transform="matrix(1 0 0 1 555.9326 512.5303)" class="st1 st13 st14">create_package.sh</text>
<polygon class="st10" points="553.3,516 540.7,508.7 553.3,501.4 "/>
<g>
	<g>
		<line class="st15" x1="603.3" y1="411" x2="603.3" y2="420"/>
		<g>
			<polygon class="st1" points="607.7,419 598.2,419 602.9,423.7 			"/>
		</g>
	</g>
</g>
<g>
	<g>
		<line class="st15" x1="603.3" y1="474" x2="603.3" y2="483"/>
		<g>
			<polygon class="st1" points="607.7,482 598.2,482 602.9,486.7 			"/>
		</g>
	</g>
</g>
<path class="st8" d="M714.8,305.2H489.2c-1.5,0-2.8-1.2-2.8-2.8V146.8c0-1.5,1.2-2.8,2.8-2.8h225.6c1.5,0,2.8,1.2,2.8,2.8v155.6
	C717.6,303.9,716.4,305.2,714.8,305.2z"/>
<g>
	<text transform="matrix(1 0 0 1 582.6708 169.7636)" class="st1 st6 st9">JOB</text>
</g>
<path class="st10" d="M702,221.4H508.7c-1.7,0-3-1.3-3-3v-29.1c0-1.7,1.3-3,3-3H702c1.7,0,3,1.3,3,3v29.1
	C705,220,703.7,221.4,702,221.4z"/>
<g>
	<path class="st11" d="M503.7,219.9c-0.9,0-1.5-0.6-1.5-1.5v-29.1c0-0.9,0.6-1.5,1.5-1.5h43.4v32.1H503.7z"/>
	<path class="st1" d="M545.6,189.3v29.1l-41.9,0l0-29.1H545.6 M548.6,186.3h-44.9c-1.7,0-3,1.3-3,3v29.1c0,1.7,1.3,3,3,3h44.9V186.3
		L548.6,186.3z"/>
</g>
<text transform="matrix(1 0 0 1 508.9326 208.4512)" class="st8 st6 st12">TASK</text>
<text transform="matrix(1 0 0 1 555.9326 207.5303)" class="st1 st13 st14">ant -Dmodule=A compile</text>
<polygon class="st10" points="553.3,211 540.7,203.7 553.3,196.4 "/>
<path class="st10" d="M702,282.4H508.7c-1.7,0-3-1.3-3-3v-29.1c0-1.7,1.3-3,3-3H702c1.7,0,3,1.3,3,3v29.1
	C705,281,703.7,282.4,702,282.4z"/>
<g>
	<path class="st11" d="M503.7,280.9c-0.9,0-1.5-0.6-1.5-1.5v-29.1c0-0.9,0.6-1.5,1.5-1.5h43.4v32.1H503.7z"/>
	<path class="st1" d="M545.6,250.3v29.1l-41.9,0l0-29.1H545.6 M548.6,247.3h-44.9c-1.7,0-3,1.3-3,3v29.1c0,1.7,1.3,3,3,3h44.9V247.3
		L548.6,247.3z"/>
</g>
<text transform="matrix(1 0 0 1 508.9326 269.4512)" class="st8 st6 st12">TASK</text>
<text transform="matrix(1 0 0 1 555.9326 268.5303)" class="st1 st13 st14">rspec spec mpdule-A</text>
<polygon class="st10" points="553.3,272 540.7,264.7 553.3,257.4 "/>
<g>
	<g>
		<line class="st15" x1="603.3" y1="228" x2="603.3" y2="237"/>
		<g>
			<polygon class="st1" points="607.7,236 598.2,236 602.9,240.7 			"/>
		</g>
	</g>
</g>
<path class="st4" d="M1046.7,394H781.1c-1.8,0-3.2-1.4-3.2-3.2V88.3c0-1.8,1.4-3.2,3.2-3.2h265.6c1.8,0,3.2,1.4,3.2,3.2v302.5
	C1049.9,392.6,1048.5,394,1046.7,394z"/>
<path class="st8" d="M1027.4,365.8H802.7c-1.8,0-3.2-1.5-3.2-3.2V147.3c0-1.8,1.5-3.2,3.2-3.2h224.7c1.8,0,3.2,1.5,3.2,3.2v215.2
	C1030.6,364.3,1029.1,365.8,1027.4,365.8z"/>
<g>
	<text transform="matrix(1 0 0 1 895.6708 169.7636)" class="st1 st6 st9">JOB</text>
</g>
<path class="st10" d="M1015,221.4H821.7c-1.7,0-3-1.3-3-3v-29.1c0-1.7,1.3-3,3-3H1015c1.7,0,3,1.3,3,3v29.1
	C1018,220,1016.7,221.4,1015,221.4z"/>
<g>
	<path class="st11" d="M815.7,219.9c-0.9,0-1.5-0.6-1.5-1.5v-29.1c0-0.9,0.6-1.5,1.5-1.5h43.4v32.1H815.7z"/>
	<path class="st1" d="M857.6,189.3v29.1l-41.9,0l0-29.1H857.6 M860.6,186.3h-44.9c-1.7,0-3,1.3-3,3v29.1c0,1.7,1.3,3,3,3h44.9V186.3
		L860.6,186.3z"/>
</g>
<text transform="matrix(1 0 0 1 820.9326 208.4512)" class="st8 st6 st12">TASK</text>
<text transform="matrix(1 0 0 1 867.9326 207.5303)" class="st1 st13 st14">ant -Dmodule=A compile</text>
<polygon class="st10" points="865.3,211 852.7,203.7 865.3,196.4 "/>
<path class="st10" d="M1015,282.4H821.7c-1.7,0-3-1.3-3-3v-29.1c0-1.7,1.3-3,3-3H1015c1.7,0,3,1.3,3,3v29.1
	C1018,281,1016.7,282.4,1015,282.4z"/>
<g>
	<path class="st11" d="M815.7,280.9c-0.9,0-1.5-0.6-1.5-1.5v-29.1c0-0.9,0.6-1.5,1.5-1.5h43.4v32.1H815.7z"/>
	<path class="st1" d="M857.6,250.3v29.1l-41.9,0l0-29.1H857.6 M860.6,247.3h-44.9c-1.7,0-3,1.3-3,3v29.1c0,1.7,1.3,3,3,3h44.9V247.3
		L860.6,247.3z"/>
</g>
<text transform="matrix(1 0 0 1 820.9326 269.4512)" class="st8 st6 st12">TASK</text>
<text transform="matrix(1 0 0 1 867.9326 268.5303)" class="st1 st13 st14">rake create_docs</text>
<polygon class="st10" points="865.3,272 852.7,264.7 865.3,257.4 "/>
<path class="st10" d="M1015,343.4H821.7c-1.7,0-3-1.3-3-3v-29.1c0-1.7,1.3-3,3-3H1015c1.7,0,3,1.3,3,3v29.1
	C1018,342,1016.7,343.4,1015,343.4z"/>
<g>
	<path class="st11" d="M815.7,341.9c-0.9,0-1.5-0.6-1.5-1.5v-29.1c0-0.9,0.6-1.5,1.5-1.5h43.4v32.1H815.7z"/>
	<path class="st1" d="M857.6,311.3v29.1l-41.9,0l0-29.1H857.6 M860.6,308.3h-44.9c-1.7,0-3,1.3-3,3v29.1c0,1.7,1.3,3,3,3h44.9V308.3
		L860.6,308.3z"/>
</g>
<text transform="matrix(1 0 0 1 820.9326 330.4512)" class="st8 st6 st12">TASK</text>
<text transform="matrix(1 0 0 1 867.9326 329.5303)" class="st1 st13 st14">create_package.sh</text>
<polygon class="st10" points="865.3,333 852.7,325.7 865.3,318.4 "/>
<g>
	<g>
		<line class="st15" x1="915.3" y1="228" x2="915.3" y2="237"/>
		<g>
			<polygon class="st1" points="919.7,236 910.2,236 914.9,240.7 			"/>
		</g>
	</g>
</g>
<g>
	<g>
		<line class="st15" x1="915.3" y1="291" x2="915.3" y2="300"/>
		<g>
			<polygon class="st1" points="919.7,299 910.2,299 914.9,303.7 			"/>
		</g>
	</g>
</g>
<rect y="319.5" class="st19" width="107.9" height="53.6"/>
<g>
	<text transform="matrix(1 0 0 1 7.9999 330.9022)" class="st5 st2 st14">THESE JOBS WILL </text>
	<text transform="matrix(1 0 0 1 7.9999 348.9022)" class="st5 st2 st14">RUN IN PARALLEL</text>
</g>
<line class="st20" x1="62" y1="216" x2="62" y2="305"/>
<g>
	<g>
		<line class="st21" x1="141.2" y1="216" x2="61.6" y2="216"/>
		<g>
			<polygon class="st1" points="139,208.5 151.9,216 139,223.5 			"/>
		</g>
	</g>
</g>
<g>
	<g>
		<line class="st21" x1="454" y1="216" x2="426.3" y2="216"/>
		<g>
			<polygon class="st1" points="451.8,208.5 464.8,216 451.8,223.5 			"/>
		</g>
	</g>
</g>
<g>
	<g>
		<line class="st21" x1="767.3" y1="216" x2="737.3" y2="216"/>
		<g>
			<polygon class="st1" points="765.1,208.5 778,216 765.1,223.5 			"/>
		</g>
	</g>
</g>
<line class="st20" x1="62" y1="363" x2="62" y2="452"/>
<g>
	<g>
		<line class="st21" x1="141.2" y1="451" x2="61.6" y2="451"/>
		<g>
			<polygon class="st1" points="139,443.5 151.9,451 139,458.5 			"/>
		</g>
	</g>
</g>
<text transform="matrix(1 0 0 1 566.7065 121.1499)" class="st5 st6 st7">STAGE 2</text>
<text transform="matrix(1 0 0 1 878.7065 121.1499)" class="st5 st6 st7">STAGE 3</text>
</svg>
