<?xml version="1.0" encoding="utf-8"?>
<!-- Generator: Adobe Illustrator 21.1.0, SVG Export Plug-In . SVG Version: 6.00 Build 0)  -->
<svg version="1.1" id="Layer_1" xmlns="http://www.w3.org/2000/svg" xmlns:xlink="http://www.w3.org/1999/xlink" x="0px" y="0px"
	 viewBox="0 0 516 235" style="enable-background:new 0 0 516 235;" xml:space="preserve">
<style type="text/css">
	.st0{fill:#EFEFEF;stroke:#1C425C;stroke-width:3;stroke-miterlimit:10;}
	.st1{fill:#FFFFFF;stroke:#1C425C;stroke-width:3;stroke-miterlimit:10;}
	.st2{fill:#1C425C;}
	.st3{font-family:'URWGeometric-ExtraBold';}
	.st4{font-size:14px;}
	.st5{fill:none;stroke:#028A9E;stroke-width:2.185;stroke-linecap:round;stroke-miterlimit:10;}
	.st6{fill:#028A9E;}
	.st7{fill:none;stroke:#046D70;stroke-width:2.185;stroke-linecap:round;stroke-miterlimit:10;}
	.st8{fill:#046D70;}
	.st9{fill:none;stroke:#04BFBF;stroke-width:2.185;stroke-linecap:round;stroke-miterlimit:10;}
	.st10{fill:#04BFBF;}
	.st11{fill:#023550;}
	.st12{font-family:'URWGeometric-Bold';}
	.st13{font-size:11px;}
	.st14{fill:#BDD350;stroke:#1C425C;stroke-width:3;stroke-miterlimit:10;}
	.st15{clip-path:url(#SVGID_2_);fill:#75BCDA;}
	.st16{clip-path:url(#SVGID_2_);fill:none;stroke:#023550;stroke-miterlimit:10;}
	.st17{clip-path:url(#SVGID_4_);fill:none;stroke:#023550;stroke-miterlimit:10;}
	.st18{clip-path:url(#SVGID_6_);fill:#75BCDA;}
	.st19{clip-path:url(#SVGID_6_);fill:none;stroke:#023550;stroke-miterlimit:10;}
	.st20{clip-path:url(#SVGID_8_);fill:none;stroke:#023550;stroke-miterlimit:10;}
	.st21{fill:#75BCDA;}
	.st22{fill:none;}
	.st23{clip-path:url(#SVGID_10_);fill:none;stroke:#023550;stroke-miterlimit:10;}
	.st24{clip-path:url(#SVGID_12_);fill:#75BCDA;}
	.st25{clip-path:url(#SVGID_12_);fill:none;stroke:#023550;stroke-miterlimit:10;}
	.st26{clip-path:url(#SVGID_14_);fill:none;stroke:#023550;stroke-miterlimit:10;}
	.st27{fill:none;stroke:#023550;stroke-miterlimit:10;}
	.st28{clip-path:url(#SVGID_16_);fill:none;stroke:#023550;stroke-miterlimit:10;}
	.st29{clip-path:url(#SVGID_18_);fill:#75BCDA;}
	.st30{clip-path:url(#SVGID_20_);fill:none;stroke:#023550;stroke-miterlimit:10;}
	.st31{clip-path:url(#SVGID_22_);fill:#75BCDA;}
	.st32{clip-path:url(#SVGID_22_);fill:none;stroke:#023550;stroke-miterlimit:10;}
	.st33{clip-path:url(#SVGID_24_);fill:#75BCDA;}
	.st34{clip-path:url(#SVGID_24_);fill:none;stroke:#023550;stroke-miterlimit:10;}
	.st35{clip-path:url(#SVGID_26_);fill:#75BCDA;}
	.st36{clip-path:url(#SVGID_26_);fill:none;stroke:#023550;stroke-miterlimit:10;}
	.st37{clip-path:url(#SVGID_28_);fill:#75BCDA;}
	.st38{clip-path:url(#SVGID_28_);fill:none;stroke:#023550;stroke-miterlimit:10;}
	.st39{clip-path:url(#SVGID_30_);fill:none;stroke:#023550;stroke-miterlimit:10;}
	.st40{clip-path:url(#SVGID_32_);fill:#75BCDA;}
	.st41{clip-path:url(#SVGID_32_);fill:none;stroke:#023550;stroke-miterlimit:10;}
	.st42{clip-path:url(#SVGID_34_);fill:none;stroke:#023550;stroke-miterlimit:10;}
	.st43{clip-path:url(#SVGID_36_);fill:#75BCDA;}
	.st44{clip-path:url(#SVGID_36_);fill:none;stroke:#023550;stroke-miterlimit:10;}
	.st45{clip-path:url(#SVGID_38_);fill:none;stroke:#023550;stroke-miterlimit:10;}
	.st46{clip-path:url(#SVGID_40_);fill:none;stroke:#023550;stroke-miterlimit:10;}
	.st47{clip-path:url(#SVGID_42_);fill:#75BCDA;}
	.st48{clip-path:url(#SVGID_42_);fill:none;stroke:#023550;stroke-miterlimit:10;}
	.st49{clip-path:url(#SVGID_44_);fill:none;stroke:#023550;stroke-miterlimit:10;}
	.st50{clip-path:url(#SVGID_46_);fill:none;stroke:#023550;stroke-miterlimit:10;}
	.st51{clip-path:url(#SVGID_48_);fill:#75BCDA;}
	.st52{clip-path:url(#SVGID_50_);fill:none;stroke:#023550;stroke-miterlimit:10;}
	.st53{clip-path:url(#SVGID_52_);fill:#75BCDA;}
	.st54{clip-path:url(#SVGID_52_);fill:none;stroke:#023550;stroke-miterlimit:10;}
	.st55{clip-path:url(#SVGID_54_);fill:#75BCDA;}
	.st56{clip-path:url(#SVGID_54_);fill:none;stroke:#023550;stroke-miterlimit:10;}
	.st57{clip-path:url(#SVGID_56_);fill:#75BCDA;}
	.st58{clip-path:url(#SVGID_56_);fill:none;stroke:#023550;stroke-miterlimit:10;}
	.st59{clip-path:url(#SVGID_58_);fill:#75BCDA;}
	.st60{clip-path:url(#SVGID_58_);fill:none;stroke:#023550;stroke-miterlimit:10;}
	.st61{clip-path:url(#SVGID_60_);fill:none;stroke:#023550;stroke-miterlimit:10;}
	.st62{clip-path:url(#SVGID_62_);fill:#75BCDA;}
	.st63{clip-path:url(#SVGID_62_);fill:none;stroke:#023550;stroke-miterlimit:10;}
	.st64{clip-path:url(#SVGID_64_);fill:none;stroke:#023550;stroke-miterlimit:10;}
	.st65{clip-path:url(#SVGID_66_);fill:#75BCDA;}
	.st66{clip-path:url(#SVGID_66_);fill:none;stroke:#023550;stroke-miterlimit:10;}
	.st67{clip-path:url(#SVGID_68_);fill:none;stroke:#023550;stroke-miterlimit:10;}
	.st68{clip-path:url(#SVGID_70_);fill:none;stroke:#023550;stroke-miterlimit:10;}
	.st69{clip-path:url(#SVGID_72_);fill:#75BCDA;}
	.st70{clip-path:url(#SVGID_72_);fill:none;stroke:#023550;stroke-miterlimit:10;}
	.st71{clip-path:url(#SVGID_74_);fill:none;stroke:#023550;stroke-miterlimit:10;}
	.st72{clip-path:url(#SVGID_76_);fill:none;stroke:#023550;stroke-miterlimit:10;}
	.st73{clip-path:url(#SVGID_78_);fill:#75BCDA;}
	.st74{clip-path:url(#SVGID_80_);fill:none;stroke:#023550;stroke-miterlimit:10;}
	.st75{clip-path:url(#SVGID_82_);fill:#75BCDA;}
	.st76{clip-path:url(#SVGID_82_);fill:none;stroke:#023550;stroke-miterlimit:10;}
	.st77{clip-path:url(#SVGID_84_);fill:#75BCDA;}
	.st78{clip-path:url(#SVGID_84_);fill:none;stroke:#023550;stroke-miterlimit:10;}
	.st79{clip-path:url(#SVGID_86_);fill:#75BCDA;}
	.st80{clip-path:url(#SVGID_86_);fill:none;stroke:#023550;stroke-miterlimit:10;}
	.st81{clip-path:url(#SVGID_88_);fill:#75BCDA;}
	.st82{clip-path:url(#SVGID_88_);fill:none;stroke:#023550;stroke-miterlimit:10;}
	.st83{clip-path:url(#SVGID_90_);fill:none;stroke:#023550;stroke-miterlimit:10;}
	.st84{fill:none;stroke:#1C425C;stroke-width:3;stroke-linecap:round;stroke-linejoin:round;}
</style>
<path class="st0" d="M491.8,179.7H253.1c-6.8,0-12.3-5.6-12.3-12.3V52.1c0-6.8,5.6-12.3,12.3-12.3h238.7c6.8,0,12.3,5.6,12.3,12.3
	v115.3C504.1,174.2,498.6,179.7,491.8,179.7z"/>
<path class="st1" d="M326.7,154.2h-45.3c-2.8,0-5-2.2-5-5V82.1c0-2.8,2.2-5,5-5h45.3c2.8,0,5,2.2,5,5v67.2
	C331.7,152,329.4,154.2,326.7,154.2z"/>
<path class="st1" d="M395.7,154.2h-45.3c-2.8,0-5-2.2-5-5V82.1c0-2.8,2.2-5,5-5h45.3c2.8,0,5,2.2,5,5v67.2
	C400.7,152,398.5,154.2,395.7,154.2z"/>
<path class="st1" d="M464.8,154.2h-45.3c-2.8,0-5-2.2-5-5V82.1c0-2.8,2.2-5,5-5h45.3c2.8,0,5,2.2,5,5v67.2
	C469.8,152,467.5,154.2,464.8,154.2z"/>
<text transform="matrix(1 0 0 1 347.2079 64.0001)" class="st2 st3 st4">PIPELINE</text>
<g>
	<g>
		<g>
			<g>
				<g>
					<path class="st5" d="M290.3,110.9c-0.2-1-0.3-2.1-0.3-3.2c0-6.7,4.4-12.5,10.5-14.4"/>
					<g>
						<polygon class="st6" points="307.8,90.9 298.8,98.4 299.9,93.4 296.1,90 						"/>
					</g>
				</g>
			</g>
			<g>
				<g>
					<path class="st7" d="M295,118.9c2.7,2.4,6.2,3.9,10.1,3.9s7.5-1.5,10.2-4"/>
					<g>
						<polygon class="st8" points="289.3,113.8 294.4,124.3 295.4,119.3 300.3,117.7 						"/>
					</g>
				</g>
			</g>
			<g>
				<g>
					<path class="st9" d="M309.8,93.2c6.1,2,10.5,7.7,10.5,14.4c0,1.1-0.1,2.1-0.3,3.1"/>
					<g>
						<polygon class="st10" points="318.4,118.3 316.2,106.7 320.1,110.2 324.9,108.6 						"/>
					</g>
				</g>
			</g>
		</g>
		<g>
			<text transform="matrix(1 0 0 1 286.9766 143.5305)" class="st11 st12 st13">STAGE 1</text>
		</g>
	</g>
	<g>
		<g>
			<g>
				<g>
					<path class="st5" d="M358.2,110.9c-0.2-1-0.3-2.1-0.3-3.2c0-6.7,4.4-12.5,10.5-14.4"/>
					<g>
						<polygon class="st6" points="375.7,90.9 366.7,98.4 367.8,93.4 364,90 						"/>
					</g>
				</g>
			</g>
			<g>
				<g>
					<path class="st7" d="M362.9,118.9c2.7,2.4,6.2,3.9,10.1,3.9s7.5-1.5,10.2-4"/>
					<g>
						<polygon class="st8" points="357.1,113.8 362.3,124.3 363.3,119.3 368.2,117.7 						"/>
					</g>
				</g>
			</g>
			<g>
				<g>
					<path class="st9" d="M377.6,93.2c6.1,2,10.5,7.7,10.5,14.4c0,1.1-0.1,2.1-0.3,3.1"/>
					<g>
						<polygon class="st10" points="386.3,118.3 384.1,106.7 387.9,110.2 392.8,108.6 						"/>
					</g>
				</g>
			</g>
		</g>
		<g>
			<text transform="matrix(1 0 0 1 353.8574 143.5305)" class="st11 st12 st13">STAGE 2</text>
		</g>
	</g>
	<g>
		<g>
			<g>
				<g>
					<path class="st5" d="M426.1,110.9c-0.2-1-0.3-2.1-0.3-3.2c0-6.7,4.4-12.5,10.5-14.4"/>
					<g>
						<polygon class="st6" points="443.6,90.9 434.6,98.4 435.7,93.4 431.9,90 						"/>
					</g>
				</g>
			</g>
			<g>
				<g>
					<path class="st7" d="M430.8,118.9c2.7,2.4,6.2,3.9,10.1,3.9s7.5-1.5,10.2-4"/>
					<g>
						<polygon class="st8" points="425,113.8 430.1,124.3 431.2,119.3 436.1,117.7 						"/>
					</g>
				</g>
			</g>
			<g>
				<g>
					<path class="st9" d="M445.5,93.2c6.1,2,10.5,7.7,10.5,14.4c0,1.1-0.1,2.1-0.3,3.1"/>
					<g>
						<polygon class="st10" points="454.1,118.3 452,106.7 455.8,110.2 460.7,108.6 						"/>
					</g>
				</g>
			</g>
		</g>
		<g>
			<text transform="matrix(1 0 0 1 421.7383 143.5305)" class="st11 st12 st13">STAGE 3</text>
		</g>
	</g>
</g>
<path class="st14" d="M105.2,94.5h-79c-5.5,0-10-4.5-10-10V60c0-5.5,4.5-10,10-10h79c5.5,0,10,4.5,10,10v24.5
	C115.2,90,110.8,94.5,105.2,94.5z"/>
<g>
	<text transform="matrix(1 0 0 1 32.3638 77.0702)" class="st2 st3 st4">MATERIAL 1</text>
</g>
<path class="st14" d="M105.2,157.2h-79c-5.5,0-10-4.5-10-10v-24.5c0-5.5,4.5-10,10-10h79c5.5,0,10,4.5,10,10v24.5
	C115.2,152.7,110.8,157.2,105.2,157.2z"/>
<g>
	<text transform="matrix(1 0 0 1 32.3638 139.7603)" class="st2 st3 st4">MATERIAL 2</text>
</g>
<g>
	<defs>
		<rect id="SVGID_1_" x="296.9" y="97.1" width="16.5" height="19.1"/>
	</defs>
	<clipPath id="SVGID_2_">
		<use xlink:href="#SVGID_1_"  style="overflow:visible;"/>
	</clipPath>
	<polygon class="st15" points="305.2,102.1 309.1,104.3 309.1,108.9 305.2,111.2 301.2,108.9 301.2,104.3 	"/>
	<polygon class="st16" points="305.2,102.1 309.1,104.3 309.1,108.9 305.2,111.2 301.2,108.9 301.2,104.3 	"/>
	<path class="st15" d="M305.2,111.2v-4.6V111.2z"/>
	<line class="st16" x1="305.2" y1="111.2" x2="305.2" y2="106.6"/>
	<line class="st15" x1="305.2" y1="106.6" x2="301.2" y2="104.3"/>
	<line class="st16" x1="305.2" y1="106.6" x2="301.2" y2="104.3"/>
	<line class="st15" x1="309.1" y1="104.3" x2="305.2" y2="106.6"/>
	<line class="st16" x1="309.1" y1="104.3" x2="305.2" y2="106.6"/>
	<polygon class="st15" points="309.1,104.3 313.1,106.6 313.1,111.2 309.1,113.5 305.2,111.2 305.2,106.6 	"/>
</g>
<g>
	<defs>
		<rect id="SVGID_3_" x="296.9" y="97.1" width="16.5" height="19.1"/>
	</defs>
	<clipPath id="SVGID_4_">
		<use xlink:href="#SVGID_3_"  style="overflow:visible;"/>
	</clipPath>
	<polygon class="st17" points="309.1,104.3 313.1,106.6 313.1,111.2 309.1,113.5 305.2,111.2 305.2,106.6 	"/>
</g>
<g>
	<defs>
		<rect id="SVGID_5_" x="296.9" y="97.1" width="16.5" height="19.1"/>
	</defs>
	<clipPath id="SVGID_6_">
		<use xlink:href="#SVGID_5_"  style="overflow:visible;"/>
	</clipPath>
	<path class="st18" d="M309.1,113.5v-4.6V113.5z"/>
	<line class="st19" x1="309.1" y1="113.5" x2="309.1" y2="108.9"/>
	<line class="st18" x1="309.1" y1="108.9" x2="305.2" y2="106.6"/>
	<line class="st19" x1="309.1" y1="108.9" x2="305.2" y2="106.6"/>
	<line class="st18" x1="313.1" y1="106.6" x2="309.1" y2="108.9"/>
</g>
<g>
	<defs>
		<rect id="SVGID_7_" x="296.9" y="97.1" width="16.5" height="19.1"/>
	</defs>
	<clipPath id="SVGID_8_">
		<use xlink:href="#SVGID_7_"  style="overflow:visible;"/>
	</clipPath>
	<line class="st20" x1="313.1" y1="106.6" x2="309.1" y2="108.9"/>
</g>
<polygon class="st21" points="301.2,104.3 305.2,106.6 305.2,111.2 301.2,113.5 297.3,111.2 297.3,106.6 "/>
<rect x="296.9" y="97.1" class="st22" width="16.5" height="19.1"/>
<g>
	<defs>
		<rect id="SVGID_9_" x="296.9" y="97.1" width="16.5" height="19.1"/>
	</defs>
	<clipPath id="SVGID_10_">
		<use xlink:href="#SVGID_9_"  style="overflow:visible;"/>
	</clipPath>
	<polygon class="st23" points="301.2,104.3 305.2,106.6 305.2,111.2 301.2,113.5 297.3,111.2 297.3,106.6 	"/>
</g>
<g>
	<defs>
		<rect id="SVGID_11_" x="296.9" y="97.1" width="16.5" height="19.1"/>
	</defs>
	<clipPath id="SVGID_12_">
		<use xlink:href="#SVGID_11_"  style="overflow:visible;"/>
	</clipPath>
	<path class="st24" d="M301.2,113.5v-4.6V113.5z"/>
	<line class="st25" x1="301.2" y1="113.5" x2="301.2" y2="108.9"/>
	<line class="st24" x1="301.2" y1="108.9" x2="297.3" y2="106.6"/>
</g>
<g>
	<defs>
		<rect id="SVGID_13_" x="296.9" y="97.1" width="16.5" height="19.1"/>
	</defs>
	<clipPath id="SVGID_14_">
		<use xlink:href="#SVGID_13_"  style="overflow:visible;"/>
	</clipPath>
	<line class="st26" x1="301.2" y1="108.9" x2="297.3" y2="106.6"/>
</g>
<line class="st21" x1="305.2" y1="106.6" x2="301.2" y2="108.9"/>
<line class="st27" x1="305.2" y1="106.6" x2="301.2" y2="108.9"/>
<polygon class="st21" points="305.2,106.6 309.1,108.9 309.1,113.5 305.2,115.8 301.2,113.5 301.2,108.9 "/>
<rect x="296.9" y="97.1" class="st22" width="16.5" height="19.1"/>
<g>
	<defs>
		<rect id="SVGID_15_" x="296.9" y="97.1" width="16.5" height="19.1"/>
	</defs>
	<clipPath id="SVGID_16_">
		<use xlink:href="#SVGID_15_"  style="overflow:visible;"/>
	</clipPath>
	<polygon class="st28" points="305.2,106.6 309.1,108.9 309.1,113.5 305.2,115.8 301.2,113.5 301.2,108.9 	"/>
</g>
<g>
	<defs>
		<rect id="SVGID_17_" x="296.9" y="97.1" width="16.5" height="19.1"/>
	</defs>
	<clipPath id="SVGID_18_">
		<use xlink:href="#SVGID_17_"  style="overflow:visible;"/>
	</clipPath>
	<path class="st29" d="M305.2,115.8v-4.6V115.8z"/>
</g>
<g>
	<defs>
		<rect id="SVGID_19_" x="296.9" y="97.1" width="16.5" height="19.1"/>
	</defs>
	<clipPath id="SVGID_20_">
		<use xlink:href="#SVGID_19_"  style="overflow:visible;"/>
	</clipPath>
	<line class="st30" x1="305.2" y1="115.8" x2="305.2" y2="111.2"/>
</g>
<g>
	<defs>
		<rect id="SVGID_21_" x="296.9" y="97.1" width="16.5" height="19.1"/>
	</defs>
	<clipPath id="SVGID_22_">
		<use xlink:href="#SVGID_21_"  style="overflow:visible;"/>
	</clipPath>
	<line class="st31" x1="305.2" y1="111.2" x2="301.2" y2="108.9"/>
	<line class="st32" x1="305.2" y1="111.2" x2="301.2" y2="108.9"/>
	<line class="st31" x1="309.1" y1="108.9" x2="305.2" y2="111.2"/>
	<line class="st32" x1="309.1" y1="108.9" x2="305.2" y2="111.2"/>
	<polygon class="st31" points="305.2,97.5 309.1,99.8 309.1,104.3 305.2,106.6 301.2,104.3 301.2,99.8 	"/>
</g>
<polygon class="st27" points="305.2,97.5 309.1,99.8 309.1,104.3 305.2,106.6 301.2,104.3 301.2,99.8 "/>
<rect x="296.9" y="97.1" class="st22" width="16.5" height="19.1"/>
<g>
	<defs>
		<rect id="SVGID_23_" x="296.9" y="97.1" width="16.5" height="19.1"/>
	</defs>
	<clipPath id="SVGID_24_">
		<use xlink:href="#SVGID_23_"  style="overflow:visible;"/>
	</clipPath>
	<path class="st33" d="M305.2,106.6v-4.6V106.6z"/>
	<line class="st34" x1="305.2" y1="106.6" x2="305.2" y2="102.1"/>
	<line class="st33" x1="305.2" y1="102.1" x2="301.2" y2="99.8"/>
	<line class="st34" x1="305.2" y1="102.1" x2="301.2" y2="99.8"/>
	<line class="st33" x1="309.1" y1="99.8" x2="305.2" y2="102.1"/>
	<line class="st34" x1="309.1" y1="99.8" x2="305.2" y2="102.1"/>
	<polygon class="st33" points="309.1,99.8 313.1,102.1 313.1,106.6 309.1,108.9 305.2,106.6 305.2,102.1 	"/>
</g>
<polygon class="st27" points="309.1,99.8 313.1,102.1 313.1,106.6 309.1,108.9 305.2,106.6 305.2,102.1 "/>
<rect x="296.9" y="97.1" class="st22" width="16.5" height="19.1"/>
<g>
	<defs>
		<rect id="SVGID_25_" x="296.9" y="97.1" width="16.5" height="19.1"/>
	</defs>
	<clipPath id="SVGID_26_">
		<use xlink:href="#SVGID_25_"  style="overflow:visible;"/>
	</clipPath>
	<path class="st35" d="M309.1,108.9v-4.6V108.9z"/>
	<line class="st36" x1="309.1" y1="108.9" x2="309.1" y2="104.3"/>
	<line class="st35" x1="309.1" y1="104.3" x2="305.2" y2="102.1"/>
	<line class="st36" x1="309.1" y1="104.3" x2="305.2" y2="102.1"/>
	<line class="st35" x1="313.1" y1="102.1" x2="309.1" y2="104.3"/>
</g>
<line class="st27" x1="313.1" y1="102.1" x2="309.1" y2="104.3"/>
<rect x="296.9" y="97.1" class="st22" width="16.5" height="19.1"/>
<polygon class="st21" points="301.2,99.8 305.2,102.1 305.2,106.6 301.2,108.9 297.3,106.6 297.3,102.1 "/>
<rect x="296.9" y="97.1" class="st22" width="16.5" height="19.1"/>
<polygon class="st27" points="301.2,99.8 305.2,102.1 305.2,106.6 301.2,108.9 297.3,106.6 297.3,102.1 "/>
<rect x="296.9" y="97.1" class="st22" width="16.5" height="19.1"/>
<g>
	<defs>
		<rect id="SVGID_27_" x="296.9" y="97.1" width="16.5" height="19.1"/>
	</defs>
	<clipPath id="SVGID_28_">
		<use xlink:href="#SVGID_27_"  style="overflow:visible;"/>
	</clipPath>
	<path class="st37" d="M301.2,108.9v-4.6V108.9z"/>
	<line class="st38" x1="301.2" y1="108.9" x2="301.2" y2="104.3"/>
	<line class="st37" x1="301.2" y1="104.3" x2="297.3" y2="102.1"/>
</g>
<g>
	<defs>
		<rect id="SVGID_29_" x="296.9" y="97.1" width="16.5" height="19.1"/>
	</defs>
	<clipPath id="SVGID_30_">
		<use xlink:href="#SVGID_29_"  style="overflow:visible;"/>
	</clipPath>
	<line class="st39" x1="301.2" y1="104.3" x2="297.3" y2="102.1"/>
</g>
<line class="st21" x1="305.2" y1="102.1" x2="301.2" y2="104.3"/>
<line class="st27" x1="305.2" y1="102.1" x2="301.2" y2="104.3"/>
<polygon class="st21" points="305.2,102.1 309.1,104.3 309.1,108.9 305.2,111.2 301.2,108.9 301.2,104.3 "/>
<polygon class="st27" points="305.2,102.1 309.1,104.3 309.1,108.9 305.2,111.2 301.2,108.9 301.2,104.3 "/>
<path class="st21" d="M305.2,111.2v-4.6V111.2z"/>
<line class="st27" x1="305.2" y1="111.2" x2="305.2" y2="106.6"/>
<line class="st21" x1="305.2" y1="106.6" x2="301.2" y2="104.3"/>
<line class="st27" x1="305.2" y1="106.6" x2="301.2" y2="104.3"/>
<line class="st21" x1="309.1" y1="104.3" x2="305.2" y2="106.6"/>
<line class="st27" x1="309.1" y1="104.3" x2="305.2" y2="106.6"/>
<rect x="296.9" y="97.1" class="st22" width="16.5" height="19.1"/>
<g>
	<defs>
		<rect id="SVGID_31_" x="364.8" y="97.1" width="16.5" height="19.1"/>
	</defs>
	<clipPath id="SVGID_32_">
		<use xlink:href="#SVGID_31_"  style="overflow:visible;"/>
	</clipPath>
	<polygon class="st40" points="373,102.1 377,104.3 377,108.9 373,111.2 369.1,108.9 369.1,104.3 	"/>
	<polygon class="st41" points="373,102.1 377,104.3 377,108.9 373,111.2 369.1,108.9 369.1,104.3 	"/>
	<path class="st40" d="M373,111.2v-4.6V111.2z"/>
	<line class="st41" x1="373" y1="111.2" x2="373" y2="106.6"/>
	<line class="st40" x1="373" y1="106.6" x2="369.1" y2="104.3"/>
	<line class="st41" x1="373" y1="106.6" x2="369.1" y2="104.3"/>
	<line class="st40" x1="377" y1="104.3" x2="373" y2="106.6"/>
	<line class="st41" x1="377" y1="104.3" x2="373" y2="106.6"/>
	<polygon class="st40" points="377,104.3 380.9,106.6 380.9,111.2 377,113.5 373,111.2 373,106.6 	"/>
</g>
<g>
	<defs>
		<rect id="SVGID_33_" x="364.8" y="97.1" width="16.5" height="19.1"/>
	</defs>
	<clipPath id="SVGID_34_">
		<use xlink:href="#SVGID_33_"  style="overflow:visible;"/>
	</clipPath>
	<polygon class="st42" points="377,104.3 380.9,106.6 380.9,111.2 377,113.5 373,111.2 373,106.6 	"/>
</g>
<g>
	<defs>
		<rect id="SVGID_35_" x="364.8" y="97.1" width="16.5" height="19.1"/>
	</defs>
	<clipPath id="SVGID_36_">
		<use xlink:href="#SVGID_35_"  style="overflow:visible;"/>
	</clipPath>
	<path class="st43" d="M377,113.5v-4.6V113.5z"/>
	<line class="st44" x1="377" y1="113.5" x2="377" y2="108.9"/>
	<line class="st43" x1="377" y1="108.9" x2="373" y2="106.6"/>
	<line class="st44" x1="377" y1="108.9" x2="373" y2="106.6"/>
	<line class="st43" x1="380.9" y1="106.6" x2="377" y2="108.9"/>
</g>
<g>
	<defs>
		<rect id="SVGID_37_" x="364.8" y="97.1" width="16.5" height="19.1"/>
	</defs>
	<clipPath id="SVGID_38_">
		<use xlink:href="#SVGID_37_"  style="overflow:visible;"/>
	</clipPath>
	<line class="st45" x1="380.9" y1="106.6" x2="377" y2="108.9"/>
</g>
<polygon class="st21" points="369.1,104.3 373,106.6 373,111.2 369.1,113.5 365.1,111.2 365.1,106.6 "/>
<rect x="364.8" y="97.1" class="st22" width="16.5" height="19.1"/>
<g>
	<defs>
		<rect id="SVGID_39_" x="364.8" y="97.1" width="16.5" height="19.1"/>
	</defs>
	<clipPath id="SVGID_40_">
		<use xlink:href="#SVGID_39_"  style="overflow:visible;"/>
	</clipPath>
	<polygon class="st46" points="369.1,104.3 373,106.6 373,111.2 369.1,113.5 365.1,111.2 365.1,106.6 	"/>
</g>
<g>
	<defs>
		<rect id="SVGID_41_" x="364.8" y="97.1" width="16.5" height="19.1"/>
	</defs>
	<clipPath id="SVGID_42_">
		<use xlink:href="#SVGID_41_"  style="overflow:visible;"/>
	</clipPath>
	<path class="st47" d="M369.1,113.5v-4.6V113.5z"/>
	<line class="st48" x1="369.1" y1="113.5" x2="369.1" y2="108.9"/>
	<line class="st47" x1="369.1" y1="108.9" x2="365.1" y2="106.6"/>
</g>
<g>
	<defs>
		<rect id="SVGID_43_" x="364.8" y="97.1" width="16.5" height="19.1"/>
	</defs>
	<clipPath id="SVGID_44_">
		<use xlink:href="#SVGID_43_"  style="overflow:visible;"/>
	</clipPath>
	<line class="st49" x1="369.1" y1="108.9" x2="365.1" y2="106.6"/>
</g>
<line class="st21" x1="373" y1="106.6" x2="369.1" y2="108.9"/>
<line class="st27" x1="373" y1="106.6" x2="369.1" y2="108.9"/>
<polygon class="st21" points="373,106.6 377,108.9 377,113.5 373,115.8 369.1,113.5 369.1,108.9 "/>
<rect x="364.8" y="97.1" class="st22" width="16.5" height="19.1"/>
<g>
	<defs>
		<rect id="SVGID_45_" x="364.8" y="97.1" width="16.5" height="19.1"/>
	</defs>
	<clipPath id="SVGID_46_">
		<use xlink:href="#SVGID_45_"  style="overflow:visible;"/>
	</clipPath>
	<polygon class="st50" points="373,106.6 377,108.9 377,113.5 373,115.8 369.1,113.5 369.1,108.9 	"/>
</g>
<g>
	<defs>
		<rect id="SVGID_47_" x="364.8" y="97.1" width="16.5" height="19.1"/>
	</defs>
	<clipPath id="SVGID_48_">
		<use xlink:href="#SVGID_47_"  style="overflow:visible;"/>
	</clipPath>
	<path class="st51" d="M373,115.8v-4.6V115.8z"/>
</g>
<g>
	<defs>
		<rect id="SVGID_49_" x="364.8" y="97.1" width="16.5" height="19.1"/>
	</defs>
	<clipPath id="SVGID_50_">
		<use xlink:href="#SVGID_49_"  style="overflow:visible;"/>
	</clipPath>
	<line class="st52" x1="373" y1="115.8" x2="373" y2="111.2"/>
</g>
<g>
	<defs>
		<rect id="SVGID_51_" x="364.8" y="97.1" width="16.5" height="19.1"/>
	</defs>
	<clipPath id="SVGID_52_">
		<use xlink:href="#SVGID_51_"  style="overflow:visible;"/>
	</clipPath>
	<line class="st53" x1="373" y1="111.2" x2="369.1" y2="108.9"/>
	<line class="st54" x1="373" y1="111.2" x2="369.1" y2="108.9"/>
	<line class="st53" x1="377" y1="108.9" x2="373" y2="111.2"/>
	<line class="st54" x1="377" y1="108.9" x2="373" y2="111.2"/>
	<polygon class="st53" points="373,97.5 377,99.8 377,104.3 373,106.6 369.1,104.3 369.1,99.8 	"/>
</g>
<polygon class="st27" points="373,97.5 377,99.8 377,104.3 373,106.6 369.1,104.3 369.1,99.8 "/>
<rect x="364.8" y="97.1" class="st22" width="16.5" height="19.1"/>
<g>
	<defs>
		<rect id="SVGID_53_" x="364.8" y="97.1" width="16.5" height="19.1"/>
	</defs>
	<clipPath id="SVGID_54_">
		<use xlink:href="#SVGID_53_"  style="overflow:visible;"/>
	</clipPath>
	<path class="st55" d="M373,106.6v-4.6V106.6z"/>
	<line class="st56" x1="373" y1="106.6" x2="373" y2="102.1"/>
	<line class="st55" x1="373" y1="102.1" x2="369.1" y2="99.8"/>
	<line class="st56" x1="373" y1="102.1" x2="369.1" y2="99.8"/>
	<line class="st55" x1="377" y1="99.8" x2="373" y2="102.1"/>
	<line class="st56" x1="377" y1="99.8" x2="373" y2="102.1"/>
	<polygon class="st55" points="377,99.8 380.9,102.1 380.9,106.6 377,108.9 373,106.6 373,102.1 	"/>
</g>
<polygon class="st27" points="377,99.8 380.9,102.1 380.9,106.6 377,108.9 373,106.6 373,102.1 "/>
<rect x="364.8" y="97.1" class="st22" width="16.5" height="19.1"/>
<g>
	<defs>
		<rect id="SVGID_55_" x="364.8" y="97.1" width="16.5" height="19.1"/>
	</defs>
	<clipPath id="SVGID_56_">
		<use xlink:href="#SVGID_55_"  style="overflow:visible;"/>
	</clipPath>
	<path class="st57" d="M377,108.9v-4.6V108.9z"/>
	<line class="st58" x1="377" y1="108.9" x2="377" y2="104.3"/>
	<line class="st57" x1="377" y1="104.3" x2="373" y2="102.1"/>
	<line class="st58" x1="377" y1="104.3" x2="373" y2="102.1"/>
	<line class="st57" x1="380.9" y1="102.1" x2="377" y2="104.3"/>
</g>
<line class="st27" x1="380.9" y1="102.1" x2="377" y2="104.3"/>
<rect x="364.8" y="97.1" class="st22" width="16.5" height="19.1"/>
<polygon class="st21" points="369.1,99.8 373,102.1 373,106.6 369.1,108.9 365.1,106.6 365.1,102.1 "/>
<rect x="364.8" y="97.1" class="st22" width="16.5" height="19.1"/>
<polygon class="st27" points="369.1,99.8 373,102.1 373,106.6 369.1,108.9 365.1,106.6 365.1,102.1 "/>
<rect x="364.8" y="97.1" class="st22" width="16.5" height="19.1"/>
<g>
	<defs>
		<rect id="SVGID_57_" x="364.8" y="97.1" width="16.5" height="19.1"/>
	</defs>
	<clipPath id="SVGID_58_">
		<use xlink:href="#SVGID_57_"  style="overflow:visible;"/>
	</clipPath>
	<path class="st59" d="M369.1,108.9v-4.6V108.9z"/>
	<line class="st60" x1="369.1" y1="108.9" x2="369.1" y2="104.3"/>
	<line class="st59" x1="369.1" y1="104.3" x2="365.1" y2="102.1"/>
</g>
<g>
	<defs>
		<rect id="SVGID_59_" x="364.8" y="97.1" width="16.5" height="19.1"/>
	</defs>
	<clipPath id="SVGID_60_">
		<use xlink:href="#SVGID_59_"  style="overflow:visible;"/>
	</clipPath>
	<line class="st61" x1="369.1" y1="104.3" x2="365.1" y2="102.1"/>
</g>
<line class="st21" x1="373" y1="102.1" x2="369.1" y2="104.3"/>
<line class="st27" x1="373" y1="102.1" x2="369.1" y2="104.3"/>
<polygon class="st21" points="373,102.1 377,104.3 377,108.9 373,111.2 369.1,108.9 369.1,104.3 "/>
<polygon class="st27" points="373,102.1 377,104.3 377,108.9 373,111.2 369.1,108.9 369.1,104.3 "/>
<path class="st21" d="M373,111.2v-4.6V111.2z"/>
<line class="st27" x1="373" y1="111.2" x2="373" y2="106.6"/>
<line class="st21" x1="373" y1="106.6" x2="369.1" y2="104.3"/>
<line class="st27" x1="373" y1="106.6" x2="369.1" y2="104.3"/>
<line class="st21" x1="377" y1="104.3" x2="373" y2="106.6"/>
<line class="st27" x1="377" y1="104.3" x2="373" y2="106.6"/>
<rect x="364.8" y="97.1" class="st22" width="16.5" height="19.1"/>
<g>
	<defs>
		<rect id="SVGID_61_" x="432.7" y="97.1" width="16.5" height="19.1"/>
	</defs>
	<clipPath id="SVGID_62_">
		<use xlink:href="#SVGID_61_"  style="overflow:visible;"/>
	</clipPath>
	<polygon class="st62" points="441,102.1 444.9,104.4 444.9,109 441,111.3 437,109 437,104.4 	"/>
	<polygon class="st63" points="441,102.1 444.9,104.4 444.9,109 441,111.3 437,109 437,104.4 	"/>
	<path class="st62" d="M441,111.3v-4.6V111.3z"/>
	<line class="st63" x1="441" y1="111.3" x2="441" y2="106.7"/>
	<line class="st62" x1="441" y1="106.7" x2="437" y2="104.4"/>
	<line class="st63" x1="441" y1="106.7" x2="437" y2="104.4"/>
	<line class="st62" x1="444.9" y1="104.4" x2="441" y2="106.7"/>
	<line class="st63" x1="444.9" y1="104.4" x2="441" y2="106.7"/>
	<polygon class="st62" points="444.9,104.4 448.8,106.7 448.8,111.3 444.9,113.6 440.9,111.3 440.9,106.7 	"/>
</g>
<g>
	<defs>
		<rect id="SVGID_63_" x="432.7" y="97.1" width="16.5" height="19.1"/>
	</defs>
	<clipPath id="SVGID_64_">
		<use xlink:href="#SVGID_63_"  style="overflow:visible;"/>
	</clipPath>
	<polygon class="st64" points="444.9,104.4 448.8,106.7 448.8,111.3 444.9,113.6 440.9,111.3 440.9,106.7 	"/>
</g>
<g>
	<defs>
		<rect id="SVGID_65_" x="432.7" y="97.1" width="16.5" height="19.1"/>
	</defs>
	<clipPath id="SVGID_66_">
		<use xlink:href="#SVGID_65_"  style="overflow:visible;"/>
	</clipPath>
	<path class="st65" d="M444.9,113.6V109V113.6z"/>
	<line class="st66" x1="444.9" y1="113.6" x2="444.9" y2="109"/>
	<line class="st65" x1="444.9" y1="109" x2="441" y2="106.7"/>
	<line class="st66" x1="444.9" y1="109" x2="441" y2="106.7"/>
	<line class="st65" x1="448.8" y1="106.7" x2="444.9" y2="109"/>
</g>
<g>
	<defs>
		<rect id="SVGID_67_" x="432.7" y="97.1" width="16.5" height="19.1"/>
	</defs>
	<clipPath id="SVGID_68_">
		<use xlink:href="#SVGID_67_"  style="overflow:visible;"/>
	</clipPath>
	<line class="st67" x1="448.8" y1="106.7" x2="444.9" y2="109"/>
</g>
<polygon class="st21" points="437,104.4 441,106.7 441,111.3 437,113.6 433.1,111.3 433.1,106.7 "/>
<rect x="432.7" y="97.1" class="st22" width="16.5" height="19.1"/>
<g>
	<defs>
		<rect id="SVGID_69_" x="432.7" y="97.1" width="16.5" height="19.1"/>
	</defs>
	<clipPath id="SVGID_70_">
		<use xlink:href="#SVGID_69_"  style="overflow:visible;"/>
	</clipPath>
	<polygon class="st68" points="437,104.4 441,106.7 441,111.3 437,113.6 433.1,111.3 433.1,106.7 	"/>
</g>
<g>
	<defs>
		<rect id="SVGID_71_" x="432.7" y="97.1" width="16.5" height="19.1"/>
	</defs>
	<clipPath id="SVGID_72_">
		<use xlink:href="#SVGID_71_"  style="overflow:visible;"/>
	</clipPath>
	<path class="st69" d="M437,113.6V109V113.6z"/>
	<line class="st70" x1="437" y1="113.6" x2="437" y2="109"/>
	<line class="st69" x1="437" y1="109" x2="433.1" y2="106.7"/>
</g>
<g>
	<defs>
		<rect id="SVGID_73_" x="432.7" y="97.1" width="16.5" height="19.1"/>
	</defs>
	<clipPath id="SVGID_74_">
		<use xlink:href="#SVGID_73_"  style="overflow:visible;"/>
	</clipPath>
	<line class="st71" x1="437" y1="109" x2="433.1" y2="106.7"/>
</g>
<line class="st21" x1="441" y1="106.7" x2="437" y2="109"/>
<line class="st27" x1="441" y1="106.7" x2="437" y2="109"/>
<polygon class="st21" points="441,106.7 444.9,109 444.9,113.6 441,115.8 437,113.6 437,109 "/>
<rect x="432.7" y="97.1" class="st22" width="16.5" height="19.1"/>
<g>
	<defs>
		<rect id="SVGID_75_" x="432.7" y="97.1" width="16.5" height="19.1"/>
	</defs>
	<clipPath id="SVGID_76_">
		<use xlink:href="#SVGID_75_"  style="overflow:visible;"/>
	</clipPath>
	<polygon class="st72" points="441,106.7 444.9,109 444.9,113.6 441,115.8 437,113.6 437,109 	"/>
</g>
<g>
	<defs>
		<rect id="SVGID_77_" x="432.7" y="97.1" width="16.5" height="19.1"/>
	</defs>
	<clipPath id="SVGID_78_">
		<use xlink:href="#SVGID_77_"  style="overflow:visible;"/>
	</clipPath>
	<path class="st73" d="M441,115.8v-4.6V115.8z"/>
</g>
<g>
	<defs>
		<rect id="SVGID_79_" x="432.7" y="97.1" width="16.5" height="19.1"/>
	</defs>
	<clipPath id="SVGID_80_">
		<use xlink:href="#SVGID_79_"  style="overflow:visible;"/>
	</clipPath>
	<line class="st74" x1="441" y1="115.8" x2="441" y2="111.3"/>
</g>
<g>
	<defs>
		<rect id="SVGID_81_" x="432.7" y="97.1" width="16.5" height="19.1"/>
	</defs>
	<clipPath id="SVGID_82_">
		<use xlink:href="#SVGID_81_"  style="overflow:visible;"/>
	</clipPath>
	<line class="st75" x1="441" y1="111.3" x2="437" y2="109"/>
	<line class="st76" x1="441" y1="111.3" x2="437" y2="109"/>
	<line class="st75" x1="444.9" y1="109" x2="441" y2="111.3"/>
	<line class="st76" x1="444.9" y1="109" x2="441" y2="111.3"/>
	<polygon class="st75" points="441,97.6 444.9,99.8 444.9,104.4 441,106.7 437,104.4 437,99.8 	"/>
</g>
<polygon class="st27" points="441,97.6 444.9,99.8 444.9,104.4 441,106.7 437,104.4 437,99.8 "/>
<rect x="432.7" y="97.1" class="st22" width="16.5" height="19.1"/>
<g>
	<defs>
		<rect id="SVGID_83_" x="432.7" y="97.1" width="16.5" height="19.1"/>
	</defs>
	<clipPath id="SVGID_84_">
		<use xlink:href="#SVGID_83_"  style="overflow:visible;"/>
	</clipPath>
	<path class="st77" d="M441,106.7v-4.6V106.7z"/>
	<line class="st78" x1="441" y1="106.7" x2="441" y2="102.1"/>
	<line class="st77" x1="441" y1="102.1" x2="437" y2="99.8"/>
	<line class="st78" x1="441" y1="102.1" x2="437" y2="99.8"/>
	<line class="st77" x1="444.9" y1="99.8" x2="441" y2="102.1"/>
	<line class="st78" x1="444.9" y1="99.8" x2="441" y2="102.1"/>
	<polygon class="st77" points="444.9,99.8 448.8,102.1 448.8,106.7 444.9,109 440.9,106.7 440.9,102.1 	"/>
</g>
<polygon class="st27" points="444.9,99.8 448.8,102.1 448.8,106.7 444.9,109 440.9,106.7 440.9,102.1 "/>
<rect x="432.7" y="97.1" class="st22" width="16.5" height="19.1"/>
<g>
	<defs>
		<rect id="SVGID_85_" x="432.7" y="97.1" width="16.5" height="19.1"/>
	</defs>
	<clipPath id="SVGID_86_">
		<use xlink:href="#SVGID_85_"  style="overflow:visible;"/>
	</clipPath>
	<path class="st79" d="M444.9,109v-4.6V109z"/>
	<line class="st80" x1="444.9" y1="109" x2="444.9" y2="104.4"/>
	<line class="st79" x1="444.9" y1="104.4" x2="441" y2="102.1"/>
	<line class="st80" x1="444.9" y1="104.4" x2="441" y2="102.1"/>
	<line class="st79" x1="448.8" y1="102.1" x2="444.9" y2="104.4"/>
</g>
<line class="st27" x1="448.8" y1="102.1" x2="444.9" y2="104.4"/>
<rect x="432.7" y="97.1" class="st22" width="16.5" height="19.1"/>
<polygon class="st21" points="437,99.8 441,102.1 441,106.7 437,109 433.1,106.7 433.1,102.1 "/>
<rect x="432.7" y="97.1" class="st22" width="16.5" height="19.1"/>
<polygon class="st27" points="437,99.8 441,102.1 441,106.7 437,109 433.1,106.7 433.1,102.1 "/>
<rect x="432.7" y="97.1" class="st22" width="16.5" height="19.1"/>
<g>
	<defs>
		<rect id="SVGID_87_" x="432.7" y="97.1" width="16.5" height="19.1"/>
	</defs>
	<clipPath id="SVGID_88_">
		<use xlink:href="#SVGID_87_"  style="overflow:visible;"/>
	</clipPath>
	<path class="st81" d="M437,109v-4.6V109z"/>
	<line class="st82" x1="437" y1="109" x2="437" y2="104.4"/>
	<line class="st81" x1="437" y1="104.4" x2="433.1" y2="102.1"/>
</g>
<g>
	<defs>
		<rect id="SVGID_89_" x="432.7" y="97.1" width="16.5" height="19.1"/>
	</defs>
	<clipPath id="SVGID_90_">
		<use xlink:href="#SVGID_89_"  style="overflow:visible;"/>
	</clipPath>
	<line class="st83" x1="437" y1="104.4" x2="433.1" y2="102.1"/>
</g>
<line class="st21" x1="441" y1="102.1" x2="437" y2="104.4"/>
<line class="st27" x1="441" y1="102.1" x2="437" y2="104.4"/>
<polygon class="st21" points="441,102.1 444.9,104.4 444.9,109 441,111.3 437,109 437,104.4 "/>
<polygon class="st27" points="441,102.1 444.9,104.4 444.9,109 441,111.3 437,109 437,104.4 "/>
<path class="st21" d="M441,111.3v-4.6V111.3z"/>
<line class="st27" x1="441" y1="111.3" x2="441" y2="106.7"/>
<line class="st21" x1="441" y1="106.7" x2="437" y2="104.4"/>
<line class="st27" x1="441" y1="106.7" x2="437" y2="104.4"/>
<line class="st21" x1="444.9" y1="104.4" x2="441" y2="106.7"/>
<line class="st27" x1="444.9" y1="104.4" x2="441" y2="106.7"/>
<rect x="432.7" y="97.1" class="st22" width="16.5" height="19.1"/>
<g>
	<g>
		<line class="st84" x1="132" y1="134.9" x2="224.5" y2="103.3"/>
		<g>
			<polygon class="st2" points="135.6,140 123.9,137.7 131.7,128.7 			"/>
		</g>
	</g>
</g>
<g>
	<g>
		<line class="st84" x1="224.5" y1="103.3" x2="132" y2="77.1"/>
		<g>
			<polygon class="st2" points="135.3,71.8 123.7,74.7 132.1,83.3 			"/>
		</g>
	</g>
</g>
<polygon class="st2" points="224.5,98 224.5,108.4 232,103.2 "/>
</svg>
