<svg xmlns="http://www.w3.org/2000/svg" viewBox="0 0 262.443 264.5">
  <title>Asset 1</title>
  <g id="Layer_2" data-name="Layer 2">
    <g id="Layer_1-2" data-name="Layer 1">
      <g>
        <g opacity="0.1">
          <g>
            <rect width="82" height="13" rx="2" ry="2" fill="#e74c3c"/>
            <rect y="17" width="262" height="26" rx="2" ry="2" fill="#e74c3c"/>
          </g>
          <g>
            <rect y="59.5" width="82" height="13" rx="2" ry="2" fill="#e74c3c"/>
            <rect y="76.5" width="262" height="26" rx="2" ry="2" fill="#e74c3c"/>
          </g>
          <g>
            <rect y="119" width="82" height="13" rx="2" ry="2" fill="#e74c3c"/>
            <rect y="136" width="262" height="26" rx="2" ry="2" fill="#e74c3c"/>
          </g>
          <g>
            <rect x="0.443" y="178.5" width="82" height="13" rx="2" ry="2" fill="#e74c3c"/>
            <rect x="0.443" y="195.5" width="262" height="26" rx="2" ry="2" fill="#e74c3c"/>
          </g>
          <rect x="80.443" y="238.5" width="102" height="26" rx="2" ry="2" fill="#e74c3c"/>
        </g>
        <g>
          <text transform="translate(81.869 114.11)" font-size="17.487" fill="#e74c3c" font-family="URWGeometric-SemiBold, URW Geometric" font-weight="700"><tspan letter-spacing="-0.004em">P</tspan><tspan x="8.184" y="0">le</tspan><tspan x="20.563" y="0" letter-spacing="-0.002em">a</tspan><tspan x="30.059" y="0" letter-spacing="0em">se </tspan><tspan x="49.486" y="0" letter-spacing="-0.005em">t</tspan><tspan x="53.945" y="0">u</tspan><tspan x="62.845" y="0" letter-spacing="-0.007em">r</tspan><tspan x="68.004" y="0">n o</tspan><tspan x="90.176" y="0" letter-spacing="0.008em">f</tspan><tspan x="94.845" y="0">f</tspan><tspan x="10.78" y="15.155">adblo</tspan><tspan x="52.24" y="15.155" letter-spacing="-0.006em">c</tspan><tspan x="60.214" y="15.155" letter-spacing="-0.025em">k</tspan><tspan x="68.101" y="15.155">e</tspan><tspan x="76.739" y="15.155" letter-spacing="-0.004em">r</tspan><tspan x="81.95" y="15.155">s</tspan><tspan x="15.169" y="30.31" letter-spacing="-0.009em">t</tspan><tspan x="19.559" y="30.31">o see our</tspan><tspan x="5.805" y="45.465">s</tspan><tspan x="12.45" y="45.465" letter-spacing="-0.002em">i</tspan><tspan x="16.14" y="45.465" letter-spacing="0em">gnup </tspan><tspan x="57.145" y="45.465" letter-spacing="-0.009em">f</tspan><tspan x="61.517" y="45.465" letter-spacing="0em">o</tspan><tspan x="70.644" y="45.465" letter-spacing="-0.007em">r</tspan><tspan x="75.803" y="45.465" letter-spacing="0em">m.</tspan></text>
          <circle cx="131.222" cy="130.25" r="71" fill="none" stroke="#e74c3c" stroke-miterlimit="10" stroke-width="3"/>
        </g>
      </g>
    </g>
  </g>
</svg>
