<svg id="Layer_1" data-name="Layer 1" xmlns="http://www.w3.org/2000/svg" xmlns:xlink="http://www.w3.org/1999/xlink" viewBox="0 0 480 280">
  <defs>
    <linearGradient id="linear-gradient" x1="260.489" y1="20.83" x2="346.138" y2="256.149" gradientUnits="userSpaceOnUse">
      <stop offset="0.159" stop-color="#36b1bf"/>
      <stop offset="0.391" stop-color="#3dbec7"/>
      <stop offset="0.735" stop-color="#4ad9d9"/>
    </linearGradient>
    <linearGradient id="linear-gradient-2" x1="164.169" y1="225.168" x2="103.904" y2="48.493" gradientUnits="userSpaceOnUse">
      <stop offset="0.223" stop-color="#36b1bf"/>
      <stop offset="0.418" stop-color="#3dbfc8"/>
      <stop offset="0.762" stop-color="#47d2d5"/>
      <stop offset="1" stop-color="#4ad9d9"/>
    </linearGradient>
  </defs>
  <title>870-business copy 3</title>
  <g>
    <path d="M235.506,220l-.106-30h65.1a15,15,0,0,1,14.967,16,15.213,15.213,0,0,1-15.313,14Z" fill="#36b1bf"/>
    <path d="M300.5,195a10,10,0,0,1,9.978,10.672A10.23,10.23,0,0,1,300.154,215H240.488l-.071-20H300.5m0-10H230.382l.036,10.035.07,20,.035,9.965h69.631a20,20,0,1,0,.346-40Z" fill="#25282d"/>
  </g>
  <g>
    <path d="M365.729,248.577a7.029,7.029,0,0,1-2.664-.527l-89.533-36.57a7,7,0,0,1,0-12.959l89.534-36.58a6.976,6.976,0,0,1,8.723,3,6.921,6.921,0,0,1-.021,7l-10.453,18a51.249,51.249,0,0,0,33.2-14.246A49.617,49.617,0,0,0,409.5,139.511C409.238,112.211,386.4,90,358.582,90H155.846a15,15,0,0,1-11.294-25.251A15.048,15.048,0,0,1,155.5,60H358.48A80.975,80.975,0,0,1,415.4,83.412a79.223,79.223,0,0,1,.352,113.47,81.735,81.735,0,0,1-54.5,23.071l10.515,18.1a6.918,6.918,0,0,1,.023,7A7.023,7.023,0,0,1,365.729,248.577Z" fill="url(#linear-gradient)"/>
    <path d="M358.48,65c41.17,0,75.937,33.675,76.02,74.845a74.512,74.512,0,0,1-22.269,53.482A76.328,76.328,0,0,1,358.474,215H353.25a.38.38,0,0,0-.328.571l14.519,24.993a2.006,2.006,0,0,1-1.713,3.012,2.035,2.035,0,0,1-.772-.156l-89.533-36.569a2,2,0,0,1,0-3.7l89.534-36.578a2.043,2.043,0,0,1,.773-.156,2.006,2.006,0,0,1,1.713,3.012l-14.52,25a.38.38,0,0,0,.328.571h5.426a56.069,56.069,0,0,0,39.346-15.745A54.657,54.657,0,0,0,414.5,139.464C414.21,109.146,388.9,85,358.583,85H155.846a10.23,10.23,0,0,1-10.324-9.328A10,10,0,0,1,155.5,65H358.48m0-10H155.5a20,20,0,1,0,.346,40H358.583c25.085,0,45.682,19.989,45.915,44.558a44.66,44.66,0,0,1-13.482,32.562,45.217,45.217,0,0,1-20.134,11.3l5.208-8.968a11.994,11.994,0,0,0-14.915-17.136L271.64,193.891a12,12,0,0,0,0,22.218l89.533,36.569a12,12,0,0,0,14.914-17.137L369.556,224.3a86.344,86.344,0,0,0,49.707-23.861,84.222,84.222,0,0,0-.368-120.6A85.953,85.953,0,0,0,358.48,55Z" fill="#25282d"/>
  </g>
  <g>
    <path d="M121.488,220a80.848,80.848,0,0,1-57.642-24.1A79.711,79.711,0,0,1,114.438,60.225l-6.7-15.754a6.995,6.995,0,0,1,9.162-9.19l78.872,33.27a7,7,0,0,1,0,12.9L116.9,114.718a7,7,0,0,1-9.163-9.189l6.4-15.053A50.154,50.154,0,0,0,86.646,103.2,49.53,49.53,0,0,0,70.5,140.488C70.761,167.789,93.6,190,121.418,190H240.5a15,15,0,0,1,14.967,16,15.213,15.213,0,0,1-15.313,14Z" fill="url(#linear-gradient-2)"/>
    <path d="M114.172,39.726a2.023,2.023,0,0,1,.788.163l78.871,33.268a2,2,0,0,1,0,3.686L114.96,110.111a1.994,1.994,0,0,1-2.618-2.625l9.333-21.957a.38.38,0,0,0-.349-.529h0A56.039,56.039,0,0,0,83.256,99.529,54.69,54.69,0,0,0,65.5,140.536C65.79,170.854,91.1,195,121.417,195H240.5a10,10,0,0,1,9.978,10.672A10.23,10.23,0,0,1,240.154,215H121.488c-41.451,0-76.182-33.913-75.987-75.363A75.01,75.01,0,0,1,120.5,65h1.4l-9.558-22.486a2,2,0,0,1,1.83-2.788m0-10a12,12,0,0,0-11.033,16.7l4.08,9.6A84.56,84.56,0,0,0,60.3,199.431,85.814,85.814,0,0,0,121.488,225H240.154a20,20,0,1,0,.346-40H121.417c-25.085,0-45.682-19.989-45.915-44.558a44.742,44.742,0,0,1,30.185-42.863l-2.548,6a11.993,11.993,0,0,0,15.706,15.751l78.873-33.268a12,12,0,0,0,0-22.114L118.846,30.675a11.966,11.966,0,0,0-4.674-.949Z" fill="#25282d"/>
  </g>
  <rect x="203" y="195" width="58" height="20" fill="#36b1bf"/>
</svg>
