<svg id="Layer_1" data-name="Layer 1" xmlns="http://www.w3.org/2000/svg" xmlns:xlink="http://www.w3.org/1999/xlink" viewBox="0 0 480 280">
  <defs>
    <linearGradient id="linear-gradient" x1="240" y1="25" x2="240" y2="194.007" gradientUnits="userSpaceOnUse">
      <stop offset="0.432" stop-color="#4ad9d9"/>
      <stop offset="0.603" stop-color="#47d4d6"/>
      <stop offset="0.812" stop-color="#40c5cc"/>
      <stop offset="1" stop-color="#36b1bf"/>
    </linearGradient>
  </defs>
  <title>870-postgres copy 2</title>
  <path d="M320.85,41.73V186.7c0,9.24-36.2,16.73-80.85,16.73s-80.85-7.49-80.85-16.73V41.73C159.15,32.49,195.35,25,240,25S320.85,32.49,320.85,41.73Z" fill="url(#linear-gradient)"/>
  <g>
    <path d="M320.849,41.727V90.051c0,9.238-36.2,16.728-80.849,16.728s-80.849-7.49-80.849-16.728V41.727c0,9.238,36.2,16.728,80.849,16.728S320.849,50.965,320.849,41.727Z" fill="none" stroke="#25282d" stroke-miterlimit="10" stroke-width="10"/>
    <path d="M320.849,90.051v48.324c0,9.237-36.2,16.727-80.849,16.727s-80.849-7.49-80.849-16.727V90.051c0,9.238,36.2,16.728,80.849,16.728S320.849,99.289,320.849,90.051Z" fill="none" stroke="#25282d" stroke-miterlimit="10" stroke-width="10"/>
    <path d="M320.849,138.375V186.7c0,9.237-36.2,16.727-80.849,16.727s-80.849-7.49-80.849-16.727V138.375c0,9.237,36.2,16.727,80.849,16.727S320.849,147.612,320.849,138.375Z" fill="none" stroke="#25282d" stroke-miterlimit="10" stroke-width="10"/>
    <ellipse cx="240" cy="41.727" rx="80.849" ry="16.727" fill="none" stroke="#25282d" stroke-miterlimit="10" stroke-width="10"/>
  </g>
  <line x1="121.176" y1="244.492" x2="358.824" y2="244.492" fill="none" stroke="#25282d" stroke-linecap="round" stroke-miterlimit="10" stroke-width="12"/>
  <line x1="208.15" y1="244.492" x2="271.85" y2="244.492" fill="none" stroke="#25282d" stroke-linecap="round" stroke-miterlimit="10" stroke-width="30"/>
  <line x1="240" y1="204.018" x2="240" y2="244.492" fill="none" stroke="#25282d" stroke-miterlimit="10" stroke-width="12"/>
</svg>
