<?xml version="1.0" encoding="utf-8"?>
<!-- Generator: Adobe Illustrator 22.0.1, SVG Export Plug-In . SVG Version: 6.00 Build 0)  -->
<svg version="1.1" id="Layer_1" xmlns="http://www.w3.org/2000/svg" xmlns:xlink="http://www.w3.org/1999/xlink" x="0px" y="0px"
	 viewBox="0 0 949 349.8" style="enable-background:new 0 0 949 349.8;" xml:space="preserve">
<style type="text/css">
	.st0{fill:none;stroke:#1C425C;stroke-width:2;stroke-miterlimit:10;}
	.st1{fill:#1C425C;}
	.st2{fill:none;}
	.st3{fill:none;stroke:#1C425C;stroke-width:2;stroke-linecap:round;stroke-miterlimit:10;}
	.st4{fill:none;stroke:#1C425C;stroke-width:2;stroke-linecap:round;stroke-miterlimit:10;stroke-dasharray:0,5.925;}
	.st5{fill:#C8DB57;}
	.st6{enable-background:new    ;}
</style>
<g id="Layer_2_1_">
	<g id="Text_Headlines">
		<circle class="st0" cx="59.1" cy="64.5" r="57.1"/>
		<path class="st1" d="M73.6,59.1c0.7,1,1.3,2.1,1.3,3.4c0,3.7-2.9,5.8-7.1,5.8c-0.8,0-1.8-0.1-2.6-0.3L64,69.8l3.3,0.2
			c5.8,0.3,9.2,0.5,9.2,5c0,3.8-3.4,6-9.2,6c-6,0-8.4-1.5-8.4-4.1c0-1.5,0.6-2.3,1.8-3.4c-1-0.3-1.5-1.3-1.5-2.2c0-0.7,0.4-1.5,1-2
			c0.6-0.6,1.3-1.3,2.1-2c-1.9-1-3-3-2.9-5c0-3.8,2.5-6.5,7.6-6.5c1.1,0,2.1,0.1,3.1,0.3h6.5V59L73.6,59.1z M63.7,74.2
			c-0.5,0.4-0.7,1.1-0.8,1.8c0,1.4,1.7,1.7,4,1.7c1.9,0,4.6-0.1,4.6-1.9c0-1.1-1.3-1.2-2.9-1.3L63.7,74.2z M67.3,59
			c-1.8,0-3.2,1-3.2,3.1c0,1.6,1,2.8,3.1,2.8c1.6,0.2,3-1,3.1-2.5c0-0.1,0-0.2,0-0.3c0.1-1.5-1-2.9-2.4-3
			C67.7,58.9,67.5,58.9,67.3,59L67.3,59z"/>
		<path class="st1" d="M78.2,73.1v-2.6l1.7-0.2c0.4-0.1,0.5-0.2,0.5-0.6v-9.8c0-0.3-0.1-0.6-0.4-0.7l-1.8-0.6l0.3-2.8h6.9v13.9
			c0,0.5,0,0.6,0.5,0.6l1.7,0.2V73h-9.4V73.1z M82.5,53c-1.5,0.1-2.9-1-3-2.4c0-0.2,0-0.4,0-0.5c0.1-1.7,1.5-3,3.1-3
			c1.6,0,2.9,1.4,3,3c0.1,1.5-1,2.9-2.4,3C82.9,53.1,82.7,53.1,82.5,53z"/>
		<path class="st1" d="M100.9,71.8c-1.7,0.8-3.6,1.3-5.4,1.4c-4,0-5.5-1.6-5.5-5.4V59c0-0.2,0-0.3-0.3-0.3h-2.3v-3
			c3-0.3,4.1-1.8,4.4-5.4h3.2v4.8c0,0.2,0,0.3,0.3,0.3h4.7v3.4H95v7.9c0,2,0.4,2.8,2.2,2.8c1,0,1.8-0.2,2.8-0.5L100.9,71.8z"/>
		<path class="st1" d="M51.4,63L36.2,47.8c-0.8-0.8-2.3-0.8-3.2,0L29.8,51l4,4c1.4-0.5,3,0.3,3.4,1.7c0.2,0.5,0.2,1.2,0,1.7l3.9,3.9
			c1.4-0.5,3,0.2,3.4,1.7s-0.2,3-1.7,3.4c-1.4,0.5-3-0.2-3.4-1.7c-0.2-0.6-0.2-1.3,0.1-1.9L36,60.2v9.5c1.3,0.6,1.9,2.2,1.2,3.6
			c-0.7,1.4-2.2,1.9-3.6,1.2c-1.3-0.6-1.9-2.2-1.2-3.6c0.3-0.5,0.7-1.1,1.4-1.3V60c-0.3-0.1-0.6-0.3-0.8-0.6c-0.7-0.7-1-1.9-0.5-3
			l-3.9-3.9L18,62.9c-0.8,0.8-0.8,2.3,0,3.2l0,0l15.2,15.2c0.8,0.8,2.3,0.8,3.2,0l0,0l15-15.1C52.4,65.4,52.4,63.9,51.4,63L51.4,63z
			"/>
		<path class="st0" d="M416.4,300.2c56.3,0,14.2-117.8,76.2-117.8"/>
		<line class="st0" x1="493" y1="182.3" x2="416.4" y2="182.3"/>
		<polygon class="st1" points="483.9,171.1 482,173.1 491.9,182.3 482,191.6 483.9,193.7 495.9,182.3 		"/>
		<line class="st0" x1="493" y1="64.5" x2="382.8" y2="64.5"/>
		<polygon class="st1" points="483.9,53.3 482,55.3 491.9,64.5 482,73.8 483.9,75.8 495.9,64.5 		"/>
		<path class="st0" d="M231.5,182.3c-99.9,0-74.7-117.8-115.5-117.8"/>
		<polygon class="st1" points="222.4,171.1 220.5,173.1 230.4,182.3 220.5,191.6 222.4,193.7 234.5,182.3 		"/>
		<path class="st0" d="M231.5,300.2c-99.9,0-62.8-235.6-115.5-235.6"/>
		<polygon class="st1" points="222.4,288.9 220.5,290.9 230.4,300.2 220.5,309.5 222.4,311.5 234.5,300.2 		"/>
		<path class="st0" d="M678.3,182.3c56.3,0,19.8-117.8,81.7-117.8"/>
		<line class="st0" x1="760.1" y1="64.5" x2="678.3" y2="64.5"/>
		<polygon class="st1" points="750.9,53.3 749,55.3 759,64.5 749,73.8 750.9,75.8 763,64.5 		"/>
		<g id="_Group_">
			<g id="RECTANGLE_STAGE">
				<path class="st2" d="M244.9,141.3h161.5c6,0,11,4.9,11,11v60.2c0,6-4.9,11-11,11H244.9c-6,0-11-4.9-11-11v-60.2
					C234,146.2,238.9,141.3,244.9,141.3z"/>
				<path class="st1" d="M406.5,142.3c5.5,0,10,4.4,10,10l0,0v60.2c0,5.5-4.4,10-10,10l0,0H244.9c-5.5,0-10-4.4-10-10l0,0v-60.2
					c0-5.5,4.4-10,10-10H406.5 M406.5,140.2H244.9c-6.7,0-12.1,5.4-12.1,12.1v60.2c0,6.7,5.4,12.1,12.1,12.1h161.5
					c6.7,0,12.1-5.4,12.1-12.1v-60.2C418.6,145.6,413.2,140.2,406.5,140.2z"/>
				<line class="st3" x1="245.3" y1="175.8" x2="245.3" y2="175.8"/>
				<line class="st4" x1="251.5" y1="175.8" x2="405.2" y2="175.8"/>
				<line class="st3" x1="408.4" y1="175.8" x2="408.4" y2="175.8"/>
				<path class="st5" d="M245.9,190.2h159.6c0.6,0,1.1,0.4,1.1,1.1v16.3c0,0.6-0.4,1.1-1.1,1.1H245.9c-0.6,0-1.1-0.4-1.1-1.1v-16.3
					C244.8,190.7,245.4,190.2,245.9,190.2z"/>
				<polygon class="st1" points="252.4,158.7 248.1,158.7 248.1,155.4 247.1,155.4 247.1,152.7 245.6,152.7 245.6,155.4 
					244.5,155.4 244.5,158.7 244.5,162.3 244.5,165.5 245.6,165.5 245.6,168.4 247.1,168.4 247.1,165.5 248.1,165.5 248.1,162.3 
					252.4,162.3 				"/>
			</g>
		</g>
		<g class="st6">
			<path class="st1" d="M262.6,164.9h-2.4V154h2.6c1.1,0,1.8,0.1,2.4,0.5c1.1,0.6,1.7,1.8,1.7,3.1c0,1.3-0.6,2.4-1.7,3.1
				c-0.6,0.3-1.3,0.5-2.4,0.5h-0.2V164.9z M263,158.9c1.1,0,1.6-0.4,1.6-1.4c0-1-0.4-1.4-1.6-1.4h-0.4v2.6h0.4V158.9z"/>
		</g>
		<g class="st6">
			<path class="st1" d="M270.4,155.1c0,0.7-0.6,1.4-1.4,1.4c-0.7,0-1.4-0.6-1.4-1.4c0-0.7,0.6-1.3,1.4-1.3
				C269.7,153.9,270.4,154.4,270.4,155.1z M270.1,164.9h-2.3v-7.2h2.3V164.9z"/>
			<path class="st1" d="M274,157.7v0.3c0.6-0.4,1.2-0.6,1.8-0.6c2,0,3.7,1.8,3.7,3.9s-1.6,3.9-3.7,3.9c-0.6,0-1.2-0.2-1.8-0.6v4.1
				h-2.3v-11H274z M274,161.3c0,1.1,0.6,1.8,1.6,1.8s1.6-0.7,1.6-1.8c0-1.1-0.6-1.8-1.6-1.8C274.6,159.5,274,160.2,274,161.3z"/>
		</g>
		<g class="st6">
			<path class="st1" d="M287.3,163.2c-0.8,1.3-2,2-3.4,2c-2.2,0-3.8-1.7-3.8-3.9s1.7-3.9,3.7-3.9c2.1,0,3.7,1.7,3.7,4
				c0,0.2,0,0.3,0,0.6h-5.1c0.2,0.7,0.6,1.1,1.4,1.1c0.6,0,1.1-0.2,1.4-0.7L287.3,163.2z M285.2,160.5c-0.2-0.7-0.6-1.1-1.4-1.1
				c-0.7,0-1.2,0.3-1.4,1.1H285.2z"/>
		</g>
		<g class="st6">
			<path class="st1" d="M288.6,164.9V154h2.3v10.9H288.6z"/>
			<path class="st1" d="M295,155.1c0,0.7-0.6,1.4-1.4,1.4c-0.7,0-1.4-0.6-1.4-1.4c0-0.7,0.6-1.3,1.4-1.3
				C294.4,153.9,295,154.4,295,155.1z M294.8,164.9h-2.3v-7.2h2.3V164.9z"/>
			<path class="st1" d="M298.6,158c0.5-0.4,1-0.5,1.6-0.5c1,0,1.9,0.5,2.4,1.4c0.3,0.5,0.4,1.3,0.4,2.2v3.9h-2.3v-3.8
				c0-1.3-0.2-1.6-1-1.6c-0.4,0-0.8,0.2-1,0.4c-0.1,0.2-0.2,0.6-0.2,1.3v3.7h-2.3v-7.2h2.3L298.6,158L298.6,158z"/>
			<path class="st1" d="M311.5,163.2c-0.8,1.3-2,2-3.4,2c-2.2,0-3.8-1.7-3.8-3.9s1.7-3.9,3.7-3.9c2.1,0,3.7,1.7,3.7,4
				c0,0.2,0,0.3,0,0.6h-5.1c0.2,0.7,0.6,1.1,1.4,1.1c0.6,0,1.1-0.2,1.4-0.7L311.5,163.2z M309.4,160.5c-0.2-0.7-0.6-1.1-1.4-1.1
				c-0.7,0-1.2,0.3-1.4,1.1H309.4z"/>
			<path class="st1" d="M327.6,159.5c0,3.2-2.6,5.7-5.8,5.7s-5.7-2.6-5.7-5.8c0-3.1,2.6-5.6,5.8-5.6
				C325,153.7,327.6,156.3,327.6,159.5z M318.4,159.5c0,1.8,1.6,3.4,3.4,3.4c1.9,0,3.4-1.6,3.4-3.5s-1.5-3.5-3.4-3.5
				C319.9,156,318.4,157.6,318.4,159.5z"/>
			<path class="st1" d="M331.1,158c0.5-0.4,1-0.5,1.6-0.5c1,0,1.9,0.5,2.4,1.4c0.3,0.5,0.4,1.3,0.4,2.2v3.9h-2.3v-3.8
				c0-1.3-0.2-1.6-1-1.6c-0.4,0-0.8,0.2-1,0.4c-0.1,0.2-0.2,0.6-0.2,1.3v3.7h-2.3v-7.2h2.3V158z"/>
		</g>
		<g class="st6">
			<path class="st1" d="M343.9,163.2c-0.8,1.3-2,2-3.4,2c-2.2,0-3.8-1.7-3.8-3.9s1.7-3.9,3.7-3.9c2.1,0,3.7,1.7,3.7,4
				c0,0.2,0,0.3,0,0.6h-5.1c0.2,0.7,0.6,1.1,1.4,1.1c0.6,0,1.1-0.2,1.4-0.7L343.9,163.2z M341.8,160.5c-0.2-0.7-0.6-1.1-1.4-1.1
				c-0.7,0-1.2,0.3-1.4,1.1H341.8z"/>
		</g>
		<g class="st6">
			<path class="st1" d="M348.5,159.1c0,0.7-0.6,1.4-1.4,1.4c-0.7,0-1.4-0.6-1.4-1.4c0-0.7,0.6-1.3,1.4-1.3
				C347.9,157.9,348.5,158.4,348.5,159.1z M348.5,163.8c0,0.7-0.6,1.4-1.4,1.4c-0.7,0-1.4-0.6-1.4-1.4c0-0.7,0.6-1.3,1.4-1.3
				C347.9,162.4,348.5,163.1,348.5,163.8z"/>
			<path class="st1" d="M353.9,154h2.6c1.1,0,1.9,0.2,2.5,0.5c1,0.5,1.6,1.6,1.6,2.5c0,0.7-0.2,1.4-0.8,1.9c1,0.6,1.4,1.5,1.4,2.5
				c0,1.2-0.6,2.2-1.7,2.8c-0.6,0.3-1.3,0.5-2.3,0.5H354V154H353.9z M356.8,158.4c0.6,0,0.8,0,1.1-0.2c0.3-0.2,0.5-0.5,0.5-1
				c0-0.8-0.4-1.1-1.6-1.1h-0.5v2.2H356.8z M357,162.7c0.6,0,1,0,1.2-0.2c0.4-0.2,0.6-0.6,0.6-1.1s-0.2-0.8-0.5-1
				c-0.3-0.2-0.6-0.2-1.4-0.2h-0.6v2.4L357,162.7L357,162.7z"/>
			<path class="st1" d="M366.9,164.7c-0.5,0.4-1,0.5-1.6,0.5c-1,0-1.9-0.5-2.4-1.4c-0.3-0.5-0.4-1.3-0.4-2.2v-3.9h2.3v3.8
				c0,1.3,0.2,1.6,1.1,1.6c0.4,0,0.8-0.2,1-0.4c0.1-0.2,0.2-0.6,0.2-1.3v-3.7h2.3v7.2H367v-0.2H366.9z"/>
			<path class="st1" d="M373.2,155.1c0,0.7-0.6,1.4-1.4,1.4s-1.4-0.6-1.4-1.4c0-0.7,0.6-1.3,1.4-1.3
				C372.6,153.9,373.2,154.4,373.2,155.1z M373,164.9h-2.3v-7.2h2.3V164.9z"/>
			<path class="st1" d="M374.6,164.9V154h2.3v10.9H374.6z"/>
			<path class="st1" d="M383.5,164.9v-0.3c-0.6,0.4-1.2,0.6-1.8,0.6c-2,0-3.7-1.8-3.7-3.9s1.6-3.9,3.7-3.9c0.6,0,1.2,0.2,1.8,0.6v-4
				h2.3v10.9H383.5z M380.3,161.3c0,1.1,0.6,1.8,1.6,1.8s1.6-0.7,1.6-1.8c0-1.1-0.6-1.8-1.6-1.8C381,159.5,380.3,160.2,380.3,161.3z
				"/>
		</g>
		<g id="_Group_2">
			<g id="RECTANGLE_STAGE-2">
				<path class="st2" d="M244.9,259.1h161.5c6,0,11,4.9,11,11v60.2c0,6-4.9,11-11,11H244.9c-6,0-11-4.9-11-11v-60.2
					C234,264.1,238.9,259.1,244.9,259.1z"/>
				<path class="st1" d="M406.5,260.1c5.5,0,10,4.4,10,10l0,0v60.2c0,5.5-4.4,10-10,10l0,0H244.9c-5.5,0-10-4.4-10-10l0,0v-60.2
					c0-5.5,4.4-10,10-10l0,0H406.5 M406.5,258H244.9c-6.7,0-12.1,5.4-12.1,12.1v60.2c0,6.7,5.4,12.1,12.1,12.1h161.5
					c6.7,0,12.1-5.4,12.1-12.1v-60.2C418.6,263.4,413.2,258,406.5,258z"/>
				<line class="st3" x1="245.3" y1="293.6" x2="245.3" y2="293.6"/>
				<line class="st4" x1="251.5" y1="293.6" x2="405.2" y2="293.6"/>
				<line class="st3" x1="408.4" y1="293.6" x2="408.4" y2="293.6"/>
				<path class="st5" d="M245.9,308h159.6c0.6,0,1.1,0.4,1.1,1.1v16.3c0,0.6-0.4,1.1-1.1,1.1H245.9c-0.6,0-1.1-0.4-1.1-1.1V309
					C244.8,308.5,245.4,308,245.9,308z"/>
				<polygon class="st1" points="252.4,276.5 248.1,276.5 248.1,273.3 247.1,273.3 247.1,270.5 245.6,270.5 245.6,273.3 
					244.5,273.3 244.5,276.5 244.5,280.1 244.5,283.3 245.6,283.3 245.6,286.2 247.1,286.2 247.1,283.3 248.1,283.3 248.1,280.1 
					252.4,280.1 				"/>
			</g>
		</g>
		<g class="st6">
			<path class="st1" d="M262.6,282.7h-2.4v-10.9h2.6c1.1,0,1.8,0.1,2.4,0.5c1.1,0.6,1.7,1.8,1.7,3.1c0,1.3-0.6,2.4-1.7,3.1
				c-0.6,0.3-1.3,0.5-2.4,0.5h-0.2V282.7z M263,276.8c1.1,0,1.6-0.4,1.6-1.4s-0.4-1.4-1.6-1.4h-0.4v2.6h0.4V276.8z"/>
		</g>
		<g class="st6">
			<path class="st1" d="M270.4,272.9c0,0.7-0.6,1.4-1.4,1.4c-0.7,0-1.4-0.6-1.4-1.4c0-0.7,0.6-1.3,1.4-1.3
				C269.7,271.7,270.4,272.2,270.4,272.9z M270.1,282.7h-2.3v-7.2h2.3V282.7z"/>
			<path class="st1" d="M274,275.5v0.3c0.6-0.4,1.2-0.6,1.8-0.6c2,0,3.7,1.8,3.7,3.9c0,2.1-1.6,3.9-3.7,3.9c-0.6,0-1.2-0.2-1.8-0.6
				v4.1h-2.3v-11H274z M274,279.1c0,1.1,0.6,1.8,1.6,1.8s1.6-0.7,1.6-1.8s-0.6-1.8-1.6-1.8S274,278,274,279.1z"/>
		</g>
		<g class="st6">
			<path class="st1" d="M287.3,281c-0.8,1.3-2,2-3.4,2c-2.2,0-3.8-1.7-3.8-3.9c0-2.2,1.7-3.9,3.7-3.9c2.1,0,3.7,1.7,3.7,4
				c0,0.2,0,0.3,0,0.6h-5.1c0.2,0.7,0.6,1.1,1.4,1.1c0.6,0,1.1-0.2,1.4-0.7L287.3,281z M285.2,278.3c-0.2-0.7-0.6-1.1-1.4-1.1
				c-0.7,0-1.2,0.3-1.4,1.1H285.2z"/>
		</g>
		<g class="st6">
			<path class="st1" d="M288.6,282.7v-10.9h2.3v10.9H288.6z"/>
			<path class="st1" d="M295,272.9c0,0.7-0.6,1.4-1.4,1.4c-0.7,0-1.4-0.6-1.4-1.4c0-0.7,0.6-1.3,1.4-1.3
				C294.4,271.7,295,272.2,295,272.9z M294.8,282.7h-2.3v-7.2h2.3V282.7z"/>
			<path class="st1" d="M298.6,275.8c0.5-0.4,1-0.5,1.6-0.5c1,0,1.9,0.5,2.4,1.4c0.3,0.5,0.4,1.3,0.4,2.2v3.9h-2.3V279
				c0-1.3-0.2-1.6-1-1.6c-0.4,0-0.8,0.2-1,0.4c-0.1,0.2-0.2,0.6-0.2,1.3v3.7h-2.3v-7.2h2.3L298.6,275.8L298.6,275.8z"/>
			<path class="st1" d="M311.5,281c-0.8,1.3-2,2-3.4,2c-2.2,0-3.8-1.7-3.8-3.9c0-2.2,1.7-3.9,3.7-3.9c2.1,0,3.7,1.7,3.7,4
				c0,0.2,0,0.3,0,0.6h-5.1c0.2,0.7,0.6,1.1,1.4,1.1c0.6,0,1.1-0.2,1.4-0.7L311.5,281z M309.4,278.3c-0.2-0.7-0.6-1.1-1.4-1.1
				c-0.7,0-1.2,0.3-1.4,1.1H309.4z"/>
		</g>
		<g class="st6">
			<path class="st1" d="M323,274.1h-2.5v8.7H318v-8.7h-2.5v-2.2h7.5L323,274.1L323,274.1z"/>
		</g>
		<g class="st6">
			<path class="st1" d="M324.2,275.5l1.2,3.5l1.2-3.5h1.7l1.2,3.5l1.2-3.5h2.4l-2.6,7.2h-1.9l-1.2-3.4l-1.2,3.4h-1.9l-2.6-7.2H324.2
				z"/>
		</g>
		<g class="st6">
			<path class="st1" d="M340.7,279.1c0,2.2-1.7,3.9-3.9,3.9c-2.2,0-3.9-1.7-3.9-3.9c0-2.2,1.7-3.9,4-3.9
				C339.1,275.2,340.7,277,340.7,279.1z M335.2,279.1c0,1.1,0.6,1.8,1.6,1.8c1,0,1.6-0.7,1.6-1.8s-0.6-1.8-1.6-1.8
				C335.9,277.3,335.2,278,335.2,279.1z"/>
		</g>
		<g class="st6">
			<path class="st1" d="M345.2,277c0,0.7-0.6,1.4-1.4,1.4c-0.7,0-1.4-0.6-1.4-1.4c0-0.7,0.6-1.3,1.4-1.3
				C344.6,275.7,345.2,276.2,345.2,277z M345.2,281.6c0,0.7-0.6,1.4-1.4,1.4c-0.7,0-1.4-0.6-1.4-1.4c0-0.7,0.6-1.3,1.4-1.3
				C344.6,280.3,345.2,280.9,345.2,281.6z"/>
			<path class="st1" d="M350.6,271.8h2.6c1.1,0,1.9,0.2,2.5,0.5c1,0.5,1.6,1.6,1.6,2.5c0,0.7-0.2,1.4-0.8,1.9c1,0.6,1.4,1.6,1.4,2.5
				c0,1.2-0.6,2.2-1.7,2.8c-0.6,0.3-1.3,0.5-2.3,0.5h-3.2v-10.8H350.6z M353.5,276.2c0.6,0,0.8,0,1.1-0.2c0.3-0.2,0.5-0.5,0.5-1
				c0-0.8-0.4-1.1-1.6-1.1h-0.5v2.2H353.5z M353.7,280.6c0.6,0,1,0,1.2-0.2c0.4-0.2,0.6-0.6,0.6-1.1s-0.2-0.8-0.5-1
				c-0.3-0.2-0.6-0.2-1.4-0.2h-0.6v2.4L353.7,280.6L353.7,280.6z"/>
			<path class="st1" d="M363.5,282.5c-0.5,0.4-1,0.5-1.6,0.5c-1,0-1.9-0.5-2.4-1.4c-0.3-0.5-0.4-1.3-0.4-2.2v-3.9h2.3v3.8
				c0,1.3,0.2,1.6,1.1,1.6c0.4,0,0.8-0.2,1-0.4c0.1-0.2,0.2-0.6,0.2-1.3v-3.7h2.3v7.2h-2.3v-0.2H363.5z"/>
			<path class="st1" d="M370,272.9c0,0.7-0.6,1.4-1.4,1.4c-0.7,0-1.4-0.6-1.4-1.4c0-0.7,0.6-1.3,1.4-1.3
				C369.3,271.7,370,272.2,370,272.9z M369.8,282.7h-2.3v-7.2h2.3V282.7z"/>
			<path class="st1" d="M371.3,282.7v-10.9h2.3v10.9H371.3z"/>
			<path class="st1" d="M380.2,282.7v-0.3c-0.6,0.4-1.2,0.6-1.8,0.6c-2,0-3.7-1.8-3.7-3.9c0-2.1,1.6-3.9,3.7-3.9
				c0.6,0,1.2,0.2,1.8,0.6v-4h2.3v10.9H380.2z M377.1,279.1c0,1.1,0.6,1.8,1.6,1.8s1.6-0.7,1.6-1.8s-0.6-1.8-1.6-1.8
				S377.1,278,377.1,279.1z"/>
		</g>
		<g id="_Group_3">
			<g id="RECTANGLE_STAGE-3">
				<path class="st2" d="M506.8,141.3h161.5c6,0,11,4.9,11,11v60.2c0,6-4.9,11-11,11H506.8c-6,0-11-4.9-11-11v-60.2
					C495.8,146.2,500.8,141.3,506.8,141.3z"/>
				<path class="st1" d="M668.4,142.3c5.5,0,10,4.4,10,10v60.2c0,5.5-4.4,10-10,10H506.8c-5.5,0-10-4.4-10-10l0,0v-60.2
					c0-5.5,4.4-10,10-10H668.4 M668.4,140.2H506.8c-6.7,0-12.1,5.4-12.1,12.1v60.2c0,6.7,5.4,12.1,12.1,12.1h161.5
					c6.7,0,12.1-5.4,12.1-12.1v-60.2C680.4,145.6,675,140.2,668.4,140.2L668.4,140.2z"/>
				<line class="st3" x1="507.2" y1="175.8" x2="507.2" y2="175.8"/>
				<line class="st4" x1="513.4" y1="175.8" x2="667.1" y2="175.8"/>
				<line class="st3" x1="670.2" y1="175.8" x2="670.2" y2="175.8"/>
				<path class="st5" d="M507.8,190.2h159.6c0.6,0,1.1,0.4,1.1,1.1v16.3c0,0.6-0.4,1.1-1.1,1.1H507.8c-0.6,0-1.1-0.4-1.1-1.1v-16.3
					C506.7,190.7,507.2,190.2,507.8,190.2z"/>
				<polygon class="st1" points="514.2,158.7 510,158.7 510,155.4 509,155.4 509,152.7 507.5,152.7 507.5,155.4 506.4,155.4 
					506.4,158.7 506.4,162.3 506.4,165.5 507.5,165.5 507.5,168.4 509,168.4 509,165.5 510,165.5 510,162.3 514.2,162.3 				"/>
			</g>
		</g>
		<g class="st6">
			<path class="st1" d="M524.2,164.9h-2.4V154h2.6c1.1,0,1.8,0.1,2.4,0.5c1.1,0.6,1.7,1.8,1.7,3.1c0,1.3-0.6,2.4-1.7,3.1
				c-0.6,0.3-1.3,0.5-2.4,0.5h-0.2V164.9z M524.6,158.9c1.1,0,1.6-0.4,1.6-1.4c0-1-0.4-1.4-1.6-1.4h-0.4v2.6h0.4V158.9z"/>
		</g>
		<g class="st6">
			<path class="st1" d="M531.9,155.1c0,0.7-0.6,1.4-1.4,1.4s-1.4-0.6-1.4-1.4c0-0.7,0.6-1.3,1.4-1.3
				C531.3,153.9,531.9,154.4,531.9,155.1z M531.7,164.9h-2.3v-7.2h2.3V164.9z"/>
			<path class="st1" d="M535.5,157.7v0.3c0.6-0.4,1.2-0.6,1.8-0.6c2,0,3.7,1.8,3.7,3.9s-1.6,3.9-3.7,3.9c-0.6,0-1.2-0.2-1.8-0.6v4.1
				h-2.3v-11H535.5z M535.5,161.3c0,1.1,0.6,1.8,1.6,1.8c1,0,1.6-0.7,1.6-1.8c0-1.1-0.6-1.8-1.6-1.8
				C536.2,159.5,535.5,160.2,535.5,161.3z"/>
		</g>
		<g class="st6">
			<path class="st1" d="M548.9,163.2c-0.8,1.3-2,2-3.4,2c-2.2,0-3.8-1.7-3.8-3.9s1.7-3.9,3.7-3.9c2.1,0,3.7,1.7,3.7,4
				c0,0.2,0,0.3,0,0.6H544c0.2,0.7,0.6,1.1,1.4,1.1c0.6,0,1.1-0.2,1.4-0.7L548.9,163.2z M546.7,160.5c-0.2-0.7-0.6-1.1-1.4-1.1
				s-1.2,0.3-1.4,1.1H546.7z"/>
		</g>
		<g class="st6">
			<path class="st1" d="M550.1,164.9V154h2.3v10.9H550.1z"/>
			<path class="st1" d="M556.6,155.1c0,0.7-0.6,1.4-1.4,1.4c-0.7,0-1.4-0.6-1.4-1.4c0-0.7,0.6-1.3,1.4-1.3
				C556,153.9,556.6,154.4,556.6,155.1z M556.4,164.9h-2.3v-7.2h2.3V164.9z"/>
			<path class="st1" d="M560.2,158c0.5-0.4,1-0.5,1.6-0.5c1,0,1.9,0.5,2.4,1.4c0.3,0.5,0.4,1.3,0.4,2.2v3.9h-2.3v-3.8
				c0-1.3-0.2-1.6-1-1.6c-0.4,0-0.8,0.2-1,0.4c-0.1,0.2-0.2,0.6-0.2,1.3v3.7h-2.3v-7.2h2.3L560.2,158L560.2,158z"/>
			<path class="st1" d="M573.1,163.2c-0.8,1.3-2,2-3.4,2c-2.2,0-3.8-1.7-3.8-3.9s1.7-3.9,3.7-3.9c2.1,0,3.7,1.7,3.7,4
				c0,0.2,0,0.3,0,0.6h-5.1c0.2,0.7,0.6,1.1,1.4,1.1c0.6,0,1.1-0.2,1.4-0.7L573.1,163.2z M571,160.5c-0.2-0.7-0.6-1.1-1.4-1.1
				s-1.2,0.3-1.4,1.1H571z"/>
		</g>
		<g class="st6">
			<path class="st1" d="M584.2,156.2h-3.6v2h3.3v2.2h-3.3v4.3h-2.4v-10.9h6V156.2z"/>
		</g>
		<g class="st6">
			<path class="st1" d="M592.6,161.3c0,2.2-1.7,3.9-3.9,3.9s-3.9-1.7-3.9-3.9s1.7-3.9,4-3.9C590.9,157.3,592.6,159.1,592.6,161.3z
				 M587.1,161.3c0,1.1,0.6,1.8,1.6,1.8c1,0,1.6-0.7,1.6-1.8c0-1.1-0.6-1.8-1.6-1.8C587.7,159.5,587.1,160.2,587.1,161.3z"/>
			<path class="st1" d="M598.2,164.7c-0.5,0.4-1,0.5-1.6,0.5c-1,0-1.9-0.5-2.4-1.4c-0.3-0.5-0.4-1.3-0.4-2.2v-3.9h2.3v3.8
				c0,1.3,0.2,1.6,1.1,1.6c0.4,0,0.8-0.2,1-0.4c0.1-0.2,0.2-0.6,0.2-1.3v-3.7h2.3v7.2h-2.3v-0.2H598.2z"/>
		</g>
		<g class="st6">
			<path class="st1" d="M604.3,158c0.4-0.3,0.7-0.4,1.3-0.4c0.2,0,0.4,0,0.7,0.1v2c-0.3,0-0.5,0-0.7,0c-1,0-1.3,0.4-1.3,1.7v3.5H602
				v-7.2h2.3V158z"/>
		</g>
		<g class="st6">
			<path class="st1" d="M610.4,159.1c0,0.7-0.6,1.4-1.4,1.4s-1.4-0.6-1.4-1.4c0-0.7,0.6-1.3,1.4-1.3
				C609.7,157.9,610.4,158.4,610.4,159.1z M610.4,163.8c0,0.7-0.6,1.4-1.4,1.4s-1.4-0.6-1.4-1.4c0-0.7,0.6-1.3,1.4-1.3
				C609.7,162.4,610.4,163.1,610.4,163.8z"/>
		</g>
		<g class="st6">
			<path class="st1" d="M622.1,156.3h-2.5v8.7h-2.4v-8.7h-2.5v-2.2h7.5L622.1,156.3L622.1,156.3z"/>
		</g>
		<g class="st6">
			<path class="st1" d="M628.9,163.2c-0.8,1.3-2,2-3.4,2c-2.2,0-3.8-1.7-3.8-3.9s1.7-3.9,3.7-3.9c2.1,0,3.7,1.7,3.7,4
				c0,0.2,0,0.3,0,0.6H624c0.2,0.7,0.6,1.1,1.4,1.1c0.6,0,1.1-0.2,1.4-0.7L628.9,163.2z M626.8,160.5c-0.2-0.7-0.6-1.1-1.4-1.1
				s-1.2,0.3-1.4,1.1H626.8z"/>
		</g>
		<g class="st6">
			<path class="st1" d="M631.5,162.3c0.3,0.6,0.6,0.8,1.1,0.8c0.3,0,0.5-0.2,0.5-0.4c0-0.2-0.1-0.3-0.5-0.5l-1.2-0.5
				c-0.8-0.3-1.4-1.1-1.4-1.9c0-1.4,1.2-2.4,2.8-2.4c1.2,0,2,0.5,2.6,1.7l-1.9,0.8c-0.2-0.3-0.5-0.5-0.8-0.5c-0.3,0-0.5,0.1-0.5,0.3
				c0,0.2,0.1,0.2,0.5,0.4l1.1,0.4c1.2,0.4,1.7,1.1,1.7,2c0,1.5-1.3,2.6-2.9,2.6c-1.5,0-2.4-0.7-3.1-2.2L631.5,162.3z"/>
		</g>
		<g class="st6">
			<path class="st1" d="M639,162.4c0,0.4,0.1,0.5,0.3,0.5s0.4,0,0.8-0.2v2.1c-0.5,0.2-0.8,0.2-1.3,0.2c-1.4,0-2.2-1-2.2-2.5v-2.8
				h-0.7v-2.1h0.7v-1.5l2.3-0.8v2.3h1.1v2.1H639V162.4z"/>
		</g>
		<g id="_Group_4">
			<g id="RECTANGLE_STAGE-4">
				<path class="st2" d="M506.8,23.4h161.5c6,0,11,4.9,11,11v60.2c0,6-4.9,11-11,11H506.8c-6,0-11-4.9-11-11V34.4
					C495.8,28.4,500.8,23.4,506.8,23.4z"/>
				<path class="st1" d="M668.4,24.5c5.5,0,10,4.4,10,10v60.2c0,5.5-4.4,10-10,10H506.8c-5.5,0-10-4.4-10-10l0,0V34.4
					c0-5.5,4.4-10,10-10l0,0H668.4 M668.4,22.4H506.8c-6.7,0-12.1,5.4-12.1,12.1v60.2c0,6.7,5.4,12.1,12.1,12.1h161.5
					c6.7,0,12.1-5.4,12.1-12.1V34.4C680.4,27.8,675,22.4,668.4,22.4L668.4,22.4z"/>
				<line class="st3" x1="507.2" y1="57.9" x2="507.2" y2="57.9"/>
				<line class="st4" x1="513.4" y1="57.9" x2="667.1" y2="57.9"/>
				<line class="st3" x1="670.2" y1="57.9" x2="670.2" y2="57.9"/>
				<path class="st5" d="M507.8,72.3h159.6c0.6,0,1.1,0.4,1.1,1.1v16.3c0,0.6-0.4,1.1-1.1,1.1H507.8c-0.6,0-1.1-0.4-1.1-1.1V73.4
					C506.7,72.9,507.2,72.3,507.8,72.3z"/>
				<polygon class="st1" points="514.2,40.9 510,40.9 510,37.6 509,37.6 509,34.9 507.5,34.9 507.5,37.6 506.4,37.6 506.4,40.9 
					506.4,44.5 506.4,47.7 507.5,47.7 507.5,50.5 509,50.5 509,47.7 510,47.7 510,44.5 514.2,44.5 				"/>
			</g>
		</g>
		<g id="_Group_5">
			<g id="RECTANGLE_STAGE-5">
				<path class="st2" d="M773.4,23.4h161.5c6,0,11,4.9,11,11v60.2c0,6-4.9,11-11,11H773.4c-6,0-11-4.9-11-11V34.4
					C762.4,28.4,767.4,23.4,773.4,23.4z"/>
				<path class="st1" d="M934.9,24.5c5.5,0,10,4.4,10,10v60.2c0,5.5-4.4,10-10,10H773.4c-5.5,0-10-4.4-10-10V34.4
					c0-5.5,4.4-10,10-10H934.9 M934.9,22.4H773.4c-6.7,0-12.1,5.4-12.1,12.1v60.2c0,6.7,5.4,12.1,12.1,12.1h161.5
					c6.7,0,12.1-5.4,12.1-12.1V34.4C947,27.8,941.6,22.4,934.9,22.4L934.9,22.4z"/>
				<line class="st3" x1="773.7" y1="57.9" x2="773.7" y2="57.9"/>
				<line class="st4" x1="780" y1="57.9" x2="933.7" y2="57.9"/>
				<line class="st3" x1="936.7" y1="57.9" x2="936.7" y2="57.9"/>
				<path class="st5" d="M774.3,72.3H934c0.6,0,1.1,0.4,1.1,1.1v16.3c0,0.6-0.4,1.1-1.1,1.1H774.3c-0.6,0-1.1-0.4-1.1-1.1V73.4
					C773.3,72.9,773.7,72.3,774.3,72.3z"/>
				<polygon class="st1" points="780.8,40.9 776.6,40.9 776.6,37.6 775.5,37.6 775.5,34.9 774,34.9 774,37.6 773,37.6 773,40.9 
					773,44.5 773,47.7 774,47.7 774,50.5 775.5,50.5 775.5,47.7 776.6,47.7 776.6,44.5 780.8,44.5 				"/>
			</g>
		</g>
		<g class="st6">
			<path class="st1" d="M524.2,47h-2.4V36.1h2.6c1.1,0,1.8,0.1,2.4,0.5c1.1,0.6,1.7,1.8,1.7,3.1c0,1.3-0.6,2.4-1.7,3.1
				c-0.6,0.3-1.3,0.5-2.4,0.5h-0.2V47z M524.6,41.1c1.1,0,1.6-0.4,1.6-1.4c0-1-0.4-1.4-1.6-1.4h-0.4V41h0.4V41.1z"/>
		</g>
		<g class="st6">
			<path class="st1" d="M531.9,37.3c0,0.7-0.6,1.4-1.4,1.4s-1.4-0.6-1.4-1.4c0-0.7,0.6-1.3,1.4-1.3C531.3,36,531.9,36.6,531.9,37.3z
				 M531.7,47h-2.3v-7.2h2.3V47z"/>
			<path class="st1" d="M535.5,39.8v0.3c0.6-0.4,1.2-0.6,1.8-0.6c2,0,3.7,1.8,3.7,3.9s-1.6,3.9-3.7,3.9c-0.6,0-1.2-0.2-1.8-0.6v4.1
				h-2.3v-11L535.5,39.8L535.5,39.8z M535.5,43.4c0,1.1,0.6,1.8,1.6,1.8c1,0,1.6-0.7,1.6-1.8s-0.6-1.8-1.6-1.8
				C536.2,41.6,535.5,42.4,535.5,43.4z"/>
		</g>
		<g class="st6">
			<path class="st1" d="M548.9,45.4c-0.8,1.3-2,2-3.4,2c-2.2,0-3.8-1.7-3.8-3.9c0-2.2,1.7-3.9,3.7-3.9c2.1,0,3.7,1.7,3.7,4
				c0,0.2,0,0.3,0,0.6H544c0.2,0.7,0.6,1.1,1.4,1.1c0.6,0,1.1-0.2,1.4-0.7L548.9,45.4z M546.7,42.7c-0.2-0.7-0.6-1.1-1.4-1.1
				s-1.2,0.3-1.4,1.1H546.7z"/>
		</g>
		<g class="st6">
			<path class="st1" d="M550.1,47V36.1h2.3V47H550.1z"/>
			<path class="st1" d="M556.6,37.3c0,0.7-0.6,1.4-1.4,1.4c-0.7,0-1.4-0.6-1.4-1.4c0-0.7,0.6-1.3,1.4-1.3
				C556,36,556.6,36.6,556.6,37.3z M556.4,47h-2.3v-7.2h2.3V47z"/>
			<path class="st1" d="M560.2,40.2c0.5-0.4,1-0.5,1.6-0.5c1,0,1.9,0.5,2.4,1.4c0.3,0.5,0.4,1.3,0.4,2.2v3.9h-2.3v-3.8
				c0-1.3-0.2-1.6-1-1.6c-0.4,0-0.8,0.2-1,0.4c-0.1,0.2-0.2,0.6-0.2,1.3v3.7h-2.3V40h2.3L560.2,40.2L560.2,40.2z"/>
			<path class="st1" d="M573.1,45.4c-0.8,1.3-2,2-3.4,2c-2.2,0-3.8-1.7-3.8-3.9c0-2.2,1.7-3.9,3.7-3.9c2.1,0,3.7,1.7,3.7,4
				c0,0.2,0,0.3,0,0.6h-5.1c0.2,0.7,0.6,1.1,1.4,1.1c0.6,0,1.1-0.2,1.4-0.7L573.1,45.4z M571,42.7c-0.2-0.7-0.6-1.1-1.4-1.1
				s-1.2,0.3-1.4,1.1H571z"/>
		</g>
		<g class="st6">
			<path class="st1" d="M584.5,38.4H582V47h-2.4v-8.7H577v-2.2h7.5L584.5,38.4L584.5,38.4z"/>
		</g>
		<g class="st6">
			<path class="st1" d="M587.5,40.2c0.5-0.4,1-0.5,1.6-0.5c1,0,1.9,0.5,2.4,1.4c0.3,0.5,0.4,1.3,0.4,2.2v3.9h-2.3v-3.8
				c0-1.3-0.2-1.6-1-1.6c-0.4,0-0.8,0.2-1,0.4c-0.1,0.2-0.2,0.6-0.2,1.3v3.7h-2.3V36.2h2.3V40.2z"/>
		</g>
		<g class="st6">
			<path class="st1" d="M595.9,40.2c0.4-0.3,0.7-0.4,1.3-0.4c0.2,0,0.4,0,0.7,0.1v2c-0.3,0-0.5,0-0.7,0c-1,0-1.3,0.4-1.3,1.7V47
				h-2.3v-7.2h2.3V40.2z"/>
		</g>
		<g class="st6">
			<path class="st1" d="M605.4,45.4c-0.8,1.3-2,2-3.4,2c-2.2,0-3.8-1.7-3.8-3.9c0-2.2,1.7-3.9,3.7-3.9c2.1,0,3.7,1.7,3.7,4
				c0,0.2,0,0.3,0,0.6h-5.1c0.2,0.7,0.6,1.1,1.4,1.1c0.6,0,1.1-0.2,1.4-0.7L605.4,45.4z M603.4,42.7c-0.2-0.7-0.6-1.1-1.4-1.1
				s-1.2,0.3-1.4,1.1H603.4z"/>
		</g>
		<g class="st6">
			<path class="st1" d="M613.5,45.4c-0.8,1.3-2,2-3.4,2c-2.2,0-3.8-1.7-3.8-3.9c0-2.2,1.7-3.9,3.7-3.9c2.1,0,3.7,1.7,3.7,4
				c0,0.2,0,0.3,0,0.6h-5.1c0.2,0.7,0.6,1.1,1.4,1.1c0.6,0,1.1-0.2,1.4-0.7L613.5,45.4z M611.4,42.7c-0.2-0.7-0.6-1.1-1.4-1.1
				s-1.2,0.3-1.4,1.1H611.4z"/>
		</g>
		<g class="st6">
			<path class="st1" d="M618.1,41.3c0,0.7-0.6,1.4-1.4,1.4s-1.4-0.6-1.4-1.4s0.6-1.3,1.4-1.3S618.1,40.6,618.1,41.3z M618.1,46
				c0,0.7-0.6,1.4-1.4,1.4s-1.4-0.6-1.4-1.4c0-0.7,0.6-1.3,1.4-1.3C617.5,44.6,618.1,45.2,618.1,46z"/>
		</g>
		<g class="st6">
			<path class="st1" d="M629.8,38.4h-2.5V47h-2.4v-8.7h-2.5v-2.2h7.5L629.8,38.4L629.8,38.4z"/>
		</g>
		<g class="st6">
			<path class="st1" d="M636.6,45.4c-0.8,1.3-2,2-3.4,2c-2.2,0-3.8-1.7-3.8-3.9c0-2.2,1.7-3.9,3.7-3.9c2.1,0,3.7,1.7,3.7,4
				c0,0.2,0,0.3,0,0.6h-5.1c0.2,0.7,0.6,1.1,1.4,1.1c0.6,0,1.1-0.2,1.4-0.7L636.6,45.4z M634.5,42.7c-0.2-0.7-0.6-1.1-1.4-1.1
				s-1.2,0.3-1.4,1.1H634.5z"/>
		</g>
		<g class="st6">
			<path class="st1" d="M639.3,44.5c0.3,0.6,0.6,0.8,1.1,0.8c0.3,0,0.5-0.2,0.5-0.4c0-0.2-0.1-0.3-0.5-0.5l-1.2-0.5
				c-0.8-0.3-1.4-1.1-1.4-1.9c0-1.4,1.2-2.4,2.8-2.4c1.2,0,2,0.5,2.6,1.7l-1.9,0.8c-0.2-0.3-0.5-0.5-0.8-0.5c-0.3,0-0.5,0.1-0.5,0.3
				c0,0.2,0.1,0.2,0.5,0.4l1.1,0.4c1.2,0.4,1.7,1.1,1.7,2c0,1.5-1.3,2.6-2.9,2.6c-1.5,0-2.4-0.7-3.1-2.2L639.3,44.5z"/>
		</g>
		<g class="st6">
			<path class="st1" d="M646.7,44.5c0,0.4,0.1,0.5,0.3,0.5s0.4,0,0.8-0.2v2.1c-0.5,0.2-0.8,0.2-1.3,0.2c-1.4,0-2.2-1-2.2-2.5v-2.8
				h-0.7v-2.1h0.7v-1.5l2.3-0.8v2.3h1.1v2.1h-1.1V44.5z"/>
		</g>
		<g class="st6">
			<path class="st1" d="M789.9,47h-2.4V36.1h2.6c1.1,0,1.8,0.1,2.4,0.5c1.1,0.6,1.7,1.8,1.7,3.1c0,1.3-0.6,2.4-1.7,3.1
				c-0.6,0.3-1.3,0.5-2.4,0.5h-0.2V47z M790.3,41.1c1.1,0,1.6-0.4,1.6-1.4c0-1-0.4-1.4-1.6-1.4h-0.4V41h0.4V41.1z"/>
		</g>
		<g class="st6">
			<path class="st1" d="M797.6,37.3c0,0.7-0.6,1.4-1.4,1.4c-0.7,0-1.4-0.6-1.4-1.4c0-0.7,0.6-1.3,1.4-1.3S797.6,36.6,797.6,37.3z
				 M797.4,47h-2.3v-7.2h2.3V47z"/>
			<path class="st1" d="M801.2,39.8v0.3c0.6-0.4,1.2-0.6,1.8-0.6c2,0,3.7,1.8,3.7,3.9s-1.6,3.9-3.7,3.9c-0.6,0-1.2-0.2-1.8-0.6v4.1
				h-2.3v-11L801.2,39.8L801.2,39.8z M801.2,43.4c0,1.1,0.6,1.8,1.6,1.8s1.6-0.7,1.6-1.8s-0.6-1.8-1.6-1.8
				C801.9,41.6,801.2,42.4,801.2,43.4z"/>
		</g>
		<g class="st6">
			<path class="st1" d="M814.6,45.4c-0.8,1.3-2,2-3.4,2c-2.2,0-3.8-1.7-3.8-3.9c0-2.2,1.7-3.9,3.7-3.9c2.1,0,3.7,1.7,3.7,4
				c0,0.2,0,0.3,0,0.6h-5.1c0.2,0.7,0.6,1.1,1.4,1.1c0.6,0,1.1-0.2,1.4-0.7L814.6,45.4z M812.5,42.7c-0.2-0.7-0.6-1.1-1.4-1.1
				s-1.2,0.3-1.4,1.1H812.5z"/>
		</g>
		<g class="st6">
			<path class="st1" d="M815.8,47V36.1h2.3V47H815.8z"/>
			<path class="st1" d="M822.3,37.3c0,0.7-0.6,1.4-1.4,1.4s-1.4-0.6-1.4-1.4c0-0.7,0.6-1.3,1.4-1.3S822.3,36.6,822.3,37.3z
				 M822.1,47h-2.3v-7.2h2.3V47z"/>
			<path class="st1" d="M825.9,40.2c0.5-0.4,1-0.5,1.6-0.5c1,0,1.9,0.5,2.4,1.4c0.3,0.5,0.4,1.3,0.4,2.2v3.9H828v-3.8
				c0-1.3-0.2-1.6-1-1.6c-0.4,0-0.8,0.2-1,0.4c-0.1,0.2-0.2,0.6-0.2,1.3v3.7h-2.3V40h2.3L825.9,40.2L825.9,40.2z"/>
			<path class="st1" d="M838.8,45.4c-0.8,1.3-2,2-3.4,2c-2.2,0-3.8-1.7-3.8-3.9c0-2.2,1.7-3.9,3.7-3.9c2.1,0,3.7,1.7,3.7,4
				c0,0.2,0,0.3,0,0.6h-5.1c0.2,0.7,0.6,1.1,1.4,1.1c0.6,0,1.1-0.2,1.4-0.7L838.8,45.4z M836.7,42.7c-0.2-0.7-0.6-1.1-1.4-1.1
				s-1.2,0.3-1.4,1.1H836.7z"/>
		</g>
		<g class="st6">
			<path class="st1" d="M849.9,38.4h-3.6v2h3.3v2.2h-3.3v4.3h-2.4V36h6V38.4z"/>
		</g>
		<g class="st6">
			<path class="st1" d="M853.5,37.3c0,0.7-0.6,1.4-1.4,1.4s-1.4-0.6-1.4-1.4c0-0.7,0.6-1.3,1.4-1.3S853.5,36.6,853.5,37.3z
				 M853.3,47H851v-7.2h2.3V47z"/>
		</g>
		<g class="st6">
			<path class="st1" d="M858,43.9l1.7-4h2.4L859,47h-2.1l-3.1-7.2h2.4L858,43.9z"/>
		</g>
		<g class="st6">
			<path class="st1" d="M869.1,45.4c-0.8,1.3-2,2-3.4,2c-2.2,0-3.8-1.7-3.8-3.9c0-2.2,1.7-3.9,3.7-3.9c2.1,0,3.7,1.7,3.7,4
				c0,0.2,0,0.3,0,0.6h-5.1c0.2,0.7,0.6,1.1,1.4,1.1c0.6,0,1.1-0.2,1.4-0.7L869.1,45.4z M867,42.7c-0.2-0.7-0.6-1.1-1.4-1.1
				s-1.2,0.3-1.4,1.1H867z"/>
		</g>
		<g class="st6">
			<path class="st1" d="M873.7,41.3c0,0.7-0.6,1.4-1.4,1.4s-1.4-0.6-1.4-1.4s0.6-1.3,1.4-1.3S873.7,40.6,873.7,41.3z M873.7,46
				c0,0.7-0.6,1.4-1.4,1.4S871,46.7,871,46c0-0.7,0.6-1.3,1.4-1.3C873.1,44.6,873.7,45.2,873.7,46z"/>
		</g>
		<g class="st6">
			<path class="st1" d="M881.8,36.1c3.6,0,6,2.1,6,5.4s-2.3,5.5-6,5.5h-2.6V36.1H881.8z M881.6,44.8h0.3c2.2,0,3.5-1.2,3.5-3.2
				c0-2-1.3-3.2-3.5-3.2h-0.3V44.8z"/>
		</g>
		<g class="st6">
			<path class="st1" d="M895.8,45.4c-0.8,1.3-2,2-3.4,2c-2.2,0-3.8-1.7-3.8-3.9c0-2.2,1.7-3.9,3.7-3.9c2.1,0,3.7,1.7,3.7,4
				c0,0.2,0,0.3,0,0.6h-5.1c0.2,0.7,0.6,1.1,1.4,1.1c0.6,0,1.1-0.2,1.4-0.7L895.8,45.4z M893.6,42.7c-0.2-0.7-0.6-1.1-1.4-1.1
				s-1.2,0.3-1.4,1.1H893.6z"/>
			<path class="st1" d="M899.4,39.8v0.3c0.6-0.4,1.2-0.6,1.8-0.6c2,0,3.7,1.8,3.7,3.9s-1.6,3.9-3.7,3.9c-0.6,0-1.2-0.2-1.8-0.6v4.1
				H897v-11L899.4,39.8L899.4,39.8z M899.4,43.4c0,1.1,0.6,1.8,1.6,1.8s1.6-0.7,1.6-1.8s-0.6-1.8-1.6-1.8
				C900,41.6,899.4,42.4,899.4,43.4z"/>
			<path class="st1" d="M905.9,47V36.1h2.3V47H905.9z"/>
		</g>
		<g class="st6">
			<path class="st1" d="M917.3,43.4c0,2.2-1.7,3.9-3.9,3.9c-2.2,0-3.9-1.7-3.9-3.9c0-2.2,1.7-3.9,4-3.9
				C915.6,39.5,917.3,41.3,917.3,43.4z M911.7,43.4c0,1.1,0.6,1.8,1.6,1.8s1.6-0.7,1.6-1.8s-0.6-1.8-1.6-1.8S911.7,42.4,911.7,43.4z
				"/>
		</g>
		<g class="st6">
			<path class="st1" d="M917.1,39.8h2.4l1.6,4l1.8-4h2.4l-5,11H918l1.9-4.2L917.1,39.8z"/>
		</g>
		<circle class="st0" cx="325.7" cy="64.5" r="57.1"/>
		<g id="Layer_1-2">
			<path class="st1" d="M347.7,63.6c-0.3-1.3-2.5-1.9-6.7-1.9c-2.1,0-5.1,0.2-8.8,0.4c-3.7,0.2-8.4,0.7-14,1.3
				c-8.7,1-15.8,1.6-21.5,2.1c-2.8,0.2-5.1,0.4-7.2,0.5v15.6c10.4-1.5,20.5-3.5,30.7-5.9c7.1-1.7,14-3.8,20.7-6.6
				C345.8,66.8,348.1,65,347.7,63.6z M293.2,76.2c-0.1,0.1-0.3,0.2-0.5,0.2c-0.1,0-0.2,0-0.3-0.1c-0.1,0-0.2-0.1-0.2-0.1
				c-0.1-0.1-0.1-0.1-0.1-0.2c0-0.1-0.1-0.2-0.1-0.3c0-0.2,0.1-0.3,0.2-0.5c0.1-0.1,0.3-0.2,0.5-0.2s0.3,0.1,0.5,0.2
				c0.1,0.1,0.2,0.3,0.2,0.5C293.4,75.8,293.3,76,293.2,76.2z M293.2,71.6c-0.1,0.1-0.3,0.2-0.5,0.2s-0.4-0.1-0.5-0.2
				c-0.1-0.1-0.2-0.3-0.2-0.5s0.1-0.4,0.2-0.5s0.3-0.2,0.5-0.2s0.3,0.1,0.5,0.2c0.1,0.1,0.2,0.3,0.2,0.5
				C293.4,71.3,293.3,71.4,293.2,71.6L293.2,71.6z M295.7,76.2c-0.1,0.1-0.3,0.2-0.5,0.2s-0.3-0.1-0.5-0.2c-0.1-0.1-0.1-0.1-0.1-0.2
				c0-0.1-0.1-0.2-0.1-0.3c0-0.2,0.1-0.4,0.2-0.5s0.3-0.2,0.5-0.2s0.3,0.1,0.5,0.2c0.1,0.1,0.2,0.3,0.2,0.5
				C295.9,75.8,295.8,76,295.7,76.2L295.7,76.2z M295.7,71.6c-0.1,0.1-0.3,0.2-0.5,0.2s-0.4-0.1-0.5-0.2c-0.1-0.1-0.2-0.3-0.2-0.5
				s0.1-0.4,0.2-0.5s0.3-0.2,0.5-0.2s0.3,0.1,0.5,0.2c0.1,0.1,0.2,0.3,0.2,0.5S295.8,71.4,295.7,71.6L295.7,71.6z"/>
			<path class="st1" d="M329,40c-16.5,4.1-29.6,8.3-39.5,12.4V33.2h70.2C349.9,35,339.6,37.2,329,40z"/>
			<path class="st1" d="M362.3,37.3v14.6c-5,0.3-11.1,0.8-18.6,1.6c-7.5,0.8-13.7,1.4-18.4,1.8s-8.3,0.6-10.4,0.7
				c-4.1,0.1-6.4-0.4-6.7-1.7c-0.3-1.4,2.1-3.2,7.4-5.4c6.8-2.8,13.8-5,20.9-6.7C344.1,40.4,352.7,38.7,362.3,37.3z"/>
			<path class="st1" d="M325.2,78.6c12.6-3.1,25-6.9,37.1-11.4v19.2h-72.7v-0.1C299.6,84.5,311.5,82.1,325.2,78.6z"/>
			<path id="path61" class="st1" d="M293.7,91.5c0,0.3-0.1,0.5-0.2,0.7c-0.2,0.2-0.4,0.4-0.6,0.5c-0.3,0.1-0.6,0.2-1.1,0.2
				s-0.8-0.1-1.2-0.3c-0.2-0.1-0.4-0.3-0.5-0.5s-0.2-0.4-0.2-0.6c0-0.2,0.2-0.4,0.4-0.4l0,0c0.1,0,0.2,0,0.2,0.1
				c0.1,0.1,0.1,0.2,0.2,0.3c0,0.1,0.1,0.2,0.2,0.4c0.1,0.1,0.2,0.2,0.3,0.2c0.2,0.1,0.3,0.1,0.5,0.1s0.5-0.1,0.7-0.2
				c0.2-0.1,0.3-0.3,0.3-0.5c0-0.1,0-0.3-0.1-0.4c-0.1-0.1-0.2-0.2-0.4-0.2c-0.2-0.1-0.4-0.1-0.6-0.2c-0.3-0.1-0.6-0.2-0.8-0.3
				c-0.2-0.1-0.4-0.2-0.5-0.4c-0.1-0.2-0.2-0.4-0.2-0.7c0-0.2,0.1-0.5,0.2-0.7s0.4-0.4,0.6-0.4c0.3-0.1,0.6-0.2,1-0.2
				c0.2,0,0.5,0,0.7,0.1c0.2,0.1,0.4,0.2,0.5,0.3s0.2,0.2,0.3,0.4c0.1,0.1,0.1,0.2,0.1,0.4c0,0.1,0,0.2-0.1,0.3s-0.2,0.1-0.3,0.1
				c-0.1,0-0.2,0-0.2-0.1c-0.1-0.1-0.1-0.2-0.2-0.3c-0.1-0.2-0.2-0.3-0.3-0.4c-0.2-0.1-0.4-0.2-0.6-0.1c-0.2,0-0.4,0-0.6,0.2
				c-0.1,0.1-0.2,0.2-0.2,0.4c0,0.1,0,0.2,0.1,0.2c0.1,0.1,0.1,0.1,0.2,0.2c0.1,0,0.2,0.1,0.3,0.1c0.1,0,0.2,0.1,0.4,0.1
				c0.2,0.1,0.5,0.1,0.7,0.2c0.2,0.1,0.4,0.2,0.5,0.3s0.3,0.2,0.3,0.4C293.7,91.1,293.7,91.3,293.7,91.5z"/>
			<path id="path63" class="st1" d="M297.7,90.9v-2.3c0-0.2,0-0.3,0.1-0.4c0.1-0.1,0.2-0.1,0.3-0.1s0.3,0,0.3,0.1
				c0.1,0.1,0.1,0.3,0.1,0.4v2.3c0,0.2,0,0.4,0.1,0.6c0.1,0.2,0.2,0.3,0.3,0.4c0.2,0.1,0.4,0.2,0.6,0.1c0.3,0,0.6-0.1,0.8-0.3
				c0.2-0.3,0.2-0.6,0.2-1v-2.4c0-0.2,0-0.3,0.1-0.4c0.1-0.1,0.2-0.1,0.3-0.1c0.1,0,0.3,0,0.3,0.1c0.1,0.1,0.1,0.3,0.1,0.4v2.3
				c0,0.3,0,0.6-0.1,1c-0.1,0.2-0.2,0.5-0.4,0.6c-0.2,0.2-0.4,0.3-0.6,0.3c-0.2,0.1-0.5,0.1-0.8,0.1s-0.6,0-1-0.1
				c-0.2-0.1-0.4-0.2-0.6-0.4c-0.2-0.2-0.3-0.4-0.4-0.6C297.7,91.5,297.7,91.2,297.7,90.9z"/>
			<path id="path65" class="st1" d="M308.8,90.3c0.4-0.2,0.7-0.6,0.7-1.1c0-0.1,0-0.3-0.1-0.4c0-0.1-0.1-0.2-0.2-0.3
				s-0.2-0.2-0.3-0.2c-0.1-0.1-0.3-0.1-0.4-0.2c-0.2,0-0.4,0-0.6,0h-1.6c-0.2,0-0.3,0-0.4,0.1s-0.1,0.3-0.1,0.4v3.6
				c0,0.2,0,0.3,0.1,0.4c0.1,0.1,0.3,0.1,0.4,0.1h1.5c0.2,0,0.4,0,0.6,0s0.3-0.1,0.5-0.1c0.2-0.1,0.4-0.3,0.5-0.5
				c0.1-0.2,0.2-0.4,0.2-0.7C309.8,91,309.4,90.4,308.8,90.3z M306.8,88.9h0.8c0.3,0,0.5,0,0.8,0.1c0.2,0.1,0.3,0.3,0.2,0.5
				c0,0.1,0,0.2-0.1,0.3c-0.1,0.1-0.2,0.2-0.3,0.2c-0.2,0-0.4,0.1-0.5,0.1h-1V88.9z M307.8,92.1h-1.1v-1.4h1.1c0.3,0,0.5,0,0.7,0.2
				c0.2,0.1,0.3,0.3,0.2,0.5C308.8,91.9,308.5,92.1,307.8,92.1L307.8,92.1z"/>
			<path id="path67" class="st1" d="M314.4,88.6l1.1,3.3l1.1-3.3c0.1-0.2,0.1-0.3,0.1-0.3c0-0.1,0.1-0.1,0.1-0.2
				c0.1-0.1,0.2-0.1,0.3-0.1c0.2,0,0.3,0.1,0.4,0.2c0,0.1,0.1,0.1,0.1,0.2v0.1c0,0.1,0,0.1,0,0.2l-0.1,0.2l-1.2,3.2
				c0,0.1-0.1,0.2-0.1,0.3s-0.1,0.2-0.1,0.3c-0.1,0.1-0.1,0.1-0.2,0.2c-0.1,0.1-0.2,0.1-0.3,0.1c-0.1,0-0.2,0-0.3-0.1
				c-0.1,0-0.2-0.1-0.2-0.2c-0.1-0.1-0.1-0.2-0.1-0.3s-0.1-0.2-0.1-0.3l-1.2-3.2c0-0.1,0-0.1-0.1-0.2c0-0.1,0-0.1,0-0.2
				c0,0,0-0.1,0-0.2c0-0.1,0-0.2,0.1-0.3s0.2-0.1,0.3-0.1c0.1,0,0.3,0,0.3,0.1C314.3,88.3,314.3,88.4,314.4,88.6z"/>
			<path id="path69" class="st1" d="M324.4,88.9h-2.2V90h2c0.1,0,0.2,0,0.3,0.1c0.1,0.1,0.1,0.2,0.1,0.2c0,0.1,0,0.2-0.1,0.3
				s-0.2,0.1-0.3,0.1h-2v1.4h2.2c0.1,0,0.2,0,0.3,0.1c0.1,0.1,0.1,0.2,0.1,0.3s0,0.2-0.1,0.3s-0.2,0.1-0.3,0.1h-2.6
				c-0.3,0.1-0.5-0.1-0.6-0.4c0-0.1,0-0.1,0-0.2v-3.6c0-0.1,0-0.2,0.1-0.3c0-0.1,0.1-0.1,0.2-0.2c0.1,0,0.2-0.1,0.3-0.1h2.5
				c0.1,0,0.2,0,0.3,0.1c0.1,0.1,0.1,0.4,0,0.5l0,0C324.8,88.9,324.7,88.9,324.4,88.9z"/>
			<path id="path71" class="st1" d="M332.7,92.2c-0.1-0.2-0.2-0.3-0.3-0.5c-0.1-0.2-0.3-0.4-0.4-0.5c-0.1-0.2-0.3-0.3-0.5-0.4
				c0.3-0.1,0.6-0.2,1-0.4c0.2-0.2,0.3-0.5,0.3-0.8c0-0.2,0-0.3-0.1-0.5c-0.1-0.1-0.1-0.3-0.3-0.4c-0.1-0.1-0.2-0.2-0.4-0.3
				c-0.1-0.1-0.3-0.1-0.4-0.1c-0.2,0-0.4,0-0.5,0h-1.6c-0.2,0-0.3,0-0.4,0.1s-0.1,0.3-0.1,0.4v3.7c0,0.1,0,0.3,0.1,0.4
				c0.1,0.1,0.2,0.2,0.3,0.1c0.1,0,0.2,0,0.3-0.1c0.1-0.1,0.1-0.3,0.1-0.4v-1.6h0.3c0.1,0,0.3,0,0.4,0.1s0.2,0.1,0.3,0.2
				c0.1,0.2,0.3,0.3,0.4,0.5l0.4,0.6c0.1,0.1,0.2,0.3,0.2,0.3c0,0.1,0.1,0.1,0.2,0.2c0.1,0.1,0.2,0.1,0.3,0.1c0.1,0,0.2,0,0.2-0.1
				c0.1,0,0.1-0.1,0.2-0.1c0-0.1,0.1-0.1,0.1-0.2C332.8,92.5,332.8,92.4,332.7,92.2z M331.3,90.1c-0.2,0-0.4,0.1-0.6,0.1h-0.8v-1.4
				h0.8c0.2,0,0.4,0,0.6,0.1s0.4,0.3,0.4,0.6c0,0.1,0,0.3-0.1,0.4C331.5,90,331.4,90,331.3,90.1L331.3,90.1z"/>
			<path id="path73" class="st1" d="M340.4,91.5c0,0.3-0.1,0.5-0.2,0.7c-0.2,0.2-0.4,0.4-0.6,0.5c-0.3,0.1-0.6,0.2-1.1,0.2
				s-0.8-0.1-1.2-0.3c-0.2-0.1-0.4-0.3-0.5-0.5s-0.2-0.4-0.2-0.6c0-0.2,0.2-0.4,0.4-0.4l0,0c0.1,0,0.2,0,0.2,0.1
				c0.1,0.1,0.1,0.2,0.2,0.3c0,0.1,0.1,0.2,0.2,0.4c0.1,0.1,0.2,0.2,0.3,0.2c0.2,0.1,0.3,0.1,0.5,0.1s0.5-0.1,0.7-0.2
				c0.2-0.1,0.3-0.3,0.3-0.5c0-0.1,0-0.3-0.1-0.4c-0.1-0.1-0.2-0.2-0.4-0.2c-0.2-0.1-0.4-0.1-0.6-0.2c-0.3-0.1-0.6-0.2-0.8-0.3
				c-0.2-0.1-0.4-0.2-0.5-0.4c-0.1-0.2-0.2-0.4-0.2-0.7c0-0.2,0.1-0.5,0.2-0.7s0.4-0.4,0.6-0.4c0.3-0.1,0.6-0.2,1-0.2
				c0.2,0,0.5,0,0.7,0.1c0.2,0.1,0.4,0.2,0.5,0.3s0.2,0.2,0.3,0.4c0.1,0.1,0.1,0.2,0.1,0.4c0,0.1,0,0.2-0.1,0.3s-0.2,0.1-0.3,0.1
				c-0.1,0-0.2,0-0.2-0.1c-0.1-0.1-0.1-0.2-0.2-0.3c-0.1-0.2-0.2-0.3-0.3-0.4c-0.2-0.1-0.4-0.2-0.6-0.1c-0.2,0-0.4,0-0.6,0.2
				c-0.1,0.1-0.2,0.2-0.2,0.4c0,0.1,0,0.2,0.1,0.2c0.1,0.1,0.1,0.1,0.2,0.2c0.1,0,0.2,0.1,0.3,0.1c0.1,0,0.2,0.1,0.4,0.1
				c0.2,0.1,0.5,0.1,0.7,0.2c0.2,0.1,0.4,0.2,0.5,0.3s0.3,0.2,0.3,0.4C340.3,91.1,340.4,91.3,340.4,91.5z"/>
			<path id="path75" class="st1" d="M344.2,92.4v-3.8c0-0.2,0-0.3,0.1-0.4c0.1-0.1,0.2-0.1,0.3-0.1c0.1,0,0.3,0,0.3,0.1
				c0.1,0.1,0.1,0.3,0.1,0.4v3.8c0,0.2,0,0.3-0.1,0.4c-0.1,0.1-0.2,0.1-0.3,0.1c-0.1,0-0.2,0-0.3-0.1
				C344.3,92.7,344.2,92.6,344.2,92.4z"/>
			<path id="path77" class="st1" d="M353.6,89.2c-0.2-0.3-0.4-0.6-0.8-0.8s-0.8-0.3-1.3-0.3c-0.3,0-0.6,0.1-1,0.2
				c-0.3,0.1-0.5,0.3-0.7,0.5c-0.2,0.2-0.3,0.5-0.4,0.7c-0.1,0.3-0.2,0.6-0.2,1.1c0,0.3,0,0.6,0.1,1.1c0.1,0.3,0.2,0.5,0.4,0.8
				c0.2,0.2,0.4,0.4,0.7,0.5c0.3,0.1,0.6,0.2,1.1,0.2c0.3,0,0.6-0.1,1-0.2c0.3-0.1,0.5-0.3,0.7-0.5s0.3-0.5,0.4-0.8
				c0.1-0.3,0.1-0.6,0.1-1.1C353.9,90,353.8,89.6,353.6,89.2z M352.7,91.5c-0.1,0.2-0.3,0.4-0.5,0.6c-0.2,0.1-0.4,0.2-0.6,0.2
				s-0.3,0-0.5-0.1s-0.3-0.2-0.4-0.3c-0.1-0.2-0.2-0.3-0.3-0.5c-0.1-0.2-0.1-0.5-0.1-0.7c0-0.2,0-0.5,0.1-0.7
				c0.1-0.2,0.1-0.4,0.3-0.5c0.1-0.1,0.2-0.2,0.4-0.3c0.4-0.2,0.8-0.1,1.3,0.1c0.2,0.1,0.4,0.3,0.5,0.6c0.1,0.3,0.2,0.6,0.2,1
				C352.9,90.9,352.8,91.2,352.7,91.5L352.7,91.5z"/>
			<path id="path79" class="st1" d="M359.1,88.5l1.9,2.9v-2.9c0-0.1,0-0.3,0.1-0.4c0.1-0.1,0.2-0.1,0.3-0.1c0.1,0,0.2,0,0.3,0.1
				c0.1,0.1,0.1,0.3,0.1,0.4v3.8c0,0.4-0.2,0.6-0.5,0.6c-0.1,0-0.2,0-0.2,0c-0.1,0-0.1-0.1-0.2-0.1c-0.1-0.1-0.1-0.1-0.2-0.2
				l-0.1-0.2l-1.8-2.9v2.9c0,0.1,0,0.3-0.1,0.4c-0.2,0.2-0.4,0.2-0.6,0l0,0c-0.1-0.1-0.1-0.3-0.1-0.4v-3.7c0-0.1,0-0.2,0-0.4
				c0-0.1,0.1-0.2,0.2-0.2c0.1-0.1,0.2-0.1,0.3-0.1c0.1,0,0.1,0,0.2,0s0.1,0.1,0.2,0.1c0.1,0.1,0.1,0.1,0.1,0.2
				C359,88.4,359,88.5,359.1,88.5z"/>
			<rect x="289.2" y="95.3" class="st1" width="72.9" height="0.6"/>
		</g>
	</g>
</g>
</svg>
