<?xml version="1.0" encoding="utf-8"?>
<!-- Generator: Adobe Illustrator 22.0.1, SVG Export Plug-In . SVG Version: 6.00 Build 0)  -->
<svg version="1.1" id="Layer_1" xmlns="http://www.w3.org/2000/svg" xmlns:xlink="http://www.w3.org/1999/xlink" x="0px" y="0px"
	 viewBox="0 0 949 466" style="enable-background:new 0 0 949 466;" xml:space="preserve">
<style type="text/css">
	.st0{fill:#1C425C;fill-opacity:0;}
	.st1{fill:#1C425C;}
	.st2{fill:none;stroke:#1C425C;stroke-width:2;stroke-linecap:round;stroke-linejoin:round;}
	.st3{fill:none;stroke:#1C425C;stroke-width:2;stroke-miterlimit:10;}
	.st4{opacity:0.2;fill:none;enable-background:new    ;}
	.st5{fill:none;stroke:#1C425C;stroke-width:2;stroke-linecap:round;stroke-miterlimit:10;}
	.st6{fill:none;stroke:#1C425C;stroke-width:2;stroke-linecap:round;stroke-miterlimit:10;stroke-dasharray:0,5.925;}
	.st7{fill:#C8DB57;}
	.st8{fill:none;}
	.st9{enable-background:new    ;}
</style>
<g id="Layer_2_1_">
	<g id="Text_Headlines">
		<path class="st0" d="M32.6,465c-0.3,0-0.5-0.1-0.7-0.3L1.3,434.1c-0.2-0.2-0.3-0.4-0.3-0.7V2.7C1,1.7,1.7,1,2.7,1h915.1
			c0.3,0,0.5,0.1,0.7,0.3l29.3,29.3c0.2,0.2,0.3,0.4,0.3,0.7v432.1c0,0.9-0.7,1.7-1.7,1.7H32.6z"/>
		<path class="st1" d="M917.7,2L947,31.3v432.1c0,0.4-0.3,0.7-0.7,0.7H32.6L2,433.4V2.7C2,2.3,2.3,2,2.7,2h0H917.7 M917.7,0H2.7
			C1.2,0,0,1.2,0,2.7v430.7c0,0.5,0.2,1,0.6,1.4L25.8,460l5.4,5.4c0.4,0.4,0.9,0.6,1.4,0.6h913.7c1.5,0,2.7-1.2,2.7-2.7V31.3
			c0-0.5-0.2-1-0.6-1.4l-14.6-14.6L919.1,0.6C918.8,0.2,918.3,0,917.7,0z"/>
		<path class="st2" d="M55.4,42.9c-0.3-0.7-0.8-1.3-1.5-1.8c-2-1.4-4.8-0.9-6.3,1.1c-1.4,2-0.9,4.8,1.1,6.3c1.3,0.9,3,1.1,4.5,0.4"
			/>
		<polyline class="st2" points="57,39.9 56.3,44.1 52.1,43.3 		"/>
		<circle class="st3" cx="83" cy="172.4" r="53.9"/>
		<path class="st1" d="M96.7,167.3c0.7,0.9,1.2,2,1.2,3.2c0,3.5-2.7,5.5-6.7,5.5c-0.8,0-1.7-0.1-2.5-0.3l-1,1.7l3.1,0.2
			c5.5,0.3,8.7,0.5,8.7,4.7c0,3.6-3.2,5.7-8.7,5.7c-5.7,0-7.9-1.4-7.9-3.9c0-1.4,0.6-2.2,1.7-3.2c-0.9-0.3-1.4-1.2-1.4-2.1
			c0-0.7,0.4-1.4,0.9-1.9c0.6-0.6,1.2-1.2,2-1.9c-1.8-0.9-2.8-2.8-2.7-4.7c0-3.6,2.4-6.1,7.2-6.1c1,0,2,0.1,2.9,0.3h6.1v2.7
			L96.7,167.3z M87.4,181.6c-0.5,0.4-0.7,1-0.8,1.7c0,1.3,1.6,1.6,3.8,1.6c1.8,0,4.3-0.1,4.3-1.8c0-1-1.2-1.1-2.7-1.2L87.4,181.6z
			 M90.8,167.2c-1.7,0-3,0.9-3,2.9c0,1.5,0.9,2.6,2.9,2.6c1.5,0.2,2.8-0.9,2.9-2.4c0-0.1,0-0.2,0-0.3c0.1-1.4-0.9-2.7-2.3-2.8
			C91.2,167.1,91,167.1,90.8,167.2L90.8,167.2z"/>
		<path class="st1" d="M101.1,180.5V178l1.6-0.2c0.4-0.1,0.5-0.2,0.5-0.6v-9.3c0-0.3-0.1-0.6-0.4-0.7l-1.7-0.6l0.3-2.6h6.5v13.1
			c0,0.5,0,0.6,0.5,0.6l1.6,0.2v2.5H101.1z M105.1,161.5c-1.4,0.1-2.7-0.9-2.8-2.3c0-0.2,0-0.4,0-0.5c0.1-1.6,1.4-2.8,2.9-2.8
			c1.5,0,2.7,1.3,2.8,2.8c0.1,1.4-0.9,2.7-2.3,2.8C105.5,161.6,105.3,161.6,105.1,161.5z"/>
		<path class="st1" d="M122.5,179.3c-1.6,0.8-3.4,1.2-5.1,1.3c-3.8,0-5.2-1.5-5.2-5.1v-8.3c0-0.2,0-0.3-0.3-0.3h-2.2v-2.8
			c2.8-0.3,3.9-1.7,4.2-5.1h3v4.5c0,0.2,0,0.3,0.3,0.3h4.4v3.2H117v7.5c0,1.9,0.4,2.6,2.1,2.6c0.9,0,1.7-0.2,2.6-0.5L122.5,179.3z"
			/>
		<path class="st1" d="M75.8,171l-14.4-14.4c-0.8-0.8-2.2-0.8-3,0l-3,3l3.8,3.8c1.3-0.5,2.8,0.3,3.2,1.6c0.2,0.5,0.2,1.1,0,1.6
			l3.7,3.7c1.3-0.5,2.8,0.2,3.2,1.6s-0.2,2.8-1.6,3.2c-1.3,0.5-2.8-0.2-3.2-1.6c-0.2-0.6-0.2-1.2,0.1-1.8l-3.4-3.4v9
			c1.2,0.6,1.8,2.1,1.1,3.4s-2.1,1.8-3.4,1.1c-1.2-0.6-1.8-2.1-1.1-3.4c0.3-0.5,0.7-1,1.3-1.2v-9.1c-0.3-0.1-0.6-0.3-0.8-0.6
			c-0.7-0.7-0.9-1.8-0.5-2.8l-3.7-3.7l-9.9,9.9c-0.8,0.8-0.8,2.2,0,3c0,0,0,0,0,0l14.4,14.4c0.8,0.8,2.2,0.8,3,0c0,0,0,0,0,0
			L75.8,174C76.7,173.2,76.7,171.8,75.8,171C75.8,171,75.8,171,75.8,171z"/>
		<path class="st3" d="M420.6,395c53.2,0,13.4-111.3,72-111.3"/>
		<line class="st3" x1="492.9" y1="283.7" x2="420.6" y2="283.7"/>
		<polygon class="st1" points="484.3,273.1 482.5,275 491.9,283.7 482.5,292.5 484.3,294.4 495.7,283.7 		"/>
		<line class="st3" x1="492.9" y1="172.4" x2="388.8" y2="172.4"/>
		<polygon class="st1" points="484.3,161.8 482.5,163.7 491.9,172.4 482.5,181.2 484.3,183.1 495.7,172.4 		"/>
		<path class="st3" d="M245.9,283.7c-94.4,0-70.6-111.3-109.1-111.3"/>
		<polygon class="st1" points="237.3,273.1 235.5,275 244.9,283.7 235.5,292.5 237.3,294.4 248.7,283.7 		"/>
		<path class="st3" d="M245.9,395c-94.4,0-59.3-222.6-109.1-222.6"/>
		<polygon class="st1" points="237.3,384.4 235.5,386.3 244.9,395 235.5,403.8 237.3,405.7 248.7,395 		"/>
		<path class="st3" d="M668,283.7c53.2,0,18.7-111.3,77.2-111.3"/>
		<line class="st3" x1="745.2" y1="172.4" x2="668" y2="172.4"/>
		<polygon class="st1" points="736.6,161.8 734.8,163.7 744.2,172.4 734.8,181.2 736.6,183.1 748,172.4 		"/>
		<g id="_Group_">
			<g id="RECTANGLE_STAGE">
				<path class="st4" d="M258.6,244.9h152.6c5.7,0,10.4,4.6,10.4,10.4v56.9c0,5.7-4.6,10.4-10.4,10.4H258.6
					c-5.7,0-10.4-4.6-10.4-10.4v-56.9C248.3,249.6,252.9,244.9,258.6,244.9z"/>
				<path class="st1" d="M411.2,245.9c5.2,0,9.4,4.2,9.4,9.4c0,0,0,0,0,0v56.9c0,5.2-4.2,9.4-9.4,9.4h0H258.6
					c-5.2,0-9.4-4.2-9.4-9.4l0,0v-56.9c0-5.2,4.2-9.4,9.4-9.4L411.2,245.9 M411.2,243.9H258.6c-6.3,0-11.4,5.1-11.4,11.4v56.9
					c0,6.3,5.1,11.4,11.4,11.4h152.6c6.3,0,11.4-5.1,11.4-11.4v-56.9C422.6,249,417.5,243.9,411.2,243.9z"/>
				<line class="st5" x1="258.9" y1="277.5" x2="258.9" y2="277.5"/>
				<line class="st6" x1="264.8" y1="277.5" x2="410" y2="277.5"/>
				<line class="st5" x1="413" y1="277.5" x2="413" y2="277.5"/>
				<path class="st7" d="M259.5,291.1h150.8c0.6,0,1,0.4,1,1v15.4c0,0.6-0.4,1-1,1H259.5c-0.6,0-1-0.4-1-1v-15.4
					C258.5,291.6,259,291.1,259.5,291.1z"/>
				<polygon class="st1" points="265.6,261.4 261.6,261.4 261.6,258.3 260.6,258.3 260.6,255.7 259.2,255.7 259.2,258.3 
					258.2,258.3 258.2,261.4 258.2,264.8 258.2,267.8 259.2,267.8 259.2,270.5 260.6,270.5 260.6,267.8 261.6,267.8 261.6,264.8 
					265.6,264.8 				"/>
			</g>
		</g>
		<g class="st9">
			<path class="st1" d="M275.3,267.2H273v-10.3h2.5c1,0,1.7,0.1,2.3,0.5c1,0.6,1.6,1.7,1.6,2.9c0,1.2-0.6,2.3-1.6,2.9
				c-0.6,0.3-1.2,0.5-2.3,0.5h-0.2V267.2z M275.7,261.6c1,0,1.5-0.4,1.5-1.3c0-0.9-0.4-1.3-1.5-1.3h-0.4v2.5H275.7z"/>
		</g>
		<g class="st9">
			<path class="st1" d="M282.6,258c0,0.7-0.6,1.3-1.3,1.3c-0.7,0-1.3-0.6-1.3-1.3c0-0.7,0.6-1.2,1.3-1.2
				C282,256.8,282.6,257.3,282.6,258z M282.4,267.2h-2.2v-6.8h2.2V267.2z"/>
			<path class="st1" d="M286,260.4v0.3c0.6-0.4,1.1-0.6,1.7-0.6c1.9,0,3.5,1.7,3.5,3.7c0,2-1.5,3.7-3.5,3.7c-0.6,0-1.1-0.2-1.7-0.6
				v3.9h-2.2v-10.4H286z M286,263.8c0,1,0.6,1.7,1.5,1.7c0.9,0,1.5-0.7,1.5-1.7c0-1-0.6-1.7-1.5-1.7
				C286.6,262.1,286,262.8,286,263.8z"/>
		</g>
		<g class="st9">
			<path class="st1" d="M298.6,265.6c-0.8,1.2-1.9,1.9-3.2,1.9c-2.1,0-3.6-1.6-3.6-3.7c0-2.1,1.6-3.7,3.5-3.7c2,0,3.5,1.6,3.5,3.8
				c0,0.2,0,0.3,0,0.6H294c0.2,0.7,0.6,1,1.3,1c0.6,0,1-0.2,1.3-0.7L298.6,265.6z M296.6,263.1c-0.2-0.7-0.6-1-1.3-1
				c-0.7,0-1.1,0.3-1.3,1H296.6z"/>
		</g>
		<g class="st9">
			<path class="st1" d="M299.8,267.2v-10.3h2.2v10.3H299.8z"/>
			<path class="st1" d="M305.9,258c0,0.7-0.6,1.3-1.3,1.3c-0.7,0-1.3-0.6-1.3-1.3c0-0.7,0.6-1.2,1.3-1.2
				C305.3,256.8,305.9,257.3,305.9,258z M305.7,267.2h-2.2v-6.8h2.2V267.2z"/>
			<path class="st1" d="M309.3,260.7c0.5-0.4,0.9-0.5,1.5-0.5c0.9,0,1.8,0.5,2.3,1.3c0.3,0.5,0.4,1.2,0.4,2.1v3.7h-2.2v-3.6
				c0-1.2-0.2-1.5-0.9-1.5c-0.4,0-0.8,0.2-0.9,0.4c-0.1,0.2-0.2,0.6-0.2,1.2v3.5h-2.2v-6.8h2.2V260.7z"/>
			<path class="st1" d="M321.5,265.6c-0.8,1.2-1.9,1.9-3.2,1.9c-2.1,0-3.6-1.6-3.6-3.7c0-2.1,1.6-3.7,3.5-3.7c2,0,3.5,1.6,3.5,3.8
				c0,0.2,0,0.3,0,0.6h-4.8c0.2,0.7,0.6,1,1.3,1c0.6,0,1-0.2,1.3-0.7L321.5,265.6z M319.5,263.1c-0.2-0.7-0.6-1-1.3-1
				c-0.7,0-1.1,0.3-1.3,1H319.5z"/>
			<path class="st1" d="M336.7,262.1c0,3-2.5,5.4-5.5,5.4c-3,0-5.4-2.5-5.4-5.5c0-2.9,2.5-5.3,5.5-5.3
				C334.2,256.7,336.7,259.1,336.7,262.1z M328,262.1c0,1.7,1.5,3.2,3.2,3.2c1.8,0,3.2-1.5,3.2-3.3c0-1.8-1.4-3.3-3.2-3.3
				C329.4,258.8,328,260.3,328,262.1z"/>
			<path class="st1" d="M340,260.7c0.5-0.4,0.9-0.5,1.5-0.5c0.9,0,1.8,0.5,2.3,1.3c0.3,0.5,0.4,1.2,0.4,2.1v3.7H342v-3.6
				c0-1.2-0.2-1.5-0.9-1.5c-0.4,0-0.8,0.2-0.9,0.4c-0.1,0.2-0.2,0.6-0.2,1.2v3.5h-2.2v-6.8h2.2V260.7z"/>
		</g>
		<g class="st9">
			<path class="st1" d="M352.1,265.6c-0.8,1.2-1.9,1.9-3.2,1.9c-2.1,0-3.6-1.6-3.6-3.7c0-2.1,1.6-3.7,3.5-3.7c2,0,3.5,1.6,3.5,3.8
				c0,0.2,0,0.3,0,0.6h-4.8c0.2,0.7,0.6,1,1.3,1c0.6,0,1-0.2,1.3-0.7L352.1,265.6z M350.1,263.1c-0.2-0.7-0.6-1-1.3-1
				c-0.7,0-1.1,0.3-1.3,1H350.1z"/>
		</g>
		<g class="st9">
			<path class="st1" d="M356.4,261.8c0,0.7-0.6,1.3-1.3,1.3c-0.7,0-1.3-0.6-1.3-1.3c0-0.7,0.6-1.2,1.3-1.2
				C355.9,260.6,356.4,261.1,356.4,261.8z M356.4,266.2c0,0.7-0.6,1.3-1.3,1.3c-0.7,0-1.3-0.6-1.3-1.3c0-0.7,0.6-1.2,1.3-1.2
				C355.9,264.9,356.4,265.5,356.4,266.2z"/>
			<path class="st1" d="M361.5,256.9h2.5c1,0,1.8,0.2,2.4,0.5c0.9,0.5,1.5,1.5,1.5,2.4c0,0.7-0.2,1.3-0.8,1.8
				c0.9,0.6,1.3,1.4,1.3,2.4c0,1.1-0.6,2.1-1.6,2.6c-0.6,0.3-1.2,0.5-2.2,0.5h-3V256.9z M364.3,261.1c0.6,0,0.8,0,1-0.2
				c0.3-0.2,0.5-0.5,0.5-0.9c0-0.8-0.4-1-1.5-1h-0.5v2.1H364.3z M364.5,265.2c0.6,0,0.9,0,1.1-0.2c0.4-0.2,0.6-0.6,0.6-1
				c0-0.4-0.2-0.8-0.5-0.9c-0.3-0.2-0.6-0.2-1.3-0.2h-0.6v2.3H364.5z"/>
			<path class="st1" d="M373.8,267c-0.5,0.4-0.9,0.5-1.5,0.5c-0.9,0-1.8-0.5-2.3-1.3c-0.3-0.5-0.4-1.2-0.4-2.1v-3.7h2.2v3.6
				c0,1.2,0.2,1.5,1,1.5c0.4,0,0.8-0.2,0.9-0.4c0.1-0.2,0.2-0.6,0.2-1.2v-3.5h2.2v6.8h-2.2V267z"/>
			<path class="st1" d="M379.8,258c0,0.7-0.6,1.3-1.3,1.3c-0.7,0-1.3-0.6-1.3-1.3c0-0.7,0.6-1.2,1.3-1.2
				C379.2,256.8,379.8,257.3,379.8,258z M379.6,267.2h-2.2v-6.8h2.2V267.2z"/>
			<path class="st1" d="M381.1,267.2v-10.3h2.2v10.3H381.1z"/>
			<path class="st1" d="M389.5,267.2v-0.3c-0.6,0.4-1.1,0.6-1.7,0.6c-1.9,0-3.5-1.7-3.5-3.7c0-2,1.5-3.7,3.5-3.7
				c0.6,0,1.1,0.2,1.7,0.6v-3.8h2.2v10.3H389.5z M386.5,263.8c0,1,0.6,1.7,1.5,1.7c0.9,0,1.5-0.7,1.5-1.7c0-1-0.6-1.7-1.5-1.7
				C387.1,262.1,386.5,262.8,386.5,263.8z"/>
		</g>
		<g id="_Group_2">
			<g id="RECTANGLE_STAGE-2">
				<path class="st4" d="M258.6,356.2h152.6c5.7,0,10.4,4.6,10.4,10.4v56.9c0,5.7-4.6,10.4-10.4,10.4H258.6
					c-5.7,0-10.4-4.6-10.4-10.4v-56.9C248.3,360.9,252.9,356.2,258.6,356.2z"/>
				<path class="st1" d="M411.2,357.2c5.2,0,9.4,4.2,9.4,9.4v0v56.9c0,5.2-4.2,9.4-9.4,9.4h0H258.6c-5.2,0-9.4-4.2-9.4-9.4l0,0
					v-56.9c0-5.2,4.2-9.4,9.4-9.4l0,0L411.2,357.2 M411.2,355.2H258.6c-6.3,0-11.4,5.1-11.4,11.4v56.9c0,6.3,5.1,11.4,11.4,11.4
					h152.6c6.3,0,11.4-5.1,11.4-11.4v-56.9C422.6,360.3,417.5,355.2,411.2,355.2z"/>
				<line class="st5" x1="258.9" y1="388.8" x2="258.9" y2="388.8"/>
				<line class="st6" x1="264.8" y1="388.8" x2="410" y2="388.8"/>
				<line class="st5" x1="413" y1="388.8" x2="413" y2="388.8"/>
				<path class="st7" d="M259.5,402.4h150.8c0.6,0,1,0.4,1,1v15.4c0,0.6-0.4,1-1,1H259.5c-0.6,0-1-0.4-1-1v-15.4
					C258.5,402.9,259,402.4,259.5,402.4z"/>
				<polygon class="st1" points="265.6,372.7 261.6,372.7 261.6,369.6 260.6,369.6 260.6,367 259.2,367 259.2,369.6 258.2,369.6 
					258.2,372.7 258.2,376.1 258.2,379.1 259.2,379.1 259.2,381.8 260.6,381.8 260.6,379.1 261.6,379.1 261.6,376.1 265.6,376.1 
									"/>
			</g>
		</g>
		<g class="st9">
			<path class="st1" d="M275.3,378.5H273v-10.3h2.5c1,0,1.7,0.1,2.3,0.5c1,0.6,1.6,1.7,1.6,2.9c0,1.2-0.6,2.3-1.6,2.9
				c-0.6,0.3-1.2,0.5-2.3,0.5h-0.2V378.5z M275.7,372.9c1,0,1.5-0.4,1.5-1.3c0-0.9-0.4-1.3-1.5-1.3h-0.4v2.5H275.7z"/>
		</g>
		<g class="st9">
			<path class="st1" d="M282.6,369.3c0,0.7-0.6,1.3-1.3,1.3c-0.7,0-1.3-0.6-1.3-1.3c0-0.7,0.6-1.2,1.3-1.2
				C282,368.1,282.6,368.6,282.6,369.3z M282.4,378.5h-2.2v-6.8h2.2V378.5z"/>
			<path class="st1" d="M286,371.7v0.3c0.6-0.4,1.1-0.6,1.7-0.6c1.9,0,3.5,1.7,3.5,3.7s-1.5,3.7-3.5,3.7c-0.6,0-1.1-0.2-1.7-0.6v3.9
				h-2.2v-10.4H286z M286,375.1c0,1,0.6,1.7,1.5,1.7c0.9,0,1.5-0.7,1.5-1.7c0-1-0.6-1.7-1.5-1.7C286.6,373.4,286,374.1,286,375.1z"
				/>
		</g>
		<g class="st9">
			<path class="st1" d="M298.6,376.9c-0.8,1.2-1.9,1.9-3.2,1.9c-2.1,0-3.6-1.6-3.6-3.7c0-2.1,1.6-3.7,3.5-3.7c2,0,3.5,1.6,3.5,3.8
				c0,0.2,0,0.3,0,0.6H294c0.2,0.7,0.6,1,1.3,1c0.6,0,1-0.2,1.3-0.7L298.6,376.9z M296.6,374.4c-0.2-0.7-0.6-1-1.3-1
				c-0.7,0-1.1,0.3-1.3,1H296.6z"/>
		</g>
		<g class="st9">
			<path class="st1" d="M299.8,378.5v-10.3h2.2v10.3H299.8z"/>
			<path class="st1" d="M305.9,369.3c0,0.7-0.6,1.3-1.3,1.3c-0.7,0-1.3-0.6-1.3-1.3c0-0.7,0.6-1.2,1.3-1.2
				C305.3,368.1,305.9,368.6,305.9,369.3z M305.7,378.5h-2.2v-6.8h2.2V378.5z"/>
			<path class="st1" d="M309.3,372c0.5-0.4,0.9-0.5,1.5-0.5c0.9,0,1.8,0.5,2.3,1.3c0.3,0.5,0.4,1.2,0.4,2.1v3.7h-2.2v-3.6
				c0-1.2-0.2-1.5-0.9-1.5c-0.4,0-0.8,0.2-0.9,0.4c-0.1,0.2-0.2,0.6-0.2,1.2v3.5h-2.2v-6.8h2.2V372z"/>
			<path class="st1" d="M321.5,376.9c-0.8,1.2-1.9,1.9-3.2,1.9c-2.1,0-3.6-1.6-3.6-3.7c0-2.1,1.6-3.7,3.5-3.7c2,0,3.5,1.6,3.5,3.8
				c0,0.2,0,0.3,0,0.6h-4.8c0.2,0.7,0.6,1,1.3,1c0.6,0,1-0.2,1.3-0.7L321.5,376.9z M319.5,374.4c-0.2-0.7-0.6-1-1.3-1
				c-0.7,0-1.1,0.3-1.3,1H319.5z"/>
		</g>
		<g class="st9">
			<path class="st1" d="M332.3,370.4h-2.4v8.2h-2.3v-8.2h-2.4v-2.1h7.1V370.4z"/>
		</g>
		<g class="st9">
			<path class="st1" d="M333.5,371.7l1.1,3.3l1.1-3.3h1.6l1.1,3.3l1.1-3.3h2.3l-2.5,6.8h-1.8l-1.1-3.2l-1.1,3.2h-1.8l-2.5-6.8H333.5
				z"/>
		</g>
		<g class="st9">
			<path class="st1" d="M349.1,375.1c0,2.1-1.6,3.7-3.7,3.7c-2.1,0-3.7-1.6-3.7-3.7c0-2.1,1.6-3.7,3.8-3.7
				C347.5,371.4,349.1,373.1,349.1,375.1z M343.9,375.1c0,1,0.6,1.7,1.5,1.7s1.5-0.7,1.5-1.7c0-1-0.6-1.7-1.5-1.7
				C344.5,373.4,343.9,374.1,343.9,375.1z"/>
		</g>
		<g class="st9">
			<path class="st1" d="M353.3,373.1c0,0.7-0.6,1.3-1.3,1.3c-0.7,0-1.3-0.6-1.3-1.3c0-0.7,0.6-1.2,1.3-1.2
				C352.7,371.9,353.3,372.4,353.3,373.1z M353.3,377.5c0,0.7-0.6,1.3-1.3,1.3c-0.7,0-1.3-0.6-1.3-1.3c0-0.7,0.6-1.2,1.3-1.2
				C352.7,376.2,353.3,376.8,353.3,377.5z"/>
			<path class="st1" d="M358.4,368.2h2.5c1,0,1.8,0.2,2.4,0.5c0.9,0.5,1.5,1.5,1.5,2.4c0,0.7-0.2,1.3-0.8,1.8
				c0.9,0.6,1.3,1.5,1.3,2.4c0,1.1-0.6,2.1-1.6,2.6c-0.6,0.3-1.2,0.5-2.2,0.5h-3V368.2z M361.1,372.4c0.6,0,0.8,0,1-0.2
				c0.3-0.2,0.5-0.5,0.5-0.9c0-0.8-0.4-1-1.5-1h-0.5v2.1H361.1z M361.3,376.5c0.6,0,0.9,0,1.1-0.2c0.4-0.2,0.6-0.6,0.6-1
				c0-0.4-0.2-0.8-0.5-0.9c-0.3-0.2-0.6-0.2-1.3-0.2h-0.6v2.3H361.3z"/>
			<path class="st1" d="M370.6,378.3c-0.5,0.4-0.9,0.5-1.5,0.5c-0.9,0-1.8-0.5-2.3-1.3c-0.3-0.5-0.4-1.2-0.4-2.1v-3.7h2.2v3.6
				c0,1.2,0.2,1.5,1,1.5c0.4,0,0.8-0.2,0.9-0.4c0.1-0.2,0.2-0.6,0.2-1.2v-3.5h2.2v6.8h-2.2V378.3z"/>
			<path class="st1" d="M376.7,369.3c0,0.7-0.6,1.3-1.3,1.3c-0.7,0-1.3-0.6-1.3-1.3c0-0.7,0.6-1.2,1.3-1.2
				C376.1,368.1,376.7,368.6,376.7,369.3z M376.5,378.5h-2.2v-6.8h2.2V378.5z"/>
			<path class="st1" d="M378,378.5v-10.3h2.2v10.3H378z"/>
			<path class="st1" d="M386.4,378.5v-0.3c-0.6,0.4-1.1,0.6-1.7,0.6c-1.9,0-3.5-1.7-3.5-3.7s1.5-3.7,3.5-3.7c0.6,0,1.1,0.2,1.7,0.6
				v-3.8h2.2v10.3H386.4z M383.4,375.1c0,1,0.6,1.7,1.5,1.7c0.9,0,1.5-0.7,1.5-1.7c0-1-0.6-1.7-1.5-1.7
				C384,373.4,383.4,374.1,383.4,375.1z"/>
		</g>
		<g id="_Group_3">
			<g id="RECTANGLE_STAGE-3">
				<path class="st4" d="M506,244.9h152.6c5.7,0,10.4,4.6,10.4,10.4v56.9c0,5.7-4.6,10.4-10.4,10.4H506c-5.7,0-10.4-4.6-10.4-10.4
					v-56.9C495.6,249.6,500.3,244.9,506,244.9z"/>
				<path class="st1" d="M658.6,245.9c5.2,0,9.4,4.2,9.4,9.4v56.9c0,5.2-4.2,9.4-9.4,9.4H506c-5.2,0-9.4-4.2-9.4-9.4v0v-56.9
					c0-5.2,4.2-9.4,9.4-9.4H658.6 M658.6,243.9H506c-6.3,0-11.4,5.1-11.4,11.4v56.9c0,6.3,5.1,11.4,11.4,11.4h152.6
					c6.3,0,11.4-5.1,11.4-11.4v-56.9C670,249,664.9,243.9,658.6,243.9L658.6,243.9z"/>
				<line class="st5" x1="506.3" y1="277.5" x2="506.3" y2="277.5"/>
				<line class="st6" x1="512.2" y1="277.5" x2="657.4" y2="277.5"/>
				<line class="st5" x1="660.3" y1="277.5" x2="660.3" y2="277.5"/>
				<path class="st7" d="M506.9,291.1h150.8c0.6,0,1,0.4,1,1v15.4c0,0.6-0.4,1-1,1H506.9c-0.6,0-1-0.4-1-1v-15.4
					C505.9,291.6,506.3,291.1,506.9,291.1z"/>
				<polygon class="st1" points="513,261.4 509,261.4 509,258.3 508,258.3 508,255.7 506.6,255.7 506.6,258.3 505.6,258.3 
					505.6,261.4 505.6,264.8 505.6,267.8 506.6,267.8 506.6,270.5 508,270.5 508,267.8 509,267.8 509,264.8 513,264.8 				"/>
			</g>
		</g>
		<g class="st9">
			<path class="st1" d="M522.4,267.2h-2.3v-10.3h2.5c1,0,1.7,0.1,2.3,0.5c1,0.6,1.6,1.7,1.6,2.9c0,1.2-0.6,2.3-1.6,2.9
				c-0.6,0.3-1.2,0.5-2.3,0.5h-0.2V267.2z M522.8,261.6c1,0,1.5-0.4,1.5-1.3c0-0.9-0.4-1.3-1.5-1.3h-0.4v2.5H522.8z"/>
		</g>
		<g class="st9">
			<path class="st1" d="M529.7,258c0,0.7-0.6,1.3-1.3,1.3c-0.7,0-1.3-0.6-1.3-1.3c0-0.7,0.6-1.2,1.3-1.2
				C529.1,256.8,529.7,257.3,529.7,258z M529.5,267.2h-2.2v-6.8h2.2V267.2z"/>
			<path class="st1" d="M533.1,260.4v0.3c0.6-0.4,1.1-0.6,1.7-0.6c1.9,0,3.5,1.7,3.5,3.7c0,2-1.5,3.7-3.5,3.7
				c-0.6,0-1.1-0.2-1.7-0.6v3.9h-2.2v-10.4H533.1z M533.1,263.8c0,1,0.6,1.7,1.5,1.7s1.5-0.7,1.5-1.7c0-1-0.6-1.7-1.5-1.7
				S533.1,262.8,533.1,263.8z"/>
		</g>
		<g class="st9">
			<path class="st1" d="M545.7,265.6c-0.8,1.2-1.9,1.9-3.2,1.9c-2.1,0-3.6-1.6-3.6-3.7c0-2.1,1.6-3.7,3.5-3.7c2,0,3.5,1.6,3.5,3.8
				c0,0.2,0,0.3,0,0.6h-4.8c0.2,0.7,0.6,1,1.3,1c0.6,0,1-0.2,1.3-0.7L545.7,265.6z M543.7,263.1c-0.2-0.7-0.6-1-1.3-1
				c-0.7,0-1.1,0.3-1.3,1H543.7z"/>
		</g>
		<g class="st9">
			<path class="st1" d="M546.9,267.2v-10.3h2.2v10.3H546.9z"/>
			<path class="st1" d="M553,258c0,0.7-0.6,1.3-1.3,1.3c-0.7,0-1.3-0.6-1.3-1.3c0-0.7,0.6-1.2,1.3-1.2
				C552.4,256.8,553,257.3,553,258z M552.8,267.2h-2.2v-6.8h2.2V267.2z"/>
			<path class="st1" d="M556.4,260.7c0.5-0.4,0.9-0.5,1.5-0.5c0.9,0,1.8,0.5,2.3,1.3c0.3,0.5,0.4,1.2,0.4,2.1v3.7h-2.2v-3.6
				c0-1.2-0.2-1.5-0.9-1.5c-0.4,0-0.8,0.2-0.9,0.4c-0.1,0.2-0.2,0.6-0.2,1.2v3.5h-2.2v-6.8h2.2V260.7z"/>
			<path class="st1" d="M568.6,265.6c-0.8,1.2-1.9,1.9-3.2,1.9c-2.1,0-3.6-1.6-3.6-3.7c0-2.1,1.6-3.7,3.5-3.7c2,0,3.5,1.6,3.5,3.8
				c0,0.2,0,0.3,0,0.6H564c0.2,0.7,0.6,1,1.3,1c0.6,0,1-0.2,1.3-0.7L568.6,265.6z M566.6,263.1c-0.2-0.7-0.6-1-1.3-1
				c-0.7,0-1.1,0.3-1.3,1H566.6z"/>
		</g>
		<g class="st9">
			<path class="st1" d="M579.1,259h-3.4v1.9h3.1v2.1h-3.1v4.1h-2.3v-10.3h5.7V259z"/>
		</g>
		<g class="st9">
			<path class="st1" d="M587,263.8c0,2.1-1.6,3.7-3.7,3.7c-2.1,0-3.7-1.6-3.7-3.7c0-2.1,1.6-3.7,3.8-3.7
				C585.4,260.1,587,261.8,587,263.8z M581.8,263.8c0,1,0.6,1.7,1.5,1.7s1.5-0.7,1.5-1.7c0-1-0.6-1.7-1.5-1.7
				C582.4,262.1,581.8,262.8,581.8,263.8z"/>
			<path class="st1" d="M592.3,267c-0.5,0.4-0.9,0.5-1.5,0.5c-0.9,0-1.8-0.5-2.3-1.3c-0.3-0.5-0.4-1.2-0.4-2.1v-3.7h2.2v3.6
				c0,1.2,0.2,1.5,1,1.5c0.4,0,0.8-0.2,0.9-0.4c0.1-0.2,0.2-0.6,0.2-1.2v-3.5h2.2v6.8h-2.2V267z"/>
		</g>
		<g class="st9">
			<path class="st1" d="M598.1,260.7c0.4-0.3,0.7-0.4,1.2-0.4c0.2,0,0.4,0,0.7,0.1v1.9c-0.3,0-0.5,0-0.7,0c-0.9,0-1.2,0.4-1.2,1.6
				v3.3h-2.2v-6.8h2.2V260.7z"/>
		</g>
		<g class="st9">
			<path class="st1" d="M603.8,261.8c0,0.7-0.6,1.3-1.3,1.3c-0.7,0-1.3-0.6-1.3-1.3c0-0.7,0.6-1.2,1.3-1.2
				C603.2,260.6,603.8,261.1,603.8,261.8z M603.8,266.2c0,0.7-0.6,1.3-1.3,1.3c-0.7,0-1.3-0.6-1.3-1.3c0-0.7,0.6-1.2,1.3-1.2
				C603.2,264.9,603.8,265.5,603.8,266.2z"/>
		</g>
		<g class="st9">
			<path class="st1" d="M614.9,259.1h-2.4v8.2h-2.3v-8.2h-2.4v-2.1h7.1V259.1z"/>
		</g>
		<g class="st9">
			<path class="st1" d="M621.3,265.6c-0.8,1.2-1.9,1.9-3.2,1.9c-2.1,0-3.6-1.6-3.6-3.7c0-2.1,1.6-3.7,3.5-3.7c2,0,3.5,1.6,3.5,3.8
				c0,0.2,0,0.3,0,0.6h-4.8c0.2,0.7,0.6,1,1.3,1c0.6,0,1-0.2,1.3-0.7L621.3,265.6z M619.3,263.1c-0.2-0.7-0.6-1-1.3-1
				c-0.7,0-1.1,0.3-1.3,1H619.3z"/>
		</g>
		<g class="st9">
			<path class="st1" d="M623.8,264.8c0.3,0.6,0.6,0.8,1,0.8c0.3,0,0.5-0.2,0.5-0.4c0-0.2-0.1-0.3-0.5-0.5l-1.1-0.5
				c-0.8-0.3-1.3-1-1.3-1.8c0-1.3,1.1-2.3,2.6-2.3c1.1,0,1.9,0.5,2.5,1.6l-1.8,0.8c-0.2-0.3-0.5-0.5-0.8-0.5c-0.3,0-0.5,0.1-0.5,0.3
				c0,0.2,0.1,0.2,0.5,0.4l1,0.4c1.1,0.4,1.6,1,1.6,1.9c0,1.4-1.2,2.5-2.7,2.5c-1.4,0-2.3-0.7-2.9-2.1L623.8,264.8z"/>
		</g>
		<g class="st9">
			<path class="st1" d="M630.8,264.9c0,0.4,0.1,0.5,0.3,0.5c0.2,0,0.4,0,0.8-0.2v2c-0.5,0.2-0.8,0.2-1.2,0.2c-1.3,0-2.1-0.9-2.1-2.4
				v-2.6h-0.7v-2h0.7V259l2.2-0.8v2.2h1v2h-1V264.9z"/>
		</g>
		<g id="_Group_4">
			<g id="RECTANGLE_STAGE-4">
				<path class="st4" d="M506,133.6h152.6c5.7,0,10.4,4.6,10.4,10.4v56.9c0,5.7-4.6,10.4-10.4,10.4H506c-5.7,0-10.4-4.6-10.4-10.4
					V144C495.6,138.3,500.3,133.6,506,133.6z"/>
				<path class="st1" d="M658.6,134.6c5.2,0,9.4,4.2,9.4,9.4v56.9c0,5.2-4.2,9.4-9.4,9.4H506c-5.2,0-9.4-4.2-9.4-9.4c0,0,0,0,0,0
					V144c0-5.2,4.2-9.4,9.4-9.4h0H658.6 M658.6,132.6H506c-6.3,0-11.4,5.1-11.4,11.4v56.9c0,6.3,5.1,11.4,11.4,11.4h152.6
					c6.3,0,11.4-5.1,11.4-11.4V144C670,137.7,664.9,132.6,658.6,132.6L658.6,132.6z"/>
				<line class="st5" x1="506.3" y1="166.2" x2="506.3" y2="166.2"/>
				<line class="st6" x1="512.2" y1="166.2" x2="657.4" y2="166.2"/>
				<line class="st5" x1="660.3" y1="166.2" x2="660.3" y2="166.2"/>
				<path class="st7" d="M506.9,179.8h150.8c0.6,0,1,0.4,1,1v15.4c0,0.6-0.4,1-1,1H506.9c-0.6,0-1-0.4-1-1v-15.4
					C505.9,180.3,506.3,179.8,506.9,179.8z"/>
				<polygon class="st1" points="513,150.1 509,150.1 509,147 508,147 508,144.4 506.6,144.4 506.6,147 505.6,147 505.6,150.1 
					505.6,153.5 505.6,156.5 506.6,156.5 506.6,159.2 508,159.2 508,156.5 509,156.5 509,153.5 513,153.5 				"/>
			</g>
		</g>
		<g id="_Group_5">
			<g id="RECTANGLE_STAGE-5">
				<path class="st4" d="M757.8,133.6h152.6c5.7,0,10.4,4.6,10.4,10.4v56.9c0,5.7-4.6,10.4-10.4,10.4H757.8
					c-5.7,0-10.4-4.6-10.4-10.4V144C747.4,138.3,752.1,133.6,757.8,133.6z"/>
				<path class="st1" d="M910.4,134.6c5.2,0,9.4,4.2,9.4,9.4v56.9c0,5.2-4.2,9.4-9.4,9.4H757.8c-5.2,0-9.4-4.2-9.4-9.4V144
					c0-5.2,4.2-9.4,9.4-9.4L910.4,134.6 M910.4,132.6H757.8c-6.3,0-11.4,5.1-11.4,11.4v56.9c0,6.3,5.1,11.4,11.4,11.4h152.6
					c6.3,0,11.4-5.1,11.4-11.4V144C921.8,137.7,916.7,132.6,910.4,132.6L910.4,132.6z"/>
				<line class="st5" x1="758.1" y1="166.2" x2="758.1" y2="166.2"/>
				<line class="st6" x1="764" y1="166.2" x2="909.2" y2="166.2"/>
				<line class="st5" x1="912.1" y1="166.2" x2="912.1" y2="166.2"/>
				<path class="st7" d="M758.7,179.8h150.8c0.6,0,1,0.4,1,1v15.4c0,0.6-0.4,1-1,1H758.7c-0.6,0-1-0.4-1-1v-15.4
					C757.7,180.3,758.1,179.8,758.7,179.8z"/>
				<polygon class="st1" points="764.8,150.1 760.8,150.1 760.8,147 759.8,147 759.8,144.4 758.4,144.4 758.4,147 757.4,147 
					757.4,150.1 757.4,153.5 757.4,156.5 758.4,156.5 758.4,159.2 759.8,159.2 759.8,156.5 760.8,156.5 760.8,153.5 764.8,153.5 
									"/>
			</g>
		</g>
		<g class="st9">
			<path class="st1" d="M522.4,155.9h-2.3v-10.3h2.5c1,0,1.7,0.1,2.3,0.5c1,0.6,1.6,1.7,1.6,2.9c0,1.2-0.6,2.3-1.6,2.9
				c-0.6,0.3-1.2,0.5-2.3,0.5h-0.2V155.9z M522.8,150.3c1,0,1.5-0.4,1.5-1.3c0-0.9-0.4-1.3-1.5-1.3h-0.4v2.5H522.8z"/>
		</g>
		<g class="st9">
			<path class="st1" d="M529.7,146.7c0,0.7-0.6,1.3-1.3,1.3c-0.7,0-1.3-0.6-1.3-1.3c0-0.7,0.6-1.2,1.3-1.2
				C529.1,145.5,529.7,146,529.7,146.7z M529.5,155.9h-2.2v-6.8h2.2V155.9z"/>
			<path class="st1" d="M533.1,149.1v0.3c0.6-0.4,1.1-0.6,1.7-0.6c1.9,0,3.5,1.7,3.5,3.7s-1.5,3.7-3.5,3.7c-0.6,0-1.1-0.2-1.7-0.6
				v3.9h-2.2v-10.4H533.1z M533.1,152.5c0,1,0.6,1.7,1.5,1.7s1.5-0.7,1.5-1.7c0-1-0.6-1.7-1.5-1.7S533.1,151.5,533.1,152.5z"/>
		</g>
		<g class="st9">
			<path class="st1" d="M545.7,154.3c-0.8,1.2-1.9,1.9-3.2,1.9c-2.1,0-3.6-1.6-3.6-3.7c0-2.1,1.6-3.7,3.5-3.7c2,0,3.5,1.6,3.5,3.8
				c0,0.2,0,0.3,0,0.6h-4.8c0.2,0.7,0.6,1,1.3,1c0.6,0,1-0.2,1.3-0.7L545.7,154.3z M543.7,151.8c-0.2-0.7-0.6-1-1.3-1
				c-0.7,0-1.1,0.3-1.3,1H543.7z"/>
		</g>
		<g class="st9">
			<path class="st1" d="M546.9,155.9v-10.3h2.2v10.3H546.9z"/>
			<path class="st1" d="M553,146.7c0,0.7-0.6,1.3-1.3,1.3c-0.7,0-1.3-0.6-1.3-1.3c0-0.7,0.6-1.2,1.3-1.2
				C552.4,145.5,553,146,553,146.7z M552.8,155.9h-2.2v-6.8h2.2V155.9z"/>
			<path class="st1" d="M556.4,149.4c0.5-0.4,0.9-0.5,1.5-0.5c0.9,0,1.8,0.5,2.3,1.3c0.3,0.5,0.4,1.2,0.4,2.1v3.7h-2.2v-3.6
				c0-1.2-0.2-1.5-0.9-1.5c-0.4,0-0.8,0.2-0.9,0.4c-0.1,0.2-0.2,0.6-0.2,1.2v3.5h-2.2v-6.8h2.2V149.4z"/>
			<path class="st1" d="M568.6,154.3c-0.8,1.2-1.9,1.9-3.2,1.9c-2.1,0-3.6-1.6-3.6-3.7c0-2.1,1.6-3.7,3.5-3.7c2,0,3.5,1.6,3.5,3.8
				c0,0.2,0,0.3,0,0.6H564c0.2,0.7,0.6,1,1.3,1c0.6,0,1-0.2,1.3-0.7L568.6,154.3z M566.6,151.8c-0.2-0.7-0.6-1-1.3-1
				c-0.7,0-1.1,0.3-1.3,1H566.6z"/>
		</g>
		<g class="st9">
			<path class="st1" d="M579.4,147.7H577v8.2h-2.3v-8.2h-2.4v-2.1h7.1V147.7z"/>
		</g>
		<g class="st9">
			<path class="st1" d="M582.2,149.4c0.5-0.4,0.9-0.5,1.5-0.5c0.9,0,1.8,0.5,2.3,1.3c0.3,0.5,0.4,1.2,0.4,2.1v3.7h-2.2v-3.6
				c0-1.2-0.2-1.5-0.9-1.5c-0.4,0-0.8,0.2-0.9,0.4c-0.1,0.2-0.2,0.6-0.2,1.2v3.5H580v-10.3h2.2V149.4z"/>
		</g>
		<g class="st9">
			<path class="st1" d="M590.1,149.4c0.4-0.3,0.7-0.4,1.2-0.4c0.2,0,0.4,0,0.7,0.1v1.9c-0.3,0-0.5,0-0.7,0c-0.9,0-1.2,0.4-1.2,1.6
				v3.3h-2.2v-6.8h2.2V149.4z"/>
		</g>
		<g class="st9">
			<path class="st1" d="M599.1,154.3c-0.8,1.2-1.9,1.9-3.2,1.9c-2.1,0-3.6-1.6-3.6-3.7c0-2.1,1.6-3.7,3.5-3.7c2,0,3.5,1.6,3.5,3.8
				c0,0.2,0,0.3,0,0.6h-4.8c0.2,0.7,0.6,1,1.3,1c0.6,0,1-0.2,1.3-0.7L599.1,154.3z M597.2,151.8c-0.2-0.7-0.6-1-1.3-1
				c-0.7,0-1.1,0.3-1.3,1H597.2z"/>
		</g>
		<g class="st9">
			<path class="st1" d="M606.8,154.3c-0.8,1.2-1.9,1.9-3.2,1.9c-2.1,0-3.6-1.6-3.6-3.7c0-2.1,1.6-3.7,3.5-3.7c2,0,3.5,1.6,3.5,3.8
				c0,0.2,0,0.3,0,0.6h-4.8c0.2,0.7,0.6,1,1.3,1c0.6,0,1-0.2,1.3-0.7L606.8,154.3z M604.8,151.8c-0.2-0.7-0.6-1-1.3-1
				c-0.7,0-1.1,0.3-1.3,1H604.8z"/>
		</g>
		<g class="st9">
			<path class="st1" d="M611.1,150.5c0,0.7-0.6,1.3-1.3,1.3c-0.7,0-1.3-0.6-1.3-1.3c0-0.7,0.6-1.2,1.3-1.2
				C610.5,149.3,611.1,149.8,611.1,150.5z M611.1,154.9c0,0.7-0.6,1.3-1.3,1.3c-0.7,0-1.3-0.6-1.3-1.3c0-0.7,0.6-1.2,1.3-1.2
				C610.5,153.6,611.1,154.2,611.1,154.9z"/>
		</g>
		<g class="st9">
			<path class="st1" d="M622.2,147.7h-2.4v8.2h-2.3v-8.2h-2.4v-2.1h7.1V147.7z"/>
		</g>
		<g class="st9">
			<path class="st1" d="M628.6,154.3c-0.8,1.2-1.9,1.9-3.2,1.9c-2.1,0-3.6-1.6-3.6-3.7c0-2.1,1.6-3.7,3.5-3.7c2,0,3.5,1.6,3.5,3.8
				c0,0.2,0,0.3,0,0.6H624c0.2,0.7,0.6,1,1.3,1c0.6,0,1-0.2,1.3-0.7L628.6,154.3z M626.6,151.8c-0.2-0.7-0.6-1-1.3-1
				c-0.7,0-1.1,0.3-1.3,1H626.6z"/>
		</g>
		<g class="st9">
			<path class="st1" d="M631.1,153.5c0.3,0.6,0.6,0.8,1,0.8c0.3,0,0.5-0.2,0.5-0.4c0-0.2-0.1-0.3-0.5-0.5l-1.1-0.5
				c-0.8-0.3-1.3-1-1.3-1.8c0-1.3,1.1-2.3,2.6-2.3c1.1,0,1.9,0.5,2.5,1.6l-1.8,0.8c-0.2-0.3-0.5-0.5-0.8-0.5c-0.3,0-0.5,0.1-0.5,0.3
				c0,0.2,0.1,0.2,0.5,0.4l1,0.4c1.1,0.4,1.6,1,1.6,1.9c0,1.4-1.2,2.5-2.7,2.5c-1.4,0-2.3-0.7-2.9-2.1L631.1,153.5z"/>
		</g>
		<g class="st9">
			<path class="st1" d="M638.1,153.5c0,0.4,0.1,0.5,0.3,0.5c0.2,0,0.4,0,0.8-0.2v2c-0.5,0.2-0.8,0.2-1.2,0.2c-1.3,0-2.1-0.9-2.1-2.4
				V151h-0.7v-2h0.7v-1.4l2.2-0.8v2.2h1v2h-1V153.5z"/>
		</g>
		<g class="st9">
			<path class="st1" d="M773.4,155.9h-2.3v-10.3h2.5c1,0,1.7,0.1,2.3,0.5c1,0.6,1.6,1.7,1.6,2.9c0,1.2-0.6,2.3-1.6,2.9
				c-0.6,0.3-1.2,0.5-2.3,0.5h-0.2V155.9z M773.8,150.3c1,0,1.5-0.4,1.5-1.3c0-0.9-0.4-1.3-1.5-1.3h-0.4v2.5H773.8z"/>
		</g>
		<g class="st9">
			<path class="st1" d="M780.7,146.7c0,0.7-0.6,1.3-1.3,1.3c-0.7,0-1.3-0.6-1.3-1.3c0-0.7,0.6-1.2,1.3-1.2
				C780.1,145.5,780.7,146,780.7,146.7z M780.5,155.9h-2.2v-6.8h2.2V155.9z"/>
			<path class="st1" d="M784.1,149.1v0.3c0.6-0.4,1.1-0.6,1.7-0.6c1.9,0,3.5,1.7,3.5,3.7s-1.5,3.7-3.5,3.7c-0.6,0-1.1-0.2-1.7-0.6
				v3.9h-2.2v-10.4H784.1z M784.1,152.5c0,1,0.6,1.7,1.5,1.7c0.9,0,1.5-0.7,1.5-1.7c0-1-0.6-1.7-1.5-1.7
				C784.7,150.8,784.1,151.5,784.1,152.5z"/>
		</g>
		<g class="st9">
			<path class="st1" d="M796.7,154.3c-0.8,1.2-1.9,1.9-3.2,1.9c-2.1,0-3.6-1.6-3.6-3.7c0-2.1,1.6-3.7,3.5-3.7c2,0,3.5,1.6,3.5,3.8
				c0,0.2,0,0.3,0,0.6h-4.8c0.2,0.7,0.6,1,1.3,1c0.6,0,1-0.2,1.3-0.7L796.7,154.3z M794.7,151.8c-0.2-0.7-0.6-1-1.3-1
				c-0.7,0-1.1,0.3-1.3,1H794.7z"/>
		</g>
		<g class="st9">
			<path class="st1" d="M797.9,155.9v-10.3h2.2v10.3H797.9z"/>
			<path class="st1" d="M804,146.7c0,0.7-0.6,1.3-1.3,1.3c-0.7,0-1.3-0.6-1.3-1.3c0-0.7,0.6-1.2,1.3-1.2
				C803.4,145.5,804,146,804,146.7z M803.8,155.9h-2.2v-6.8h2.2V155.9z"/>
			<path class="st1" d="M807.4,149.4c0.5-0.4,0.9-0.5,1.5-0.5c0.9,0,1.8,0.5,2.3,1.3c0.3,0.5,0.4,1.2,0.4,2.1v3.7h-2.2v-3.6
				c0-1.2-0.2-1.5-0.9-1.5c-0.4,0-0.8,0.2-0.9,0.4c-0.1,0.2-0.2,0.6-0.2,1.2v3.5h-2.2v-6.8h2.2V149.4z"/>
			<path class="st1" d="M819.6,154.3c-0.8,1.2-1.9,1.9-3.2,1.9c-2.1,0-3.6-1.6-3.6-3.7c0-2.1,1.6-3.7,3.5-3.7c2,0,3.5,1.6,3.5,3.8
				c0,0.2,0,0.3,0,0.6H815c0.2,0.7,0.6,1,1.3,1c0.6,0,1-0.2,1.3-0.7L819.6,154.3z M817.6,151.8c-0.2-0.7-0.6-1-1.3-1
				c-0.7,0-1.1,0.3-1.3,1H817.6z"/>
		</g>
		<g class="st9">
			<path class="st1" d="M830.1,147.7h-3.4v1.9h3.1v2.1h-3.1v4.1h-2.3v-10.3h5.7V147.7z"/>
		</g>
		<g class="st9">
			<path class="st1" d="M833.5,146.7c0,0.7-0.6,1.3-1.3,1.3c-0.7,0-1.3-0.6-1.3-1.3c0-0.7,0.6-1.2,1.3-1.2
				C832.9,145.5,833.5,146,833.5,146.7z M833.3,155.9h-2.2v-6.8h2.2V155.9z"/>
		</g>
		<g class="st9">
			<path class="st1" d="M837.7,152.9l1.6-3.8h2.3l-2.9,6.8h-2l-2.9-6.8h2.3L837.7,152.9z"/>
		</g>
		<g class="st9">
			<path class="st1" d="M848.2,154.3c-0.8,1.2-1.9,1.9-3.2,1.9c-2.1,0-3.6-1.6-3.6-3.7c0-2.1,1.6-3.7,3.5-3.7c2,0,3.5,1.6,3.5,3.8
				c0,0.2,0,0.3,0,0.6h-4.8c0.2,0.7,0.6,1,1.3,1c0.6,0,1-0.2,1.3-0.7L848.2,154.3z M846.2,151.8c-0.2-0.7-0.6-1-1.3-1
				c-0.7,0-1.1,0.3-1.3,1H846.2z"/>
		</g>
		<g class="st9">
			<path class="st1" d="M852.6,150.5c0,0.7-0.6,1.3-1.3,1.3c-0.7,0-1.3-0.6-1.3-1.3c0-0.7,0.6-1.2,1.3-1.2
				C852,149.3,852.6,149.8,852.6,150.5z M852.6,154.9c0,0.7-0.6,1.3-1.3,1.3c-0.7,0-1.3-0.6-1.3-1.3c0-0.7,0.6-1.2,1.3-1.2
				C852,153.6,852.6,154.2,852.6,154.9z"/>
		</g>
		<g class="st9">
			<path class="st1" d="M860.2,145.6c3.4,0,5.7,2,5.7,5.1c0,3.1-2.2,5.2-5.7,5.2h-2.5v-10.3H860.2z M860,153.8h0.3
				c2.1,0,3.3-1.1,3.3-3c0-1.9-1.2-3-3.3-3H860V153.8z"/>
		</g>
		<g class="st9">
			<path class="st1" d="M873.4,154.3c-0.8,1.2-1.9,1.9-3.2,1.9c-2.1,0-3.6-1.6-3.6-3.7c0-2.1,1.6-3.7,3.5-3.7c2,0,3.5,1.6,3.5,3.8
				c0,0.2,0,0.3,0,0.6h-4.8c0.2,0.7,0.6,1,1.3,1c0.6,0,1-0.2,1.3-0.7L873.4,154.3z M871.4,151.8c-0.2-0.7-0.6-1-1.3-1
				c-0.7,0-1.1,0.3-1.3,1H871.4z"/>
			<path class="st1" d="M876.8,149.1v0.3c0.6-0.4,1.1-0.6,1.7-0.6c1.9,0,3.5,1.7,3.5,3.7s-1.5,3.7-3.5,3.7c-0.6,0-1.1-0.2-1.7-0.6
				v3.9h-2.2v-10.4H876.8z M876.8,152.5c0,1,0.6,1.7,1.5,1.7c0.9,0,1.5-0.7,1.5-1.7c0-1-0.6-1.7-1.5-1.7
				C877.4,150.8,876.8,151.5,876.8,152.5z"/>
			<path class="st1" d="M883,155.9v-10.3h2.2v10.3H883z"/>
		</g>
		<g class="st9">
			<path class="st1" d="M893.7,152.5c0,2.1-1.6,3.7-3.7,3.7c-2.1,0-3.7-1.6-3.7-3.7c0-2.1,1.6-3.7,3.8-3.7
				C892.1,148.8,893.7,150.5,893.7,152.5z M888.5,152.5c0,1,0.6,1.7,1.5,1.7s1.5-0.7,1.5-1.7c0-1-0.6-1.7-1.5-1.7
				C889.1,150.8,888.5,151.5,888.5,152.5z"/>
		</g>
		<g class="st9">
			<path class="st1" d="M893.6,149.1h2.3l1.5,3.8l1.7-3.8h2.3l-4.7,10.4h-2.3l1.8-4L893.6,149.1z"/>
		</g>
		<circle class="st3" cx="334.9" cy="172.4" r="53.9"/>
		<g id="Layer_1-2">
			<path class="st1" d="M355.7,171.5c-0.3-1.2-2.4-1.8-6.3-1.8c-2,0-4.8,0.2-8.3,0.4s-7.9,0.7-13.2,1.2c-8.2,0.9-14.9,1.5-20.3,2
				c-2.6,0.2-4.8,0.4-6.8,0.5v14.7c9.8-1.4,19.4-3.3,29-5.6c6.7-1.6,13.2-3.6,19.6-6.2C353.9,174.6,356,172.9,355.7,171.5z
				 M304.2,183.4c-0.1,0.1-0.3,0.2-0.5,0.2c-0.1,0-0.2,0-0.3-0.1c-0.1,0-0.2-0.1-0.2-0.1c-0.1-0.1-0.1-0.1-0.1-0.2
				c0-0.1-0.1-0.2-0.1-0.3c0-0.2,0.1-0.3,0.2-0.5c0.1-0.1,0.3-0.2,0.5-0.2c0.2,0,0.3,0.1,0.5,0.2c0.1,0.1,0.2,0.3,0.2,0.5
				C304.4,183.1,304.3,183.3,304.2,183.4z M304.2,179.1c-0.1,0.1-0.3,0.2-0.5,0.2c-0.2,0-0.4-0.1-0.5-0.2c-0.1-0.1-0.2-0.3-0.2-0.5
				c0-0.2,0.1-0.4,0.2-0.5c0.1-0.1,0.3-0.2,0.5-0.2c0.2,0,0.3,0.1,0.5,0.2c0.1,0.1,0.2,0.3,0.2,0.5
				C304.4,178.8,304.3,178.9,304.2,179.1L304.2,179.1z M306.5,183.4c-0.1,0.1-0.3,0.2-0.5,0.2c-0.2,0-0.3-0.1-0.5-0.2
				c-0.1-0.1-0.1-0.1-0.1-0.2c0-0.1-0.1-0.2-0.1-0.3c0-0.2,0.1-0.4,0.2-0.5c0.1-0.1,0.3-0.2,0.5-0.2c0.2,0,0.3,0.1,0.5,0.2
				c0.1,0.1,0.2,0.3,0.2,0.5C306.7,183.1,306.6,183.3,306.5,183.4L306.5,183.4z M306.5,179.1c-0.1,0.1-0.3,0.2-0.5,0.2
				c-0.2,0-0.4-0.1-0.5-0.2c-0.1-0.1-0.2-0.3-0.2-0.5c0-0.2,0.1-0.4,0.2-0.5c0.1-0.1,0.3-0.2,0.5-0.2c0.2,0,0.3,0.1,0.5,0.2
				c0.1,0.1,0.2,0.3,0.2,0.5C306.7,178.8,306.6,178.9,306.5,179.1L306.5,179.1z"/>
			<path class="st1" d="M338,149.2c-15.6,3.9-28,7.8-37.3,11.7v-18.1H367C357.7,144.5,348,146.6,338,149.2z"/>
			<path class="st1" d="M369.5,146.7v13.8c-4.7,0.3-10.5,0.8-17.6,1.5c-7.1,0.8-12.9,1.3-17.4,1.7c-4.5,0.4-7.8,0.6-9.8,0.7
				c-3.9,0.1-6-0.4-6.3-1.6c-0.3-1.3,2-3,7-5.1c6.4-2.6,13-4.7,19.7-6.3C352.3,149.6,360.4,148,369.5,146.7z"/>
			<path class="st1" d="M334.4,185.7c11.9-2.9,23.6-6.5,35-10.8v18.1h-68.7v-0.1C310.2,191.3,321.5,189,334.4,185.7z"/>
			<path id="path61" class="st1" d="M304.7,197.9c0,0.3-0.1,0.5-0.2,0.7c-0.2,0.2-0.4,0.4-0.6,0.5c-0.3,0.1-0.6,0.2-1,0.2
				c-0.4,0-0.8-0.1-1.1-0.3c-0.2-0.1-0.4-0.3-0.5-0.5c-0.1-0.2-0.2-0.4-0.2-0.6c0-0.2,0.2-0.4,0.4-0.4c0,0,0,0,0,0
				c0.1,0,0.2,0,0.2,0.1c0.1,0.1,0.1,0.2,0.2,0.3c0,0.1,0.1,0.2,0.2,0.4c0.1,0.1,0.2,0.2,0.3,0.2c0.2,0.1,0.3,0.1,0.5,0.1
				c0.2,0,0.5-0.1,0.7-0.2c0.2-0.1,0.3-0.3,0.3-0.5c0-0.1,0-0.3-0.1-0.4c-0.1-0.1-0.2-0.2-0.4-0.2c-0.2-0.1-0.4-0.1-0.6-0.2
				c-0.3-0.1-0.6-0.2-0.8-0.3c-0.2-0.1-0.4-0.2-0.5-0.4c-0.1-0.2-0.2-0.4-0.2-0.7c0-0.2,0.1-0.5,0.2-0.7c0.1-0.2,0.4-0.4,0.6-0.4
				c0.3-0.1,0.6-0.2,0.9-0.2c0.2,0,0.5,0,0.7,0.1c0.2,0.1,0.4,0.2,0.5,0.3c0.1,0.1,0.2,0.2,0.3,0.4c0.1,0.1,0.1,0.2,0.1,0.4
				c0,0.1,0,0.2-0.1,0.3c-0.1,0.1-0.2,0.1-0.3,0.1c-0.1,0-0.2,0-0.2-0.1c-0.1-0.1-0.1-0.2-0.2-0.3c-0.1-0.2-0.2-0.3-0.3-0.4
				c-0.2-0.1-0.4-0.2-0.6-0.1c-0.2,0-0.4,0-0.6,0.2c-0.1,0.1-0.2,0.2-0.2,0.4c0,0.1,0,0.2,0.1,0.2c0.1,0.1,0.1,0.1,0.2,0.2
				c0.1,0,0.2,0.1,0.3,0.1c0.1,0,0.2,0.1,0.4,0.1c0.2,0.1,0.5,0.1,0.7,0.2c0.2,0.1,0.4,0.2,0.5,0.3c0.1,0.1,0.3,0.2,0.3,0.4
				C304.7,197.5,304.7,197.7,304.7,197.9z"/>
			<path id="path63" class="st1" d="M308.4,197.3v-2.2c0-0.2,0-0.3,0.1-0.4c0.1-0.1,0.2-0.1,0.3-0.1c0.1,0,0.3,0,0.3,0.1
				c0.1,0.1,0.1,0.3,0.1,0.4v2.2c0,0.2,0,0.4,0.1,0.6c0.1,0.2,0.2,0.3,0.3,0.4c0.2,0.1,0.4,0.2,0.6,0.1c0.3,0,0.6-0.1,0.8-0.3
				c0.2-0.3,0.2-0.6,0.2-0.9v-2.3c0-0.2,0-0.3,0.1-0.4c0.1-0.1,0.2-0.1,0.3-0.1c0.1,0,0.3,0,0.3,0.1c0.1,0.1,0.1,0.3,0.1,0.4v2.2
				c0,0.3,0,0.6-0.1,0.9c-0.1,0.2-0.2,0.5-0.4,0.6c-0.2,0.2-0.4,0.3-0.6,0.3c-0.2,0.1-0.5,0.1-0.8,0.1c-0.3,0-0.6,0-0.9-0.1
				c-0.2-0.1-0.4-0.2-0.6-0.4c-0.2-0.2-0.3-0.4-0.4-0.6C308.4,197.9,308.4,197.6,308.4,197.3z"/>
			<path id="path65" class="st1" d="M318.9,196.8c0.4-0.2,0.7-0.6,0.7-1c0-0.1,0-0.3-0.1-0.4c0-0.1-0.1-0.2-0.2-0.3
				c-0.1-0.1-0.2-0.2-0.3-0.2c-0.1-0.1-0.3-0.1-0.4-0.2c-0.2,0-0.4,0-0.6,0h-1.5c-0.2,0-0.3,0-0.4,0.1c-0.1,0.1-0.1,0.3-0.1,0.4v3.4
				c0,0.2,0,0.3,0.1,0.4c0.1,0.1,0.3,0.1,0.4,0.1h1.4c0.2,0,0.4,0,0.6,0c0.2,0,0.3-0.1,0.5-0.1c0.2-0.1,0.4-0.3,0.5-0.5
				c0.1-0.2,0.2-0.4,0.2-0.7C319.9,197.4,319.5,196.9,318.9,196.8z M317,195.4h0.8c0.3,0,0.5,0,0.8,0.1c0.2,0.1,0.3,0.3,0.2,0.5
				c0,0.1,0,0.2-0.1,0.3c-0.1,0.1-0.2,0.2-0.3,0.2c-0.2,0-0.4,0.1-0.5,0.1H317L317,195.4z M318,198.5h-1v-1.3h1c0.3,0,0.5,0,0.7,0.2
				c0.2,0.1,0.3,0.3,0.2,0.5C318.9,198.3,318.6,198.5,318,198.5L318,198.5z"/>
			<path id="path67" class="st1" d="M324.2,195.2l1,3.1l1-3.1c0.1-0.2,0.1-0.3,0.1-0.3c0-0.1,0.1-0.1,0.1-0.2
				c0.1-0.1,0.2-0.1,0.3-0.1c0.2,0,0.3,0.1,0.4,0.2c0,0.1,0.1,0.1,0.1,0.2c0,0,0,0.1,0,0.1c0,0.1,0,0.1,0,0.2l-0.1,0.2l-1.1,3
				c0,0.1-0.1,0.2-0.1,0.3c0,0.1-0.1,0.2-0.1,0.3c-0.1,0.1-0.1,0.1-0.2,0.2c-0.1,0.1-0.2,0.1-0.3,0.1c-0.1,0-0.2,0-0.3-0.1
				c-0.1,0-0.2-0.1-0.2-0.2c-0.1-0.1-0.1-0.2-0.1-0.3c0-0.1-0.1-0.2-0.1-0.3l-1.1-3c0-0.1,0-0.1-0.1-0.2c0-0.1,0-0.1,0-0.2
				c0,0,0-0.1,0-0.2c0-0.1,0-0.2,0.1-0.3c0.1-0.1,0.2-0.1,0.3-0.1c0.1,0,0.3,0,0.3,0.1C324.1,194.9,324.1,195,324.2,195.2z"/>
			<path id="path69" class="st1" d="M333.7,195.4h-2.1v1.1h1.9c0.1,0,0.2,0,0.3,0.1c0.1,0.1,0.1,0.2,0.1,0.2c0,0.1,0,0.2-0.1,0.3
				c-0.1,0.1-0.2,0.1-0.3,0.1h-1.9v1.3h2.1c0.1,0,0.2,0,0.3,0.1c0.1,0.1,0.1,0.2,0.1,0.3c0,0.1,0,0.2-0.1,0.3
				c-0.1,0.1-0.2,0.1-0.3,0.1h-2.5c-0.3,0.1-0.5-0.1-0.6-0.4c0-0.1,0-0.1,0-0.2v-3.4c0-0.1,0-0.2,0.1-0.3c0-0.1,0.1-0.1,0.2-0.2
				c0.1,0,0.2-0.1,0.3-0.1h2.4c0.1,0,0.2,0,0.3,0.1c0.1,0.1,0.1,0.4,0,0.5c0,0,0,0,0,0C334,195.4,333.9,195.4,333.7,195.4z"/>
			<path id="path71" class="st1" d="M341.5,198.6c-0.1-0.2-0.2-0.3-0.3-0.5c-0.1-0.2-0.3-0.4-0.4-0.5c-0.1-0.2-0.3-0.3-0.5-0.4
				c0.3-0.1,0.6-0.2,0.9-0.4c0.2-0.2,0.3-0.5,0.3-0.8c0-0.2,0-0.3-0.1-0.5c-0.1-0.1-0.1-0.3-0.3-0.4c-0.1-0.1-0.2-0.2-0.4-0.3
				c-0.1-0.1-0.3-0.1-0.4-0.1c-0.2,0-0.4,0-0.5,0h-1.5c-0.2,0-0.3,0-0.4,0.1c-0.1,0.1-0.1,0.3-0.1,0.4v3.5c0,0.1,0,0.3,0.1,0.4
				c0.1,0.1,0.2,0.2,0.3,0.1c0.1,0,0.2,0,0.3-0.1c0.1-0.1,0.1-0.3,0.1-0.4v-1.5h0.3c0.1,0,0.3,0,0.4,0.1c0.1,0.1,0.2,0.1,0.3,0.2
				c0.1,0.2,0.3,0.3,0.4,0.5l0.4,0.6c0.1,0.1,0.2,0.3,0.2,0.3c0,0.1,0.1,0.1,0.2,0.2c0.1,0.1,0.2,0.1,0.3,0.1c0.1,0,0.2,0,0.2-0.1
				c0.1,0,0.1-0.1,0.2-0.1c0-0.1,0.1-0.1,0.1-0.2C341.6,198.8,341.6,198.7,341.5,198.6z M340.2,196.6c-0.2,0-0.4,0.1-0.6,0.1h-0.8
				v-1.3h0.8c0.2,0,0.4,0,0.6,0.1c0.2,0.1,0.4,0.3,0.4,0.6c0,0.1,0,0.3-0.1,0.4C340.4,196.5,340.3,196.5,340.2,196.6L340.2,196.6z"
				/>
			<path id="path73" class="st1" d="M348.8,197.9c0,0.3-0.1,0.5-0.2,0.7c-0.2,0.2-0.4,0.4-0.6,0.5c-0.3,0.1-0.6,0.2-1,0.2
				c-0.4,0-0.8-0.1-1.1-0.3c-0.2-0.1-0.4-0.3-0.5-0.5c-0.1-0.2-0.2-0.4-0.2-0.6c0-0.2,0.2-0.4,0.4-0.4c0,0,0,0,0,0
				c0.1,0,0.2,0,0.2,0.1c0.1,0.1,0.1,0.2,0.2,0.3c0,0.1,0.1,0.2,0.2,0.4c0.1,0.1,0.2,0.2,0.3,0.2c0.2,0.1,0.3,0.1,0.5,0.1
				c0.2,0,0.5-0.1,0.7-0.2c0.2-0.1,0.3-0.3,0.3-0.5c0-0.1,0-0.3-0.1-0.4c-0.1-0.1-0.2-0.2-0.4-0.2c-0.2-0.1-0.4-0.1-0.6-0.2
				c-0.3-0.1-0.6-0.2-0.8-0.3c-0.2-0.1-0.4-0.2-0.5-0.4c-0.1-0.2-0.2-0.4-0.2-0.7c0-0.2,0.1-0.5,0.2-0.7c0.1-0.2,0.4-0.4,0.6-0.4
				c0.3-0.1,0.6-0.2,0.9-0.2c0.2,0,0.5,0,0.7,0.1c0.2,0.1,0.4,0.2,0.5,0.3c0.1,0.1,0.2,0.2,0.3,0.4c0.1,0.1,0.1,0.2,0.1,0.4
				c0,0.1,0,0.2-0.1,0.3c-0.1,0.1-0.2,0.1-0.3,0.1c-0.1,0-0.2,0-0.2-0.1c-0.1-0.1-0.1-0.2-0.2-0.3c-0.1-0.2-0.2-0.3-0.3-0.4
				c-0.2-0.1-0.4-0.2-0.6-0.1c-0.2,0-0.4,0-0.6,0.2c-0.1,0.1-0.2,0.2-0.2,0.4c0,0.1,0,0.2,0.1,0.2c0.1,0.1,0.1,0.1,0.2,0.2
				c0.1,0,0.2,0.1,0.3,0.1c0.1,0,0.2,0.1,0.4,0.1c0.2,0.1,0.5,0.1,0.7,0.2c0.2,0.1,0.4,0.2,0.5,0.3c0.1,0.1,0.3,0.2,0.3,0.4
				C348.7,197.5,348.8,197.7,348.8,197.9z"/>
			<path id="path75" class="st1" d="M352.4,198.7v-3.6c0-0.2,0-0.3,0.1-0.4c0.1-0.1,0.2-0.1,0.3-0.1c0.1,0,0.3,0,0.3,0.1
				c0.1,0.1,0.1,0.3,0.1,0.4v3.6c0,0.2,0,0.3-0.1,0.4c-0.1,0.1-0.2,0.1-0.3,0.1c-0.1,0-0.2,0-0.3-0.1
				C352.5,199,352.4,198.9,352.4,198.7z"/>
			<path id="path77" class="st1" d="M361.2,195.7c-0.2-0.3-0.4-0.6-0.8-0.8c-0.4-0.2-0.8-0.3-1.2-0.3c-0.3,0-0.6,0.1-0.9,0.2
				c-0.3,0.1-0.5,0.3-0.7,0.5c-0.2,0.2-0.3,0.5-0.4,0.7c-0.1,0.3-0.2,0.6-0.2,1c0,0.3,0,0.6,0.1,1c0.1,0.3,0.2,0.5,0.4,0.8
				c0.2,0.2,0.4,0.4,0.7,0.5c0.3,0.1,0.6,0.2,1,0.2c0.3,0,0.6-0.1,0.9-0.2c0.3-0.1,0.5-0.3,0.7-0.5c0.2-0.2,0.3-0.5,0.4-0.8
				c0.1-0.3,0.1-0.6,0.1-1C361.5,196.5,361.4,196.1,361.2,195.7z M360.4,197.9c-0.1,0.2-0.3,0.4-0.5,0.6c-0.2,0.1-0.4,0.2-0.6,0.2
				c-0.2,0-0.3,0-0.5-0.1c-0.2-0.1-0.3-0.2-0.4-0.3c-0.1-0.2-0.2-0.3-0.3-0.5c-0.1-0.2-0.1-0.5-0.1-0.7c0-0.2,0-0.5,0.1-0.7
				c0.1-0.2,0.1-0.4,0.3-0.5c0.1-0.1,0.2-0.2,0.4-0.3c0.4-0.2,0.8-0.1,1.2,0.1c0.2,0.1,0.4,0.3,0.5,0.6c0.1,0.3,0.2,0.6,0.2,0.9
				C360.6,197.3,360.5,197.6,360.4,197.9L360.4,197.9z"/>
			<path id="path79" class="st1" d="M366.4,195.1l1.8,2.7v-2.7c0-0.1,0-0.3,0.1-0.4c0.1-0.1,0.2-0.1,0.3-0.1c0.1,0,0.2,0,0.3,0.1
				c0.1,0.1,0.1,0.3,0.1,0.4v3.6c0,0.4-0.2,0.6-0.5,0.6c-0.1,0-0.2,0-0.2,0c-0.1,0-0.1-0.1-0.2-0.1c-0.1-0.1-0.1-0.1-0.2-0.2
				l-0.1-0.2l-1.7-2.7v2.7c0,0.1,0,0.3-0.1,0.4c-0.2,0.2-0.4,0.2-0.6,0c0,0,0,0,0,0c-0.1-0.1-0.1-0.3-0.1-0.4v-3.5
				c0-0.1,0-0.2,0-0.4c0-0.1,0.1-0.2,0.2-0.2c0.1-0.1,0.2-0.1,0.3-0.1c0.1,0,0.1,0,0.2,0c0.1,0,0.1,0.1,0.2,0.1
				c0.1,0.1,0.1,0.1,0.1,0.2C366.3,195,366.3,195.1,366.4,195.1z"/>
			<rect x="300.4" y="201.5" class="st1" width="68.9" height="0.6"/>
		</g>
		<g class="st9">
			<path class="st1" d="M78.5,42.8c0.3-0.3,0.7-0.4,1.1-0.4c0.7,0,1.3,0.4,1.7,0.9c0.2,0.4,0.3,0.9,0.3,1.5v2.7h-1.6v-2.6
				c0-0.8-0.2-1.1-0.7-1.1c-0.3,0-0.6,0.1-0.7,0.3c-0.1,0.2-0.1,0.4-0.1,0.9v2.5h-1.6v-7.5h1.6V42.8z"/>
		</g>
		<g class="st9">
			<path class="st1" d="M84.2,45.8c0,0.3,0,0.4,0.2,0.4c0.2,0,0.3,0,0.6-0.2v1.5c-0.4,0.1-0.6,0.2-0.9,0.2c-0.9,0-1.5-0.6-1.5-1.8
				V44h-0.5v-1.4h0.5v-1l1.6-0.6v1.6h0.7V44h-0.7V45.8z"/>
		</g>
		<g class="st9">
			<path class="st1" d="M87.4,45.8c0,0.3,0,0.4,0.2,0.4c0.2,0,0.3,0,0.6-0.2v1.5c-0.4,0.1-0.6,0.2-0.9,0.2c-0.9,0-1.5-0.6-1.5-1.8
				V44h-0.5v-1.4h0.5v-1l1.6-0.6v1.6h0.7V44h-0.7V45.8z"/>
		</g>
		<g class="st9">
			<path class="st1" d="M90.6,42.6v0.2c0.4-0.3,0.8-0.4,1.2-0.4c1.4,0,2.5,1.2,2.5,2.7c0,1.5-1.1,2.7-2.5,2.7
				c-0.5,0-0.8-0.1-1.2-0.4v2.9H89v-7.6H90.6z M90.6,45.1c0,0.7,0.4,1.2,1.1,1.2c0.6,0,1.1-0.5,1.1-1.2c0-0.7-0.4-1.2-1.1-1.2
				C91,43.8,90.6,44.3,90.6,45.1z"/>
		</g>
		<g class="st9">
			<path class="st1" d="M96.1,45.7c0.2,0.4,0.4,0.6,0.7,0.6c0.2,0,0.4-0.1,0.4-0.3c0-0.1-0.1-0.2-0.4-0.3L96,45.3
				c-0.6-0.2-0.9-0.7-0.9-1.3c0-0.9,0.8-1.6,1.9-1.6c0.8,0,1.4,0.4,1.8,1.1l-1.3,0.6c-0.2-0.2-0.3-0.4-0.6-0.4
				c-0.2,0-0.3,0.1-0.3,0.2c0,0.1,0.1,0.2,0.3,0.3l0.7,0.3c0.8,0.3,1.2,0.7,1.2,1.4c0,1-0.8,1.8-2,1.8c-1,0-1.7-0.5-2.1-1.5
				L96.1,45.7z"/>
		</g>
		<g class="st9">
			<path class="st1" d="M101.8,43.6c0,0.5-0.4,0.9-0.9,0.9c-0.5,0-0.9-0.4-0.9-0.9c0-0.5,0.4-0.9,0.9-0.9
				C101.4,42.7,101.8,43.1,101.8,43.6z M101.8,46.8c0,0.5-0.4,0.9-0.9,0.9c-0.5,0-0.9-0.4-0.9-0.9c0-0.5,0.4-0.9,0.9-0.9
				C101.4,45.9,101.8,46.3,101.8,46.8z"/>
		</g>
		<g class="st9">
			<path class="st1" d="M107,39.9l1.3,0.8l-4.2,7.1l-1.3-0.8L107,39.9z"/>
		</g>
		<g class="st9">
			<path class="st1" d="M111.7,39.9l1.3,0.8l-4.2,7.1l-1.3-0.8L111.7,39.9z"/>
		</g>
		<g class="st9">
			<path class="st1" d="M116.9,47.3c-0.5,0.3-0.8,0.4-1.2,0.4c-1.4,0-2.5-1.2-2.5-2.7c0-1.5,1.1-2.7,2.5-2.7c0.5,0,0.8,0.1,1.2,0.4
				v-0.2h1.6v5c0,1.6-1.1,2.7-2.7,2.7c-1,0-1.8-0.4-2.6-1.4l1.1-1l0.1,0.1c0,0,0.1,0.1,0.1,0.1c0.4,0.5,0.8,0.7,1.3,0.7
				c0.7,0,1.1-0.5,1.1-1.3V47.3z M114.7,45.1c0,0.7,0.4,1.2,1.1,1.2c0.6,0,1.1-0.5,1.1-1.3c0-0.7-0.4-1.2-1.1-1.2
				C115.2,43.8,114.7,44.3,114.7,45.1z"/>
			<path class="st1" d="M124.6,45c0,1.5-1.2,2.7-2.7,2.7c-1.5,0-2.7-1.2-2.7-2.7c0-1.5,1.2-2.7,2.7-2.7
				C123.4,42.4,124.6,43.6,124.6,45z M120.8,45c0,0.7,0.4,1.2,1.1,1.2c0.7,0,1.1-0.5,1.1-1.2c0-0.7-0.4-1.2-1.1-1.2
				C121.2,43.8,120.8,44.3,120.8,45z"/>
			<path class="st1" d="M128.8,44.4c-0.4-0.4-0.7-0.6-1.1-0.6c-0.7,0-1.1,0.5-1.1,1.2c0,0.8,0.4,1.2,1.1,1.2c0.4,0,0.7-0.2,1.1-0.6
				l1,1.1c-0.7,0.7-1.3,1-2.1,1c-1.5,0-2.7-1.2-2.7-2.7c0-1.5,1.2-2.7,2.7-2.7c0.8,0,1.4,0.2,2.1,0.9L128.8,44.4z"/>
			<path class="st1" d="M133.9,47.5v-0.2c-0.4,0.3-0.8,0.4-1.2,0.4c-1.4,0-2.5-1.2-2.5-2.7s1.1-2.7,2.5-2.7c0.5,0,0.8,0.1,1.2,0.4
				v-2.7h1.6v7.5H133.9z M131.7,45.1c0,0.7,0.4,1.2,1.1,1.2c0.6,0,1.1-0.5,1.1-1.3c0-0.7-0.4-1.2-1.1-1.2
				C132.1,43.8,131.7,44.3,131.7,45.1z"/>
			<path class="st1" d="M138.4,46.8c0,0.5-0.4,0.9-0.9,0.9c-0.5,0-0.9-0.4-0.9-0.9c0-0.5,0.4-0.9,0.9-0.9
				C138,45.9,138.4,46.3,138.4,46.8z"/>
		</g>
		<g class="st9">
			<path class="st1" d="M138.8,42.6h1.7l1.1,2.7l1.2-2.7h1.7l-3.4,7.6h-1.7l1.3-2.9L138.8,42.6z"/>
		</g>
		<g class="st9">
			<path class="st1" d="M149.6,45c0,1.5-1.2,2.7-2.7,2.7c-1.5,0-2.7-1.2-2.7-2.7c0-1.5,1.2-2.7,2.7-2.7
				C148.5,42.4,149.6,43.6,149.6,45z M145.9,45c0,0.7,0.4,1.2,1.1,1.2c0.7,0,1.1-0.5,1.1-1.2c0-0.7-0.4-1.2-1.1-1.2
				C146.3,43.8,145.9,44.3,145.9,45z"/>
			<path class="st1" d="M153.4,47.3c-0.3,0.3-0.7,0.4-1.1,0.4c-0.7,0-1.3-0.4-1.7-0.9c-0.2-0.4-0.3-0.9-0.3-1.5v-2.7h1.6v2.6
				c0,0.8,0.2,1.1,0.7,1.1c0.3,0,0.5-0.1,0.6-0.3c0.1-0.2,0.1-0.4,0.1-0.9v-2.5h1.6v4.9h-1.6V47.3z"/>
		</g>
		<g class="st9">
			<path class="st1" d="M157.7,42.8c0.3-0.2,0.5-0.3,0.8-0.3c0.2,0,0.3,0,0.5,0V44c-0.2,0-0.3,0-0.5,0c-0.7,0-0.8,0.3-0.8,1.2v2.4
				h-1.6v-4.9h1.6V42.8z"/>
		</g>
		<g class="st9">
			<path class="st1" d="M159.5,40.1h1.6v2.7c0.4-0.3,0.8-0.4,1.2-0.4c1.4,0,2.5,1.2,2.5,2.7s-1.1,2.7-2.5,2.7
				c-0.5,0-0.8-0.1-1.2-0.4v0.2h-1.6V40.1z M161.1,45c0,0.7,0.4,1.2,1.1,1.2c0.6,0,1.1-0.5,1.1-1.2s-0.4-1.2-1.1-1.2
				C161.5,43.8,161.1,44.3,161.1,45z"/>
			<path class="st1" d="M168.7,47.3c-0.3,0.3-0.7,0.4-1.1,0.4c-0.7,0-1.3-0.4-1.7-0.9c-0.2-0.4-0.3-0.9-0.3-1.5v-2.7h1.6v2.6
				c0,0.8,0.2,1.1,0.7,1.1c0.3,0,0.5-0.1,0.6-0.3c0.1-0.2,0.1-0.4,0.1-0.9v-2.5h1.6v4.9h-1.6V47.3z"/>
			<path class="st1" d="M173.1,40.9c0,0.5-0.4,0.9-0.9,0.9c-0.5,0-0.9-0.4-0.9-0.9c0-0.5,0.4-0.9,0.9-0.9
				C172.6,39.9,173.1,40.4,173.1,40.9z M172.9,47.5h-1.6v-4.9h1.6V47.5z"/>
			<path class="st1" d="M174,47.5v-7.5h1.6v7.5H174z"/>
			<path class="st1" d="M180.1,47.5v-0.2c-0.4,0.3-0.8,0.4-1.2,0.4c-1.4,0-2.5-1.2-2.5-2.7s1.1-2.7,2.5-2.7c0.5,0,0.8,0.1,1.2,0.4
				v-2.7h1.6v7.5H180.1z M177.9,45.1c0,0.7,0.4,1.2,1.1,1.2c0.6,0,1.1-0.5,1.1-1.3c0-0.7-0.4-1.2-1.1-1.2
				C178.4,43.8,177.9,44.3,177.9,45.1z"/>
			<path class="st1" d="M184.6,46.8c0,0.5-0.4,0.9-0.9,0.9c-0.5,0-0.9-0.4-0.9-0.9c0-0.5,0.4-0.9,0.9-0.9
				C184.2,45.9,184.6,46.3,184.6,46.8z"/>
		</g>
		<g class="st9">
			<path class="st1" d="M189.2,44.4c-0.4-0.4-0.7-0.6-1.1-0.6c-0.7,0-1.1,0.5-1.1,1.2c0,0.8,0.4,1.2,1.1,1.2c0.4,0,0.7-0.2,1.1-0.6
				l1,1.1c-0.7,0.7-1.3,1-2.1,1c-1.5,0-2.7-1.2-2.7-2.7c0-1.5,1.2-2.7,2.7-2.7c0.8,0,1.4,0.2,2.1,0.9L189.2,44.4z"/>
		</g>
		<g class="st9">
			<path class="st1" d="M195.7,45c0,1.5-1.2,2.7-2.7,2.7c-1.5,0-2.7-1.2-2.7-2.7c0-1.5,1.2-2.7,2.7-2.7
				C194.5,42.4,195.7,43.6,195.7,45z M191.9,45c0,0.7,0.4,1.2,1.1,1.2c0.7,0,1.1-0.5,1.1-1.2c0-0.7-0.4-1.2-1.1-1.2
				C192.4,43.8,191.9,44.3,191.9,45z"/>
			<path class="st1" d="M198,42.8c0.4-0.3,0.7-0.4,1-0.4c0.5,0,0.8,0.1,1.2,0.5c0.5-0.4,0.8-0.5,1.4-0.5c0.8,0,1.5,0.4,1.8,1
				c0.2,0.4,0.3,0.8,0.3,1.5v2.6h-1.6V45c0-0.9-0.1-1.1-0.6-1.1c-0.3,0-0.5,0.1-0.6,0.3s-0.1,0.4-0.1,0.9v2.5h-1.6V45
				c0-0.9-0.1-1.1-0.6-1.1c-0.3,0-0.5,0.1-0.6,0.3s-0.1,0.4-0.1,0.9v2.5h-1.6v-4.9h1.6V42.8z"/>
		</g>
		<path class="st1" d="M947,33.1v23H2v-23H947 M949,31.1H0v27h949V31.1z"/>
		<path class="st2" d="M73.6,36.3h843.9c1.1,0,1.9,0.9,1.9,1.9V51c0,1.1-0.9,1.9-1.9,1.9H73.6c-1.1,0-1.9-0.9-1.9-1.9V38.2
			C71.7,37.1,72.5,36.3,73.6,36.3z"/>
		<path class="st1" d="M907.7,41.1l0.9,1.8c0.1,0.3,0.4,0.5,0.8,0.6l2,0.3l-1.5,1.4c-0.2,0.2-0.3,0.6-0.3,0.9l0.3,2l-1.8-1
			c-0.3-0.2-0.6-0.2-0.9,0l-1.8,1l0.3-2c0.1-0.3-0.1-0.7-0.3-0.9l-1.5-1.4l2-0.3c0.3,0,0.6-0.3,0.8-0.6L907.7,41.1 M907.7,39.1
			c-0.8,0-1.5,0.4-1.8,1.1l-0.7,1.4l-1.5,0.2c-1.1,0.2-1.9,1.2-1.7,2.3c0.1,0.4,0.3,0.8,0.6,1.1l1.1,1.1l-0.3,1.5
			c-0.2,1.1,0.5,2.1,1.6,2.3c0.4,0.1,0.9,0,1.3-0.2l1.3-0.7l1.3,0.7c1,0.5,2.2,0.1,2.7-0.8c0.2-0.4,0.3-0.8,0.2-1.3l-0.3-1.5
			l1.1-1.1c0.8-0.8,0.8-2,0-2.8c-0.3-0.3-0.7-0.5-1.1-0.6l-1.5-0.2l-0.7-1.4C909.2,39.5,908.5,39.1,907.7,39.1L907.7,39.1z"/>
		<circle class="st2" cx="18.5" cy="17.1" r="4.5"/>
		<circle class="st2" cx="34.4" cy="17.1" r="4.5"/>
		<circle class="st2" cx="50.2" cy="17.1" r="4.5"/>
		<path class="st1" d="M238.3,13.5c2.2,0,4.2,1.3,5.1,3.4l6,14.1H73.6l6-14.1c0.9-2.1,2.9-3.4,5.1-3.4H238.3 M238.3,11.5H84.7
			c-3,0-5.8,1.8-7,4.6L70.6,33h181.8l-7.1-16.9C244.1,13.3,241.3,11.5,238.3,11.5L238.3,11.5z"/>
		<circle class="st2" cx="933" cy="40.1" r="1.5"/>
		<circle class="st2" cx="933" cy="44.6" r="1.5"/>
		<circle class="st2" cx="933" cy="49.1" r="1.5"/>
		<path class="st1" d="M947,58v32H2V58H947 M949,56H0v36h949V56z"/>
		<rect x="91.3" y="68.3" class="st2" width="48.3" height="11.3"/>
		<rect x="172" y="68.3" class="st2" width="48.3" height="11.3"/>
		<rect x="252.7" y="68.3" class="st2" width="48.3" height="11.3"/>
		<rect x="333.4" y="68.3" class="st2" width="48.3" height="11.3"/>
		<rect x="871.1" y="68.3" class="st2" width="48.3" height="11.3"/>
		<path class="st1" d="M46.7,82.1c-0.3,0.8-0.8,1.6-1.4,2.2c-0.6,0.6-1.3,1.1-2.1,1.4c-0.9,0.3-1.8,0.5-2.7,0.5
			c-1.4,0-2.8-0.4-3.9-1.1c-1.1-0.7-1.8-1.8-2.1-3.1h2.2c0.2,0.4,0.5,0.8,0.8,1.2c0.3,0.3,0.7,0.5,1.1,0.7c0.3,0.1,0.7,0.2,1.1,0.3
			c0.3,0,0.6,0.1,0.9,0.1c0.7,0,1.4-0.1,2.1-0.4c0.5-0.3,1-0.6,1.4-1.1c0.4-0.5,0.6-1,0.8-1.6c0.2-0.6,0.2-1.2,0.2-1.7v-1.4
			c-0.5,0.7-1.1,1.2-1.8,1.6c-0.8,0.4-1.6,0.7-2.5,0.7c-1.7,0-3.4-0.7-4.6-2c-0.6-0.6-1-1.3-1.3-2.1c-0.6-1.7-0.6-3.6,0-5.2
			c0.6-1.6,1.8-2.9,3.4-3.6c0.8-0.4,1.7-0.5,2.6-0.5c0.9,0,1.8,0.2,2.6,0.7c0.7,0.4,1.4,1,1.8,1.7v-2h2v12.2
			C47.1,80.2,47,81.2,46.7,82.1z M44.7,71.6c-0.2-0.6-0.5-1.1-1-1.5c-0.4-0.4-0.9-0.8-1.4-1c-0.5-0.2-1.1-0.4-1.7-0.4
			c-0.6,0-1.2,0.1-1.7,0.4c-0.5,0.2-1,0.6-1.4,1c-0.8,0.9-1.3,2.2-1.3,3.4c0,0.6,0.1,1.3,0.3,1.8c0.2,0.6,0.5,1.1,0.9,1.5
			c0.4,0.4,0.8,0.8,1.4,1c0.5,0.2,1.1,0.4,1.7,0.4c0.6,0,1.2-0.1,1.7-0.4c0.5-0.2,1-0.6,1.4-1c0.4-0.4,0.7-1,1-1.5
			c0.2-0.6,0.4-1.2,0.4-1.8C45,72.8,44.9,72.2,44.7,71.6z"/>
		<path class="st1" d="M57.6,67.2c0.8,0.3,1.5,0.8,2,1.5c0.6,0.6,1,1.4,1.4,2.2c0.3,0.8,0.5,1.7,0.5,2.6c0,0.9-0.2,1.8-0.5,2.6
			c-0.3,0.8-0.8,1.5-1.4,2.1c-1.2,1.3-2.9,2-4.6,2c-0.9,0-1.7-0.2-2.5-0.5c-0.8-0.3-1.5-0.8-2-1.4c-0.6-0.6-1.1-1.3-1.4-2.1
			c-0.7-1.7-0.7-3.6,0-5.2c0.3-0.8,0.8-1.5,1.4-2.2c0.6-0.6,1.3-1.1,2-1.5C54.2,66.5,56,66.5,57.6,67.2L57.6,67.2z M56.8,77.8
			c0.5-0.2,1-0.6,1.4-1c0.4-0.4,0.7-0.9,0.9-1.5c0.2-0.6,0.3-1.2,0.3-1.8c0-0.6-0.1-1.3-0.3-1.9c-0.2-0.6-0.5-1.1-0.9-1.5
			c-0.4-0.4-0.9-0.8-1.4-1c-0.5-0.3-1.1-0.4-1.7-0.4c-0.6,0-1.2,0.1-1.7,0.4c-0.5,0.3-1,0.6-1.4,1c-0.4,0.4-0.7,1-0.9,1.5
			c-0.2,0.6-0.3,1.2-0.3,1.9c0,0.6,0.1,1.3,0.3,1.8c0.2,0.6,0.5,1.1,0.9,1.5c0.4,0.4,0.9,0.8,1.4,1C54.5,78.3,55.7,78.3,56.8,77.8
			L56.8,77.8z"/>
		<path class="st1" d="M15.1,83.1c-0.3,0-0.7-0.1-1-0.3c-0.7-0.4-1.1-1.1-1.1-1.9v-8.5c0-1.2,0.9-2.1,2.1-2.2s2.1,0.9,2.2,2.1
			c0,0,0,0.1,0,0.1V77l6.8-4.5l-10.1-6.7c-1-0.7-1.2-2-0.6-3c0.6-1,1.9-1.2,2.9-0.6L29,70.7c1,0.7,1.2,2,0.6,3
			c-0.2,0.2-0.4,0.4-0.6,0.6l-12.7,8.5C16,82.9,15.6,83.1,15.1,83.1z"/>
		<line class="st2" x1="30.4" y1="44.6" x2="39.4" y2="44.6"/>
		<polyline class="st2" points="35.4,40.6 39.4,44.6 35.4,48.6 		"/>
		<line class="st2" x1="23" y1="44.6" x2="14" y2="44.6"/>
		<polyline class="st2" points="18,48.6 14,44.6 18,40.6 		"/>
	</g>
</g>
</svg>
