<svg id="Layer_1" data-name="Layer 1" xmlns="http://www.w3.org/2000/svg" xmlns:xlink="http://www.w3.org/1999/xlink" viewBox="0 0 480 280">
  <defs>
    <linearGradient id="linear-gradient" x1="149.478" y1="238.655" x2="149.478" y2="41.345" gradientUnits="userSpaceOnUse">
      <stop offset="0.316" stop-color="#1c425c"/>
      <stop offset="0.478" stop-color="#2b7485"/>
      <stop offset="0.642" stop-color="#389fa9"/>
      <stop offset="0.79" stop-color="#42bfc3"/>
      <stop offset="0.914" stop-color="#48d2d3"/>
      <stop offset="1" stop-color="#4ad9d9"/>
    </linearGradient>
    <linearGradient id="linear-gradient-2" x1="336.39" y1="174.193" x2="336.39" y2="105.807" gradientUnits="userSpaceOnUse">
      <stop offset="0.156" stop-color="#1c425c"/>
      <stop offset="0.435" stop-color="#2c7889"/>
      <stop offset="0.82" stop-color="#42bec2"/>
      <stop offset="1" stop-color="#4ad9d9"/>
    </linearGradient>
  </defs>
  <title>ec2</title>
  <g>
    <rect x="109.417" y="41.345" width="80.121" height="197.309" rx="30" ry="30" stroke="#1c425c" stroke-miterlimit="10" stroke-width="10" fill="url(#linear-gradient)"/>
    <rect x="302.197" y="15" width="68.386" height="68.386" fill="#4ad9d9" stroke="#1c425c" stroke-linejoin="round" stroke-width="10"/>
    <rect x="302.197" y="105.807" width="68.386" height="68.386" stroke="#1c425c" stroke-linejoin="round" stroke-width="10" fill="url(#linear-gradient-2)"/>
    <rect x="302.197" y="196.614" width="68.386" height="68.386" fill="#1c425c" stroke="#1c425c" stroke-linejoin="round" stroke-width="10"/>
    <g>
      <line x1="188.417" y1="140" x2="269.888" y2="140" fill="none" stroke="#1c425c" stroke-linejoin="round" stroke-width="10"/>
      <polygon points="265.511 154.959 291.417 140 265.511 125.041 265.511 154.959" fill="#1c425c"/>
    </g>
    <g>
      <line x1="188.417" y1="140" x2="275.283" y2="63.254" fill="none" stroke="#1c425c" stroke-linejoin="round" stroke-width="10"/>
      <polygon points="281.907 77.363 291.417 49 262.099 54.942 281.907 77.363" fill="#1c425c"/>
    </g>
    <g>
      <line x1="188.417" y1="140" x2="275.283" y2="216.746" fill="none" stroke="#1c425c" stroke-linejoin="round" stroke-width="10"/>
      <polygon points="262.099 225.058 291.417 231 281.907 202.637 262.099 225.058" fill="#1c425c"/>
    </g>
  </g>
</svg>
