<?xml version="1.0" encoding="utf-8"?>
<!-- Generator: Adobe Illustrator 23.0.1, SVG Export Plug-In . SVG Version: 6.00 Build 0)  -->
<svg version="1.1" id="Layer_1" xmlns="http://www.w3.org/2000/svg" xmlns:xlink="http://www.w3.org/1999/xlink" x="0px" y="0px"
	 viewBox="0 0 140 140" style="enable-background:new 0 0 140 140;" xml:space="preserve">
<style type="text/css">
	.st0{fill:#FF9311;stroke:#1C425C;stroke-width:4;stroke-linecap:round;stroke-linejoin:round;stroke-miterlimit:10;}
	.st1{fill:#4AD9D9;stroke:#1C425C;stroke-width:4;stroke-linecap:round;stroke-linejoin:round;stroke-miterlimit:10;}
	.st2{fill:none;stroke:#1C425C;stroke-width:4;stroke-linecap:round;stroke-linejoin:round;stroke-miterlimit:10;}
	.st3{fill:#BDD350;stroke:#1C425C;stroke-width:4;stroke-linecap:round;stroke-linejoin:round;stroke-miterlimit:10;}
	.st4{fill:#FFD34E;stroke:#1C425C;stroke-width:4;stroke-linecap:round;stroke-linejoin:round;stroke-miterlimit:10;}
	.st5{fill:#E74C3C;stroke:#1C425C;stroke-width:4;stroke-linecap:round;stroke-linejoin:round;stroke-miterlimit:10;}
	.st6{fill:#EFEFEF;stroke:#1C425C;stroke-width:4;stroke-linecap:round;stroke-linejoin:round;stroke-miterlimit:10;}
	.st7{fill:#FFD34E;stroke:#1C425C;stroke-width:3;stroke-linecap:round;stroke-linejoin:round;stroke-miterlimit:10;}
	.st8{fill:#FFFFFF;stroke:#1C425C;stroke-width:4;stroke-linecap:round;stroke-linejoin:round;stroke-miterlimit:10;}
	.st9{fill:#94399E;stroke:#1C425C;stroke-width:4;stroke-linecap:round;stroke-linejoin:round;stroke-miterlimit:10;}
	.st10{fill:#BDD350;stroke:#1C425C;stroke-width:4;stroke-miterlimit:10;}
	.st11{fill:#36B1BF;stroke:#1C425C;stroke-width:4;stroke-linecap:round;stroke-linejoin:round;stroke-miterlimit:10;}
	.st12{fill:#F48E36;stroke:#1C425C;stroke-width:4;stroke-linecap:round;stroke-linejoin:round;stroke-miterlimit:10;}
</style>
<g>
	<polygon class="st11" points="135,5.0129 19.4444,5.0129 5,19.4573 120.5556,19.4573 	"/>
	<polygon class="st11" points="135,5.0129 120.5556,19.4573 120.5556,135.0129 135,120.5684 	"/>
	<rect x="5" y="19.4573" class="st1" width="57.7778" height="57.7778"/>
	<rect x="62.7778" y="19.4573" class="st1" width="57.7778" height="57.7778"/>
	<rect x="5" y="77.2351" class="st1" width="57.7778" height="57.7778"/>
	<rect x="62.7778" y="77.2351" class="st1" width="57.7778" height="57.7778"/>
	<line class="st2" x1="120.5556" y1="77.2094" x2="135" y2="62.7649"/>
	<line class="st2" x1="62.7778" y1="19.4316" x2="77.2222" y2="4.9871"/>
	<circle class="st12" cx="33.8889" cy="48.3462" r="19.2593"/>
	<circle class="st12" cx="91.6667" cy="48.3462" r="19.2593"/>
	<circle class="st12" cx="33.8889" cy="106.124" r="19.2593"/>
	<circle class="st12" cx="91.6667" cy="106.124" r="19.2593"/>
	<path class="st2" d="M25.2222,106.3834l5.9865,10.0733c0,0,1.5919-4.7315,3.9328-9.4391c2.904-5.84,7.4141-11.2263,7.4141-11.2263"
		/>
	<path class="st2" d="M83,106.3834l5.9865,10.0733c0,0,1.5919-4.7315,3.9328-9.4391c2.904-5.84,7.4141-11.2263,7.4141-11.2263"/>
	<path class="st2" d="M83,48.6057l5.9865,10.0733c0,0,1.5919-4.7315,3.9328-9.4391c2.904-5.84,7.4141-11.2263,7.4141-11.2263"/>
	<path class="st2" d="M25.2222,48.6057l5.9865,10.0733c0,0,1.5919-4.7315,3.9328-9.4391c2.904-5.84,7.4141-11.2263,7.4141-11.2263"
		/>
</g>
</svg>
