<?xml version="1.0" encoding="utf-8"?>
<!-- Generator: Adobe Illustrator 23.0.1, SVG Export Plug-In . SVG Version: 6.00 Build 0)  -->
<svg version="1.1" id="Layer_1" xmlns="http://www.w3.org/2000/svg" xmlns:xlink="http://www.w3.org/1999/xlink" x="0px" y="0px"
	 viewBox="0 0 140 140" style="enable-background:new 0 0 140 140;" xml:space="preserve">
<style type="text/css">
	.st0{fill:#FF9311;stroke:#1C425C;stroke-width:4;stroke-linecap:round;stroke-linejoin:round;stroke-miterlimit:10;}
	.st1{fill:#4AD9D9;stroke:#1C425C;stroke-width:4;stroke-linecap:round;stroke-linejoin:round;stroke-miterlimit:10;}
	.st2{fill:none;stroke:#1C425C;stroke-width:4;stroke-linecap:round;stroke-linejoin:round;stroke-miterlimit:10;}
	.st3{fill:#BDD350;stroke:#1C425C;stroke-width:4;stroke-linecap:round;stroke-linejoin:round;stroke-miterlimit:10;}
	.st4{fill:#FFD34E;stroke:#1C425C;stroke-width:4;stroke-linecap:round;stroke-linejoin:round;stroke-miterlimit:10;}
	.st5{fill:#E74C3C;stroke:#1C425C;stroke-width:4;stroke-linecap:round;stroke-linejoin:round;stroke-miterlimit:10;}
	.st6{fill:#EFEFEF;stroke:#1C425C;stroke-width:4;stroke-linecap:round;stroke-linejoin:round;stroke-miterlimit:10;}
	.st7{fill:#FFD34E;stroke:#1C425C;stroke-width:3;stroke-linecap:round;stroke-linejoin:round;stroke-miterlimit:10;}
	.st8{fill:#FFFFFF;stroke:#1C425C;stroke-width:4;stroke-linecap:round;stroke-linejoin:round;stroke-miterlimit:10;}
	.st9{fill:#94399E;stroke:#1C425C;stroke-width:4;stroke-linecap:round;stroke-linejoin:round;stroke-miterlimit:10;}
	.st10{fill:#BDD350;stroke:#1C425C;stroke-width:4;stroke-miterlimit:10;}
	.st11{fill:#36B1BF;stroke:#1C425C;stroke-width:4;stroke-linecap:round;stroke-linejoin:round;stroke-miterlimit:10;}
	.st12{fill:#F48E36;stroke:#1C425C;stroke-width:4;stroke-linecap:round;stroke-linejoin:round;stroke-miterlimit:10;}
</style>
<path class="st1" d="M70,4C33.551,4,4,33.551,4,70s29.551,66,66,66s66-29.551,66-66S106.449,4,70,4z M70,127.4839
	c-31.7439,0-57.4839-25.74-57.4839-57.4839S38.2561,12.5161,70,12.5161S127.4839,38.2561,127.4839,70S101.7439,127.4839,70,127.4839
	z"/>
<g>
	<g>
		<circle class="st4" cx="94.3462" cy="44.2398" r="15.649"/>
		<path class="st4" d="M78.6971,70.4706c0,5.4093,0.9884,10.4161,2.6888,14.5651c0.1397,0.3408,0.4323,0.5515,0.7481,0.5515h24.4217
			c0.3153,0,0.6076-0.21,0.7476-0.55C109.0113,80.8879,110,75.8805,110,70.4706c0-3.9651-0.5287-7.7105-1.4874-11.0649
			c-0.1949-0.6819-0.8997-0.912-1.3423-0.4259c-2.8166,3.0936-6.3999,5.186-10.369,5.799
			c-0.3118,0.0482-0.5764,0.2959-0.6804,0.6529l-0.9903,3.4012c-0.2593,0.8907-1.3061,0.8913-1.5662,0.0009l-0.9882-3.384
			c-0.104-0.356-0.3678-0.6033-0.6789-0.6519c-3.9702-0.6202-7.5549-2.7062-10.3838-5.7994
			c-0.4437-0.4851-1.1486-0.2529-1.3417,0.43C79.2252,62.7765,78.6971,66.5252,78.6971,70.4706z"/>
	</g>
</g>
<g>
	<g>
		<circle class="st3" cx="45.649" cy="44.2398" r="15.649"/>
		<path class="st3" d="M30,70.4706c0,5.4093,0.9884,10.4161,2.6888,14.5651c0.1397,0.3408,0.4323,0.5515,0.7481,0.5515h24.4217
			c0.3153,0,0.6076-0.21,0.7476-0.55c1.708-4.1493,2.6967-9.1566,2.6967-14.5666c0-3.9651-0.5287-7.7105-1.4874-11.0649
			c-0.1949-0.6819-0.8997-0.912-1.3423-0.4259c-2.8166,3.0936-6.3999,5.186-10.3691,5.799
			c-0.3118,0.0482-0.5764,0.2959-0.6804,0.6529l-0.9903,3.4012c-0.2593,0.8907-1.3061,0.8913-1.5662,0.0009l-0.9882-3.384
			c-0.104-0.356-0.3678-0.6033-0.6789-0.6519c-3.9702-0.6202-7.5549-2.7062-10.3838-5.7994
			c-0.4437-0.4851-1.1486-0.2529-1.3417,0.43C30.5281,62.7765,30,66.5252,30,70.4706z"/>
	</g>
</g>
<g>
	<g>
		<circle class="st9" cx="69.9976" cy="78.0619" r="15.649"/>
		<path class="st9" d="M54.3486,104.2927c0,5.4093,0.9884,10.4161,2.6888,14.5651c0.1397,0.3408,0.4323,0.5515,0.7481,0.5515
			h24.4217c0.3153,0,0.6076-0.21,0.7476-0.55c1.708-4.1493,2.6967-9.1566,2.6967-14.5666c0-3.9651-0.5287-7.7105-1.4874-11.0649
			c-0.1949-0.6819-0.8997-0.912-1.3423-0.4259c-2.8166,3.0936-6.3999,5.186-10.369,5.799
			c-0.3118,0.0482-0.5764,0.2959-0.6804,0.6529l-0.9903,3.4012c-0.2593,0.8907-1.3061,0.8913-1.5662,0.0009l-0.9882-3.384
			c-0.104-0.356-0.3678-0.6033-0.6789-0.6519c-3.9702-0.6202-7.5549-2.7062-10.3838-5.7994
			c-0.4437-0.4851-1.1486-0.2529-1.3417,0.43C54.8766,96.5986,54.3486,100.3473,54.3486,104.2927z"/>
	</g>
</g>
</svg>
