<?xml version="1.0" encoding="utf-8"?>
<!-- Generator: Adobe Illustrator 23.0.1, SVG Export Plug-In . SVG Version: 6.00 Build 0)  -->
<svg version="1.1" id="Layer_1" xmlns="http://www.w3.org/2000/svg" xmlns:xlink="http://www.w3.org/1999/xlink" x="0px" y="0px"
	 viewBox="0 0 140 140" style="enable-background:new 0 0 140 140;" xml:space="preserve">
<style type="text/css">
	.st0{fill:#FF9311;stroke:#1C425C;stroke-width:4;stroke-linecap:round;stroke-linejoin:round;stroke-miterlimit:10;}
	.st1{fill:#4AD9D9;stroke:#1C425C;stroke-width:4;stroke-linecap:round;stroke-linejoin:round;stroke-miterlimit:10;}
	.st2{fill:none;stroke:#1C425C;stroke-width:4;stroke-linecap:round;stroke-linejoin:round;stroke-miterlimit:10;}
	.st3{fill:#BDD350;stroke:#1C425C;stroke-width:4;stroke-linecap:round;stroke-linejoin:round;stroke-miterlimit:10;}
	.st4{fill:#FFD34E;stroke:#1C425C;stroke-width:4;stroke-linecap:round;stroke-linejoin:round;stroke-miterlimit:10;}
	.st5{fill:#E74C3C;stroke:#1C425C;stroke-width:4;stroke-linecap:round;stroke-linejoin:round;stroke-miterlimit:10;}
	.st6{fill:#EFEFEF;stroke:#1C425C;stroke-width:4;stroke-linecap:round;stroke-linejoin:round;stroke-miterlimit:10;}
	.st7{fill:#FFD34E;stroke:#1C425C;stroke-width:3;stroke-linecap:round;stroke-linejoin:round;stroke-miterlimit:10;}
	.st8{fill:#FFFFFF;stroke:#1C425C;stroke-width:4;stroke-linecap:round;stroke-linejoin:round;stroke-miterlimit:10;}
	.st9{fill:#94399E;stroke:#1C425C;stroke-width:4;stroke-linecap:round;stroke-linejoin:round;stroke-miterlimit:10;}
	.st10{fill:#BDD350;stroke:#1C425C;stroke-width:4;stroke-miterlimit:10;}
	.st11{fill:#36B1BF;stroke:#1C425C;stroke-width:4;stroke-linecap:round;stroke-linejoin:round;stroke-miterlimit:10;}
	.st12{fill:#F48E36;stroke:#1C425C;stroke-width:4;stroke-linecap:round;stroke-linejoin:round;stroke-miterlimit:10;}
</style>
<g>
	<g>
		<line class="st2" x1="32.6475" y1="54.2818" x2="16.2145" y2="54.2818"/>
		<circle class="st7" cx="16.2145" cy="54.2818" r="2.9982"/>
	</g>
	<g>
		<line class="st2" x1="47.2971" y1="67.4065" x2="5.6962" y2="67.4065"/>
		<circle class="st7" cx="5.6962" cy="67.4065" r="2.9982"/>
	</g>
	<g>
		<line class="st2" x1="47.2971" y1="84.7384" x2="23.2851" y2="84.7384"/>
		<circle class="st7" cx="23.2851" cy="84.7384" r="2.9982"/>
	</g>
	<g>
		<line class="st2" x1="34.9981" y1="51.8178" x2="34.9981" y2="5.2699"/>
		<circle class="st7" cx="34.9981" cy="5.2699" r="2.9982"/>
	</g>
	<g>
		<g>
			<polyline class="st2" points="62.2446,82.9546 62.2446,117.0021 84.1415,117.0021 			"/>
			<circle class="st7" cx="84.1415" cy="117.0021" r="2.9982"/>
		</g>
		<g>
			<line class="st2" x1="95.5498" y1="89.1136" x2="95.5498" y2="117.0021"/>
			<circle class="st7" cx="95.5498" cy="117.0021" r="2.9982"/>
		</g>
		<g>
			<line class="st2" x1="47.0334" y1="70.4542" x2="47.0334" y2="117.0021"/>
			<circle class="st7" cx="47.0334" cy="117.0021" r="2.9982"/>
		</g>
	</g>
	<g>
		<polyline class="st2" points="47.1067,39.3174 47.1067,5.2699 95.5498,5.2699 		"/>
		<circle class="st7" cx="95.5498" cy="5.2699" r="2.9982"/>
	</g>
	<g>
		<line class="st2" x1="108.0452" y1="84.8119" x2="127.4804" y2="84.8119"/>
		<circle class="st7" cx="127.4804" cy="84.8119" r="2.9982"/>
	</g>
	<g>
		<line class="st2" x1="103.2487" y1="64.3352" x2="127.4804" y2="64.3352"/>
		<circle class="st7" cx="127.4804" cy="64.3352" r="2.9982"/>
	</g>
	<g>
		<line class="st2" x1="103.2487" y1="43.9319" x2="134.3038" y2="43.9319"/>
		<circle class="st7" cx="134.3038" cy="43.9319" r="2.9982"/>
	</g>
	<circle class="st1" cx="71.7243" cy="59.5211" r="44.7556"/>
	<path class="st6" d="M101.6873,43.7666H71.3131c-0.0071-0.1189-0.0108-0.2391-0.0108-0.36c0-3.1882,2.5148-5.7888,5.6693-5.9266
		c0-0.1472,0.0047-0.2948,0.0145-0.4437c0.2418-3.6897,3.429-6.4845,7.1187-6.2427c2.9761,0.1952,5.3701,2.3068,6.0576,5.0526
		c0.0659-0.002,0.1317-0.003,0.1979-0.003c2.221,0,4.1773,1.1326,5.3231,2.8515c0.2796-0.0473,0.567-0.0719,0.8601-0.0719
		C99.3842,38.6228,101.6873,40.9255,101.6873,43.7666z"/>
	<path class="st6" d="M108.143,66.0252H35.3086c-0.017-0.285-0.0259-0.5733-0.0259-0.8632c0-7.645,6.0303-13.881,13.5944-14.2114
		c0-0.3531,0.0113-0.707,0.0348-1.064c0.5798-8.8475,8.2224-15.5491,17.0699-14.9693c7.1365,0.468,12.8769,5.5315,14.5256,12.1157
		c0.1579-0.0049,0.3158-0.0073,0.4745-0.0073c5.3258,0,10.0168,2.716,12.7644,6.8377c0.6705-0.1134,1.3596-0.1725,2.0624-0.1725
		C102.6204,53.6909,108.143,59.2127,108.143,66.0252z"/>
	<path class="st6" d="M105.1075,81.8989H55.0774c-0.0117-0.1958-0.0178-0.3938-0.0178-0.5929c0-5.2514,4.1422-9.5349,9.338-9.7618
		c0-0.2425,0.0078-0.4856,0.0239-0.7309c0.3983-6.0774,5.648-10.6807,11.7253-10.2825c4.9021,0.3215,8.8452,3.7996,9.9777,8.3223
		c0.1085-0.0033,0.2169-0.005,0.326-0.005c3.6583,0,6.8806,1.8656,8.7679,4.6968c0.4605-0.0779,0.9339-0.1185,1.4167-0.1185
		C101.314,73.4264,105.1075,77.2193,105.1075,81.8989z"/>
</g>
</svg>
