<?xml version="1.0" encoding="utf-8"?>
<!-- Generator: Adobe Illustrator 23.0.1, SVG Export Plug-In . SVG Version: 6.00 Build 0)  -->
<svg version="1.1" id="Layer_1" xmlns="http://www.w3.org/2000/svg" xmlns:xlink="http://www.w3.org/1999/xlink" x="0px" y="0px"
	 viewBox="0 0 140 140" style="enable-background:new 0 0 140 140;" xml:space="preserve">
<style type="text/css">
	.st0{fill:#FF9311;stroke:#1C425C;stroke-width:4;stroke-linecap:round;stroke-linejoin:round;stroke-miterlimit:10;}
	.st1{fill:#4AD9D9;stroke:#1C425C;stroke-width:4;stroke-linecap:round;stroke-linejoin:round;stroke-miterlimit:10;}
	.st2{fill:none;stroke:#1C425C;stroke-width:4;stroke-linecap:round;stroke-linejoin:round;stroke-miterlimit:10;}
	.st3{fill:#BDD350;stroke:#1C425C;stroke-width:4;stroke-linecap:round;stroke-linejoin:round;stroke-miterlimit:10;}
	.st4{fill:#FFD34E;stroke:#1C425C;stroke-width:4;stroke-linecap:round;stroke-linejoin:round;stroke-miterlimit:10;}
	.st5{fill:#E74C3C;stroke:#1C425C;stroke-width:4;stroke-linecap:round;stroke-linejoin:round;stroke-miterlimit:10;}
	.st6{fill:#EFEFEF;stroke:#1C425C;stroke-width:4;stroke-linecap:round;stroke-linejoin:round;stroke-miterlimit:10;}
	.st7{fill:#FFD34E;stroke:#1C425C;stroke-width:3;stroke-linecap:round;stroke-linejoin:round;stroke-miterlimit:10;}
	.st8{fill:#FFFFFF;stroke:#1C425C;stroke-width:4;stroke-linecap:round;stroke-linejoin:round;stroke-miterlimit:10;}
	.st9{fill:#94399E;stroke:#1C425C;stroke-width:4;stroke-linecap:round;stroke-linejoin:round;stroke-miterlimit:10;}
	.st10{fill:#BDD350;stroke:#1C425C;stroke-width:4;stroke-miterlimit:10;}
	.st11{fill:#36B1BF;stroke:#1C425C;stroke-width:4;stroke-linecap:round;stroke-linejoin:round;stroke-miterlimit:10;}
	.st12{fill:#F48E36;stroke:#1C425C;stroke-width:4;stroke-linecap:round;stroke-linejoin:round;stroke-miterlimit:10;}
</style>
<g>
	<g>
		<path class="st1" d="M129.1839,3.5593H10.8163C6.5032,3.5593,3,7.0582,3,11.3755v84.6343c0,4.3175,3.5032,7.8163,7.8163,7.8163
			h118.3676c4.3173,0,7.8161-3.4989,7.8161-7.8163V11.3755C137,7.0582,133.5011,3.5593,129.1839,3.5593z"/>
	</g>
	<rect x="11.3818" y="11.9382" class="st8" width="117.2394" height="83.4072"/>
	<rect x="11.3818" y="11.9382" class="st9" width="117.2394" height="9.51"/>
	<g>
		<g>
			<line class="st2" x1="20.3542" y1="30.0235" x2="30.337" y2="30.0235"/>
			<line class="st2" x1="20.3542" y1="38.0421" x2="30.337" y2="38.0421"/>
			<line class="st2" x1="20.3542" y1="46.0606" x2="30.337" y2="46.0606"/>
			<line class="st2" x1="20.3542" y1="54.0792" x2="30.337" y2="54.0792"/>
		</g>
		<g>
			<line class="st2" x1="39.3435" y1="30.0235" x2="118.9418" y2="30.0235"/>
			<line class="st2" x1="39.3435" y1="38.0421" x2="66.8498" y2="38.0421"/>
			<line class="st2" x1="39.3435" y1="46.0606" x2="73.3699" y2="46.0606"/>
			<line class="st2" x1="39.3435" y1="54.0792" x2="82.2524" y2="54.0792"/>
			<line class="st2" x1="39.3435" y1="62.0977" x2="70.0023" y2="62.0977"/>
			<line class="st2" x1="39.3435" y1="70.1162" x2="76.0322" y2="70.1162"/>
			<line class="st2" x1="39.3435" y1="78.1348" x2="87.1255" y2="78.1348"/>
			<line class="st2" x1="39.3435" y1="86.7101" x2="93.1102" y2="86.7101"/>
		</g>
	</g>
</g>
</svg>
