<?xml version="1.0" encoding="utf-8"?>
<!-- Generator: Adobe Illustrator 23.0.1, SVG Export Plug-In . SVG Version: 6.00 Build 0)  -->
<svg version="1.1" id="Layer_1" xmlns="http://www.w3.org/2000/svg" xmlns:xlink="http://www.w3.org/1999/xlink" x="0px" y="0px"
	 viewBox="0 0 140 140" style="enable-background:new 0 0 140 140;" xml:space="preserve">
<style type="text/css">
	.st0{fill:#FF9311;stroke:#1C425C;stroke-width:4;stroke-linecap:round;stroke-linejoin:round;stroke-miterlimit:10;}
	.st1{fill:#4AD9D9;stroke:#1C425C;stroke-width:4;stroke-linecap:round;stroke-linejoin:round;stroke-miterlimit:10;}
	.st2{fill:none;stroke:#1C425C;stroke-width:4;stroke-linecap:round;stroke-linejoin:round;stroke-miterlimit:10;}
	.st3{fill:#BDD350;stroke:#1C425C;stroke-width:4;stroke-linecap:round;stroke-linejoin:round;stroke-miterlimit:10;}
	.st4{fill:#FFD34E;stroke:#1C425C;stroke-width:4;stroke-linecap:round;stroke-linejoin:round;stroke-miterlimit:10;}
	.st5{fill:#E74C3C;stroke:#1C425C;stroke-width:4;stroke-linecap:round;stroke-linejoin:round;stroke-miterlimit:10;}
	.st6{fill:#EFEFEF;stroke:#1C425C;stroke-width:4;stroke-linecap:round;stroke-linejoin:round;stroke-miterlimit:10;}
	.st7{fill:#FFD34E;stroke:#1C425C;stroke-width:3;stroke-linecap:round;stroke-linejoin:round;stroke-miterlimit:10;}
	.st8{fill:#FFFFFF;stroke:#1C425C;stroke-width:4;stroke-linecap:round;stroke-linejoin:round;stroke-miterlimit:10;}
	.st9{fill:#94399E;stroke:#1C425C;stroke-width:4;stroke-linecap:round;stroke-linejoin:round;stroke-miterlimit:10;}
	.st10{fill:#BDD350;stroke:#1C425C;stroke-width:4;stroke-miterlimit:10;}
	.st11{fill:#36B1BF;stroke:#1C425C;stroke-width:4;stroke-linecap:round;stroke-linejoin:round;stroke-miterlimit:10;}
	.st12{fill:#F48E36;stroke:#1C425C;stroke-width:4;stroke-linecap:round;stroke-linejoin:round;stroke-miterlimit:10;}
</style>
<g>
	<path class="st0" d="M92.3424,41.1106c3.1511-3.1511,3.1511-8.2579,0-11.409c-3.1511-3.1511-8.2607-3.1538-11.4118-0.0027
		c-0.1319,0.1319-0.2581,0.2694-0.3816,0.4096l-0.014-0.014L59.0247,51.6048l11.4118,11.4118l21.5104-21.5104l-0.014-0.014
		C92.0731,41.3687,92.2106,41.2425,92.3424,41.1106z M83.6496,38.3944c-1.3832-1.3832-1.3805-3.6253,0-5.0058
		c1.3834-1.3834,3.6226-1.3833,5.0058-0.0001c1.3805,1.3805,1.3806,3.6197-0.0028,5.0031
		C87.2721,39.7721,85.0301,39.7749,83.6496,38.3944z"/>
	<path class="st0" d="M110.3005,59.0686c3.1511-3.1511,3.1511-8.2579,0-11.409c-3.1511-3.1511-8.2607-3.1538-11.4118-0.0027
		c-0.1319,0.1319-0.2581,0.2694-0.3816,0.4096l-0.014-0.014L76.9828,69.5629l11.4118,11.4118l21.5104-21.5104l-0.014-0.014
		C110.0311,59.3268,110.1686,59.2005,110.3005,59.0686z M101.6077,56.3524c-1.3832-1.3832-1.3805-3.6253,0-5.0058
		c1.3834-1.3834,3.6226-1.3833,5.0058-0.0001c1.3805,1.3805,1.3806,3.6197-0.0028,5.0031
		C105.2302,57.7302,102.9882,57.7329,101.6077,56.3524z"/>
	<path class="st0" d="M93.2362,94.9805c-11.6811,11.6811-29.7318,13.1151-42.973,4.2959l-21.3867,21.3867
		c-1.6723-1.4646-3.3138-3.0051-4.9244-4.6158c-1.6107-1.6107-3.1511-3.2521-4.6158-4.9245l21.3867-21.3867
		c-8.8191-13.2412-7.3852-31.2919,4.2959-42.973L93.2362,94.9805z"/>
</g>
<path class="st1" d="M70,4C33.551,4,4,33.551,4,70s29.551,66,66,66s66-29.551,66-66S106.449,4,70,4z M70,127.4839
	c-31.7439,0-57.4839-25.74-57.4839-57.4839S38.2561,12.5161,70,12.5161S127.4839,38.2561,127.4839,70S101.7439,127.4839,70,127.4839
	z"/>
</svg>
