<?xml version="1.0" encoding="utf-8"?>
<!-- Generator: Adobe Illustrator 23.0.1, SVG Export Plug-In . SVG Version: 6.00 Build 0)  -->
<svg version="1.1" id="Layer_1" xmlns="http://www.w3.org/2000/svg" xmlns:xlink="http://www.w3.org/1999/xlink" x="0px" y="0px"
	 viewBox="0 0 140 140" style="enable-background:new 0 0 140 140;" xml:space="preserve">
<style type="text/css">
	.st0{fill:#FF9311;stroke:#1C425C;stroke-width:4;stroke-linecap:round;stroke-linejoin:round;stroke-miterlimit:10;}
	.st1{fill:#4AD9D9;stroke:#1C425C;stroke-width:4;stroke-linecap:round;stroke-linejoin:round;stroke-miterlimit:10;}
	.st2{fill:none;stroke:#1C425C;stroke-width:4;stroke-linecap:round;stroke-linejoin:round;stroke-miterlimit:10;}
	.st3{fill:#BDD350;stroke:#1C425C;stroke-width:4;stroke-linecap:round;stroke-linejoin:round;stroke-miterlimit:10;}
	.st4{fill:#FFD34E;stroke:#1C425C;stroke-width:4;stroke-linecap:round;stroke-linejoin:round;stroke-miterlimit:10;}
	.st5{fill:#E74C3C;stroke:#1C425C;stroke-width:4;stroke-linecap:round;stroke-linejoin:round;stroke-miterlimit:10;}
	.st6{fill:#EFEFEF;stroke:#1C425C;stroke-width:4;stroke-linecap:round;stroke-linejoin:round;stroke-miterlimit:10;}
	.st7{fill:#FFD34E;stroke:#1C425C;stroke-width:3;stroke-linecap:round;stroke-linejoin:round;stroke-miterlimit:10;}
	.st8{fill:#FFFFFF;stroke:#1C425C;stroke-width:4;stroke-linecap:round;stroke-linejoin:round;stroke-miterlimit:10;}
	.st9{fill:#94399E;stroke:#1C425C;stroke-width:4;stroke-linecap:round;stroke-linejoin:round;stroke-miterlimit:10;}
	.st10{fill:#BDD350;stroke:#1C425C;stroke-width:4;stroke-miterlimit:10;}
	.st11{fill:#36B1BF;stroke:#1C425C;stroke-width:4;stroke-linecap:round;stroke-linejoin:round;stroke-miterlimit:10;}
	.st12{fill:#F48E36;stroke:#1C425C;stroke-width:4;stroke-linecap:round;stroke-linejoin:round;stroke-miterlimit:10;}
</style>
<g>
	<rect x="84.6902" y="3.0428" class="st4" width="28.704" height="61.9144"/>
	<line class="st2" x1="11.7544" y1="19.9099" x2="128.291" y2="19.9099"/>
	<g>
		<g>
			<line class="st2" x1="11.7544" y1="48.0901" x2="128.291" y2="48.0901"/>
			<g>
				<path class="st1" d="M20.3233,48.0901c0,2.3662-0.9591,4.5084-2.5098,6.0591c-1.5507,1.5507-3.6929,2.5098-6.0591,2.5098
					s-4.5084-0.9591-6.0591-2.5098c-1.5507-1.5507-2.5098-3.6929-2.5098-6.0591c0-2.3662,0.9591-4.5084,2.5098-6.0591
					c1.5507-1.5507,3.6929-2.5098,6.0591-2.5098C16.4868,39.5212,20.3233,43.3576,20.3233,48.0901z"/>
				<path class="st3" d="M40.8885,39.5212c1.7747,0,4.5076,1.5376,5.6706,2.7006c1.163,1.163,3.0086,3.5879,3.0086,5.3626
					c0,0.8718-0.6038,3.027-0.9182,3.785c-0.3257,0.7851-1.2328,2.8156-1.8245,3.4073c-1.163,1.163-4.1618,1.8823-5.9364,1.8823
					c-1.7747,0-4.7734-0.7193-5.9364-1.8823c-0.5917-0.5917-1.4987-2.6222-1.8245-3.4073c-0.3145-0.758-0.9182-2.9132-0.9182-3.785
					c0-1.7747,1.8456-4.1996,3.0086-5.3626C36.381,41.0588,39.1139,39.5212,40.8885,39.5212z"/>
				<path class="st3" d="M70.0227,39.5212c1.1831,0,4.5067,2.1161,5.282,2.8914s3.5073,3.4829,3.5073,4.6661
					c0,0.5812-0.9761,3.7833-1.1857,4.2886c-0.2171,0.5234-1.3954,3.6423-1.7899,4.0368c-0.7753,0.7753-4.6306,1.2549-5.8138,1.2549
					s-5.0384-0.4795-5.8138-1.2549c-0.3945-0.3945-1.5727-3.5134-1.7899-4.0368c-0.2097-0.5053-1.1857-3.7074-1.1857-4.2886
					c0-1.1831,2.732-3.8907,3.5073-4.6661C65.516,41.6373,68.8396,39.5212,70.0227,39.5212z"/>
				<path class="st5" d="M99.1569,39.5212c0.5916,0,4.5058,2.6945,4.8935,3.0822c0.3877,0.3877,4.0061,3.378,4.0061,3.9695
					c0,0.2906-1.3484,4.5396-1.4532,4.7922c-0.1086,0.2617-1.5581,4.4691-1.7553,4.6663c-0.3877,0.3877-5.0995,0.6274-5.6911,0.6274
					c-0.5916,0-5.3034-0.2398-5.6911-0.6274c-0.1972-0.1972-1.6467-4.4046-1.7553-4.6663
					c-0.1048-0.2527-1.4532-4.5016-1.4532-4.7922c0-0.5916,3.6185-3.5819,4.0061-3.9695
					C94.6511,42.2157,98.5653,39.5212,99.1569,39.5212z"/>
				<polygon class="st6" points="128.291,39.5212 119.2812,46.0672 121.0019,51.3631 122.7226,56.6589 128.291,56.6589 
					133.8594,56.6589 135.5801,51.3631 137.3009,46.0672 132.7959,42.7942 				"/>
			</g>
		</g>
		<g>
			<polygon class="st3" points="127.6055,11.3411 122.6583,19.9099 117.711,28.4788 127.6055,28.4788 137.5,28.4788 
				132.5528,19.9099 			"/>
			<path class="st3" d="M101.6976,12.8709c-1.1777-2.0398-4.1218-2.0398-5.2995,0l-3.1807,5.5092l-3.1807,5.5092
				c-1.1777,2.0398,0.2944,4.5895,2.6497,4.5895h6.3615h6.3615c2.3553,0,3.8274-2.5497,2.6497-4.5895l-3.1807-5.5092
				L101.6976,12.8709z"/>
			<path class="st3" d="M74.4676,14.5166c-1.9985-3.4615-6.9948-3.4615-8.9933,0l-1.7822,3.0869l-1.7822,3.0869
				c-1.9985,3.4615,0.4996,7.7885,4.4967,7.7885h3.5644h3.5644c3.997,0,6.4952-4.3269,4.4967-7.7885l-1.7822-3.0869L74.4676,14.5166
				z"/>
			<path class="st3" d="M47.1893,15.8199c-2.7979-4.8462-9.7927-4.8462-12.5907,0l-0.5066,0.8775l-0.5066,0.8775
				c-2.7979,4.8462,0.6995,10.9038,6.2953,10.9038h1.0133h1.0133c5.5959,0,9.0933-6.0577,6.2953-10.9038l-0.5066-0.8775
				L47.1893,15.8199z"/>
			<path class="st1" d="M19.6377,19.9099c0,4.7325-3.8364,8.5689-8.5689,8.5689c-2.3662,0-4.5084-0.9591-6.0591-2.5098
				C3.4591,24.4184,2.5,22.2762,2.5,19.9099s0.9591-4.5084,2.5098-6.0591s3.6929-2.5098,6.0591-2.5098
				C15.8013,11.3411,19.6377,15.1775,19.6377,19.9099z"/>
		</g>
	</g>
</g>
</svg>
