<?xml version="1.0" encoding="utf-8"?>
<!-- Generator: Adobe Illustrator 23.0.1, SVG Export Plug-In . SVG Version: 6.00 Build 0)  -->
<svg version="1.1" id="Layer_1" xmlns="http://www.w3.org/2000/svg" xmlns:xlink="http://www.w3.org/1999/xlink" x="0px" y="0px"
	 viewBox="0 0 140 140" style="enable-background:new 0 0 140 140;" xml:space="preserve">
<style type="text/css">
	.st0{fill:none;stroke:#1C425C;stroke-width:4;stroke-linecap:round;stroke-linejoin:round;stroke-miterlimit:10;}
	.st1{fill:#4AD9D9;stroke:#1C425C;stroke-width:4;stroke-linecap:round;stroke-linejoin:round;stroke-miterlimit:10;}
	.st2{fill:#BDD350;stroke:#1C425C;stroke-width:4;stroke-linecap:round;stroke-linejoin:round;stroke-miterlimit:10;}
	.st3{fill:#FFD34E;stroke:#1C425C;stroke-width:4;stroke-linecap:round;stroke-linejoin:round;stroke-miterlimit:10;}
	.st4{fill:#E74C3C;stroke:#1C425C;stroke-width:4;stroke-linecap:round;stroke-linejoin:round;stroke-miterlimit:10;}
	.st5{fill:#EFEFEF;stroke:#1C425C;stroke-width:4;stroke-linecap:round;stroke-linejoin:round;stroke-miterlimit:10;}
</style>
<g>
	<line class="st0" x1="11.9748" y1="72.9243" x2="39.8535" y2="72.9243"/>
	<line class="st0" x1="11.9748" y1="43" x2="126.4821" y2="43"/>
	<line class="st0" x1="67.7322" y1="13.0757" x2="96.409" y2="43"/>
	<line class="st0" x1="39.8535" y1="43" x2="67.7322" y2="13.0757"/>
	<line class="st0" x1="39.8535" y1="72.9243" x2="67.7322" y2="43"/>
	<circle class="st1" cx="11.9748" cy="43" r="9.9748"/>
	<circle class="st1" cx="11.9748" cy="72.9243" r="9.9748"/>
	<path class="st2" d="M31.3161,34.486c-0.9025,0.9025-1.4608,7.1368-1.4608,8.514s0.5582,7.6114,1.4608,8.514
		c0.9025,0.9025,7.1368,1.4608,8.514,1.4608c1.3772,0,7.6114-0.5582,8.514-1.4608s1.4608-7.1368,1.4608-8.514
		s-0.5582-7.6114-1.4608-8.514s-7.1368-1.4608-8.514-1.4608C38.4528,33.0252,32.2186,33.5835,31.3161,34.486z"/>
	<path class="st2" d="M31.3161,64.4103c-0.9025,0.9025-1.4608,7.1368-1.4608,8.514c0,1.3772,0.5582,7.6114,1.4608,8.514
		c0.9025,0.9025,7.1368,1.4608,8.514,1.4608c1.3772,0,7.6114-0.5582,8.514-1.4608c0.9025-0.9025,1.4608-7.1368,1.4608-8.514
		c0-1.3772-0.5582-7.6115-1.4608-8.514c-0.9025-0.9025-7.1368-1.4608-8.514-1.4608C38.4528,62.9495,32.2186,63.5077,31.3161,64.4103
		z"/>
	<polygon class="st3" points="77.6601,43 77.6601,52.9748 67.6853,52.9748 57.7106,52.9748 57.7106,43 57.7106,33.0252 
		67.6853,33.0252 77.6601,33.0252 	"/>
	<polygon class="st4" points="77.707,13.0757 77.707,23.0505 67.7322,23.0505 57.7575,23.0505 57.7575,13.0757 57.7575,3.101 
		67.7322,3.101 77.707,3.101 	"/>
	<polygon class="st5" points="96.3122,33.0252 89.8851,35.5189 88.4454,43 85.5659,52.9748 96.3122,52.9748 107.0585,52.9748 
		104.179,43 102.7393,35.5189 	"/>
	<polygon class="st5" points="126.4821,33.0252 120.7232,43 114.9643,52.9748 126.4821,52.9748 138,52.9748 132.2411,43 	"/>
</g>
</svg>
