<?xml version="1.0" encoding="utf-8"?>
<!-- Generator: Adobe Illustrator 19.1.0, SVG Export Plug-In . SVG Version: 6.00 Build 0)  -->
<svg version="1.1" id="Layer_1" xmlns="http://www.w3.org/2000/svg" xmlns:xlink="http://www.w3.org/1999/xlink" x="0px" y="0px"
	 viewBox="0 0 1081.3 774.9" style="enable-background:new 0 0 1081.3 774.9;" xml:space="preserve">
<style type="text/css">
	.st0{fill:none;stroke:#1C425C;stroke-width:3;stroke-linecap:round;stroke-linejoin:round;stroke-miterlimit:10;}
	.st1{fill:#F7A600;stroke:#1C425C;stroke-width:3;stroke-miterlimit:10;}
	.st2{fill:#00BFC0;stroke:#1C425C;stroke-width:3;stroke-miterlimit:10;}
	.st3{fill:#9534A0;stroke:#1C425C;stroke-width:3;stroke-miterlimit:10;}
	.st4{fill:#FFFFFF;}
	.st5{fill:none;stroke:#1C425C;stroke-width:2;stroke-linecap:round;stroke-linejoin:round;stroke-miterlimit:10;}
	.st6{fill:#1C425C;}
	.st7{fill:#9534A0;}
	.st8{fill:#FFFAD5;}
	.st9{fill:none;stroke:#1C425C;stroke-width:5.3764;stroke-linecap:round;stroke-linejoin:round;stroke-miterlimit:10;}
	.st10{fill:none;stroke:#1C425C;stroke-linecap:round;stroke-linejoin:round;stroke-miterlimit:10;}
	.st11{fill:#DE572F;stroke:#1C425C;stroke-width:3;stroke-linejoin:round;stroke-miterlimit:10;}
	.st12{fill:#00BFC0;}
	.st13{fill:#F7A600;stroke:#1C425C;stroke-miterlimit:10;}
	.st14{clip-path:url(#SVGID_2_);fill:#F7A600;stroke:#1C425C;stroke-miterlimit:10;}
	.st15{fill:#00BFC0;stroke:#1C425C;stroke-width:2;stroke-miterlimit:10;}
	.st16{fill:#F7A600;stroke:#1C425C;stroke-width:2;stroke-miterlimit:10;}
	.st17{fill:#9534A0;stroke:#1C425C;stroke-width:2;stroke-miterlimit:10;}
	.st18{fill:#DB9E36;stroke:#1C425C;stroke-width:2;stroke-miterlimit:10;}
	.st19{fill:#DE572F;stroke:#1C425C;stroke-width:2;stroke-miterlimit:10;}
	.st20{fill:#FEFEFE;stroke:#1C425C;stroke-width:2;stroke-miterlimit:10;}
	.st21{fill:none;stroke:#9534A0;stroke-width:3;stroke-linejoin:round;}
	.st22{fill:none;stroke:#9534A0;stroke-width:3;stroke-linejoin:round;stroke-dasharray:7.9084,7.9084;}
	.st23{fill:none;stroke:#9534A0;stroke-width:3;stroke-linejoin:round;stroke-dasharray:7.0692,7.0692;}
	.st24{fill:none;stroke:#FF530D;stroke-width:3;stroke-linejoin:round;stroke-dasharray:7.0692,7.0692;}
	.st25{fill:none;}
	.st26{fill:#FF530D;}
	.st27{fill:#00A39F;stroke:#1C425C;stroke-width:3;stroke-miterlimit:10;}
	.st28{fill:none;stroke:#1C425C;stroke-width:3;stroke-linecap:round;stroke-linejoin:round;}
	.st29{fill:#F7A600;}
	.st30{fill:none;stroke:#9534A0;stroke-width:3.262;stroke-linejoin:round;stroke-miterlimit:10;stroke-dasharray:3.262,3.262;}
	.st31{fill:none;stroke:#A6D3EB;stroke-width:3.262;stroke-linejoin:round;}
	.st32{fill:none;stroke:#1C425C;stroke-width:3.262;stroke-linecap:round;stroke-linejoin:round;stroke-miterlimit:10;}
	.st33{fill:#00BFC0;stroke:#023550;stroke-width:4;stroke-miterlimit:10;}
	.st34{fill:none;stroke:#023550;stroke-width:5;stroke-linecap:round;stroke-miterlimit:10;}
	.st35{fill:#023550;}
	.st36{fill:none;stroke:#1C425C;stroke-width:1.348;stroke-linecap:round;stroke-linejoin:round;}
	.st37{fill:none;stroke:#1C425C;stroke-linecap:round;stroke-linejoin:round;}
	.st38{fill:#00BFC0;stroke:#1C425C;stroke-width:1.3481;stroke-miterlimit:10;}
	.st39{fill:#F7A600;stroke:#1C425C;stroke-width:1.3481;stroke-miterlimit:10;}
	.st40{fill:#9534A0;stroke:#1C425C;stroke-width:1.3481;stroke-linejoin:round;stroke-miterlimit:10;}
	.st41{fill:#00BFC0;stroke:#1C425C;stroke-miterlimit:10;}
	.st42{fill:#9534A0;stroke:#1C425C;stroke-miterlimit:10;}
	.st43{fill:#00BFC0;stroke:#1C425C;stroke-width:0.3211;stroke-linejoin:round;stroke-miterlimit:10;}
	.st44{fill:#9534A0;stroke:#1C425C;stroke-width:0.5;stroke-miterlimit:10;}
	.st45{fill:#F7A600;stroke:#1C425C;stroke-width:0.3211;stroke-miterlimit:10;}
	.st46{fill:#211F1F;}
	.st47{fill:#99D9F1;}
	.st48{fill:#7BB9E7;}
	.st49{fill:#232121;}
	.st50{fill:#9AD9F1;}
	.st51{fill:#1C1A1A;}
	.st52{fill:#030304;}
	.st53{fill:#242222;}
	.st54{fill:#222020;}
	.st55{fill:#171414;}
	.st56{fill:#171515;}
	.st57{fill:#181616;}
	.st58{fill:#131111;}
	.st59{fill:#F4CAAF;}
	.st60{fill:#C49A84;}
	.st61{fill:#181718;}
	.st62{fill:#D1A58D;}
	.st63{fill:#181819;}
	.st64{fill:#171718;}
	.st65{fill:#FDFDFD;}
	.st66{fill:#FEFEFE;}
	.st67{fill:#1D1A1A;}
	.st68{fill:#1B1818;}
	.st69{fill:#A1E4FE;}
	.st70{fill:#97D6ED;}
	.st71{fill:#96D4EB;}
	.st72{fill:#97D5ED;}
	.st73{fill:#98D7EE;}
	.st74{fill:#98D7EF;}
	.st75{fill:#91CDE3;}
	.st76{fill:#AF5D50;}
	.st77{fill:#AF5C4F;}
	.st78{fill:#AE5C4F;}
	.st79{fill:#FDFCFC;}
	.st80{fill:none;stroke:#00BFC0;stroke-miterlimit:10;}
	.st81{fill:#9534A0;stroke:#1C425C;stroke-width:0.4299;stroke-linejoin:round;stroke-miterlimit:10;}
	.st82{fill:#00BFC0;stroke:#1C425C;stroke-width:1.3387;stroke-miterlimit:10;}
	.st83{fill:#9534A0;stroke:#1C425C;stroke-width:0.4075;stroke-miterlimit:10;}
	.st84{fill:#F7A600;stroke:#1C425C;stroke-width:0.4075;stroke-miterlimit:10;}
	.st85{fill:#00BFC0;stroke:#1C425C;stroke-width:0.4075;stroke-linejoin:round;stroke-miterlimit:10;}
	.st86{fill:#00BFC0;stroke:#1C425C;stroke-width:0.7137;stroke-miterlimit:10;}
	.st87{fill:#9534A0;stroke:#1C425C;stroke-width:0.7137;stroke-linejoin:round;stroke-miterlimit:10;}
	.st88{fill:#FFFFFF;stroke:#1C425C;stroke-width:0.3827;stroke-miterlimit:10;}
	.st89{fill:#9534A0;stroke:#1C425C;stroke-width:1.284;stroke-linejoin:round;stroke-miterlimit:10;}
	.st90{fill:#010101;}
	.st91{fill:#020202;}
	.st92{fill:#F2F2F2;stroke:#1C425C;stroke-width:1.9094;stroke-linejoin:round;stroke-miterlimit:10;}
	.st93{fill:#F2F2F2;stroke:#023550;stroke-width:2;stroke-miterlimit:10;}
	.st94{fill:none;stroke:#028A9E;stroke-width:2.185;stroke-linecap:round;stroke-miterlimit:10;}
	.st95{fill:#028A9E;}
	.st96{fill:none;stroke:#046D70;stroke-width:2.185;stroke-linecap:round;stroke-miterlimit:10;}
	.st97{fill:#046D70;}
	.st98{fill:none;stroke:#04BFBF;stroke-width:2.185;stroke-linecap:round;stroke-miterlimit:10;}
	.st99{fill:#04BFBF;}
	.st100{fill:#66A6BC;stroke:#023550;stroke-width:1.0085;stroke-linecap:round;stroke-linejoin:round;stroke-miterlimit:10;}
	.st101{fill:#9FE5F7;stroke:#023550;stroke-width:1.0085;stroke-linecap:round;stroke-linejoin:round;stroke-miterlimit:10;}
	.st102{fill:#75BCDA;stroke:#023550;stroke-width:1.0085;stroke-linecap:round;stroke-linejoin:round;stroke-miterlimit:10;}
	.st103{fill:#F2F2F2;stroke:#023550;stroke-width:1.0085;stroke-linecap:round;stroke-linejoin:round;stroke-miterlimit:10;}
	.st104{fill:#9534A0;stroke:#1C425C;stroke-width:2;stroke-linejoin:round;stroke-miterlimit:10;}
	.st105{fill:none;stroke:#1C425C;stroke-width:1.909;stroke-linejoin:round;stroke-miterlimit:10;stroke-dasharray:5,5,5,5,5,5;}
	.st106{font-family:'OpenSans-Bold';}
	.st107{font-size:20px;}
	.st108{fill:#BABABA;}
	.st109{font-family:'OpenSans-Semibold';}
	.st110{font-size:17px;}
	.st111{font-size:15px;}
	.st112{font-size:12px;}
	.st113{font-family:'OpenSans';}
	.st114{fill:none;stroke:#1C425C;stroke-width:2;stroke-miterlimit:10;}
	.st115{fill:#FFFFFF;stroke:#1C425C;stroke-width:2;stroke-linejoin:round;stroke-miterlimit:10;}
	.st116{fill:none;stroke:#1C425C;stroke-width:2;stroke-linejoin:round;}
	.st117{clip-path:url(#SVGID_4_);fill:#DB9E36;stroke:#1C425C;stroke-width:2;stroke-miterlimit:10;}
	.st118{fill:#DE572F;stroke:#1C425C;stroke-width:0.5;stroke-miterlimit:10;}
	.st119{fill:#439F83;stroke:#1C425C;stroke-width:0.5;stroke-miterlimit:10;}
	.st120{fill:#DB9E36;stroke:#1C425C;stroke-width:0.5;stroke-miterlimit:10;}
	.st121{fill:#439F83;stroke:#1C425C;stroke-width:1.3387;stroke-miterlimit:10;}
	.st122{fill:#DE572F;stroke:#1C425C;stroke-width:0.3211;stroke-linejoin:round;stroke-miterlimit:10;}
	.st123{fill:#439F83;stroke:#1C425C;stroke-width:0.3211;stroke-miterlimit:10;}
	.st124{fill:#0C3034;}
</style>
<path class="st105" d="M1077.3,773.9H124.1c-1.7,0-3.1-1.4-3.1-3.1V43.2c0-1.7,1.4-3.1,3.1-3.1h953.2c1.7,0,3.1,1.4,3.1,3.1v727.7
	C1080.3,772.5,1079,773.9,1077.3,773.9z"/>
<text transform="matrix(1 0 0 1 498.6708 17.1387)" class="st106 st107">This is a Pipeline</text>
<path class="st108" d="M421.6,654.4H158.3c-2.4,0-4.3-1.9-4.3-4.3V89.5c0-2.4,1.9-4.3,4.3-4.3h263.3c2.4,0,4.3,1.9,4.3,4.3V650
	C425.9,652.4,424,654.4,421.6,654.4z"/>
<text transform="matrix(1 0 0 1 249.7065 117.1499)" class="st35 st109 st110">Stage 1</text>
<g>
	<path class="st4" d="M403.4,363.2H178.7c-1.8,0-3.2-1.5-3.2-3.2V145.3c0-1.8,1.5-3.2,3.2-3.2h224.7c1.8,0,3.2,1.5,3.2,3.2v214.6
		C406.6,361.7,405.1,363.2,403.4,363.2z"/>
	<text transform="matrix(1 0 0 1 271.6708 167.7636)" class="st109 st111">JoB</text>
	<g>
		<path class="st29" d="M388.2,217.4H196.7c-1.7,0-3-1.3-3-3v-29.1c0-1.7,1.3-3,3-3h191.5c1.7,0,3,1.3,3,3v29.1
			C391.2,216,389.9,217.4,388.2,217.4z"/>
		<path class="st2" d="M241.6,217.4h-44.9c-1.7,0-3-1.3-3-3v-29.1c0-1.7,1.3-3,3-3h44.9V217.4z"/>
		<text transform="matrix(1 0 0 1 199.9325 204.4512)" class="st4 st109 st112">Task</text>
		<text transform="matrix(1 0 0 1 248.9325 203.5303)" class="st113 st112">ant -Dmodule=A compile</text>
		<polygon class="st29" points="246.3,207 233.7,199.7 246.3,192.4 		"/>
	</g>
	<g>
		<path class="st29" d="M388.2,279.4H196.7c-1.7,0-3-1.3-3-3v-29.1c0-1.7,1.3-3,3-3h191.5c1.7,0,3,1.3,3,3v29.1
			C391.2,278,389.9,279.4,388.2,279.4z"/>
		<path class="st2" d="M241.6,279.4h-44.9c-1.7,0-3-1.3-3-3v-29.1c0-1.7,1.3-3,3-3h44.9V279.4z"/>
		<text transform="matrix(1 0 0 1 199.9325 266.4512)" class="st4 st109 st112">Task</text>
		<text transform="matrix(1 0 0 1 248.9325 265.5303)" class="st113 st112">rake create_docs</text>
		<polygon class="st29" points="246.3,269 233.7,261.7 246.3,254.4 		"/>
	</g>
	<g>
		<path class="st29" d="M388.2,340.4H196.7c-1.7,0-3-1.3-3-3v-29.1c0-1.7,1.3-3,3-3h191.5c1.7,0,3,1.3,3,3v29.1
			C391.2,339,389.9,340.4,388.2,340.4z"/>
		<path class="st2" d="M241.6,340.4h-44.9c-1.7,0-3-1.3-3-3v-29.1c0-1.7,1.3-3,3-3h44.9V340.4z"/>
		<text transform="matrix(1 0 0 1 199.9325 327.4512)" class="st4 st109 st112">Task</text>
		<text transform="matrix(1 0 0 1 248.9325 326.5303)" class="st113 st112">create_package.sh</text>
		<polygon class="st29" points="246.3,330 233.7,322.7 246.3,315.4 		"/>
	</g>
	<g>
		<g>
			<line class="st114" x1="532.3" y1="225" x2="532.3" y2="234"/>
			<g>
				<polygon class="st6" points="536.7,233 527.2,233 531.9,237.7 				"/>
			</g>
		</g>
	</g>
	<g>
		<g>
			<line class="st114" x1="532.3" y1="288" x2="532.3" y2="297"/>
			<g>
				<polygon class="st6" points="536.7,296 527.2,296 531.9,300.7 				"/>
			</g>
		</g>
	</g>
	<g>
		<g>
			<line class="st114" x1="291.3" y1="225" x2="291.3" y2="234"/>
			<g>
				<polygon class="st6" points="295.7,233 286.2,233 290.9,237.7 				"/>
			</g>
		</g>
	</g>
	<g>
		<g>
			<line class="st114" x1="291.3" y1="288" x2="291.3" y2="297"/>
			<g>
				<polygon class="st6" points="295.7,296 286.2,296 290.9,300.7 				"/>
			</g>
		</g>
	</g>
</g>
<g>
	<path class="st4" d="M402.4,609.8H177.7c-1.8,0-3.2-1.5-3.2-3.2V391.3c0-1.8,1.5-3.2,3.2-3.2h224.7c1.8,0,3.2,1.5,3.2,3.2v215.2
		C405.6,608.3,404.1,609.8,402.4,609.8z"/>
	<g>
		<text transform="matrix(1 0 0 1 270.6708 413.7636)" class="st109 st111">JoB</text>
	</g>
	<g>
		<path class="st29" d="M387.2,465.4H195.7c-1.7,0-3-1.3-3-3v-29.1c0-1.7,1.3-3,3-3h191.5c1.7,0,3,1.3,3,3v29.1
			C390.2,464,388.9,465.4,387.2,465.4z"/>
		<path class="st2" d="M240.6,465.4h-44.9c-1.7,0-3-1.3-3-3v-29.1c0-1.7,1.3-3,3-3h44.9V465.4z"/>
		<text transform="matrix(1 0 0 1 198.9325 452.4512)" class="st4 st109 st112">Task</text>
		<text transform="matrix(1 0 0 1 247.9325 451.5303)" class="st113 st112">ant -Dmodule=A compile</text>
		<polygon class="st29" points="245.3,455 232.7,447.7 245.3,440.4 		"/>
	</g>
	<g>
		<path class="st29" d="M387.2,526.4H195.7c-1.7,0-3-1.3-3-3v-29.1c0-1.7,1.3-3,3-3h191.5c1.7,0,3,1.3,3,3v29.1
			C390.2,525,388.9,526.4,387.2,526.4z"/>
		<path class="st2" d="M240.6,526.4h-44.9c-1.7,0-3-1.3-3-3v-29.1c0-1.7,1.3-3,3-3h44.9V526.4z"/>
		<text transform="matrix(1 0 0 1 198.9325 513.4512)" class="st4 st109 st112">Task</text>
		<text transform="matrix(1 0 0 1 247.9325 512.5303)" class="st113 st112">rake create_docs</text>
		<polygon class="st29" points="245.3,516 232.7,508.7 245.3,501.4 		"/>
	</g>
	<g>
		<path class="st29" d="M387.2,587.4H195.7c-1.7,0-3-1.3-3-3v-29.1c0-1.7,1.3-3,3-3h191.5c1.7,0,3,1.3,3,3v29.1
			C390.2,586,388.9,587.4,387.2,587.4z"/>
		<path class="st2" d="M240.6,587.4h-44.9c-1.7,0-3-1.3-3-3v-29.1c0-1.7,1.3-3,3-3h44.9V587.4z"/>
		<text transform="matrix(1 0 0 1 198.9325 574.4512)" class="st4 st109 st112">Task</text>
		<text transform="matrix(1 0 0 1 247.9325 573.5303)" class="st113 st112">create_package.sh</text>
		<polygon class="st29" points="245.3,577 232.7,569.7 245.3,562.4 		"/>
	</g>
	<g>
		<g>
			<line class="st114" x1="295.3" y1="472" x2="295.3" y2="481"/>
			<g>
				<polygon class="st6" points="299.7,480 290.2,480 294.9,484.7 				"/>
			</g>
		</g>
	</g>
	<g>
		<g>
			<line class="st114" x1="295.3" y1="535" x2="295.3" y2="544"/>
			<g>
				<polygon class="st6" points="299.7,543 290.2,543 294.9,547.7 				"/>
			</g>
		</g>
	</g>
</g>
<text transform="matrix(1 0 0 1 562.7065 117.1499)" class="st35 st109 st110">Stage 2</text>
<g>
	<path class="st108" d="M734.3,743.3H471.6c-2.6,0-4.7-2.1-4.7-4.7V89.8c0-2.6,2.1-4.7,4.7-4.7h262.7c2.6,0,4.7,2.1,4.7,4.7v648.8
		C738.9,741.2,736.8,743.3,734.3,743.3z"/>
	<g>
		<path class="st4" d="M716.4,548.8H491.7c-1.8,0-3.2-1.5-3.2-3.2V330.3c0-1.8,1.5-3.2,3.2-3.2h224.7c1.8,0,3.2,1.5,3.2,3.2v215.2
			C719.6,547.3,718.1,548.8,716.4,548.8z"/>
		<g>
			<text transform="matrix(1 0 0 1 584.6708 352.7636)" class="st109 st111">JoB</text>
		</g>
		<g>
			<path class="st29" d="M701.2,404.4H509.7c-1.7,0-3-1.3-3-3v-29.1c0-1.7,1.3-3,3-3h191.5c1.7,0,3,1.3,3,3v29.1
				C704.2,403,702.9,404.4,701.2,404.4z"/>
			<path class="st2" d="M554.6,404.4h-44.9c-1.7,0-3-1.3-3-3v-29.1c0-1.7,1.3-3,3-3h44.9V404.4z"/>
			<text transform="matrix(1 0 0 1 512.9326 391.4512)" class="st4 st109 st112">Task</text>
			<text transform="matrix(1 0 0 1 561.9326 390.5303)" class="st113 st112">ant -Dmodule=A compile</text>
			<polygon class="st29" points="559.3,394 546.7,386.7 559.3,379.4 			"/>
		</g>
		<g>
			<path class="st29" d="M701.2,465.4H509.7c-1.7,0-3-1.3-3-3v-29.1c0-1.7,1.3-3,3-3h191.5c1.7,0,3,1.3,3,3v29.1
				C704.2,464,702.9,465.4,701.2,465.4z"/>
			<path class="st2" d="M554.6,465.4h-44.9c-1.7,0-3-1.3-3-3v-29.1c0-1.7,1.3-3,3-3h44.9V465.4z"/>
			<text transform="matrix(1 0 0 1 512.9326 452.4512)" class="st4 st109 st112">Task</text>
			<text transform="matrix(1 0 0 1 561.9326 451.5303)" class="st113 st112">rake create_docs</text>
			<polygon class="st29" points="559.3,455 546.7,447.7 559.3,440.4 			"/>
		</g>
		<g>
			<path class="st29" d="M701.2,526.4H509.7c-1.7,0-3-1.3-3-3v-29.1c0-1.7,1.3-3,3-3h191.5c1.7,0,3,1.3,3,3v29.1
				C704.2,525,702.9,526.4,701.2,526.4z"/>
			<path class="st2" d="M554.6,526.4h-44.9c-1.7,0-3-1.3-3-3v-29.1c0-1.7,1.3-3,3-3h44.9V526.4z"/>
			<text transform="matrix(1 0 0 1 512.9326 513.4512)" class="st4 st109 st112">Task</text>
			<text transform="matrix(1 0 0 1 561.9326 512.5303)" class="st113 st112">create_package.sh</text>
			<polygon class="st29" points="559.3,516 546.7,508.7 559.3,501.4 			"/>
		</g>
		<g>
			<g>
				<line class="st114" x1="609.3" y1="411" x2="609.3" y2="420"/>
				<g>
					<polygon class="st6" points="613.7,419 604.2,419 608.9,423.7 					"/>
				</g>
			</g>
		</g>
		<g>
			<g>
				<line class="st114" x1="609.3" y1="474" x2="609.3" y2="483"/>
				<g>
					<polygon class="st6" points="613.7,482 604.2,482 608.9,486.7 					"/>
				</g>
			</g>
		</g>
	</g>
	<g>
		<path class="st4" d="M716.8,305.2H491.2c-1.5,0-2.8-1.2-2.8-2.8V146.8c0-1.5,1.2-2.8,2.8-2.8h225.6c1.5,0,2.8,1.2,2.8,2.8v155.6
			C719.6,303.9,718.4,305.2,716.8,305.2z"/>
		<g>
			<text transform="matrix(1 0 0 1 584.6708 169.7636)" class="st109 st111">JoB</text>
		</g>
		<g>
			<path class="st29" d="M701.2,221.4H509.7c-1.7,0-3-1.3-3-3v-29.1c0-1.7,1.3-3,3-3h191.5c1.7,0,3,1.3,3,3v29.1
				C704.2,220,702.9,221.4,701.2,221.4z"/>
			<path class="st2" d="M554.6,221.4h-44.9c-1.7,0-3-1.3-3-3v-29.1c0-1.7,1.3-3,3-3h44.9V221.4z"/>
			<text transform="matrix(1 0 0 1 512.9326 208.4512)" class="st4 st109 st112">Task</text>
			<text transform="matrix(1 0 0 1 561.9326 207.5303)" class="st113 st112">ant -Dmodule=A compile</text>
			<polygon class="st29" points="559.3,211 546.7,203.7 559.3,196.4 			"/>
		</g>
		<g>
			<path class="st29" d="M701.2,282.4H509.7c-1.7,0-3-1.3-3-3v-29.1c0-1.7,1.3-3,3-3h191.5c1.7,0,3,1.3,3,3v29.1
				C704.2,281,702.9,282.4,701.2,282.4z"/>
			<path class="st2" d="M554.6,282.4h-44.9c-1.7,0-3-1.3-3-3v-29.1c0-1.7,1.3-3,3-3h44.9V282.4z"/>
			<text transform="matrix(1 0 0 1 512.9326 269.4512)" class="st4 st109 st112">Task</text>
			<text transform="matrix(1 0 0 1 561.9326 268.5303)" class="st113 st112">rspec spec mpdule-A</text>
			<polygon class="st29" points="559.3,272 546.7,264.7 559.3,257.4 			"/>
		</g>
		<g>
			<g>
				<line class="st114" x1="609.3" y1="228" x2="609.3" y2="237"/>
				<g>
					<polygon class="st6" points="613.7,236 604.2,236 608.9,240.7 					"/>
				</g>
			</g>
		</g>
	</g>
</g>
<g>
	<path class="st108" d="M1048.7,394H783.1c-1.8,0-3.2-1.4-3.2-3.2V88.3c0-1.8,1.4-3.2,3.2-3.2h265.6c1.8,0,3.2,1.4,3.2,3.2v302.5
		C1051.9,392.6,1050.5,394,1048.7,394z"/>
	<g>
		<path class="st4" d="M1029.4,365.8H804.7c-1.8,0-3.2-1.5-3.2-3.2V147.3c0-1.8,1.5-3.2,3.2-3.2h224.7c1.8,0,3.2,1.5,3.2,3.2v215.2
			C1032.6,364.3,1031.1,365.8,1029.4,365.8z"/>
		<g>
			<text transform="matrix(1 0 0 1 897.6708 169.7636)" class="st109 st111">JoB</text>
		</g>
		<g>
			<path class="st29" d="M1014.2,221.4H822.7c-1.7,0-3-1.3-3-3v-29.1c0-1.7,1.3-3,3-3h191.5c1.7,0,3,1.3,3,3v29.1
				C1017.2,220,1015.9,221.4,1014.2,221.4z"/>
			<path class="st2" d="M867.6,221.4h-44.9c-1.7,0-3-1.3-3-3v-29.1c0-1.7,1.3-3,3-3h44.9V221.4z"/>
			<text transform="matrix(1 0 0 1 825.9326 208.4512)" class="st4 st109 st112">Task</text>
			<text transform="matrix(1 0 0 1 874.9326 207.5303)" class="st113 st112">ant -Dmodule=A compile</text>
			<polygon class="st29" points="872.3,211 859.7,203.7 872.3,196.4 			"/>
		</g>
		<g>
			<path class="st29" d="M1014.2,282.4H822.7c-1.7,0-3-1.3-3-3v-29.1c0-1.7,1.3-3,3-3h191.5c1.7,0,3,1.3,3,3v29.1
				C1017.2,281,1015.9,282.4,1014.2,282.4z"/>
			<path class="st2" d="M867.6,282.4h-44.9c-1.7,0-3-1.3-3-3v-29.1c0-1.7,1.3-3,3-3h44.9V282.4z"/>
			<text transform="matrix(1 0 0 1 825.9326 269.4512)" class="st4 st109 st112">Task</text>
			<text transform="matrix(1 0 0 1 874.9326 268.5303)" class="st113 st112">rake create_docs</text>
			<polygon class="st29" points="872.3,272 859.7,264.7 872.3,257.4 			"/>
		</g>
		<g>
			<path class="st29" d="M1014.2,343.4H822.7c-1.7,0-3-1.3-3-3v-29.1c0-1.7,1.3-3,3-3h191.5c1.7,0,3,1.3,3,3v29.1
				C1017.2,342,1015.9,343.4,1014.2,343.4z"/>
			<path class="st2" d="M867.6,343.4h-44.9c-1.7,0-3-1.3-3-3v-29.1c0-1.7,1.3-3,3-3h44.9V343.4z"/>
			<text transform="matrix(1 0 0 1 825.9326 330.4512)" class="st4 st109 st112">Task</text>
			<text transform="matrix(1 0 0 1 874.9326 329.5303)" class="st113 st112">create_package.sh</text>
			<polygon class="st29" points="872.3,333 859.7,325.7 872.3,318.4 			"/>
		</g>
		<g>
			<g>
				<line class="st114" x1="922.3" y1="228" x2="922.3" y2="237"/>
				<g>
					<polygon class="st6" points="926.7,236 917.2,236 921.9,240.7 					"/>
				</g>
			</g>
		</g>
		<g>
			<g>
				<line class="st114" x1="922.3" y1="291" x2="922.3" y2="300"/>
				<g>
					<polygon class="st6" points="926.7,299 917.2,299 921.9,303.7 					"/>
				</g>
			</g>
		</g>
	</g>
</g>
<rect x="0" y="319.5" class="st25" width="107.9" height="53.6"/>
<text transform="matrix(1 0 0 1 -8.984375e-05 330.9022)"><tspan x="0" y="0" class="st113 st111">These jobs will </tspan><tspan x="0" y="18" class="st113 st111">run in parallel</tspan></text>
<line class="st115" x1="45.3" y1="216" x2="45.3" y2="305"/>
<g>
	<g>
		<line class="st116" x1="148.3" y1="216" x2="46.3" y2="216"/>
		<g>
			<path class="st6" d="M159.9,216.2c-5.7-2.1-12.7-5.7-17.1-9.5l3.4,9.5l-3.4,9.5C147.2,221.9,154.3,218.3,159.9,216.2z"/>
		</g>
	</g>
</g>
<g>
	<g>
		<line class="st116" x1="455.3" y1="216" x2="425.3" y2="216"/>
		<g>
			<path class="st6" d="M467.4,216.2c-5.7-2.1-12.7-5.7-17.1-9.5l3.4,9.5l-3.4,9.5C454.7,221.9,461.7,218.3,467.4,216.2z"/>
		</g>
	</g>
</g>
<g>
	<g>
		<line class="st116" x1="768.3" y1="216" x2="738.3" y2="216"/>
		<g>
			<path class="st6" d="M780.4,216.2c-5.7-2.1-12.7-5.7-17.1-9.5l3.4,9.5l-3.4,9.5C767.7,221.9,774.7,218.3,780.4,216.2z"/>
		</g>
	</g>
</g>
<line class="st115" x1="45.3" y1="363" x2="45.3" y2="452"/>
<g>
	<g>
		<line class="st116" x1="148.3" y1="451" x2="46.3" y2="451"/>
		<g>
			<path class="st6" d="M159.9,451.2c-5.7-2.1-12.7-5.7-17.1-9.5l3.4,9.5l-3.4,9.5C147.2,456.9,154.3,453.3,159.9,451.2z"/>
		</g>
	</g>
</g>
<text transform="matrix(1 0 0 1 568.7065 117.1499)" class="st35 st109 st110">Stage 2</text>
<text transform="matrix(1 0 0 1 879.7065 117.1499)" class="st35 st109 st110">Stage 3</text>
</svg>
