<?xml version="1.0" encoding="utf-8"?>
<!-- Generator: Adobe Illustrator 19.1.0, SVG Export Plug-In . SVG Version: 6.00 Build 0)  -->
<svg version="1.1" id="Layer_1" xmlns="http://www.w3.org/2000/svg" xmlns:xlink="http://www.w3.org/1999/xlink" x="0px" y="0px"
	 viewBox="0 0 40 40" style="enable-background:new 0 0 40 40;" xml:space="preserve">
<style type="text/css">
	.st0{fill:none;stroke:#1C425C;stroke-width:3;stroke-linecap:round;stroke-linejoin:round;stroke-miterlimit:10;}
	.st1{fill:#F7A600;stroke:#1C425C;stroke-width:3;stroke-miterlimit:10;}
	.st2{fill:#00BFC0;stroke:#1C425C;stroke-width:3;stroke-miterlimit:10;}
	.st3{fill:#9534A0;stroke:#1C425C;stroke-width:3;stroke-miterlimit:10;}
	.st4{fill:#FFFFFF;}
	.st5{fill:none;stroke:#1C425C;stroke-width:2;stroke-linecap:round;stroke-linejoin:round;stroke-miterlimit:10;}
	.st6{fill:#1C425C;}
	.st7{fill:#9534A0;}
	.st8{fill:#FFFAD5;}
	.st9{fill:none;stroke:#1C425C;stroke-width:5.3764;stroke-linecap:round;stroke-linejoin:round;stroke-miterlimit:10;}
	.st10{fill:none;stroke:#1C425C;stroke-linecap:round;stroke-linejoin:round;stroke-miterlimit:10;}
	.st11{fill:#DE572F;stroke:#1C425C;stroke-width:3;stroke-linejoin:round;stroke-miterlimit:10;}
	.st12{fill:#00BFC0;}
	.st13{fill:#F7A600;stroke:#1C425C;stroke-miterlimit:10;}
	.st14{clip-path:url(#SVGID_2_);fill:#F7A600;stroke:#1C425C;stroke-miterlimit:10;}
	.st15{fill:#00BFC0;stroke:#1C425C;stroke-width:2;stroke-miterlimit:10;}
	.st16{fill:#F7A600;stroke:#1C425C;stroke-width:2;stroke-miterlimit:10;}
	.st17{fill:#9534A0;stroke:#1C425C;stroke-width:2;stroke-miterlimit:10;}
	.st18{fill:#DB9E36;stroke:#1C425C;stroke-width:2;stroke-miterlimit:10;}
	.st19{fill:#DE572F;stroke:#1C425C;stroke-width:2;stroke-miterlimit:10;}
	.st20{fill:#FEFEFE;stroke:#1C425C;stroke-width:2;stroke-miterlimit:10;}
	.st21{fill:none;stroke:#9534A0;stroke-width:3;stroke-linejoin:round;}
	.st22{fill:none;stroke:#9534A0;stroke-width:3;stroke-linejoin:round;stroke-dasharray:7.9084,7.9084;}
	.st23{fill:none;stroke:#9534A0;stroke-width:3;stroke-linejoin:round;stroke-dasharray:7.0692,7.0692;}
	.st24{fill:none;stroke:#FF530D;stroke-width:3;stroke-linejoin:round;stroke-dasharray:7.0692,7.0692;}
	.st25{fill:none;}
	.st26{fill:#FF530D;}
	.st27{fill:#00A39F;stroke:#1C425C;stroke-width:3;stroke-miterlimit:10;}
	.st28{fill:none;stroke:#1C425C;stroke-width:3;stroke-linecap:round;stroke-linejoin:round;}
	.st29{fill:#F7A600;}
	.st30{fill:none;stroke:#9534A0;stroke-width:3.262;stroke-linejoin:round;stroke-miterlimit:10;stroke-dasharray:3.262,3.262;}
	.st31{fill:none;stroke:#A6D3EB;stroke-width:3.262;stroke-linejoin:round;}
	.st32{fill:none;stroke:#1C425C;stroke-width:3.262;stroke-linecap:round;stroke-linejoin:round;stroke-miterlimit:10;}
	.st33{fill:#00BFC0;stroke:#023550;stroke-width:4;stroke-miterlimit:10;}
	.st34{fill:none;stroke:#023550;stroke-width:5;stroke-linecap:round;stroke-miterlimit:10;}
	.st35{fill:#023550;}
	.st36{fill:none;stroke:#1C425C;stroke-width:1.348;stroke-linecap:round;stroke-linejoin:round;}
	.st37{fill:none;stroke:#1C425C;stroke-linecap:round;stroke-linejoin:round;}
	.st38{fill:#00BFC0;stroke:#1C425C;stroke-width:1.3481;stroke-miterlimit:10;}
	.st39{fill:#F7A600;stroke:#1C425C;stroke-width:1.3481;stroke-miterlimit:10;}
	.st40{fill:#9534A0;stroke:#1C425C;stroke-width:1.3481;stroke-linejoin:round;stroke-miterlimit:10;}
	.st41{fill:#00BFC0;stroke:#1C425C;stroke-miterlimit:10;}
	.st42{fill:#9534A0;stroke:#1C425C;stroke-miterlimit:10;}
	.st43{fill:#00BFC0;stroke:#1C425C;stroke-width:0.3211;stroke-linejoin:round;stroke-miterlimit:10;}
	.st44{fill:#9534A0;stroke:#1C425C;stroke-width:0.5;stroke-miterlimit:10;}
	.st45{fill:#F7A600;stroke:#1C425C;stroke-width:0.3211;stroke-miterlimit:10;}
	.st46{fill:#211F1F;}
	.st47{fill:#99D9F1;}
	.st48{fill:#7BB9E7;}
	.st49{fill:#232121;}
	.st50{fill:#9AD9F1;}
	.st51{fill:#1C1A1A;}
	.st52{fill:#030304;}
	.st53{fill:#242222;}
	.st54{fill:#222020;}
	.st55{fill:#171414;}
	.st56{fill:#171515;}
	.st57{fill:#181616;}
	.st58{fill:#131111;}
	.st59{fill:#F4CAAF;}
	.st60{fill:#C49A84;}
	.st61{fill:#181718;}
	.st62{fill:#D1A58D;}
	.st63{fill:#181819;}
	.st64{fill:#171718;}
	.st65{fill:#FDFDFD;}
	.st66{fill:#FEFEFE;}
	.st67{fill:#1D1A1A;}
	.st68{fill:#1B1818;}
	.st69{fill:#A1E4FE;}
	.st70{fill:#97D6ED;}
	.st71{fill:#96D4EB;}
	.st72{fill:#97D5ED;}
	.st73{fill:#98D7EE;}
	.st74{fill:#98D7EF;}
	.st75{fill:#91CDE3;}
	.st76{fill:#AF5D50;}
	.st77{fill:#AF5C4F;}
	.st78{fill:#AE5C4F;}
	.st79{fill:#FDFCFC;}
	.st80{fill:none;stroke:#00BFC0;stroke-miterlimit:10;}
	.st81{fill:#9534A0;stroke:#1C425C;stroke-width:0.4299;stroke-linejoin:round;stroke-miterlimit:10;}
	.st82{fill:#00BFC0;stroke:#1C425C;stroke-width:1.3387;stroke-miterlimit:10;}
	.st83{fill:#9534A0;stroke:#1C425C;stroke-width:0.4075;stroke-miterlimit:10;}
	.st84{fill:#F7A600;stroke:#1C425C;stroke-width:0.4075;stroke-miterlimit:10;}
	.st85{fill:#00BFC0;stroke:#1C425C;stroke-width:0.4075;stroke-linejoin:round;stroke-miterlimit:10;}
	.st86{fill:#00BFC0;stroke:#1C425C;stroke-width:0.7137;stroke-miterlimit:10;}
	.st87{fill:#9534A0;stroke:#1C425C;stroke-width:0.7137;stroke-linejoin:round;stroke-miterlimit:10;}
	.st88{fill:#FFFFFF;stroke:#1C425C;stroke-width:0.3827;stroke-miterlimit:10;}
	.st89{fill:#9534A0;stroke:#1C425C;stroke-width:1.284;stroke-linejoin:round;stroke-miterlimit:10;}
	.st90{fill:#010101;}
	.st91{fill:#020202;}
	.st92{fill:#F2F2F2;stroke:#1C425C;stroke-width:1.9094;stroke-linejoin:round;stroke-miterlimit:10;}
	.st93{fill:#F2F2F2;stroke:#023550;stroke-width:2;stroke-miterlimit:10;}
	.st94{fill:none;stroke:#028A9E;stroke-width:2.185;stroke-linecap:round;stroke-miterlimit:10;}
	.st95{fill:#028A9E;}
	.st96{fill:none;stroke:#046D70;stroke-width:2.185;stroke-linecap:round;stroke-miterlimit:10;}
	.st97{fill:#046D70;}
	.st98{fill:none;stroke:#04BFBF;stroke-width:2.185;stroke-linecap:round;stroke-miterlimit:10;}
	.st99{fill:#04BFBF;}
	.st100{fill:#66A6BC;stroke:#023550;stroke-width:1.0085;stroke-linecap:round;stroke-linejoin:round;stroke-miterlimit:10;}
	.st101{fill:#9FE5F7;stroke:#023550;stroke-width:1.0085;stroke-linecap:round;stroke-linejoin:round;stroke-miterlimit:10;}
	.st102{fill:#75BCDA;stroke:#023550;stroke-width:1.0085;stroke-linecap:round;stroke-linejoin:round;stroke-miterlimit:10;}
	.st103{fill:#F2F2F2;stroke:#023550;stroke-width:1.0085;stroke-linecap:round;stroke-linejoin:round;stroke-miterlimit:10;}
	.st104{fill:#9534A0;stroke:#1C425C;stroke-width:2;stroke-linejoin:round;stroke-miterlimit:10;}
	.st105{fill:none;stroke:#1C425C;stroke-width:1.909;stroke-linejoin:round;stroke-miterlimit:10;stroke-dasharray:5,5,5,5,5,5;}
	.st106{fill:#BABABA;}
	.st107{fill:none;stroke:#1C425C;stroke-width:2;stroke-miterlimit:10;}
	.st108{fill:#FFFFFF;stroke:#1C425C;stroke-width:2;stroke-linejoin:round;stroke-miterlimit:10;}
	.st109{fill:none;stroke:#1C425C;stroke-width:2;stroke-linejoin:round;}
	.st110{clip-path:url(#SVGID_4_);fill:#DB9E36;stroke:#1C425C;stroke-width:2;stroke-miterlimit:10;}
	.st111{fill:#DE572F;stroke:#1C425C;stroke-width:0.5;stroke-miterlimit:10;}
	.st112{fill:#439F83;stroke:#1C425C;stroke-width:0.5;stroke-miterlimit:10;}
	.st113{fill:#DB9E36;stroke:#1C425C;stroke-width:0.5;stroke-miterlimit:10;}
	.st114{fill:#439F83;stroke:#1C425C;stroke-width:1.3387;stroke-miterlimit:10;}
	.st115{fill:#DE572F;stroke:#1C425C;stroke-width:0.3211;stroke-linejoin:round;stroke-miterlimit:10;}
	.st116{fill:#439F83;stroke:#1C425C;stroke-width:0.3211;stroke-miterlimit:10;}
	.st117{fill:#0C3034;}
</style>
<g id="lrga6E.tif">
	<g>
		<path d="M1.2,8.9c1.2,0,2.4,0.1,3.6,0.3C6.4,9.5,8,10.1,9.4,11c0.9,0.5,1.7,1.1,2.5,1.8c1.2,1,2.3,2.2,3.5,3.3
			c0.6,0.6,1.2,1.2,2.1,1.5c0.4,0.1,0.8,0.2,1.2,0.2c3.6,0,7.2,0,10.8,0c0.1,0,0.2,0,0.3,0c0-0.1,0-0.2-0.1-0.3
			c-0.6-1.5-1.2-2.9-1.7-4.4c0-0.1-0.1-0.1-0.1-0.2c0-0.2,0-0.4,0.1-0.5c0.2-0.1,0.4-0.1,0.5,0.1c0.9,0.7,1.7,1.3,2.6,2
			c1.5,1.1,3,2.3,4.5,3.4c0.8,0.6,1.6,1.3,2.5,1.9c0.4,0.3,0.4,0.5,0,0.8c-1.7,1.3-3.4,2.6-5.1,3.9c-1.4,1.1-2.9,2.2-4.3,3.3
			c-0.2,0.2-0.4,0.3-0.6,0.1c-0.2-0.2-0.2-0.4-0.1-0.6c0.5-1.3,1-2.6,1.5-3.9c0.1-0.3,0.2-0.5,0.3-0.8c-0.2,0-0.3,0-0.4,0
			c-3.6,0-7.1,0-10.7,0c-1,0-1.8,0.4-2.5,1c-1.3,1.2-2.6,2.5-3.9,3.7c-1.4,1.3-3.1,2.3-4.9,3.1c-1.9,0.8-3.9,1.1-5.9,1.1
			c-0.1,0-0.2,0-0.2,0c0-1.6,0-3.2,0-4.7c0,0,0.1,0,0.1,0c3.1,0,5.8-1.1,8-3.2c0.9-0.8,1.7-1.6,2.5-2.4c0.3-0.3,0.7-0.6,1-0.9
			c-0.3-0.3-0.6-0.6-0.9-0.9c-1-0.9-2-1.9-3-2.8c-1.5-1.3-3.2-2.3-5.2-2.6c-0.8-0.2-1.7-0.2-2.6-0.2C1.2,12,1.2,10.4,1.2,8.9z"/>
	</g>
</g>
</svg>
