<?xml version="1.0" encoding="utf-8"?>
<!-- Generator: Adobe Illustrator 19.1.0, SVG Export Plug-In . SVG Version: 6.00 Build 0)  -->
<svg version="1.1" id="Layer_1" xmlns="http://www.w3.org/2000/svg" xmlns:xlink="http://www.w3.org/1999/xlink" x="0px" y="0px"
	 viewBox="0 0 75.1 71.1" style="enable-background:new 0 0 75.1 71.1;" xml:space="preserve">
<style type="text/css">
	.st0{fill:none;stroke:#1C425C;stroke-width:3;stroke-linecap:round;stroke-linejoin:round;stroke-miterlimit:10;}
	.st1{fill:#F7A600;stroke:#1C425C;stroke-width:3;stroke-miterlimit:10;}
	.st2{fill:#00BFC0;stroke:#1C425C;stroke-width:3;stroke-miterlimit:10;}
	.st3{fill:#9534A0;stroke:#1C425C;stroke-width:3;stroke-miterlimit:10;}
	.st4{fill:#FFFFFF;}
	.st5{fill:none;stroke:#1C425C;stroke-width:2;stroke-linecap:round;stroke-linejoin:round;stroke-miterlimit:10;}
	.st6{fill:#1C425C;}
	.st7{fill:#9534A0;}
	.st8{fill:#FFFAD5;}
	.st9{fill:none;stroke:#1C425C;stroke-width:5.3764;stroke-linecap:round;stroke-linejoin:round;stroke-miterlimit:10;}
	.st10{fill:none;stroke:#1C425C;stroke-linecap:round;stroke-linejoin:round;stroke-miterlimit:10;}
	.st11{fill:#DE572F;stroke:#1C425C;stroke-width:3;stroke-linejoin:round;stroke-miterlimit:10;}
	.st12{fill:#00BFC0;}
	.st13{fill:#F7A600;stroke:#1C425C;stroke-miterlimit:10;}
	.st14{clip-path:url(#SVGID_2_);fill:#F7A600;stroke:#1C425C;stroke-miterlimit:10;}
	.st15{fill:#00BFC0;stroke:#1C425C;stroke-width:2;stroke-miterlimit:10;}
	.st16{fill:#F7A600;stroke:#1C425C;stroke-width:2;stroke-miterlimit:10;}
	.st17{fill:#9534A0;stroke:#1C425C;stroke-width:2;stroke-miterlimit:10;}
	.st18{fill:#DB9E36;stroke:#1C425C;stroke-width:2;stroke-miterlimit:10;}
	.st19{fill:#DE572F;stroke:#1C425C;stroke-width:2;stroke-miterlimit:10;}
	.st20{fill:#FEFEFE;stroke:#1C425C;stroke-width:2;stroke-miterlimit:10;}
	.st21{fill:none;stroke:#9534A0;stroke-width:3;stroke-linejoin:round;}
	.st22{fill:none;stroke:#9534A0;stroke-width:3;stroke-linejoin:round;stroke-dasharray:7.9084,7.9084;}
	.st23{fill:none;stroke:#9534A0;stroke-width:3;stroke-linejoin:round;stroke-dasharray:7.0692,7.0692;}
	.st24{fill:none;stroke:#FF530D;stroke-width:3;stroke-linejoin:round;stroke-dasharray:7.0692,7.0692;}
	.st25{fill:none;}
	.st26{fill:#FF530D;}
	.st27{fill:#00A39F;stroke:#1C425C;stroke-width:3;stroke-miterlimit:10;}
	.st28{fill:none;stroke:#1C425C;stroke-width:3;stroke-linecap:round;stroke-linejoin:round;}
	.st29{fill:#F7A600;}
	.st30{fill:none;stroke:#9534A0;stroke-width:3.262;stroke-linejoin:round;stroke-miterlimit:10;stroke-dasharray:3.262,3.262;}
	.st31{fill:none;stroke:#A6D3EB;stroke-width:3.262;stroke-linejoin:round;}
	.st32{fill:none;stroke:#1C425C;stroke-width:3.262;stroke-linecap:round;stroke-linejoin:round;stroke-miterlimit:10;}
	.st33{fill:#00BFC0;stroke:#023550;stroke-width:4;stroke-miterlimit:10;}
	.st34{fill:none;stroke:#023550;stroke-width:5;stroke-linecap:round;stroke-miterlimit:10;}
	.st35{fill:#023550;}
	.st36{fill:none;stroke:#1C425C;stroke-width:1.348;stroke-linecap:round;stroke-linejoin:round;}
	.st37{fill:none;stroke:#1C425C;stroke-linecap:round;stroke-linejoin:round;}
	.st38{fill:#00BFC0;stroke:#1C425C;stroke-width:1.3481;stroke-miterlimit:10;}
	.st39{fill:#F7A600;stroke:#1C425C;stroke-width:1.3481;stroke-miterlimit:10;}
	.st40{fill:#9534A0;stroke:#1C425C;stroke-width:1.3481;stroke-linejoin:round;stroke-miterlimit:10;}
	.st41{fill:#00BFC0;stroke:#1C425C;stroke-miterlimit:10;}
	.st42{fill:#9534A0;stroke:#1C425C;stroke-miterlimit:10;}
	.st43{fill:#00BFC0;stroke:#1C425C;stroke-width:0.3211;stroke-linejoin:round;stroke-miterlimit:10;}
	.st44{fill:#9534A0;stroke:#1C425C;stroke-width:0.5;stroke-miterlimit:10;}
	.st45{fill:#F7A600;stroke:#1C425C;stroke-width:0.3211;stroke-miterlimit:10;}
	.st46{fill:#211F1F;}
	.st47{fill:#99D9F1;}
	.st48{fill:#7BB9E7;}
	.st49{fill:#232121;}
	.st50{fill:#9AD9F1;}
	.st51{fill:#1C1A1A;}
	.st52{fill:#030304;}
	.st53{fill:#242222;}
	.st54{fill:#222020;}
	.st55{fill:#171414;}
	.st56{fill:#171515;}
	.st57{fill:#181616;}
	.st58{fill:#131111;}
	.st59{fill:#F4CAAF;}
	.st60{fill:#C49A84;}
	.st61{fill:#181718;}
	.st62{fill:#D1A58D;}
	.st63{fill:#181819;}
	.st64{fill:#171718;}
	.st65{fill:#FDFDFD;}
	.st66{fill:#FEFEFE;}
	.st67{fill:#1D1A1A;}
	.st68{fill:#1B1818;}
	.st69{fill:#A1E4FE;}
	.st70{fill:#97D6ED;}
	.st71{fill:#96D4EB;}
	.st72{fill:#97D5ED;}
	.st73{fill:#98D7EE;}
	.st74{fill:#98D7EF;}
	.st75{fill:#91CDE3;}
	.st76{fill:#AF5D50;}
	.st77{fill:#AF5C4F;}
	.st78{fill:#AE5C4F;}
	.st79{fill:#FDFCFC;}
	.st80{fill:none;stroke:#00BFC0;stroke-miterlimit:10;}
	.st81{fill:#9534A0;stroke:#1C425C;stroke-width:0.4299;stroke-linejoin:round;stroke-miterlimit:10;}
	.st82{fill:#00BFC0;stroke:#1C425C;stroke-width:1.3387;stroke-miterlimit:10;}
	.st83{fill:#9534A0;stroke:#1C425C;stroke-width:0.4075;stroke-miterlimit:10;}
	.st84{fill:#F7A600;stroke:#1C425C;stroke-width:0.4075;stroke-miterlimit:10;}
	.st85{fill:#00BFC0;stroke:#1C425C;stroke-width:0.4075;stroke-linejoin:round;stroke-miterlimit:10;}
	.st86{fill:#00BFC0;stroke:#1C425C;stroke-width:0.7137;stroke-miterlimit:10;}
	.st87{fill:#9534A0;stroke:#1C425C;stroke-width:0.7137;stroke-linejoin:round;stroke-miterlimit:10;}
	.st88{fill:#FFFFFF;stroke:#1C425C;stroke-width:0.3827;stroke-miterlimit:10;}
	.st89{fill:#9534A0;stroke:#1C425C;stroke-width:1.284;stroke-linejoin:round;stroke-miterlimit:10;}
	.st90{fill:#010101;}
	.st91{fill:#020202;}
	.st92{fill:#F2F2F2;stroke:#1C425C;stroke-width:1.9094;stroke-linejoin:round;stroke-miterlimit:10;}
	.st93{fill:#F2F2F2;stroke:#023550;stroke-width:2;stroke-miterlimit:10;}
	.st94{fill:none;stroke:#028A9E;stroke-width:2.185;stroke-linecap:round;stroke-miterlimit:10;}
	.st95{fill:#028A9E;}
	.st96{fill:none;stroke:#046D70;stroke-width:2.185;stroke-linecap:round;stroke-miterlimit:10;}
	.st97{fill:#046D70;}
	.st98{fill:none;stroke:#04BFBF;stroke-width:2.185;stroke-linecap:round;stroke-miterlimit:10;}
	.st99{fill:#04BFBF;}
	.st100{fill:#66A6BC;stroke:#023550;stroke-width:1.0085;stroke-linecap:round;stroke-linejoin:round;stroke-miterlimit:10;}
	.st101{fill:#9FE5F7;stroke:#023550;stroke-width:1.0085;stroke-linecap:round;stroke-linejoin:round;stroke-miterlimit:10;}
	.st102{fill:#75BCDA;stroke:#023550;stroke-width:1.0085;stroke-linecap:round;stroke-linejoin:round;stroke-miterlimit:10;}
	.st103{fill:#F2F2F2;stroke:#023550;stroke-width:1.0085;stroke-linecap:round;stroke-linejoin:round;stroke-miterlimit:10;}
	.st104{fill:#9534A0;stroke:#1C425C;stroke-width:2;stroke-linejoin:round;stroke-miterlimit:10;}
	.st105{fill:none;stroke:#1C425C;stroke-width:1.909;stroke-linejoin:round;stroke-miterlimit:10;stroke-dasharray:5,5,5,5,5,5;}
	.st106{fill:#BABABA;}
	.st107{fill:none;stroke:#1C425C;stroke-width:2;stroke-miterlimit:10;}
	.st108{fill:#FFFFFF;stroke:#1C425C;stroke-width:2;stroke-linejoin:round;stroke-miterlimit:10;}
	.st109{fill:none;stroke:#1C425C;stroke-width:2;stroke-linejoin:round;}
	.st110{clip-path:url(#SVGID_4_);fill:#DB9E36;stroke:#1C425C;stroke-width:2;stroke-miterlimit:10;}
	.st111{fill:#DE572F;stroke:#1C425C;stroke-width:0.5;stroke-miterlimit:10;}
	.st112{fill:#439F83;stroke:#1C425C;stroke-width:0.5;stroke-miterlimit:10;}
	.st113{fill:#DB9E36;stroke:#1C425C;stroke-width:0.5;stroke-miterlimit:10;}
	.st114{fill:#439F83;stroke:#1C425C;stroke-width:1.3387;stroke-miterlimit:10;}
	.st115{fill:#DE572F;stroke:#1C425C;stroke-width:0.3211;stroke-linejoin:round;stroke-miterlimit:10;}
	.st116{fill:#439F83;stroke:#1C425C;stroke-width:0.3211;stroke-miterlimit:10;}
	.st117{fill:#0C3034;}
</style>
<g>
	<path class="st41" d="M26.1,51.7c0-0.4,0-0.8,0-1.2c0-0.9,0.5-1.4,1.4-1.4c0.4,0,0.8,0,1.3,0c1.5,0,2.7-1.1,2.7-2.7
		c0-0.9,0-1.8,0-2.8c-1.5,0-2.8,0-4.2,0c-3.1,0-6.2,0-9.4,0c-2.9,0-5.3-2.4-5.3-5.3c16.1,0,32.3,0,48.5,0c0-10.8,0-21.6,0-32.4
		c-16.1,0-32.3,0-48.4,0c-0.3-2.2,1.5-4.7,4-5.2c0.5-0.1,1.1-0.2,1.6-0.2c14.2,0,28.4,0,42.6,0c3.3,0,5.6,2.3,5.6,5.6
		c0,10.6,0,21.3,0,31.9c0,3.2-2.3,5.6-5.6,5.6c-4.4,0-8.8,0-13.2,0c0,1.2-0.1,2.3,0,3.4c0.2,1.2,1.3,1.9,2.5,2c0.1,0,0.3,0,0.4,0
		c2.2,0,2.4,0.3,2.3,2.6C44,51.7,35.1,51.7,26.1,51.7z"/>
	<path class="st41" d="M39.5,70.6c-10.6,0-21.2,0-31.8,0c-2.2,0-3.1-1-3.2-3.2c-0.1-1.5,0.4-2.7,1.5-3.7c2.6-2.4,5-5,7.5-7.5
		c1.2-1.2,2.6-1.8,4.2-1.8c14.5,0,29.1,0,43.6,0c1.6,0,3,0.6,4.1,1.7c2.7,2.7,5.4,5.4,8.1,8.1c1.1,1.1,1.4,3.7,0.6,5
		c-0.6,0.9-1.4,1.3-2.5,1.3c-2.5,0-4.9,0-7.4,0C56,70.6,47.8,70.6,39.5,70.6z M39.5,65.2c5.2,0,10.4,0,15.7,0c0.3,0,0.5,0,0.8,0
		c0.7-0.1,1.2-0.6,1.1-1.3c0-0.7-0.4-1.2-1.2-1.3c-0.2,0-0.5,0-0.8,0c-10.4,0-20.8,0-31.3,0c-0.3,0-0.5,0-0.8,0
		c-0.7,0.1-1.1,0.6-1.1,1.3c0,0.7,0.4,1.2,1.2,1.3c0.2,0,0.5,0,0.8,0C29.1,65.2,34.3,65.2,39.5,65.2z M57,59.8c1.3,0,2.5,0,3.8,0
		c1,0,1.7-0.5,1.6-1.4c0-0.8-0.6-1.3-1.6-1.3c-2.6,0-5.1,0-7.7,0c-1,0-1.6,0.6-1.6,1.4c0,0.8,0.6,1.3,1.6,1.3
		C54.5,59.9,55.8,59.8,57,59.8z M20.7,59.8c0.9,0,1.8,0,2.7,0c0.8,0,1.3-0.6,1.4-1.3c0-0.8-0.5-1.4-1.4-1.4c-1.8,0-3.5,0-5.3,0
		c-0.9,0-1.4,0.6-1.4,1.3c0,0.8,0.5,1.4,1.5,1.4C18.9,59.9,19.8,59.8,20.7,59.8z M15.2,65.2c0.9,0,1.7,0,2.6,0
		c0.9,0,1.5-0.6,1.5-1.4c0-0.8-0.6-1.3-1.4-1.3c-1.7,0-3.5,0-5.2,0c-0.9,0-1.5,0.6-1.5,1.4c0,0.8,0.6,1.3,1.4,1.3
		C13.5,65.3,14.4,65.2,15.2,65.2z M63.9,62.5c-0.9,0-1.8,0-2.7,0c-0.9,0-1.5,0.6-1.5,1.4c0,0.8,0.6,1.3,1.4,1.3c1.7,0,3.5,0,5.2,0
		c0.9,0,1.5-0.6,1.5-1.4c0-0.8-0.6-1.3-1.5-1.3C65.5,62.5,64.7,62.5,63.9,62.5z M30.1,59.8c0.4,0,0.9,0,1.3,0c0.8,0,1.4-0.6,1.4-1.4
		c0-0.7-0.5-1.3-1.3-1.3c-0.9,0-1.8,0-2.8,0c-0.8,0-1.3,0.6-1.3,1.4c0,0.7,0.5,1.3,1.3,1.3C29.2,59.9,29.6,59.8,30.1,59.8z
		 M38.2,59.8C38.2,59.8,38.2,59.8,38.2,59.8c0.5,0,1,0,1.4,0c0.8-0.1,1.3-0.6,1.3-1.4c0-0.7-0.5-1.3-1.3-1.3c-1,0-1.9,0-2.9,0
		c-0.8,0-1.3,0.6-1.3,1.4c0,0.7,0.6,1.3,1.3,1.3C37.3,59.9,37.7,59.8,38.2,59.8z M46.3,59.8c0.5,0,1,0,1.4,0
		c0.8-0.1,1.3-0.6,1.3-1.4c0-0.7-0.5-1.3-1.3-1.3c-1,0-1.9,0-2.9,0c-0.8,0-1.3,0.6-1.3,1.4c0,0.7,0.5,1.3,1.3,1.3
		C45.3,59.9,45.8,59.8,46.3,59.8z"/>
	<path class="st29" d="M39.5,65.2c-5.2,0-10.4,0-15.6,0c-0.3,0-0.5,0-0.8,0c-0.7-0.1-1.2-0.6-1.2-1.3c0-0.7,0.4-1.2,1.1-1.3
		c0.2,0,0.5,0,0.8,0c10.4,0,20.8,0,31.3,0c0.3,0,0.5,0,0.8,0c0.7,0.1,1.2,0.6,1.2,1.3c0,0.7-0.4,1.2-1.1,1.3c-0.2,0-0.5,0-0.8,0
		C49.9,65.2,44.7,65.2,39.5,65.2z"/>
	<path class="st29" d="M57,59.8c-1.3,0-2.5,0-3.8,0c-1,0-1.6-0.5-1.6-1.3c0-0.8,0.6-1.4,1.6-1.4c2.6,0,5.1,0,7.7,0
		c1,0,1.6,0.5,1.6,1.3c0,0.9-0.6,1.4-1.6,1.4C59.6,59.8,58.3,59.8,57,59.8z"/>
	<path class="st29" d="M20.7,59.8c-0.9,0-1.7,0-2.6,0c-0.9,0-1.5-0.6-1.5-1.4c0-0.8,0.6-1.3,1.4-1.3c1.8,0,3.5,0,5.3,0
		c0.8,0,1.4,0.6,1.4,1.4c0,0.7-0.6,1.3-1.4,1.3C22.4,59.9,21.5,59.8,20.7,59.8z"/>
	<path class="st29" d="M15.2,65.2c-0.9,0-1.7,0-2.6,0c-0.9,0-1.4-0.6-1.4-1.3c0-0.8,0.6-1.4,1.5-1.4c1.7,0,3.5,0,5.2,0
		c0.9,0,1.4,0.6,1.4,1.3c0,0.8-0.6,1.4-1.5,1.4C17,65.3,16.1,65.2,15.2,65.2z"/>
	<path class="st29" d="M63.9,62.5c0.8,0,1.6,0,2.4,0c0.9,0,1.5,0.5,1.5,1.3c0,0.8-0.6,1.4-1.5,1.4c-1.7,0-3.5,0-5.2,0
		c-0.9,0-1.4-0.6-1.4-1.3c0-0.8,0.6-1.4,1.5-1.4C62.1,62.5,63,62.5,63.9,62.5z"/>
	<path class="st29" d="M30.1,59.8c-0.4,0-0.9,0-1.3,0c-0.8,0-1.3-0.6-1.3-1.3c0-0.7,0.5-1.3,1.3-1.4c0.9,0,1.8,0,2.8,0
		c0.8,0,1.3,0.6,1.3,1.3c0,0.8-0.5,1.3-1.4,1.4C31,59.9,30.5,59.8,30.1,59.8z"/>
	<path class="st29" d="M38.2,59.8c-0.4,0-0.9,0-1.3,0c-0.8,0-1.3-0.6-1.3-1.3c0-0.7,0.5-1.3,1.3-1.4c1,0,1.9,0,2.9,0
		c0.7,0,1.3,0.6,1.3,1.3c0,0.7-0.5,1.3-1.3,1.4C39.1,59.9,38.6,59.8,38.2,59.8C38.2,59.8,38.2,59.8,38.2,59.8z"/>
	<path class="st29" d="M46.3,59.8c-0.5,0-1,0-1.4,0c-0.7-0.1-1.3-0.6-1.3-1.3c0-0.7,0.5-1.3,1.3-1.4c1,0,1.9,0,2.9,0
		c0.7,0,1.3,0.6,1.3,1.3c0,0.7-0.5,1.3-1.3,1.4C47.2,59.9,46.7,59.8,46.3,59.8z"/>
</g>
<path class="st42" d="M12.6,34.5C12.6,34.5,12.6,34.5,12.6,34.5c0-2.3,0-4.6,0-6.9c-4.1,0-8.1,0-12.1,0c0-3.5,0-6.9,0-10.4
	c4,0,8.1,0,12.1,0c0-2.3,0-4.6,0-6.9c0,0,0,0,0,0c0,0.1,0.1,0.1,0.1,0.2c1,1,1.9,1.9,2.9,2.9c0.9,0.9,1.8,1.8,2.7,2.7
	c0.9,0.9,1.8,1.8,2.6,2.6c0.8,0.8,1.6,1.6,2.4,2.4c0.4,0.4,0.9,0.9,1.3,1.3c0,0,0,0.1,0,0.1c-0.6,0.6-1.1,1.1-1.7,1.7
	c-1,1-2.1,2.1-3.1,3.1c-1.2,1.2-2.3,2.3-3.5,3.5c-1.2,1.2-2.3,2.3-3.5,3.5C12.8,34.3,12.7,34.4,12.6,34.5z"/>
</svg>
