<?xml version="1.0" encoding="utf-8"?>
<!-- Generator: Adobe Illustrator 19.1.0, SVG Export Plug-In . SVG Version: 6.00 Build 0)  -->
<svg version="1.1" id="Layer_1" xmlns="http://www.w3.org/2000/svg" xmlns:xlink="http://www.w3.org/1999/xlink" x="0px" y="0px"
	 viewBox="0 0 516 235" style="enable-background:new 0 0 516 235;" xml:space="preserve">
<style type="text/css">
	.st0{fill:none;stroke:#1C425C;stroke-width:3;stroke-linecap:round;stroke-linejoin:round;stroke-miterlimit:10;}
	.st1{fill:#F7A600;stroke:#1C425C;stroke-width:3;stroke-miterlimit:10;}
	.st2{fill:#00BFC0;stroke:#1C425C;stroke-width:3;stroke-miterlimit:10;}
	.st3{fill:#9534A0;stroke:#1C425C;stroke-width:3;stroke-miterlimit:10;}
	.st4{fill:#FFFFFF;}
	.st5{fill:none;stroke:#1C425C;stroke-width:2;stroke-linecap:round;stroke-linejoin:round;stroke-miterlimit:10;}
	.st6{fill:#1C425C;}
	.st7{fill:#9534A0;}
	.st8{fill:#FFFAD5;}
	.st9{fill:none;stroke:#1C425C;stroke-width:5.3764;stroke-linecap:round;stroke-linejoin:round;stroke-miterlimit:10;}
	.st10{fill:none;stroke:#1C425C;stroke-linecap:round;stroke-linejoin:round;stroke-miterlimit:10;}
	.st11{fill:#DE572F;stroke:#1C425C;stroke-width:3;stroke-linejoin:round;stroke-miterlimit:10;}
	.st12{fill:#00BFC0;}
	.st13{fill:#F7A600;stroke:#1C425C;stroke-miterlimit:10;}
	.st14{clip-path:url(#SVGID_2_);fill:#F7A600;stroke:#1C425C;stroke-miterlimit:10;}
	.st15{fill:#00BFC0;stroke:#1C425C;stroke-width:2;stroke-miterlimit:10;}
	.st16{fill:#F7A600;stroke:#1C425C;stroke-width:2;stroke-miterlimit:10;}
	.st17{fill:#9534A0;stroke:#1C425C;stroke-width:2;stroke-miterlimit:10;}
	.st18{fill:#DB9E36;stroke:#1C425C;stroke-width:2;stroke-miterlimit:10;}
	.st19{fill:#DE572F;stroke:#1C425C;stroke-width:2;stroke-miterlimit:10;}
	.st20{fill:#FEFEFE;stroke:#1C425C;stroke-width:2;stroke-miterlimit:10;}
	.st21{fill:none;stroke:#9534A0;stroke-width:3;stroke-linejoin:round;}
	.st22{fill:none;stroke:#9534A0;stroke-width:3;stroke-linejoin:round;stroke-dasharray:7.9084,7.9084;}
	.st23{fill:none;stroke:#9534A0;stroke-width:3;stroke-linejoin:round;stroke-dasharray:7.0692,7.0692;}
	.st24{fill:none;stroke:#FF530D;stroke-width:3;stroke-linejoin:round;stroke-dasharray:7.0692,7.0692;}
	.st25{fill:none;}
	.st26{fill:#FF530D;}
	.st27{fill:#00A39F;stroke:#1C425C;stroke-width:3;stroke-miterlimit:10;}
	.st28{fill:none;stroke:#1C425C;stroke-width:3;stroke-linecap:round;stroke-linejoin:round;}
	.st29{fill:#F7A600;}
	.st30{fill:none;stroke:#9534A0;stroke-width:3.262;stroke-linejoin:round;stroke-miterlimit:10;stroke-dasharray:3.262,3.262;}
	.st31{fill:none;stroke:#A6D3EB;stroke-width:3.262;stroke-linejoin:round;}
	.st32{fill:none;stroke:#1C425C;stroke-width:3.262;stroke-linecap:round;stroke-linejoin:round;stroke-miterlimit:10;}
	.st33{fill:#00BFC0;stroke:#023550;stroke-width:4;stroke-miterlimit:10;}
	.st34{fill:none;stroke:#023550;stroke-width:5;stroke-linecap:round;stroke-miterlimit:10;}
	.st35{fill:#023550;}
	.st36{fill:none;stroke:#1C425C;stroke-width:1.348;stroke-linecap:round;stroke-linejoin:round;}
	.st37{fill:none;stroke:#1C425C;stroke-linecap:round;stroke-linejoin:round;}
	.st38{fill:#00BFC0;stroke:#1C425C;stroke-width:1.3481;stroke-miterlimit:10;}
	.st39{fill:#F7A600;stroke:#1C425C;stroke-width:1.3481;stroke-miterlimit:10;}
	.st40{fill:#9534A0;stroke:#1C425C;stroke-width:1.3481;stroke-linejoin:round;stroke-miterlimit:10;}
	.st41{fill:#00BFC0;stroke:#1C425C;stroke-miterlimit:10;}
	.st42{fill:#9534A0;stroke:#1C425C;stroke-miterlimit:10;}
	.st43{fill:#00BFC0;stroke:#1C425C;stroke-width:0.3211;stroke-linejoin:round;stroke-miterlimit:10;}
	.st44{fill:#9534A0;stroke:#1C425C;stroke-width:0.5;stroke-miterlimit:10;}
	.st45{fill:#F7A600;stroke:#1C425C;stroke-width:0.3211;stroke-miterlimit:10;}
	.st46{fill:#211F1F;}
	.st47{fill:#99D9F1;}
	.st48{fill:#7BB9E7;}
	.st49{fill:#232121;}
	.st50{fill:#9AD9F1;}
	.st51{fill:#1C1A1A;}
	.st52{fill:#030304;}
	.st53{fill:#242222;}
	.st54{fill:#222020;}
	.st55{fill:#171414;}
	.st56{fill:#171515;}
	.st57{fill:#181616;}
	.st58{fill:#131111;}
	.st59{fill:#F4CAAF;}
	.st60{fill:#C49A84;}
	.st61{fill:#181718;}
	.st62{fill:#D1A58D;}
	.st63{fill:#181819;}
	.st64{fill:#171718;}
	.st65{fill:#FDFDFD;}
	.st66{fill:#FEFEFE;}
	.st67{fill:#1D1A1A;}
	.st68{fill:#1B1818;}
	.st69{fill:#A1E4FE;}
	.st70{fill:#97D6ED;}
	.st71{fill:#96D4EB;}
	.st72{fill:#97D5ED;}
	.st73{fill:#98D7EE;}
	.st74{fill:#98D7EF;}
	.st75{fill:#91CDE3;}
	.st76{fill:#AF5D50;}
	.st77{fill:#AF5C4F;}
	.st78{fill:#AE5C4F;}
	.st79{fill:#FDFCFC;}
	.st80{fill:none;stroke:#00BFC0;stroke-miterlimit:10;}
	.st81{fill:#9534A0;stroke:#1C425C;stroke-width:0.4299;stroke-linejoin:round;stroke-miterlimit:10;}
	.st82{fill:#00BFC0;stroke:#1C425C;stroke-width:1.3387;stroke-miterlimit:10;}
	.st83{fill:#9534A0;stroke:#1C425C;stroke-width:0.4075;stroke-miterlimit:10;}
	.st84{fill:#F7A600;stroke:#1C425C;stroke-width:0.4075;stroke-miterlimit:10;}
	.st85{fill:#00BFC0;stroke:#1C425C;stroke-width:0.4075;stroke-linejoin:round;stroke-miterlimit:10;}
	.st86{fill:#00BFC0;stroke:#1C425C;stroke-width:0.7137;stroke-miterlimit:10;}
	.st87{fill:#9534A0;stroke:#1C425C;stroke-width:0.7137;stroke-linejoin:round;stroke-miterlimit:10;}
	.st88{fill:#FFFFFF;stroke:#1C425C;stroke-width:0.3827;stroke-miterlimit:10;}
	.st89{fill:#9534A0;stroke:#1C425C;stroke-width:1.284;stroke-linejoin:round;stroke-miterlimit:10;}
	.st90{fill:#010101;}
	.st91{fill:#020202;}
	.st92{fill:#F2F2F2;stroke:#1C425C;stroke-width:1.9094;stroke-linejoin:round;stroke-miterlimit:10;}
	.st93{font-family:'OpenSans';}
	.st94{font-size:14px;}
	.st95{fill:#F2F2F2;stroke:#023550;stroke-width:2;stroke-miterlimit:10;}
	.st96{fill:none;stroke:#028A9E;stroke-width:2.185;stroke-linecap:round;stroke-miterlimit:10;}
	.st97{fill:#028A9E;}
	.st98{fill:none;stroke:#046D70;stroke-width:2.185;stroke-linecap:round;stroke-miterlimit:10;}
	.st99{fill:#046D70;}
	.st100{fill:none;stroke:#04BFBF;stroke-width:2.185;stroke-linecap:round;stroke-miterlimit:10;}
	.st101{fill:#04BFBF;}
	.st102{font-family:'OpenSans-Semibold';}
	.st103{font-size:7px;}
	.st104{fill:#66A6BC;stroke:#023550;stroke-width:1.0085;stroke-linecap:round;stroke-linejoin:round;stroke-miterlimit:10;}
	.st105{fill:#9FE5F7;stroke:#023550;stroke-width:1.0085;stroke-linecap:round;stroke-linejoin:round;stroke-miterlimit:10;}
	.st106{fill:#75BCDA;stroke:#023550;stroke-width:1.0085;stroke-linecap:round;stroke-linejoin:round;stroke-miterlimit:10;}
	.st107{fill:#F2F2F2;stroke:#023550;stroke-width:1.0085;stroke-linecap:round;stroke-linejoin:round;stroke-miterlimit:10;}
	.st108{fill:#9534A0;stroke:#1C425C;stroke-width:2;stroke-linejoin:round;stroke-miterlimit:10;}
	.st109{font-size:13px;}
	.st110{fill:none;stroke:#1C425C;stroke-width:1.909;stroke-linejoin:round;stroke-miterlimit:10;stroke-dasharray:5,5,5,5,5,5;}
	.st111{fill:#BABABA;}
	.st112{fill:none;stroke:#1C425C;stroke-width:2;stroke-miterlimit:10;}
	.st113{fill:#FFFFFF;stroke:#1C425C;stroke-width:2;stroke-linejoin:round;stroke-miterlimit:10;}
	.st114{fill:none;stroke:#1C425C;stroke-width:2;stroke-linejoin:round;}
	.st115{clip-path:url(#SVGID_4_);fill:#DB9E36;stroke:#1C425C;stroke-width:2;stroke-miterlimit:10;}
	.st116{fill:#DE572F;stroke:#1C425C;stroke-width:0.5;stroke-miterlimit:10;}
	.st117{fill:#439F83;stroke:#1C425C;stroke-width:0.5;stroke-miterlimit:10;}
	.st118{fill:#DB9E36;stroke:#1C425C;stroke-width:0.5;stroke-miterlimit:10;}
	.st119{fill:#439F83;stroke:#1C425C;stroke-width:1.3387;stroke-miterlimit:10;}
	.st120{fill:#DE572F;stroke:#1C425C;stroke-width:0.3211;stroke-linejoin:round;stroke-miterlimit:10;}
	.st121{fill:#439F83;stroke:#1C425C;stroke-width:0.3211;stroke-miterlimit:10;}
	.st122{fill:#0C3034;}
</style>
<g>
	<path class="st92" d="M491.4,179.7H252.7c-6.8,0-12.3-5.6-12.3-12.3V52.1c0-6.8,5.6-12.3,12.3-12.3h238.7c6.8,0,12.3,5.6,12.3,12.3
		v115.3C503.7,174.2,498.2,179.7,491.4,179.7z"/>
	<text transform="matrix(1 0 0 1 343.6494 64.0001)" class="st93 st94">Pipeline</text>
	<g>
		<g>
			<path class="st95" d="M328.3,153.1h-46.4c-0.7,0-1.2-0.5-1.2-1.2V81.2c0-0.7,0.5-1.2,1.2-1.2h46.4c0.7,0,1.2,0.5,1.2,1.2v70.7
				C329.5,152.6,329,153.1,328.3,153.1z"/>
			<g>
				<g>
					<g>
						<path class="st96" d="M290.3,110.9c-0.2-1-0.3-2.1-0.3-3.2c0-6.7,4.4-12.5,10.5-14.4"/>
						<g>
							<polygon class="st97" points="307.8,90.9 298.8,98.4 299.9,93.4 296.1,90 							"/>
						</g>
					</g>
				</g>
				<g>
					<g>
						<path class="st98" d="M295,118.9c2.7,2.4,6.2,3.9,10.1,3.9c3.9,0,7.5-1.5,10.2-4"/>
						<g>
							<polygon class="st99" points="289.3,113.8 294.4,124.3 295.4,119.3 300.3,117.7 							"/>
						</g>
					</g>
				</g>
				<g>
					<g>
						<path class="st100" d="M309.8,93.2c6.1,2,10.5,7.7,10.5,14.4c0,1.1-0.1,2.1-0.3,3.1"/>
						<g>
							<polygon class="st101" points="318.4,118.3 316.2,106.7 320.1,110.2 324.9,108.6 							"/>
						</g>
					</g>
				</g>
			</g>
			<text transform="matrix(1 0 0 1 290.9766 143.5305)" class="st35 st102 st103">Stage 1</text>
			<g>
				<polygon class="st104" points="313.3,101.1 313.3,106.1 308.3,108.1 306.9,108.6 306.9,103.6 308.3,103.1 				"/>
				<rect x="296.9" y="108.6" class="st105" width="5" height="5"/>
				<rect x="301.9" y="108.6" class="st105" width="5" height="5"/>
				<rect x="296.9" y="103.6" class="st105" width="5" height="5"/>
				<polygon class="st106" points="308.3,101.1 303.3,103.1 301.9,103.6 296.9,103.6 303.3,101.1 				"/>
				<polygon class="st104" points="313.3,106.1 313.3,111.1 306.9,113.6 306.9,108.6 308.3,108.1 				"/>
				<g>
					<line class="st107" x1="307" y1="108.5" x2="307" y2="113.5"/>
					<line class="st107" x1="308.6" y1="107.9" x2="308.6" y2="112.9"/>
					<line class="st107" x1="310.1" y1="107.2" x2="310.1" y2="112.2"/>
					<line class="st107" x1="311.7" y1="106.6" x2="311.7" y2="111.6"/>
					<line class="st107" x1="313.3" y1="106" x2="313.3" y2="111"/>
				</g>
				<polygon class="st106" points="313.3,101.1 308.3,103.1 306.9,103.6 301.9,103.6 303.3,103.1 308.3,101.1 				"/>
				<rect x="301.9" y="103.6" class="st105" width="5" height="5"/>
				<g>
					<line class="st107" x1="307" y1="103.6" x2="307" y2="108.6"/>
					<line class="st107" x1="308.6" y1="103" x2="308.6" y2="108"/>
					<line class="st107" x1="310.1" y1="102.4" x2="310.1" y2="107.4"/>
					<line class="st107" x1="311.7" y1="101.8" x2="311.7" y2="106.8"/>
					<line class="st107" x1="313.3" y1="101.1" x2="313.3" y2="106.1"/>
				</g>
			</g>
		</g>
		<g>
			<path class="st95" d="M396.2,153.1h-46.4c-0.7,0-1.2-0.5-1.2-1.2V81.2c0-0.7,0.5-1.2,1.2-1.2h46.4c0.7,0,1.2,0.5,1.2,1.2v70.7
				C397.4,152.6,396.9,153.1,396.2,153.1z"/>
			<g>
				<g>
					<g>
						<path class="st96" d="M358.2,110.9c-0.2-1-0.3-2.1-0.3-3.2c0-6.7,4.4-12.5,10.5-14.4"/>
						<g>
							<polygon class="st97" points="375.7,90.9 366.7,98.4 367.8,93.4 364,90 							"/>
						</g>
					</g>
				</g>
				<g>
					<g>
						<path class="st98" d="M362.9,118.9c2.7,2.4,6.2,3.9,10.1,3.9c3.9,0,7.5-1.5,10.2-4"/>
						<g>
							<polygon class="st99" points="357.1,113.8 362.3,124.3 363.3,119.3 368.2,117.7 							"/>
						</g>
					</g>
				</g>
				<g>
					<g>
						<path class="st100" d="M377.6,93.2c6.1,2,10.5,7.7,10.5,14.4c0,1.1-0.1,2.1-0.3,3.1"/>
						<g>
							<polygon class="st101" points="386.3,118.3 384.1,106.7 387.9,110.2 392.8,108.6 							"/>
						</g>
					</g>
				</g>
			</g>
			<text transform="matrix(1 0 0 1 358.8574 143.5305)" class="st35 st102 st103">Stage 2</text>
			<g>
				<polygon class="st104" points="381.1,101.1 381.1,106.1 376.1,108.1 374.8,108.6 374.8,103.6 376.1,103.1 				"/>
				<rect x="364.8" y="108.6" class="st105" width="5" height="5"/>
				<rect x="369.8" y="108.6" class="st105" width="5" height="5"/>
				<rect x="364.8" y="103.6" class="st105" width="5" height="5"/>
				<polygon class="st106" points="376.1,101.1 371.2,103.1 369.8,103.6 364.8,103.6 371.2,101.1 				"/>
				<polygon class="st104" points="381.1,106.1 381.1,111.1 374.8,113.6 374.8,108.6 376.1,108.1 				"/>
				<g>
					<line class="st107" x1="374.9" y1="108.5" x2="374.9" y2="113.5"/>
					<line class="st107" x1="376.4" y1="107.9" x2="376.4" y2="112.9"/>
					<line class="st107" x1="378" y1="107.2" x2="378" y2="112.2"/>
					<line class="st107" x1="379.6" y1="106.6" x2="379.6" y2="111.6"/>
					<line class="st107" x1="381.2" y1="106" x2="381.2" y2="111"/>
				</g>
				<polygon class="st106" points="381.1,101.1 376.1,103.1 374.8,103.6 369.8,103.6 371.2,103.1 376.1,101.1 				"/>
				<rect x="369.8" y="103.6" class="st105" width="5" height="5"/>
				<g>
					<line class="st107" x1="374.9" y1="103.6" x2="374.9" y2="108.6"/>
					<line class="st107" x1="376.4" y1="103" x2="376.4" y2="108"/>
					<line class="st107" x1="378" y1="102.4" x2="378" y2="107.4"/>
					<line class="st107" x1="379.6" y1="101.8" x2="379.6" y2="106.8"/>
					<line class="st107" x1="381.2" y1="101.1" x2="381.2" y2="106.1"/>
				</g>
			</g>
		</g>
		<g>
			<path class="st95" d="M464.1,153.1h-46.4c-0.7,0-1.2-0.5-1.2-1.2V81.2c0-0.7,0.5-1.2,1.2-1.2h46.4c0.7,0,1.2,0.5,1.2,1.2v70.7
				C465.3,152.6,464.8,153.1,464.1,153.1z"/>
			<g>
				<g>
					<g>
						<path class="st96" d="M426.1,110.9c-0.2-1-0.3-2.1-0.3-3.2c0-6.7,4.4-12.5,10.5-14.4"/>
						<g>
							<polygon class="st97" points="443.6,90.9 434.6,98.4 435.7,93.4 431.9,90 							"/>
						</g>
					</g>
				</g>
				<g>
					<g>
						<path class="st98" d="M430.8,118.9c2.7,2.4,6.2,3.9,10.1,3.9c3.9,0,7.5-1.5,10.2-4"/>
						<g>
							<polygon class="st99" points="425,113.8 430.1,124.3 431.2,119.3 436.1,117.7 							"/>
						</g>
					</g>
				</g>
				<g>
					<g>
						<path class="st100" d="M445.5,93.2c6.1,2,10.5,7.7,10.5,14.4c0,1.1-0.1,2.1-0.3,3.1"/>
						<g>
							<polygon class="st101" points="454.1,118.3 452,106.7 455.8,110.2 460.7,108.6 							"/>
						</g>
					</g>
				</g>
			</g>
			<text transform="matrix(1 0 0 1 426.7383 143.5305)" class="st35 st102 st103">Stage 3</text>
			<g>
				<polygon class="st104" points="449,101.1 449,106.1 444,108.1 442.7,108.6 442.7,103.6 444,103.1 				"/>
				<rect x="432.7" y="108.6" class="st105" width="5" height="5"/>
				<rect x="437.7" y="108.6" class="st105" width="5" height="5"/>
				<rect x="432.7" y="103.6" class="st105" width="5" height="5"/>
				<polygon class="st106" points="444,101.1 439,103.1 437.7,103.6 432.7,103.6 439,101.1 				"/>
				<polygon class="st104" points="449,106.1 449,111.1 442.7,113.6 442.7,108.6 444,108.1 				"/>
				<g>
					<line class="st107" x1="442.7" y1="108.5" x2="442.7" y2="113.5"/>
					<line class="st107" x1="444.3" y1="107.9" x2="444.3" y2="112.9"/>
					<line class="st107" x1="445.9" y1="107.2" x2="445.9" y2="112.2"/>
					<line class="st107" x1="447.5" y1="106.6" x2="447.5" y2="111.6"/>
					<line class="st107" x1="449.1" y1="106" x2="449.1" y2="111"/>
				</g>
				<polygon class="st106" points="449,101.1 444,103.1 442.7,103.6 437.7,103.6 439,103.1 444,101.1 				"/>
				<rect x="437.7" y="103.6" class="st105" width="5" height="5"/>
				<g>
					<line class="st107" x1="442.7" y1="103.6" x2="442.7" y2="108.6"/>
					<line class="st107" x1="444.3" y1="103" x2="444.3" y2="108"/>
					<line class="st107" x1="445.9" y1="102.4" x2="445.9" y2="107.4"/>
					<line class="st107" x1="447.5" y1="101.8" x2="447.5" y2="106.8"/>
					<line class="st107" x1="449.1" y1="101.1" x2="449.1" y2="106.1"/>
				</g>
			</g>
		</g>
	</g>
	<g>
		<g>
			<path class="st108" d="M105.2,94.5h-79c-5.5,0-10-4.5-10-10V60c0-5.5,4.5-10,10-10h79c5.5,0,10,4.5,10,10v24.5
				C115.2,90,110.8,94.5,105.2,94.5z"/>
			<text transform="matrix(1 0 0 1 35.3638 77.0702)" class="st93 st109">Material 1</text>
		</g>
		<g>
			<path class="st108" d="M105.2,157.2h-79c-5.5,0-10-4.5-10-10v-24.5c0-5.5,4.5-10,10-10h79c5.5,0,10,4.5,10,10v24.5
				C115.2,152.7,110.8,157.2,105.2,157.2z"/>
			<text transform="matrix(1 0 0 1 35.3638 139.7603)" class="st93 st109">Material 2</text>
		</g>
	</g>
	<g>
		<g>
			<line class="st37" x1="128.7" y1="74.2" x2="230.1" y2="108.1"/>
			<g>
				<path class="st6" d="M123,72.3c2.4,1.9,5.1,4.7,6.6,7.2l-0.1-5.1l3.1-4C129.9,71.6,126,72.2,123,72.3z"/>
			</g>
			<g>
				<path class="st6" d="M235.8,110c-3,0.1-6.9,0.7-9.6,1.8l3.1-4l-0.1-5.1C230.7,105.2,233.4,108.1,235.8,110z"/>
			</g>
		</g>
	</g>
	<g>
		<g>
			<line class="st37" x1="128.9" y1="133.9" x2="229.9" y2="111.3"/>
			<g>
				<path class="st6" d="M123,135.3c3,0.4,6.8,1.4,9.4,2.8l-2.7-4.3l0.6-5C128.6,131.1,125.5,133.6,123,135.3z"/>
			</g>
			<g>
				<path class="st6" d="M235.8,110c-2.5,1.6-5.6,4.2-7.3,6.5l0.6-5l-2.7-4.3C229,108.6,232.8,109.6,235.8,110z"/>
			</g>
		</g>
	</g>
</g>
</svg>
