<?xml version="1.0" encoding="UTF-8"?>
<svg width="149px" height="150px" viewBox="0 0 149 150" version="1.1" xmlns="http://www.w3.org/2000/svg" xmlns:xlink="http://www.w3.org/1999/xlink">
    <!-- Generator: Sketch 54.1 (76490) - https://sketchapp.com -->
    <title>Group 6</title>
    <desc>Created with Sketch.</desc>
    <defs>
        <polygon id="path-1" points="0 0.648701299 148.99987 0.648701299 148.99987 149.99987 0 149.99987"></polygon>
    </defs>
    <g id="Desktop-HD---1440" stroke="none" stroke-width="1" fill="none" fill-rule="evenodd" opacity="0.0552455357">
        <g transform="translate(-858.000000, -1090.000000)" id="Group-6">
            <g transform="translate(858.000000, 1090.000000)">
                <g id="Group-3">
                    <mask id="mask-2" fill="white">
                        <use xlink:href="#path-1"></use>
                    </mask>
                    <g id="Clip-2"></g>
                    <path d="M74.4998704,4.29987013 C35.4288313,4.29987013 3.6419487,36.1609091 3.6419487,75.3245455 C3.6419487,114.487532 35.4288313,146.349221 74.4998704,146.349221 C113.571557,146.349221 145.35844,114.487532 145.35844,75.3245455 C145.35844,36.1609091 113.571557,4.29987013 74.4998704,4.29987013 M74.4998704,149.99987 C33.4205704,149.99987 -0.000129565217,116.500519 -0.000129565217,75.3245455 C-0.000129565217,34.1479221 33.4205704,0.648571429 74.4998704,0.648571429 C115.57917,0.648571429 148.99987,34.1479221 148.99987,75.3245455 C148.99987,116.500519 115.57917,149.99987 74.4998704,149.99987" id="Fill-1" fill="#1B1D21" mask="url(#mask-2)"></path>
                </g>
                <path d="M52.1472567,122 C50.6658438,122 49.1850722,121.64312 47.8325615,120.896386 C44.8697357,119.305941 43.0022576,116.189702 43.0022576,112.780589 L43.0022576,76.0018653 C43.0022576,70.9053286 47.091855,66.8147809 52.1151915,66.8147809 C57.1385279,66.8147809 61.227484,70.9376548 61.227484,76.0018653 L61.227484,95.6089525 L90.401057,76.0018653 L47.0597898,46.8508134 C42.8739968,44.0268032 41.7465839,38.313484 44.516377,34.0929853 C47.3175941,29.8731331 52.9848001,28.7365466 57.1705931,31.5282307 L111.942468,68.340574 C114.486522,70.0609703 116,72.9179531 116,76.0018653 C116,79.085131 114.486522,81.9421138 111.942468,83.6625102 L57.2026583,120.441881 C55.6577563,121.480842 53.9185391,122 52.1472567,122" id="Fill-4" fill="#1B1D21"></path>
            </g>
        </g>
    </g>
</svg>