<?xml version="1.0" encoding="utf-8"?>
<!-- Generator: Adobe Illustrator 19.2.1, SVG Export Plug-In . SVG Version: 6.00 Build 0)  -->
<svg version="1.1" xmlns="http://www.w3.org/2000/svg" xmlns:xlink="http://www.w3.org/1999/xlink" x="0px" y="0px"
	 viewBox="0 0 579.9 439.4" style="enable-background:new 0 0 579.9 439.4;" xml:space="preserve">
<style type="text/css">
	.st0{fill:#FFD34E;stroke:#1C425C;stroke-width:8;stroke-linecap:round;stroke-linejoin:round;stroke-miterlimit:10;}
	.st1{fill:#FFFAD5;stroke:#1C425C;stroke-width:8;stroke-linecap:round;stroke-linejoin:round;stroke-miterlimit:10;}
	.st2{fill:#DB9E36;stroke:#1C425C;stroke-width:8;stroke-linecap:round;stroke-linejoin:round;stroke-miterlimit:10;}
	.st3{fill:#BD4932;stroke:#1C425C;stroke-width:8;stroke-linecap:round;stroke-linejoin:round;stroke-miterlimit:10;}
	.st4{fill:none;stroke:#1C425C;stroke-width:8;stroke-linecap:round;stroke-linejoin:round;stroke-miterlimit:10;}
	.st5{fill:#C9DE55;stroke:#1C425C;stroke-width:8;stroke-linecap:round;stroke-linejoin:round;stroke-miterlimit:10;}
	.st6{fill:#A6D3EB;stroke:#1C425C;stroke-width:8;stroke-linecap:round;stroke-linejoin:round;stroke-miterlimit:10;}
	.st7{fill:#1C425C;}
	.st8{fill:none;stroke:#FF530D;stroke-width:8;stroke-linejoin:round;}
	.st9{fill:none;stroke:#FF530D;stroke-width:8;stroke-linejoin:round;stroke-dasharray:20.1656,20.1656;}
	.st10{fill:none;stroke:#FF530D;stroke-width:8;stroke-linejoin:round;stroke-dasharray:18.0259,18.0259;}
	.st11{fill:#FF530D;stroke:#1C425C;stroke-width:8;stroke-linecap:round;stroke-linejoin:round;stroke-miterlimit:10;}
	.st12{fill:none;stroke:#1C425C;stroke-width:8;stroke-linecap:round;stroke-linejoin:round;}
	.st13{fill:none;stroke:#A6D3EB;stroke-width:8;stroke-linejoin:round;stroke-miterlimit:10;stroke-dasharray:8;}
	.st14{fill:none;stroke:#A6D3EB;stroke-width:8;stroke-linejoin:round;}
	.st15{fill:none;stroke:#A6D3EB;stroke-width:8;stroke-linejoin:round;stroke-dasharray:7.9701,7.9701;}
	.st16{fill:#A6D3EB;}
	.st17{fill:#BD4932;}
	.st18{fill:#FF530D;}
	.st19{fill:#DB9E36;}
	.st20{fill:#FFD34E;}
	.st21{fill:#FFFAD5;}
	.st22{fill:#C9DE55;}
	.st23{fill:#8E2800;}
	.st24{fill:#B64926;}
	.st25{fill:#FFF0A5;}
	.st26{fill:#A9CF54;}
	.st27{fill:#F1F7E5;}
	.st28{fill:#0078A4;}
	.st29{fill:#1C5379;}
	.st30{fill:#FF6F22;}
	.st31{fill:#FFF8A4;}
	.st32{fill:#96CA2D;}
	.st33{fill:#F24C27;}
	.st34{fill:#7FC6BC;}
	.st35{fill:#037E8C;}
	.st36{fill:#024959;}
	.st37{fill:#404040;}
	.st38{fill:#F48E36;}
	.st39{fill:#F4A23E;}
	.st40{fill:#94399E;}
	.st41{fill:#4CBBF3;}
	.st42{fill:#265CC9;}
	.st43{fill:#002A4A;}
	.st44{fill:#F5A503;}
	.st45{fill:#E9F1DF;}
	.st46{fill:#4AD9D9;}
	.st47{fill:#36B1BF;}
	.st48{fill:#17607D;}
	.st49{fill:#FFF1CE;}
	.st50{fill:#FF9311;}
	.st51{fill:#D64700;}
	.st52{fill:#4AD9D9;stroke:#1C425C;stroke-width:8;stroke-linecap:round;stroke-linejoin:round;stroke-miterlimit:10;}
	.st53{fill:#FF9311;stroke:#1C425C;stroke-width:8;stroke-linecap:round;stroke-linejoin:round;stroke-miterlimit:10;}
	.st54{fill:#94399E;stroke:#1C425C;stroke-width:8;stroke-linecap:round;stroke-linejoin:round;stroke-miterlimit:10;}
	.st55{fill:#F48E36;stroke:#1C425C;stroke-width:8;stroke-linecap:round;stroke-linejoin:round;stroke-miterlimit:10;}
	.st56{fill:#36B1BF;stroke:#1C425C;stroke-width:8;stroke-linecap:round;stroke-linejoin:round;stroke-miterlimit:10;}
	.st57{fill:#FFF1CE;stroke:#1C425C;stroke-width:8;stroke-linecap:round;stroke-linejoin:round;stroke-miterlimit:10;}
	.st58{fill:none;stroke:#7F3F98;stroke-width:8;stroke-linejoin:round;}
	.st59{fill:none;stroke:#7F3F98;stroke-width:8;stroke-linejoin:round;stroke-dasharray:20.1656,20.1656;}
	.st60{fill:none;stroke:#7F3F98;stroke-width:8;stroke-linejoin:round;stroke-dasharray:18.0259,18.0259;}
	.st61{fill:none;stroke:#94399E;stroke-width:8;stroke-linejoin:round;stroke-miterlimit:10;stroke-dasharray:8;}
	.st62{fill:none;stroke:#94399E;stroke-width:8;stroke-linejoin:round;}
	.st63{fill:none;stroke:#94399E;stroke-width:8;stroke-linejoin:round;stroke-dasharray:7.9701,7.9701;}
	.st64{fill:#D64700;stroke:#1C425C;stroke-width:8;stroke-linecap:round;stroke-linejoin:round;stroke-miterlimit:10;}
	.st65{clip-path:url(#SVGID_2_);}
	.st66{fill:#FFFFFF;stroke:#1C425C;stroke-width:8;stroke-linecap:round;stroke-linejoin:round;stroke-miterlimit:10;}
</style>
<g id="Layer_1">
</g>
<g id="Revised_color_icons">
	<g>
		<circle class="st61" cx="173.3" cy="219.7" r="135.6"/>
		<g>
			<g>
				<g>
					<line class="st62" x1="530.5" y1="419" x2="530.5" y2="415"/>
					<line class="st63" x1="530.5" y1="407" x2="530.5" y2="28.4"/>
					<line class="st62" x1="530.5" y1="24.4" x2="530.5" y2="20.4"/>
				</g>
			</g>
			<g>
				<path class="st40" d="M509.7,415.7h41.6c1.3,0,1.9,1.6,1,2.5L531.5,439c-0.6,0.6-1.5,0.6-2,0l-20.8-20.8
					C507.7,417.3,508.4,415.7,509.7,415.7z"/>
			</g>
			<g>
				<path class="st40" d="M509.7,23.7h41.6c1.3,0,1.9-1.6,1-2.5L531.5,0.4c-0.6-0.6-1.5-0.6-2,0l-20.8,20.8
					C507.7,22.1,508.4,23.7,509.7,23.7z"/>
			</g>
		</g>
		<g>
			<path class="st4" d="M220.9,50.4h109.3c6.8,0,12.2,5.5,12.2,12.2V172"/>
			<path class="st4" d="M4,267.4v109.4c0,6.8,5.5,12.2,12.2,12.2h109.3"/>
			<path class="st4" d="M4,172V62.7c0-6.8,5.5-12.2,12.2-12.2h109.3"/>
			<path class="st4" d="M342.5,267.4v109.4c0,6.8-5.5,12.2-12.2,12.2H220.9"/>
		</g>
		<path class="st54" d="M259.9,224.7c0.1-1.6,0.1-3.3,0.1-5c0-1.7,0-3.3-0.1-5l-24.8-12.2c-1.5-5.5-3.8-10.7-6.6-15.5l8.9-25.8
			c-2.6-2.8-5.3-5.4-8.2-7.9l-26,9.6c0,0,0,0,0,0c-3.9-2-8-3.7-12.2-4.9l-11.3-24.9c-2.1-0.2-4.2-0.2-6.3-0.2s-4.2,0.1-6.3,0.2
			L155.6,158c-4.3,1.2-8.4,2.9-12.2,4.9l-26-9.6c-2.9,2.4-5.6,5.1-8.2,7.9l8.9,25.8c-2.9,4.8-5.1,10-6.6,15.5l-24.8,12.2
			c-0.1,1.6-0.1,3.3-0.1,5c0,1.7,0,3.3,0.1,5l24.8,12.2c1.5,5.5,3.8,10.7,6.6,15.5l-8.9,25.8c2.6,2.8,5.3,5.4,8.2,7.9l26-9.6
			c3.9,2,8,3.7,12.2,4.9l11.3,24.9c2.1,0.2,4.2,0.2,6.3,0.2s4.2-0.1,6.3-0.2l11.3-24.9c4.3-1.2,8.4-2.9,12.2-4.9c0,0,0,0,0,0l26,9.6
			c2.9-2.4,5.6-5.1,8.2-7.9l-8.9-25.8c2.9-4.8,5.1-10,6.6-15.5L259.9,224.7z M173.3,243.8c-13.3,0-24.1-10.8-24.1-24.1
			s10.8-24.1,24.1-24.1c13.3,0,24.1,10.8,24.1,24.1S186.6,243.8,173.3,243.8z"/>
		<rect x="297.2" y="174.3" class="st52" width="90.7" height="90.7"/>
		<rect x="485.1" y="174.3" class="st52" width="90.7" height="90.7"/>
		<rect x="485.1" y="50.4" class="st52" width="90.7" height="90.7"/>
		<rect x="485.1" y="298.3" class="st52" width="90.7" height="90.7"/>
		<g>
			<g>
				<path class="st7" d="M433,252.7v-21.5c0-0.8-0.6-1.4-1.4-1.4h-26c-0.8,0-1.4-0.6-1.4-1.4v-17.1c0-0.8,0.6-1.4,1.4-1.4h26
					c0.8,0,1.4-0.6,1.4-1.4v-21.5c0-1.3,1.6-1.9,2.5-1l33,33c0.6,0.6,0.6,1.5,0,2l-33,33C434.6,254.6,433,254,433,252.7z"/>
			</g>
		</g>
		<circle class="st57" cx="342.5" cy="219.7" r="16.7"/>
		<circle class="st57" cx="530.5" cy="219.7" r="16.7"/>
		<circle class="st57" cx="530.5" cy="95.8" r="16.7"/>
		<circle class="st57" cx="530.5" cy="343.6" r="16.7"/>
	</g>
</g>
</svg>
