<?xml version="1.0" encoding="utf-8"?>
<!-- Generator: Adobe Illustrator 19.2.1, SVG Export Plug-In . SVG Version: 6.00 Build 0)  -->
<svg version="1.1" xmlns="http://www.w3.org/2000/svg" xmlns:xlink="http://www.w3.org/1999/xlink" x="0px" y="0px"
	 viewBox="0 0 336.5 366" style="enable-background:new 0 0 336.5 366;" xml:space="preserve">
<style type="text/css">
	.st0{fill:#FFD34E;stroke:#1C425C;stroke-width:8;stroke-linecap:round;stroke-linejoin:round;stroke-miterlimit:10;}
	.st1{fill:#FFFAD5;stroke:#1C425C;stroke-width:8;stroke-linecap:round;stroke-linejoin:round;stroke-miterlimit:10;}
	.st2{fill:#DB9E36;stroke:#1C425C;stroke-width:8;stroke-linecap:round;stroke-linejoin:round;stroke-miterlimit:10;}
	.st3{fill:#BD4932;stroke:#1C425C;stroke-width:8;stroke-linecap:round;stroke-linejoin:round;stroke-miterlimit:10;}
	.st4{fill:none;stroke:#1C425C;stroke-width:8;stroke-linecap:round;stroke-linejoin:round;stroke-miterlimit:10;}
	.st5{fill:#C9DE55;stroke:#1C425C;stroke-width:8;stroke-linecap:round;stroke-linejoin:round;stroke-miterlimit:10;}
	.st6{fill:#A6D3EB;stroke:#1C425C;stroke-width:8;stroke-linecap:round;stroke-linejoin:round;stroke-miterlimit:10;}
	.st7{fill:#1C425C;}
	.st8{fill:none;stroke:#FF530D;stroke-width:8;stroke-linejoin:round;}
	.st9{fill:none;stroke:#FF530D;stroke-width:8;stroke-linejoin:round;stroke-dasharray:20.1656,20.1656;}
	.st10{fill:none;stroke:#FF530D;stroke-width:8;stroke-linejoin:round;stroke-dasharray:18.0259,18.0259;}
	.st11{fill:#FF530D;stroke:#1C425C;stroke-width:8;stroke-linecap:round;stroke-linejoin:round;stroke-miterlimit:10;}
	.st12{fill:none;stroke:#1C425C;stroke-width:8;stroke-linecap:round;stroke-linejoin:round;}
	.st13{fill:none;stroke:#A6D3EB;stroke-width:8;stroke-linejoin:round;stroke-miterlimit:10;stroke-dasharray:8;}
	.st14{fill:none;stroke:#A6D3EB;stroke-width:8;stroke-linejoin:round;}
	.st15{fill:none;stroke:#A6D3EB;stroke-width:8;stroke-linejoin:round;stroke-dasharray:7.9701,7.9701;}
	.st16{fill:#A6D3EB;}
	.st17{fill:#BD4932;}
	.st18{fill:#FF530D;}
	.st19{fill:#DB9E36;}
	.st20{fill:#FFD34E;}
	.st21{fill:#FFFAD5;}
	.st22{fill:#C9DE55;}
	.st23{fill:#8E2800;}
	.st24{fill:#B64926;}
	.st25{fill:#FFF0A5;}
	.st26{fill:#A9CF54;}
	.st27{fill:#F1F7E5;}
	.st28{fill:#0078A4;}
	.st29{fill:#1C5379;}
	.st30{fill:#FF6F22;}
	.st31{fill:#FFF8A4;}
	.st32{fill:#96CA2D;}
	.st33{fill:#F24C27;}
	.st34{fill:#7FC6BC;}
	.st35{fill:#037E8C;}
	.st36{fill:#024959;}
	.st37{fill:#404040;}
	.st38{fill:#F48E36;}
	.st39{fill:#F4A23E;}
	.st40{fill:#94399E;}
	.st41{fill:#4CBBF3;}
	.st42{fill:#265CC9;}
	.st43{fill:#002A4A;}
	.st44{fill:#F5A503;}
	.st45{fill:#E9F1DF;}
	.st46{fill:#4AD9D9;}
	.st47{fill:#36B1BF;}
	.st48{fill:#17607D;}
	.st49{fill:#FFF1CE;}
	.st50{fill:#FF9311;}
	.st51{fill:#D64700;}
	.st52{fill:#4AD9D9;stroke:#1C425C;stroke-width:8;stroke-linecap:round;stroke-linejoin:round;stroke-miterlimit:10;}
	.st53{fill:#FF9311;stroke:#1C425C;stroke-width:8;stroke-linecap:round;stroke-linejoin:round;stroke-miterlimit:10;}
	.st54{fill:#94399E;stroke:#1C425C;stroke-width:8;stroke-linecap:round;stroke-linejoin:round;stroke-miterlimit:10;}
	.st55{fill:#F48E36;stroke:#1C425C;stroke-width:8;stroke-linecap:round;stroke-linejoin:round;stroke-miterlimit:10;}
	.st56{fill:#36B1BF;stroke:#1C425C;stroke-width:8;stroke-linecap:round;stroke-linejoin:round;stroke-miterlimit:10;}
	.st57{fill:#FFF1CE;stroke:#1C425C;stroke-width:8;stroke-linecap:round;stroke-linejoin:round;stroke-miterlimit:10;}
	.st58{fill:none;stroke:#7F3F98;stroke-width:8;stroke-linejoin:round;}
	.st59{fill:none;stroke:#7F3F98;stroke-width:8;stroke-linejoin:round;stroke-dasharray:20.1656,20.1656;}
	.st60{fill:none;stroke:#7F3F98;stroke-width:8;stroke-linejoin:round;stroke-dasharray:18.0259,18.0259;}
	.st61{fill:none;stroke:#94399E;stroke-width:8;stroke-linejoin:round;stroke-miterlimit:10;stroke-dasharray:8;}
	.st62{fill:none;stroke:#94399E;stroke-width:8;stroke-linejoin:round;}
	.st63{fill:none;stroke:#94399E;stroke-width:8;stroke-linejoin:round;stroke-dasharray:7.9701,7.9701;}
	.st64{fill:#D64700;stroke:#1C425C;stroke-width:8;stroke-linecap:round;stroke-linejoin:round;stroke-miterlimit:10;}
	.st65{clip-path:url(#SVGID_2_);}
	.st66{fill:#FFFFFF;stroke:#1C425C;stroke-width:8;stroke-linecap:round;stroke-linejoin:round;stroke-miterlimit:10;}
</style>
<g id="Layer_1">
</g>
<g id="Revised_color_icons">
	<g>
		<path class="st52" d="M279.2,185.6c3.2,12.5,5.4,25,6.7,37.5c0.3,2.9,0,4.2-2.9,5.4c-12.5,5.8-18,16.7-15.7,30.5
			c0.3,2.2-0.3,3.2-1.9,4.2c-13.5,7.1-26.9,13.8-42,17c-1-1.6,0.3-2.6,1-3.5c1.3-1.6,2.6-3.2,3.5-5.1c4.2-7.4,2.9-11.9-5.1-16.3
			c-0.3-2.2,1.6-2.9,2.9-4.2c4.5-4.5,4.5-8-1-12.2c-5.8-4.5-12.2-7.7-18.6-11.5c-5.4-3.2-10.3-7.1-14.4-11.5
			c-4.8-5.4-6.1-10.9-2.9-17.3c2.9-6.1,7.1-9.3,14.1-9.3c9.9,0,18,4.8,26.6,8.3c4.2,1.6,8,4.2,12.2,5.8c8,3.2,12.2,0.6,12.5-8
			c0-3.8,0-8-0.6-11.9c-1-5.8-0.6-11.5,3.5-16.3c6.1-3.5,10.3-2.9,14.7,1.9C275.6,173.7,278.8,178.8,279.2,185.6z"/>
		<path class="st53" d="M223.1,254.8c7.4,1.3,10.3,6.4,7.7,14.1c-1.6,4.2-4.8,7.4-7.4,11.2c-9.9,9.9-20.8,18.3-32.7,26.3
			c-2.2,1.6-3.5,1.6-5.8-0.3c-10.6-8.3-23.1-8.3-34-0.3c-1.3,1-1.9,2.6-3.8,1.3c-12.2-8.3-24.4-16.3-33.7-27.9
			c1.6-1.9,3.5-1.3,5.1-1c2.9,0.3,5.4,0,8-1c3.8-1.3,5.8-4.2,5.4-8.3c0-1.6-1.3-3.2,0.6-4.8c2.2-0.3,4.5,1,6.4,1.6
			c5.1,1,8-0.6,9-5.8c1.3-6.1,1.6-11.9,1.6-18c0-7.1,1-14.1,2.9-20.8c2.6-8.3,7.7-12.5,15.1-12.5c7.4-0.3,12.8,3.8,16,11.9
			c2.6,6.7,2.9,13.8,3.2,20.8c0,6.1-0.3,12.5,1.3,18.6c1.6,6.7,4.5,8.3,10.9,5.8c5.4-2.2,9.9-6.1,15.4-8.7
			C217,255.1,219.5,252.9,223.1,254.8z"/>
		<path class="st53" d="M112.8,86.5c9.9-9.9,20.8-18.6,32.7-26.3c2.2-1.6,3.8-1.9,6.1,0c10.6,8,22.8,8,33.7,0c1.6-1,2.6-2.6,4.8-1
			c12.2,8.3,24.7,16.7,34,28.5c-1,1.3-2.6,1.3-3.8,1c-13.1-0.3-13.1-0.3-18,11.5c-1.3,0.6-2.6,0-4.2,0c-6.7-1.3-8.7,0.3-10.3,6.7
			c-1,4.5-1,9.3-1,13.8c0,7.1-0.6,14.1-2.2,21.2c-2.6,10.6-8,15.7-16.7,15.4c-8.7,0-14.4-5.8-16.7-16.3c-1.3-5.4-1.9-11.2-1.6-17
			s-0.3-11.9-1.3-17.6c-1-6.1-4.5-8.3-10.3-6.4c-4.2,1.3-7.7,4.2-11.2,6.4c-3.5,2.2-6.7,4.2-10.6,5.1c-10.6,0.3-14.7-6.4-10.3-16
			C107.3,92.3,109.6,88.8,112.8,86.5z"/>
		<path class="st54" d="M131.7,263.8c2.6,3.5,3.5,7.1,1,10.9c-2.9,4.2-7.4,4.5-11.9,4.8c-2.2,0-4.8-0.3-7.1-0.3
			c-14.1-4.2-27.6-9.6-40.7-16.7c-2.6-1.3-3.8-2.2-3.2-5.8c2.2-12.2-3.8-23.7-15.1-28.9c-3.2-1.6-3.8-2.9-3.5-6.7
			c1.6-13.8,3.2-27.2,8.3-40.4c2.6,1,2.9,3.8,3.8,5.8c5.1,9.6,8,10.9,18,6.1c0.3,0,0.6,0,1,0.3c1.3,1.6,1,3.2,1.3,4.8
			c1.3,5.1,4.2,7.1,9.3,5.1c6.7-2.2,13.1-5.4,19.6-8.7c5.8-2.9,11.5-5.1,18-6.4c7.7-1.3,14.1,1.6,17.6,8c3.2,6.1,2.6,13.1-2.6,18.6
			c-6.7,7.7-15.7,11.5-24,17c-1.9,1.3-4.2,2.2-6.1,3.8c-8.3,6.1-8.7,10.3-0.3,16.3c2.9,2.2,6.1,3.8,9.3,5.4
			C126.9,259,130.1,260.3,131.7,263.8z"/>
		<path class="st54" d="M202.2,100.3c-1-8,1.9-11.9,9.9-12.8c3.8-0.6,7.7,0.3,11.9,0.3c13.5,3.5,26.6,8.7,39.1,14.4
			c2.2,1.3,3.5,2.2,3.5,5.4c-1,14.7,4.2,23.4,17.6,29.5c1.6,0.6,2.6,1.3,2.6,3.2c-1,15.4-1.9,30.5-7.7,45.2
			c-2.2-4.5-3.5-9.3-6.7-13.5c-4.5-5.8-8.3-7.1-15.4-4.2c-7.7-7.4-8.3-7.7-18.6-2.2c-7.7,3.8-15.1,8.7-23.1,11.5
			c-3.8,1.3-7.7,2.6-11.5,2.2c-10.9-0.6-18-11.9-13.5-21.5c2.6-6.1,7.4-9.9,12.5-13.8c6.7-4.8,14.1-8.7,20.8-13.8
			c7.4-5.8,7.4-10.6-1-15.7c-4.8-3.2-10.6-5.1-15.4-8.7C204.8,104.5,202.5,103.2,202.2,100.3z"/>
		<path class="st52" d="M81.4,192.9c-4.8,5.4-10.6,5.4-15.4,0.3c-3.2-3.5-4.8-8.3-6.7-12.5c-3.8-13.5-5.4-27.2-6.1-41.4
			c0-2.6,0-3.8,2.9-4.8c12.5-5.1,18.6-15.7,17.3-29.2c0-1.6-1-3.2,1.3-4.5c12.5-5.8,24.7-11.9,38.1-14.1c-1.9,3.5-4.2,6.7-6.1,10.6
			c-3.2,6.7-0.6,15.1,9,14.1c0.3,1.9-1.3,2.6-2.2,3.8c-3.5,4.5-3.2,7.4,1,11.2c4.5,3.8,9.6,7.1,14.4,9.9c5.4,3.2,10.6,6.7,15.1,10.9
			c9,8,9,19.9,0.6,26.6c-5.4,4.2-11.5,3.5-17.3,1.9c-6.7-1.6-12.8-5.1-18.9-8.7c-4.5-2.6-9-5.1-13.8-7.1c-6.1-2.2-9-0.6-10.3,5.4
			c-0.6,3.2-0.6,6.4-0.6,9.6C83.9,181.1,86.2,187.5,81.4,192.9z"/>
		<path class="st53" d="M191,335.6c0,12.5-10.3,22.4-22.8,22.8c-13.1,0-23.4-10.3-23.1-23.4c0-12.8,10.3-23.1,23.1-22.8
			C181.1,312.2,191,322.1,191,335.6z"/>
		<path class="st53" d="M168.2,53.8c-12.8,0-23.1-10.3-23.1-23.1s10.3-23.1,23.1-23.1c13.1,0,23.7,10.6,23.4,23.4
			C191.3,43.6,181.1,53.8,168.2,53.8z"/>
		<path class="st54" d="M300.6,84.3c12.8,0,23.1,10.3,23.1,23.1c0,13.1-10.3,23.4-23.4,23.4c-12.8,0-23.1-10.3-22.8-23.1
			C277.6,94.5,287.8,84.3,300.6,84.3z"/>
		<path class="st52" d="M39.4,127.9c-12.8,0-23.1-9.9-23.4-22.8C16,92,26.2,81.4,39.4,81.7c12.8,0,23.1,10.3,23.1,23.1
			C62.5,117.3,52.2,127.5,39.4,127.9z"/>
		<path class="st54" d="M12.8,256.1c0-12.8,9.9-23.1,22.8-23.4c13.1-0.3,23.4,9.9,23.4,23.1c0,12.8-10.3,23.1-23.1,23.1
			S12.8,268.9,12.8,256.1z"/>
		<path class="st52" d="M323.7,257.7c0,12.5-10.3,22.4-22.8,22.8c-13.1,0-23.4-10.3-23.1-23.4c0-12.8,10.3-23.1,23.1-22.8
			C313.8,234,323.7,244.2,323.7,257.7z"/>
	</g>
</g>
</svg>
