<?xml version="1.0" encoding="utf-8"?>
<!-- Generator: Adobe Illustrator 19.2.1, SVG Export Plug-In . SVG Version: 6.00 Build 0)  -->
<svg version="1.1" xmlns="http://www.w3.org/2000/svg" xmlns:xlink="http://www.w3.org/1999/xlink" x="0px" y="0px"
	 viewBox="0 0 598 216.6" style="enable-background:new 0 0 598 216.6;" xml:space="preserve">
<style type="text/css">
	.st0{fill:#FFD34E;stroke:#1C425C;stroke-width:8;stroke-linecap:round;stroke-linejoin:round;stroke-miterlimit:10;}
	.st1{fill:#FFFAD5;stroke:#1C425C;stroke-width:8;stroke-linecap:round;stroke-linejoin:round;stroke-miterlimit:10;}
	.st2{fill:#DB9E36;stroke:#1C425C;stroke-width:8;stroke-linecap:round;stroke-linejoin:round;stroke-miterlimit:10;}
	.st3{fill:#BD4932;stroke:#1C425C;stroke-width:8;stroke-linecap:round;stroke-linejoin:round;stroke-miterlimit:10;}
	.st4{fill:none;stroke:#1C425C;stroke-width:8;stroke-linecap:round;stroke-linejoin:round;stroke-miterlimit:10;}
	.st5{fill:#C9DE55;stroke:#1C425C;stroke-width:8;stroke-linecap:round;stroke-linejoin:round;stroke-miterlimit:10;}
	.st6{fill:#A6D3EB;stroke:#1C425C;stroke-width:8;stroke-linecap:round;stroke-linejoin:round;stroke-miterlimit:10;}
	.st7{fill:#1C425C;}
	.st8{fill:none;stroke:#FF530D;stroke-width:8;stroke-linejoin:round;}
	.st9{fill:none;stroke:#FF530D;stroke-width:8;stroke-linejoin:round;stroke-dasharray:20.1656,20.1656;}
	.st10{fill:none;stroke:#FF530D;stroke-width:8;stroke-linejoin:round;stroke-dasharray:18.0259,18.0259;}
	.st11{fill:#FF530D;stroke:#1C425C;stroke-width:8;stroke-linecap:round;stroke-linejoin:round;stroke-miterlimit:10;}
	.st12{fill:none;stroke:#1C425C;stroke-width:8;stroke-linecap:round;stroke-linejoin:round;}
	.st13{fill:none;stroke:#A6D3EB;stroke-width:8;stroke-linejoin:round;stroke-miterlimit:10;stroke-dasharray:8;}
	.st14{fill:none;stroke:#A6D3EB;stroke-width:8;stroke-linejoin:round;}
	.st15{fill:none;stroke:#A6D3EB;stroke-width:8;stroke-linejoin:round;stroke-dasharray:7.9701,7.9701;}
	.st16{fill:#A6D3EB;}
	.st17{fill:#BD4932;}
	.st18{fill:#FF530D;}
	.st19{fill:#DB9E36;}
	.st20{fill:#FFD34E;}
	.st21{fill:#FFFAD5;}
	.st22{fill:#C9DE55;}
	.st23{fill:#8E2800;}
	.st24{fill:#B64926;}
	.st25{fill:#FFF0A5;}
	.st26{fill:#A9CF54;}
	.st27{fill:#F1F7E5;}
	.st28{fill:#0078A4;}
	.st29{fill:#1C5379;}
	.st30{fill:#FF6F22;}
	.st31{fill:#FFF8A4;}
	.st32{fill:#96CA2D;}
	.st33{fill:#F24C27;}
	.st34{fill:#7FC6BC;}
	.st35{fill:#037E8C;}
	.st36{fill:#024959;}
	.st37{fill:#404040;}
	.st38{fill:#F48E36;}
	.st39{fill:#F4A23E;}
	.st40{fill:#94399E;}
	.st41{fill:#4CBBF3;}
	.st42{fill:#265CC9;}
	.st43{fill:#002A4A;}
	.st44{fill:#F5A503;}
	.st45{fill:#E9F1DF;}
	.st46{fill:#4AD9D9;}
	.st47{fill:#36B1BF;}
	.st48{fill:#17607D;}
	.st49{fill:#FFF1CE;}
	.st50{fill:#FF9311;}
	.st51{fill:#D64700;}
	.st52{fill:#4AD9D9;stroke:#1C425C;stroke-width:8;stroke-linecap:round;stroke-linejoin:round;stroke-miterlimit:10;}
	.st53{fill:#FF9311;stroke:#1C425C;stroke-width:8;stroke-linecap:round;stroke-linejoin:round;stroke-miterlimit:10;}
	.st54{fill:#94399E;stroke:#1C425C;stroke-width:8;stroke-linecap:round;stroke-linejoin:round;stroke-miterlimit:10;}
	.st55{fill:#F48E36;stroke:#1C425C;stroke-width:8;stroke-linecap:round;stroke-linejoin:round;stroke-miterlimit:10;}
	.st56{fill:#36B1BF;stroke:#1C425C;stroke-width:8;stroke-linecap:round;stroke-linejoin:round;stroke-miterlimit:10;}
	.st57{fill:#FFF1CE;stroke:#1C425C;stroke-width:8;stroke-linecap:round;stroke-linejoin:round;stroke-miterlimit:10;}
	.st58{fill:none;stroke:#7F3F98;stroke-width:8;stroke-linejoin:round;}
	.st59{fill:none;stroke:#7F3F98;stroke-width:8;stroke-linejoin:round;stroke-dasharray:20.1656,20.1656;}
	.st60{fill:none;stroke:#7F3F98;stroke-width:8;stroke-linejoin:round;stroke-dasharray:18.0259,18.0259;}
	.st61{fill:none;stroke:#94399E;stroke-width:8;stroke-linejoin:round;stroke-miterlimit:10;stroke-dasharray:8;}
	.st62{fill:none;stroke:#94399E;stroke-width:8;stroke-linejoin:round;}
	.st63{fill:none;stroke:#94399E;stroke-width:8;stroke-linejoin:round;stroke-dasharray:7.9701,7.9701;}
	.st64{fill:#D64700;stroke:#1C425C;stroke-width:8;stroke-linecap:round;stroke-linejoin:round;stroke-miterlimit:10;}
	.st65{clip-path:url(#SVGID_2_);}
	.st66{fill:#FFFFFF;stroke:#1C425C;stroke-width:8;stroke-linecap:round;stroke-linejoin:round;stroke-miterlimit:10;}
</style>
<g id="Layer_1">
</g>
<g id="Revised_color_icons">
	<g>
		<g>
			<rect x="61.7" y="39.8" class="st52" width="166" height="83"/>
			<circle class="st57" cx="103.2" cy="81.3" r="16.7"/>
			<circle class="st57" cx="186.2" cy="81.3" r="16.7"/>
		</g>
		<rect x="371.7" y="39.8" class="st53" width="166" height="83"/>
		<circle class="st57" cx="413.2" cy="81.3" r="16.7"/>
		<polyline class="st4" points="594,103.8 575,122.8 23,122.8 4,103.8 		"/>
		<g>
			<g>
				<path class="st7" d="M118,24h-5.7V0.6h6c3,0,4.8,0.6,6.4,2c1.6,1.4,2.5,3.5,2.5,5.8c0,2.3-0.9,4.4-2.5,5.8c-1.5,1.4-3.4,2-6.4,2
					H118V24z M118.5,11c2.2,0,3.1-0.7,3.1-2.6c0-1.9-0.8-2.6-3.1-2.6H118V11H118.5z"/>
				<path class="st7" d="M131.7,24V7.6l-2.2,1.2l-2.7-4.6l6.4-3.6h4.3V24H131.7z"/>
				<path class="st7" d="M147.5,21.5c0,1.7-1.4,3.1-3.2,3.1c-1.8,0-3.2-1.4-3.2-3.1c0-1.7,1.5-3,3.2-3
					C146.1,18.4,147.5,19.7,147.5,21.5z"/>
				<path class="st7" d="M157.4,9.4c1.7,0,2.5-0.7,2.5-2.1c0-1.4-0.8-2.1-2.3-2.1c-1.3,0-1.9,0.4-3.4,2.3l-4.6-2.5
					c2.2-3.5,4.5-4.9,8.1-4.9c4.6,0,8,3,8,7.1c0,1.8-0.6,3.2-1.8,4.4c1.6,1.5,2.3,3.1,2.3,5.2c0,4.5-3.6,7.9-8.5,7.9
					c-3.2,0-6-1.5-7.4-4.1c-0.5-0.9-0.8-1.7-1.2-3.2l5.4-1.4c0.8,2.8,1.5,3.5,3.2,3.5c1.6,0,2.8-1.1,2.8-2.7c0-1.7-0.9-2.5-2.9-2.5
					h-2.2V9.4H157.4z"/>
				<path class="st7" d="M171.3,24V7.6l-2.2,1.2l-2.7-4.6l6.4-3.6h4.3V24H171.3z"/>
			</g>
		</g>
		<g>
			<g>
				<path class="st7" d="M425.3,24h-5.7V0.6h6c3,0,4.8,0.6,6.4,2c1.6,1.4,2.5,3.5,2.5,5.8c0,2.3-0.9,4.4-2.5,5.8
					c-1.5,1.4-3.4,2-6.4,2h-0.2V24z M425.8,11c2.2,0,3.1-0.7,3.1-2.6c0-1.9-0.8-2.6-3.1-2.6h-0.6V11H425.8z"/>
				<path class="st7" d="M439,24V7.6l-2.2,1.2L434,4.2l6.4-3.6h4.3V24H439z"/>
				<path class="st7" d="M454.8,21.5c0,1.7-1.4,3.1-3.2,3.1c-1.8,0-3.2-1.4-3.2-3.1c0-1.7,1.5-3,3.2-3
					C453.3,18.4,454.8,19.7,454.8,21.5z"/>
				<path class="st7" d="M464.7,9.4c1.7,0,2.5-0.7,2.5-2.1c0-1.4-0.8-2.1-2.3-2.1c-1.3,0-1.9,0.4-3.4,2.3l-4.6-2.5
					c2.2-3.5,4.5-4.9,8.1-4.9c4.6,0,8,3,8,7.1c0,1.8-0.6,3.2-1.8,4.4c1.6,1.5,2.3,3.1,2.3,5.2c0,4.5-3.6,7.9-8.5,7.9
					c-3.2,0-6-1.5-7.4-4.1c-0.5-0.9-0.8-1.7-1.2-3.2l5.4-1.4c0.8,2.8,1.5,3.5,3.2,3.5c1.6,0,2.8-1.1,2.8-2.7c0-1.7-0.9-2.5-2.9-2.5
					h-2.2V9.4H464.7z"/>
				<path class="st7" d="M475.4,19.7l8.1-8.9c1.5-1.6,2.1-2.7,2.1-3.9s-0.8-1.9-2.2-1.9c-1.7,0-2.3,0.7-3,3.4L475,7.1
					c0.3-1.5,0.7-2.5,1.2-3.4c1.4-2.3,4-3.7,7.2-3.7c4.6,0,7.7,2.9,7.7,7.2c0,2.3-0.9,4.3-2.7,6.3l-4.8,5.3h7.9V24h-16.3V19.7z"/>
			</g>
		</g>
		<polygon class="st57" points="493.9,64.5 513.3,98 474.6,98 		"/>
		<g>
			<path class="st54" d="M248.3,212.6l42.2-60.6c-4.1-2.9-6.9-7.7-6.9-13.1c0-8.8,7.2-16,16-16c8.8,0,16,7.2,16,16
				c0,5.4-2.7,10.2-6.8,13.1l42.2,60.6H248.3z"/>
			<circle class="st7" cx="299.7" cy="139" r="8.2"/>
		</g>
	</g>
</g>
</svg>
