<?xml version="1.0" encoding="utf-8"?>
<!-- Generator: Adobe Illustrator 19.2.1, SVG Export Plug-In . SVG Version: 6.00 Build 0)  -->
<svg version="1.1" xmlns="http://www.w3.org/2000/svg" xmlns:xlink="http://www.w3.org/1999/xlink" x="0px" y="0px"
	 viewBox="0 0 322.2 265.2" style="enable-background:new 0 0 322.2 265.2;" xml:space="preserve">
<style type="text/css">
	.st0{fill:#FFD34E;stroke:#1C425C;stroke-width:8;stroke-linecap:round;stroke-linejoin:round;stroke-miterlimit:10;}
	.st1{fill:#FFFAD5;stroke:#1C425C;stroke-width:8;stroke-linecap:round;stroke-linejoin:round;stroke-miterlimit:10;}
	.st2{fill:#DB9E36;stroke:#1C425C;stroke-width:8;stroke-linecap:round;stroke-linejoin:round;stroke-miterlimit:10;}
	.st3{fill:#BD4932;stroke:#1C425C;stroke-width:8;stroke-linecap:round;stroke-linejoin:round;stroke-miterlimit:10;}
	.st4{fill:none;stroke:#1C425C;stroke-width:8;stroke-linecap:round;stroke-linejoin:round;stroke-miterlimit:10;}
	.st5{fill:#C9DE55;stroke:#1C425C;stroke-width:8;stroke-linecap:round;stroke-linejoin:round;stroke-miterlimit:10;}
	.st6{fill:#A6D3EB;stroke:#1C425C;stroke-width:8;stroke-linecap:round;stroke-linejoin:round;stroke-miterlimit:10;}
	.st7{fill:#1C425C;}
	.st8{fill:none;stroke:#FF530D;stroke-width:8;stroke-linejoin:round;}
	.st9{fill:none;stroke:#FF530D;stroke-width:8;stroke-linejoin:round;stroke-dasharray:20.1656,20.1656;}
	.st10{fill:none;stroke:#FF530D;stroke-width:8;stroke-linejoin:round;stroke-dasharray:18.0259,18.0259;}
	.st11{fill:#FF530D;stroke:#1C425C;stroke-width:8;stroke-linecap:round;stroke-linejoin:round;stroke-miterlimit:10;}
	.st12{fill:none;stroke:#1C425C;stroke-width:8;stroke-linecap:round;stroke-linejoin:round;}
	.st13{fill:none;stroke:#A6D3EB;stroke-width:8;stroke-linejoin:round;stroke-miterlimit:10;stroke-dasharray:8;}
	.st14{fill:none;stroke:#A6D3EB;stroke-width:8;stroke-linejoin:round;}
	.st15{fill:none;stroke:#A6D3EB;stroke-width:8;stroke-linejoin:round;stroke-dasharray:7.9701,7.9701;}
	.st16{fill:#A6D3EB;}
	.st17{fill:#BD4932;}
	.st18{fill:#FF530D;}
	.st19{fill:#DB9E36;}
	.st20{fill:#FFD34E;}
	.st21{fill:#FFFAD5;}
	.st22{fill:#C9DE55;}
	.st23{fill:#8E2800;}
	.st24{fill:#B64926;}
	.st25{fill:#FFF0A5;}
	.st26{fill:#A9CF54;}
	.st27{fill:#F1F7E5;}
	.st28{fill:#0078A4;}
	.st29{fill:#1C5379;}
	.st30{fill:#FF6F22;}
	.st31{fill:#FFF8A4;}
	.st32{fill:#96CA2D;}
	.st33{fill:#F24C27;}
	.st34{fill:#7FC6BC;}
	.st35{fill:#037E8C;}
	.st36{fill:#024959;}
	.st37{fill:#404040;}
	.st38{fill:#F48E36;}
	.st39{fill:#F4A23E;}
	.st40{fill:#94399E;}
	.st41{fill:#4CBBF3;}
	.st42{fill:#265CC9;}
	.st43{fill:#002A4A;}
	.st44{fill:#F5A503;}
	.st45{fill:#E9F1DF;}
	.st46{fill:#4AD9D9;}
	.st47{fill:#36B1BF;}
	.st48{fill:#17607D;}
	.st49{fill:#FFF1CE;}
	.st50{fill:#FF9311;}
	.st51{fill:#D64700;}
	.st52{fill:#4AD9D9;stroke:#1C425C;stroke-width:8;stroke-linecap:round;stroke-linejoin:round;stroke-miterlimit:10;}
	.st53{fill:#FF9311;stroke:#1C425C;stroke-width:8;stroke-linecap:round;stroke-linejoin:round;stroke-miterlimit:10;}
	.st54{fill:#94399E;stroke:#1C425C;stroke-width:8;stroke-linecap:round;stroke-linejoin:round;stroke-miterlimit:10;}
	.st55{fill:#F48E36;stroke:#1C425C;stroke-width:8;stroke-linecap:round;stroke-linejoin:round;stroke-miterlimit:10;}
	.st56{fill:#36B1BF;stroke:#1C425C;stroke-width:8;stroke-linecap:round;stroke-linejoin:round;stroke-miterlimit:10;}
	.st57{fill:#FFF1CE;stroke:#1C425C;stroke-width:8;stroke-linecap:round;stroke-linejoin:round;stroke-miterlimit:10;}
	.st58{fill:none;stroke:#7F3F98;stroke-width:8;stroke-linejoin:round;}
	.st59{fill:none;stroke:#7F3F98;stroke-width:8;stroke-linejoin:round;stroke-dasharray:20.1656,20.1656;}
	.st60{fill:none;stroke:#7F3F98;stroke-width:8;stroke-linejoin:round;stroke-dasharray:18.0259,18.0259;}
	.st61{fill:none;stroke:#94399E;stroke-width:8;stroke-linejoin:round;stroke-miterlimit:10;stroke-dasharray:8;}
	.st62{fill:none;stroke:#94399E;stroke-width:8;stroke-linejoin:round;}
	.st63{fill:none;stroke:#94399E;stroke-width:8;stroke-linejoin:round;stroke-dasharray:7.9701,7.9701;}
	.st64{fill:#D64700;stroke:#1C425C;stroke-width:8;stroke-linecap:round;stroke-linejoin:round;stroke-miterlimit:10;}
	.st65{clip-path:url(#SVGID_2_);}
	.st66{fill:#FFFFFF;stroke:#1C425C;stroke-width:8;stroke-linecap:round;stroke-linejoin:round;stroke-miterlimit:10;}
</style>
<g id="Layer_1">
</g>
<g id="Revised_color_icons">
	<g>
		<path class="st52" d="M295.7,80l-58.5,35.2c8.1,13.4,12.7,29.1,12.7,45.8h68.2C318.2,131.4,310,103.7,295.7,80z M161.1,4
			C74.3,4,4,74.3,4,161.1h68.2c0-49.1,39.8-88.9,88.9-88.9c16.3,0,31.5,4.4,44.7,12l34.3-59C216.8,11.7,189.9,4,161.1,4z"/>
		<path class="st53" d="M295.7,80l-58.5,35.2c-7.7-12.8-18.6-23.5-31.5-31l34.3-59C262.9,38.5,282,57.4,295.7,80z"/>
		<path class="st54" d="M231.9,161.1v29.2c0,39.1-31.7,70.8-70.8,70.8s-70.8-31.7-70.8-70.8v-29.2c0,5,0.5,9.9,1.5,14.6
			c1.1,5.1,2.7,10,4.8,14.6c11.1,24.5,35.8,41.6,64.5,41.6s53.4-17.1,64.5-41.6c2.1-4.6,3.7-9.5,4.8-14.6
			C231.4,171,231.9,166.1,231.9,161.1z"/>
		<path class="st57" d="M231.9,161.1c0,5-0.5,9.9-1.5,14.6c-1.1,5.1-2.7,10-4.8,14.6c-11.1,24.5-35.8,41.6-64.5,41.6
			s-53.4-17.1-64.5-41.6c-2.1-4.6-3.7-9.5-4.8-14.6c-1-4.7-1.5-9.6-1.5-14.6c0-39.1,31.7-70.8,70.8-70.8S231.9,122,231.9,161.1z"/>
		<line class="st4" x1="196.2" y1="119.5" x2="174.9" y2="144.7"/>
		<g>
			<path class="st7" d="M145.2,52.1V35.8L143,37l-2.7-4.6l6.4-3.6h4.3v23.3H145.2z"/>
			<path class="st7" d="M161.1,49.6c0,1.7-1.4,3.1-3.2,3.1c-1.8,0-3.2-1.4-3.2-3.1c0-1.7,1.5-3,3.2-3
				C159.6,46.5,161.1,47.9,161.1,49.6z"/>
			<path class="st7" d="M164.8,35.3c0-4,3.4-7.2,7.8-7.2c4.4,0,7.8,3.2,7.8,7.1c0,1.7-0.5,2.9-1.9,4.4c1.8,1.5,2.6,3.2,2.6,5.3
				c0,4.4-3.7,7.7-8.5,7.7c-4.9,0-8.5-3.3-8.5-7.7c0-2.1,0.8-3.8,2.6-5.3C165.3,38.2,164.8,37,164.8,35.3z M169.7,45
				c0,1.6,1.2,2.7,2.9,2.7c1.7,0,2.9-1.1,2.9-2.6c0-1.7-1.1-2.7-3-2.7C170.8,42.3,169.7,43.4,169.7,45z M170.2,35.5
				c0,1.3,1,2.2,2.4,2.2c1.4,0,2.4-0.9,2.4-2.2c0-1.4-1-2.3-2.4-2.3S170.2,34.1,170.2,35.5z"/>
		</g>
		<g>
			<path class="st7" d="M234.4,85V68.7l-2.2,1.2l-2.7-4.6l6.4-3.6h4.3V85H234.4z"/>
			<path class="st7" d="M250.3,82.5c0,1.7-1.4,3.1-3.2,3.1c-1.8,0-3.2-1.4-3.2-3.1c0-1.7,1.5-3,3.2-3
				C248.8,79.4,250.3,80.8,250.3,82.5z"/>
			<path class="st7" d="M254.5,82.7l3.9-5.3c-4.2-0.8-6.9-3.9-6.9-7.9c0-4.7,3.9-8.5,8.7-8.5c4.9,0,8.8,3.7,8.8,8.5
				c0,1.9-0.7,3.8-1.9,5.5L259,86L254.5,82.7z M257.1,69.5c0,1.8,1.3,3,3.1,3s3.1-1.3,3.1-3.1c0-1.9-1.3-3.2-3-3.2
				C258.4,66.2,257.1,67.6,257.1,69.5z"/>
		</g>
		<g>
			<path class="st7" d="M60.7,85V68.7l-2.2,1.2l-2.7-4.6l6.4-3.6h4.3V85H60.7z"/>
			<path class="st7" d="M76.5,82.5c0,1.7-1.4,3.1-3.2,3.1c-1.8,0-3.2-1.4-3.2-3.1c0-1.7,1.5-3,3.2-3S76.5,80.8,76.5,82.5z"/>
			<path class="st7" d="M78.7,67v-5.3h16.6v3.9L84.1,86l-5-2.6L88.2,67H78.7z"/>
		</g>
		<g>
			<path class="st7" d="M259.4,140.2l8.1-8.9c1.5-1.6,2.1-2.7,2.1-3.9s-0.8-1.9-2.2-1.9c-1.7,0-2.3,0.7-3,3.4l-5.3-1.4
				c0.3-1.5,0.7-2.5,1.2-3.4c1.4-2.3,4-3.7,7.2-3.7c4.6,0,7.7,2.9,7.7,7.2c0,2.3-0.9,4.3-2.7,6.3l-4.8,5.3h7.9v5.3h-16.3V140.2z"/>
			<path class="st7" d="M284.6,141.9c0,1.7-1.4,3.1-3.2,3.1c-1.8,0-3.2-1.4-3.2-3.1c0-1.7,1.5-3,3.2-3
				C283.2,138.9,284.6,140.2,284.6,141.9z"/>
			<path class="st7" d="M305.3,132.8c0,8.1-3.3,12.3-9.5,12.3c-6.4,0-9.6-4.2-9.6-12.5c0-7.9,3.3-12.1,9.6-12.1
				C302,120.5,305.3,124.7,305.3,132.8z M291.9,132.9c0,2.3,0.3,4.1,1,5.4c0.6,1.1,1.5,1.6,2.8,1.6c2.6,0,3.9-2.2,3.9-7
				c0-2.4-0.4-4.3-1-5.6c-0.6-1.2-1.5-1.7-2.8-1.7C293.1,125.6,291.9,128,291.9,132.9z"/>
		</g>
		<g>
			<path class="st7" d="M25.2,144.5v-16.4l-2.2,1.2l-2.7-4.6l6.4-3.6h4.3v23.3H25.2z"/>
			<path class="st7" d="M41,141.9c0,1.7-1.4,3.1-3.2,3.1c-1.8,0-3.2-1.4-3.2-3.1c0-1.7,1.5-3,3.2-3C39.6,138.9,41,140.2,41,141.9z"
				/>
			<path class="st7" d="M57.8,123.4l-3.9,5.3c4.2,0.8,6.9,3.9,6.9,7.9c0,4.7-3.9,8.5-8.7,8.5c-4.9,0-8.8-3.7-8.8-8.5
				c0-1.9,0.7-3.8,1.9-5.5l8-10.9L57.8,123.4z M49.1,136.7c0,1.9,1.3,3.2,3,3.2c1.8,0,3.1-1.4,3.1-3.3c0-1.8-1.3-3-3.1-3
				S49.1,134.9,49.1,136.7z"/>
		</g>
		<g>
			<g>
				<line class="st4" x1="104.8" y1="233.4" x2="104.8" y2="204.1"/>
				<line class="st4" x1="120.9" y1="248.7" x2="120.9" y2="219.4"/>
				<line class="st4" x1="137" y1="257" x2="137" y2="227.7"/>
				<line class="st4" x1="153" y1="260.7" x2="153" y2="231.5"/>
				<line class="st4" x1="169.1" y1="260.7" x2="169.1" y2="231.5"/>
				<line class="st4" x1="185.2" y1="257" x2="185.2" y2="227.7"/>
				<line class="st4" x1="201.3" y1="248.7" x2="201.3" y2="219.4"/>
				<line class="st4" x1="217.3" y1="233.4" x2="217.3" y2="204.1"/>
			</g>
		</g>
	</g>
</g>
</svg>
