<?xml version="1.0" encoding="utf-8"?>
<!-- Generator: Adobe Illustrator 19.2.1, SVG Export Plug-In . SVG Version: 6.00 Build 0)  -->
<svg version="1.1" xmlns="http://www.w3.org/2000/svg" xmlns:xlink="http://www.w3.org/1999/xlink" x="0px" y="0px"
	 viewBox="0 0 400 400" style="enable-background:new 0 0 400 400;" xml:space="preserve">
<style type="text/css">
	.st0{fill:#FFD34E;stroke:#1C425C;stroke-width:8;stroke-linecap:round;stroke-linejoin:round;stroke-miterlimit:10;}
	.st1{fill:#FFFAD5;stroke:#1C425C;stroke-width:8;stroke-linecap:round;stroke-linejoin:round;stroke-miterlimit:10;}
	.st2{fill:#DB9E36;stroke:#1C425C;stroke-width:8;stroke-linecap:round;stroke-linejoin:round;stroke-miterlimit:10;}
	.st3{fill:#BD4932;stroke:#1C425C;stroke-width:8;stroke-linecap:round;stroke-linejoin:round;stroke-miterlimit:10;}
	.st4{fill:none;stroke:#1C425C;stroke-width:8;stroke-linecap:round;stroke-linejoin:round;stroke-miterlimit:10;}
	.st5{fill:#C9DE55;stroke:#1C425C;stroke-width:8;stroke-linecap:round;stroke-linejoin:round;stroke-miterlimit:10;}
	.st6{fill:#A6D3EB;stroke:#1C425C;stroke-width:8;stroke-linecap:round;stroke-linejoin:round;stroke-miterlimit:10;}
	.st7{fill:#1C425C;}
	.st8{fill:none;stroke:#FF530D;stroke-width:8;stroke-linejoin:round;}
	.st9{fill:none;stroke:#FF530D;stroke-width:8;stroke-linejoin:round;stroke-dasharray:20.1656,20.1656;}
	.st10{fill:none;stroke:#FF530D;stroke-width:8;stroke-linejoin:round;stroke-dasharray:18.0259,18.0259;}
	.st11{fill:#FF530D;stroke:#1C425C;stroke-width:8;stroke-linecap:round;stroke-linejoin:round;stroke-miterlimit:10;}
	.st12{fill:none;stroke:#1C425C;stroke-width:8;stroke-linecap:round;stroke-linejoin:round;}
	.st13{fill:none;stroke:#A6D3EB;stroke-width:8;stroke-linejoin:round;stroke-miterlimit:10;stroke-dasharray:8;}
	.st14{fill:none;stroke:#A6D3EB;stroke-width:8;stroke-linejoin:round;}
	.st15{fill:none;stroke:#A6D3EB;stroke-width:8;stroke-linejoin:round;stroke-dasharray:7.9701,7.9701;}
	.st16{fill:#A6D3EB;}
	.st17{fill:#BD4932;}
	.st18{fill:#FF530D;}
	.st19{fill:#DB9E36;}
	.st20{fill:#FFD34E;}
	.st21{fill:#FFFAD5;}
	.st22{fill:#C9DE55;}
	.st23{fill:#8E2800;}
	.st24{fill:#B64926;}
	.st25{fill:#FFF0A5;}
	.st26{fill:#A9CF54;}
	.st27{fill:#F1F7E5;}
	.st28{fill:#0078A4;}
	.st29{fill:#1C5379;}
	.st30{fill:#FF6F22;}
	.st31{fill:#FFF8A4;}
	.st32{fill:#96CA2D;}
	.st33{fill:#F24C27;}
	.st34{fill:#7FC6BC;}
	.st35{fill:#037E8C;}
	.st36{fill:#024959;}
	.st37{fill:#404040;}
	.st38{fill:#F48E36;}
	.st39{fill:#F4A23E;}
	.st40{fill:#94399E;}
	.st41{fill:#4CBBF3;}
	.st42{fill:#265CC9;}
	.st43{fill:#002A4A;}
	.st44{fill:#F5A503;}
	.st45{fill:#E9F1DF;}
	.st46{fill:#4AD9D9;}
	.st47{fill:#36B1BF;}
	.st48{fill:#17607D;}
	.st49{fill:#FFF1CE;}
	.st50{fill:#FF9311;}
	.st51{fill:#D64700;}
	.st52{fill:#4AD9D9;stroke:#1C425C;stroke-width:8;stroke-linecap:round;stroke-linejoin:round;stroke-miterlimit:10;}
	.st53{fill:#FF9311;stroke:#1C425C;stroke-width:8;stroke-linecap:round;stroke-linejoin:round;stroke-miterlimit:10;}
	.st54{fill:#94399E;stroke:#1C425C;stroke-width:8;stroke-linecap:round;stroke-linejoin:round;stroke-miterlimit:10;}
	.st55{fill:#F48E36;stroke:#1C425C;stroke-width:8;stroke-linecap:round;stroke-linejoin:round;stroke-miterlimit:10;}
	.st56{fill:#36B1BF;stroke:#1C425C;stroke-width:8;stroke-linecap:round;stroke-linejoin:round;stroke-miterlimit:10;}
	.st57{fill:#FFF1CE;stroke:#1C425C;stroke-width:8;stroke-linecap:round;stroke-linejoin:round;stroke-miterlimit:10;}
	.st58{fill:none;stroke:#7F3F98;stroke-width:8;stroke-linejoin:round;}
	.st59{fill:none;stroke:#7F3F98;stroke-width:8;stroke-linejoin:round;stroke-dasharray:20.1656,20.1656;}
	.st60{fill:none;stroke:#7F3F98;stroke-width:8;stroke-linejoin:round;stroke-dasharray:18.0259,18.0259;}
	.st61{fill:none;stroke:#94399E;stroke-width:8;stroke-linejoin:round;stroke-miterlimit:10;stroke-dasharray:8;}
	.st62{fill:none;stroke:#94399E;stroke-width:8;stroke-linejoin:round;}
	.st63{fill:none;stroke:#94399E;stroke-width:8;stroke-linejoin:round;stroke-dasharray:7.9701,7.9701;}
	.st64{fill:#D64700;stroke:#1C425C;stroke-width:8;stroke-linecap:round;stroke-linejoin:round;stroke-miterlimit:10;}
	.st65{clip-path:url(#SVGID_2_);}
	.st66{fill:#FFFFFF;stroke:#1C425C;stroke-width:8;stroke-linecap:round;stroke-linejoin:round;stroke-miterlimit:10;}
</style>
<g id="Layer_1">
</g>
<g id="Revised_color_icons">
	<path class="st52" d="M22.7,92.5v192c0,3.3,2.7,6,6,6h64.2c3.3,0,6,2.7,6,6v68.8c0,5.3,6.5,8,10.2,4.2l77.3-77.3
		c1.1-1.1,2.7-1.8,4.2-1.8h180.6c3.3,0,6-2.7,6-6v-192c0-3.3-2.7-6-6-6H28.7C25.4,86.5,22.7,89.2,22.7,92.5z M357.3,270.5H188.2
		c-5.3,0-10.4,2.1-14.1,5.9l-55.2,55.2v-41.1c0-11-9-20-20-20H42.7v-164h314.7V270.5z"/>
	<g>
		<polygon class="st54" points="184.7,191.3 207.4,213.9 176.4,222.2 		"/>
		<polygon class="st66" points="190.3,170.6 198.9,162 222,149.6 209.6,172.7 212.4,175.6 235.5,163.1 223.1,186.3 226,189.1 
			249.1,176.7 236.7,199.8 228.1,208.4 207.4,213.9 184.7,191.3 		"/>
		<polygon class="st54" points="198.9,162 304.1,56.7 341.9,94.6 236.7,199.8 249.1,176.7 226,189.1 223.1,186.3 235.5,163.1 
			212.4,175.6 209.6,172.7 222,149.6 		"/>
		
			<rect x="331.3" y="35" transform="matrix(0.7071 -0.7071 0.7071 0.7071 55.0697 256.3476)" class="st54" width="11.4" height="53.5"/>
		<path class="st54" d="M369.8,66.7L332,28.8l14.4-14.4c3.2-3.2,8.3-3.2,11.5,0l26.3,26.3c3.2,3.2,3.2,8.3,0,11.5L369.8,66.7z"/>
	</g>
</g>
</svg>
