<?xml version="1.0" encoding="utf-8"?>
<!-- Generator: Adobe Illustrator 19.2.1, SVG Export Plug-In . SVG Version: 6.00 Build 0)  -->
<svg version="1.1" xmlns="http://www.w3.org/2000/svg" xmlns:xlink="http://www.w3.org/1999/xlink" x="0px" y="0px"
	 viewBox="0 0 400 400" style="enable-background:new 0 0 400 400;" xml:space="preserve">
<style type="text/css">
	.st0{fill:#FFD34E;stroke:#1C425C;stroke-width:8;stroke-linecap:round;stroke-linejoin:round;stroke-miterlimit:10;}
	.st1{fill:#FFFAD5;stroke:#1C425C;stroke-width:8;stroke-linecap:round;stroke-linejoin:round;stroke-miterlimit:10;}
	.st2{fill:#DB9E36;stroke:#1C425C;stroke-width:8;stroke-linecap:round;stroke-linejoin:round;stroke-miterlimit:10;}
	.st3{fill:#BD4932;stroke:#1C425C;stroke-width:8;stroke-linecap:round;stroke-linejoin:round;stroke-miterlimit:10;}
	.st4{fill:none;stroke:#1C425C;stroke-width:8;stroke-linecap:round;stroke-linejoin:round;stroke-miterlimit:10;}
	.st5{fill:#C9DE55;stroke:#1C425C;stroke-width:8;stroke-linecap:round;stroke-linejoin:round;stroke-miterlimit:10;}
	.st6{fill:#A6D3EB;stroke:#1C425C;stroke-width:8;stroke-linecap:round;stroke-linejoin:round;stroke-miterlimit:10;}
	.st7{fill:#1C425C;}
	.st8{fill:none;stroke:#FF530D;stroke-width:8;stroke-linejoin:round;}
	.st9{fill:none;stroke:#FF530D;stroke-width:8;stroke-linejoin:round;stroke-dasharray:20.1656,20.1656;}
	.st10{fill:none;stroke:#FF530D;stroke-width:8;stroke-linejoin:round;stroke-dasharray:18.0259,18.0259;}
	.st11{fill:#FF530D;stroke:#1C425C;stroke-width:8;stroke-linecap:round;stroke-linejoin:round;stroke-miterlimit:10;}
	.st12{fill:none;stroke:#1C425C;stroke-width:8;stroke-linecap:round;stroke-linejoin:round;}
	.st13{fill:none;stroke:#A6D3EB;stroke-width:8;stroke-linejoin:round;stroke-miterlimit:10;stroke-dasharray:8;}
	.st14{fill:none;stroke:#A6D3EB;stroke-width:8;stroke-linejoin:round;}
	.st15{fill:none;stroke:#A6D3EB;stroke-width:8;stroke-linejoin:round;stroke-dasharray:7.9701,7.9701;}
	.st16{fill:#A6D3EB;}
	.st17{fill:#BD4932;}
	.st18{fill:#FF530D;}
	.st19{fill:#DB9E36;}
	.st20{fill:#FFD34E;}
	.st21{fill:#FFFAD5;}
	.st22{fill:#C9DE55;}
	.st23{fill:#8E2800;}
	.st24{fill:#B64926;}
	.st25{fill:#FFF0A5;}
	.st26{fill:#A9CF54;}
	.st27{fill:#F1F7E5;}
	.st28{fill:#0078A4;}
	.st29{fill:#1C5379;}
	.st30{fill:#FF6F22;}
	.st31{fill:#FFF8A4;}
	.st32{fill:#96CA2D;}
	.st33{fill:#F24C27;}
	.st34{fill:#7FC6BC;}
	.st35{fill:#037E8C;}
	.st36{fill:#024959;}
	.st37{fill:#404040;}
	.st38{fill:#F48E36;}
	.st39{fill:#F4A23E;}
	.st40{fill:#94399E;}
	.st41{fill:#4CBBF3;}
	.st42{fill:#265CC9;}
	.st43{fill:#002A4A;}
	.st44{fill:#F5A503;}
	.st45{fill:#E9F1DF;}
	.st46{fill:#4AD9D9;}
	.st47{fill:#36B1BF;}
	.st48{fill:#17607D;}
	.st49{fill:#FFF1CE;}
	.st50{fill:#FF9311;}
	.st51{fill:#D64700;}
	.st52{fill:#4AD9D9;stroke:#1C425C;stroke-width:8;stroke-linecap:round;stroke-linejoin:round;stroke-miterlimit:10;}
	.st53{fill:#FF9311;stroke:#1C425C;stroke-width:8;stroke-linecap:round;stroke-linejoin:round;stroke-miterlimit:10;}
	.st54{fill:#94399E;stroke:#1C425C;stroke-width:8;stroke-linecap:round;stroke-linejoin:round;stroke-miterlimit:10;}
	.st55{fill:#F48E36;stroke:#1C425C;stroke-width:8;stroke-linecap:round;stroke-linejoin:round;stroke-miterlimit:10;}
	.st56{fill:#36B1BF;stroke:#1C425C;stroke-width:8;stroke-linecap:round;stroke-linejoin:round;stroke-miterlimit:10;}
	.st57{fill:#FFF1CE;stroke:#1C425C;stroke-width:8;stroke-linecap:round;stroke-linejoin:round;stroke-miterlimit:10;}
	.st58{fill:none;stroke:#7F3F98;stroke-width:8;stroke-linejoin:round;}
	.st59{fill:none;stroke:#7F3F98;stroke-width:8;stroke-linejoin:round;stroke-dasharray:20.1656,20.1656;}
	.st60{fill:none;stroke:#7F3F98;stroke-width:8;stroke-linejoin:round;stroke-dasharray:18.0259,18.0259;}
	.st61{fill:none;stroke:#94399E;stroke-width:8;stroke-linejoin:round;stroke-miterlimit:10;stroke-dasharray:8;}
	.st62{fill:none;stroke:#94399E;stroke-width:8;stroke-linejoin:round;}
	.st63{fill:none;stroke:#94399E;stroke-width:8;stroke-linejoin:round;stroke-dasharray:7.9701,7.9701;}
	.st64{fill:#D64700;stroke:#1C425C;stroke-width:8;stroke-linecap:round;stroke-linejoin:round;stroke-miterlimit:10;}
	.st65{clip-path:url(#SVGID_2_);}
	.st66{fill:#FFFFFF;stroke:#1C425C;stroke-width:8;stroke-linecap:round;stroke-linejoin:round;stroke-miterlimit:10;}
</style>
<g id="Layer_1">
</g>
<g id="Revised_color_icons">
	<g>
		<g>
			<circle class="st56" cx="75.3" cy="62" r="50"/>
			<path class="st56" d="M25.3,145.8c0,17.3,3.2,33.3,8.6,46.5c0.4,1.1,1.4,1.8,2.4,1.8h78c1,0,1.9-0.7,2.4-1.8
				c5.5-13.3,8.6-29.3,8.6-46.5c0-12.7-1.7-24.6-4.8-35.4c-0.6-2.2-2.9-2.9-4.3-1.4c-9,9.9-20.4,16.6-33.1,18.5
				c-1,0.2-1.8,0.9-2.2,2.1l-3.2,10.9c-0.8,2.8-4.2,2.8-5,0l-3.2-10.8c-0.3-1.1-1.2-1.9-2.2-2.1c-12.7-2-24.1-8.6-33.2-18.5
				c-1.4-1.6-3.7-0.8-4.3,1.4C27,121.2,25.3,133.2,25.3,145.8z"/>
		</g>
	</g>
	<g>
		<g>
			<circle class="st0" cx="324.7" cy="62" r="50"/>
			<path class="st0" d="M274.7,145.8c0,17.3,3.2,33.3,8.6,46.5c0.4,1.1,1.4,1.8,2.4,1.8h78c1,0,1.9-0.7,2.4-1.8
				c5.5-13.3,8.6-29.3,8.6-46.5c0-12.7-1.7-24.6-4.8-35.4c-0.6-2.2-2.9-2.9-4.3-1.4c-9,9.9-20.4,16.6-33.1,18.5
				c-1,0.2-1.8,0.9-2.2,2.1l-3.2,10.9c-0.8,2.8-4.2,2.8-5,0l-3.2-10.8c-0.3-1.1-1.2-1.9-2.2-2.1c-12.7-2-24.1-8.6-33.2-18.5
				c-1.4-1.6-3.7-0.8-4.3,1.4C276.3,121.2,274.7,133.2,274.7,145.8z"/>
		</g>
	</g>
	<g>
		<g>
			<circle class="st64" cx="200" cy="81.3" r="50"/>
			<path class="st64" d="M150,165.1c0,17.3,3.2,33.3,8.6,46.5c0.4,1.1,1.4,1.8,2.4,1.8h78c1,0,1.9-0.7,2.4-1.8
				c5.5-13.3,8.6-29.3,8.6-46.5c0-12.7-1.7-24.6-4.8-35.4c-0.6-2.2-2.9-2.9-4.3-1.4c-9,9.9-20.4,16.6-33.1,18.5
				c-1,0.2-1.8,0.9-2.2,2.1l-3.2,10.9c-0.8,2.8-4.2,2.8-5,0l-3.2-10.8c-0.3-1.1-1.2-1.9-2.2-2.1c-12.7-2-24.1-8.6-33.2-18.5
				c-1.4-1.6-3.7-0.8-4.3,1.4C151.7,140.5,150,152.5,150,165.1z"/>
		</g>
	</g>
	<g>
		<g>
			<circle class="st53" cx="117" cy="173.9" r="50"/>
			<path class="st53" d="M67,257.8c0,17.3,3.2,33.3,8.6,46.5c0.4,1.1,1.4,1.8,2.4,1.8h78c1,0,1.9-0.7,2.4-1.8
				c5.5-13.3,8.6-29.3,8.6-46.5c0-12.7-1.7-24.6-4.8-35.4c-0.6-2.2-2.9-2.9-4.3-1.4c-9,9.9-20.4,16.6-33.1,18.5
				c-1,0.2-1.8,0.9-2.2,2.1l-3.2,10.9c-0.8,2.8-4.2,2.8-5,0l-3.2-10.8c-0.3-1.1-1.2-1.9-2.2-2.1c-12.7-2-24.1-8.6-33.2-18.5
				c-1.4-1.6-3.7-0.8-4.3,1.4C68.7,233.2,67,245.1,67,257.8z"/>
		</g>
	</g>
	<g>
		<g>
			<circle class="st52" cx="283" cy="173.9" r="50"/>
			<path class="st52" d="M233,257.8c0,17.3,3.2,33.3,8.6,46.5c0.4,1.1,1.4,1.8,2.4,1.8h78c1,0,1.9-0.7,2.4-1.8
				c5.5-13.3,8.6-29.3,8.6-46.5c0-12.7-1.7-24.6-4.8-35.4c-0.6-2.2-2.9-2.9-4.3-1.4c-9,9.9-20.4,16.6-33.1,18.5
				c-1,0.2-1.8,0.9-2.2,2.1l-3.2,10.9c-0.8,2.8-4.2,2.8-5,0l-3.2-10.8c-0.3-1.1-1.2-1.9-2.2-2.1c-12.7-2-24.1-8.6-33.2-18.5
				c-1.4-1.6-3.7-0.8-4.3,1.4C234.7,233.2,233,245.1,233,257.8z"/>
		</g>
	</g>
	<g>
		<g>
			<circle class="st54" cx="200" cy="236.6" r="50"/>
			<path class="st54" d="M150,320.4c0,17.3,3.2,33.3,8.6,46.5c0.4,1.1,1.4,1.8,2.4,1.8h78c1,0,1.9-0.7,2.4-1.8
				c5.5-13.3,8.6-29.3,8.6-46.5c0-12.7-1.7-24.6-4.8-35.4c-0.6-2.2-2.9-2.9-4.3-1.4c-9,9.9-20.4,16.6-33.1,18.5
				c-1,0.2-1.8,0.9-2.2,2.1l-3.2,10.9c-0.8,2.8-4.2,2.8-5,0l-3.2-10.8c-0.3-1.1-1.2-1.9-2.2-2.1c-12.7-2-24.1-8.6-33.2-18.5
				c-1.4-1.6-3.7-0.8-4.3,1.4C151.7,295.8,150,307.8,150,320.4z"/>
		</g>
	</g>
</g>
</svg>
