<?xml version="1.0" encoding="utf-8"?>
<!-- Generator: Adobe Illustrator 23.0.1, SVG Export Plug-In . SVG Version: 6.00 Build 0)  -->
<svg version="1.1" id="Layer_1" xmlns="http://www.w3.org/2000/svg" xmlns:xlink="http://www.w3.org/1999/xlink" x="0px" y="0px"
	 viewBox="0 0 400 200" style="enable-background:new 0 0 400 200;" xml:space="preserve">
<style type="text/css">
	.st0{fill:#4AD9D9;stroke:#1C425C;stroke-width:4.7261;stroke-linecap:round;stroke-linejoin:round;stroke-miterlimit:10;}
	.st1{fill:#F48E36;stroke:#1C425C;stroke-width:4.7261;stroke-linecap:round;stroke-linejoin:round;stroke-miterlimit:10;}
	.st2{fill:#94399E;stroke:#1C425C;stroke-width:4.7261;stroke-linecap:round;stroke-linejoin:round;stroke-miterlimit:10;}
	.st3{fill:#FFD34E;stroke:#1C425C;stroke-width:4.7261;stroke-linecap:round;stroke-linejoin:round;stroke-miterlimit:10;}
	.st4{fill:#E74C3C;stroke:#1C425C;stroke-width:4.7261;stroke-linecap:round;stroke-linejoin:round;stroke-miterlimit:10;}
	.st5{fill:#36B1BF;stroke:#1C425C;stroke-width:4.7261;stroke-linecap:round;stroke-linejoin:round;stroke-miterlimit:10;}
	.st6{fill:#BDD350;stroke:#1C425C;stroke-width:4.7261;stroke-linecap:round;stroke-linejoin:round;stroke-miterlimit:10;}
	.st7{fill:none;stroke:#1C425C;stroke-width:5;stroke-linecap:round;stroke-linejoin:round;stroke-miterlimit:10;}
	.st8{fill:#FFD34E;stroke:#1C425C;stroke-width:5;stroke-linecap:round;stroke-linejoin:round;stroke-miterlimit:10;}
	.st9{fill:#4AD9D9;stroke:#1C425C;stroke-width:5;stroke-linecap:round;stroke-linejoin:round;stroke-miterlimit:10;}
	.st10{fill:#EFEFEF;stroke:#1C425C;stroke-width:5;stroke-linecap:round;stroke-linejoin:round;stroke-miterlimit:10;}
	.st11{fill:#F48E36;stroke:#1C425C;stroke-width:5;stroke-linecap:round;stroke-linejoin:round;stroke-miterlimit:10;}
	.st12{fill:#BDD350;stroke:#1C425C;stroke-width:5;stroke-linecap:round;stroke-linejoin:round;stroke-miterlimit:10;}
	.st13{fill:#326DE6;}
	.st14{fill:#FFFFFF;}
	.st15{fill:#1C425C;}
	.st16{fill:none;stroke:#1C425C;stroke-width:5;stroke-linejoin:round;stroke-miterlimit:10;}
	.st17{fill:#1C425C;stroke:#1C425C;stroke-width:5;stroke-linejoin:round;stroke-miterlimit:10;}
	.st18{fill:#E74C3C;stroke:#1C425C;stroke-width:5;stroke-linecap:round;stroke-linejoin:round;stroke-miterlimit:10;}
	.st19{fill:none;stroke:#1C425C;stroke-width:5;stroke-miterlimit:10;}
	.st20{fill:none;stroke:#FFFFFF;stroke-width:5;stroke-linecap:round;stroke-miterlimit:10;}
	.st21{fill:#FFFFFF;stroke:#231F20;stroke-width:3;stroke-miterlimit:10;}
	.st22{fill:none;stroke:#231F20;stroke-width:3;stroke-miterlimit:10;}
</style>
<g>
	<g>
		<path id="path10349_2_" class="st15" d="M353.6268,60.9242c-0.7433-2.3785-2.5272-4.3111-4.7571-5.5004l-45.341-21.7042
			c-1.1893-0.5946-2.5272-0.7433-3.7165-0.7433s-2.5272,0-3.7165,0.2973l-45.341,21.8529
			c-2.2299,1.0406-3.8651,2.9732-4.4598,5.5004l-11.1494,48.9088c-0.446,2.5272,0.1487,5.0544,1.6353,7.1356l31.367,38.8
			c1.7839,1.7839,4.3111,2.9732,6.8383,3.1218h49.9494c2.6758,0.2973,5.2031-0.892,6.8383-3.1218l31.367-38.8
			c1.4866-2.0812,2.0812-4.6084,1.7839-7.1356L353.6268,60.9242z"/>
		<path id="path10351_2_" class="st14" d="M343.072,107.0084c-3.496-0.437-5.7684-0.5068-6.2437-1.9326
			c0.0655,0,0.3576,0.0464-1.1893-0.2973c1.1548-8.3719-0.592-17.1382-5.7977-25.272l0.892-0.892
			c0.309-2.472,4.5914-4.5256,7.1356-5.7977c0.3367-0.3367,0.446-0.0132,0.446-0.5946c3.031-2.3575-0.1172-7.0477-3.5678-4.4598
			c-0.293,0.293-0.432,0.446-0.5946,0.446c-0.7733,0.7733-5.6916,6.6471-6.987,5.3517h-0.1487l-1.1893,0.7433
			c-1.1893-1.1893-2.5272-2.3785-3.7165-3.5678c-5.5004-4.3111-12.3387-6.987-19.3257-7.7303l-0.1487-1.1893v0.1487
			c-0.446-0.2973-0.5946-0.7433-0.7433-1.1893c0-6.8538,2.2573-11.4886-1.7839-11.8927c-3.3534-0.5589-3.3876,3.7997-3.4192,3.8651
			c0,1.4491,0.7433,1.894,0.7433,7.8789c-0.1487,0.446-0.2973,0.892-0.7433,1.1893c-0.0065,0.0656-0.1583,1.5833-0.1487,1.4866
			c-1.6352,0.1487-3.2776,0.4064-5.0544,0.7433c-7.0183,1.3308-13.3793,5.2031-18.285,10.4061l-0.8919-0.5946h-0.1487
			c-0.1487,0-0.2973,0.1487-0.5946,0.1487c-0.2973,0-0.5946-0.1487-0.8919-0.2973c-1.338-1.0406-2.6759-2.2299-3.7165-3.4192
			c-0.1487-0.2973-0.446-0.446-0.5946-0.5946c-0.446-0.446-0.7433-0.892-1.1893-1.3379c-0.1487-0.1487-0.2973-0.1487-0.446-0.2973
			c-0.1487-0.1487-0.1487-0.1487-0.1487-0.1487c-0.5946-0.446-1.3379-0.7433-2.0812-0.7433c-0.892,0-1.6177,0.3081-2.0812,1.0406
			c-0.8599,1.3588-0.5946,3.1218,0.5946,4.1624c0.1487,0,0.1487,0.1487,0.1487,0.1487s0.2973,0.2973,0.446,0.2973
			c0.446,0.2973,1.0406,0.5946,1.6353,0.892c0.2973,0.1487,0.892,0.446,0.892,0.446c1.9968,1.1981,5.0393,3.0184,4.6084,4.3111
			v-0.1487l0.892,0.892c-0.549,1.098-7.8784,11.004-5.649,25.1234l-1.1893,0.2973c0,0.1487-0.1487,0.1487-0.1487,0.1487
			c-0.1487,0.446-0.5946,0.7433-1.0406,1.0406c-3.9249,1.0704-5.3246,0.7297-5.9464,1.0406c-0.5212,0-2.3068,0.0769-2.6759,0.446
			c-4.3441,0.7898-2.138,7.0897,1.3379,5.3517c1.6355,0,8.112-3.4834,9.6628-1.9326c0.1487,0,0.1487,0.1487,0.1487,0.1487
			l1.3379-0.1487c3.0519,9.3591,10.1555,17.0448,16.2038,20.069l-0.7433,1.0406c0,0.1487,0.1487,0.1487,0.1487,0.1487
			c0.8071,1.2107-0.6011,3.3545-2.2299,5.7977v0.1487c-0.0329,0.0657-1.8671,2.6104-1.9326,2.6759c0,0,0,0.1487-0.1487,0.1487
			c-1.6475,3.2951,2.863,6.3622,5.0544,2.5272c0,0,0-0.1487,0.1487-0.1487c0-0.1487,0.1487-0.2973,0.2973-0.446
			c0.0184-0.0735,2.1721-7.4137,4.0138-8.0276c0.1487,0,0.1487,0,0.1487-0.1487l0.5946-1.1893c9.6699,3.7989,17.234,2.5452,25.718,0
			l0.5946,1.0406c0.1487,0,0.1487,0,0.1487,0.1487c1.4921,0.4973,2.801,4.324,3.1219,5.5004v0.1487
			c0.1844,0.6456,0.7118,2.4957,1.1893,2.9732c0,0,0,0.1487,0.1487,0.1487c2.0006,3.5011,6.7064,1.3799,5.2031-2.3785
			c0-0.1487-0.1487-0.1487-0.1487-0.1487c0-0.1487-0.1487-0.2973-0.2973-0.446c-0.2973-0.5946-0.5946-1.0406-1.0406-1.4866
			c-0.1487-0.2973-0.2973-0.446-0.5946-0.7433v-0.2973c-0.886-1.1391-3.0786-4.5246-2.2299-5.7977
			c0-0.1487,0.1487-0.1487,0.1487-0.1487l-0.446-1.1893c7.5816-4.6084,13.3793-11.7441,16.0552-20.2176l1.1893,0.1487
			c0.1487,0,0.1487-0.1487,0.1487-0.1487c1.0708-1.0708,3.8941,0.0116,6.095,0.892h0.1487
			c0.2973,0.1487,0.5946,0.2973,0.8919,0.2973c2.6375,1.3187,2.1528,0.6662,2.5272,1.0406
			c1.0203,0.5101,3.0598-0.1815,3.7165-1.9326C348.9408,106.6008,343.7967,107.3708,343.072,107.0084z M303.6774,102.9946
			l-4.0138,1.9326l-4.0138-1.9326l-1.0406-4.3111l2.8245-3.5678h4.4598l2.8245,3.5678L303.6774,102.9946z M327.9088,93.3318
			c0.7433,3.1218,0.8919,6.2437,0.5946,9.3655l-14.1226-4.0138c-1.3379-0.2973-2.0812-1.6352-1.7839-2.9732
			c0.1487-0.446,0.2973-0.7433,0.5946-1.0406l11.1494-10.1088C325.9762,87.2368,327.1655,90.21,327.9088,93.3318z M319.8812,79.0605
			l-12.19,8.6222c-1.0406,0.5946-2.5272,0.446-3.2705-0.5946c-0.2973-0.2973-0.446-0.5946-0.446-1.0406l-0.8919-15.0145
			C309.6237,71.7763,315.4214,74.6008,319.8812,79.0605L319.8812,79.0605z M292.9739,71.4789l2.9732-0.5946l-0.7433,14.8659
			c0,1.3379-1.1893,2.3785-2.5272,2.3785c-0.446,0-0.7433-0.1487-1.1893-0.2973l-12.3387-8.7709
			C283.0138,75.3441,287.7709,72.6682,292.9739,71.4789z M274.8376,84.5609l11.0008,9.8115
			c1.0406,0.892,1.1893,2.3785,0.2973,3.4192c-0.2973,0.446-0.5946,0.5946-1.1893,0.7433l-14.4199,4.1624
			C270.0805,96.4536,271.5671,90.0613,274.8376,84.5609z M272.3104,109.6843l14.7172-2.5272c1.1893,0,2.3785,0.7433,2.5272,1.9326
			c0.1487,0.446,0.1487,1.0406-0.1487,1.4866l-5.649,13.6766C278.554,120.8337,274.3916,115.6306,272.3104,109.6843z
			 M306.0559,128.118c-2.0812,0.446-4.1624,0.7433-6.3923,0.7433c-3.1218,0-6.3923-0.5947-9.3655-1.4866l7.2843-13.2306
			c0.7433-0.892,1.9326-1.1893,2.9732-0.5946c0.446,0.2973,0.7433,0.5946,1.1893,1.0406l7.1356,12.9333
			C307.9885,127.672,307.0966,127.8207,306.0559,128.118z M324.1923,115.1847c-2.2299,3.5678-5.3517,6.6897-8.9195,8.9195
			l-5.7977-13.9739c-0.2973-1.1893,0.2973-2.3785,1.3379-2.8245c0.446-0.1487,0.892-0.2973,1.3379-0.2973l14.8659,2.5272
			C326.2736,111.6168,325.3816,113.5494,324.1923,115.1847z"/>
	</g>
	<polygon class="st6" points="214.5748,93.3072 203.5748,93.3072 203.5748,82.3072 194.5748,82.3072 194.5748,93.3072 
		183.5748,93.3072 183.5748,102.3072 194.5748,102.3072 194.5748,113.3072 203.5748,113.3072 203.5748,102.3072 214.5748,102.3072 	
		"/>
	<g>
		<path class="st15" d="M97.5706,163.3856c-36.1599,0-65.5782-29.4183-65.5782-65.5784s29.4183-65.5784,65.5782-65.5784
			s65.5782,29.4183,65.5782,65.5784S133.7305,163.3856,97.5706,163.3856z M97.5706,35.435c-34.3922,0-62.3725,27.98-62.3725,62.3722
			s27.9803,62.3722,62.3725,62.3722s62.3725-27.98,62.3725-62.3722S131.9628,35.435,97.5706,35.435z"/>
		<g>
			<path class="st15" d="M77.4222,138.38c-1.3171,0-2.6342-0.315-3.8367-0.9735c-2.6341-1.403-4.2948-4.1516-4.2948-7.158V97.8084
				c0-4.4952,3.6363-8.1029,8.1029-8.1029s8.1029,3.6363,8.1029,8.1029v17.2938l25.9407-17.2938L72.8983,72.0968
				c-3.7222-2.491-4.7243-7.5302-2.2619-11.2524c2.491-3.7222,7.5302-4.7243,11.2524-2.2619l48.7031,32.4688
				c2.2619,1.5175,3.6077,4.0371,3.6077,6.7572s-1.3457,5.2397-3.6077,6.7572l-48.6745,32.4401
				C80.5431,137.9219,78.9969,138.38,77.4222,138.38z"/>
		</g>
	</g>
</g>
</svg>
