<?xml version="1.0" encoding="utf-8"?>
<!-- Generator: Adobe Illustrator 22.1.0, SVG Export Plug-In . SVG Version: 6.00 Build 0)  -->
<!DOCTYPE svg PUBLIC "-//W3C//DTD SVG 1.1//EN" "http://www.w3.org/Graphics/SVG/1.1/DTD/svg11.dtd" [
	<!ENTITY st0 "fill:#FFD34E;stroke:#1C425C;stroke-width:8;stroke-linecap:round;stroke-linejoin:round;stroke-miterlimit:10;">
	<!ENTITY st1 "fill:#FFFAD5;stroke:#1C425C;stroke-width:8;stroke-linecap:round;stroke-linejoin:round;stroke-miterlimit:10;">
	<!ENTITY st2 "fill:#DB9E36;stroke:#1C425C;stroke-width:8;stroke-linecap:round;stroke-linejoin:round;stroke-miterlimit:10;">
	<!ENTITY st3 "fill:#BD4932;stroke:#1C425C;stroke-width:8;stroke-linecap:round;stroke-linejoin:round;stroke-miterlimit:10;">
	<!ENTITY st4 "fill:none;stroke:#1C425C;stroke-width:8;stroke-linecap:round;stroke-linejoin:round;stroke-miterlimit:10;">
	<!ENTITY st5 "fill:#C9DE55;stroke:#1C425C;stroke-width:8;stroke-linecap:round;stroke-linejoin:round;stroke-miterlimit:10;">
	<!ENTITY st6 "fill:#A6D3EB;stroke:#1C425C;stroke-width:8;stroke-linecap:round;stroke-linejoin:round;stroke-miterlimit:10;">
	<!ENTITY st7 "fill:#1C425C;">
	<!ENTITY st8 "fill:none;stroke:#FF530D;stroke-width:8;stroke-linejoin:round;">
	<!ENTITY st9 "fill:none;stroke:#FF530D;stroke-width:8;stroke-linejoin:round;stroke-dasharray:20.1656,20.1656;">
	<!ENTITY st10 "fill:none;stroke:#FF530D;stroke-width:8;stroke-linejoin:round;stroke-dasharray:18.0259,18.0259;">
	<!ENTITY st11 "fill:#FF530D;stroke:#1C425C;stroke-width:8;stroke-linecap:round;stroke-linejoin:round;stroke-miterlimit:10;">
	<!ENTITY st12 "fill:none;stroke:#1C425C;stroke-width:8;stroke-linecap:round;stroke-linejoin:round;">
	<!ENTITY st13 "fill:none;stroke:#A6D3EB;stroke-width:8;stroke-linejoin:round;stroke-miterlimit:10;stroke-dasharray:8;">
	<!ENTITY st14 "fill:none;stroke:#A6D3EB;stroke-width:8;stroke-linejoin:round;">
	<!ENTITY st15 "fill:none;stroke:#A6D3EB;stroke-width:8;stroke-linejoin:round;stroke-dasharray:7.9701,7.9701;">
	<!ENTITY st16 "fill:#A6D3EB;">
	<!ENTITY st17 "fill:#BD4932;">
	<!ENTITY st18 "fill:#FF530D;">
	<!ENTITY st19 "fill:#DB9E36;">
	<!ENTITY st20 "fill:#FFD34E;">
	<!ENTITY st21 "fill:#FFFAD5;">
	<!ENTITY st22 "fill:#C9DE55;">
	<!ENTITY st23 "fill:#8E2800;">
	<!ENTITY st24 "fill:#B64926;">
	<!ENTITY st25 "fill:#FFF0A5;">
	<!ENTITY st26 "fill:#A9CF54;">
	<!ENTITY st27 "fill:#F1F7E5;">
	<!ENTITY st28 "fill:#0078A4;">
	<!ENTITY st29 "fill:#1C5379;">
	<!ENTITY st30 "fill:#FF6F22;">
	<!ENTITY st31 "fill:#FFF8A4;">
	<!ENTITY st32 "fill:#96CA2D;">
	<!ENTITY st33 "fill:#F24C27;">
	<!ENTITY st34 "fill:#7FC6BC;">
	<!ENTITY st35 "fill:#037E8C;">
	<!ENTITY st36 "fill:#024959;">
	<!ENTITY st37 "fill:#404040;">
	<!ENTITY st38 "fill:#F48E36;">
	<!ENTITY st39 "fill:#F4A23E;">
	<!ENTITY st40 "fill:#94399E;">
	<!ENTITY st41 "fill:#4CBBF3;">
	<!ENTITY st42 "fill:#265CC9;">
	<!ENTITY st43 "fill:#002A4A;">
	<!ENTITY st44 "fill:#F5A503;">
	<!ENTITY st45 "fill:#E9F1DF;">
	<!ENTITY st46 "fill:#4AD9D9;">
	<!ENTITY st47 "fill:#36B1BF;">
	<!ENTITY st48 "fill:#17607D;">
	<!ENTITY st49 "fill:#FFF1CE;">
	<!ENTITY st50 "fill:#FF9311;">
	<!ENTITY st51 "fill:#D64700;">
	<!ENTITY st52 "fill:#4AD9D9;stroke:#1C425C;stroke-width:8;stroke-linecap:round;stroke-linejoin:round;stroke-miterlimit:10;">
	<!ENTITY st53 "fill:#FF9311;stroke:#1C425C;stroke-width:8;stroke-linecap:round;stroke-linejoin:round;stroke-miterlimit:10;">
	<!ENTITY st54 "fill:#94399E;stroke:#1C425C;stroke-width:8;stroke-linecap:round;stroke-linejoin:round;stroke-miterlimit:10;">
	<!ENTITY st55 "fill:#F48E36;stroke:#1C425C;stroke-width:8;stroke-linecap:round;stroke-linejoin:round;stroke-miterlimit:10;">
	<!ENTITY st56 "fill:#36B1BF;stroke:#1C425C;stroke-width:8;stroke-linecap:round;stroke-linejoin:round;stroke-miterlimit:10;">
	<!ENTITY st57 "fill:#FFF1CE;stroke:#1C425C;stroke-width:8;stroke-linecap:round;stroke-linejoin:round;stroke-miterlimit:10;">
	<!ENTITY st58 "fill:none;stroke:#7F3F98;stroke-width:8;stroke-linejoin:round;">
	<!ENTITY st59 "fill:none;stroke:#7F3F98;stroke-width:8;stroke-linejoin:round;stroke-dasharray:20.1656,20.1656;">
	<!ENTITY st60 "fill:none;stroke:#7F3F98;stroke-width:8;stroke-linejoin:round;stroke-dasharray:18.0259,18.0259;">
	<!ENTITY st61 "fill:none;stroke:#94399E;stroke-width:8;stroke-linejoin:round;stroke-miterlimit:10;stroke-dasharray:8;">
	<!ENTITY st62 "fill:none;stroke:#94399E;stroke-width:8;stroke-linejoin:round;">
	<!ENTITY st63 "fill:none;stroke:#94399E;stroke-width:8;stroke-linejoin:round;stroke-dasharray:7.9701,7.9701;">
	<!ENTITY st64 "fill:#D64700;stroke:#1C425C;stroke-width:8;stroke-linecap:round;stroke-linejoin:round;stroke-miterlimit:10;">
	<!ENTITY st65 "clip-path:url(#SVGID_2_);">
	<!ENTITY st66 "fill:#FFFFFF;stroke:#1C425C;stroke-width:8;stroke-linecap:round;stroke-linejoin:round;stroke-miterlimit:10;">
]>
<svg version="1.1" xmlns="http://www.w3.org/2000/svg" xmlns:xlink="http://www.w3.org/1999/xlink" x="0px" y="0px"
	 viewBox="0 0 400 400" style="enable-background:new 0 0 400 400;" xml:space="preserve">
<g id="Layer_1">
</g>
<g id="Revised_color_icons">
	<g>
		<g>
			<circle style="&st56;" cx="75.326" cy="62.01" r="50.004"/>
			<path style="&st56;" d="M25.321,145.827c0,17.285,3.158,33.283,8.592,46.541c0.446,1.089,1.381,1.762,2.391,1.762h78.036
				c1.008,0,1.942-0.671,2.389-1.757c5.458-13.258,8.617-29.259,8.617-46.545c0-12.67-1.689-24.638-4.753-35.356
				c-0.623-2.179-2.875-2.914-4.289-1.361c-9,9.885-20.45,16.571-33.133,18.53c-0.996,0.154-1.842,0.946-2.174,2.086l-3.164,10.868
				c-0.829,2.846-4.174,2.848-5.004,0.003l-3.158-10.813c-0.332-1.138-1.175-1.928-2.169-2.083
				c-12.686-1.982-24.141-8.647-33.18-18.531c-1.418-1.55-3.67-0.808-4.287,1.374C27.009,121.242,25.321,133.22,25.321,145.827z"/>
		</g>
	</g>
	<g>
		<g>
			<circle style="&st0;" cx="324.659" cy="62.01" r="50.004"/>
			<path style="&st0;" d="M274.655,145.827c0,17.285,3.158,33.283,8.592,46.541c0.446,1.089,1.381,1.762,2.391,1.762h78.036
				c1.008,0,1.942-0.671,2.389-1.757c5.458-13.258,8.617-29.259,8.617-46.545c0-12.67-1.689-24.638-4.753-35.356
				c-0.623-2.179-2.875-2.914-4.289-1.361c-9,9.885-20.45,16.571-33.133,18.53c-0.996,0.154-1.842,0.946-2.174,2.086l-3.164,10.868
				c-0.829,2.846-4.174,2.848-5.004,0.003l-3.158-10.813c-0.332-1.138-1.175-1.928-2.169-2.083
				c-12.686-1.982-24.141-8.647-33.18-18.531c-1.418-1.55-3.67-0.808-4.287,1.374C276.342,121.242,274.655,133.22,274.655,145.827z"
				/>
		</g>
	</g>
	<g>
		<g>
			<circle style="&st64;" cx="199.992" cy="81.276" r="50.004"/>
			<path style="&st64;" d="M149.988,165.092c0,17.285,3.158,33.283,8.592,46.541c0.446,1.089,1.381,1.762,2.391,1.762h78.036
				c1.008,0,1.942-0.671,2.389-1.757c5.458-13.258,8.617-29.259,8.617-46.545c0-12.67-1.689-24.638-4.753-35.356
				c-0.623-2.179-2.875-2.914-4.289-1.361c-9,9.885-20.45,16.571-33.133,18.53c-0.996,0.154-1.842,0.946-2.174,2.086l-3.164,10.868
				c-0.829,2.846-4.174,2.848-5.004,0.003l-3.158-10.813c-0.332-1.138-1.175-1.928-2.169-2.083
				c-12.686-1.982-24.141-8.647-33.18-18.531c-1.418-1.55-3.67-0.808-4.287,1.374C151.676,140.507,149.988,152.485,149.988,165.092z
				"/>
		</g>
	</g>
	<g>
		<g>
			<circle style="&st53;" cx="116.984" cy="173.934" r="50.004"/>
			<path style="&st53;" d="M66.98,257.751c0,17.285,3.158,33.283,8.592,46.541c0.446,1.089,1.381,1.762,2.391,1.762h78.036
				c1.008,0,1.942-0.671,2.389-1.757c5.458-13.258,8.617-29.259,8.617-46.545c0-12.67-1.689-24.638-4.753-35.356
				c-0.623-2.179-2.875-2.914-4.289-1.361c-9,9.885-20.45,16.571-33.133,18.53c-0.996,0.154-1.842,0.946-2.174,2.086l-3.164,10.868
				c-0.829,2.846-4.174,2.848-5.004,0.003l-3.158-10.813c-0.332-1.138-1.175-1.928-2.169-2.083
				c-12.686-1.982-24.141-8.647-33.18-18.531c-1.418-1.55-3.67-0.808-4.287,1.374C68.668,233.166,66.98,245.144,66.98,257.751z"/>
		</g>
	</g>
	<g>
		<g>
			<circle style="&st52;" cx="283" cy="173.934" r="50.004"/>
			<path style="&st52;" d="M232.996,257.751c0,17.285,3.158,33.283,8.592,46.541c0.446,1.089,1.381,1.762,2.391,1.762h78.036
				c1.008,0,1.942-0.671,2.389-1.757c5.458-13.258,8.617-29.259,8.617-46.545c0-12.67-1.689-24.638-4.753-35.356
				c-0.623-2.179-2.875-2.914-4.289-1.361c-9,9.885-20.45,16.571-33.133,18.53c-0.996,0.154-1.842,0.946-2.174,2.086l-3.164,10.868
				c-0.829,2.846-4.174,2.848-5.004,0.003l-3.158-10.813c-0.332-1.138-1.175-1.928-2.169-2.083
				c-12.686-1.982-24.141-8.647-33.18-18.531c-1.418-1.55-3.67-0.808-4.287,1.374C234.684,233.166,232.996,245.144,232.996,257.751z
				"/>
		</g>
	</g>
	<g>
		<g>
			<circle style="&st54;" cx="199.992" cy="236.609" r="50.004"/>
			<path style="&st54;" d="M149.988,320.426c0,17.285,3.158,33.283,8.592,46.541c0.446,1.089,1.381,1.762,2.391,1.762h78.036
				c1.008,0,1.942-0.671,2.389-1.757c5.458-13.258,8.617-29.259,8.617-46.545c0-12.67-1.689-24.638-4.753-35.356
				c-0.623-2.179-2.875-2.914-4.289-1.361c-9,9.885-20.45,16.571-33.133,18.53c-0.996,0.154-1.842,0.946-2.174,2.086l-3.164,10.868
				c-0.829,2.846-4.174,2.848-5.004,0.003l-3.158-10.813c-0.332-1.138-1.175-1.928-2.169-2.083
				c-12.686-1.982-24.141-8.647-33.18-18.531c-1.418-1.55-3.67-0.808-4.287,1.374C151.676,295.84,149.988,307.819,149.988,320.426z"
				/>
		</g>
	</g>
</g>
</svg>
