<?xml version="1.0" encoding="utf-8"?>
<!-- Generator: Adobe Illustrator 22.1.0, SVG Export Plug-In . SVG Version: 6.00 Build 0)  -->
<!DOCTYPE svg PUBLIC "-//W3C//DTD SVG 1.1//EN" "http://www.w3.org/Graphics/SVG/1.1/DTD/svg11.dtd" [
	<!ENTITY st0 "fill:#FFD34E;stroke:#1C425C;stroke-width:8;stroke-linecap:round;stroke-linejoin:round;stroke-miterlimit:10;">
	<!ENTITY st1 "fill:#FFFAD5;stroke:#1C425C;stroke-width:8;stroke-linecap:round;stroke-linejoin:round;stroke-miterlimit:10;">
	<!ENTITY st2 "fill:#DB9E36;stroke:#1C425C;stroke-width:8;stroke-linecap:round;stroke-linejoin:round;stroke-miterlimit:10;">
	<!ENTITY st3 "fill:#BD4932;stroke:#1C425C;stroke-width:8;stroke-linecap:round;stroke-linejoin:round;stroke-miterlimit:10;">
	<!ENTITY st4 "fill:none;stroke:#1C425C;stroke-width:8;stroke-linecap:round;stroke-linejoin:round;stroke-miterlimit:10;">
	<!ENTITY st5 "fill:#C9DE55;stroke:#1C425C;stroke-width:8;stroke-linecap:round;stroke-linejoin:round;stroke-miterlimit:10;">
	<!ENTITY st6 "fill:#A6D3EB;stroke:#1C425C;stroke-width:8;stroke-linecap:round;stroke-linejoin:round;stroke-miterlimit:10;">
	<!ENTITY st7 "fill:#1C425C;">
	<!ENTITY st8 "fill:none;stroke:#FF530D;stroke-width:8;stroke-linejoin:round;">
	<!ENTITY st9 "fill:none;stroke:#FF530D;stroke-width:8;stroke-linejoin:round;stroke-dasharray:20.1656,20.1656;">
	<!ENTITY st10 "fill:none;stroke:#FF530D;stroke-width:8;stroke-linejoin:round;stroke-dasharray:18.0259,18.0259;">
	<!ENTITY st11 "fill:#FF530D;stroke:#1C425C;stroke-width:8;stroke-linecap:round;stroke-linejoin:round;stroke-miterlimit:10;">
	<!ENTITY st12 "fill:none;stroke:#1C425C;stroke-width:8;stroke-linecap:round;stroke-linejoin:round;">
	<!ENTITY st13 "fill:none;stroke:#A6D3EB;stroke-width:8;stroke-linejoin:round;stroke-miterlimit:10;stroke-dasharray:8;">
	<!ENTITY st14 "fill:none;stroke:#A6D3EB;stroke-width:8;stroke-linejoin:round;">
	<!ENTITY st15 "fill:none;stroke:#A6D3EB;stroke-width:8;stroke-linejoin:round;stroke-dasharray:7.9701,7.9701;">
	<!ENTITY st16 "fill:#A6D3EB;">
	<!ENTITY st17 "fill:#BD4932;">
	<!ENTITY st18 "fill:#FF530D;">
	<!ENTITY st19 "fill:#DB9E36;">
	<!ENTITY st20 "fill:#FFD34E;">
	<!ENTITY st21 "fill:#FFFAD5;">
	<!ENTITY st22 "fill:#C9DE55;">
	<!ENTITY st23 "fill:#8E2800;">
	<!ENTITY st24 "fill:#B64926;">
	<!ENTITY st25 "fill:#FFF0A5;">
	<!ENTITY st26 "fill:#A9CF54;">
	<!ENTITY st27 "fill:#F1F7E5;">
	<!ENTITY st28 "fill:#0078A4;">
	<!ENTITY st29 "fill:#1C5379;">
	<!ENTITY st30 "fill:#FF6F22;">
	<!ENTITY st31 "fill:#FFF8A4;">
	<!ENTITY st32 "fill:#96CA2D;">
	<!ENTITY st33 "fill:#F24C27;">
	<!ENTITY st34 "fill:#7FC6BC;">
	<!ENTITY st35 "fill:#037E8C;">
	<!ENTITY st36 "fill:#024959;">
	<!ENTITY st37 "fill:#404040;">
	<!ENTITY st38 "fill:#F48E36;">
	<!ENTITY st39 "fill:#F4A23E;">
	<!ENTITY st40 "fill:#94399E;">
	<!ENTITY st41 "fill:#4CBBF3;">
	<!ENTITY st42 "fill:#265CC9;">
	<!ENTITY st43 "fill:#002A4A;">
	<!ENTITY st44 "fill:#F5A503;">
	<!ENTITY st45 "fill:#E9F1DF;">
	<!ENTITY st46 "fill:#4AD9D9;">
	<!ENTITY st47 "fill:#36B1BF;">
	<!ENTITY st48 "fill:#17607D;">
	<!ENTITY st49 "fill:#FFF1CE;">
	<!ENTITY st50 "fill:#FF9311;">
	<!ENTITY st51 "fill:#D64700;">
	<!ENTITY st52 "fill:#4AD9D9;stroke:#1C425C;stroke-width:8;stroke-linecap:round;stroke-linejoin:round;stroke-miterlimit:10;">
	<!ENTITY st53 "fill:#FF9311;stroke:#1C425C;stroke-width:8;stroke-linecap:round;stroke-linejoin:round;stroke-miterlimit:10;">
	<!ENTITY st54 "fill:#94399E;stroke:#1C425C;stroke-width:8;stroke-linecap:round;stroke-linejoin:round;stroke-miterlimit:10;">
	<!ENTITY st55 "fill:#F48E36;stroke:#1C425C;stroke-width:8;stroke-linecap:round;stroke-linejoin:round;stroke-miterlimit:10;">
	<!ENTITY st56 "fill:#36B1BF;stroke:#1C425C;stroke-width:8;stroke-linecap:round;stroke-linejoin:round;stroke-miterlimit:10;">
	<!ENTITY st57 "fill:#FFF1CE;stroke:#1C425C;stroke-width:8;stroke-linecap:round;stroke-linejoin:round;stroke-miterlimit:10;">
	<!ENTITY st58 "fill:none;stroke:#7F3F98;stroke-width:8;stroke-linejoin:round;">
	<!ENTITY st59 "fill:none;stroke:#7F3F98;stroke-width:8;stroke-linejoin:round;stroke-dasharray:20.1656,20.1656;">
	<!ENTITY st60 "fill:none;stroke:#7F3F98;stroke-width:8;stroke-linejoin:round;stroke-dasharray:18.0259,18.0259;">
	<!ENTITY st61 "fill:none;stroke:#94399E;stroke-width:8;stroke-linejoin:round;stroke-miterlimit:10;stroke-dasharray:8;">
	<!ENTITY st62 "fill:none;stroke:#94399E;stroke-width:8;stroke-linejoin:round;">
	<!ENTITY st63 "fill:none;stroke:#94399E;stroke-width:8;stroke-linejoin:round;stroke-dasharray:7.9701,7.9701;">
	<!ENTITY st64 "fill:#D64700;stroke:#1C425C;stroke-width:8;stroke-linecap:round;stroke-linejoin:round;stroke-miterlimit:10;">
	<!ENTITY st65 "clip-path:url(#SVGID_2_);">
	<!ENTITY st66 "fill:#FFFFFF;stroke:#1C425C;stroke-width:8;stroke-linecap:round;stroke-linejoin:round;stroke-miterlimit:10;">
]>
<svg version="1.1" xmlns="http://www.w3.org/2000/svg" xmlns:xlink="http://www.w3.org/1999/xlink" x="0px" y="0px"
	 viewBox="0 0 400 400" style="enable-background:new 0 0 400 400;" xml:space="preserve">
<g id="Layer_1">
</g>
<g id="Revised_color_icons">
	<g>
		<polygon style="&st56;" points="240.377,289.525 240.377,289.535 159.627,289.535 159.627,289.525 168.567,252.116 
			169.487,248.285 230.517,248.285 231.436,252.116 		"/>
		<path style="&st52;" d="M339.547,15.695h-279.1c-10.17,0-18.43,8.25-18.43,18.43v199.56c0,10.18,8.26,18.43,18.43,18.43h279.1
			c10.18,0,18.43-8.25,18.43-18.43V34.125C357.977,23.945,349.727,15.695,339.547,15.695z"/>
		<rect x="128.032" y="289.529" style="&st52;" width="143.937" height="20.625"/>
		<polygon style="&st52;" points="357.979,369.847 42.021,369.847 68.372,323.646 331.628,323.646 		"/>
		<rect x="42.021" y="369.847" style="&st56;" width="315.959" height="14.461"/>
		<g>
			<g>
				<path style="&st0;" d="M74.332,337.565c6.982,0,13.963,0,20.945,0c-1.418,3.26-2.836,6.519-4.254,9.779
					c-7.265,0-14.53,0-21.795,0C70.929,344.085,72.631,340.825,74.332,337.565z"/>
				<path style="&st0;" d="M95.277,337.565c6.982,0,13.963,0,20.944,0c-1.135,3.26-2.269,6.519-3.403,9.779
					c-7.265,0-14.53,0-21.795,0C92.441,344.085,93.859,340.825,95.277,337.565z"/>
				<path style="&st0;" d="M116.221,337.565c6.982,0,13.963,0,20.945,0c-0.851,3.26-1.701,6.519-2.552,9.779
					c-7.265,0-14.531,0-21.796,0C113.952,344.085,115.087,340.825,116.221,337.565z"/>
				<path style="&st0;" d="M137.166,337.565c6.981,0,13.963,0,20.945,0c-0.567,3.26-1.135,6.519-1.702,9.779
					c-7.265,0-14.531,0-21.795,0C135.465,344.085,136.316,340.825,137.166,337.565z"/>
				<path style="&st0;" d="M158.111,337.565c6.981,0,13.962,0,20.944,0c-0.283,3.26-0.567,6.519-0.851,9.779
					c-7.265,0-14.53,0-21.795,0C156.977,344.085,157.544,340.825,158.111,337.565z"/>
				<path style="&st0;" d="M179.055,337.565c6.981,0,13.963,0,20.945,0c0,3.26,0,6.519,0,9.779c-7.265,0-14.53,0-21.795,0
					C178.488,344.085,178.772,340.825,179.055,337.565z"/>
				<path style="&st0;" d="M200,337.565c6.982,0,13.963,0,20.945,0c0.284,3.26,0.566,6.519,0.851,9.779c-7.266,0-14.531,0-21.796,0
					C200,344.085,200,340.825,200,337.565z"/>
				<path style="&st0;" d="M220.945,337.565c6.981,0,13.962,0,20.944,0c0.567,3.26,1.135,6.519,1.702,9.779
					c-7.264,0-14.529,0-21.795,0C221.512,344.085,221.229,340.825,220.945,337.565z"/>
				<path style="&st0;" d="M241.889,337.565c6.982,0,13.964,0,20.945,0c0.851,3.26,1.702,6.519,2.552,9.779
					c-7.266,0-14.53,0-21.795,0C243.024,344.085,242.456,340.825,241.889,337.565z"/>
				<path style="&st0;" d="M262.834,337.565c6.981,0,13.963,0,20.944,0c1.134,3.26,2.269,6.519,3.403,9.779
					c-7.265,0-14.53,0-21.794,0C264.535,344.085,263.684,340.825,262.834,337.565z"/>
				<path style="&st0;" d="M283.778,337.565c6.981,0,13.962,0,20.945,0c1.417,3.26,2.835,6.519,4.254,9.779
					c-7.265,0-14.531,0-21.796,0C286.046,344.085,284.912,340.825,283.778,337.565z"/>
				<path style="&st0;" d="M304.723,337.565c6.981,0,13.963,0,20.945,0c1.702,3.26,3.402,6.519,5.104,9.779
					c-7.266,0-14.531,0-21.795,0C307.559,344.085,306.141,340.825,304.723,337.565z"/>
				<path style="&st0;" d="M69.228,347.344c7.265,0,14.531,0,21.795,0c-1.417,3.26-2.835,6.519-4.253,9.779
					c-7.549,0-15.098,0-22.646,0C65.825,353.863,67.526,350.604,69.228,347.344z"/>
				<path style="&st0;" d="M91.023,347.344c7.265,0,14.53,0,21.795,0c-1.134,3.26-2.269,6.519-3.403,9.779
					c-7.548,0-15.097,0-22.646,0C88.187,353.863,89.605,350.604,91.023,347.344z"/>
				<path style="&st0;" d="M112.818,347.344c7.264,0,14.53,0,21.796,0c-0.851,3.26-1.702,6.519-2.552,9.779
					c-7.549,0-15.098,0-22.647,0C110.55,353.863,111.685,350.604,112.818,347.344z"/>
				<path style="&st0;" d="M134.614,347.344c7.266,0,14.53,0,21.795,0c-0.567,3.26-1.134,6.519-1.702,9.779
					c-7.548,0-15.098,0-22.646,0C132.913,353.863,133.765,350.604,134.614,347.344z"/>
				<path style="&st0;" d="M156.41,347.344c7.265,0,14.53,0,21.795,0c-0.284,3.26-0.566,6.519-0.851,9.779
					c-7.549,0-15.098,0-22.646,0C155.275,353.863,155.842,350.604,156.41,347.344z"/>
				<path style="&st0;" d="M178.205,347.344c7.266,0,14.531,0,21.795,0c0,3.26,0,6.519,0,9.779c-7.548,0-15.098,0-22.646,0
					C177.638,353.863,177.92,350.604,178.205,347.344z"/>
				<path style="&st0;" d="M199.999,347.344c7.265,0,14.531,0,21.796,0c0.283,3.26,0.566,6.519,0.851,9.779
					c-7.549,0-15.098,0-22.647,0C199.999,353.863,199.999,350.604,199.999,347.344z"/>
				<path style="&st0;" d="M221.796,347.344c7.266,0,14.529,0,21.795,0c0.567,3.26,1.135,6.519,1.702,9.779
					c-7.548,0-15.097,0-22.646,0C222.363,353.863,222.079,350.604,221.796,347.344z"/>
				<path style="&st0;" d="M243.591,347.344c7.265,0,14.53,0,21.795,0c0.85,3.26,1.702,6.519,2.552,9.779
					c-7.549,0-15.097,0-22.646,0C244.725,353.863,244.158,350.604,243.591,347.344z"/>
				<path style="&st0;" d="M265.386,347.344c7.265,0,14.529,0,21.794,0c1.135,3.26,2.268,6.519,3.403,9.779
					c-7.548,0-15.098,0-22.646,0C267.088,353.863,266.236,350.604,265.386,347.344z"/>
				<path style="&st0;" d="M287.181,347.344c7.266,0,14.531,0,21.796,0c1.417,3.26,2.835,6.519,4.253,9.779
					c-7.549,0-15.098,0-22.647,0C289.449,353.863,288.315,350.604,287.181,347.344z"/>
				<path style="&st0;" d="M308.977,347.344c7.265,0,14.531,0,21.795,0c1.701,3.26,3.402,6.519,5.104,9.779
					c-7.548,0-15.097,0-22.646,0C311.812,353.863,310.395,350.604,308.977,347.344z"/>
			</g>
		</g>
	</g>
	<rect x="61.78" y="35.452" style="&st66;" width="276.44" height="196.667"/>
	<rect x="61.78" y="35.452" style="&st54;" width="276.44" height="22.424"/>
	<g>
		<g>
			<line style="&st4;" x1="82.936" y1="78.096" x2="106.475" y2="78.096"/>
			<line style="&st4;" x1="82.936" y1="97.003" x2="106.475" y2="97.003"/>
			<line style="&st4;" x1="82.936" y1="115.91" x2="106.475" y2="115.91"/>
			<line style="&st4;" x1="82.936" y1="134.817" x2="106.475" y2="134.817"/>
		</g>
		<g>
			<line style="&st4;" x1="127.711" y1="78.096" x2="315.397" y2="78.096"/>
			<line style="&st4;" x1="127.711" y1="97.003" x2="192.569" y2="97.003"/>
			<line style="&st4;" x1="127.711" y1="115.91" x2="207.942" y2="115.91"/>
			<line style="&st4;" x1="127.711" y1="134.817" x2="228.887" y2="134.817"/>
			<line style="&st4;" x1="127.711" y1="153.724" x2="200.002" y2="153.724"/>
			<line style="&st4;" x1="127.711" y1="172.631" x2="214.22" y2="172.631"/>
			<line style="&st4;" x1="127.711" y1="191.538" x2="240.377" y2="191.538"/>
			<line style="&st4;" x1="127.711" y1="211.757" x2="254.488" y2="211.757"/>
		</g>
	</g>
</g>
</svg>
