<?xml version="1.0" encoding="utf-8"?>
<!-- Generator: Adobe Illustrator 21.1.0, SVG Export Plug-In . SVG Version: 6.00 Build 0)  -->
<svg version="1.1" id="Layer_1" xmlns="http://www.w3.org/2000/svg" xmlns:xlink="http://www.w3.org/1999/xlink" x="0px" y="0px"
	 viewBox="0 0 600 250" style="enable-background:new 0 0 600 250;" xml:space="preserve">
<style type="text/css">
	.st0{fill:#FF9311;stroke:#1C425C;stroke-width:3;stroke-miterlimit:10;}
	.st1{fill:#1C425C;}
	.st2{font-family:'URWGeometric-ExtraBold';}
	.st3{font-size:14px;}
	.st4{fill:none;stroke:#1C425C;stroke-width:3;stroke-miterlimit:10;}
	.st5{fill:#EFEFEF;stroke:#1C425C;stroke-width:3;stroke-miterlimit:10;}
	.st6{fill:#FFFFFF;stroke:#1C425C;stroke-width:3;stroke-miterlimit:10;}
	.st7{font-size:16px;}
	.st8{font-size:13px;}
</style>
<circle class="st0" cx="43.2" cy="62.4" r="37.6"/>
<text transform="matrix(1 0 0 1 10.1064 67)" class="st1 st2 st3">MATERIAL 1</text>
<g>
	<g>
		<path class="st4" d="M43,100c0,0,5.6,60.5,68.8,64.8"/>
		<g>
			<polygon class="st1" points="110.2,169.6 119,165 110.6,159.6 			"/>
		</g>
	</g>
</g>
<path class="st5" d="M384,212H128.5c-5,0-9-4-9-9v-83.5c0-5,4-9,9-9H384c5,0,9,4,9,9V203C393,208,389,212,384,212z"/>
<path class="st6" d="M198.5,197.5h-61c-3.9,0-7-3.1-7-7v-12c0-3.9,3.1-7,7-7h61c3.9,0,7,3.1,7,7v12
	C205.5,194.4,202.4,197.5,198.5,197.5z"/>
<path class="st6" d="M287,197.5h-61c-3.9,0-7-3.1-7-7v-12c0-3.9,3.1-7,7-7h61c3.9,0,7,3.1,7,7v12C294,194.4,290.9,197.5,287,197.5z"
	/>
<path class="st6" d="M375.5,197.5h-61c-3.9,0-7-3.1-7-7v-12c0-3.9,3.1-7,7-7h61c3.9,0,7,3.1,7,7v12
	C382.5,194.4,379.4,197.5,375.5,197.5z"/>
<text transform="matrix(1 0 0 1 187.5518 137.7266)" class="st1 st2 st7">UPSTREAM PIPELINE</text>
<text transform="matrix(1 0 0 1 321.5645 189.1436)" class="st1 st2 st8">STAGE 3</text>
<text transform="matrix(1 0 0 1 233.5254 189.1436)" class="st1 st2 st8">STAGE 2</text>
<text transform="matrix(1 0 0 1 145.5981 189.1436)" class="st1 st2 st8">STAGE 1</text>
<g>
	<g>
		<path class="st4" d="M410,146.4c0,0-90.1-0.4-126.8-0.4c-22.2,0-26.9,8.4-28,17.3"/>
		<g>
			<polygon class="st1" points="250.5,161.6 255,170.5 260.4,162.1 			"/>
		</g>
	</g>
</g>
<path class="st5" d="M586,185.2H419.2c-5,0-9-4-9-9v-82c0-5,4-9,9-9H586c5,0,9,4,9,9v82C595,181.2,591,185.2,586,185.2z"/>
<path class="st6" d="M487.5,171h-61c-3.9,0-7-3.1-7-7v-11c0-3.9,3.1-7,7-7h61c3.9,0,7,3.1,7,7v11C494.5,167.9,491.4,171,487.5,171z"
	/>
<path class="st6" d="M577,171h-61c-3.9,0-7-3.1-7-7v-11c0-3.9,3.1-7,7-7h61c3.9,0,7,3.1,7,7v11C584,167.9,580.9,171,577,171z"/>
<text transform="matrix(1 0 0 1 416.312 113.7266)" class="st1 st2 st7">DOWNSTREAM PIPELINE 1</text>
<text transform="matrix(1 0 0 1 523.5254 163.1436)" class="st1 st2 st8">STAGE 2</text>
<text transform="matrix(1 0 0 1 434.5981 163.1436)" class="st1 st2 st8">STAGE 1</text>
</svg>
