<svg data-name="Layer 1" xmlns="http://www.w3.org/2000/svg"
     viewBox="75 50 112 80" height="34px" width="34px">
    <defs>
        <style>.a259c8a2-a3d1-4199-8102-81eb076648c1{fill:#ed0000;}</style>
    </defs>
    <path class="a259c8a2-a3d1-4199-8102-81eb076648c1"
          d="M165.85544,89.76643c.93491,4.43706.93491,4.90414.93491,5.48784,0,7.59048-8.52529,11.7936-19.73345,11.7936-25.3402,0-47.52524-14.82912-47.52524-24.63783a9.98179,9.98179,0,0,1,.81726-3.96992c-9.10832.46709-20.90177,2.10134-20.90177,12.49376C79.44715,107.9817,119.84946,129,151.8436,129c24.52179,0,30.70925-11.09226,30.70925-19.84993,0-6.89037-5.95454-14.71226-16.69741-19.38364m-17.63179,6.189c6.77354,0,16.581-1.40179,16.581-9.45854a7.659,7.659,0,0,0-.16791-1.85375l-4.03434-17.52936c-.93545-3.85325-1.75229-5.60522-8.52474-8.99172C146.82235,55.437,135.37964,51,131.993,51c-3.15266,0-4.086,4.086-7.82323,4.086-3.61921,0-6.30507-3.03525-9.69129-3.03525-3.26874,0-5.3717,2.218-7.0062,6.77245,0,0-4.55443,12.8442-5.13819,14.71145a3.386,3.386,0,0,0-.1203,1.05213c0,4.99188,19.65974,21.36859,46.00982,21.36859"/>
    <path d="M165.85544,89.76643c.93491,4.43706.93491,4.90414.93491,5.48784,0,7.59048-8.52529,11.7936-19.73345,11.7936-25.3402,0-47.52524-14.82912-47.52524-24.63783a9.98179,9.98179,0,0,1,.81726-3.96992l1.98521-4.90543a3.386,3.386,0,0,0-.1203,1.05213c0,4.99188,19.65974,21.36859,46.00982,21.36859,6.77354,0,16.581-1.40179,16.581-9.45854a7.659,7.659,0,0,0-.16791-1.85375l1.21875,5.12331Z"/>
</svg>