<svg xmlns="http://www.w3.org/2000/svg" xmlns:xlink="http://www.w3.org/1999/xlink" viewBox="0 0 29.36 34.1"><defs><style>.cls-1{fill:none;}.cls-2{clip-path:url(#clip-path);}.cls-3{clip-path:url(#clip-path-2);}.cls-4{fill:#a80030;}.cls-5{clip-path:url(#clip-path-3);}.cls-6{clip-path:url(#clip-path-5);}.cls-7{clip-path:url(#clip-path-7);}</style><clipPath id="clip-path" transform="translate(-0.14)"><path class="cls-1" d="M18.81,17.11A2.55,2.55,0,0,0,19.29,16a2.61,2.61,0,0,1-.33.74c-.75.47-.07-.28,0-.57-.81,1-.11.61-.14.9"/></clipPath><clipPath id="clip-path-2" transform="translate(-0.14)"><rect class="cls-1" y="1.56" width="30" height="30"/></clipPath><clipPath id="clip-path-3" transform="translate(-0.14)"><path class="cls-1" d="M22.25,15.32a3.57,3.57,0,0,1-.38,1.53l-.35.17c-.28.55,0,.35-.18.79a9.63,9.63,0,0,1-1.64,1.31c-.21,0,.14-.25.19-.34-.59.41-.48.61-1.39.86l0-.06c-2.24,1.06-5.36-1-5.32-3.89,0,.18-.07.14-.12.21a3.59,3.59,0,0,1,2-3.54,3.4,3.4,0,0,1,3.78.49,3.37,3.37,0,0,0-2.75-1.32,3.11,3.11,0,0,0-2.67,1.6c-.61.38-.68,1.48-.95,1.68-.36,2.63.67,3.76,2.41,5.1.27.18.08.21.11.35a4.73,4.73,0,0,1-1.54-1.18,4.15,4.15,0,0,0,.8.93c-.55-.18-1.28-1.32-1.49-1.37.94,1.68,3.82,3,5.32,2.32a6.28,6.28,0,0,1-2.36-.28c-.33-.17-.78-.52-.7-.58a5.87,5.87,0,0,0,6-.84c.45-.35.95-1,1.09-1-.22.32,0,.16-.13.44.45-.73-.2-.3.47-1.26l.24.34c-.09-.6.75-1.34.66-2.29.19-.29.22.31,0,1,.28-.74.08-.86.15-1.48a5.66,5.66,0,0,1,.24.64A2.83,2.83,0,0,1,24,14c-.09,0-.29.32-.33-.53,0-.37.1-.19.14-.28a1.64,1.64,0,0,1-.38-.87c.08-.13.22.33.34.35a8.46,8.46,0,0,1-.21-1.09c-.33-.7-.12.09-.39-.3-.36-1.11.29-.26.34-.76a8.91,8.91,0,0,1,1,2.49A10.19,10.19,0,0,0,24,11.26c.16.07-.26-1.26.21-.38a7.9,7.9,0,0,0-3.71-4.44c.19.17.42.39.34.42-.76-.45-.63-.49-.74-.68-.62-.25-.66,0-1.07,0a12.71,12.71,0,0,0-2.47-.94l0,.23c-.78-.26-.9.1-1.74,0-.05,0,.27-.14.53-.18-.75.1-.71-.15-1.45,0A6.21,6.21,0,0,1,14.52,5c-.61,0-1.46.36-1.2.07a14.09,14.09,0,0,0-3.76,2l0-.21c-.46.55-2,1.63-2.11,2.34l-.12,0a13.23,13.23,0,0,0-.58,1.27c-.31.53-.45.2-.41.29a19.27,19.27,0,0,0-1.17,3.13,17.93,17.93,0,0,1,.07,2.8c-.31,5.53,3.88,10.9,8.46,12.14a9.16,9.16,0,0,0,2.52.26c-1-.29-1.13-.15-2.11-.49-.7-.33-.86-.71-1.36-1.14l.2.35c-1-.35-.57-.43-1.36-.68l.21-.27a1.81,1.81,0,0,1-1-.82h-.35c-.42-.51-.64-.88-.62-1.17l-.11.2c-.13-.22-1.53-1.93-.8-1.53A1.63,1.63,0,0,1,8.39,23l.15-.17a2.83,2.83,0,0,1-.62-1.22.79.79,0,0,0,.45.34c-.89-2.2-.94-.12-1.61-2.24H6.9a4.75,4.75,0,0,1-.26-.52l.06-.62c-.64-.74-.18-3.13-.09-4.45a12.77,12.77,0,0,1,.89-2l-.22,0c.42-.72,2.37-2.91,3.27-2.79.44-.55-.09,0-.17-.14,1-1,1.27-.7,1.92-.88.7-.42-.6.16-.27-.16,1.21-.31.86-.7,2.44-.86.17.09-.39.15-.53.27a6.52,6.52,0,0,1,4.61.27A6.76,6.76,0,0,1,22.13,13l.08,0A10,10,0,0,1,22,15.74l.2-.43"/></clipPath><clipPath id="clip-path-5" transform="translate(-0.14)"><path class="cls-1" d="M12.26,18.2l-.06.28a5.41,5.41,0,0,0,.81,1c-.24-.47-.42-.67-.75-1.31"/></clipPath><clipPath id="clip-path-7" transform="translate(-0.14)"><path class="cls-1" d="M23.95,15.78l-.06.15a7.15,7.15,0,0,1-.7,2.24,7.05,7.05,0,0,0,.76-2.39"/></clipPath></defs><title>Asset 7</title><g id="Layer_2" data-name="Layer 2"><g id="Layer_7" data-name="Layer 7"><g class="cls-2"><g class="cls-3"><rect class="cls-4" x="13.42" y="11.05" width="10.73" height="11.07"/></g></g><g class="cls-5"><g class="cls-3"><rect class="cls-4" width="29.36" height="34.1"/></g></g><g class="cls-6"><g class="cls-3"><rect class="cls-4" x="7.07" y="13.2" width="10.81" height="11.31"/></g></g><g class="cls-7"><g class="cls-3"><rect class="cls-4" x="18.05" y="10.78" width="10.76" height="12.39"/></g></g></g></g></svg>