<svg xmlns="http://www.w3.org/2000/svg" xmlns:xlink="http://www.w3.org/1999/xlink" viewBox="0 0 35.06 27.17"><defs><style>.cls-1,.cls-2,.cls-3{fill:none;}.cls-2{clip-rule:evenodd;}.cls-3{fill-rule:evenodd;}.cls-4{clip-path:url(#clip-path);}.cls-5{clip-path:url(#clip-path-2);}.cls-6{fill:#2097c8;}.cls-7{clip-path:url(#clip-path-3);}.cls-8{clip-path:url(#clip-path-5);}.cls-9{clip-path:url(#clip-path-7);}.cls-10{clip-path:url(#clip-path-9);}.cls-11{clip-path:url(#clip-path-11);}.cls-12{clip-path:url(#clip-path-13);}.cls-13{clip-path:url(#clip-path-15);}.cls-14{clip-path:url(#clip-path-17);}.cls-15{clip-path:url(#clip-path-19);}.cls-16{clip-path:url(#clip-path-21);}.cls-17{isolation:isolate;}.cls-18{clip-path:url(#clip-path-23);}.cls-19{clip-path:url(#clip-path-24);}.cls-20{fill:#fffffe;}.cls-21{clip-path:url(#clip-path-26);}.cls-22{fill:#1c69a5;}.cls-23{clip-path:url(#clip-path-28);}.cls-24{clip-path:url(#clip-path-30);}.cls-25{fill:#455259;}.cls-26{clip-path:url(#clip-path-32);}.cls-27{fill:#e6e2de;}.cls-28{clip-path:url(#clip-path-34);}.cls-29{fill:#2a8bb4;}.cls-30{clip-path:url(#clip-path-38);}.cls-31{clip-path:url(#clip-path-40);}.cls-32{clip-path:url(#clip-path-44);}.cls-33{clip-path:url(#clip-path-46);}.cls-34{clip-path:url(#clip-path-50);}.cls-35{fill:#e3e0db;}.cls-36{clip-path:url(#clip-path-54);}.cls-37{fill:#1f6396;}.cls-38{clip-path:url(#clip-path-58);}.cls-39{fill:#1869a5;}.cls-40{clip-path:url(#clip-path-60);}.cls-41{clip-path:url(#clip-path-62);}.cls-42{clip-path:url(#clip-path-64);}.cls-43{clip-path:url(#clip-path-66);}.cls-44{clip-path:url(#clip-path-68);}.cls-45{clip-path:url(#clip-path-70);}.cls-46{clip-path:url(#clip-path-72);}.cls-47{clip-path:url(#clip-path-74);}.cls-48{clip-path:url(#clip-path-76);}.cls-49{clip-path:url(#clip-path-78);}.cls-50{clip-path:url(#clip-path-80);}.cls-51{clip-path:url(#clip-path-82);}.cls-52{clip-path:url(#clip-path-84);}.cls-53{clip-path:url(#clip-path-86);}.cls-54{clip-path:url(#clip-path-88);}.cls-55{clip-path:url(#clip-path-90);}.cls-56{clip-path:url(#clip-path-92);}.cls-57{clip-path:url(#clip-path-94);}.cls-58{clip-path:url(#clip-path-96);}.cls-59{clip-path:url(#clip-path-98);}.cls-60{clip-path:url(#clip-path-100);}.cls-61{clip-path:url(#clip-path-102);}.cls-62{clip-path:url(#clip-path-104);}.cls-63{clip-path:url(#clip-path-106);}.cls-64{clip-path:url(#clip-path-108);}.cls-65{clip-path:url(#clip-path-110);}.cls-66{clip-path:url(#clip-path-111);}.cls-67{clip-path:url(#clip-path-112);}.cls-68{clip-path:url(#clip-path-113);}.cls-69{clip-path:url(#clip-path-114);}.cls-70{clip-path:url(#clip-path-115);}</style><clipPath id="clip-path" transform="translate(0 -1.42)"><rect class="cls-1" x="10.41" y="12.11" width="2.57" height="2.31"/></clipPath><clipPath id="clip-path-2" transform="translate(0 -1.42)"><rect class="cls-1" x="2.43" width="30" height="30"/></clipPath><clipPath id="clip-path-3" transform="translate(0 -1.42)"><rect class="cls-1" x="7.37" y="12.11" width="2.57" height="2.31"/></clipPath><clipPath id="clip-path-5" transform="translate(0 -1.42)"><rect class="cls-1" x="13.44" y="12.11" width="2.57" height="2.31"/></clipPath><clipPath id="clip-path-7" transform="translate(0 -1.42)"><rect class="cls-1" x="16.47" y="12.11" width="2.57" height="2.31"/></clipPath><clipPath id="clip-path-9" transform="translate(0 -1.42)"><rect class="cls-1" x="19.5" y="12.11" width="2.57" height="2.31"/></clipPath><clipPath id="clip-path-11" transform="translate(0 -1.42)"><rect class="cls-1" x="10.41" y="9.33" width="2.57" height="2.31"/></clipPath><clipPath id="clip-path-13" transform="translate(0 -1.42)"><rect class="cls-1" x="13.44" y="9.33" width="2.57" height="2.31"/></clipPath><clipPath id="clip-path-15" transform="translate(0 -1.42)"><rect class="cls-1" x="16.47" y="9.33" width="2.57" height="2.31"/></clipPath><clipPath id="clip-path-17" transform="translate(0 -1.42)"><rect class="cls-1" x="16.47" y="6.56" width="2.57" height="2.31"/></clipPath><clipPath id="clip-path-19" transform="translate(0 -1.42)"><path class="cls-2" d="M29.71,12.82a4.42,4.42,0,0,0-2.92-.23A3.44,3.44,0,0,0,25.28,10l-.35-.23-.23.35a4,4,0,0,0-.58,2.44,2.89,2.89,0,0,0,.58,1.51,3.85,3.85,0,0,1-2.22.58H5.8c-.3,1.75.21,8.38,7.93,8.38,5.73,0,10.44-2.55,12.6-7.91a3.47,3.47,0,0,0,3.5-1.63s.23-.47.23-.47l-.35-.23"/></clipPath><clipPath id="clip-path-21" transform="translate(0 -1.42)"><path class="cls-2" d="M12,19.91a6.51,6.51,0,0,0,3.78,2.87C11.56,24,9,21.82,7.58,20.64A14.59,14.59,0,0,0,12,19.91Z"/></clipPath><clipPath id="clip-path-23" transform="translate(0 -1.42)"><rect class="cls-1" x="7.43" y="19" width="9" height="5"/></clipPath><clipPath id="clip-path-24" transform="translate(0 -1.42)"><rect class="cls-1" x="7.58" y="19.91" width="8.17" height="3.26"/></clipPath><clipPath id="clip-path-26" transform="translate(0 -1.42)"><path class="cls-2" d="M11.75,19.51a6.29,6.29,0,0,1-3.1.81A6.36,6.36,0,0,1,7,20.1l.33.55a6.85,6.85,0,0,0,1.32.13A6.77,6.77,0,0,0,12,19.91c-.08-.13-.16-.27-.23-.41"/></clipPath><clipPath id="clip-path-28" transform="translate(0 -1.42)"><path class="cls-2" d="M13.53,19.2a.81.81,0,1,0-.81-.81.81.81,0,0,0,.81.81"/></clipPath><clipPath id="clip-path-30" transform="translate(0 -1.42)"><path class="cls-2" d="M13.65,18.17a.23.23,0,0,1,.09-.18.46.46,0,1,0,.25.41v0a.23.23,0,0,1-.11,0,.23.23,0,0,1-.23-.23"/></clipPath><clipPath id="clip-path-32" transform="translate(0 -1.42)"><path class="cls-2" d="M29.64,12.78a3.83,3.83,0,0,0-1.69-.33,4.56,4.56,0,0,0-1.15.14v-.06a4.26,4.26,0,0,1,1.05-.12,3.72,3.72,0,0,1,1.8.37"/></clipPath><clipPath id="clip-path-34" transform="translate(0 -1.42)"><path class="cls-2" d="M14.89,23q.42-.08.85-.22a6.33,6.33,0,0,1-1.59-.69c5.33-.13,9.24-2.84,12.36-9.24l.21-.3.07,0v.06a4.56,4.56,0,0,1,1.15-.14,3.83,3.83,0,0,1,1.69.33h0L30,13l-.18.37a3.55,3.55,0,0,1-3.39,1.75h-.18c-2,4.95-6.2,7.5-11.36,7.86"/></clipPath><clipPath id="clip-path-38" transform="translate(0 -1.42)"><path class="cls-2" d="M10.86,22.72a6.83,6.83,0,0,1-3.52-2.07l.24,0a6.66,6.66,0,0,0,3,1.92l.28.11"/></clipPath><clipPath id="clip-path-40" transform="translate(0 -1.42)"><path class="cls-2" d="M10.59,22.61a6.66,6.66,0,0,1-3-1.92h.07a11.37,11.37,0,0,0,2.92,1.9"/></clipPath><clipPath id="clip-path-44" transform="translate(0 -1.42)"><path class="cls-2" d="M7.31,20.61A8.35,8.35,0,0,1,5.5,14.87h.28a8.18,8.18,0,0,0,1.37,5.26L7,20.1l.31.51"/></clipPath><clipPath id="clip-path-46" transform="translate(0 -1.42)"><path class="cls-2" d="M8.52,20.31a6.37,6.37,0,0,1-1.37-.18,8.18,8.18,0,0,1-1.37-5.26h.66c.22,2.23.74,4.15,2.09,5.44"/></clipPath><clipPath id="clip-path-50" transform="translate(0 -1.42)"><path class="cls-2" d="M13.61,23a11.06,11.06,0,0,1-2.74-.32l-.28-.11a11.37,11.37,0,0,1-2.92-1.9,6.86,6.86,0,0,0,1,.07h.41a8.43,8.43,0,0,0,5.07,1.32h0a6.33,6.33,0,0,0,1.59.69q-.44.13-.85.22-.63,0-1.29,0"/></clipPath><clipPath id="clip-path-54" transform="translate(0 -1.42)"><path class="cls-2" d="M8.65,20.78a6.86,6.86,0,0,1-1-.07H7.59l-.24,0,0,0L7,20.1l.14,0a6.37,6.37,0,0,0,1.37.18,5.17,5.17,0,0,0,.54.45H8.65"/></clipPath><clipPath id="clip-path-58" transform="translate(0 -1.42)"><rect class="cls-1" x="7.84" y="12.57" width="0.3" height="1.39"/></clipPath><clipPath id="clip-path-60" transform="translate(0 -1.42)"><rect class="cls-1" x="8.54" y="12.57" width="0.3" height="1.39"/></clipPath><clipPath id="clip-path-62" transform="translate(0 -1.42)"><rect class="cls-1" x="9.24" y="12.57" width="0.3" height="1.39"/></clipPath><clipPath id="clip-path-64" transform="translate(0 -1.42)"><rect class="cls-1" x="10.87" y="12.57" width="0.3" height="1.39"/></clipPath><clipPath id="clip-path-66" transform="translate(0 -1.42)"><rect class="cls-1" x="11.57" y="12.57" width="0.3" height="1.39"/></clipPath><clipPath id="clip-path-68" transform="translate(0 -1.42)"><rect class="cls-1" x="12.27" y="12.57" width="0.3" height="1.39"/></clipPath><clipPath id="clip-path-70" transform="translate(0 -1.42)"><rect class="cls-1" x="13.91" y="12.57" width="0.3" height="1.39"/></clipPath><clipPath id="clip-path-72" transform="translate(0 -1.42)"><rect class="cls-1" x="14.61" y="12.57" width="0.3" height="1.39"/></clipPath><clipPath id="clip-path-74" transform="translate(0 -1.42)"><rect class="cls-1" x="15.31" y="12.57" width="0.3" height="1.39"/></clipPath><clipPath id="clip-path-76" transform="translate(0 -1.42)"><rect class="cls-1" x="16.94" y="12.57" width="0.3" height="1.39"/></clipPath><clipPath id="clip-path-78" transform="translate(0 -1.42)"><rect class="cls-1" x="17.64" y="12.57" width="0.3" height="1.39"/></clipPath><clipPath id="clip-path-80" transform="translate(0 -1.42)"><rect class="cls-1" x="18.34" y="12.57" width="0.3" height="1.39"/></clipPath><clipPath id="clip-path-82" transform="translate(0 -1.42)"><rect class="cls-1" x="19.97" y="12.57" width="0.3" height="1.39"/></clipPath><clipPath id="clip-path-84" transform="translate(0 -1.42)"><rect class="cls-1" x="20.67" y="12.57" width="0.3" height="1.39"/></clipPath><clipPath id="clip-path-86" transform="translate(0 -1.42)"><rect class="cls-1" x="21.37" y="12.57" width="0.3" height="1.39"/></clipPath><clipPath id="clip-path-88" transform="translate(0 -1.42)"><rect class="cls-1" x="11.57" y="9.8" width="0.3" height="1.39"/></clipPath><clipPath id="clip-path-90" transform="translate(0 -1.42)"><rect class="cls-1" x="12.27" y="9.8" width="0.3" height="1.39"/></clipPath><clipPath id="clip-path-92" transform="translate(0 -1.42)"><rect class="cls-1" x="13.91" y="9.8" width="0.3" height="1.39"/></clipPath><clipPath id="clip-path-94" transform="translate(0 -1.42)"><rect class="cls-1" x="14.61" y="9.8" width="0.3" height="1.39"/></clipPath><clipPath id="clip-path-96" transform="translate(0 -1.42)"><rect class="cls-1" x="15.31" y="9.8" width="0.3" height="1.39"/></clipPath><clipPath id="clip-path-98" transform="translate(0 -1.42)"><rect class="cls-1" x="16.94" y="9.8" width="0.3" height="1.39"/></clipPath><clipPath id="clip-path-100" transform="translate(0 -1.42)"><rect class="cls-1" x="17.64" y="9.8" width="0.3" height="1.39"/></clipPath><clipPath id="clip-path-102" transform="translate(0 -1.42)"><rect class="cls-1" x="18.34" y="9.8" width="0.3" height="1.39"/></clipPath><clipPath id="clip-path-104" transform="translate(0 -1.42)"><rect class="cls-1" x="17.64" y="7.02" width="0.3" height="1.39"/></clipPath><clipPath id="clip-path-106" transform="translate(0 -1.42)"><rect class="cls-1" x="16.94" y="7.02" width="0.3" height="1.39"/></clipPath><clipPath id="clip-path-108" transform="translate(0 -1.42)"><rect class="cls-1" x="18.34" y="7.02" width="0.3" height="1.39"/></clipPath><clipPath id="clip-path-110" transform="translate(0 -1.42)"><polygon class="cls-2" points="17.43 6.42 29.85 6.42 29.85 23.57 5 23.57 5 6.42 17.43 6.42 29.85 6.42 29.85 23.58 5 23.58 5 6.42 17.43 6.42"/></clipPath><clipPath id="clip-path-111" transform="translate(0 -1.42)"><rect class="cls-1" x="2" y="0.32" width="30" height="30"/></clipPath><clipPath id="clip-path-112" transform="translate(0 -1.42)"><rect class="cls-1" x="4" y="6.32" width="26" height="18"/></clipPath><clipPath id="clip-path-113" transform="translate(0 -1.42)"><rect class="cls-1" x="10.45" y="10.12" width="0.3" height="1.39"/></clipPath><clipPath id="clip-path-114" transform="translate(0 -1.42)"><rect class="cls-1" x="5" y="6.32" width="25" height="18"/></clipPath><clipPath id="clip-path-115" transform="translate(0 -1.42)"><path class="cls-2" d="M29.33,12.91a4.53,4.53,0,0,0-2.84-.32,3.76,3.76,0,0,0-1.59-2.46l-.55-.37L24,10.3a4.18,4.18,0,0,0-.62,2.59,3.27,3.27,0,0,0,.48,1.43,3.94,3.94,0,0,1-1.75.41V12h-3V6.42h-3.5V9.19H9.51V12h-3v2.77H5.1l0,.19a7.29,7.29,0,0,0,0,2.12,8.34,8.34,0,0,0,1,2.88c1.29,2.3,3.64,3.65,7.18,3.65,6,0,10.61-2.75,12.75-7.91a4.78,4.78,0,0,0,1.79-.23,3.06,3.06,0,0,0,1.76-1.52l.13-.24.08-.16,0-.07.09-.18ZM19.08,14.74h2.57V12.43H19.08ZM16,9.19h2.57V6.88H16ZM16,12h2.57V9.65H16Zm0,2.77h2.57V12.43H16ZM13,12h2.57V9.65H13Zm0,2.77h2.57V12.43H13ZM10,12h2.57V9.65H10Zm0,2.77h2.57V12.43H10Zm-3,0H9.51V12.43H6.95Zm22.28-1.26-.07.14,0,.08a2.6,2.6,0,0,1-1.5,1.3,4.43,4.43,0,0,1-1.67.2h-.28l-.06.15c-2,5.07-6.5,7.77-12.38,7.77-3.36,0-5.56-1.26-6.77-3.42A7.88,7.88,0,0,1,5.55,17,7.32,7.32,0,0,1,5.5,15.2H22.11a4,4,0,0,0,2.22-.63l.19-.15-.15-.19a2.65,2.65,0,0,1-.53-1.39,3.72,3.72,0,0,1,.55-2.29l.1-.15.15.1a3.2,3.2,0,0,1,1.42,2.38l0,.29.28-.07a4.24,4.24,0,0,1,2.73.2l.18.12Z"/></clipPath></defs><title>Asset 4</title><g id="Layer_2" data-name="Layer 2"><g id="Layer_4" data-name="Layer 4"><g class="cls-4"><g class="cls-5"><rect class="cls-6" x="5.41" y="5.69" width="12.57" height="12.31"/></g></g><g class="cls-7"><g class="cls-5"><rect class="cls-6" x="2.37" y="5.69" width="12.57" height="12.31"/></g></g><g class="cls-8"><g class="cls-5"><rect class="cls-6" x="8.44" y="5.69" width="12.57" height="12.31"/></g></g><g class="cls-9"><g class="cls-5"><rect class="cls-6" x="11.47" y="5.69" width="12.57" height="12.31"/></g></g><g class="cls-10"><g class="cls-5"><rect class="cls-6" x="14.5" y="5.69" width="12.57" height="12.31"/></g></g><g class="cls-11"><g class="cls-5"><rect class="cls-6" x="5.41" y="2.92" width="12.57" height="12.31"/></g></g><g class="cls-12"><g class="cls-5"><rect class="cls-6" x="8.44" y="2.92" width="12.57" height="12.31"/></g></g><g class="cls-13"><g class="cls-5"><rect class="cls-6" x="11.47" y="2.92" width="12.57" height="12.31"/></g></g><g class="cls-14"><g class="cls-5"><rect class="cls-6" x="11.47" y="0.14" width="12.57" height="12.31"/></g></g><g class="cls-15"><g class="cls-5"><rect class="cls-6" x="0.74" y="3.38" width="34.32" height="23.27"/></g></g><g class="cls-16"><g class="cls-5"><g class="cls-17"><g class="cls-18"><g class="cls-19"><g class="cls-18"><rect class="cls-20" x="2.58" y="13.49" width="18.17" height="13.26"/></g></g></g></g></g></g><g class="cls-21"><g class="cls-5"><rect class="cls-22" x="2" y="13.09" width="14.98" height="11.27"/></g></g><g class="cls-23"><g class="cls-5"><rect class="cls-20" x="7.72" y="11.17" width="11.62" height="11.62"/></g></g><g class="cls-24"><g class="cls-5"><rect class="cls-25" x="8.07" y="11.52" width="10.93" height="10.92"/></g></g><g class="cls-26"><g class="cls-5"><rect class="cls-27" x="21.79" y="5.99" width="12.85" height="10.37"/></g></g><g class="cls-28"><g class="cls-5"><rect class="cls-27" x="9.16" y="6.03" width="25.84" height="20.54"/></g></g><g class="cls-28"><g class="cls-5"><rect class="cls-29" x="9.16" y="6.03" width="25.84" height="20.54"/></g></g><g class="cls-30"><g class="cls-5"><rect class="cls-27" x="2.35" y="14.24" width="13.52" height="12.07"/></g></g><g class="cls-31"><g class="cls-5"><rect class="cls-27" x="2.59" y="14.28" width="13" height="11.92"/></g></g><g class="cls-31"><g class="cls-5"><rect class="cls-29" x="2.59" y="14.28" width="13" height="11.92"/></g></g><g class="cls-32"><g class="cls-5"><rect class="cls-27" x="0.48" y="8.46" width="11.82" height="15.74"/></g></g><g class="cls-33"><g class="cls-5"><rect class="cls-27" x="0.74" y="8.46" width="12.78" height="15.44"/></g></g><g class="cls-33"><g class="cls-5"><rect class="cls-29" x="0.74" y="8.46" width="12.78" height="15.44"/></g></g><g class="cls-34"><g class="cls-5"><rect class="cls-27" x="2.66" y="14.29" width="18.08" height="12.33"/></g></g><g class="cls-34"><g class="cls-5"><rect class="cls-35" x="2.66" y="14.29" width="18.08" height="12.33"/></g></g><g class="cls-36"><g class="cls-5"><rect class="cls-27" x="2" y="13.68" width="12.06" height="10.68"/></g></g><g class="cls-36"><g class="cls-5"><rect class="cls-37" x="2" y="13.68" width="12.06" height="10.68"/></g></g><g class="cls-38"><g class="cls-5"><rect class="cls-39" x="2.84" y="6.15" width="10.3" height="11.39"/></g></g><g class="cls-40"><g class="cls-5"><rect class="cls-39" x="3.54" y="6.15" width="10.3" height="11.39"/></g></g><g class="cls-41"><g class="cls-5"><rect class="cls-39" x="4.24" y="6.15" width="10.3" height="11.39"/></g></g><g class="cls-42"><g class="cls-5"><rect class="cls-39" x="5.87" y="6.15" width="10.3" height="11.39"/></g></g><g class="cls-43"><g class="cls-5"><rect class="cls-39" x="6.57" y="6.15" width="10.3" height="11.39"/></g></g><g class="cls-44"><g class="cls-5"><rect class="cls-39" x="7.27" y="6.15" width="10.3" height="11.39"/></g></g><g class="cls-45"><g class="cls-5"><rect class="cls-39" x="8.91" y="6.15" width="10.3" height="11.39"/></g></g><g class="cls-46"><g class="cls-5"><rect class="cls-39" x="9.61" y="6.15" width="10.3" height="11.39"/></g></g><g class="cls-47"><g class="cls-5"><rect class="cls-39" x="10.31" y="6.15" width="10.3" height="11.39"/></g></g><g class="cls-48"><g class="cls-5"><rect class="cls-39" x="11.94" y="6.15" width="10.3" height="11.39"/></g></g><g class="cls-49"><g class="cls-5"><rect class="cls-39" x="12.64" y="6.15" width="10.3" height="11.39"/></g></g><g class="cls-50"><g class="cls-5"><rect class="cls-39" x="13.34" y="6.15" width="10.3" height="11.39"/></g></g><g class="cls-51"><g class="cls-5"><rect class="cls-39" x="14.97" y="6.15" width="10.3" height="11.39"/></g></g><g class="cls-52"><g class="cls-5"><rect class="cls-39" x="15.67" y="6.15" width="10.3" height="11.39"/></g></g><g class="cls-53"><g class="cls-5"><rect class="cls-39" x="16.37" y="6.15" width="10.3" height="11.39"/></g></g><g class="cls-54"><g class="cls-5"><rect class="cls-39" x="6.57" y="3.38" width="10.3" height="11.39"/></g></g><g class="cls-55"><g class="cls-5"><rect class="cls-39" x="7.27" y="3.38" width="10.3" height="11.39"/></g></g><g class="cls-56"><g class="cls-5"><rect class="cls-39" x="8.91" y="3.38" width="10.3" height="11.39"/></g></g><g class="cls-57"><g class="cls-5"><rect class="cls-39" x="9.61" y="3.38" width="10.3" height="11.39"/></g></g><g class="cls-58"><g class="cls-5"><rect class="cls-39" x="10.31" y="3.38" width="10.3" height="11.39"/></g></g><g class="cls-59"><g class="cls-5"><rect class="cls-39" x="11.94" y="3.38" width="10.3" height="11.39"/></g></g><g class="cls-60"><g class="cls-5"><rect class="cls-39" x="12.64" y="3.38" width="10.3" height="11.39"/></g></g><g class="cls-61"><g class="cls-5"><rect class="cls-39" x="13.34" y="3.38" width="10.3" height="11.39"/></g></g><g class="cls-62"><g class="cls-5"><rect class="cls-39" x="12.64" y="0.6" width="10.3" height="11.39"/></g></g><g class="cls-63"><g class="cls-5"><rect class="cls-39" x="11.94" y="0.6" width="10.3" height="11.39"/></g></g><g class="cls-64"><g class="cls-5"><rect class="cls-39" x="13.34" y="0.6" width="10.3" height="11.39"/></g></g><g class="cls-65"><g class="cls-66"><g class="cls-17"><g class="cls-67"><g class="cls-68"><g class="cls-69"><rect class="cls-39" x="5.45" y="3.7" width="10.3" height="11.39"/></g></g><g class="cls-70"><g class="cls-69"><rect class="cls-39" width="34.85" height="27.17"/></g></g></g></g></g></g></g></g></svg>