<svg xmlns="http://www.w3.org/2000/svg" xmlns:xlink="http://www.w3.org/1999/xlink" viewBox="0 0 25.83 15.78"><defs><style>.cls-1,.cls-2{fill:none;}.cls-2{clip-rule:evenodd;}.cls-3{clip-path:url(#clip-path);}.cls-4{fill:#252f3e;}.cls-5{clip-path:url(#clip-path-2);}.cls-6{fill:#f90;}.cls-7{clip-path:url(#clip-path-3);}</style><clipPath id="clip-path"><path class="cls-1" d="M21.45,8.23a5.5,5.5,0,0,1-1.28-.15,3.78,3.78,0,0,1-1-.33A.6.6,0,0,1,19,7.52a.59.59,0,0,1,0-.23V6.86c0-.17.07-.26.19-.26l.15,0,.21.08a4.52,4.52,0,0,0,.91.29,5,5,0,0,0,1,.1,2.24,2.24,0,0,0,1.21-.27A.9.9,0,0,0,23,6a.81.81,0,0,0-.22-.58A2.09,2.09,0,0,0,21.94,5l-1.21-.37A2.54,2.54,0,0,1,19.4,3.8,2,2,0,0,1,19,2.59a1.85,1.85,0,0,1,.22-.92,2.14,2.14,0,0,1,.6-.68,2.64,2.64,0,0,1,.86-.43,3.62,3.62,0,0,1,1-.14,4.17,4.17,0,0,1,.56,0l.54.09.47.13a1.81,1.81,0,0,1,.35.15.72.72,0,0,1,.25.21.45.45,0,0,1,.07.27V1.7c0,.17-.07.27-.19.27a.86.86,0,0,1-.32-.1,3.8,3.8,0,0,0-1.6-.32,2.15,2.15,0,0,0-1.11.23.8.8,0,0,0-.39.74.79.79,0,0,0,.25.59,2.48,2.48,0,0,0,.91.46l1.18.37a2.53,2.53,0,0,1,1.29.8,1.88,1.88,0,0,1,.38,1.16,2.14,2.14,0,0,1-.22,1,2.24,2.24,0,0,1-.61.73,2.68,2.68,0,0,1-.92.47A4,4,0,0,1,21.45,8.23ZM10.76,8a.46.46,0,0,1-.32-.08.68.68,0,0,1-.17-.32l-2-6.43A1.46,1.46,0,0,1,8.24.84a.18.18,0,0,1,.2-.21h.81a.46.46,0,0,1,.32.08A.68.68,0,0,1,9.75,1l1.4,5.5L12.44,1A.58.58,0,0,1,12.6.72a.57.57,0,0,1,.33-.08h.67a.5.5,0,0,1,.33.08.56.56,0,0,1,.16.32L15.4,6.61,16.84,1A.71.71,0,0,1,17,.72a.54.54,0,0,1,.32-.08h.77a.18.18,0,0,1,.21.21.83.83,0,0,1,0,.13,1.18,1.18,0,0,1-.06.21l-2,6.43a.64.64,0,0,1-.17.32.53.53,0,0,1-.32.08H15a.5.5,0,0,1-.33-.08.59.59,0,0,1-.16-.33L13.25,2.24,12,7.59a.65.65,0,0,1-.16.33.52.52,0,0,1-.33.08Zm-6.68-.9A2.69,2.69,0,0,0,4.94,7a1.85,1.85,0,0,0,.79-.53A1.32,1.32,0,0,0,6,5.9a3,3,0,0,0,.08-.72V4.82a6.94,6.94,0,0,0-.76-.14,6.27,6.27,0,0,0-.78,0A1.92,1.92,0,0,0,3.31,5a1.16,1.16,0,0,0-.41,1,1.16,1.16,0,0,0,.31.88A1.15,1.15,0,0,0,4.09,7.11ZM7.46,5.85a2.52,2.52,0,0,0,.09.74,4.45,4.45,0,0,0,.27.6.36.36,0,0,1,.06.19.33.33,0,0,1-.16.25L7.19,8A.4.4,0,0,1,7,8a.38.38,0,0,1-.25-.12,2.57,2.57,0,0,1-.3-.39c-.08-.14-.17-.3-.26-.49A3.07,3.07,0,0,1,3.73,8.2a2.28,2.28,0,0,1-1.66-.6A2.14,2.14,0,0,1,1.45,6a2.14,2.14,0,0,1,.76-1.71,3,3,0,0,1,2-.65,6.58,6.58,0,0,1,.88.07c.31,0,.62.11,1,.18V3.28A1.84,1.84,0,0,0,5.69,2a1.91,1.91,0,0,0-1.36-.38,3.78,3.78,0,0,0-.9.11,6.63,6.63,0,0,0-.9.28l-.29.11-.13,0C2,2.1,1.94,2,1.94,1.84V1.43A.53.53,0,0,1,2,1.14.62.62,0,0,1,2.23,1a4.79,4.79,0,0,1,1-.37A5,5,0,0,1,4.58.43a3,3,0,0,1,2.18.67,2.75,2.75,0,0,1,.69,2V5.85Z"/></clipPath><clipPath id="clip-path-2"><path class="cls-2" d="M23,12.27a17.93,17.93,0,0,1-10.13,3.09A18.32,18.32,0,0,1,.53,10.65c-.26-.23,0-.55.28-.37a24.93,24.93,0,0,0,12.37,3.28,24.69,24.69,0,0,0,9.44-1.93C23.08,11.43,23.47,11.94,23,12.27Z"/></clipPath><clipPath id="clip-path-3"><path class="cls-2" d="M24.16,11c-.35-.45-2.31-.22-3.2-.11-.27,0-.31-.2-.07-.37,1.56-1.1,4.13-.78,4.43-.42s-.08,2.94-1.55,4.17c-.22.19-.44.09-.34-.16C23.77,13.27,24.51,11.42,24.16,11Z"/></clipPath></defs><title>Asset 8</title><g id="Layer_2" data-name="Layer 2"><g id="Layer_5" data-name="Layer 5"><g class="cls-3"><rect class="cls-4" x="1.03" width="23.76" height="8.65"/></g><g class="cls-5"><rect class="cls-6" y="9.81" width="23.63" height="5.97"/></g><g class="cls-7"><rect class="cls-6" x="20.31" y="9.32" width="5.52" height="5.45"/></g></g></g></svg>