<svg xmlns="http://www.w3.org/2000/svg" xmlns:xlink="http://www.w3.org/1999/xlink" viewBox="0 0 29.59 34.05"><defs><style>.cls-1,.cls-2{fill:none;}.cls-2{clip-rule:evenodd;}.cls-3{clip-path:url(#clip-path);}.cls-4{clip-path:url(#clip-path-2);}.cls-5{isolation:isolate;}.cls-6{clip-path:url(#clip-path-3);}.cls-7{clip-path:url(#clip-path-4);}.cls-8{clip-path:url(#clip-path-5);}.cls-9{fill:#1a1919;}.cls-10{clip-path:url(#clip-path-6);}.cls-11{clip-path:url(#clip-path-8);}.cls-12{fill:#d8232a;}.cls-13{clip-path:url(#clip-path-10);}.cls-14{clip-path:url(#clip-path-12);}.cls-15{clip-path:url(#clip-path-14);}.cls-16{clip-path:url(#clip-path-16);}.cls-17{clip-path:url(#clip-path-18);}.cls-18{clip-path:url(#clip-path-20);}.cls-19{clip-path:url(#clip-path-22);}.cls-20{clip-path:url(#clip-path-24);}.cls-21{clip-path:url(#clip-path-26);}.cls-22{clip-path:url(#clip-path-28);}.cls-23{clip-path:url(#clip-path-30);}.cls-24{clip-path:url(#clip-path-32);}.cls-25{clip-path:url(#clip-path-34);}</style><clipPath id="clip-path"><rect class="cls-1" x="5" y="5.01" width="18.79" height="16.65"/></clipPath><clipPath id="clip-path-2"><rect class="cls-1" y="2" width="30" height="30"/></clipPath><clipPath id="clip-path-3"><rect class="cls-1" x="4" y="4" width="21" height="18"/></clipPath><clipPath id="clip-path-4"><path class="cls-2" d="M22.4,19a2.11,2.11,0,0,1-.49.67c-.07.06-.16,0-.26,0a8.63,8.63,0,0,0-.91,0,2.86,2.86,0,0,0-1-.06c-.13,0-.33-.06-.42,0s.1.29,0,.42a.25.25,0,0,1-.13.13,8.36,8.36,0,0,0-.94.42c-.42.35-.72.83-1.24,1-.1,0-.33.06-.29,0a11,11,0,0,1,1.46-2.09,1,1,0,0,0,.2-.58c0-.51.33-.93.29-1.44a.07.07,0,0,0-.07-.06c-.2,0-.36.13-.55.16a2.91,2.91,0,0,1-1-.13,1.77,1.77,0,0,0-.72.13c-.2,0-.39-.13-.59-.13-.85-.1-1.69.26-2.54,0-.59-.22-.81-.87-1.3-1.25-.13-.06-.26-.19-.39-.13s-.19.19-.33.13c-.39-.19-.49-.67-.85-1a.92.92,0,0,0-.85-.19A.84.84,0,0,0,9,16.21a3.65,3.65,0,0,0,.75,1c.1.06.23.1.29.19s.07.39-.1.39a1.06,1.06,0,0,1-.81-.22c-.23-.19-.33-.51-.59-.64a1.77,1.77,0,0,0-1.07-.16,11.63,11.63,0,0,1-1.5,0,.07.07,0,0,0-.07.06c0,.19.1.35.07.51s-.29.13-.33.06a8.76,8.76,0,0,1,1.2-8.64A9.31,9.31,0,0,1,14.11,5,9.7,9.7,0,0,1,18.82,6.1a9.33,9.33,0,0,1,4,4.17A9,9,0,0,1,22.4,19"/></clipPath><clipPath id="clip-path-5"><rect class="cls-1" x="5" y="5" width="19" height="17"/></clipPath><clipPath id="clip-path-6"><path class="cls-2" d="M15.54,19.33a5.62,5.62,0,0,0-.65-.19c-.1-.06,0-.16,0-.26a.26.26,0,0,1,.36-.06c.29.13.68.32,1,0,.07-.06.13.06.16.16a.39.39,0,0,1-.16.32.73.73,0,0,1-.68.06"/></clipPath><clipPath id="clip-path-8"><path class="cls-2" d="M21.56,15.47a4.25,4.25,0,0,1-2.77,1.44,11.22,11.22,0,0,1-5.73-.64,15.15,15.15,0,0,1-5.4-3.21c-.46-.48-1.07-1.16-.68-1.8.68-1.09,2.15-.87,3.29-.83a1.26,1.26,0,0,0-.16,1,2,2,0,0,0,1.27,1c1.27.51,2.47,1.28,3.84,1.28,0,0,0,0,0-.06a5.83,5.83,0,0,1-.42-.51,4.11,4.11,0,0,0-.13-.61,1.05,1.05,0,0,0-.65-.51c-.88-.29-1.76-.45-2.6-.77-.49-.19-1-.55-1-1.09A5.6,5.6,0,0,1,11,7.48a1.45,1.45,0,0,1,1.27-.67c.78,0,1.53.35,2.31.16a4.46,4.46,0,0,1,2.34,0,2.4,2.4,0,0,1,1.5,1.61c.16.55.42,1,.62,1.54a5.08,5.08,0,0,1,.33,1.35,9.42,9.42,0,0,1-.26,1.32s0,0,.07,0a1.88,1.88,0,0,0,.52-1c1,.42,2.38.8,2.47,2.06a2.3,2.3,0,0,1-.65,1.61"/></clipPath><clipPath id="clip-path-10"><path class="cls-2" d="M13.07,9.37a1.41,1.41,0,0,0-.78.35A1,1,0,0,1,11.47,9a.52.52,0,0,1,.23-.45,1.1,1.1,0,0,0,.94.51c.52,0,1.14-.19,1.59.16a6.85,6.85,0,0,1-1.17.19"/></clipPath><clipPath id="clip-path-12"><path class="cls-2" d="M17.13,7.9c-.26.29-.68.26-1,.29.13-.13.39-.19.33-.39-.07-.42-.55-.26-.85-.35.52,0,1.4-.16,1.56.45"/></clipPath><clipPath id="clip-path-14"><path class="cls-2" d="M5.61,26.85c0-.42,0-.81,0-1.08h.68l0,.58h0a.93.93,0,0,1,.85-.65l.25,0v.72l-.3,0a.78.78,0,0,0-.7.68,1.34,1.34,0,0,0,0,.23v1.59H5.61V26.85"/></clipPath><clipPath id="clip-path-16"><path class="cls-2" d="M8.48,27.61c0,.55.46.79,1,.79a2.53,2.53,0,0,0,.86-.14l.11.53A2.82,2.82,0,0,1,9.32,29a1.49,1.49,0,0,1-1.64-1.55,1.67,1.67,0,0,1,1.56-1.77,1.45,1.45,0,0,1,1.42,1.62,1.9,1.9,0,0,1,0,.33ZM9.87,27c0-.55-.29-.78-.68-.78a.79.79,0,0,0-.72.78Z"/></clipPath><clipPath id="clip-path-18"><path class="cls-2" d="M14.24,24.55v3.52c0,.31,0,.65,0,.86H13.5l0-.48h0a1.12,1.12,0,0,1-1,.55,1.41,1.41,0,0,1-1.33-1.57A1.55,1.55,0,0,1,12.5,25.7a1,1,0,0,1,.87.35h0V24.34Zm-.85,2.6a1.13,1.13,0,0,0,0-.21.69.69,0,0,0-.68-.54c-.5,0-.78.44-.78,1s.28,1,.78,1a.69.69,0,0,0,.68-.55.85.85,0,0,0,0-.23Z"/></clipPath><clipPath id="clip-path-20"><path class="cls-2" d="M15.25,24.74l.31.06v1.56h0a1.11,1.11,0,0,1,.47-.44,1.35,1.35,0,0,1,.69-.19c.29,0,1,.24,1,1.49v1.72h-.31V27.22c0-.59-.14-1.23-.77-1.23a1.06,1.06,0,0,0-1,.66.79.79,0,0,0-.05.32v2h-.31V24.74"/></clipPath><clipPath id="clip-path-22"><path class="cls-2" d="M20.76,28.2a4.69,4.69,0,0,0,.05.73h-.29l-.05-.47h0a1.16,1.16,0,0,1-1,.54.87.87,0,0,1-1-.83c0-.69.55-1.2,2-1.18v-.07c0-.23,0-.94-.77-.93a1.56,1.56,0,0,0-.88.25l-.1-.22a1.86,1.86,0,0,1,1-.29c1,0,1.06.89,1.06,1.37Zm-.31-.95c-.81,0-1.64.17-1.64.86a.61.61,0,0,0,.67.64.93.93,0,0,0,.94-.62.49.49,0,0,0,0-.18Z"/></clipPath><clipPath id="clip-path-24"><path class="cls-2" d="M22.11,25.13v.67H23V26h-.94v2c0,.37.11.65.49.65a1.21,1.21,0,0,0,.4-.06l0,.24a1.27,1.27,0,0,1-.47.08.71.71,0,0,1-.57-.23,1.11,1.11,0,0,1-.2-.73V26h-.5v-.25h.5v-.57l.31-.09"/></clipPath><clipPath id="clip-path-26"><path class="cls-2" d="M24.28,28.84l-.16-.21h-.07v.21H24v-.51h.16q.22,0,.22.15a.12.12,0,0,1,0,.08.16.16,0,0,1-.08.05l.17.23Zm-.22-.43v.14h0l.09,0a.06.06,0,0,0,0-.06.05.05,0,0,0,0-.05h-.14Z"/></clipPath><clipPath id="clip-path-28"><path class="cls-2" d="M24.59,28.59h0a.46.46,0,0,1-.14.33.47.47,0,0,1-.66,0,.46.46,0,0,1,0-.66.47.47,0,0,1,.33-.14h0a.47.47,0,0,1,.33.14A.46.46,0,0,1,24.59,28.59Zm-.1,0h0a.36.36,0,0,0-.11-.26.37.37,0,0,0-.26-.11h0a.37.37,0,0,0-.26.11.36.36,0,0,0,0,.52.38.38,0,0,0,.53,0A.36.36,0,0,0,24.49,28.59Z"/></clipPath><clipPath id="clip-path-30"><path class="cls-2" d="M23.6,19.7l-.16-.21h-.07v.21h-.11v-.51h.16q.22,0,.22.15a.13.13,0,0,1,0,.08.16.16,0,0,1-.08.05l.17.23Zm-.22-.43v.14h0l.09,0a.06.06,0,0,0,0-.06.05.05,0,0,0,0-.05h-.14Z"/></clipPath><clipPath id="clip-path-32"><path class="cls-2" d="M23.9,19.45h0a.46.46,0,0,1-.14.33h0a.47.47,0,0,1-.66,0,.46.46,0,0,1,0-.66.47.47,0,0,1,.66,0A.46.46,0,0,1,23.9,19.45Zm-.1,0h0a.36.36,0,0,0-.11-.26.38.38,0,0,0-.53,0,.36.36,0,0,0,0,.52.38.38,0,0,0,.53,0h0A.36.36,0,0,0,23.8,19.45Z"/></clipPath><clipPath id="clip-path-34"><path class="cls-2" d="M23.83,14.29h0a9.2,9.2,0,0,1-2.76,6.57,9.5,9.5,0,0,1-13.31,0A9.2,9.2,0,0,1,5,14.29H5A9.2,9.2,0,0,1,7.76,7.72a9.5,9.5,0,0,1,13.31,0,9.2,9.2,0,0,1,2.76,6.57Zm-.14,0h0A9.06,9.06,0,0,0,21,7.82a9.36,9.36,0,0,0-13.12,0,9.06,9.06,0,0,0-2.72,6.47h0a9.06,9.06,0,0,0,2.72,6.47,9.36,9.36,0,0,0,13.12,0A9.06,9.06,0,0,0,23.69,14.29Z"/></clipPath></defs><title>Asset 1</title><g id="Layer_2" data-name="Layer 2"><g id="Layer_1-2" data-name="Layer 1"><g class="cls-3"><g class="cls-4"><g class="cls-5"><g class="cls-6"><g class="cls-7"><g class="cls-8"><rect class="cls-9" y="0.01" width="28.79" height="26.65"/></g></g></g></g></g></g><g class="cls-10"><g class="cls-4"><rect class="cls-9" x="9.84" y="13.76" width="11.55" height="10.62"/></g></g><g class="cls-11"><g class="cls-4"><rect class="cls-12" x="1.86" y="1.79" width="25.35" height="20.25"/></g></g><g class="cls-13"><g class="cls-4"><rect class="cls-9" x="6.47" y="3.51" width="12.77" height="11.22"/></g></g><g class="cls-14"><g class="cls-4"><rect class="cls-9" x="10.57" y="2.43" width="11.56" height="10.76"/></g></g><g class="cls-15"><g class="cls-4"><rect class="cls-9" x="0.59" y="20.7" width="11.83" height="13.23"/></g></g><g class="cls-16"><g class="cls-4"><rect class="cls-9" x="2.68" y="20.67" width="12.98" height="13.32"/></g></g><g class="cls-17"><g class="cls-4"><rect class="cls-9" x="6.11" y="19.34" width="13.15" height="14.66"/></g></g><g class="cls-18"><g class="cls-4"><rect class="cls-9" x="10.25" y="19.74" width="12.45" height="14.19"/></g></g><g class="cls-19"><g class="cls-4"><rect class="cls-9" x="13.47" y="20.74" width="12.34" height="13.27"/></g></g><g class="cls-20"><g class="cls-4"><rect class="cls-9" x="16.3" y="20.13" width="11.75" height="13.88"/></g></g><g class="cls-21"><g class="cls-4"><rect class="cls-9" x="18.95" y="23.33" width="10.45" height="10.51"/></g></g><g class="cls-22"><g class="cls-4"><rect class="cls-9" x="18.65" y="23.12" width="10.94" height="10.93"/></g></g><g class="cls-23"><g class="cls-4"><rect class="cls-9" x="18.27" y="14.19" width="10.45" height="10.51"/></g></g><g class="cls-24"><g class="cls-4"><rect class="cls-9" x="17.96" y="13.98" width="10.94" height="10.93"/></g></g><g class="cls-25"><g class="cls-4"><rect class="cls-9" width="28.83" height="28.58"/></g></g></g></g></svg>