<svg xmlns="http://www.w3.org/2000/svg" xmlns:xlink="http://www.w3.org/1999/xlink" viewBox="0 0 28.45 35"><defs><style>.cls-1{fill:none;}.cls-2{clip-path:url(#clip-path);}.cls-3{clip-path:url(#clip-path-2);}.cls-4{fill:#5382a1;}.cls-5{clip-path:url(#clip-path-3);}.cls-6{clip-path:url(#clip-path-5);}.cls-7{fill:#e76f00;}.cls-8{clip-path:url(#clip-path-7);}.cls-9{clip-path:url(#clip-path-9);}.cls-10{clip-path:url(#clip-path-11);}.cls-11{clip-path:url(#clip-path-13);}.cls-12{clip-path:url(#clip-path-15);}</style><clipPath id="clip-path" transform="translate(-1)"><path class="cls-1" d="M12.06,24.42s-1,.52.68.7A15.42,15.42,0,0,0,18,24.91a9.34,9.34,0,0,0,1.39.63c-4.93,2-11.16-.11-7.28-1.12"/></clipPath><clipPath id="clip-path-2" transform="translate(-1)"><rect class="cls-1" y="2" width="30" height="30"/></clipPath><clipPath id="clip-path-3" transform="translate(-1)"><path class="cls-1" d="M11.45,21.5s-1.05.76.56.92a20.38,20.38,0,0,0,6.57-.31,2.93,2.93,0,0,0,1,.6c-5.82,1.66-12.31.13-8.14-1.22"/></clipPath><clipPath id="clip-path-5" transform="translate(-1)"><path class="cls-1" d="M16.33,16.93A1.82,1.82,0,0,1,16,19.56S19.08,18,17.67,16s-2.32-2.76,3.14-5.91c0,0-8.57,2.13-4.48,6.83"/></clipPath><clipPath id="clip-path-7" transform="translate(-1)"><path class="cls-1" d="M22.75,26.33s.7.58-.77,1c-2.81.86-11.69,1.12-14.15,0-.89-.39.78-.93,1.3-1a3.34,3.34,0,0,1,.86-.1c-1-.7-6.37,1.38-2.74,2,9.92,1.63,18.08-.73,15.51-1.9"/></clipPath><clipPath id="clip-path-9" transform="translate(-1)"><path class="cls-1" d="M12.35,18.84s-4.57,1.07-1.62,1.46a34.71,34.71,0,0,0,6-.06c1.89-.16,3.79-.49,3.79-.49a8.05,8.05,0,0,0-1.15.61c-4.64,1.2-13.59.64-11-.59a8.73,8.73,0,0,1,4-.92"/></clipPath><clipPath id="clip-path-11" transform="translate(-1)"><path class="cls-1" d="M20.41,23.33c4.58-2.4,2.46-4.72,1-4.4a3.41,3.41,0,0,0-.52.14.84.84,0,0,1,.39-.31c2.93-1,5.18,3.06-.94,4.69a.4.4,0,0,0,.09-.12"/></clipPath><clipPath id="clip-path-13" transform="translate(-1)"><path class="cls-1" d="M17.73,5s2.54,2.58-2.41,6.54c-4,3.18-.91,5,0,7.06-2.32-2.12-4-4-2.88-5.72,1.68-2.55,6.32-3.78,5.29-7.87"/></clipPath><clipPath id="clip-path-15" transform="translate(-1)"><path class="cls-1" d="M12.92,29.92c4.48.3,11.37-.16,11.53-2.35,0,0-.31.83-3.7,1.48a35.83,35.83,0,0,1-11.34.18s.57.49,3.52.68"/></clipPath></defs><title>Asset 6</title><g id="Layer_2" data-name="Layer 2"><g id="Layer_6" data-name="Layer 6"><g class="cls-2"><g class="cls-3"><rect class="cls-4" x="4.85" y="19.42" width="18.5" height="11.94"/></g></g><g class="cls-5"><g class="cls-3"><rect class="cls-4" x="4.13" y="16.5" width="19.47" height="11.94"/></g></g><g class="cls-6"><g class="cls-3"><rect class="cls-7" x="9.22" y="5.1" width="15.58" height="19.47"/></g></g><g class="cls-8"><g class="cls-3"><rect class="cls-4" y="21.12" width="27.23" height="12.67"/></g></g><g class="cls-9"><g class="cls-3"><rect class="cls-4" x="1.94" y="13.83" width="22.62" height="12.18"/></g></g><g class="cls-10"><g class="cls-3"><rect class="cls-4" x="14.32" y="13.59" width="13.88" height="14.85"/></g></g><g class="cls-11"><g class="cls-3"><rect class="cls-7" x="6.07" width="16.31" height="23.59"/></g></g><g class="cls-12"><g class="cls-3"><rect class="cls-4" x="3.4" y="22.57" width="25.05" height="12.43"/></g></g></g></g></svg>