<?xml version="1.0" encoding="UTF-8" standalone="no"?>
<svg width="15px" height="15px" viewBox="0 0 15 15" version="1.1" xmlns="http://www.w3.org/2000/svg" xmlns:xlink="http://www.w3.org/1999/xlink">
    <!-- Generator: Sketch 45.2 (43514) - http://www.bohemiancoding.com/sketch -->
    <title>Slice 1</title>
    <desc>Created with Sketch.</desc>
    <defs></defs>
    <g id="Page-1" stroke="none" stroke-width="1" fill="none" fill-rule="evenodd">
        <g id="redirect-icon" fill-rule="nonzero" fill="#4A90E2">
            <path d="M15,0 L15,6.13636364 L14.0909091,6.13636364 L14.0909091,1.55181818 L6.23045455,9.41227273 L5.58772727,8.76954545 L13.4481818,0.909090909 L8.86363636,0.909090909 L8.86363636,0 L15,0 Z M12.2727273,13.8636364 C12.2727273,13.9868182 12.1686364,14.0909091 12.0454545,14.0909091 L1.13636364,14.0909091 C1.01318182,14.0909091 0.909090909,13.9868182 0.909090909,13.8636364 L0.909090909,2.95454545 C0.909090909,2.83136364 1.01318182,2.72727273 1.13636364,2.72727273 L8.40909091,2.72727273 L8.40909091,1.81818182 L1.13636364,1.81818182 C0.509772727,1.81818182 0,2.32795455 0,2.95454545 L0,13.8636364 C0,14.4902273 0.509772727,15 1.13636364,15 L12.0454545,15 C12.6720455,15 13.1818182,14.4902273 13.1818182,13.8636364 L13.1818182,6.59090909 L12.2727273,6.59090909 L12.2727273,13.8636364 Z" id="Shape"></path>
        </g>
    </g>
</svg>