<?xml version="1.0" encoding="utf-8"?>
<!-- Generator: Adobe Illustrator 19.1.0, SVG Export Plug-In . SVG Version: 6.00 Build 0)  -->
<svg version="1.1" id="Layer_1" xmlns="http://www.w3.org/2000/svg" xmlns:xlink="http://www.w3.org/1999/xlink" x="0px" y="0px"
	 viewBox="0 0 360 200" style="enable-background:new 0 0 360 200;" xml:space="preserve">
<style type="text/css">
	.st0{fill:none;stroke:#1C425C;stroke-width:3;stroke-linecap:round;stroke-linejoin:round;stroke-miterlimit:10;}
	.st1{fill:#F7A600;stroke:#1C425C;stroke-width:3;stroke-miterlimit:10;}
	.st2{fill:#DB9E36;stroke:#1C425C;stroke-width:3;stroke-linecap:round;stroke-linejoin:round;stroke-miterlimit:10;}
	.st3{fill:#00BFC0;stroke:#1C425C;stroke-width:3;stroke-miterlimit:10;}
	.st4{fill:#9534A0;stroke:#1C425C;stroke-width:3;stroke-miterlimit:10;}
	.st5{fill:#FFFFFF;}
	.st6{fill:none;stroke:#1C425C;stroke-width:2;stroke-linecap:round;stroke-linejoin:round;stroke-miterlimit:10;}
	.st7{fill:#1C425C;}
	.st8{fill:#9534A0;}
	.st9{fill:#FFFAD5;}
	.st10{fill:none;stroke:#1C425C;stroke-width:5.3764;stroke-linecap:round;stroke-linejoin:round;stroke-miterlimit:10;}
	.st11{fill:none;stroke:#1C425C;stroke-linecap:round;stroke-linejoin:round;stroke-miterlimit:10;}
	.st12{fill:#DE572F;stroke:#1C425C;stroke-width:3;stroke-linejoin:round;stroke-miterlimit:10;}
	.st13{fill:#00BFC0;}
	.st14{fill:#F7A600;stroke:#1C425C;stroke-miterlimit:10;}
	.st15{clip-path:url(#SVGID_2_);fill:#F7A600;stroke:#1C425C;stroke-miterlimit:10;}
	.st16{fill:#00BFC0;stroke:#1C425C;stroke-width:2;stroke-miterlimit:10;}
	.st17{fill:#F7A600;stroke:#1C425C;stroke-width:2;stroke-miterlimit:10;}
	.st18{fill:#9534A0;stroke:#1C425C;stroke-width:2;stroke-miterlimit:10;}
	.st19{fill:#DB9E36;stroke:#1C425C;stroke-width:2;stroke-miterlimit:10;}
	.st20{fill:#DE572F;stroke:#1C425C;stroke-width:2;stroke-miterlimit:10;}
	.st21{fill:#FEFEFE;stroke:#1C425C;stroke-width:2;stroke-miterlimit:10;}
	.st22{fill:none;stroke:#9534A0;stroke-width:3;stroke-linejoin:round;}
	.st23{fill:none;stroke:#9534A0;stroke-width:3;stroke-linejoin:round;stroke-dasharray:7.9084,7.9084;}
	.st24{fill:none;stroke:#9534A0;stroke-width:3;stroke-linejoin:round;stroke-dasharray:7.0692,7.0692;}
	.st25{fill:none;stroke:#FF530D;stroke-width:3;stroke-linejoin:round;stroke-dasharray:7.0692,7.0692;}
	.st26{fill:none;}
	.st27{fill:#FF530D;}
	.st28{fill:#00A39F;stroke:#1C425C;stroke-width:3;stroke-miterlimit:10;}
	.st29{fill:none;stroke:#1C425C;stroke-width:3;stroke-linecap:round;stroke-linejoin:round;}
	.st30{fill:#F7A600;}
	.st31{fill:none;stroke:#9534A0;stroke-width:3.262;stroke-linejoin:round;stroke-miterlimit:10;stroke-dasharray:3.262,3.262;}
	.st32{fill:none;stroke:#A6D3EB;stroke-width:3.262;stroke-linejoin:round;}
	.st33{fill:none;stroke:#1C425C;stroke-width:3.262;stroke-linecap:round;stroke-linejoin:round;stroke-miterlimit:10;}
	.st34{fill:#00BFC0;stroke:#023550;stroke-width:4;stroke-miterlimit:10;}
	.st35{fill:none;stroke:#023550;stroke-width:5;stroke-linecap:round;stroke-miterlimit:10;}
	.st36{fill:#023550;}
	.st37{fill:none;stroke:#1C425C;stroke-width:1.3481;stroke-linecap:round;stroke-linejoin:round;}
	.st38{fill:none;stroke:#1C425C;stroke-linecap:round;stroke-linejoin:round;}
	.st39{fill:#00BFC0;stroke:#1C425C;stroke-width:1.3481;stroke-miterlimit:10;}
	.st40{fill:#F7A600;stroke:#1C425C;stroke-width:1.3481;stroke-miterlimit:10;}
	.st41{fill:#9534A0;stroke:#1C425C;stroke-width:1.3481;stroke-linejoin:round;stroke-miterlimit:10;}
	.st42{fill:#00BFC0;stroke:#1C425C;stroke-miterlimit:10;}
	.st43{fill:#9534A0;stroke:#1C425C;stroke-miterlimit:10;}
	.st44{fill:#00BFC0;stroke:#1C425C;stroke-width:0.3211;stroke-linejoin:round;stroke-miterlimit:10;}
	.st45{fill:#9534A0;stroke:#1C425C;stroke-width:0.5;stroke-miterlimit:10;}
	.st46{fill:#F7A600;stroke:#1C425C;stroke-width:0.3211;stroke-miterlimit:10;}
	.st47{fill:#211F1F;}
	.st48{fill:#99D9F1;}
	.st49{fill:#7BB9E7;}
	.st50{fill:#232121;}
	.st51{fill:#9AD9F1;}
	.st52{fill:#1C1A1A;}
	.st53{fill:#030304;}
	.st54{fill:#242222;}
	.st55{fill:#222020;}
	.st56{fill:#171414;}
	.st57{fill:#171515;}
	.st58{fill:#181616;}
	.st59{fill:#131111;}
	.st60{fill:#F4CAAF;}
	.st61{fill:#C49A84;}
	.st62{fill:#181718;}
	.st63{fill:#D1A58D;}
	.st64{fill:#181819;}
	.st65{fill:#171718;}
	.st66{fill:#FDFDFD;}
	.st67{fill:#FEFEFE;}
	.st68{fill:#1D1A1A;}
	.st69{fill:#1B1818;}
	.st70{fill:#A1E4FE;}
	.st71{fill:#97D6ED;}
	.st72{fill:#96D4EB;}
	.st73{fill:#97D5ED;}
	.st74{fill:#98D7EE;}
	.st75{fill:#98D7EF;}
	.st76{fill:#91CDE3;}
	.st77{fill:#AF5D50;}
	.st78{fill:#AF5C4F;}
	.st79{fill:#AE5C4F;}
	.st80{fill:#FDFCFC;}
	.st81{fill:none;stroke:#00BFC0;stroke-miterlimit:10;}
	.st82{fill:#9534A0;stroke:#1C425C;stroke-width:0.4299;stroke-linejoin:round;stroke-miterlimit:10;}
	.st83{fill:#00BFC0;stroke:#1C425C;stroke-width:1.3387;stroke-miterlimit:10;}
	.st84{fill:#9534A0;stroke:#1C425C;stroke-width:0.4075;stroke-miterlimit:10;}
	.st85{fill:#F7A600;stroke:#1C425C;stroke-width:0.4075;stroke-miterlimit:10;}
	.st86{fill:#00BFC0;stroke:#1C425C;stroke-width:0.4075;stroke-linejoin:round;stroke-miterlimit:10;}
	.st87{fill:#00BFC0;stroke:#1C425C;stroke-width:0.7137;stroke-miterlimit:10;}
	.st88{fill:#9534A0;stroke:#1C425C;stroke-width:0.7137;stroke-linejoin:round;stroke-miterlimit:10;}
	.st89{fill:#FFFFFF;stroke:#1C425C;stroke-width:0.3827;stroke-miterlimit:10;}
	.st90{fill:#9534A0;stroke:#1C425C;stroke-width:1.284;stroke-linejoin:round;stroke-miterlimit:10;}
	.st91{fill:#010101;}
	.st92{fill:#020202;}
	.st93{fill:#F2F2F2;stroke:#1C425C;stroke-width:1.9094;stroke-linejoin:round;stroke-miterlimit:10;}
	.st94{fill:#F2F2F2;stroke:#023550;stroke-width:2;stroke-miterlimit:10;}
	.st95{fill:none;stroke:#028A9E;stroke-width:2.185;stroke-linecap:round;stroke-miterlimit:10;}
	.st96{fill:#028A9E;}
	.st97{fill:none;stroke:#046D70;stroke-width:2.185;stroke-linecap:round;stroke-miterlimit:10;}
	.st98{fill:#046D70;}
	.st99{fill:none;stroke:#04BFBF;stroke-width:2.185;stroke-linecap:round;stroke-miterlimit:10;}
	.st100{fill:#04BFBF;}
	.st101{fill:#66A6BC;stroke:#023550;stroke-width:1.0085;stroke-linecap:round;stroke-linejoin:round;stroke-miterlimit:10;}
	.st102{fill:#9FE5F7;stroke:#023550;stroke-width:1.0085;stroke-linecap:round;stroke-linejoin:round;stroke-miterlimit:10;}
	.st103{fill:#75BCDA;stroke:#023550;stroke-width:1.0085;stroke-linecap:round;stroke-linejoin:round;stroke-miterlimit:10;}
	.st104{fill:#F2F2F2;stroke:#023550;stroke-width:1.0085;stroke-linecap:round;stroke-linejoin:round;stroke-miterlimit:10;}
	.st105{fill:#9534A0;stroke:#1C425C;stroke-width:2;stroke-linejoin:round;stroke-miterlimit:10;}
	.st106{fill:none;stroke:#1C425C;stroke-width:1.909;stroke-linejoin:round;stroke-miterlimit:10;stroke-dasharray:5,5,5,5,5,5;}
	.st107{fill:#BABABA;}
	.st108{fill:none;stroke:#1C425C;stroke-width:2;stroke-miterlimit:10;}
	.st109{fill:#FFFFFF;stroke:#1C425C;stroke-width:2;stroke-linejoin:round;stroke-miterlimit:10;}
	.st110{fill:none;stroke:#1C425C;stroke-width:2;stroke-linejoin:round;}
	.st111{clip-path:url(#SVGID_4_);fill:#DB9E36;stroke:#1C425C;stroke-width:2;stroke-miterlimit:10;}
	.st112{fill:#DE572F;stroke:#1C425C;stroke-width:0.5;stroke-miterlimit:10;}
	.st113{fill:#439F83;stroke:#1C425C;stroke-width:0.5;stroke-miterlimit:10;}
	.st114{fill:#DB9E36;stroke:#1C425C;stroke-width:0.5;stroke-miterlimit:10;}
	.st115{fill:#439F83;stroke:#1C425C;stroke-width:1.3387;stroke-miterlimit:10;}
	.st116{fill:#DE572F;stroke:#1C425C;stroke-width:0.3211;stroke-linejoin:round;stroke-miterlimit:10;}
	.st117{fill:#439F83;stroke:#1C425C;stroke-width:0.3211;stroke-miterlimit:10;}
</style>
<g>
	<line class="st0" x1="125.2" y1="100" x2="204.8" y2="100"/>
	<line class="st29" x1="73.5" y1="99.8" x2="91.8" y2="99.8"/>
	<polyline class="st29" points="94.1,155.6 73.2,155.6 73.2,44.4 94.1,44.4 	"/>
	<path class="st7" d="M91.1,163.6v-16c0-0.6,0.8-1,1.2-0.5l8,8c0.3,0.3,0.3,0.7,0,1l-8,8C91.9,164.6,91.1,164.3,91.1,163.6"/>
	<path class="st7" d="M91.1,36.4v16c0,0.6,0.8,1,1.2,0.5l8-8c0.3-0.3,0.3-0.7,0-1l-8-8C91.9,35.4,91.1,35.7,91.1,36.4"/>
	<path class="st7" d="M91.1,92.2v16c0,0.6,0.8,1,1.2,0.5l8-8c0.3-0.3,0.3-0.7,0-1l-8-8C91.9,91.2,91.1,91.5,91.1,92.2"/>
	<polyline class="st0" points="147.9,44.4 177.2,44.4 177.2,155.6 147.9,155.6 	"/>
	<rect x="102.6" y="21.7" class="st3" width="45.3" height="45.3"/>
	<rect x="102.6" y="21.7" class="st0" width="45.3" height="45.3"/>
	<path class="st30" d="M130.1,35.8c-0.3-0.2-0.6-0.3-1-0.5l-0.9-4c-0.9-0.2-1.8-0.3-2.7-0.3l-1.9,3.7l0,0c-0.7,0.1-1.4,0.3-2.1,0.6
		l0,0l-3.5-2.2c-0.8,0.5-1.5,1-2.2,1.7l1.3,3.9c-0.2,0.3-0.4,0.6-0.6,0.9c-0.2,0.3-0.3,0.6-0.5,1l-4,0.9c-0.2,0.9-0.3,1.8-0.3,2.7
		l3.7,1.9l0,0c0.1,0.7,0.3,1.4,0.6,2.1l0,0l-2.2,3.5c0.5,0.8,1,1.5,1.7,2.2l3.9-1.3c0.3,0.2,0.6,0.4,0.9,0.6c0.3,0.2,0.6,0.3,1,0.5
		l0.9,4c0.9,0.2,1.8,0.3,2.7,0.3l1.9-3.7l0,0c0.7-0.1,1.4-0.3,2.1-0.6l0,0l3.5,2.2c0.8-0.5,1.5-1,2.2-1.7l-1.3-3.9
		c0.2-0.3,0.4-0.6,0.6-0.9c0.2-0.3,0.3-0.6,0.5-1l4-0.9c0.2-0.9,0.3-1.8,0.3-2.7l-3.7-1.9l0,0c-0.1-0.7-0.3-1.4-0.6-2.1l0,0l2.2-3.5
		c-0.5-0.8-1-1.5-1.7-2.2l-3.9,1.3C130.7,36.1,130.4,35.9,130.1,35.8 M128.2,46.1c-0.9,1.7-3,2.2-4.7,1.3c-1.7-0.9-2.2-3-1.3-4.7
		c0.9-1.7,3-2.2,4.7-1.3C128.6,42.3,129.2,44.4,128.2,46.1"/>
	<path class="st6" d="M130.1,35.8c-0.3-0.2-0.6-0.3-1-0.5l-0.9-4c-0.9-0.2-1.8-0.3-2.7-0.3l-1.9,3.7l0,0c-0.7,0.1-1.4,0.3-2.1,0.6
		l0,0l-3.5-2.2c-0.8,0.5-1.5,1-2.2,1.7l1.3,3.9c-0.2,0.3-0.4,0.6-0.6,0.9c-0.2,0.3-0.3,0.6-0.5,1l-4,0.9c-0.2,0.9-0.3,1.8-0.3,2.7
		l3.7,1.9l0,0c0.1,0.7,0.3,1.4,0.6,2.1l0,0l-2.2,3.5c0.5,0.8,1,1.5,1.7,2.2l3.9-1.3c0.3,0.2,0.6,0.4,0.9,0.6c0.3,0.2,0.6,0.3,1,0.5
		l0.9,4c0.9,0.2,1.8,0.3,2.7,0.3l1.9-3.7l0,0c0.7-0.1,1.4-0.3,2.1-0.6l0,0l3.5,2.2c0.8-0.5,1.5-1,2.2-1.7l-1.3-3.9
		c0.2-0.3,0.4-0.6,0.6-0.9c0.2-0.3,0.3-0.6,0.5-1l4-0.9c0.2-0.9,0.3-1.8,0.3-2.7l-3.7-1.9l0,0c-0.1-0.7-0.3-1.4-0.6-2.1l0,0l2.2-3.5
		c-0.5-0.8-1-1.5-1.7-2.2l-3.9,1.3C130.7,36.1,130.4,35.9,130.1,35.8z M128.2,46.1c-0.9,1.7-3,2.2-4.7,1.3c-1.7-0.9-2.2-3-1.3-4.7
		c0.9-1.7,3-2.2,4.7-1.3C128.6,42.3,129.2,44.4,128.2,46.1z"/>
	<rect x="102.6" y="77.3" class="st3" width="45.3" height="45.3"/>
	<rect x="102.6" y="77.3" class="st0" width="45.3" height="45.3"/>
	<path class="st30" d="M130.1,91.4c-0.3-0.2-0.6-0.3-1-0.5l-0.9-4c-0.9-0.2-1.8-0.3-2.7-0.3l-1.9,3.7l0,0c-0.7,0.1-1.4,0.3-2.1,0.6
		l0,0l-3.5-2.2c-0.8,0.5-1.5,1-2.2,1.7l1.3,3.9c-0.2,0.3-0.4,0.6-0.6,0.9c-0.2,0.3-0.3,0.6-0.5,1l-4,0.9c-0.2,0.9-0.3,1.8-0.3,2.7
		l3.7,1.9l0,0c0.1,0.7,0.3,1.4,0.6,2.1l0,0l-2.2,3.5c0.5,0.8,1,1.5,1.7,2.2l3.9-1.3c0.3,0.2,0.6,0.4,0.9,0.6c0.3,0.2,0.6,0.3,1,0.5
		l0.9,4c0.9,0.2,1.8,0.3,2.7,0.3l1.9-3.7l0,0c0.7-0.1,1.4-0.3,2.1-0.6l0,0l3.5,2.2c0.8-0.5,1.5-1,2.2-1.7l-1.3-3.9
		c0.2-0.3,0.4-0.6,0.6-0.9c0.2-0.3,0.3-0.6,0.5-1l4-0.9c0.2-0.9,0.3-1.8,0.3-2.7l-3.7-1.9l0,0c-0.1-0.7-0.3-1.4-0.6-2.1l0,0l2.2-3.5
		c-0.5-0.8-1-1.5-1.7-2.2L131,92C130.7,91.8,130.4,91.6,130.1,91.4 M128.2,101.7c-0.9,1.7-3,2.2-4.7,1.3c-1.7-0.9-2.2-3-1.3-4.7
		c0.9-1.7,3-2.2,4.7-1.3C128.6,98,129.2,100.1,128.2,101.7"/>
	<path class="st6" d="M130.1,91.4c-0.3-0.2-0.6-0.3-1-0.5l-0.9-4c-0.9-0.2-1.8-0.3-2.7-0.3l-1.9,3.7l0,0c-0.7,0.1-1.4,0.3-2.1,0.6
		l0,0l-3.5-2.2c-0.8,0.5-1.5,1-2.2,1.7l1.3,3.9c-0.2,0.3-0.4,0.6-0.6,0.9c-0.2,0.3-0.3,0.6-0.5,1l-4,0.9c-0.2,0.9-0.3,1.8-0.3,2.7
		l3.7,1.9l0,0c0.1,0.7,0.3,1.4,0.6,2.1l0,0l-2.2,3.5c0.5,0.8,1,1.5,1.7,2.2l3.9-1.3c0.3,0.2,0.6,0.4,0.9,0.6c0.3,0.2,0.6,0.3,1,0.5
		l0.9,4c0.9,0.2,1.8,0.3,2.7,0.3l1.9-3.7l0,0c0.7-0.1,1.4-0.3,2.1-0.6l0,0l3.5,2.2c0.8-0.5,1.5-1,2.2-1.7l-1.3-3.9
		c0.2-0.3,0.4-0.6,0.6-0.9c0.2-0.3,0.3-0.6,0.5-1l4-0.9c0.2-0.9,0.3-1.8,0.3-2.7l-3.7-1.9l0,0c-0.1-0.7-0.3-1.4-0.6-2.1l0,0l2.2-3.5
		c-0.5-0.8-1-1.5-1.7-2.2L131,92C130.7,91.8,130.4,91.6,130.1,91.4z M128.2,101.7c-0.9,1.7-3,2.2-4.7,1.3c-1.7-0.9-2.2-3-1.3-4.7
		c0.9-1.7,3-2.2,4.7-1.3C128.6,98,129.2,100.1,128.2,101.7z"/>
	<rect x="102.6" y="133" class="st3" width="45.3" height="45.3"/>
	<rect x="102.6" y="133" class="st0" width="45.3" height="45.3"/>
	<path class="st30" d="M130.1,147c-0.3-0.2-0.6-0.3-1-0.5l-0.9-4c-0.9-0.2-1.8-0.3-2.7-0.3l-1.9,3.7l0,0c-0.7,0.1-1.4,0.3-2.1,0.6
		l0,0l-3.5-2.2c-0.8,0.5-1.5,1-2.2,1.7l1.3,3.9c-0.2,0.3-0.4,0.6-0.6,0.9c-0.2,0.3-0.3,0.6-0.5,1l-4,0.9c-0.2,0.9-0.3,1.8-0.3,2.7
		l3.7,1.9l0,0c0.1,0.7,0.3,1.4,0.6,2.1l0,0l-2.2,3.5c0.5,0.8,1,1.5,1.7,2.2l3.9-1.3c0.3,0.2,0.6,0.4,0.9,0.6c0.3,0.2,0.6,0.3,1,0.5
		l0.9,4c0.9,0.2,1.8,0.3,2.7,0.3l1.9-3.7l0,0c0.7-0.1,1.4-0.3,2.1-0.6l0,0l3.5,2.2c0.8-0.5,1.5-1,2.2-1.7l-1.3-3.9
		c0.2-0.3,0.4-0.6,0.6-0.9c0.2-0.3,0.3-0.6,0.5-1l4-0.9c0.2-0.9,0.3-1.8,0.3-2.7l-3.7-1.9l0,0c-0.1-0.7-0.3-1.4-0.6-2.1l0,0l2.2-3.5
		c-0.5-0.8-1-1.5-1.7-2.2l-3.9,1.3C130.7,147.4,130.4,147.2,130.1,147 M128.2,157.3c-0.9,1.7-3,2.2-4.7,1.3c-1.7-0.9-2.2-3-1.3-4.7
		c0.9-1.7,3-2.2,4.7-1.3C128.6,153.6,129.2,155.7,128.2,157.3"/>
	<path class="st6" d="M130.1,147c-0.3-0.2-0.6-0.3-1-0.5l-0.9-4c-0.9-0.2-1.8-0.3-2.7-0.3l-1.9,3.7l0,0c-0.7,0.1-1.4,0.3-2.1,0.6
		l0,0l-3.5-2.2c-0.8,0.5-1.5,1-2.2,1.7l1.3,3.9c-0.2,0.3-0.4,0.6-0.6,0.9c-0.2,0.3-0.3,0.6-0.5,1l-4,0.9c-0.2,0.9-0.3,1.8-0.3,2.7
		l3.7,1.9l0,0c0.1,0.7,0.3,1.4,0.6,2.1l0,0l-2.2,3.5c0.5,0.8,1,1.5,1.7,2.2l3.9-1.3c0.3,0.2,0.6,0.4,0.9,0.6c0.3,0.2,0.6,0.3,1,0.5
		l0.9,4c0.9,0.2,1.8,0.3,2.7,0.3l1.9-3.7l0,0c0.7-0.1,1.4-0.3,2.1-0.6l0,0l3.5,2.2c0.8-0.5,1.5-1,2.2-1.7l-1.3-3.9
		c0.2-0.3,0.4-0.6,0.6-0.9c0.2-0.3,0.3-0.6,0.5-1l4-0.9c0.2-0.9,0.3-1.8,0.3-2.7l-3.7-1.9l0,0c-0.1-0.7-0.3-1.4-0.6-2.1l0,0l2.2-3.5
		c-0.5-0.8-1-1.5-1.7-2.2l-3.9,1.3C130.7,147.4,130.4,147.2,130.1,147z M128.2,157.3c-0.9,1.7-3,2.2-4.7,1.3c-1.7-0.9-2.2-3-1.3-4.7
		c0.9-1.7,3-2.2,4.7-1.3C128.6,153.6,129.2,155.7,128.2,157.3z"/>
	<path class="st7" d="M201.5,92.2v16c0,0.6,0.8,1,1.2,0.5l8-8c0.3-0.3,0.3-0.7,0-1l-8-8C202.3,91.2,201.5,91.5,201.5,92.2"/>
	<rect x="212.8" y="34.8" class="st3" width="73.9" height="130"/>
	<rect x="212.8" y="34.8" class="st0" width="73.9" height="130"/>
	<path class="st7" d="M241.6,30.6h16.5c0.5,0,0.8-0.6,0.4-1l-8.2-8.2c-0.2-0.2-0.6-0.2-0.8,0l-8.2,8.2
		C240.8,30,241.1,30.6,241.6,30.6"/>
	<path class="st7" d="M258.1,168.9h-16.5c-0.5,0-0.8,0.6-0.4,1l8.2,8.2c0.2,0.2,0.6,0.2,0.8,0l8.2-8.2
		C258.8,169.5,258.6,168.9,258.1,168.9"/>
	<line class="st0" x1="279.1" y1="45.7" x2="237.4" y2="45.7"/>
	<line class="st0" x1="229.2" y1="45.7" x2="220.5" y2="45.7"/>
	<line class="st0" x1="279.1" y1="57.7" x2="265.5" y2="57.7"/>
	<line class="st0" x1="258.8" y1="57.7" x2="220.5" y2="57.7"/>
	<line class="st0" x1="279.1" y1="69.7" x2="274.1" y2="69.7"/>
	<line class="st0" x1="240.4" y1="69.7" x2="235.2" y2="69.7"/>
	<line class="st0" x1="229.2" y1="69.7" x2="220.5" y2="69.7"/>
	<line class="st0" x1="267.1" y1="69.7" x2="247.8" y2="69.7"/>
	<line class="st0" x1="258.8" y1="81.7" x2="240.4" y2="81.7"/>
	<line class="st0" x1="279.1" y1="81.7" x2="265.5" y2="81.7"/>
	<line class="st0" x1="232.4" y1="81.7" x2="220.5" y2="81.7"/>
	<line class="st0" x1="262.7" y1="117.8" x2="253.6" y2="117.8"/>
	<line class="st0" x1="279.1" y1="117.8" x2="268.8" y2="117.8"/>
	<line class="st0" x1="246.6" y1="117.8" x2="220.5" y2="117.8"/>
	<line class="st0" x1="279.1" y1="129.8" x2="251.9" y2="129.8"/>
	<line class="st0" x1="224.9" y1="129.8" x2="220.5" y2="129.8"/>
	<line class="st0" x1="245" y1="129.8" x2="232.4" y2="129.8"/>
	<line class="st0" x1="263.5" y1="141.8" x2="243.8" y2="141.8"/>
	<line class="st0" x1="279.1" y1="141.8" x2="270.8" y2="141.8"/>
	<line class="st0" x1="237.4" y1="141.8" x2="220.5" y2="141.8"/>
	<line class="st0" x1="279.1" y1="153.9" x2="251.9" y2="153.9"/>
	<line class="st0" x1="225.9" y1="153.9" x2="220.5" y2="153.9"/>
	<line class="st0" x1="245" y1="153.9" x2="232.4" y2="153.9"/>
</g>
</svg>
