<?xml version="1.0" encoding="utf-8"?>
<!-- Generator: Adobe Illustrator 19.1.0, SVG Export Plug-In . SVG Version: 6.00 Build 0)  -->
<svg version="1.1" id="Layer_1" xmlns="http://www.w3.org/2000/svg" xmlns:xlink="http://www.w3.org/1999/xlink" x="0px" y="0px"
	 viewBox="0 0 75.1 71.1" style="enable-background:new 0 0 75.1 71.1;" xml:space="preserve">
<style type="text/css">
	.st0{fill:none;stroke:#1C425C;stroke-width:3;stroke-linecap:round;stroke-linejoin:round;stroke-miterlimit:10;}
	.st1{fill:#F7A600;stroke:#1C425C;stroke-width:3;stroke-miterlimit:10;}
	.st2{fill:#00BFC0;stroke:#1C425C;stroke-width:3;stroke-miterlimit:10;}
	.st3{fill:#9534A0;stroke:#1C425C;stroke-width:3;stroke-miterlimit:10;}
	.st4{fill:#FFFFFF;}
	.st5{fill:none;stroke:#1C425C;stroke-width:2;stroke-linecap:round;stroke-linejoin:round;stroke-miterlimit:10;}
	.st6{fill:#1C425C;}
	.st7{fill:#9534A0;}
	.st8{fill:#FFFAD5;}
	.st9{fill:none;stroke:#1C425C;stroke-width:5.3764;stroke-linecap:round;stroke-linejoin:round;stroke-miterlimit:10;}
	.st10{fill:none;stroke:#1C425C;stroke-linecap:round;stroke-linejoin:round;stroke-miterlimit:10;}
	.st11{fill:#DE572F;stroke:#1C425C;stroke-width:3;stroke-linejoin:round;stroke-miterlimit:10;}
	.st12{fill:#00BFC0;}
	.st13{fill:#F7A600;stroke:#1C425C;stroke-miterlimit:10;}
	.st14{clip-path:url(#SVGID_2_);fill:#F7A600;stroke:#1C425C;stroke-miterlimit:10;}
	.st15{fill:#00BFC0;stroke:#1C425C;stroke-width:2;stroke-miterlimit:10;}
	.st16{fill:#F7A600;stroke:#1C425C;stroke-width:2;stroke-miterlimit:10;}
	.st17{fill:#9534A0;stroke:#1C425C;stroke-width:2;stroke-miterlimit:10;}
	.st18{fill:#DB9E36;stroke:#1C425C;stroke-width:2;stroke-miterlimit:10;}
	.st19{fill:#DE572F;stroke:#1C425C;stroke-width:2;stroke-miterlimit:10;}
	.st20{fill:#FEFEFE;stroke:#1C425C;stroke-width:2;stroke-miterlimit:10;}
	.st21{fill:none;stroke:#9534A0;stroke-width:3;stroke-linejoin:round;}
	.st22{fill:none;stroke:#9534A0;stroke-width:3;stroke-linejoin:round;stroke-dasharray:7.9084,7.9084;}
	.st23{fill:none;stroke:#9534A0;stroke-width:3;stroke-linejoin:round;stroke-dasharray:7.0692,7.0692;}
	.st24{fill:none;stroke:#FF530D;stroke-width:3;stroke-linejoin:round;stroke-dasharray:7.0692,7.0692;}
	.st25{fill:none;}
	.st26{fill:#FF530D;}
	.st27{fill:#00A39F;stroke:#1C425C;stroke-width:3;stroke-miterlimit:10;}
	.st28{fill:none;stroke:#1C425C;stroke-width:3;stroke-linecap:round;stroke-linejoin:round;}
	.st29{fill:#F7A600;}
	.st30{fill:none;stroke:#9534A0;stroke-width:3.262;stroke-linejoin:round;stroke-miterlimit:10;stroke-dasharray:3.262,3.262;}
	.st31{fill:none;stroke:#A6D3EB;stroke-width:3.262;stroke-linejoin:round;}
	.st32{fill:none;stroke:#1C425C;stroke-width:3.262;stroke-linecap:round;stroke-linejoin:round;stroke-miterlimit:10;}
	.st33{fill:#00BFC0;stroke:#023550;stroke-width:4;stroke-miterlimit:10;}
	.st34{fill:none;stroke:#023550;stroke-width:5;stroke-linecap:round;stroke-miterlimit:10;}
	.st35{fill:#023550;}
	.st36{fill:none;stroke:#1C425C;stroke-width:1.348;stroke-linecap:round;stroke-linejoin:round;}
	.st37{fill:none;stroke:#1C425C;stroke-linecap:round;stroke-linejoin:round;}
	.st38{fill:#00BFC0;stroke:#1C425C;stroke-width:1.3481;stroke-miterlimit:10;}
	.st39{fill:#F7A600;stroke:#1C425C;stroke-width:1.3481;stroke-miterlimit:10;}
	.st40{fill:#9534A0;stroke:#1C425C;stroke-width:1.3481;stroke-linejoin:round;stroke-miterlimit:10;}
	.st41{fill:#00BFC0;stroke:#1C425C;stroke-miterlimit:10;}
	.st42{fill:#9534A0;stroke:#1C425C;stroke-miterlimit:10;}
	.st43{fill:#00BFC0;stroke:#1C425C;stroke-width:0.3211;stroke-linejoin:round;stroke-miterlimit:10;}
	.st44{fill:#9534A0;stroke:#1C425C;stroke-width:0.5;stroke-miterlimit:10;}
	.st45{fill:#F7A600;stroke:#1C425C;stroke-width:0.3211;stroke-miterlimit:10;}
	.st46{fill:#211F1F;}
	.st47{fill:#99D9F1;}
	.st48{fill:#7BB9E7;}
	.st49{fill:#232121;}
	.st50{fill:#9AD9F1;}
	.st51{fill:#1C1A1A;}
	.st52{fill:#030304;}
	.st53{fill:#242222;}
	.st54{fill:#222020;}
	.st55{fill:#171414;}
	.st56{fill:#171515;}
	.st57{fill:#181616;}
	.st58{fill:#131111;}
	.st59{fill:#F4CAAF;}
	.st60{fill:#C49A84;}
	.st61{fill:#181718;}
	.st62{fill:#D1A58D;}
	.st63{fill:#181819;}
	.st64{fill:#171718;}
	.st65{fill:#FDFDFD;}
	.st66{fill:#FEFEFE;}
	.st67{fill:#1D1A1A;}
	.st68{fill:#1B1818;}
	.st69{fill:#A1E4FE;}
	.st70{fill:#97D6ED;}
	.st71{fill:#96D4EB;}
	.st72{fill:#97D5ED;}
	.st73{fill:#98D7EE;}
	.st74{fill:#98D7EF;}
	.st75{fill:#91CDE3;}
	.st76{fill:#AF5D50;}
	.st77{fill:#AF5C4F;}
	.st78{fill:#AE5C4F;}
	.st79{fill:#FDFCFC;}
	.st80{fill:none;stroke:#00BFC0;stroke-miterlimit:10;}
	.st81{fill:#9534A0;stroke:#1C425C;stroke-width:0.4299;stroke-linejoin:round;stroke-miterlimit:10;}
	.st82{fill:#00BFC0;stroke:#1C425C;stroke-width:1.3387;stroke-miterlimit:10;}
	.st83{fill:#9534A0;stroke:#1C425C;stroke-width:0.4075;stroke-miterlimit:10;}
	.st84{fill:#F7A600;stroke:#1C425C;stroke-width:0.4075;stroke-miterlimit:10;}
	.st85{fill:#00BFC0;stroke:#1C425C;stroke-width:0.4075;stroke-linejoin:round;stroke-miterlimit:10;}
	.st86{fill:#00BFC0;stroke:#1C425C;stroke-width:0.7137;stroke-miterlimit:10;}
	.st87{fill:#9534A0;stroke:#1C425C;stroke-width:0.7137;stroke-linejoin:round;stroke-miterlimit:10;}
	.st88{fill:#FFFFFF;stroke:#1C425C;stroke-width:0.3827;stroke-miterlimit:10;}
	.st89{fill:#9534A0;stroke:#1C425C;stroke-width:1.284;stroke-linejoin:round;stroke-miterlimit:10;}
	.st90{fill:#010101;}
	.st91{fill:#020202;}
	.st92{fill:#F2F2F2;stroke:#1C425C;stroke-width:1.9094;stroke-linejoin:round;stroke-miterlimit:10;}
	.st93{fill:#F2F2F2;stroke:#023550;stroke-width:2;stroke-miterlimit:10;}
	.st94{fill:none;stroke:#028A9E;stroke-width:2.185;stroke-linecap:round;stroke-miterlimit:10;}
	.st95{fill:#028A9E;}
	.st96{fill:none;stroke:#046D70;stroke-width:2.185;stroke-linecap:round;stroke-miterlimit:10;}
	.st97{fill:#046D70;}
	.st98{fill:none;stroke:#04BFBF;stroke-width:2.185;stroke-linecap:round;stroke-miterlimit:10;}
	.st99{fill:#04BFBF;}
	.st100{fill:#66A6BC;stroke:#023550;stroke-width:1.0085;stroke-linecap:round;stroke-linejoin:round;stroke-miterlimit:10;}
	.st101{fill:#9FE5F7;stroke:#023550;stroke-width:1.0085;stroke-linecap:round;stroke-linejoin:round;stroke-miterlimit:10;}
	.st102{fill:#75BCDA;stroke:#023550;stroke-width:1.0085;stroke-linecap:round;stroke-linejoin:round;stroke-miterlimit:10;}
	.st103{fill:#F2F2F2;stroke:#023550;stroke-width:1.0085;stroke-linecap:round;stroke-linejoin:round;stroke-miterlimit:10;}
	.st104{fill:#9534A0;stroke:#1C425C;stroke-width:2;stroke-linejoin:round;stroke-miterlimit:10;}
	.st105{fill:none;stroke:#1C425C;stroke-width:1.909;stroke-linejoin:round;stroke-miterlimit:10;stroke-dasharray:5,5,5,5,5,5;}
	.st106{fill:#BABABA;}
	.st107{fill:none;stroke:#1C425C;stroke-width:2;stroke-miterlimit:10;}
	.st108{fill:#FFFFFF;stroke:#1C425C;stroke-width:2;stroke-linejoin:round;stroke-miterlimit:10;}
	.st109{fill:none;stroke:#1C425C;stroke-width:2;stroke-linejoin:round;}
	.st110{clip-path:url(#SVGID_4_);fill:#DB9E36;stroke:#1C425C;stroke-width:2;stroke-miterlimit:10;}
	.st111{fill:#DE572F;stroke:#1C425C;stroke-width:0.5;stroke-miterlimit:10;}
	.st112{fill:#439F83;stroke:#1C425C;stroke-width:0.5;stroke-miterlimit:10;}
	.st113{fill:#DB9E36;stroke:#1C425C;stroke-width:0.5;stroke-miterlimit:10;}
	.st114{fill:#439F83;stroke:#1C425C;stroke-width:1.3387;stroke-miterlimit:10;}
	.st115{fill:#DE572F;stroke:#1C425C;stroke-width:0.3211;stroke-linejoin:round;stroke-miterlimit:10;}
	.st116{fill:#439F83;stroke:#1C425C;stroke-width:0.3211;stroke-miterlimit:10;}
	.st117{fill:#0C3034;}
</style>
<g id="QrirU4.tif">
	<g>
		<path class="st114" d="M14.7,17.4c2.7,0,5.3,0,7.8,0c0.3,0,0.7-0.1,1-0.3c3.7-3,7.4-6.1,11.1-9.1c1.7-1.4,3.5-1.4,5.2,0
			c3.8,3,7.6,6.1,11.4,9.1c0.3,0.2,0.7,0.4,1,0.4c2.3,0,4.6,0,6.9,0c0.2,0,0.4,0,0.7,0c0,0.3,0,0.5,0,0.7c0,1.7,0,3.3,0,5
			c0,0.4,0.1,0.7,0.4,1c1.4,1.2,2.7,2.3,4.1,3.5c1.4,1.2,2.1,2.7,2.1,4.5c0,9.5,0,19,0,28.5c0,2.2-1.3,3.5-3.6,3.5
			c-17,0-33.9,0-50.9,0c-2.3,0-3.6-1.3-3.6-3.6c0-9.5,0-19,0-28.5c0-1.8,0.7-3.3,2.1-4.5c1.2-1,2.3-2,3.5-3c0.4-0.4,0.6-0.7,0.6-1.3
			c0-1.7,0-3.5,0-5.2C14.7,17.9,14.7,17.7,14.7,17.4z M61.3,60.9c-8.1-6.3-16-12.6-23.9-18.8c-7.7,6.3-15.4,12.5-23.2,18.8
			C29.9,60.9,45.5,60.9,61.3,60.9z M56.7,20.7c-12.9,0-25.8,0-38.7,0c0,0.1,0,0.2,0,0.4c0,4.4,0,8.7,0,13.1c0,0.1,0,0.4,0.1,0.4
			c0.6,0.5,1.3,1,2,1.6c0-1.6,0-3.1,0-4.6c4.6,0,9.1,0,13.7,0c0,3.1,0,6.1,0,9.2c1.2-1,2.3-1.9,3.5-2.8c0.3,0.2,0.6,0.4,0.8,0.7
			c0.4,0.4,1,0.6,1.6,0.5c1.8,0,3.6,0,5.4,0c0.4,0,0.8,0,1.2,0c0,0.6,0,1.1,0,1.6c-1.8,0-3.5,0-5.4,0c1.5,1.1,2.8,2.2,4.1,3.2
			c0.1-0.1,0.2-0.1,0.3-0.2c3.7-2.9,7.4-5.8,11.1-8.7c0.2-0.2,0.3-0.5,0.3-0.8c0-4.3,0-8.7,0-13C56.7,21.1,56.7,20.9,56.7,20.7z
			 M47.6,46.1c5.3,4.1,10.5,8.2,15.7,12.3c0-8.3,0-16.4,0-24.7C58.1,37.9,52.9,42,47.6,46.1z M27.3,46.1C22.1,42,17,37.9,11.8,33.8
			c0,8.3,0,16.5,0,24.8C17,54.4,22.1,50.3,27.3,46.1z M21.8,33.4c0,1.4,0,2.7,0,4c0,0.2,0.2,0.4,0.3,0.5c2.4,1.9,4.8,3.9,7.3,5.8
			c0.3,0.3,0.6,0.3,0.9,0c0.4-0.4,0.9-0.8,1.4-1.1c0.3-0.2,0.4-0.5,0.4-0.8c0-2.6,0-5.2,0-7.9c0-0.2,0-0.3,0-0.5
			C28.6,33.4,25.2,33.4,21.8,33.4z M28.3,17.4c6.1,0,12.1,0,18.1,0c-0.1-0.1-0.1-0.1-0.1-0.2c-2.9-2.3-5.7-4.6-8.6-6.9
			c-0.3-0.3-0.6-0.2-0.9,0c-1.1,0.9-2.2,1.8-3.3,2.7C31.8,14.5,30.1,15.9,28.3,17.4z M62.6,30.2c-0.9-0.8-1.7-1.5-2.6-2.2
			c0,1.5,0,2.8,0,4.3C60.9,31.6,61.7,30.9,62.6,30.2z M12.5,30.2c0.7,0.6,1.4,1.1,2.2,1.7c0-1.2,0-2.3,0-3.6
			C13.9,29,13.3,29.6,12.5,30.2z"/>
		<path class="st4" d="M61.3,60.9c-15.8,0-31.4,0-47.1,0c7.8-6.3,15.4-12.5,23.2-18.8C45.3,48.4,53.2,54.6,61.3,60.9z"/>
		<path class="st4" d="M56.7,20.7c0,0.2,0,0.4,0,0.6c0,4.3,0,8.7,0,13c0,0.3-0.1,0.6-0.3,0.8c-3.7,2.9-7.4,5.8-11.1,8.7
			c-0.1,0.1-0.2,0.1-0.3,0.2c-1.3-1-2.6-2.1-4.1-3.2c1.9,0,3.6,0,5.4,0c0-0.6,0-1.1,0-1.6c-0.4,0-0.8,0-1.2,0c-1.8,0-3.6,0-5.4,0
			c-0.6,0-1.1-0.1-1.6-0.5c-0.2-0.2-0.5-0.4-0.8-0.7c-1.2,0.9-2.3,1.9-3.5,2.8c0-3.1,0-6.1,0-9.2c-4.6,0-9.1,0-13.7,0
			c0,1.5,0,2.9,0,4.6c-0.8-0.6-1.4-1.1-2-1.6c-0.1-0.1-0.1-0.3-0.1-0.4c0-4.4,0-8.7,0-13.1c0-0.1,0-0.2,0-0.4
			C30.9,20.7,43.8,20.7,56.7,20.7z M20.3,28c11.1,0,22.2,0,33.3,0c0-1.1,0-2.1,0-3.1c-11.1,0-22.2,0-33.3,0C20.3,26,20.3,27,20.3,28
			z M36.2,34.2c5.8,0,11.5,0,17.2,0c0-0.9,0-1.7,0-2.5c-5.8,0-11.5,0-17.2,0C36.2,32.5,36.2,33.3,36.2,34.2z M50.6,35.8
			c-4.8,0-9.6,0-14.3,0c0,0.5,0,1,0,1.5c4.8,0,9.6,0,14.3,0C50.6,36.8,50.6,36.3,50.6,35.8z"/>
		<path class="st4" d="M47.6,46.1c5.3-4.1,10.4-8.2,15.7-12.3c0,8.3,0,16.4,0,24.7C58.1,54.3,52.9,50.2,47.6,46.1z"/>
		<path class="st4" d="M27.3,46.1c-5.2,4.2-10.3,8.3-15.4,12.5c0-8.3,0-16.5,0-24.8C17,37.9,22.1,42,27.3,46.1z"/>
		<path class="st4" d="M21.8,33.4c3.4,0,6.8,0,10.2,0c0,0.2,0,0.4,0,0.5c0,2.6,0,5.2,0,7.9c0,0.4-0.1,0.6-0.4,0.8
			c-0.5,0.3-0.9,0.7-1.4,1.1c-0.3,0.3-0.6,0.3-0.9,0c-2.4-1.9-4.8-3.9-7.3-5.8c-0.1-0.1-0.3-0.3-0.3-0.5
			C21.8,36.1,21.8,34.8,21.8,33.4z"/>
		<path class="st4" d="M28.3,17.4c1.8-1.5,3.5-2.9,5.2-4.3c1.1-0.9,2.2-1.8,3.3-2.7c0.3-0.2,0.6-0.3,0.9,0c2.9,2.3,5.7,4.6,8.6,6.9
			c0,0,0.1,0.1,0.1,0.2C40.4,17.4,34.4,17.4,28.3,17.4z"/>
		<path class="st4" d="M62.6,30.2c-0.9,0.7-1.7,1.4-2.6,2.1c0-1.5,0-2.8,0-4.3C60.9,28.8,61.7,29.5,62.6,30.2z"/>
		<path class="st4" d="M12.5,30.2c0.8-0.7,1.4-1.2,2.2-1.8c0,1.2,0,2.3,0,3.6C13.9,31.3,13.3,30.8,12.5,30.2z"/>
		<path class="st115" d="M20.3,28c0-1.1,0-2.1,0-3.1c11.1,0,22.2,0,33.3,0c0,1,0,2.1,0,3.1C42.5,28,31.4,28,20.3,28z"/>
		<path class="st115" d="M36.2,34.2c0-0.9,0-1.7,0-2.5c5.7,0,11.5,0,17.2,0c0,0.8,0,1.6,0,2.5C47.7,34.2,42,34.2,36.2,34.2z"/>
		<path class="st115" d="M50.6,35.8c0,0.5,0,1,0,1.5c-4.8,0-9.5,0-14.3,0c0-0.5,0-1,0-1.5C41.1,35.8,45.8,35.8,50.6,35.8z"/>
	</g>
</g>
</svg>
