<?xml version="1.0" encoding="utf-8"?>
<!-- Generator: Adobe Illustrator 19.1.0, SVG Export Plug-In . SVG Version: 6.00 Build 0)  -->
<svg version="1.1" id="Layer_1" xmlns="http://www.w3.org/2000/svg" xmlns:xlink="http://www.w3.org/1999/xlink" x="0px" y="0px"
	 viewBox="0 0 40 40" style="enable-background:new 0 0 40 40;" xml:space="preserve">
<style type="text/css">
	.st0{fill:none;stroke:#1C425C;stroke-width:3;stroke-linecap:round;stroke-linejoin:round;stroke-miterlimit:10;}
	.st1{fill:#F7A600;stroke:#1C425C;stroke-width:3;stroke-miterlimit:10;}
	.st2{fill:#DB9E36;stroke:#1C425C;stroke-width:3;stroke-linecap:round;stroke-linejoin:round;stroke-miterlimit:10;}
	.st3{fill:#00BFC0;stroke:#1C425C;stroke-width:3;stroke-miterlimit:10;}
	.st4{fill:#9534A0;stroke:#1C425C;stroke-width:3;stroke-miterlimit:10;}
	.st5{fill:#FFFFFF;}
	.st6{fill:none;stroke:#1C425C;stroke-width:2;stroke-linecap:round;stroke-linejoin:round;stroke-miterlimit:10;}
	.st7{fill:#1C425C;}
	.st8{fill:#9534A0;}
	.st9{fill:#FFFAD5;}
	.st10{fill:none;stroke:#1C425C;stroke-width:5.3764;stroke-linecap:round;stroke-linejoin:round;stroke-miterlimit:10;}
	.st11{fill:none;stroke:#1C425C;stroke-linecap:round;stroke-linejoin:round;stroke-miterlimit:10;}
	.st12{fill:#DE572F;stroke:#1C425C;stroke-width:3;stroke-linejoin:round;stroke-miterlimit:10;}
	.st13{fill:#00BFC0;}
	.st14{fill:#F7A600;stroke:#1C425C;stroke-miterlimit:10;}
	.st15{clip-path:url(#SVGID_2_);fill:#F7A600;stroke:#1C425C;stroke-miterlimit:10;}
	.st16{fill:#00BFC0;stroke:#1C425C;stroke-width:2;stroke-miterlimit:10;}
	.st17{fill:#F7A600;stroke:#1C425C;stroke-width:2;stroke-miterlimit:10;}
	.st18{fill:#9534A0;stroke:#1C425C;stroke-width:2;stroke-miterlimit:10;}
	.st19{fill:#DB9E36;stroke:#1C425C;stroke-width:2;stroke-miterlimit:10;}
	.st20{fill:#DE572F;stroke:#1C425C;stroke-width:2;stroke-miterlimit:10;}
	.st21{fill:#FEFEFE;stroke:#1C425C;stroke-width:2;stroke-miterlimit:10;}
	.st22{fill:none;stroke:#9534A0;stroke-width:3;stroke-linejoin:round;}
	.st23{fill:none;stroke:#9534A0;stroke-width:3;stroke-linejoin:round;stroke-dasharray:7.9084,7.9084;}
	.st24{fill:none;stroke:#9534A0;stroke-width:3;stroke-linejoin:round;stroke-dasharray:7.0692,7.0692;}
	.st25{fill:none;stroke:#FF530D;stroke-width:3;stroke-linejoin:round;stroke-dasharray:7.0692,7.0692;}
	.st26{fill:none;}
	.st27{fill:#FF530D;}
	.st28{fill:#00A39F;stroke:#1C425C;stroke-width:3;stroke-miterlimit:10;}
	.st29{fill:none;stroke:#1C425C;stroke-width:3;stroke-linecap:round;stroke-linejoin:round;}
	.st30{fill:#F7A600;}
	.st31{fill:none;stroke:#9534A0;stroke-width:3.262;stroke-linejoin:round;stroke-miterlimit:10;stroke-dasharray:3.262,3.262;}
	.st32{fill:none;stroke:#A6D3EB;stroke-width:3.262;stroke-linejoin:round;}
	.st33{fill:none;stroke:#1C425C;stroke-width:3.262;stroke-linecap:round;stroke-linejoin:round;stroke-miterlimit:10;}
	.st34{fill:#00BFC0;stroke:#023550;stroke-width:4;stroke-miterlimit:10;}
	.st35{fill:none;stroke:#023550;stroke-width:5;stroke-linecap:round;stroke-miterlimit:10;}
	.st36{fill:#023550;}
	.st37{fill:none;stroke:#1C425C;stroke-width:1.3481;stroke-linecap:round;stroke-linejoin:round;}
	.st38{fill:none;stroke:#1C425C;stroke-linecap:round;stroke-linejoin:round;}
	.st39{fill:#00BFC0;stroke:#1C425C;stroke-width:1.3481;stroke-miterlimit:10;}
	.st40{fill:#F7A600;stroke:#1C425C;stroke-width:1.3481;stroke-miterlimit:10;}
	.st41{fill:#9534A0;stroke:#1C425C;stroke-width:1.3481;stroke-linejoin:round;stroke-miterlimit:10;}
	.st42{fill:#00BFC0;stroke:#1C425C;stroke-miterlimit:10;}
	.st43{fill:#9534A0;stroke:#1C425C;stroke-miterlimit:10;}
	.st44{fill:#00BFC0;stroke:#1C425C;stroke-width:0.3211;stroke-linejoin:round;stroke-miterlimit:10;}
	.st45{fill:#9534A0;stroke:#1C425C;stroke-width:0.5;stroke-miterlimit:10;}
	.st46{fill:#F7A600;stroke:#1C425C;stroke-width:0.3211;stroke-miterlimit:10;}
	.st47{fill:#211F1F;}
	.st48{fill:#99D9F1;}
	.st49{fill:#7BB9E7;}
	.st50{fill:#232121;}
	.st51{fill:#9AD9F1;}
	.st52{fill:#1C1A1A;}
	.st53{fill:#030304;}
	.st54{fill:#242222;}
	.st55{fill:#222020;}
	.st56{fill:#171414;}
	.st57{fill:#171515;}
	.st58{fill:#181616;}
	.st59{fill:#131111;}
	.st60{fill:#F4CAAF;}
	.st61{fill:#C49A84;}
	.st62{fill:#181718;}
	.st63{fill:#D1A58D;}
	.st64{fill:#181819;}
	.st65{fill:#171718;}
	.st66{fill:#FDFDFD;}
	.st67{fill:#FEFEFE;}
	.st68{fill:#1D1A1A;}
	.st69{fill:#1B1818;}
	.st70{fill:#A1E4FE;}
	.st71{fill:#97D6ED;}
	.st72{fill:#96D4EB;}
	.st73{fill:#97D5ED;}
	.st74{fill:#98D7EE;}
	.st75{fill:#98D7EF;}
	.st76{fill:#91CDE3;}
	.st77{fill:#AF5D50;}
	.st78{fill:#AF5C4F;}
	.st79{fill:#AE5C4F;}
	.st80{fill:#FDFCFC;}
	.st81{fill:none;stroke:#00BFC0;stroke-miterlimit:10;}
	.st82{fill:#9534A0;stroke:#1C425C;stroke-width:0.4299;stroke-linejoin:round;stroke-miterlimit:10;}
	.st83{fill:#00BFC0;stroke:#1C425C;stroke-width:1.3387;stroke-miterlimit:10;}
	.st84{fill:#9534A0;stroke:#1C425C;stroke-width:0.4075;stroke-miterlimit:10;}
	.st85{fill:#F7A600;stroke:#1C425C;stroke-width:0.4075;stroke-miterlimit:10;}
	.st86{fill:#00BFC0;stroke:#1C425C;stroke-width:0.4075;stroke-linejoin:round;stroke-miterlimit:10;}
	.st87{fill:#00BFC0;stroke:#1C425C;stroke-width:0.7137;stroke-miterlimit:10;}
	.st88{fill:#9534A0;stroke:#1C425C;stroke-width:0.7137;stroke-linejoin:round;stroke-miterlimit:10;}
	.st89{fill:#FFFFFF;stroke:#1C425C;stroke-width:0.3827;stroke-miterlimit:10;}
	.st90{fill:#9534A0;stroke:#1C425C;stroke-width:1.284;stroke-linejoin:round;stroke-miterlimit:10;}
	.st91{fill:#010101;}
	.st92{fill:#020202;}
	.st93{fill:#F2F2F2;stroke:#1C425C;stroke-width:1.9094;stroke-linejoin:round;stroke-miterlimit:10;}
	.st94{fill:#F2F2F2;stroke:#023550;stroke-width:2;stroke-miterlimit:10;}
	.st95{fill:none;stroke:#028A9E;stroke-width:2.185;stroke-linecap:round;stroke-miterlimit:10;}
	.st96{fill:#028A9E;}
	.st97{fill:none;stroke:#046D70;stroke-width:2.185;stroke-linecap:round;stroke-miterlimit:10;}
	.st98{fill:#046D70;}
	.st99{fill:none;stroke:#04BFBF;stroke-width:2.185;stroke-linecap:round;stroke-miterlimit:10;}
	.st100{fill:#04BFBF;}
	.st101{fill:#66A6BC;stroke:#023550;stroke-width:1.0085;stroke-linecap:round;stroke-linejoin:round;stroke-miterlimit:10;}
	.st102{fill:#9FE5F7;stroke:#023550;stroke-width:1.0085;stroke-linecap:round;stroke-linejoin:round;stroke-miterlimit:10;}
	.st103{fill:#75BCDA;stroke:#023550;stroke-width:1.0085;stroke-linecap:round;stroke-linejoin:round;stroke-miterlimit:10;}
	.st104{fill:#F2F2F2;stroke:#023550;stroke-width:1.0085;stroke-linecap:round;stroke-linejoin:round;stroke-miterlimit:10;}
	.st105{fill:#9534A0;stroke:#1C425C;stroke-width:2;stroke-linejoin:round;stroke-miterlimit:10;}
	.st106{fill:none;stroke:#1C425C;stroke-width:1.909;stroke-linejoin:round;stroke-miterlimit:10;stroke-dasharray:5,5,5,5,5,5;}
	.st107{fill:#BABABA;}
	.st108{fill:none;stroke:#1C425C;stroke-width:2;stroke-miterlimit:10;}
	.st109{fill:#FFFFFF;stroke:#1C425C;stroke-width:2;stroke-linejoin:round;stroke-miterlimit:10;}
	.st110{fill:none;stroke:#1C425C;stroke-width:2;stroke-linejoin:round;}
	.st111{clip-path:url(#SVGID_4_);fill:#DB9E36;stroke:#1C425C;stroke-width:2;stroke-miterlimit:10;}
	.st112{fill:#DE572F;stroke:#1C425C;stroke-width:0.5;stroke-miterlimit:10;}
	.st113{fill:#439F83;stroke:#1C425C;stroke-width:0.5;stroke-miterlimit:10;}
	.st114{fill:#DB9E36;stroke:#1C425C;stroke-width:0.5;stroke-miterlimit:10;}
	.st115{fill:#439F83;stroke:#1C425C;stroke-width:1.3387;stroke-miterlimit:10;}
	.st116{fill:#DE572F;stroke:#1C425C;stroke-width:0.3211;stroke-linejoin:round;stroke-miterlimit:10;}
	.st117{fill:#439F83;stroke:#1C425C;stroke-width:0.3211;stroke-miterlimit:10;}
</style>
<g id="UfeF3N.tif">
	<g>
		<path d="M29.4,18.7c0-5,0-9.9,0-14.9c-8.2,0-16.4,0-24.5,0c0,10.9,0,21.8,0,32.7c8.2,0,16.3,0,24.5,0c0-0.1,0-0.1,0-0.2
			c0-1.2,0-2.4,0-3.6c0-0.1,0-0.2,0.1-0.3c0.9-1.5,1.7-3.1,2.6-4.6c0,0,0-0.1,0.1-0.1c0,0.1,0,0.1,0,0.2c0,2.9,0,5.8,0,8.8
			c0,0.9-0.3,1.6-1,2.1c-0.4,0.3-0.9,0.5-1.5,0.5c-0.1,0-0.2,0-0.2,0c-8.2,0-16.4,0-24.6,0c-0.6,0-1.2-0.1-1.7-0.5
			c-0.7-0.5-0.9-1.2-1-2c0-0.1,0-0.2,0-0.3c0-10.8,0-21.7,0-32.5c0-0.5,0.1-1,0.3-1.4C2.9,1.6,3.7,1.1,4.7,1c0.1,0,0.1,0,0.2,0
			C13,1,21.2,1,29.4,1c0.8,0,1.5,0.2,2,0.8c0.5,0.5,0.7,1.2,0.7,1.9c0,1.2,0,2.3,0,3.5c0,2.1,0,4.3,0,6.4c0,0.1,0,0.2-0.1,0.3
			c-0.9,1.5-1.7,3.1-2.6,4.6C29.5,18.6,29.5,18.6,29.4,18.7C29.4,18.7,29.4,18.7,29.4,18.7z"/>
		<path d="M37.3,15.3c-0.2,0.4-0.4,0.7-0.6,1c-3,5.2-6,10.4-9,15.6c0,0.1-0.1,0.2-0.2,0.2c-0.8,0.5-1.7,1-2.5,1.5c0,0-0.1,0-0.1,0.1
			c0-0.1,0-0.1,0-0.2c0-1,0-1.9,0-2.9c0-0.1,0-0.2,0.1-0.3c3.2-5.5,6.4-11,9.6-16.5c0,0,0.1-0.1,0.1-0.1
			C35.4,14.2,36.3,14.7,37.3,15.3z"/>
		<path d="M7.2,14.6c0-0.6,0-1.3,0-1.9c6.6,0,13.2,0,19.9,0c0,0.6,0,1.3,0,1.9C20.5,14.6,13.8,14.6,7.2,14.6z"/>
		<path d="M27.1,21.7c0,0.6,0,1.3,0,1.9c-6.6,0-13.2,0-19.9,0c0-0.6,0-1.3,0-1.9C13.8,21.7,20.4,21.7,27.1,21.7z"/>
		<path d="M7.2,10c0-0.6,0-1.3,0-1.9c5.1,0,10.1,0,15.2,0c0,0.6,0,1.3,0,1.9C17.3,10,12.3,10,7.2,10z"/>
		<path d="M7.2,18.9c0-0.6,0-1.3,0-1.9c5.1,0,10.1,0,15.2,0c0,0.6,0,1.3,0,1.9C17.3,18.9,12.3,18.9,7.2,18.9z"/>
		<path d="M7.2,27.9c0-0.6,0-1.3,0-1.9c5.1,0,10.1,0,15.2,0c0,0.6,0,1.3,0,1.9C17.3,27.9,12.3,27.9,7.2,27.9z"/>
		<path d="M10.9,32.5c0,1-0.9,1.9-1.9,1.9c-1.1,0-1.9-0.9-1.9-1.9c0-1,0.9-1.9,1.9-1.9C10.1,30.6,10.9,31.4,10.9,32.5z"/>
		<path d="M16.9,32.5c0,1-0.8,1.9-1.9,1.9c-1,0-1.9-0.8-1.9-1.9c0-1,0.8-1.9,1.9-1.9C16.1,30.6,16.9,31.4,16.9,32.5z"/>
		<path d="M35.3,12.7c0.4-0.6,0.7-1.2,1.1-1.8c0.9,0.5,1.8,1,2.7,1.6c-0.4,0.6-0.7,1.2-1.1,1.8C37.1,13.7,36.2,13.2,35.3,12.7z"/>
	</g>
</g>
</svg>
