<?xml version="1.0" encoding="utf-8"?>
<!-- Generator: Adobe Illustrator 19.1.0, SVG Export Plug-In . SVG Version: 6.00 Build 0)  -->
<svg version="1.1" id="Layer_1" xmlns="http://www.w3.org/2000/svg" xmlns:xlink="http://www.w3.org/1999/xlink" x="0px" y="0px"
	 viewBox="0 0 99.1 111.4" style="enable-background:new 0 0 99.1 111.4;" xml:space="preserve">
<style type="text/css">
	.st0{fill:none;stroke:#1C425C;stroke-width:3;stroke-linecap:round;stroke-linejoin:round;stroke-miterlimit:10;}
	.st1{fill:#F7A600;stroke:#1C425C;stroke-width:3;stroke-miterlimit:10;}
	.st2{fill:#00BFC0;stroke:#1C425C;stroke-width:3;stroke-miterlimit:10;}
	.st3{fill:#9534A0;stroke:#1C425C;stroke-width:3;stroke-miterlimit:10;}
	.st4{fill:#FFFFFF;}
	.st5{fill:none;stroke:#1C425C;stroke-width:2;stroke-linecap:round;stroke-linejoin:round;stroke-miterlimit:10;}
	.st6{fill:#1C425C;}
	.st7{fill:#9534A0;}
	.st8{fill:#FFFAD5;}
	.st9{fill:none;stroke:#1C425C;stroke-width:5.3764;stroke-linecap:round;stroke-linejoin:round;stroke-miterlimit:10;}
	.st10{fill:none;stroke:#1C425C;stroke-linecap:round;stroke-linejoin:round;stroke-miterlimit:10;}
	.st11{fill:#DE572F;stroke:#1C425C;stroke-width:3;stroke-linejoin:round;stroke-miterlimit:10;}
	.st12{fill:#00BFC0;}
	.st13{fill:#F7A600;stroke:#1C425C;stroke-miterlimit:10;}
	.st14{clip-path:url(#SVGID_2_);fill:#F7A600;stroke:#1C425C;stroke-miterlimit:10;}
	.st15{fill:#00BFC0;stroke:#1C425C;stroke-width:2;stroke-miterlimit:10;}
	.st16{fill:#F7A600;stroke:#1C425C;stroke-width:2;stroke-miterlimit:10;}
	.st17{fill:#9534A0;stroke:#1C425C;stroke-width:2;stroke-miterlimit:10;}
	.st18{fill:#DB9E36;stroke:#1C425C;stroke-width:2;stroke-miterlimit:10;}
	.st19{fill:#DE572F;stroke:#1C425C;stroke-width:2;stroke-miterlimit:10;}
	.st20{fill:#FEFEFE;stroke:#1C425C;stroke-width:2;stroke-miterlimit:10;}
	.st21{fill:none;stroke:#9534A0;stroke-width:3;stroke-linejoin:round;}
	.st22{fill:none;stroke:#9534A0;stroke-width:3;stroke-linejoin:round;stroke-dasharray:7.9084,7.9084;}
	.st23{fill:none;stroke:#9534A0;stroke-width:3;stroke-linejoin:round;stroke-dasharray:7.0692,7.0692;}
	.st24{fill:none;stroke:#FF530D;stroke-width:3;stroke-linejoin:round;stroke-dasharray:7.0692,7.0692;}
	.st25{fill:none;}
	.st26{fill:#FF530D;}
	.st27{fill:#00A39F;stroke:#1C425C;stroke-width:3;stroke-miterlimit:10;}
	.st28{fill:none;stroke:#1C425C;stroke-width:3;stroke-linecap:round;stroke-linejoin:round;}
	.st29{fill:#F7A600;}
	.st30{fill:none;stroke:#9534A0;stroke-width:3.262;stroke-linejoin:round;stroke-miterlimit:10;stroke-dasharray:3.262,3.262;}
	.st31{fill:none;stroke:#A6D3EB;stroke-width:3.262;stroke-linejoin:round;}
	.st32{fill:none;stroke:#1C425C;stroke-width:3.262;stroke-linecap:round;stroke-linejoin:round;stroke-miterlimit:10;}
	.st33{fill:#00BFC0;stroke:#023550;stroke-width:4;stroke-miterlimit:10;}
	.st34{fill:none;stroke:#023550;stroke-width:5;stroke-linecap:round;stroke-miterlimit:10;}
	.st35{fill:#023550;}
	.st36{fill:none;stroke:#1C425C;stroke-width:1.348;stroke-linecap:round;stroke-linejoin:round;}
	.st37{fill:none;stroke:#1C425C;stroke-linecap:round;stroke-linejoin:round;}
	.st38{fill:#00BFC0;stroke:#1C425C;stroke-width:1.3481;stroke-miterlimit:10;}
	.st39{fill:#F7A600;stroke:#1C425C;stroke-width:1.3481;stroke-miterlimit:10;}
	.st40{fill:#9534A0;stroke:#1C425C;stroke-width:1.3481;stroke-linejoin:round;stroke-miterlimit:10;}
	.st41{fill:#00BFC0;stroke:#1C425C;stroke-miterlimit:10;}
	.st42{fill:#9534A0;stroke:#1C425C;stroke-miterlimit:10;}
	.st43{fill:#00BFC0;stroke:#1C425C;stroke-width:0.3211;stroke-linejoin:round;stroke-miterlimit:10;}
	.st44{fill:#9534A0;stroke:#1C425C;stroke-width:0.5;stroke-miterlimit:10;}
	.st45{fill:#F7A600;stroke:#1C425C;stroke-width:0.3211;stroke-miterlimit:10;}
	.st46{fill:#211F1F;}
	.st47{fill:#99D9F1;}
	.st48{fill:#7BB9E7;}
	.st49{fill:#232121;}
	.st50{fill:#9AD9F1;}
	.st51{fill:#1C1A1A;}
	.st52{fill:#030304;}
	.st53{fill:#242222;}
	.st54{fill:#222020;}
	.st55{fill:#171414;}
	.st56{fill:#171515;}
	.st57{fill:#181616;}
	.st58{fill:#131111;}
	.st59{fill:#F4CAAF;}
	.st60{fill:#C49A84;}
	.st61{fill:#181718;}
	.st62{fill:#D1A58D;}
	.st63{fill:#181819;}
	.st64{fill:#171718;}
	.st65{fill:#FDFDFD;}
	.st66{fill:#FEFEFE;}
	.st67{fill:#1D1A1A;}
	.st68{fill:#1B1818;}
	.st69{fill:#A1E4FE;}
	.st70{fill:#97D6ED;}
	.st71{fill:#96D4EB;}
	.st72{fill:#97D5ED;}
	.st73{fill:#98D7EE;}
	.st74{fill:#98D7EF;}
	.st75{fill:#91CDE3;}
	.st76{fill:#AF5D50;}
	.st77{fill:#AF5C4F;}
	.st78{fill:#AE5C4F;}
	.st79{fill:#FDFCFC;}
	.st80{fill:none;stroke:#00BFC0;stroke-miterlimit:10;}
	.st81{fill:#9534A0;stroke:#1C425C;stroke-width:0.4299;stroke-linejoin:round;stroke-miterlimit:10;}
	.st82{fill:#00BFC0;stroke:#1C425C;stroke-width:1.3387;stroke-miterlimit:10;}
	.st83{fill:#9534A0;stroke:#1C425C;stroke-width:0.4075;stroke-miterlimit:10;}
	.st84{fill:#F7A600;stroke:#1C425C;stroke-width:0.4075;stroke-miterlimit:10;}
	.st85{fill:#00BFC0;stroke:#1C425C;stroke-width:0.4075;stroke-linejoin:round;stroke-miterlimit:10;}
	.st86{fill:#00BFC0;stroke:#1C425C;stroke-width:0.7137;stroke-miterlimit:10;}
	.st87{fill:#9534A0;stroke:#1C425C;stroke-width:0.7137;stroke-linejoin:round;stroke-miterlimit:10;}
	.st88{fill:#FFFFFF;stroke:#1C425C;stroke-width:0.3827;stroke-miterlimit:10;}
	.st89{fill:#9534A0;stroke:#1C425C;stroke-width:1.284;stroke-linejoin:round;stroke-miterlimit:10;}
	.st90{fill:#010101;}
	.st91{fill:#020202;}
	.st92{fill:#F2F2F2;stroke:#1C425C;stroke-width:1.9094;stroke-linejoin:round;stroke-miterlimit:10;}
	.st93{fill:#F2F2F2;stroke:#023550;stroke-width:2;stroke-miterlimit:10;}
	.st94{fill:none;stroke:#028A9E;stroke-width:2.185;stroke-linecap:round;stroke-miterlimit:10;}
	.st95{fill:#028A9E;}
	.st96{fill:none;stroke:#046D70;stroke-width:2.185;stroke-linecap:round;stroke-miterlimit:10;}
	.st97{fill:#046D70;}
	.st98{fill:none;stroke:#04BFBF;stroke-width:2.185;stroke-linecap:round;stroke-miterlimit:10;}
	.st99{fill:#04BFBF;}
	.st100{fill:#66A6BC;stroke:#023550;stroke-width:1.0085;stroke-linecap:round;stroke-linejoin:round;stroke-miterlimit:10;}
	.st101{fill:#9FE5F7;stroke:#023550;stroke-width:1.0085;stroke-linecap:round;stroke-linejoin:round;stroke-miterlimit:10;}
	.st102{fill:#75BCDA;stroke:#023550;stroke-width:1.0085;stroke-linecap:round;stroke-linejoin:round;stroke-miterlimit:10;}
	.st103{fill:#F2F2F2;stroke:#023550;stroke-width:1.0085;stroke-linecap:round;stroke-linejoin:round;stroke-miterlimit:10;}
	.st104{fill:#9534A0;stroke:#1C425C;stroke-width:2;stroke-linejoin:round;stroke-miterlimit:10;}
	.st105{fill:none;stroke:#1C425C;stroke-width:1.909;stroke-linejoin:round;stroke-miterlimit:10;stroke-dasharray:5,5,5,5,5,5;}
	.st106{fill:#BABABA;}
	.st107{fill:none;stroke:#1C425C;stroke-width:2;stroke-miterlimit:10;}
	.st108{fill:#FFFFFF;stroke:#1C425C;stroke-width:2;stroke-linejoin:round;stroke-miterlimit:10;}
	.st109{fill:none;stroke:#1C425C;stroke-width:2;stroke-linejoin:round;}
	.st110{clip-path:url(#SVGID_4_);fill:#DB9E36;stroke:#1C425C;stroke-width:2;stroke-miterlimit:10;}
	.st111{fill:#DE572F;stroke:#1C425C;stroke-width:0.5;stroke-miterlimit:10;}
	.st112{fill:#439F83;stroke:#1C425C;stroke-width:0.5;stroke-miterlimit:10;}
	.st113{fill:#DB9E36;stroke:#1C425C;stroke-width:0.5;stroke-miterlimit:10;}
	.st114{fill:#439F83;stroke:#1C425C;stroke-width:1.3387;stroke-miterlimit:10;}
	.st115{fill:#DE572F;stroke:#1C425C;stroke-width:0.3211;stroke-linejoin:round;stroke-miterlimit:10;}
	.st116{fill:#439F83;stroke:#1C425C;stroke-width:0.3211;stroke-miterlimit:10;}
	.st117{fill:#0C3034;}
</style>
<path class="st15" d="M84.1,56.5c1,3.9,1.7,7.8,2.1,11.7c0.1,0.9,0,1.3-0.9,1.7c-3.9,1.8-5.6,5.2-4.9,9.5c0.1,0.7-0.1,1-0.6,1.3
	c-4.2,2.2-8.4,4.3-13.1,5.3c-0.3-0.5,0.1-0.8,0.3-1.1c0.4-0.5,0.8-1,1.1-1.6c1.3-2.3,0.9-3.7-1.6-5.1c-0.1-0.7,0.5-0.9,0.9-1.3
	c1.4-1.4,1.4-2.5-0.3-3.8c-1.8-1.4-3.8-2.4-5.8-3.6c-1.7-1-3.2-2.2-4.5-3.6c-1.5-1.7-1.9-3.4-0.9-5.4c0.9-1.9,2.2-2.9,4.4-2.9
	c3.1,0,5.6,1.5,8.3,2.6c1.3,0.5,2.5,1.3,3.8,1.8c2.5,1,3.8,0.2,3.9-2.5c0-1.2,0-2.5-0.2-3.7c-0.3-1.8-0.2-3.6,1.1-5.1
	c1.9-1.1,3.2-0.9,4.6,0.6C83,52.8,84,54.4,84.1,56.5z"/>
<path class="st16" d="M66.6,78.1c2.3,0.4,3.2,2,2.4,4.4c-0.5,1.3-1.5,2.3-2.3,3.5c-3.1,3.1-6.5,5.7-10.2,8.2
	c-0.7,0.5-1.1,0.5-1.8-0.1c-3.3-2.6-7.2-2.6-10.6-0.1c-0.4,0.3-0.6,0.8-1.2,0.4c-3.8-2.6-7.6-5.1-10.5-8.7c0.5-0.6,1.1-0.4,1.6-0.3
	c0.9,0.1,1.7,0,2.5-0.3c1.2-0.4,1.8-1.3,1.7-2.6c0-0.5-0.4-1,0.2-1.5c0.7-0.1,1.4,0.3,2,0.5c1.6,0.3,2.5-0.2,2.8-1.8
	c0.4-1.9,0.5-3.7,0.5-5.6c0-2.2,0.3-4.4,0.9-6.5c0.8-2.6,2.4-3.9,4.7-3.9c2.3-0.1,4,1.2,5,3.7c0.8,2.1,0.9,4.3,1,6.5
	c0,1.9-0.1,3.9,0.4,5.8c0.5,2.1,1.4,2.6,3.4,1.8c1.7-0.7,3.1-1.9,4.8-2.7C64.7,78.2,65.5,77.5,66.6,78.1z"/>
<path class="st16" d="M32.2,25.6c3.1-3.1,6.5-5.8,10.2-8.2c0.7-0.5,1.2-0.6,1.9,0c3.3,2.5,7.1,2.5,10.5,0c0.5-0.3,0.8-0.8,1.5-0.3
	c3.8,2.6,7.7,5.2,10.6,8.9c-0.3,0.4-0.8,0.4-1.2,0.3c-4.1-0.1-4.1-0.1-5.6,3.6c-0.4,0.2-0.8,0-1.3,0c-2.1-0.4-2.7,0.1-3.2,2.1
	c-0.3,1.4-0.3,2.9-0.3,4.3c0,2.2-0.2,4.4-0.7,6.6c-0.8,3.3-2.5,4.9-5.2,4.8c-2.7,0-4.5-1.8-5.2-5.1c-0.4-1.7-0.6-3.5-0.5-5.3
	c0.1-1.8-0.1-3.7-0.4-5.5c-0.3-1.9-1.4-2.6-3.2-2c-1.3,0.4-2.4,1.3-3.5,2c-1.1,0.7-2.1,1.3-3.3,1.6c-3.3,0.1-4.6-2-3.2-5
	C30.5,27.4,31.2,26.3,32.2,25.6z"/>
<path class="st17" d="M38.1,80.9c0.8,1.1,1.1,2.2,0.3,3.4c-0.9,1.3-2.3,1.4-3.7,1.5c-0.7,0-1.5-0.1-2.2-0.1c-4.4-1.3-8.6-3-12.7-5.2
	c-0.8-0.4-1.2-0.7-1-1.8c0.7-3.8-1.2-7.4-4.7-9c-1-0.5-1.2-0.9-1.1-2.1c0.5-4.3,1-8.5,2.6-12.6c0.8,0.3,0.9,1.2,1.2,1.8
	c1.6,3,2.5,3.4,5.6,1.9c0.1,0,0.2,0,0.3,0.1c0.4,0.5,0.3,1,0.4,1.5c0.4,1.6,1.3,2.2,2.9,1.6c2.1-0.7,4.1-1.7,6.1-2.7
	c1.8-0.9,3.6-1.6,5.6-2c2.4-0.4,4.4,0.5,5.5,2.5c1,1.9,0.8,4.1-0.8,5.8c-2.1,2.4-4.9,3.6-7.5,5.3c-0.6,0.4-1.3,0.7-1.9,1.2
	c-2.6,1.9-2.7,3.2-0.1,5.1c0.9,0.7,1.9,1.2,2.9,1.7C36.6,79.4,37.6,79.8,38.1,80.9z"/>
<path class="st17" d="M60.1,29.9c-0.3-2.5,0.6-3.7,3.1-4c1.2-0.2,2.4,0.1,3.7,0.1c4.2,1.1,8.3,2.7,12.2,4.5c0.7,0.4,1.1,0.7,1.1,1.7
	c-0.3,4.6,1.3,7.3,5.5,9.2c0.5,0.2,0.8,0.4,0.8,1c-0.3,4.8-0.6,9.5-2.4,14.1c-0.7-1.4-1.1-2.9-2.1-4.2c-1.4-1.8-2.6-2.2-4.8-1.3
	c-2.4-2.3-2.6-2.4-5.8-0.7c-2.4,1.2-4.7,2.7-7.2,3.6c-1.2,0.4-2.4,0.8-3.6,0.7c-3.4-0.2-5.6-3.7-4.2-6.7c0.8-1.9,2.3-3.1,3.9-4.3
	c2.1-1.5,4.4-2.7,6.5-4.3c2.3-1.8,2.3-3.3-0.3-4.9c-1.5-1-3.3-1.6-4.8-2.7C60.9,31.2,60.2,30.8,60.1,29.9z"/>
<path class="st15" d="M22.4,58.8c-1.5,1.7-3.3,1.7-4.8,0.1c-1-1.1-1.5-2.6-2.1-3.9c-1.2-4.2-1.7-8.5-1.9-12.9c0-0.8,0-1.2,0.9-1.5
	c3.9-1.6,5.8-4.9,5.4-9.1c0-0.5-0.3-1,0.4-1.4c3.9-1.8,7.7-3.7,11.9-4.4c-0.6,1.1-1.3,2.1-1.9,3.3c-1,2.1-0.2,4.7,2.8,4.4
	c0.1,0.6-0.4,0.8-0.7,1.2c-1.1,1.4-1,2.3,0.3,3.5c1.4,1.2,3,2.2,4.5,3.1c1.7,1,3.3,2.1,4.7,3.4c2.8,2.5,2.8,6.2,0.2,8.3
	c-1.7,1.3-3.6,1.1-5.4,0.6c-2.1-0.5-4-1.6-5.9-2.7c-1.4-0.8-2.8-1.6-4.3-2.2c-1.9-0.7-2.8-0.2-3.2,1.7c-0.2,1-0.2,2-0.2,3
	C23.2,55.1,23.9,57.1,22.4,58.8z"/>
<path class="st18" d="M56.6,103.3c0,3.9-3.2,7-7.1,7.1c-4.1,0-7.3-3.2-7.2-7.3c0-4,3.2-7.2,7.2-7.1C53.5,96,56.6,99.1,56.6,103.3z"
	/>
<path class="st18" d="M49.5,15.4c-4,0-7.2-3.2-7.2-7.2c0-4,3.2-7.2,7.2-7.2c4.1,0,7.4,3.3,7.3,7.3C56.7,12.2,53.5,15.4,49.5,15.4z"
	/>
<path class="st19" d="M90.8,24.9c4,0,7.2,3.2,7.2,7.2c0,4.1-3.2,7.3-7.3,7.3c-4,0-7.2-3.2-7.1-7.2C83.6,28.1,86.8,24.9,90.8,24.9z"
	/>
<path class="st15" d="M9.3,38.5c-4,0-7.2-3.1-7.3-7.1C2,27.3,5.2,24,9.3,24.1c4,0,7.2,3.2,7.2,7.2C16.5,35.2,13.3,38.4,9.3,38.5z"/>
<path class="st19" d="M1,78.5c0-4,3.1-7.2,7.1-7.3c4.1-0.1,7.3,3.1,7.3,7.2c0,4-3.2,7.2-7.2,7.2C4.2,85.6,1,82.5,1,78.5z"/>
<path class="st20" d="M22.4,58.8c0.6-1.8,0.4-3.7,0.3-5.6c0-0.2-0.1-0.4-0.1-0.6c0.1-3.5,0.7-6.3,5.5-3.8c2.1,1.1,4.2,2.2,6.3,3.3
	c1.4,0.7,2.8,1.2,4.3,1.3c1.9,0.1,3.4-0.5,4.3-2.2c0.9-1.7,0.8-3.3-0.2-4.9c-1-1.5-2.3-2.5-3.8-3.5c-1.9-1.3-3.9-2.5-5.8-3.8
	c-2.9-2.1-2.9-3.3-0.2-5.7c1.9-0.5,3.3-1.8,4.9-2.7c4.1-2.4,5.5-1.7,6,3c0.3,2.6,0,5.3,0.5,7.9c0.2,1,0.4,2,0.7,3c0.8,2,2.2,3,4.3,3
	c2.1,0,3.5-1,4.3-3.1c0.9-2.5,1-5.2,1.1-7.8c0-1.5,0-2.9,0.3-4.4c0.4-2.9,1.6-3.5,4.2-2.5c0.2,0.1,0.5,0.2,0.8,0.3
	c1.1,1.4,2.7,2.1,4.2,2.9c1.2,0.6,2.3,1.1,3.3,2c1.7,1.4,1.7,2.8,0.1,4.2c-1.5,1.3-3.2,2.2-4.8,3.3c-1.8,1.2-3.6,2.3-5.1,3.9
	c-1.8,2-2.1,3.9-0.9,5.9c1.2,1.9,3,2.5,5.5,1.9c2.6-0.6,4.9-2,7.2-3.2c1.1-0.6,2.2-1.2,3.3-1.7c2.5-1.1,3.3-0.7,4.3,1.9
	c-0.9,1.3-1,2.7-0.9,4.2c0.1,1.4,0.3,2.8,0.3,4.2c0,3.4-1.4,4.4-4.5,3.1c-2.6-1.1-5.2-2.4-7.8-3.5c-1.3-0.6-2.6-0.8-4.1-0.9
	c-2,0-3.3,0.8-4.1,2.6c-0.8,1.8-0.6,3.5,0.7,5c1.4,1.7,3.2,2.8,5.1,3.9c1.7,1,3.4,1.9,5,3c2.6,1.7,2.6,3.3,0.1,5.2
	c-0.2,0.1-0.3,0.3-0.5,0.4c-1.5,0.2-2.7,1-3.9,1.8c-1.1,0.7-2.2,1.5-3.5,2c-2.3,0.9-3.5,0.2-3.9-2.2c-0.3-1.9-0.3-3.8-0.3-5.6
	c0-2.3-0.2-4.6-1-6.8c-0.8-2.2-2.4-3.3-4.5-3.2c-2,0.1-3.4,1.2-4.2,3.2c-1,2.7-1,5.5-1.1,8.3c-0.1,1.3-0.1,2.7-0.3,4
	c-0.4,2.5-1.7,3.2-4,2.3c-0.6-0.2-1.2-0.6-1.8-0.8c-1.8-1.1-3.7-2.2-5.4-3.3c-0.6-0.4-1.2-0.9-1.7-1.5c-1-1-0.9-2.1,0.1-3.1
	c1.4-1.4,3.3-2.3,5-3.3c2-1.2,4-2.3,5.7-4c1.8-1.8,2.2-3.8,1.2-5.7c-1.1-2-2.7-2.7-5.3-2.3c-2.9,0.5-5.3,2-7.9,3.1
	c-1.1,0.5-2.1,1-3.3,1.4c-2.4,0.8-3.5,0-3.8-2.5C22.4,59.4,22.4,59.1,22.4,58.8z"/>
<path class="st15" d="M98,79c0,3.9-3.2,7-7.1,7.1c-4.1,0-7.3-3.2-7.2-7.3c0-4,3.2-7.2,7.2-7.1C94.9,71.6,98,74.8,98,79z"/>
</svg>
