<?xml version="1.0" encoding="utf-8"?>
<!-- Generator: Adobe Illustrator 19.1.0, SVG Export Plug-In . SVG Version: 6.00 Build 0)  -->
<svg version="1.1" id="Layer_1" xmlns="http://www.w3.org/2000/svg" xmlns:xlink="http://www.w3.org/1999/xlink" x="0px" y="0px"
	 viewBox="0 0 100 100" style="enable-background:new 0 0 100 100;" xml:space="preserve">
<style type="text/css">
	.st0{fill:none;stroke:#1C425C;stroke-width:3;stroke-linecap:round;stroke-linejoin:round;stroke-miterlimit:10;}
	.st1{fill:#F7A600;stroke:#1C425C;stroke-width:3;stroke-miterlimit:10;}
	.st2{fill:#00BFC0;stroke:#1C425C;stroke-width:3;stroke-miterlimit:10;}
	.st3{fill:#9534A0;stroke:#1C425C;stroke-width:3;stroke-miterlimit:10;}
	.st4{fill:#FFFFFF;}
	.st5{fill:none;stroke:#1C425C;stroke-width:2;stroke-linecap:round;stroke-linejoin:round;stroke-miterlimit:10;}
	.st6{fill:#1C425C;}
	.st7{fill:#9534A0;}
	.st8{fill:#FFFAD5;}
	.st9{fill:none;stroke:#1C425C;stroke-width:5.3764;stroke-linecap:round;stroke-linejoin:round;stroke-miterlimit:10;}
	.st10{fill:none;stroke:#1C425C;stroke-linecap:round;stroke-linejoin:round;stroke-miterlimit:10;}
	.st11{fill:#DE572F;stroke:#1C425C;stroke-width:3;stroke-linejoin:round;stroke-miterlimit:10;}
	.st12{fill:#00BFC0;}
	.st13{fill:#F7A600;stroke:#1C425C;stroke-miterlimit:10;}
	.st14{clip-path:url(#SVGID_2_);fill:#F7A600;stroke:#1C425C;stroke-miterlimit:10;}
	.st15{fill:#00BFC0;stroke:#1C425C;stroke-width:2;stroke-miterlimit:10;}
	.st16{fill:#F7A600;stroke:#1C425C;stroke-width:2;stroke-miterlimit:10;}
	.st17{fill:#9534A0;stroke:#1C425C;stroke-width:2;stroke-miterlimit:10;}
	.st18{fill:#DB9E36;stroke:#1C425C;stroke-width:2;stroke-miterlimit:10;}
	.st19{fill:#DE572F;stroke:#1C425C;stroke-width:2;stroke-miterlimit:10;}
	.st20{fill:#FEFEFE;stroke:#1C425C;stroke-width:2;stroke-miterlimit:10;}
	.st21{fill:none;stroke:#9534A0;stroke-width:3;stroke-linejoin:round;}
	.st22{fill:none;stroke:#9534A0;stroke-width:3;stroke-linejoin:round;stroke-dasharray:7.9084,7.9084;}
	.st23{fill:none;stroke:#9534A0;stroke-width:3;stroke-linejoin:round;stroke-dasharray:7.0692,7.0692;}
	.st24{fill:none;stroke:#FF530D;stroke-width:3;stroke-linejoin:round;stroke-dasharray:7.0692,7.0692;}
	.st25{fill:none;}
	.st26{fill:#FF530D;}
	.st27{fill:#00A39F;stroke:#1C425C;stroke-width:3;stroke-miterlimit:10;}
	.st28{fill:none;stroke:#1C425C;stroke-width:3;stroke-linecap:round;stroke-linejoin:round;}
	.st29{fill:#F7A600;}
	.st30{fill:none;stroke:#9534A0;stroke-width:3.262;stroke-linejoin:round;stroke-miterlimit:10;stroke-dasharray:3.262,3.262;}
	.st31{fill:none;stroke:#A6D3EB;stroke-width:3.262;stroke-linejoin:round;}
	.st32{fill:none;stroke:#1C425C;stroke-width:3.262;stroke-linecap:round;stroke-linejoin:round;stroke-miterlimit:10;}
	.st33{fill:#00BFC0;stroke:#023550;stroke-width:4;stroke-miterlimit:10;}
	.st34{fill:none;stroke:#023550;stroke-width:5;stroke-linecap:round;stroke-miterlimit:10;}
	.st35{fill:#023550;}
	.st36{fill:none;stroke:#1C425C;stroke-width:1.348;stroke-linecap:round;stroke-linejoin:round;}
	.st37{fill:none;stroke:#1C425C;stroke-linecap:round;stroke-linejoin:round;}
	.st38{fill:#00BFC0;stroke:#1C425C;stroke-width:1.3481;stroke-miterlimit:10;}
	.st39{fill:#F7A600;stroke:#1C425C;stroke-width:1.3481;stroke-miterlimit:10;}
	.st40{fill:#9534A0;stroke:#1C425C;stroke-width:1.3481;stroke-linejoin:round;stroke-miterlimit:10;}
	.st41{fill:#00BFC0;stroke:#1C425C;stroke-miterlimit:10;}
	.st42{fill:#9534A0;stroke:#1C425C;stroke-miterlimit:10;}
	.st43{fill:#00BFC0;stroke:#1C425C;stroke-width:0.3211;stroke-linejoin:round;stroke-miterlimit:10;}
	.st44{fill:#9534A0;stroke:#1C425C;stroke-width:0.5;stroke-miterlimit:10;}
	.st45{fill:#F7A600;stroke:#1C425C;stroke-width:0.3211;stroke-miterlimit:10;}
	.st46{fill:#211F1F;}
	.st47{fill:#99D9F1;}
	.st48{fill:#7BB9E7;}
	.st49{fill:#232121;}
	.st50{fill:#9AD9F1;}
	.st51{fill:#1C1A1A;}
	.st52{fill:#030304;}
	.st53{fill:#242222;}
	.st54{fill:#222020;}
	.st55{fill:#171414;}
	.st56{fill:#171515;}
	.st57{fill:#181616;}
	.st58{fill:#131111;}
	.st59{fill:#F4CAAF;}
	.st60{fill:#C49A84;}
	.st61{fill:#181718;}
	.st62{fill:#D1A58D;}
	.st63{fill:#181819;}
	.st64{fill:#171718;}
	.st65{fill:#FDFDFD;}
	.st66{fill:#FEFEFE;}
	.st67{fill:#1D1A1A;}
	.st68{fill:#1B1818;}
	.st69{fill:#A1E4FE;}
	.st70{fill:#97D6ED;}
	.st71{fill:#96D4EB;}
	.st72{fill:#97D5ED;}
	.st73{fill:#98D7EE;}
	.st74{fill:#98D7EF;}
	.st75{fill:#91CDE3;}
	.st76{fill:#AF5D50;}
	.st77{fill:#AF5C4F;}
	.st78{fill:#AE5C4F;}
	.st79{fill:#FDFCFC;}
	.st80{fill:none;stroke:#00BFC0;stroke-miterlimit:10;}
	.st81{fill:#9534A0;stroke:#1C425C;stroke-width:0.4299;stroke-linejoin:round;stroke-miterlimit:10;}
	.st82{fill:#00BFC0;stroke:#1C425C;stroke-width:1.3387;stroke-miterlimit:10;}
	.st83{fill:#9534A0;stroke:#1C425C;stroke-width:0.4075;stroke-miterlimit:10;}
	.st84{fill:#F7A600;stroke:#1C425C;stroke-width:0.4075;stroke-miterlimit:10;}
	.st85{fill:#00BFC0;stroke:#1C425C;stroke-width:0.4075;stroke-linejoin:round;stroke-miterlimit:10;}
	.st86{fill:#00BFC0;stroke:#1C425C;stroke-width:0.7137;stroke-miterlimit:10;}
	.st87{fill:#9534A0;stroke:#1C425C;stroke-width:0.7137;stroke-linejoin:round;stroke-miterlimit:10;}
	.st88{fill:#FFFFFF;stroke:#1C425C;stroke-width:0.3827;stroke-miterlimit:10;}
	.st89{fill:#9534A0;stroke:#1C425C;stroke-width:1.284;stroke-linejoin:round;stroke-miterlimit:10;}
	.st90{fill:#010101;}
	.st91{fill:#020202;}
	.st92{fill:#F2F2F2;stroke:#1C425C;stroke-width:1.9094;stroke-linejoin:round;stroke-miterlimit:10;}
	.st93{fill:#F2F2F2;stroke:#023550;stroke-width:2;stroke-miterlimit:10;}
	.st94{fill:none;stroke:#028A9E;stroke-width:2.185;stroke-linecap:round;stroke-miterlimit:10;}
	.st95{fill:#028A9E;}
	.st96{fill:none;stroke:#046D70;stroke-width:2.185;stroke-linecap:round;stroke-miterlimit:10;}
	.st97{fill:#046D70;}
	.st98{fill:none;stroke:#04BFBF;stroke-width:2.185;stroke-linecap:round;stroke-miterlimit:10;}
	.st99{fill:#04BFBF;}
	.st100{fill:#66A6BC;stroke:#023550;stroke-width:1.0085;stroke-linecap:round;stroke-linejoin:round;stroke-miterlimit:10;}
	.st101{fill:#9FE5F7;stroke:#023550;stroke-width:1.0085;stroke-linecap:round;stroke-linejoin:round;stroke-miterlimit:10;}
	.st102{fill:#75BCDA;stroke:#023550;stroke-width:1.0085;stroke-linecap:round;stroke-linejoin:round;stroke-miterlimit:10;}
	.st103{fill:#F2F2F2;stroke:#023550;stroke-width:1.0085;stroke-linecap:round;stroke-linejoin:round;stroke-miterlimit:10;}
	.st104{fill:#9534A0;stroke:#1C425C;stroke-width:2;stroke-linejoin:round;stroke-miterlimit:10;}
	.st105{fill:none;stroke:#1C425C;stroke-width:1.909;stroke-linejoin:round;stroke-miterlimit:10;stroke-dasharray:5,5,5,5,5,5;}
	.st106{fill:#BABABA;}
	.st107{fill:none;stroke:#1C425C;stroke-width:2;stroke-miterlimit:10;}
	.st108{fill:#FFFFFF;stroke:#1C425C;stroke-width:2;stroke-linejoin:round;stroke-miterlimit:10;}
	.st109{fill:none;stroke:#1C425C;stroke-width:2;stroke-linejoin:round;}
	.st110{clip-path:url(#SVGID_4_);fill:#DB9E36;stroke:#1C425C;stroke-width:2;stroke-miterlimit:10;}
	.st111{fill:#DE572F;stroke:#1C425C;stroke-width:0.5;stroke-miterlimit:10;}
	.st112{fill:#439F83;stroke:#1C425C;stroke-width:0.5;stroke-miterlimit:10;}
	.st113{fill:#DB9E36;stroke:#1C425C;stroke-width:0.5;stroke-miterlimit:10;}
	.st114{fill:#439F83;stroke:#1C425C;stroke-width:1.3387;stroke-miterlimit:10;}
	.st115{fill:#DE572F;stroke:#1C425C;stroke-width:0.3211;stroke-linejoin:round;stroke-miterlimit:10;}
	.st116{fill:#439F83;stroke:#1C425C;stroke-width:0.3211;stroke-miterlimit:10;}
	.st117{fill:#0C3034;}
</style>
<g id="LMa5Iv.tif_1_">
	<g>
		<path class="st43" d="M43.4,5c3.6,1,6.7,2.7,8.6,6.2c3.3,6.1,0.9,13.6-5.4,16.5c-6,2.8-13.4-0.2-15.9-6.4
			c-2.5-6.5,0.8-13.6,7.5-15.7c0.6-0.2,1.3-0.4,1.9-0.6C41.2,5,42.3,5,43.4,5z"/>
		<path class="st83" d="M23.3,79.1c0.4-2.9,0.4-6,1.3-8.8c1.7-5.3,5.6-8.5,11.2-9c4-0.4,8.2-0.5,12.2-0.1
			c7.9,0.7,12.8,6.4,12.9,14.4c0,2.9-0.1,5.7,0.1,8.5c0.1,1.9-0.7,2.6-2.3,3.2c-6.3,2.1-12.7,3-19.2,2.3c-4.6-0.5-9.2-1.7-13.8-2.5
			c-1.7-0.3-2.1-1.1-2-2.6c0.1-1.8,0-3.5,0-5.3C23.6,79.1,23.5,79.1,23.3,79.1z"/>
		<path class="st84" d="M28.2,50c1.4,3.1,2.7,6.1,4.1,9.3C24,62.4,20.5,69.1,21,78.3c-5.5-0.3-10.7-1.4-15.7-2.9
			c-0.4-0.1-0.7-0.9-0.8-1.4c0-3.7-0.1-7.5,0.1-11.2C5,56.4,9.6,50.9,15.8,50.1C20,49.5,24.3,50,28.2,50z"/>
		<path class="st84" d="M81.4,67.2C82,58.1,78.5,51.5,69.7,48c2.2-2.5,3.7-5.2,4-8.4c0-0.3,0.8-0.8,1.3-0.8c3.3,0,6.5-0.1,9.8,0.1
			c6,0.5,11.6,6,12,12c0.3,4,0.2,8,0.1,12c0,0.5-0.5,1.3-0.9,1.5C93.2,66,85.1,67.6,81.4,67.2z"/>
		<path class="st85" d="M52.3,59.3c1.4-3.1,2.7-6,4.1-9.4c6.4-2.1,15.6,0.2,19.6,5.4c1.7,2.2,2.7,4.7,2.8,7.5c0.1,3.7,0.1,7.3,0,11
			c0,0.6-0.4,1.4-0.8,1.6c-4.6,2-9.4,2.9-14.6,3C64.1,69.2,60.6,62.5,52.3,59.3z"/>
		<path class="st83" d="M42.3,60.2c-6,0-10.9-4.8-10.9-10.8c0-6,4.8-10.9,10.8-10.9c6,0,10.9,4.9,10.9,10.8
			C53.2,55.3,48.3,60.2,42.3,60.2z"/>
		<path class="st84" d="M12.3,38.3c-0.2-6,4.4-10.9,10.5-11.2c5.5-0.3,10.8,4.3,11.1,10c0.1,0.8-0.5,1.7-0.9,2.5
			c-1.2,2.2-2.5,4.3-3.8,6.4c-0.5,0.7-1,1.6-1.7,2C20.6,51.2,12.5,46.1,12.3,38.3z"/>
		<path class="st85" d="M71.2,38c0,7.2-6.7,12.4-13.6,10.6c-1.2-0.3-2-0.8-2.3-2.2c-0.6-3.1-2.2-5.7-4.7-7.6c-1.1-0.8-1.2-1.7-1-2.8
			c1-5.3,6.1-9.3,11.3-8.9C66.9,27.7,71.1,32.2,71.2,38z"/>
		<path class="st84" d="M89.2,27.1c0,7.2-6.8,12.4-13.7,10.5c-1.2-0.3-2-0.8-2.2-2.2c-0.6-3.1-2.2-5.7-4.8-7.5c-1-0.7-1.2-1.5-1-2.6
			c1-5.4,6.1-9.5,11.4-9C84.9,16.7,89.2,21.3,89.2,27.1z"/>
		<path class="st43" d="M34,29.8c5.3,0,10.4,0,15.5,0c-0.8,2.4-1.6,4.6-2.4,6.9c-3.6-1.4-7.3-1.2-10.7,0.5
			C35.6,34.7,34.8,32.3,34,29.8z"/>
	</g>
</g>
</svg>
