<?xml version="1.0" encoding="utf-8"?>
<!-- Generator: Adobe Illustrator 19.1.0, SVG Export Plug-In . SVG Version: 6.00 Build 0)  -->
<svg version="1.1" id="Layer_1" xmlns="http://www.w3.org/2000/svg" xmlns:xlink="http://www.w3.org/1999/xlink" x="0px" y="0px"
	 viewBox="0 0 360 200" style="enable-background:new 0 0 360 200;" xml:space="preserve">
<style type="text/css">
	.st0{fill:none;stroke:#1C425C;stroke-width:3;stroke-linecap:round;stroke-linejoin:round;stroke-miterlimit:10;}
	.st1{fill:#F7A600;stroke:#1C425C;stroke-width:3;stroke-miterlimit:10;}
	.st2{fill:#DB9E36;stroke:#1C425C;stroke-width:3;stroke-linecap:round;stroke-linejoin:round;stroke-miterlimit:10;}
	.st3{fill:#00BFC0;stroke:#1C425C;stroke-width:3;stroke-miterlimit:10;}
	.st4{fill:#9534A0;stroke:#1C425C;stroke-width:3;stroke-miterlimit:10;}
	.st5{fill:#FFFFFF;}
	.st6{fill:none;stroke:#1C425C;stroke-width:2;stroke-linecap:round;stroke-linejoin:round;stroke-miterlimit:10;}
	.st7{fill:#1C425C;}
	.st8{fill:#9534A0;}
	.st9{fill:#FFFAD5;}
	.st10{fill:none;stroke:#1C425C;stroke-width:5.3764;stroke-linecap:round;stroke-linejoin:round;stroke-miterlimit:10;}
	.st11{font-family:'OpenSans';}
	.st12{font-size:17.6364px;}
	.st13{fill:none;stroke:#1C425C;stroke-linecap:round;stroke-linejoin:round;stroke-miterlimit:10;}
	.st14{fill:#DE572F;stroke:#1C425C;stroke-width:3;stroke-linejoin:round;stroke-miterlimit:10;}
	.st15{fill:#00BFC0;}
	.st16{fill:#F7A600;stroke:#1C425C;stroke-miterlimit:10;}
	.st17{clip-path:url(#SVGID_2_);fill:#F7A600;stroke:#1C425C;stroke-miterlimit:10;}
	.st18{fill:#00BFC0;stroke:#1C425C;stroke-width:2;stroke-miterlimit:10;}
	.st19{fill:#F7A600;stroke:#1C425C;stroke-width:2;stroke-miterlimit:10;}
	.st20{fill:#9534A0;stroke:#1C425C;stroke-width:2;stroke-miterlimit:10;}
	.st21{fill:#DB9E36;stroke:#1C425C;stroke-width:2;stroke-miterlimit:10;}
	.st22{fill:#DE572F;stroke:#1C425C;stroke-width:2;stroke-miterlimit:10;}
	.st23{fill:#FEFEFE;stroke:#1C425C;stroke-width:2;stroke-miterlimit:10;}
	.st24{fill:none;stroke:#9534A0;stroke-width:3;stroke-linejoin:round;}
	.st25{fill:none;stroke:#9534A0;stroke-width:3;stroke-linejoin:round;stroke-dasharray:7.9084,7.9084;}
	.st26{fill:none;stroke:#9534A0;stroke-width:3;stroke-linejoin:round;stroke-dasharray:7.0692,7.0692;}
	.st27{fill:none;stroke:#FF530D;stroke-width:3;stroke-linejoin:round;stroke-dasharray:7.0692,7.0692;}
	.st28{fill:none;}
	.st29{fill:#FF530D;}
	.st30{fill:#00A39F;stroke:#1C425C;stroke-width:3;stroke-miterlimit:10;}
	.st31{fill:none;stroke:#1C425C;stroke-width:3;stroke-linecap:round;stroke-linejoin:round;}
	.st32{fill:#F7A600;}
	.st33{fill:none;stroke:#9534A0;stroke-width:3.262;stroke-linejoin:round;stroke-miterlimit:10;stroke-dasharray:3.262,3.262;}
	.st34{fill:none;stroke:#A6D3EB;stroke-width:3.262;stroke-linejoin:round;}
	.st35{fill:none;stroke:#1C425C;stroke-width:3.262;stroke-linecap:round;stroke-linejoin:round;stroke-miterlimit:10;}
	.st36{fill:#00BFC0;stroke:#023550;stroke-width:4;stroke-miterlimit:10;}
	.st37{fill:none;stroke:#023550;stroke-width:5;stroke-linecap:round;stroke-miterlimit:10;}
	.st38{fill:#023550;}
	.st39{fill:none;stroke:#1C425C;stroke-width:1.3481;stroke-linecap:round;stroke-linejoin:round;}
	.st40{fill:none;stroke:#1C425C;stroke-linecap:round;stroke-linejoin:round;}
	.st41{fill:#00BFC0;stroke:#1C425C;stroke-width:1.3481;stroke-miterlimit:10;}
	.st42{fill:#F7A600;stroke:#1C425C;stroke-width:1.3481;stroke-miterlimit:10;}
	.st43{fill:#9534A0;stroke:#1C425C;stroke-width:1.3481;stroke-linejoin:round;stroke-miterlimit:10;}
	.st44{fill:#00BFC0;stroke:#1C425C;stroke-miterlimit:10;}
	.st45{fill:#9534A0;stroke:#1C425C;stroke-miterlimit:10;}
	.st46{fill:#00BFC0;stroke:#1C425C;stroke-width:0.3211;stroke-linejoin:round;stroke-miterlimit:10;}
	.st47{fill:#9534A0;stroke:#1C425C;stroke-width:0.5;stroke-miterlimit:10;}
	.st48{fill:#F7A600;stroke:#1C425C;stroke-width:0.3211;stroke-miterlimit:10;}
	.st49{fill:#211F1F;}
	.st50{fill:#99D9F1;}
	.st51{fill:#7BB9E7;}
	.st52{fill:#232121;}
	.st53{fill:#9AD9F1;}
	.st54{fill:#1C1A1A;}
	.st55{fill:#030304;}
	.st56{fill:#242222;}
	.st57{fill:#222020;}
	.st58{fill:#171414;}
	.st59{fill:#171515;}
	.st60{fill:#181616;}
	.st61{fill:#131111;}
	.st62{fill:#F4CAAF;}
	.st63{fill:#C49A84;}
	.st64{fill:#181718;}
	.st65{fill:#D1A58D;}
	.st66{fill:#181819;}
	.st67{fill:#171718;}
	.st68{fill:#FDFDFD;}
	.st69{fill:#FEFEFE;}
	.st70{fill:#1D1A1A;}
	.st71{fill:#1B1818;}
	.st72{fill:#A1E4FE;}
	.st73{fill:#97D6ED;}
	.st74{fill:#96D4EB;}
	.st75{fill:#97D5ED;}
	.st76{fill:#98D7EE;}
	.st77{fill:#98D7EF;}
	.st78{fill:#91CDE3;}
	.st79{fill:#AF5D50;}
	.st80{fill:#AF5C4F;}
	.st81{fill:#AE5C4F;}
	.st82{fill:#FDFCFC;}
	.st83{fill:none;stroke:#00BFC0;stroke-miterlimit:10;}
	.st84{fill:#9534A0;stroke:#1C425C;stroke-width:0.4299;stroke-linejoin:round;stroke-miterlimit:10;}
	.st85{fill:#00BFC0;stroke:#1C425C;stroke-width:1.3387;stroke-miterlimit:10;}
	.st86{fill:#9534A0;stroke:#1C425C;stroke-width:0.4075;stroke-miterlimit:10;}
	.st87{fill:#F7A600;stroke:#1C425C;stroke-width:0.4075;stroke-miterlimit:10;}
	.st88{fill:#00BFC0;stroke:#1C425C;stroke-width:0.4075;stroke-linejoin:round;stroke-miterlimit:10;}
	.st89{fill:#00BFC0;stroke:#1C425C;stroke-width:0.7137;stroke-miterlimit:10;}
	.st90{fill:#9534A0;stroke:#1C425C;stroke-width:0.7137;stroke-linejoin:round;stroke-miterlimit:10;}
	.st91{fill:#FFFFFF;stroke:#1C425C;stroke-width:0.3827;stroke-miterlimit:10;}
	.st92{fill:#9534A0;stroke:#1C425C;stroke-width:1.284;stroke-linejoin:round;stroke-miterlimit:10;}
	.st93{fill:#010101;}
	.st94{fill:#020202;}
	.st95{fill:#F2F2F2;stroke:#1C425C;stroke-width:1.9094;stroke-linejoin:round;stroke-miterlimit:10;}
	.st96{fill:#F2F2F2;stroke:#023550;stroke-width:2;stroke-miterlimit:10;}
	.st97{fill:none;stroke:#028A9E;stroke-width:2.185;stroke-linecap:round;stroke-miterlimit:10;}
	.st98{fill:#028A9E;}
	.st99{fill:none;stroke:#046D70;stroke-width:2.185;stroke-linecap:round;stroke-miterlimit:10;}
	.st100{fill:#046D70;}
	.st101{fill:none;stroke:#04BFBF;stroke-width:2.185;stroke-linecap:round;stroke-miterlimit:10;}
	.st102{fill:#04BFBF;}
	.st103{fill:#66A6BC;stroke:#023550;stroke-width:1.0085;stroke-linecap:round;stroke-linejoin:round;stroke-miterlimit:10;}
	.st104{fill:#9FE5F7;stroke:#023550;stroke-width:1.0085;stroke-linecap:round;stroke-linejoin:round;stroke-miterlimit:10;}
	.st105{fill:#75BCDA;stroke:#023550;stroke-width:1.0085;stroke-linecap:round;stroke-linejoin:round;stroke-miterlimit:10;}
	.st106{fill:#F2F2F2;stroke:#023550;stroke-width:1.0085;stroke-linecap:round;stroke-linejoin:round;stroke-miterlimit:10;}
	.st107{fill:#9534A0;stroke:#1C425C;stroke-width:2;stroke-linejoin:round;stroke-miterlimit:10;}
	.st108{fill:none;stroke:#1C425C;stroke-width:1.909;stroke-linejoin:round;stroke-miterlimit:10;stroke-dasharray:5,5,5,5,5,5;}
	.st109{fill:#BABABA;}
	.st110{fill:none;stroke:#1C425C;stroke-width:2;stroke-miterlimit:10;}
	.st111{fill:#FFFFFF;stroke:#1C425C;stroke-width:2;stroke-linejoin:round;stroke-miterlimit:10;}
	.st112{fill:none;stroke:#1C425C;stroke-width:2;stroke-linejoin:round;}
	.st113{clip-path:url(#SVGID_4_);fill:#DB9E36;stroke:#1C425C;stroke-width:2;stroke-miterlimit:10;}
	.st114{fill:#DE572F;stroke:#1C425C;stroke-width:0.5;stroke-miterlimit:10;}
	.st115{fill:#439F83;stroke:#1C425C;stroke-width:0.5;stroke-miterlimit:10;}
	.st116{fill:#DB9E36;stroke:#1C425C;stroke-width:0.5;stroke-miterlimit:10;}
	.st117{fill:#439F83;stroke:#1C425C;stroke-width:1.3387;stroke-miterlimit:10;}
	.st118{fill:#DE572F;stroke:#1C425C;stroke-width:0.3211;stroke-linejoin:round;stroke-miterlimit:10;}
	.st119{fill:#439F83;stroke:#1C425C;stroke-width:0.3211;stroke-miterlimit:10;}
</style>
<g>
	<g>
		<path class="st3" d="M266.1,66.2l-37.4,22.8c5.2,8.6,8.1,18.6,8.1,29.6h43.6C280.5,99.5,275.2,81.3,266.1,66.2 M180,17.5
			c-55.5,0-100.5,45-100.5,101h43.6c0-32,25.4-57.3,56.8-57.3c10.4,0,20.2,2.6,28.6,7.4L230.5,31C215.7,22.4,198.4,17.5,180,17.5"/>
		<path class="st3" d="M280,118.5h-43.2c-0.4-10-3.2-21.2-8.1-29.4l37.4-22.9c8.7,14.5,13.7,33.7,14.4,50.6"/>
		<path class="st0" d="M266.1,66.2l-37.4,22.8c5.2,8.6,8.1,18.6,8.1,29.6h43.6C280.5,99.5,275.2,81.3,266.1,66.2z M180,17.5
			c-55.5,0-100.5,46-100.5,101h43.6c0-31,25.4-57.3,56.8-57.3c10.4,0,20.2,2.6,28.6,7.4L230.5,31C215.7,22.4,198.4,17.5,180,17.5z"
			/>
		<path class="st3" d="M266.1,65.7l-37.4,22.5c-4.9-8.2-11.9-15-20.1-19.8l21.9-37.7C245.1,39.1,257.4,51.2,266.1,65.7"/>
		<path class="st0" d="M266.1,65.7l-37.4,22.5c-4.9-8.2-11.9-15-20.1-19.8l21.9-37.7C245.1,39.1,257.4,51.2,266.1,65.7z"/>
		<path class="st1" d="M224.5,118v18.2c0,25-20,45.3-45,45.3s-45-20.3-45-45.3v-18.7c0,3.2,0.4,6.3,1.1,9.4c0.7,3.3,1.8,6.4,3.1,9.4
			c7.1,15.7,23,26.6,41.3,26.6s34.2-10.9,41.3-26.6c1.3-3,2.2-6.1,2.9-9.4c0.6-3,0.6-6.1,0.6-9.4"/>
		<path class="st0" d="M225.5,117.5v18.7c0,25-20.5,45.3-45.5,45.3s-45.5-20.3-45.5-45.3v-18.7c0,3.2,0.9,6.3,1.6,9.4
			c0.7,3.3,2,6.4,3.4,9.4c7.1,15.7,23.1,26.6,41.4,26.6s34.2-10.9,41.3-26.6c1.3-3,2-6.1,2.7-9.4
			C225.5,123.9,225.5,120.7,225.5,117.5z"/>
		<path class="st8" d="M225.3,117.5c0,3.2-0.3,6.3-1,9.4c-0.7,3.3-1.7,6.4-3.1,9.4c-7.1,15.7-22.9,26.6-41.3,26.6
			s-34.2-10.9-41.3-26.6c-1.3-3-2.4-6.1-3.1-9.4c-0.6-3-1-6.1-1-9.4c0-25,20.3-45.3,45.3-45.3S225.3,92.5,225.3,117.5"/>
		<path class="st0" d="M225.3,117.5c0,3.2-0.3,6.3-1,9.4c-0.7,3.3-1.7,6.4-3.1,9.4c-7.1,15.7-22.9,26.6-41.3,26.6
			s-34.2-10.9-41.3-26.6c-1.3-3-2.4-6.1-3.1-9.4c-0.6-3-1-6.1-1-9.4c0-25,20.3-45.3,45.3-45.3S225.3,92.5,225.3,117.5z"/>
		<line class="st10" x1="206" y1="88.1" x2="182.4" y2="118"/>
	</g>
	<text transform="matrix(1 0 0 1 166.9823 49.5573)" class="st7 st11 st12">1</text>
	<g>
		<text transform="matrix(1 0 0 1 174.8856 49.5573)" class="st7 st11 st12">.</text>
	</g>
	<text transform="matrix(1 0 0 1 181.4442 49.5573)" class="st7 st11 st12">8</text>
	<text transform="matrix(1 0 0 1 224.0233 70.6003)" class="st7 st11 st12">1</text>
	<g>
		<text transform="matrix(1 0 0 1 231.9257 70.6003)" class="st7 st11 st12">.</text>
	</g>
	<text transform="matrix(1 0 0 1 237.1425 70.6003)" class="st7 st11 st12">9</text>
	<text transform="matrix(1 0 0 1 112.8739 70.6003)" class="st7 st11 st12">1</text>
	<g>
		<text transform="matrix(1 0 0 1 120.7762 70.6003)" class="st7 st11 st12">.</text>
	</g>
	<text transform="matrix(1 0 0 1 127.3348 70.6003)" class="st7 st11 st12">7</text>
	<text transform="matrix(1 0 0 1 242.0673 108.5915)" class="st7 st11 st12">2</text>
	<g>
		<text transform="matrix(1 0 0 1 253.911 108.5915)" class="st7 st11 st12">.</text>
	</g>
	<text transform="matrix(1 0 0 1 259.5741 108.5915)" class="st7 st11 st12">0</text>
	<g>
		<text transform="matrix(1 0 0 1 90.2176 108.5915)" class="st7 st11 st12">1.6</text>
	</g>
	<g>
		<line class="st13" x1="144.5" y1="165" x2="144.5" y2="147"/>
		<line class="st13" x1="154.5" y1="173" x2="154.5" y2="157"/>
		<line class="st13" x1="164.5" y1="178" x2="164.5" y2="162"/>
		<line class="st13" x1="174.5" y1="180" x2="174.5" y2="164"/>
		<line class="st13" x1="185.5" y1="181" x2="185.5" y2="164"/>
		<line class="st13" x1="195.5" y1="179" x2="195.5" y2="162"/>
		<line class="st13" x1="205.5" y1="173" x2="205.5" y2="157"/>
		<line class="st13" x1="215.5" y1="164" x2="215.5" y2="147"/>
	</g>
</g>
</svg>
