<?xml version="1.0" encoding="utf-8"?>
<!-- Generator: Adobe Illustrator 21.0.2, SVG Export Plug-In . SVG Version: 6.00 Build 0)  -->
<svg version="1.1" id="Layer_1" xmlns="http://www.w3.org/2000/svg" xmlns:xlink="http://www.w3.org/1999/xlink" x="0px" y="0px"
	 viewBox="0 0 360 360" style="enable-background:new 0 0 360 360;" xml:space="preserve">
<style type="text/css">
	.st0{fill:#F7F7F7;}
</style>
<g>
	<path class="st0" d="M180,6.4C84.1,6.4,6.4,84.1,6.4,180S84.1,353.6,180,353.6S353.6,275.9,353.6,180S275.9,6.4,180,6.4z
		 M277.7,200.5l-147.5,98.3c-4.2,2.8-8.8,4.2-13.6,4.2c-4,0-8-1-11.6-3c-8-4.3-13-12.6-13-21.7V180c0-13.6,11-24.6,24.6-24.6
		c13.5,0,24.6,11,24.6,24.6v52.4l78.6-52.4l-116.8-77.9C91.6,94.5,88.5,79.2,96,68c7.5-11.3,22.8-14.3,34.1-6.9l147.6,98.4
		c6.9,4.6,10.9,12.2,10.9,20.5C288.7,188.2,284.6,195.9,277.7,200.5z"/>
</g>
</svg>
