<?xml version="1.0" encoding="UTF-8" standalone="no"?>
<!-- Created with Inkscape (http://www.inkscape.org/) -->

<svg
   xmlns:dc="http://purl.org/dc/elements/1.1/"
   xmlns:cc="http://creativecommons.org/ns#"
   xmlns:rdf="http://www.w3.org/1999/02/22-rdf-syntax-ns#"
   xmlns:svg="http://www.w3.org/2000/svg"
   xmlns="http://www.w3.org/2000/svg"
   xmlns:sodipodi="http://sodipodi.sourceforge.net/DTD/sodipodi-0.dtd"
   xmlns:inkscape="http://www.inkscape.org/namespaces/inkscape"
   width="634.64288"
   height="179.64648"
   id="svg2"
   version="1.1"
   inkscape:version="0.48.4 r9939"
   sodipodi:docname="OpenJDK_logo.svg">
  <defs
     id="defs4" />
  <sodipodi:namedview
     id="base"
     pagecolor="#ffffff"
     bordercolor="#666666"
     borderopacity="1.0"
     inkscape:pageopacity="0.0"
     inkscape:pageshadow="2"
     inkscape:zoom="1.3346571"
     inkscape:cx="317.3088"
     inkscape:cy="89.869564"
     inkscape:document-units="px"
     inkscape:current-layer="layer1"
     showgrid="false"
     inkscape:window-width="1198"
     inkscape:window-height="741"
     inkscape:window-x="68"
     inkscape:window-y="3"
     inkscape:window-maximized="0"
     fit-margin-top="5"
     fit-margin-left="5"
     fit-margin-right="5"
     fit-margin-bottom="5" />
  <metadata
     id="metadata7">
    <rdf:RDF>
      <cc:Work
         rdf:about="">
        <dc:format>image/svg+xml</dc:format>
        <dc:type
           rdf:resource="http://purl.org/dc/dcmitype/StillImage" />
        <dc:title />
      </cc:Work>
    </rdf:RDF>
  </metadata>
  <g
     inkscape:label="Livello 1"
     inkscape:groupmode="layer"
     id="layer1"
     transform="translate(-70,-52.715694)">
    <rect
       style="fill:#ffffff;fill-opacity:1;fill-rule:nonzero;stroke:none"
       id="rect3009"
       width="634.61993"
       height="179.55621"
       x="69.998833"
       y="52.714508" />
    <path
       style="fill:#e76f00;fill-opacity:1;stroke:none"
       d="M 119.65625,57.71875 C 88.214965,57.361607 75,88.352672 75,126.125 c 0,37.77233 13.214965,68.375 44.65625,68.375 31.44129,0 44.625,-30.60267 44.625,-68.375 0,-37.772328 -13.18371,-68.049107 -44.625,-68.40625 z m 0,12.15625 c 17.88508,0 27.84375,18.755413 27.84375,56.25 0,37.49459 -10.31582,56.25 -27.84375,56.25 -17.52793,0 -27.875,-18.04113 -27.875,-56.25 0,-38.208873 9.98992,-56.25 27.875,-56.25 z"
       id="path3798"
       inkscape:connector-curvature="0" />
    <path
       style="fill:#e76f00;fill-opacity:1;stroke:none"
       d="m 222.1875,93.0625 c -5.14716,0.148067 -10.24532,2.387818 -14.6875,5 -2.99461,1.760948 -7.59375,7.15625 -7.59375,7.15625 l 0,-10.90625 -14.5625,0 0,132.34375 14.5625,0 0,-32.5 c 0,0 13.93983,0.67385 20.4375,-1.4375 C 226.75246,190.6363 232.93138,186.95337 237.5,182 c 5.08999,-5.51864 8.25696,-12.78829 10.34375,-20 2.32481,-8.03429 2.34895,-16.63833 2.15625,-25 -0.18814,-8.16367 -0.23844,-16.67871 -3.21875,-24.28125 -2.182,-5.5661 -5.61511,-10.99804 -10.34375,-14.65625 -3.72496,-2.881734 -8.51091,-4.873619 -13.21875,-5 -0.34343,-0.0092 -0.68811,-0.0099 -1.03125,0 z m -3.71875,12.46875 c 0.27471,0.002 0.53597,0.005 0.8125,0.0312 3.19083,0.3059 5.94868,2.73688 8.21875,5 3.06539,3.05601 5.48888,6.9627 6.78125,11.09375 1.88688,6.03136 1.0732,12.58664 1.0625,18.90625 -0.0101,5.96308 0.16933,12.04054 -1.0625,17.875 -1.1283,5.34413 -2.52663,10.91169 -5.71875,15.34375 -2.7708,3.84708 -6.59182,7.35942 -11.0625,8.9375 -3.36778,1.18878 -7.20149,0.61965 -10.71875,0 -2.40149,-0.42308 -6.875,-2.5 -6.875,-2.5 l 0,-64.65625 c 0,0 4.33774,-3.92854 6.875,-5.34375 3.63919,-2.02983 7.56687,-4.71027 11.6875,-4.6875 z"
       id="path3824"
       inkscape:connector-curvature="0" />
    <path
       style="fill:#e76f00;fill-opacity:1;stroke:none"
       d="m 298.8125,92.71875 c -5.8813,0.184329 -11.86192,2.350733 -16.65625,5.71875 -4.79308,3.36714 -8.30447,8.6006 -10.71875,13.9375 -2.80027,6.19014 -3.24175,13.24165 -3.9375,20 -0.76895,7.46946 -0.79893,15.01116 -0.25,22.5 0.48297,6.58886 0.68763,13.44095 3.09375,19.59375 1.7196,4.39728 4.46951,8.51081 7.875,11.78125 3.31872,3.1871 7.35135,5.94347 11.78125,7.1875 6.533,1.83463 13.64967,1.11139 20.34375,0 5.08802,-0.84474 10.03134,-2.71708 14.65625,-5 1.92447,-0.94995 5.34375,-3.5625 5.34375,-3.5625 l -3.90625,-8.21875 c 0,0 -8.07694,4.24141 -12.5,5 -5.75417,0.98689 -12.09314,1.4836 -17.5,-0.71875 -4.44988,-1.81254 -8.08611,-5.63681 -10.71875,-9.65625 -2.47521,-3.77908 -3.55762,-8.38454 -4.28125,-12.84375 -0.70557,-4.34789 0,-13.21875 0,-13.21875 l 48.5625,0 c 0,0 0.64526,-19.58597 -1.78125,-28.9375 -1.5246,-5.87568 -3.35594,-12.35332 -7.875,-16.40625 C 314.99013,95.07359 307.19061,92.818537 300,92.71875 c -0.39057,-0.0054 -0.79541,-0.01229 -1.1875,0 z m 1.25,10.3125 c 1.893,-0.0501 3.84431,0.42641 5.5,1.3125 2.41411,1.29199 4.27745,3.54518 5.8125,5.8125 2.15649,3.1852 3.61914,6.86467 4.5625,10.59375 1.14015,4.50698 1.25,13.875 1.25,13.875 l -36.375,0 c 0,0 0.31992,-7.44325 1.03125,-11.09375 0.55517,-2.84908 1.1821,-5.75752 2.5,-8.34375 1.58233,-3.10515 3.57862,-6.15111 6.3125,-8.3125 2.45398,-1.9401 5.48408,-3.47204 8.59375,-3.8125 0.26668,-0.0292 0.54207,-0.0241 0.8125,-0.0312 z"
       id="path3828"
       inkscape:connector-curvature="0" />
    <path
       style="fill:#e76f00;fill-opacity:1;stroke:none"
       d="m 353.55339,93.979954 0,97.732256 14.2684,0 0,-75.5089 c 0,0 4.80101,-4.26318 7.44988,-6.06092 2.71289,-1.84118 5.40096,-4.0215 8.5863,-4.79822 2.61834,-0.63846 5.57736,-0.74446 8.08122,0.25254 1.88348,0.74998 3.21704,2.50938 4.54568,4.04061 1.21065,1.39525 2.35367,2.91321 3.0611,4.61965 1.27342,3.07165 2.21173,7.33775 1.98967,9.77502 l 0,67.68022 14.64721,0 0,-71.97337 c 0.11323,-1.66812 -1.48385,-7.92585 -3.03046,-11.61675 -1.27272,-3.03728 -2.89671,-6.00404 -5.06608,-8.481692 -1.55327,-1.774002 -3.46713,-3.274908 -5.54052,-4.397753 -2.34078,-1.267647 -4.93343,-2.20559 -7.57614,-2.525381 -3.10223,-0.375397 -6.32232,-0.03904 -9.34392,0.757614 -2.5128,0.66251 -4.84093,1.948963 -7.07106,3.282996 -2.16723,1.296409 -4.04169,3.029025 -6.06092,4.545686 -1.58793,1.1927 -4.76125,3.58149 -4.76125,3.58149 l 0.0893,-10.905096 z"
       id="path3832"
       inkscape:connector-curvature="0"
       sodipodi:nodetypes="ccccaaaaaccccaaaaaaaccc" />
    <path
       style="fill:#5382a1;fill-opacity:1;stroke:none"
       d="m 438.92857,59.147895 26.42857,0 0,128.571425 c 0.10539,2.68918 -1.1884,9.72523 -2.85714,14.28572 -1.35493,3.70287 -3.43449,7.14006 -5.71428,10.35714 -1.9378,2.73448 -4.33338,5.12335 -6.69643,7.5 -2.62976,2.64489 -8.30358,7.5 -8.30358,7.5 L 427.5,215.57647 c 0,0 4.09521,-4.80618 5.71429,-7.5 1.90713,-3.17307 3.69953,-6.50939 4.64285,-10.08929 0.72299,-2.74373 0.71429,-8.48214 0.71429,-8.48214 z"
       id="path3834"
       inkscape:connector-curvature="0"
       sodipodi:nodetypes="cccaaaccaacc" />
    <path
       style="fill:#5382a1;fill-opacity:1;stroke:none"
       d="m 532.5,58.4375 -39.65625,0.34375 0,133.9375 41.8125,0 c 0,0 11.55317,-1.24062 16.78125,-3.5625 6.31136,-2.80298 12.08128,-7.09658 16.78125,-12.15625 5.71133,-6.14842 10.36298,-13.54656 13.21875,-21.4375 3.72406,-10.29017 4.35116,-21.56011 4.625,-32.5 0.22735,-9.08307 -0.0765,-18.36825 -2.5,-27.125 C 581.73042,89.317592 578.86501,82.803261 574.65625,77.375 571.0324,72.701132 566.25151,68.77501 561.0625,65.9375 554.71931,62.46885 547.40192,61.065187 540.34375,59.5 537.76315,58.927739 532.5,58.4375 532.5,58.4375 z m 0.71875,22.125 c 0,0 7.20373,2.545716 10.34375,4.65625 3.00498,2.019773 5.79468,4.53661 7.875,7.5 2.54188,3.620887 4.24283,7.8714 5.34375,12.15625 1.69511,6.59748 1.70995,13.53235 1.78125,20.34375 0.0749,7.15832 0.29184,14.4831 -1.40625,21.4375 -0.98634,4.03948 -2.7279,7.92375 -5,11.40625 -2.20978,3.38699 -4.85362,6.69455 -8.21875,8.9375 -3.4784,2.31845 -11.78125,4.28125 -11.78125,4.28125 l -13.59375,0 0,-90.34375 14.65625,-0.375 z"
       id="path3836"
       inkscape:connector-curvature="0" />
    <path
       style="fill:#5382a1;fill-opacity:1;stroke:none"
       d="m 606.42857,58.612181 26.07143,0 0,57.321429 34.64286,-57.321429 30.35714,0 -43.57143,61.249999 45.71429,72.85715 -32.85714,0 -34.28572,-59.64286 0,59.64286 -26.07143,0 z"
       id="path3840"
       inkscape:connector-curvature="0"
       sodipodi:nodetypes="cccccccccccc" />
  </g>
</svg>
