<svg id="Layer_1" data-name="Layer 1" xmlns="http://www.w3.org/2000/svg" xmlns:xlink="http://www.w3.org/1999/xlink" viewBox="0 0 480 280">
  <defs>
    <linearGradient id="linear-gradient" x1="46.813" y1="37.172" x2="217.25" y2="37.172" gradientUnits="userSpaceOnUse">
      <stop offset="0" stop-color="#c8db57"/>
      <stop offset="0.275" stop-color="#ccda56"/>
      <stop offset="0.54" stop-color="#d7d954"/>
      <stop offset="0.801" stop-color="#ebd651"/>
      <stop offset="1" stop-color="#ffd34e"/>
    </linearGradient>
    <linearGradient id="linear-gradient-2" x1="49.89" y1="82.836" x2="261.532" y2="82.836" gradientUnits="userSpaceOnUse">
      <stop offset="0" stop-color="#c8db57"/>
      <stop offset="0.161" stop-color="#cadb57"/>
      <stop offset="0.256" stop-color="#d3d955"/>
      <stop offset="0.333" stop-color="#e1d753"/>
      <stop offset="0.401" stop-color="#f5d450"/>
      <stop offset="0.428" stop-color="#ffd34e"/>
      <stop offset="0.631" stop-color="#ffd14d"/>
      <stop offset="0.742" stop-color="#fdc94a"/>
      <stop offset="0.832" stop-color="#fbbb46"/>
      <stop offset="0.91" stop-color="#f8a73f"/>
      <stop offset="0.979" stop-color="#f48e36"/>
      <stop offset="0.981" stop-color="#f48e36"/>
    </linearGradient>
    <linearGradient id="linear-gradient-3" x1="46.843" y1="128.5" x2="346.044" y2="128.5" gradientUnits="userSpaceOnUse">
      <stop offset="0" stop-color="#c8db57"/>
      <stop offset="0.178" stop-color="#cadb57"/>
      <stop offset="0.242" stop-color="#d1da56"/>
      <stop offset="0.288" stop-color="#dcd854"/>
      <stop offset="0.325" stop-color="#edd651"/>
      <stop offset="0.351" stop-color="#ffd34e"/>
      <stop offset="0.54" stop-color="#ffd14d"/>
      <stop offset="0.608" stop-color="#feca4b"/>
      <stop offset="0.657" stop-color="#fcbf47"/>
      <stop offset="0.696" stop-color="#f9ae41"/>
      <stop offset="0.729" stop-color="#f69839"/>
      <stop offset="0.741" stop-color="#f48e36"/>
    </linearGradient>
    <linearGradient id="linear-gradient-4" x1="46.551" y1="174.164" x2="381.807" y2="174.164" gradientUnits="userSpaceOnUse">
      <stop offset="0" stop-color="#c8db57"/>
      <stop offset="0.169" stop-color="#cadb57"/>
      <stop offset="0.23" stop-color="#d1da56"/>
      <stop offset="0.274" stop-color="#dcd854"/>
      <stop offset="0.309" stop-color="#edd651"/>
      <stop offset="0.334" stop-color="#ffd34e"/>
      <stop offset="0.516" stop-color="#ffd14d"/>
      <stop offset="0.581" stop-color="#feca4b"/>
      <stop offset="0.628" stop-color="#fcbf47"/>
      <stop offset="0.666" stop-color="#f9ae41"/>
      <stop offset="0.698" stop-color="#f69839"/>
      <stop offset="0.709" stop-color="#f48e36"/>
      <stop offset="0.804" stop-color="#f38b36"/>
      <stop offset="0.867" stop-color="#f28237"/>
      <stop offset="0.92" stop-color="#ef7338"/>
      <stop offset="0.969" stop-color="#eb5e3a"/>
      <stop offset="1" stop-color="#e74c3c"/>
    </linearGradient>
    <linearGradient id="linear-gradient-5" x1="53.614" y1="219.828" x2="440.028" y2="219.828" gradientUnits="userSpaceOnUse">
      <stop offset="0" stop-color="#c8db57"/>
      <stop offset="0.148" stop-color="#cadb57"/>
      <stop offset="0.201" stop-color="#d1da56"/>
      <stop offset="0.239" stop-color="#dcd854"/>
      <stop offset="0.269" stop-color="#edd651"/>
      <stop offset="0.291" stop-color="#ffd34e"/>
      <stop offset="0.469" stop-color="#ffd14d"/>
      <stop offset="0.533" stop-color="#feca4b"/>
      <stop offset="0.579" stop-color="#fcbf47"/>
      <stop offset="0.616" stop-color="#f9ae41"/>
      <stop offset="0.647" stop-color="#f69839"/>
      <stop offset="0.658" stop-color="#f48e36"/>
      <stop offset="0.773" stop-color="#f48c36"/>
      <stop offset="0.814" stop-color="#f28537"/>
      <stop offset="0.844" stop-color="#f07938"/>
      <stop offset="0.868" stop-color="#ed6939"/>
      <stop offset="0.888" stop-color="#e8533b"/>
      <stop offset="0.894" stop-color="#e74c3c"/>
    </linearGradient>
  </defs>
  <title>Artboard 1</title>
  <g>
    <line x1="25.75" y1="15.5" x2="25.75" y2="254.5" fill="none" stroke="#1c425c" stroke-linecap="round" stroke-miterlimit="10" stroke-width="5"/>
    <line x1="454.25" y1="254.5" x2="26.25" y2="254.5" fill="none" stroke="#1c425c" stroke-linecap="round" stroke-miterlimit="10" stroke-width="5"/>
  </g>
  <g>
    <rect x="43" y="24" width="182" height="26.343" rx="3" ry="3" fill="url(#linear-gradient)"/>
    <path d="M222,25a2,2,0,0,1,2,2V47.343a2,2,0,0,1-2,2H46a2,2,0,0,1-2-2V27a2,2,0,0,1,2-2H222m0-2H46a4,4,0,0,0-4,4V47.343a4,4,0,0,0,4,4H222a4,4,0,0,0,4-4V27a4,4,0,0,0-4-4Z" fill="#1c425c"/>
  </g>
  <g>
    <rect x="43" y="69.664" width="226" height="26.343" rx="3" ry="3" fill="url(#linear-gradient-2)"/>
    <path d="M266,70.664a2,2,0,0,1,2,2V93.007a2,2,0,0,1-2,2H46a2,2,0,0,1-2-2V72.664a2,2,0,0,1,2-2H266m0-2H46a4,4,0,0,0-4,4V93.007a4,4,0,0,0,4,4H266a4,4,0,0,0,4-4V72.664a4,4,0,0,0-4-4Z" fill="#1c425c"/>
  </g>
  <g>
    <rect x="43" y="115.328" width="303" height="26.344" rx="3" ry="3" fill="url(#linear-gradient-3)"/>
    <path d="M343,116.328a2,2,0,0,1,2,2v20.344a2,2,0,0,1-2,2H46a2,2,0,0,1-2-2V118.328a2,2,0,0,1,2-2H343m0-2H46a4,4,0,0,0-4,4v20.344a4,4,0,0,0,4,4H343a4,4,0,0,0,4-4V118.328a4,4,0,0,0-4-4Z" fill="#1c425c"/>
  </g>
  <g>
    <rect x="43" y="160.992" width="358" height="26.344" rx="3" ry="3" fill="url(#linear-gradient-4)"/>
    <path d="M398,161.993a2,2,0,0,1,2,2v20.343a2,2,0,0,1-2,2H46a2,2,0,0,1-2-2V163.993a2,2,0,0,1,2-2H398m0-2H46a4,4,0,0,0-4,4v20.343a4,4,0,0,0,4,4H398a4,4,0,0,0,4-4V163.993a4,4,0,0,0-4-4Z" fill="#1c425c"/>
  </g>
  <g>
    <rect x="43" y="206.656" width="402" height="26.344" rx="3" ry="3" fill="url(#linear-gradient-5)"/>
    <path d="M442,207.657a2,2,0,0,1,2,2V230a2,2,0,0,1-2,2H46a2,2,0,0,1-2-2V209.657a2,2,0,0,1,2-2H442m0-2H46a4,4,0,0,0-4,4V230a4,4,0,0,0,4,4H442a4,4,0,0,0,4-4V209.657a4,4,0,0,0-4-4Z" fill="#1c425c"/>
  </g>
  <line x1="42.5" y1="256.5" x2="42.5" y2="268.5" fill="none" stroke="#1c425c" stroke-linecap="round" stroke-miterlimit="10" stroke-width="5"/>
  <g>
    <line x1="42.5" y1="256.5" x2="42.5" y2="268.5" fill="none" stroke="#1c425c" stroke-linecap="round" stroke-miterlimit="10" stroke-width="5"/>
    <line x1="87.333" y1="256.5" x2="87.333" y2="268.5" fill="none" stroke="#1c425c" stroke-linecap="round" stroke-miterlimit="10" stroke-width="5"/>
    <line x1="132.167" y1="256.5" x2="132.167" y2="268.5" fill="none" stroke="#1c425c" stroke-linecap="round" stroke-miterlimit="10" stroke-width="5"/>
    <line x1="177" y1="256.5" x2="177" y2="268.5" fill="none" stroke="#1c425c" stroke-linecap="round" stroke-miterlimit="10" stroke-width="5"/>
    <line x1="221.833" y1="256.5" x2="221.833" y2="268.5" fill="none" stroke="#1c425c" stroke-linecap="round" stroke-miterlimit="10" stroke-width="5"/>
    <line x1="266.667" y1="256.5" x2="266.667" y2="268.5" fill="none" stroke="#1c425c" stroke-linecap="round" stroke-miterlimit="10" stroke-width="5"/>
    <line x1="311.5" y1="256.5" x2="311.5" y2="268.5" fill="none" stroke="#1c425c" stroke-linecap="round" stroke-miterlimit="10" stroke-width="5"/>
    <line x1="356.333" y1="256.5" x2="356.333" y2="268.5" fill="none" stroke="#1c425c" stroke-linecap="round" stroke-miterlimit="10" stroke-width="5"/>
    <line x1="401.167" y1="256.5" x2="401.167" y2="268.5" fill="none" stroke="#1c425c" stroke-linecap="round" stroke-miterlimit="10" stroke-width="5"/>
    <line x1="446" y1="256.5" x2="446" y2="268.5" fill="none" stroke="#1c425c" stroke-linecap="round" stroke-miterlimit="10" stroke-width="5"/>
  </g>
</svg>
