<svg id="Layer_1" data-name="Layer 1" xmlns="http://www.w3.org/2000/svg" viewBox="0 0 480 280">
  <title>Artboard 1 copy 2</title>
  <g>
    <g>
      <path d="M36,23H210c42,0,46,73,95,73H433" fill="none" stroke="#1c425c" stroke-linecap="round" stroke-miterlimit="10" stroke-width="8"/>
      <path d="M36,257H210c42,0,46-73,95-73H433" fill="none" stroke="#1c425c" stroke-linecap="round" stroke-miterlimit="10" stroke-width="8"/>
    </g>
    <g>
      <line x1="29" y1="53" x2="166.406" y2="53" fill="none" stroke="#c8db57" stroke-linecap="round" stroke-miterlimit="10" stroke-width="8"/>
      <polygon points="189 53 157.162 66.009 164.717 53 157.162 39.994 189 53" fill="#c8db57"/>
    </g>
    <g>
      <line x1="17" y1="104" x2="154.406" y2="104" fill="none" stroke="#e74c3c" stroke-linecap="round" stroke-miterlimit="10" stroke-width="8"/>
      <polygon points="177 104 145.162 117.009 152.717 104 145.162 90.994 177 104" fill="#e74c3c"/>
    </g>
    <g>
      <line x1="21" y1="153" x2="158.406" y2="153" fill="none" stroke="#f48e36" stroke-linecap="round" stroke-miterlimit="10" stroke-width="8"/>
      <polygon points="181 153 149.162 166.009 156.717 153 149.162 139.994 181 153" fill="#f48e36"/>
    </g>
    <g>
      <line x1="71" y1="79" x2="208.406" y2="79" fill="none" stroke="#ffd34e" stroke-linecap="round" stroke-miterlimit="10" stroke-width="8"/>
      <polygon points="231 79 199.162 92.009 206.717 79 199.162 65.994 231 79" fill="#ffd34e"/>
    </g>
    <g>
      <line x1="95" y1="177" x2="232.406" y2="177" fill="none" stroke="#e74c3c" stroke-linecap="round" stroke-miterlimit="10" stroke-width="8"/>
      <polygon points="255 177 223.162 190.009 230.717 177 223.162 163.994 255 177" fill="#e74c3c"/>
    </g>
    <g>
      <line x1="72" y1="207" x2="209.406" y2="207" fill="none" stroke="#c8db57" stroke-linecap="round" stroke-miterlimit="10" stroke-width="8"/>
      <polygon points="232 207 200.162 220.009 207.717 207 200.162 193.994 232 207" fill="#c8db57"/>
    </g>
    <g>
      <line x1="88" y1="128" x2="225.406" y2="128" fill="none" stroke="#ffd34e" stroke-linecap="round" stroke-miterlimit="10" stroke-width="8"/>
      <polygon points="248 128 216.162 141.009 223.717 128 216.162 114.994 248 128" fill="#ffd34e"/>
    </g>
    <g>
      <line x1="10" y1="230" x2="147.406" y2="230" fill="none" stroke="#ffd34e" stroke-linecap="round" stroke-miterlimit="10" stroke-width="8"/>
      <polygon points="170 230 138.162 243.009 145.717 230 138.162 216.994 170 230" fill="#ffd34e"/>
    </g>
    <g>
      <line x1="292" y1="118" x2="429.406" y2="118" fill="none" stroke="#c8db57" stroke-linecap="round" stroke-miterlimit="10" stroke-width="8"/>
      <polygon points="452 118 420.162 131.009 427.717 118 420.162 104.994 452 118" fill="#c8db57"/>
    </g>
    <g>
      <line x1="256" y1="143" x2="393.406" y2="143" fill="none" stroke="#c8db57" stroke-linecap="round" stroke-miterlimit="10" stroke-width="8"/>
      <polygon points="416 143 384.162 156.009 391.717 143 384.162 129.994 416 143" fill="#c8db57"/>
    </g>
    <g>
      <line x1="314" y1="164" x2="451.406" y2="164" fill="none" stroke="#c8db57" stroke-linecap="round" stroke-miterlimit="10" stroke-width="8"/>
      <polygon points="474 164 442.162 177.009 449.717 164 442.162 150.994 474 164" fill="#c8db57"/>
    </g>
  </g>
</svg>
