<svg id="Layer_1" data-name="Layer 1" xmlns="http://www.w3.org/2000/svg" viewBox="0 0 480 280">
  <title>Artboard 1 copy</title>
  <rect x="176" y="16" width="201" height="83" rx="12" ry="12" fill="#fff" stroke="#1c425c" stroke-linecap="round" stroke-miterlimit="10" stroke-width="2"/>
  <g>
    <rect x="11" y="119.628" width="149.892" height="30.744" rx="3" ry="3" fill="#e74c3c"/>
    <path d="M157.892,120.628a2,2,0,0,1,2,2v24.744a2,2,0,0,1-2,2H14a2,2,0,0,1-2-2V122.628a2,2,0,0,1,2-2H157.892m0-2H14a4,4,0,0,0-4,4v24.744a4,4,0,0,0,4,4H157.892a4,4,0,0,0,4-4V122.628a4,4,0,0,0-4-4Z" fill="#1c425c"/>
    <rect x="12" y="120.628" width="147.892" height="28.743" rx="2" ry="2" fill="#e74c3c"/>
    <rect x="12" y="120.628" width="147.892" height="28.743" rx="2" ry="2" fill="#c8db57"/>
  </g>
  <g>
    <rect x="165.054" y="119.628" width="149.893" height="30.744" rx="3" ry="3" fill="#e74c3c"/>
    <path d="M311.946,120.628a2,2,0,0,1,2,2v24.744a2,2,0,0,1-2,2H168.054a2,2,0,0,1-2-2V122.628a2,2,0,0,1,2-2H311.946m0-2H168.054a4,4,0,0,0-4,4v24.744a4,4,0,0,0,4,4H311.946a4,4,0,0,0,4-4V122.628a4,4,0,0,0-4-4Z" fill="#1c425c"/>
    <rect x="166.054" y="120.628" width="147.892" height="28.743" rx="2" ry="2" fill="#e74c3c"/>
    <rect x="166.054" y="120.628" width="147.892" height="28.743" rx="2" ry="2" fill="#c8db57"/>
  </g>
  <g>
    <rect x="319.108" y="119.628" width="149.892" height="30.744" rx="3" ry="3" fill="#e74c3c"/>
    <path d="M466,120.628a2,2,0,0,1,2,2v24.744a2,2,0,0,1-2,2H322.108a2,2,0,0,1-2-2V122.628a2,2,0,0,1,2-2H466m0-2H322.108a4,4,0,0,0-4,4v24.744a4,4,0,0,0,4,4H466a4,4,0,0,0,4-4V122.628a4,4,0,0,0-4-4Z" fill="#1c425c"/>
    <rect x="320.108" y="120.628" width="147.892" height="28.743" rx="2" ry="2" fill="#e74c3c"/>
    <rect x="320.108" y="120.628" width="147.892" height="28.743" rx="2" ry="2" fill="#e74c3c"/>
  </g>
  <text transform="translate(229.286 144.214)" font-size="25" fill="#fff" font-family="FontAwesome, FontAwesome"></text>
  <text transform="translate(383.054 144.109)" font-size="22" fill="#fff" font-family="FontAwesome, FontAwesome"></text>
  <text transform="translate(75.231 144.214)" font-size="25" fill="#fff" font-family="FontAwesome, FontAwesome"></text>
  <g>
    <g>
      <line x1="192.375" y1="24.83" x2="192.375" y2="84.673" fill="none" stroke="#1c425c" stroke-linecap="round" stroke-miterlimit="10" stroke-width="2"/>
      <line x1="360.625" y1="84.673" x2="192.571" y2="84.673" fill="none" stroke="#1c425c" stroke-linecap="round" stroke-miterlimit="10" stroke-width="2"/>
    </g>
    <rect x="198.756" y="47.6" width="72.247" height="11.129" rx="2" ry="2" fill="#c8db57"/>
    <rect x="253.07" y="-24.68" width="11.129" height="119.758" rx="2" ry="2" transform="translate(293.834 -223.435) rotate(90)" fill="#ffd34e"/>
    <rect x="263.868" y="0.452" width="11.129" height="141.354" rx="2" ry="2" transform="translate(340.562 -198.303) rotate(90)" fill="#e74c3c"/>
    <line x1="198.952" y1="85.458" x2="198.952" y2="90.17" fill="none" stroke="#1c425c" stroke-linecap="round" stroke-miterlimit="10" stroke-width="1.963"/>
    <g>
      <line x1="198.952" y1="85.458" x2="198.952" y2="90.17" fill="none" stroke="#1c425c" stroke-linecap="round" stroke-miterlimit="10" stroke-width="2"/>
      <line x1="216.556" y1="85.458" x2="216.556" y2="90.17" fill="none" stroke="#1c425c" stroke-linecap="round" stroke-miterlimit="10" stroke-width="2"/>
      <line x1="234.159" y1="85.458" x2="234.159" y2="90.17" fill="none" stroke="#1c425c" stroke-linecap="round" stroke-miterlimit="10" stroke-width="2"/>
      <line x1="251.763" y1="85.458" x2="251.763" y2="90.17" fill="none" stroke="#1c425c" stroke-linecap="round" stroke-miterlimit="10" stroke-width="2"/>
      <line x1="269.367" y1="85.458" x2="269.367" y2="90.17" fill="none" stroke="#1c425c" stroke-linecap="round" stroke-miterlimit="10" stroke-width="2"/>
      <line x1="286.971" y1="85.458" x2="286.971" y2="90.17" fill="none" stroke="#1c425c" stroke-linecap="round" stroke-miterlimit="10" stroke-width="2"/>
      <line x1="304.574" y1="85.458" x2="304.574" y2="90.17" fill="none" stroke="#1c425c" stroke-linecap="round" stroke-miterlimit="10" stroke-width="2"/>
      <line x1="322.178" y1="85.458" x2="322.178" y2="90.17" fill="none" stroke="#1c425c" stroke-linecap="round" stroke-miterlimit="10" stroke-width="2"/>
      <line x1="339.782" y1="85.458" x2="339.782" y2="90.17" fill="none" stroke="#1c425c" stroke-linecap="round" stroke-miterlimit="10" stroke-width="2"/>
      <line x1="357.386" y1="85.458" x2="357.386" y2="90.17" fill="none" stroke="#1c425c" stroke-linecap="round" stroke-miterlimit="10" stroke-width="2"/>
    </g>
  </g>
  <g>
    <path d="M377,58c34.159,0,39.451,35.45,39.663,55.9" fill="none" stroke="#1c425c" stroke-linecap="round" stroke-miterlimit="10" stroke-width="2"/>
    <polygon points="416 128 408.664 107.795 416.601 112.835 424.911 108.439 416 128" fill="#1c425c"/>
  </g>
  <g>
    <rect x="12" y="172" width="201" height="89" rx="12" ry="12" fill="#fff" stroke="#1c425c" stroke-linecap="round" stroke-miterlimit="10" stroke-width="2"/>
    <g>
      <g>
        <line x1="31.053" y1="181.33" x2="31.053" y2="246.173" fill="none" stroke="#1c425c" stroke-linecap="round" stroke-miterlimit="10" stroke-width="2"/>
        <line x1="199.303" y1="246.173" x2="31.249" y2="246.173" fill="none" stroke="#1c425c" stroke-linecap="round" stroke-miterlimit="10" stroke-width="2"/>
      </g>
      <line x1="37.63" y1="246.958" x2="37.63" y2="251.67" fill="none" stroke="#1c425c" stroke-linecap="round" stroke-miterlimit="10" stroke-width="2"/>
      <g>
        <line x1="37.63" y1="246.958" x2="37.63" y2="251.67" fill="none" stroke="#1c425c" stroke-linecap="round" stroke-miterlimit="10" stroke-width="2"/>
        <line x1="55.234" y1="246.958" x2="55.234" y2="251.67" fill="none" stroke="#1c425c" stroke-linecap="round" stroke-miterlimit="10" stroke-width="2"/>
        <line x1="72.837" y1="246.958" x2="72.837" y2="251.67" fill="none" stroke="#1c425c" stroke-linecap="round" stroke-miterlimit="10" stroke-width="2"/>
        <line x1="90.441" y1="246.958" x2="90.441" y2="251.67" fill="none" stroke="#1c425c" stroke-linecap="round" stroke-miterlimit="10" stroke-width="2"/>
        <line x1="108.045" y1="246.958" x2="108.045" y2="251.67" fill="none" stroke="#1c425c" stroke-linecap="round" stroke-miterlimit="10" stroke-width="2"/>
        <line x1="125.649" y1="246.958" x2="125.649" y2="251.67" fill="none" stroke="#1c425c" stroke-linecap="round" stroke-miterlimit="10" stroke-width="2"/>
        <line x1="143.252" y1="246.958" x2="143.252" y2="251.67" fill="none" stroke="#1c425c" stroke-linecap="round" stroke-miterlimit="10" stroke-width="2"/>
        <line x1="160.856" y1="246.958" x2="160.856" y2="251.67" fill="none" stroke="#1c425c" stroke-linecap="round" stroke-miterlimit="10" stroke-width="2"/>
        <line x1="178.46" y1="246.958" x2="178.46" y2="251.67" fill="none" stroke="#1c425c" stroke-linecap="round" stroke-miterlimit="10" stroke-width="2"/>
        <line x1="196.064" y1="246.958" x2="196.064" y2="251.67" fill="none" stroke="#1c425c" stroke-linecap="round" stroke-miterlimit="10" stroke-width="2"/>
      </g>
      <g>
        <line x1="25.697" y1="241.33" x2="30.409" y2="241.33" fill="none" stroke="#1c425c" stroke-linecap="round" stroke-miterlimit="10" stroke-width="2"/>
        <line x1="25.697" y1="234.997" x2="30.409" y2="234.997" fill="none" stroke="#1c425c" stroke-linecap="round" stroke-miterlimit="10" stroke-width="2"/>
        <line x1="25.697" y1="228.663" x2="30.409" y2="228.663" fill="none" stroke="#1c425c" stroke-linecap="round" stroke-miterlimit="10" stroke-width="2"/>
        <line x1="25.697" y1="222.33" x2="30.409" y2="222.33" fill="none" stroke="#1c425c" stroke-linecap="round" stroke-miterlimit="10" stroke-width="2"/>
        <line x1="25.697" y1="215.997" x2="30.409" y2="215.997" fill="none" stroke="#1c425c" stroke-linecap="round" stroke-miterlimit="10" stroke-width="2"/>
        <line x1="25.697" y1="209.663" x2="30.409" y2="209.663" fill="none" stroke="#1c425c" stroke-linecap="round" stroke-miterlimit="10" stroke-width="2"/>
        <line x1="25.697" y1="203.33" x2="30.409" y2="203.33" fill="none" stroke="#1c425c" stroke-linecap="round" stroke-miterlimit="10" stroke-width="2"/>
        <line x1="25.697" y1="196.997" x2="30.409" y2="196.997" fill="none" stroke="#1c425c" stroke-linecap="round" stroke-miterlimit="10" stroke-width="2"/>
        <line x1="25.697" y1="190.663" x2="30.409" y2="190.663" fill="none" stroke="#1c425c" stroke-linecap="round" stroke-miterlimit="10" stroke-width="2"/>
        <line x1="25.697" y1="184.33" x2="30.409" y2="184.33" fill="none" stroke="#1c425c" stroke-linecap="round" stroke-miterlimit="10" stroke-width="2"/>
      </g>
      <g>
        <polyline points="39.053 230.83 64.053 226.83 94.053 218.83 122.053 204.83 154.053 218.83 188.053 212.83" fill="none" stroke="#1c425c" stroke-linecap="round" stroke-miterlimit="10" stroke-width="2"/>
        <circle cx="39.053" cy="230.83" r="2" fill="#c8db57" stroke="#1c425c" stroke-linecap="round" stroke-miterlimit="10" stroke-width="2"/>
        <circle cx="64.053" cy="226.83" r="2" fill="#c8db57" stroke="#1c425c" stroke-linecap="round" stroke-miterlimit="10" stroke-width="2"/>
        <circle cx="94.053" cy="218.83" r="2" fill="#c8db57" stroke="#1c425c" stroke-linecap="round" stroke-miterlimit="10" stroke-width="2"/>
        <circle cx="122.053" cy="204.83" r="2" fill="#c8db57" stroke="#1c425c" stroke-linecap="round" stroke-miterlimit="10" stroke-width="2"/>
        <circle cx="154.053" cy="218.83" r="2" fill="#c8db57" stroke="#1c425c" stroke-linecap="round" stroke-miterlimit="10" stroke-width="2"/>
        <circle cx="188.053" cy="212.83" r="2" fill="#c8db57" stroke="#1c425c" stroke-linecap="round" stroke-miterlimit="10" stroke-width="2"/>
      </g>
      <g>
        <polyline points="40.053 203.83 64.053 213.83 94.053 202.83 122.053 214.83 154.053 201.83 188.053 197.83" fill="none" stroke="#1c425c" stroke-linecap="round" stroke-miterlimit="10" stroke-width="2"/>
        <circle cx="40.053" cy="203.83" r="2" fill="#ffd34e" stroke="#1c425c" stroke-linecap="round" stroke-miterlimit="10" stroke-width="2"/>
        <circle cx="64.053" cy="213.83" r="2" fill="#ffd34e" stroke="#1c425c" stroke-linecap="round" stroke-miterlimit="10" stroke-width="2"/>
        <circle cx="94.053" cy="202.83" r="2" fill="#ffd34e" stroke="#1c425c" stroke-linecap="round" stroke-miterlimit="10" stroke-width="2"/>
        <circle cx="122.053" cy="214.83" r="2" fill="#ffd34e" stroke="#1c425c" stroke-linecap="round" stroke-miterlimit="10" stroke-width="2"/>
        <circle cx="154.053" cy="201.83" r="2" fill="#ffd34e" stroke="#1c425c" stroke-linecap="round" stroke-miterlimit="10" stroke-width="2"/>
        <circle cx="188.053" cy="197.83" r="2" fill="#ffd34e" stroke="#1c425c" stroke-linecap="round" stroke-miterlimit="10" stroke-width="2"/>
      </g>
      <g>
        <polyline points="39.053 230.83 64.053 226.83 94.053 218.83 122.053 204.83 154.053 218.83 188.053 212.83" fill="none" stroke="#1c425c" stroke-linecap="round" stroke-miterlimit="10" stroke-width="2"/>
        <circle cx="39.053" cy="230.83" r="2" fill="#e74c3c" stroke="#1c425c" stroke-linecap="round" stroke-miterlimit="10" stroke-width="2"/>
        <circle cx="64.053" cy="226.83" r="2" fill="#e74c3c" stroke="#1c425c" stroke-linecap="round" stroke-miterlimit="10" stroke-width="2"/>
        <circle cx="94.053" cy="218.83" r="2" fill="#e74c3c" stroke="#1c425c" stroke-linecap="round" stroke-miterlimit="10" stroke-width="2"/>
        <circle cx="122.053" cy="204.83" r="2" fill="#e74c3c" stroke="#1c425c" stroke-linecap="round" stroke-miterlimit="10" stroke-width="2"/>
        <circle cx="154.053" cy="218.83" r="2" fill="#e74c3c" stroke="#1c425c" stroke-linecap="round" stroke-miterlimit="10" stroke-width="2"/>
        <circle cx="188.053" cy="212.83" r="2" fill="#e74c3c" stroke="#1c425c" stroke-linecap="round" stroke-miterlimit="10" stroke-width="2"/>
      </g>
      <g>
        <polyline points="40.053 188.83 64.053 195.83 94.053 190.83 122.053 185.83 154.053 187.83 188.053 185.83" fill="none" stroke="#1c425c" stroke-linecap="round" stroke-miterlimit="10" stroke-width="2"/>
        <circle cx="40.053" cy="188.83" r="2" fill="#c8db57" stroke="#1c425c" stroke-linecap="round" stroke-miterlimit="10" stroke-width="2"/>
        <circle cx="64.053" cy="195.83" r="2" fill="#c8db57" stroke="#1c425c" stroke-linecap="round" stroke-miterlimit="10" stroke-width="2"/>
        <circle cx="94.053" cy="190.83" r="2" fill="#c8db57" stroke="#1c425c" stroke-linecap="round" stroke-miterlimit="10" stroke-width="2"/>
        <circle cx="122.053" cy="185.83" r="2" fill="#c8db57" stroke="#1c425c" stroke-linecap="round" stroke-miterlimit="10" stroke-width="2"/>
        <circle cx="154.053" cy="187.83" r="2" fill="#c8db57" stroke="#1c425c" stroke-linecap="round" stroke-miterlimit="10" stroke-width="2"/>
        <circle cx="188.053" cy="185.83" r="2" fill="#c8db57" stroke="#1c425c" stroke-linecap="round" stroke-miterlimit="10" stroke-width="2"/>
      </g>
    </g>
    <g>
      <path d="M213.053,216.83c30.205,0,85.5-19.965,115.354-60.921" fill="none" stroke="#1c425c" stroke-linecap="round" stroke-miterlimit="10" stroke-width="2"/>
      <polygon points="336 144 331.998 165.12 327.744 156.735 318.355 156.275 336 144" fill="#1c425c"/>
    </g>
  </g>
</svg>
