<?xml version="1.0" encoding="utf-8"?>
<!-- Generator: Adobe Illustrator 21.0.2, SVG Export Plug-In . SVG Version: 6.00 Build 0)  -->
<svg version="1.1" xmlns="http://www.w3.org/2000/svg" xmlns:xlink="http://www.w3.org/1999/xlink" x="0px" y="0px"
	 viewBox="0 0 400 400" style="enable-background:new 0 0 400 400;" xml:space="preserve">
<style type="text/css">
	.st0{fill:#FFD34E;stroke:#1C425C;stroke-width:8;stroke-linecap:round;stroke-linejoin:round;stroke-miterlimit:10;}
	.st1{fill:#FFFAD5;stroke:#1C425C;stroke-width:8;stroke-linecap:round;stroke-linejoin:round;stroke-miterlimit:10;}
	.st2{fill:#DB9E36;stroke:#1C425C;stroke-width:8;stroke-linecap:round;stroke-linejoin:round;stroke-miterlimit:10;}
	.st3{fill:#BD4932;stroke:#1C425C;stroke-width:8;stroke-linecap:round;stroke-linejoin:round;stroke-miterlimit:10;}
	.st4{fill:none;stroke:#1C425C;stroke-width:8;stroke-linecap:round;stroke-linejoin:round;stroke-miterlimit:10;}
	.st5{fill:#C9DE55;stroke:#1C425C;stroke-width:8;stroke-linecap:round;stroke-linejoin:round;stroke-miterlimit:10;}
	.st6{fill:#A6D3EB;stroke:#1C425C;stroke-width:8;stroke-linecap:round;stroke-linejoin:round;stroke-miterlimit:10;}
	.st7{fill:#1C425C;}
	.st8{fill:none;stroke:#FF530D;stroke-width:8;stroke-linejoin:round;}
	.st9{fill:none;stroke:#FF530D;stroke-width:8;stroke-linejoin:round;stroke-dasharray:20.1656,20.1656;}
	.st10{fill:none;stroke:#FF530D;stroke-width:8;stroke-linejoin:round;stroke-dasharray:18.0259,18.0259;}
	.st11{fill:#FF530D;stroke:#1C425C;stroke-width:8;stroke-linecap:round;stroke-linejoin:round;stroke-miterlimit:10;}
	.st12{fill:none;stroke:#1C425C;stroke-width:8;stroke-linecap:round;stroke-linejoin:round;}
	.st13{fill:none;stroke:#A6D3EB;stroke-width:8;stroke-linejoin:round;stroke-miterlimit:10;stroke-dasharray:8;}
	.st14{fill:none;stroke:#A6D3EB;stroke-width:8;stroke-linejoin:round;}
	.st15{fill:none;stroke:#A6D3EB;stroke-width:8;stroke-linejoin:round;stroke-dasharray:7.9701,7.9701;}
	.st16{fill:#A6D3EB;}
	.st17{fill:#BD4932;}
	.st18{fill:#FF530D;}
	.st19{fill:#DB9E36;}
	.st20{fill:#FFD34E;}
	.st21{fill:#FFFAD5;}
	.st22{fill:#C9DE55;}
	.st23{fill:#8E2800;}
	.st24{fill:#B64926;}
	.st25{fill:#FFF0A5;}
	.st26{fill:#A9CF54;}
	.st27{fill:#F1F7E5;}
	.st28{fill:#0078A4;}
	.st29{fill:#1C5379;}
	.st30{fill:#FF6F22;}
	.st31{fill:#FFF8A4;}
	.st32{fill:#96CA2D;}
	.st33{fill:#F24C27;}
	.st34{fill:#7FC6BC;}
	.st35{fill:#037E8C;}
	.st36{fill:#024959;}
	.st37{fill:#404040;}
	.st38{fill:#F48E36;}
	.st39{fill:#F4A23E;}
	.st40{fill:#94399E;}
	.st41{fill:#4CBBF3;}
	.st42{fill:#265CC9;}
	.st43{fill:#002A4A;}
	.st44{fill:#F5A503;}
	.st45{fill:#E9F1DF;}
	.st46{fill:#4AD9D9;}
	.st47{fill:#36B1BF;}
	.st48{fill:#17607D;}
	.st49{fill:#FFF1CE;}
	.st50{fill:#FF9311;}
	.st51{fill:#D64700;}
	.st52{fill:#4AD9D9;stroke:#1C425C;stroke-width:8;stroke-linecap:round;stroke-linejoin:round;stroke-miterlimit:10;}
	.st53{fill:#FF9311;stroke:#1C425C;stroke-width:8;stroke-linecap:round;stroke-linejoin:round;stroke-miterlimit:10;}
	.st54{fill:#94399E;stroke:#1C425C;stroke-width:8;stroke-linecap:round;stroke-linejoin:round;stroke-miterlimit:10;}
	.st55{fill:#F48E36;stroke:#1C425C;stroke-width:8;stroke-linecap:round;stroke-linejoin:round;stroke-miterlimit:10;}
	.st56{fill:#36B1BF;stroke:#1C425C;stroke-width:8;stroke-linecap:round;stroke-linejoin:round;stroke-miterlimit:10;}
	.st57{fill:#FFF1CE;stroke:#1C425C;stroke-width:8;stroke-linecap:round;stroke-linejoin:round;stroke-miterlimit:10;}
	.st58{fill:none;stroke:#7F3F98;stroke-width:8;stroke-linejoin:round;}
	.st59{fill:none;stroke:#7F3F98;stroke-width:8;stroke-linejoin:round;stroke-dasharray:20.1656,20.1656;}
	.st60{fill:none;stroke:#7F3F98;stroke-width:8;stroke-linejoin:round;stroke-dasharray:18.0259,18.0259;}
	.st61{fill:none;stroke:#94399E;stroke-width:8;stroke-linejoin:round;stroke-miterlimit:10;stroke-dasharray:8;}
	.st62{fill:none;stroke:#94399E;stroke-width:8;stroke-linejoin:round;}
	.st63{fill:none;stroke:#94399E;stroke-width:8;stroke-linejoin:round;stroke-dasharray:7.9701,7.9701;}
	.st64{fill:#D64700;stroke:#1C425C;stroke-width:8;stroke-linecap:round;stroke-linejoin:round;stroke-miterlimit:10;}
	.st65{clip-path:url(#SVGID_2_);}
	.st66{fill:#FFFFFF;stroke:#1C425C;stroke-width:8;stroke-linecap:round;stroke-linejoin:round;stroke-miterlimit:10;}
</style>
<g id="Layer_1">
</g>
<g id="Revised_color_icons">
	<path class="st52" d="M382.1,259.5c6.1-18.7,9.4-38.7,9.4-59.5c0-0.5,0-0.9,0-1.4l-25.1-10.8c-0.5-6.4-1.3-12.8-2.5-19l21.3-17.7
		c-5.3-20-13.7-38.8-24.8-55.7l-27,4.5c-4.1-5.4-8.5-10.6-13.2-15.5l8.3-26.3c-14.9-13.5-32-24.7-50.6-33l-20.3,18.4
		c-6.6-2.4-13.4-4.4-20.3-6l-7.2-26.5c-9.8-1.6-19.9-2.4-30.1-2.4s-20.3,0.8-30.1,2.4l-7.2,26.5c-6.9,1.6-13.7,3.6-20.3,6L122.1,25
		c-18.6,8.3-35.7,19.5-50.6,33l8.3,26.3c-4.7,4.9-9.1,10.1-13.2,15.5l-27-4.5c-11,16.9-19.5,35.6-24.8,55.7l21.3,17.7
		c-1.2,6.2-2,12.5-2.5,19L8.5,198.6c0,0.5,0,0.9,0,1.4c0,20.8,3.3,40.8,9.4,59.5l27.5,3.4c2.2,5.5,4.8,10.9,7.6,16.1l-15.3,22.8
		c11.1,17.7,25.1,33.5,41.2,46.6l24.9-12c4.5,3.2,9.2,6.2,14.1,9l-0.6,27.5c18.6,8.9,38.8,14.9,60.1,17.4l14.5-23.6
		c2.7,0.1,5.4,0.2,8.1,0.2s5.5-0.1,8.1-0.2l14.5,23.6c21.3-2.5,41.5-8.5,60.1-17.4l-0.6-27.5c4.9-2.8,9.6-5.7,14.1-9l24.9,12
		c16.1-13.2,30.1-28.9,41.2-46.6L347,278.9c2.8-5.2,5.3-10.6,7.6-16.1L382.1,259.5z M200,348.9c-82.2,0-148.9-66.7-148.9-148.9
		S117.8,51.1,200,51.1S348.9,117.8,348.9,200S282.2,348.9,200,348.9z"/>
	<g>
		<g>
			<path class="st54" d="M255.2,133.3v105h-26.7v-105c0-15.7-12.7-28.5-28.5-28.5c-15.7,0-28.5,12.7-28.5,28.5v105h-26.7v-105
				c0-30.5,24.7-55.2,55.2-55.2C230.5,78.1,255.2,102.8,255.2,133.3z"/>
			<rect x="129.5" y="172.2" class="st54" width="141.1" height="126.4"/>
		</g>
		<path class="st66" d="M208,233.8l10.6,38.7h-37.3l10.6-38.7c-6.3-3-10.6-9.4-10.6-16.9c0-10.3,8.3-18.7,18.7-18.7
			s18.7,8.4,18.7,18.7C218.7,224.3,214.3,230.7,208,233.8z"/>
	</g>
</g>
</svg>
