<?xml version="1.0" encoding="utf-8"?>
<!-- Generator: Adobe Illustrator 19.2.1, SVG Export Plug-In . SVG Version: 6.00 Build 0)  -->
<svg version="1.1" xmlns="http://www.w3.org/2000/svg" xmlns:xlink="http://www.w3.org/1999/xlink" x="0px" y="0px"
	 viewBox="0 0 336.5 366" style="enable-background:new 0 0 336.5 366;" xml:space="preserve">
<style type="text/css">
	.st0{fill:#FFD34E;stroke:#1C425C;stroke-width:8;stroke-linecap:round;stroke-linejoin:round;stroke-miterlimit:10;}
	.st1{fill:#FFFAD5;stroke:#1C425C;stroke-width:8;stroke-linecap:round;stroke-linejoin:round;stroke-miterlimit:10;}
	.st2{fill:#DB9E36;stroke:#1C425C;stroke-width:8;stroke-linecap:round;stroke-linejoin:round;stroke-miterlimit:10;}
	.st3{fill:#BD4932;stroke:#1C425C;stroke-width:8;stroke-linecap:round;stroke-linejoin:round;stroke-miterlimit:10;}
	.st4{fill:none;stroke:#1C425C;stroke-width:8;stroke-linecap:round;stroke-linejoin:round;stroke-miterlimit:10;}
	.st5{fill:#C9DE55;stroke:#1C425C;stroke-width:8;stroke-linecap:round;stroke-linejoin:round;stroke-miterlimit:10;}
	.st6{fill:#A6D3EB;stroke:#1C425C;stroke-width:8;stroke-linecap:round;stroke-linejoin:round;stroke-miterlimit:10;}
	.st7{fill:#1C425C;}
	.st8{fill:none;stroke:#FF530D;stroke-width:8;stroke-linejoin:round;}
	.st9{fill:none;stroke:#FF530D;stroke-width:8;stroke-linejoin:round;stroke-dasharray:20.1656,20.1656;}
	.st10{fill:none;stroke:#FF530D;stroke-width:8;stroke-linejoin:round;stroke-dasharray:18.0259,18.0259;}
	.st11{fill:#FF530D;stroke:#1C425C;stroke-width:8;stroke-linecap:round;stroke-linejoin:round;stroke-miterlimit:10;}
	.st12{fill:none;stroke:#1C425C;stroke-width:8;stroke-linecap:round;stroke-linejoin:round;}
	.st13{fill:none;stroke:#A6D3EB;stroke-width:8;stroke-linejoin:round;stroke-miterlimit:10;stroke-dasharray:8;}
	.st14{fill:none;stroke:#A6D3EB;stroke-width:8;stroke-linejoin:round;}
	.st15{fill:none;stroke:#A6D3EB;stroke-width:8;stroke-linejoin:round;stroke-dasharray:7.9701,7.9701;}
	.st16{fill:#A6D3EB;}
	.st17{fill:#BD4932;}
	.st18{fill:#FF530D;}
	.st19{fill:#DB9E36;}
	.st20{fill:#FFD34E;}
	.st21{fill:#FFFAD5;}
	.st22{fill:#C9DE55;}
	.st23{fill:#8E2800;}
	.st24{fill:#B64926;}
	.st25{fill:#FFF0A5;}
	.st26{fill:#A9CF54;}
	.st27{fill:#F1F7E5;}
	.st28{fill:#0078A4;}
	.st29{fill:#1C5379;}
	.st30{fill:#FF6F22;}
	.st31{fill:#FFF8A4;}
	.st32{fill:#96CA2D;}
	.st33{fill:#F24C27;}
	.st34{fill:#7FC6BC;}
	.st35{fill:#037E8C;}
	.st36{fill:#024959;}
	.st37{fill:#404040;}
	.st38{fill:#F48E36;}
	.st39{fill:#F4A23E;}
	.st40{fill:#94399E;}
	.st41{fill:#4CBBF3;}
	.st42{fill:#265CC9;}
	.st43{fill:#002A4A;}
	.st44{fill:#F5A503;}
	.st45{fill:#E9F1DF;}
	.st46{fill:#4AD9D9;}
	.st47{fill:#36B1BF;}
	.st48{fill:#17607D;}
	.st49{fill:#FFF1CE;}
	.st50{fill:#FF9311;}
	.st51{fill:#D64700;}
	.st52{fill:#4AD9D9;stroke:#1C425C;stroke-width:8;stroke-linecap:round;stroke-linejoin:round;stroke-miterlimit:10;}
	.st53{fill:#FF9311;stroke:#1C425C;stroke-width:8;stroke-linecap:round;stroke-linejoin:round;stroke-miterlimit:10;}
	.st54{fill:#94399E;stroke:#1C425C;stroke-width:8;stroke-linecap:round;stroke-linejoin:round;stroke-miterlimit:10;}
	.st55{fill:#F48E36;stroke:#1C425C;stroke-width:8;stroke-linecap:round;stroke-linejoin:round;stroke-miterlimit:10;}
	.st56{fill:#36B1BF;stroke:#1C425C;stroke-width:8;stroke-linecap:round;stroke-linejoin:round;stroke-miterlimit:10;}
	.st57{fill:#FFF1CE;stroke:#1C425C;stroke-width:8;stroke-linecap:round;stroke-linejoin:round;stroke-miterlimit:10;}
	.st58{fill:none;stroke:#7F3F98;stroke-width:8;stroke-linejoin:round;}
	.st59{fill:none;stroke:#7F3F98;stroke-width:8;stroke-linejoin:round;stroke-dasharray:20.1656,20.1656;}
	.st60{fill:none;stroke:#7F3F98;stroke-width:8;stroke-linejoin:round;stroke-dasharray:18.0259,18.0259;}
	.st61{fill:none;stroke:#94399E;stroke-width:8;stroke-linejoin:round;stroke-miterlimit:10;stroke-dasharray:8;}
	.st62{fill:none;stroke:#94399E;stroke-width:8;stroke-linejoin:round;}
	.st63{fill:none;stroke:#94399E;stroke-width:8;stroke-linejoin:round;stroke-dasharray:7.9701,7.9701;}
	.st64{fill:#D64700;stroke:#1C425C;stroke-width:8;stroke-linecap:round;stroke-linejoin:round;stroke-miterlimit:10;}
	.st65{clip-path:url(#SVGID_2_);}
	.st66{fill:#FFFFFF;stroke:#1C425C;stroke-width:8;stroke-linecap:round;stroke-linejoin:round;stroke-miterlimit:10;}
</style>
<g id="Layer_1">
</g>
<g id="Revised_color_icons">
	<path class="st4" d="M226.6,18.5C208.3,11,188.2,6.9,167.2,6.9c-20.5,0-40.2,4-58.2,11.1"/>
	<path class="st4" d="M11.6,183.1L11.6,183.1c6.1,49.7,35.6,92.2,77,116.3"/>
	<path class="st4" d="M322.7,183.4L322.7,183.4c-6.2,49.6-35.6,92-77,116"/>
	<g>
		<g>
			<circle class="st54" cx="44.6" cy="49.7" r="37"/>
			<path class="st54" d="M81.7,111.8c0,12.8-2.3,24.6-6.4,34.5c-0.3,0.8-1,1.3-1.8,1.3H15.7c-0.7,0-1.4-0.5-1.8-1.3
				c-4-9.8-6.4-21.7-6.4-34.5c0-9.4,1.3-18.2,3.5-26.2c0.5-1.6,2.1-2.2,3.2-1c6.7,7.3,15.1,12.3,24.5,13.7c0.7,0.1,1.4,0.7,1.6,1.5
				l2.3,8c0.6,2.1,3.1,2.1,3.7,0l2.3-8c0.2-0.8,0.9-1.4,1.6-1.5c9.4-1.5,17.9-6.4,24.6-13.7c1-1.1,2.7-0.6,3.2,1
				C80.4,93.6,81.7,102.4,81.7,111.8z"/>
		</g>
	</g>
	<g>
		<g>
			<circle class="st52" cx="291.5" cy="49.7" r="37"/>
			<path class="st52" d="M328.5,111.8c0,12.8-2.3,24.6-6.4,34.5c-0.3,0.8-1,1.3-1.8,1.3h-57.8c-0.7,0-1.4-0.5-1.8-1.3
				c-4-9.8-6.4-21.7-6.4-34.5c0-9.4,1.3-18.2,3.5-26.2c0.5-1.6,2.1-2.2,3.2-1c6.7,7.3,15.1,12.3,24.5,13.7c0.7,0.1,1.4,0.7,1.6,1.5
				l2.3,8c0.6,2.1,3.1,2.1,3.7,0l2.3-8c0.2-0.8,0.9-1.4,1.6-1.5c9.4-1.5,17.9-6.4,24.6-13.7c1-1.1,2.7-0.6,3.2,1
				C327.3,93.6,328.5,102.4,328.5,111.8z"/>
		</g>
	</g>
	<g>
		<g>
			<circle class="st53" cx="167.2" cy="260.5" r="37"/>
			<path class="st53" d="M130.1,322.5c0,12.8,2.3,24.6,6.4,34.5c0.3,0.8,1,1.3,1.8,1.3h57.8c0.7,0,1.4-0.5,1.8-1.3
				c4-9.8,6.4-21.7,6.4-34.5c0-9.4-1.3-18.2-3.5-26.2c-0.5-1.6-2.1-2.2-3.2-1c-6.7,7.3-15.1,12.3-24.5,13.7
				c-0.7,0.1-1.4,0.7-1.6,1.5l-2.3,8c-0.6,2.1-3.1,2.1-3.7,0l-2.3-8c-0.2-0.8-0.9-1.4-1.6-1.5c-9.4-1.5-17.9-6.4-24.6-13.7
				c-1-1.1-2.7-0.6-3.2,1C131.4,304.3,130.1,313.2,130.1,322.5z"/>
		</g>
	</g>
</g>
</svg>
