<?xml version="1.0" encoding="utf-8"?>
<!-- Generator: Adobe Illustrator 23.0.1, SVG Export Plug-In . SVG Version: 6.00 Build 0)  -->
<svg version="1.1" id="Layer_1" xmlns="http://www.w3.org/2000/svg" xmlns:xlink="http://www.w3.org/1999/xlink" x="0px" y="0px"
	 viewBox="0 0 400 200" style="enable-background:new 0 0 400 200;" xml:space="preserve">
<style type="text/css">
	.st0{fill:#4AD9D9;stroke:#1C425C;stroke-width:4.7261;stroke-linecap:round;stroke-linejoin:round;stroke-miterlimit:10;}
	.st1{fill:#F48E36;stroke:#1C425C;stroke-width:4.7261;stroke-linecap:round;stroke-linejoin:round;stroke-miterlimit:10;}
	.st2{fill:#94399E;stroke:#1C425C;stroke-width:4.7261;stroke-linecap:round;stroke-linejoin:round;stroke-miterlimit:10;}
	.st3{fill:#FFD34E;stroke:#1C425C;stroke-width:4.7261;stroke-linecap:round;stroke-linejoin:round;stroke-miterlimit:10;}
	.st4{fill:#E74C3C;stroke:#1C425C;stroke-width:4.7261;stroke-linecap:round;stroke-linejoin:round;stroke-miterlimit:10;}
	.st5{fill:#36B1BF;stroke:#1C425C;stroke-width:4.7261;stroke-linecap:round;stroke-linejoin:round;stroke-miterlimit:10;}
	.st6{fill:#BDD350;stroke:#1C425C;stroke-width:4.7261;stroke-linecap:round;stroke-linejoin:round;stroke-miterlimit:10;}
	.st7{fill:none;stroke:#1C425C;stroke-width:5;stroke-linecap:round;stroke-linejoin:round;stroke-miterlimit:10;}
	.st8{fill:#FFD34E;stroke:#1C425C;stroke-width:5;stroke-linecap:round;stroke-linejoin:round;stroke-miterlimit:10;}
	.st9{fill:#4AD9D9;stroke:#1C425C;stroke-width:5;stroke-linecap:round;stroke-linejoin:round;stroke-miterlimit:10;}
	.st10{fill:#EFEFEF;stroke:#1C425C;stroke-width:5;stroke-linecap:round;stroke-linejoin:round;stroke-miterlimit:10;}
	.st11{fill:#F48E36;stroke:#1C425C;stroke-width:5;stroke-linecap:round;stroke-linejoin:round;stroke-miterlimit:10;}
	.st12{fill:#BDD350;stroke:#1C425C;stroke-width:5;stroke-linecap:round;stroke-linejoin:round;stroke-miterlimit:10;}
	.st13{fill:#326DE6;}
	.st14{fill:#FFFFFF;}
	.st15{fill:#1C425C;}
	.st16{fill:none;stroke:#1C425C;stroke-width:5;stroke-linejoin:round;stroke-miterlimit:10;}
	.st17{fill:#1C425C;stroke:#1C425C;stroke-width:5;stroke-linejoin:round;stroke-miterlimit:10;}
	.st18{fill:#E74C3C;stroke:#1C425C;stroke-width:5;stroke-linecap:round;stroke-linejoin:round;stroke-miterlimit:10;}
	.st19{fill:none;stroke:#1C425C;stroke-width:5;stroke-miterlimit:10;}
	.st20{fill:none;stroke:#FFFFFF;stroke-width:5;stroke-linecap:round;stroke-miterlimit:10;}
	.st21{fill:#FFFFFF;stroke:#231F20;stroke-width:3;stroke-miterlimit:10;}
	.st22{fill:none;stroke:#231F20;stroke-width:3;stroke-miterlimit:10;}
</style>
<g>
	<g>
		<line class="st7" x1="140.8039" y1="88.7892" x2="113.9259" y2="88.7892"/>
		<circle class="st8" cx="113.9259" cy="88.7892" r="4.9038"/>
	</g>
	<g>
		<line class="st7" x1="164.7648" y1="110.2562" x2="75.8449" y2="110.2562"/>
		<circle class="st8" cx="75.8449" cy="110.2562" r="4.9038"/>
	</g>
	<g>
		<line class="st7" x1="164.7648" y1="138.6042" x2="125.4906" y2="138.6042"/>
		<circle class="st8" cx="125.4906" cy="138.6042" r="4.9038"/>
	</g>
	<g>
		<line class="st7" x1="144.6486" y1="84.759" x2="144.6486" y2="8.625"/>
		<circle class="st8" cx="144.6486" cy="8.625" r="4.9038"/>
	</g>
	<g>
		<g>
			<polyline class="st7" points="189.2131,135.6867 189.2131,191.375 225.0279,191.375 			"/>
			<circle class="st8" cx="225.0279" cy="191.375" r="4.9038"/>
		</g>
		<g>
			<line class="st7" x1="243.6874" y1="145.7604" x2="243.6874" y2="191.375"/>
			<circle class="st8" cx="243.6874" cy="191.375" r="4.9038"/>
		</g>
		<g>
			<line class="st7" x1="164.3335" y1="115.241" x2="164.3335" y2="191.375"/>
			<circle class="st8" cx="164.3335" cy="191.375" r="4.9038"/>
		</g>
	</g>
	<g>
		<polyline class="st7" points="164.4534,64.3133 164.4534,8.625 243.6874,8.625 		"/>
		<circle class="st8" cx="243.6874" cy="8.625" r="4.9038"/>
	</g>
	<g>
		<line class="st7" x1="264.1249" y1="138.7245" x2="295.9133" y2="138.7245"/>
		<circle class="st8" cx="295.9133" cy="138.7245" r="4.9038"/>
	</g>
	<g>
		<line class="st7" x1="256.2798" y1="105.2327" x2="295.9133" y2="105.2327"/>
		<circle class="st8" cx="295.9133" cy="105.2327" r="4.9038"/>
	</g>
	<g>
		<line class="st7" x1="256.2798" y1="71.8609" x2="324.1551" y2="71.8609"/>
		<circle class="st8" cx="324.1551" cy="71.8609" r="4.9038"/>
	</g>
	<circle class="st9" cx="204.7182" cy="97.3586" r="73.2026"/>
	<path class="st10" d="M253.726,71.5905h-49.6803c-0.0116-0.1944-0.0177-0.3911-0.0177-0.5888c0-5.2147,4.1133-9.4683,9.2727-9.6936
		c0-0.2408,0.0077-0.4822,0.0237-0.7258c0.3955-6.0349,5.6085-10.6061,11.6434-10.2106c4.8678,0.3192,8.7833,3.773,9.9079,8.2641
		c0.1077-0.0033,0.2154-0.005,0.3237-0.005c3.6328,0,6.8325,1.8526,8.7066,4.664c0.4573-0.0773,0.9274-0.1176,1.4068-0.1176
		C249.959,63.1772,253.726,66.9436,253.726,71.5905z"/>
	<path class="st10" d="M264.285,107.9969H145.1565c-0.0278-0.4662-0.0424-0.9377-0.0424-1.4118
		c0-12.5042,9.8633-22.7039,22.235-23.2443c0-0.5775,0.0185-1.1563,0.0569-1.7404c0.9483-14.4711,13.4486-25.4323,27.9196-24.4839
		c11.6725,0.7655,21.0616,9.0473,23.7581,19.8165c0.2583-0.0079,0.5166-0.0119,0.7762-0.0119
		c8.711,0,16.3836,4.4422,20.8775,11.1837c1.0966-0.1854,2.2238-0.2821,3.3734-0.2821
		C255.2521,87.8227,264.285,96.8542,264.285,107.9969z"/>
	<path class="st10" d="M259.3201,133.9599h-81.8297c-0.0191-0.3202-0.0291-0.6441-0.0291-0.9698
		c0-8.5892,6.7751-15.5954,15.2733-15.9665c0-0.3967,0.0127-0.7943,0.0391-1.1955c0.6514-9.9402,9.2378-17.4695,19.178-16.8181
		c8.0178,0.5258,14.4672,6.2146,16.3195,13.612c0.1774-0.0055,0.3548-0.0082,0.5331-0.0082c5.9836,0,11.2539,3.0514,14.3408,7.6821
		c0.7533-0.1274,1.5275-0.1938,2.3172-0.1938C253.1154,120.1023,259.3201,126.306,259.3201,133.9599z"/>
</g>
</svg>
