<?xml version="1.0" encoding="utf-8"?>
<!-- Generator: Adobe Illustrator 21.1.0, SVG Export Plug-In . SVG Version: 6.00 Build 0)  -->
<svg version="1.1" id="Layer_1" xmlns="http://www.w3.org/2000/svg" xmlns:xlink="http://www.w3.org/1999/xlink" x="0px" y="0px"
	 viewBox="0 0 500 325" style="enable-background:new 0 0 500 325;" xml:space="preserve">
<style type="text/css">
	.st0{fill:none;stroke:#2F5977;stroke-width:15;stroke-miterlimit:10;}
	.st1{fill:#2F5977;}
	.st2{fill:none;stroke:#36B1BF;stroke-width:15;stroke-miterlimit:10;}
	.st3{fill:#36B1BF;}
	.st4{fill:#1C425C;}
	.st5{font-family:'URWGeometric-ExtraBold';}
	.st6{font-size:12.7948px;}
	.st7{fill:#EFEFEF;stroke:#1C425C;stroke-width:3;stroke-miterlimit:10;}
	.st8{fill:none;stroke:#4AD9D9;stroke-width:15;stroke-miterlimit:10;}
	.st9{fill:#4AD9D9;}
	.st10{font-size:11.7286px;}
	.st11{font-family:'URWGeometric-SemiBold';}
	.st12{font-size:9.5961px;}
	.st13{fill:none;stroke:#1C425C;stroke-width:3;stroke-linejoin:round;}
</style>
<g>
	<g>
		<line class="st0" x1="36.4" y1="27.9" x2="423.5" y2="27.9"/>
		<g>
			<polygon class="st1" points="419.1,42.9 445,27.9 419.1,12.9 			"/>
		</g>
	</g>
</g>
<g>
	<g>
		<line class="st2" x1="36.4" y1="68.9" x2="423.5" y2="68.9"/>
		<g>
			<polygon class="st3" points="419.1,83.9 445,68.9 419.1,54 			"/>
		</g>
	</g>
</g>
<text transform="matrix(1 0 0 1 59.8774 16.1626)" class="st4 st5 st6">INCREASING CONFIDENCE IN BUILD’S PRODUCTION READINESS</text>
<text transform="matrix(1 0 0 1 88.6655 57.7456)" class="st4 st5 st6">ENVIRONMENTS BECOME MORE PRODUCTION-LIKE</text>
<text transform="matrix(1 0 0 1 189.958 316.8408)" class="st4 st5 st6">FASTER FEEDBACK</text>
<path class="st7" d="M86.1,221.9H14.5c-5,0-9-4-9-9v-59.8c0-5,4-9,9-9h71.6c5,0,9,4,9,9v59.8C95.1,217.9,91,221.9,86.1,221.9z"/>
<path class="st7" d="M203.3,221.9h-71.6c-5,0-9-4-9-9v-59.8c0-5,4-9,9-9h71.6c5,0,9,4,9,9v59.8C212.3,217.9,208.3,221.9,203.3,221.9
	z"/>
<path class="st7" d="M480.8,220.9h-71.6c-5,0-9-4-9-9v-59.8c0-5,4-9,9-9h71.6c5,0,9,4,9,9v59.8C489.8,216.9,485.8,220.9,480.8,220.9
	z"/>
<path class="st7" d="M320.6,174h-71.6c-5,0-9-4-9-9v-59.8c0-5,4-9,9-9h71.6c5,0,9,4,9,9V165C329.6,169.9,325.6,174,320.6,174z"/>
<path class="st7" d="M320.6,267.8h-71.6c-5,0-9-4-9-9V199c0-5,4-9,9-9h71.6c5,0,9,4,9,9v59.8C329.6,263.8,325.6,267.8,320.6,267.8z"
	/>
<g>
	<g>
		<line class="st8" x1="444.8" y1="296" x2="58.8" y2="296"/>
		<g>
			<polygon class="st9" points="63.2,281.1 37.3,296 63.2,311 			"/>
		</g>
	</g>
</g>
<text transform="matrix(1 0 0 1 11.3643 164.7236)" class="st4 st5 st10">COMMIT STAGE</text>
<text transform="matrix(1 0 0 1 32.2417 177.5186)"><tspan x="0" y="0" class="st4 st11 st12">COMPILE</tspan><tspan x="-1.3" y="11.5" class="st4 st11 st12">UNIT TEST</tspan><tspan x="-1.6" y="23" class="st4 st11 st12">ANALYSIS</tspan><tspan x="-18.1" y="34.5" class="st4 st11 st12">BUILD INSTALLERS</tspan></text>
<text transform="matrix(1 0 0 1 132.3594 180.5186)"><tspan x="0" y="0" class="st4 st5 st10">ACCEPTANCE</tspan><tspan x="5.7" y="14.1" class="st4 st5 st10">TEST STAGE</tspan></text>
<text transform="matrix(1 0 0 1 272.3857 125.4053)"><tspan x="0" y="0" class="st4 st5 st10">USER</tspan><tspan x="-21.7" y="14.1" class="st4 st5 st10">ACCEPTANCE</tspan><tspan x="-8.1" y="28.1" class="st4 st5 st10">TESTING</tspan></text>
<text transform="matrix(1 0 0 1 259.748 227.6973)"><tspan x="0" y="0" class="st4 st5 st10">CAPACITY</tspan><tspan x="4.5" y="14.1" class="st4 st5 st10">TESTING</tspan></text>
<text transform="matrix(1 0 0 1 410.4043 187.1807)" class="st4 st5 st10">PRODUCTION</text>
<g>
	<g>
		<line class="st13" x1="112.6" y1="183" x2="98" y2="183"/>
		<g>
			<polygon class="st4" points="110.8,177 121.2,183 110.8,189 			"/>
		</g>
	</g>
</g>
<g>
	<g>
		<line class="st13" x1="390.7" y1="181" x2="376.1" y2="181"/>
		<g>
			<polygon class="st4" points="388.9,175 399.3,181 388.9,187 			"/>
		</g>
	</g>
</g>
<g>
	<g>
		<line class="st13" x1="231" y1="154.2" x2="216.1" y2="164.9"/>
		<g>
			<polygon class="st4" points="226.1,150.4 238,149.2 233.1,160.1 			"/>
		</g>
	</g>
</g>
<g>
	<g>
		<line class="st13" x1="231" y1="210.8" x2="216.1" y2="200.1"/>
		<g>
			<polygon class="st4" points="233.1,204.9 238,215.8 226.1,214.6 			"/>
		</g>
	</g>
</g>
<g>
	<g>
		<line class="st13" x1="347.2" y1="160.6" x2="332.2" y2="150"/>
		<g>
			<polygon class="st4" points="349.2,154.8 354.2,165.6 342.3,164.5 			"/>
		</g>
	</g>
</g>
<g>
	<g>
		<line class="st13" x1="347.2" y1="201.2" x2="332.2" y2="211.8"/>
		<g>
			<polygon class="st4" points="342.3,197.3 354.2,196.1 349.2,207 			"/>
		</g>
	</g>
</g>
<path class="st7" d="M354.8,195.2L344.6,185c-2-2-2-5.1,0-7.1l10.3-10.3c2-2,5.1-2,7.1,0l10.3,10.3c2,2,2,5.1,0,7.1l-10.3,10.3
	C359.9,197.2,356.8,197.2,354.8,195.2z"/>
</svg>
