<?xml version="1.0" encoding="utf-8"?>
<!-- Generator: Adobe Illustrator 22.0.1, SVG Export Plug-In . SVG Version: 6.00 Build 0)  -->
<svg version="1.1" id="Layer_1" xmlns="http://www.w3.org/2000/svg" xmlns:xlink="http://www.w3.org/1999/xlink" x="0px" y="0px"
	 viewBox="0 0 500 325" style="enable-background:new 0 0 500 325;" xml:space="preserve">
<style type="text/css">
	.st0{fill:none;stroke:#2F5977;stroke-width:15;stroke-miterlimit:10;}
	.st1{fill:#2F5977;}
	.st2{fill:none;stroke:#36B1BF;stroke-width:15;stroke-miterlimit:10;}
	.st3{fill:#36B1BF;}
	.st4{enable-background:new    ;}
	.st5{fill:#1C425C;}
	.st6{fill:#EFEFEF;stroke:#1C425C;stroke-width:3;stroke-miterlimit:10;}
	.st7{fill:none;stroke:#4AD9D9;stroke-width:15;stroke-miterlimit:10;}
	.st8{fill:#4AD9D9;}
	.st9{fill:none;stroke:#1C425C;stroke-width:3;stroke-linejoin:round;}
</style>
<g>
	<g>
		<line class="st0" x1="36.4" y1="27.9" x2="423.5" y2="27.9"/>
		<g>
			<polygon class="st1" points="419.1,42.9 445,27.9 419.1,12.9 			"/>
		</g>
	</g>
</g>
<g>
	<g>
		<line class="st2" x1="36.4" y1="68.9" x2="423.5" y2="68.9"/>
		<g>
			<polygon class="st3" points="419.1,83.9 445,68.9 419.1,54 			"/>
		</g>
	</g>
</g>
<g class="st4">
	<path class="st5" d="M62.4,16.2h-1.7V7.6h1.7V16.2z"/>
	<path class="st5" d="M64.2,7.6h1.4l4.2,5.6V7.6h1.7v8.5h-1.4l-4.2-5.6v5.6h-1.7V7.6z"/>
	<path class="st5" d="M79.5,10.2C78.7,9.3,78.1,9,77.3,9c-1.6,0-2.8,1.3-2.8,2.9c0,1.6,1.2,2.9,2.8,2.9c0.8,0,1.4-0.3,2.3-1.2
		l1.2,1.1c-1.1,1.2-2.1,1.7-3.5,1.7c-2.5,0-4.5-2-4.5-4.5c0-2.5,2-4.5,4.5-4.5c1.3,0,2.3,0.5,3.4,1.6L79.5,10.2z"/>
	<path class="st5" d="M84.4,13.1L84.4,13.1L84.4,13.1l-0.5,0h-0.3v3.1h-1.7V7.6h2c0.9,0,1.5,0.1,2,0.4c0.8,0.5,1.3,1.4,1.3,2.3
		c0,0.9-0.4,1.7-1.2,2.2l2,3.6h-1.9L84.4,13.1z M84,11.5c1.1,0,1.6-0.4,1.6-1.2c0-0.4-0.2-0.8-0.5-1c-0.2-0.1-0.6-0.2-1-0.2h-0.4
		v2.3H84z"/>
	<path class="st5" d="M93.8,9.2h-3.2v1.9h2.8v1.6h-2.8v1.9h3.3v1.6h-5V7.6h4.9V9.2z"/>
	<path class="st5" d="M96.9,14.2l-0.7,2h-1.8l3.2-8.5h2l3.2,8.5H101l-0.7-2H96.9z M98.6,9.4l-1.1,3.1h2.3L98.6,9.4z"/>
	<path class="st5" d="M107.4,10c-0.5-0.8-0.8-1-1.3-1c-0.6,0-1,0.4-1,1c0,0.3,0.3,0.6,0.9,0.9l0.8,0.3c1.4,0.6,2.1,1.3,2.1,2.4
		c0,1.6-1.3,2.8-3,2.8c-0.9,0-1.8-0.4-2.3-1c-0.3-0.4-0.5-0.9-0.7-1.6l1.7-0.4c0.1,0.6,0.2,0.8,0.3,1c0.2,0.3,0.6,0.5,1,0.5
		c0.7,0,1.2-0.5,1.2-1.2c0-0.4-0.3-0.7-1.2-1l-0.7-0.3c-1.3-0.5-1.9-1.3-1.9-2.3c0-1.4,1.2-2.5,2.8-2.5c1.2,0,1.9,0.5,2.7,1.7
		L107.4,10z"/>
	<path class="st5" d="M111.9,16.2h-1.7V7.6h1.7V16.2z"/>
	<path class="st5" d="M113.6,7.6h1.4l4.2,5.6V7.6h1.7v8.5h-1.4l-4.2-5.6v5.6h-1.7V7.6z"/>
	<path class="st5" d="M130.7,11.4v0.8c0,2.5-1.6,4.2-4,4.2c-2.5,0-4.6-2-4.6-4.5c0-2.5,2-4.5,4.6-4.5c1.3,0,2.2,0.4,3.4,1.6
		l-1.2,1.1c-0.8-0.9-1.4-1.1-2.2-1.1c-1.6,0-2.8,1.3-2.8,2.9c0,1.6,1.2,2.9,2.8,2.9c0.7,0,1.3-0.2,1.7-0.7c0.3-0.3,0.4-0.6,0.5-1.1
		h-2.3v-1.6H130.7z"/>
	<path class="st5" d="M141.1,10.2c-0.8-0.9-1.4-1.2-2.2-1.2c-1.6,0-2.8,1.3-2.8,2.9c0,1.6,1.2,2.9,2.8,2.9c0.8,0,1.4-0.3,2.3-1.2
		l1.2,1.1c-1.1,1.2-2.1,1.7-3.5,1.7c-2.5,0-4.5-2-4.5-4.5c0-2.5,2-4.5,4.5-4.5c1.3,0,2.3,0.5,3.4,1.6L141.1,10.2z"/>
	<path class="st5" d="M151.7,11.9c0,2.4-2,4.5-4.5,4.5c-2.5,0-4.5-2-4.5-4.5c0-2.4,2.1-4.4,4.5-4.4C149.6,7.4,151.7,9.4,151.7,11.9z
		 M144.4,11.9c0,1.5,1.3,2.8,2.8,2.8c1.5,0,2.8-1.3,2.8-2.9c0-1.6-1.2-2.9-2.8-2.9C145.6,9,144.4,10.3,144.4,11.9z"/>
	<path class="st5" d="M152.9,7.6h1.4l4.2,5.6V7.6h1.7v8.5h-1.4l-4.2-5.6v5.6h-1.7V7.6z"/>
	<path class="st5" d="M166.6,9.2h-2.9v1.9h2.6v1.6h-2.6v3.5H162V7.6h4.6V9.2z"/>
	<path class="st5" d="M169.4,16.2h-1.7V7.6h1.7V16.2z"/>
	<path class="st5" d="M173.2,7.6c2.9,0,4.7,1.7,4.7,4.3c0,2.6-1.8,4.3-4.7,4.3h-2V7.6H173.2z M172.9,14.6h0.4c1.8,0,2.9-1,2.9-2.7
		c0-1.7-1.1-2.7-2.9-2.7h-0.4V14.6z"/>
	<path class="st5" d="M184,9.2h-3.2v1.9h2.8v1.6h-2.8v1.9h3.3v1.6h-5V7.6h4.9V9.2z"/>
	<path class="st5" d="M185.4,7.6h1.4l4.2,5.6V7.6h1.7v8.5h-1.4l-4.2-5.6v5.6h-1.7V7.6z"/>
	<path class="st5" d="M200.7,10.2c-0.8-0.9-1.4-1.2-2.2-1.2c-1.6,0-2.8,1.3-2.8,2.9c0,1.6,1.2,2.9,2.8,2.9c0.8,0,1.4-0.3,2.3-1.2
		l1.2,1.1c-1.1,1.2-2.1,1.7-3.5,1.7c-2.5,0-4.5-2-4.5-4.5c0-2.5,2-4.5,4.5-4.5c1.3,0,2.3,0.5,3.4,1.6L200.7,10.2z"/>
	<path class="st5" d="M207.9,9.2h-3.2v1.9h2.8v1.6h-2.8v1.9h3.3v1.6h-5V7.6h4.9V9.2z"/>
	<path class="st5" d="M213.9,16.2h-1.7V7.6h1.7V16.2z"/>
	<path class="st5" d="M215.6,7.6h1.4l4.2,5.6V7.6h1.7v8.5h-1.4l-4.2-5.6v5.6h-1.7V7.6z"/>
	<path class="st5" d="M227.5,7.6h2c0.9,0,1.5,0.1,1.9,0.4c0.7,0.4,1.2,1.2,1.2,2c0,0.6-0.2,1.1-0.7,1.6c0.7,0.5,1.1,1.2,1.1,2
		c0,0.9-0.5,1.7-1.3,2.2c-0.5,0.3-1,0.4-1.8,0.4h-2.4V7.6z M229.7,11.1c0.5,0,0.7,0,0.9-0.1c0.3-0.2,0.5-0.5,0.5-0.9
		c0-0.3-0.1-0.6-0.3-0.7c-0.2-0.2-0.6-0.3-1.1-0.3h-0.5v2H229.7z M229.9,14.6c0.5,0,0.8,0,1-0.2c0.3-0.2,0.5-0.5,0.5-0.9
		c0-0.4-0.2-0.7-0.5-0.9c-0.3-0.2-0.6-0.2-1.2-0.2h-0.6v2.1H229.9z"/>
	<path class="st5" d="M236,12.9c0,0.7,0,1,0.2,1.2c0.2,0.4,0.8,0.7,1.4,0.7c0.6,0,1.1-0.3,1.4-0.7c0.1-0.2,0.2-0.5,0.2-1.2V7.6h1.7
		v5.5c0,0.8-0.1,1.3-0.4,1.7c-0.6,0.9-1.7,1.5-2.9,1.5c-1.2,0-2.3-0.6-2.9-1.5c-0.3-0.4-0.4-1-0.4-1.7V7.6h1.7V12.9z"/>
	<path class="st5" d="M244.2,16.2h-1.7V7.6h1.7V16.2z"/>
	<path class="st5" d="M247.6,7.6v7h3.1v1.6h-4.8V7.6H247.6z"/>
	<path class="st5" d="M253.6,7.6c2.9,0,4.7,1.7,4.7,4.3c0,2.6-1.8,4.3-4.7,4.3h-2V7.6H253.6z M253.3,14.6h0.4c1.8,0,2.9-1,2.9-2.7
		c0-1.7-1.1-2.7-2.9-2.7h-0.4V14.6z"/>
	<path class="st5" d="M261.7,7.3l-1.6,3.5l-1.2-0.5l1.3-3.6L261.7,7.3z"/>
	<path class="st5" d="M266.9,10c-0.5-0.8-0.8-1-1.3-1c-0.6,0-1,0.4-1,1c0,0.3,0.3,0.6,0.9,0.9l0.8,0.3c1.4,0.6,2.1,1.3,2.1,2.4
		c0,1.6-1.3,2.8-3,2.8c-0.9,0-1.8-0.4-2.3-1c-0.3-0.4-0.5-0.9-0.7-1.6l1.7-0.4c0.1,0.6,0.2,0.8,0.3,1c0.2,0.3,0.6,0.5,1,0.5
		c0.7,0,1.2-0.5,1.2-1.2c0-0.4-0.3-0.7-1.2-1l-0.7-0.3c-1.3-0.5-1.9-1.3-1.9-2.3c0-1.4,1.2-2.5,2.8-2.5c1.2,0,1.9,0.5,2.7,1.7
		L266.9,10z"/>
	<path class="st5" d="M274.3,16.2h-1.7V7.6h2c0.8,0,1.4,0.1,1.9,0.4c0.8,0.4,1.3,1.3,1.3,2.3c0,1-0.5,1.9-1.3,2.3
		c-0.5,0.3-1,0.4-1.9,0.4h-0.3V16.2z M274.7,11.5c0.9,0,1.4-0.4,1.4-1.2s-0.4-1.2-1.4-1.2h-0.4v2.3H274.7z"/>
	<path class="st5" d="M281.2,13.1L281.2,13.1L281.2,13.1l-0.5,0h-0.3v3.1h-1.7V7.6h2c0.9,0,1.5,0.1,2,0.4c0.8,0.5,1.3,1.4,1.3,2.3
		c0,0.9-0.4,1.7-1.2,2.2l2,3.6h-1.9L281.2,13.1z M280.8,11.5c1.1,0,1.6-0.4,1.6-1.2c0-0.4-0.2-0.8-0.5-1c-0.2-0.1-0.5-0.2-1-0.2
		h-0.4v2.3H280.8z"/>
	<path class="st5" d="M294.1,11.9c0,2.4-2,4.5-4.5,4.5c-2.5,0-4.5-2-4.5-4.5c0-2.4,2.1-4.4,4.5-4.4C292.1,7.4,294.1,9.4,294.1,11.9z
		 M286.8,11.9c0,1.5,1.3,2.8,2.8,2.8c1.5,0,2.8-1.3,2.8-2.9c0-1.6-1.2-2.9-2.8-2.9C288,9,286.8,10.3,286.8,11.9z"/>
	<path class="st5" d="M297.4,7.6c2.9,0,4.7,1.7,4.7,4.3c0,2.6-1.8,4.3-4.7,4.3h-2V7.6H297.4z M297,14.6h0.4c1.8,0,2.9-1,2.9-2.7
		c0-1.7-1.1-2.7-2.9-2.7H297V14.6z"/>
	<path class="st5" d="M305,12.9c0,0.7,0,1,0.2,1.2c0.2,0.4,0.8,0.7,1.4,0.7s1.1-0.3,1.4-0.7c0.1-0.2,0.2-0.5,0.2-1.2V7.6h1.7v5.5
		c0,0.8-0.1,1.3-0.4,1.7c-0.5,0.9-1.7,1.5-2.9,1.5s-2.3-0.6-2.9-1.5c-0.3-0.4-0.4-1-0.4-1.7V7.6h1.7V12.9z"/>
	<path class="st5" d="M317.7,10.2C317,9.3,316.4,9,315.5,9c-1.6,0-2.8,1.3-2.8,2.9c0,1.6,1.2,2.9,2.8,2.9c0.8,0,1.4-0.3,2.3-1.2
		l1.2,1.1c-1.1,1.2-2.1,1.7-3.5,1.7c-2.5,0-4.5-2-4.5-4.5c0-2.5,2-4.5,4.5-4.5c1.3,0,2.3,0.5,3.4,1.6L317.7,10.2z"/>
	<path class="st5" d="M325.2,9.2h-2v7h-1.7v-7h-2V7.6h5.8V9.2z"/>
	<path class="st5" d="M327.7,16.2H326V7.6h1.7V16.2z"/>
	<path class="st5" d="M337.9,11.9c0,2.4-2,4.5-4.5,4.5c-2.5,0-4.5-2-4.5-4.5c0-2.4,2.1-4.4,4.5-4.4C335.9,7.4,337.9,9.4,337.9,11.9z
		 M330.6,11.9c0,1.5,1.3,2.8,2.8,2.8c1.5,0,2.8-1.3,2.8-2.9c0-1.6-1.2-2.9-2.8-2.9S330.6,10.3,330.6,11.9z"/>
	<path class="st5" d="M339.1,7.6h1.4l4.2,5.6V7.6h1.7v8.5H345l-4.2-5.6v5.6h-1.7V7.6z"/>
	<path class="st5" d="M353.6,13.1L353.6,13.1L353.6,13.1l-0.5,0h-0.3v3.1H351V7.6h2c0.9,0,1.5,0.1,2,0.4c0.8,0.5,1.3,1.4,1.3,2.3
		c0,0.9-0.4,1.7-1.2,2.2l2,3.6h-1.9L353.6,13.1z M353.2,11.5c1.1,0,1.6-0.4,1.6-1.2c0-0.4-0.2-0.8-0.5-1c-0.2-0.1-0.6-0.2-1-0.2
		h-0.4v2.3H353.2z"/>
	<path class="st5" d="M363,9.2h-3.2v1.9h2.8v1.6h-2.8v1.9h3.3v1.6h-5V7.6h4.9V9.2z"/>
	<path class="st5" d="M366.1,14.2l-0.7,2h-1.8l3.2-8.5h2l3.2,8.5h-1.8l-0.7-2H366.1z M367.8,9.4l-1.1,3.1h2.3L367.8,9.4z"/>
	<path class="st5" d="M374.8,7.6c2.9,0,4.7,1.7,4.7,4.3c0,2.6-1.8,4.3-4.7,4.3h-2V7.6H374.8z M374.5,14.6h0.4c1.8,0,2.9-1,2.9-2.7
		c0-1.7-1.1-2.7-2.9-2.7h-0.4V14.6z"/>
	<path class="st5" d="M382.4,16.2h-1.7V7.6h1.7V16.2z"/>
	<path class="st5" d="M384.1,7.6h1.4l4.2,5.6V7.6h1.7v8.5H390l-4.2-5.6v5.6h-1.7V7.6z"/>
	<path class="st5" d="M398.1,9.2h-3.2v1.9h2.8v1.6h-2.8v1.9h3.3v1.6h-5V7.6h4.9V9.2z"/>
	<path class="st5" d="M403.4,10c-0.5-0.8-0.8-1-1.3-1c-0.6,0-1,0.4-1,1c0,0.3,0.3,0.6,0.9,0.9l0.8,0.3c1.4,0.6,2.1,1.3,2.1,2.4
		c0,1.6-1.3,2.8-3,2.8c-0.9,0-1.8-0.4-2.3-1c-0.3-0.4-0.5-0.9-0.7-1.6l1.7-0.4c0.1,0.6,0.2,0.8,0.3,1c0.2,0.3,0.6,0.5,1,0.5
		c0.7,0,1.2-0.5,1.2-1.2c0-0.4-0.3-0.7-1.2-1l-0.7-0.3c-1.3-0.5-1.9-1.3-1.9-2.3c0-1.4,1.2-2.5,2.8-2.5c1.2,0,1.9,0.5,2.7,1.7
		L403.4,10z"/>
	<path class="st5" d="M410.1,10c-0.5-0.8-0.8-1-1.3-1c-0.6,0-1,0.4-1,1c0,0.3,0.3,0.6,0.9,0.9l0.8,0.3c1.4,0.6,2.1,1.3,2.1,2.4
		c0,1.6-1.3,2.8-3,2.8c-0.9,0-1.8-0.4-2.3-1c-0.3-0.4-0.5-0.9-0.7-1.6l1.7-0.4c0.1,0.6,0.2,0.8,0.3,1c0.2,0.3,0.6,0.5,1,0.5
		c0.7,0,1.2-0.5,1.2-1.2c0-0.4-0.3-0.7-1.2-1l-0.7-0.3c-1.3-0.5-1.9-1.3-1.9-2.3c0-1.4,1.2-2.5,2.8-2.5c1.2,0,1.9,0.5,2.7,1.7
		L410.1,10z"/>
</g>
<g class="st4">
	<path class="st5" d="M94.4,50.8h-3.2v1.9h2.8v1.6h-2.8v1.9h3.3v1.6h-5v-8.5h4.9V50.8z"/>
	<path class="st5" d="M95.8,49.2h1.4l4.2,5.6v-5.6h1.7v8.5h-1.4l-4.2-5.6v5.6h-1.7V49.2z"/>
	<path class="st5" d="M107.7,55.3l2-6.1h1.8l-2.8,8.5h-1.9l-2.8-8.5h1.8L107.7,55.3z"/>
	<path class="st5" d="M114,57.7h-1.7v-8.5h1.7V57.7z"/>
	<path class="st5" d="M118.2,54.6L118.2,54.6L118.2,54.6l-0.5,0h-0.3v3.1h-1.7v-8.5h2c0.9,0,1.5,0.1,2,0.4c0.8,0.5,1.3,1.4,1.3,2.3
		c0,0.9-0.4,1.7-1.2,2.2l2,3.6H120L118.2,54.6z M117.8,53.1c1.1,0,1.6-0.4,1.6-1.2c0-0.4-0.2-0.8-0.5-1c-0.2-0.1-0.6-0.2-1-0.2h-0.4
		v2.3H117.8z"/>
	<path class="st5" d="M131.2,53.5c0,2.4-2,4.5-4.5,4.5c-2.5,0-4.5-2-4.5-4.5c0-2.4,2.1-4.4,4.5-4.4C129.1,49,131.2,51,131.2,53.5z
		 M123.9,53.5c0,1.5,1.3,2.8,2.8,2.8c1.5,0,2.8-1.3,2.8-2.9c0-1.6-1.2-2.9-2.8-2.9C125.1,50.6,123.9,51.9,123.9,53.5z"/>
	<path class="st5" d="M132.4,49.2h1.4l4.2,5.6v-5.6h1.7v8.5h-1.4l-4.2-5.6v5.6h-1.7V49.2z"/>
	<path class="st5" d="M141.4,49.2h1.6l2.7,4.7l2.7-4.7h1.6v8.5h-1.7v-5.2l-1.9,3.4h-1.3l-1.9-3.4v5.2h-1.7V49.2z"/>
	<path class="st5" d="M156.6,50.8h-3.2v1.9h2.8v1.6h-2.8v1.9h3.3v1.6h-5v-8.5h4.9V50.8z"/>
	<path class="st5" d="M157.9,49.2h1.4l4.2,5.6v-5.6h1.7v8.5h-1.4l-4.2-5.6v5.6h-1.7V49.2z"/>
	<path class="st5" d="M171.8,50.8h-2v7h-1.7v-7h-2v-1.6h5.8V50.8z"/>
	<path class="st5" d="M176.5,51.6c-0.5-0.8-0.8-1-1.3-1c-0.6,0-1,0.4-1,1c0,0.3,0.3,0.6,0.9,0.9l0.8,0.3c1.4,0.6,2.1,1.3,2.1,2.4
		c0,1.6-1.3,2.8-3,2.8c-0.9,0-1.8-0.4-2.3-1c-0.3-0.4-0.5-0.9-0.7-1.6l1.7-0.4c0.1,0.6,0.2,0.8,0.3,1c0.2,0.3,0.6,0.5,1,0.5
		c0.7,0,1.2-0.5,1.2-1.2c0-0.4-0.3-0.7-1.2-1l-0.7-0.3c-1.3-0.5-1.9-1.3-1.9-2.3c0-1.4,1.2-2.5,2.8-2.5c1.2,0,1.9,0.5,2.7,1.7
		L176.5,51.6z"/>
	<path class="st5" d="M182.2,49.2h2c0.9,0,1.5,0.1,1.9,0.4c0.7,0.4,1.2,1.2,1.2,2c0,0.6-0.2,1.1-0.7,1.6c0.7,0.5,1.1,1.2,1.1,2
		c0,0.9-0.5,1.7-1.3,2.2c-0.5,0.3-1,0.4-1.8,0.4h-2.4V49.2z M184.4,52.7c0.5,0,0.7,0,0.9-0.1c0.3-0.2,0.5-0.5,0.5-0.9
		c0-0.3-0.1-0.6-0.3-0.7c-0.2-0.2-0.6-0.3-1.1-0.3h-0.5v2H184.4z M184.6,56.2c0.5,0,0.8,0,1-0.2c0.3-0.2,0.5-0.5,0.5-0.9
		c0-0.4-0.2-0.7-0.5-0.9c-0.3-0.2-0.6-0.2-1.2-0.2h-0.6v2.1H184.6z"/>
	<path class="st5" d="M193.9,50.8h-3.2v1.9h2.8v1.6h-2.8v1.9h3.3v1.6h-5v-8.5h4.9V50.8z"/>
	<path class="st5" d="M201.5,51.8c-0.8-0.9-1.4-1.2-2.2-1.2c-1.6,0-2.8,1.3-2.8,2.9c0,1.6,1.2,2.9,2.8,2.9c0.8,0,1.4-0.3,2.3-1.2
		l1.2,1.1c-1.1,1.2-2.1,1.7-3.5,1.7c-2.5,0-4.5-2-4.5-4.5c0-2.5,2-4.5,4.5-4.5c1.3,0,2.3,0.5,3.4,1.6L201.5,51.8z"/>
	<path class="st5" d="M212.1,53.5c0,2.4-2,4.5-4.5,4.5c-2.5,0-4.5-2-4.5-4.5c0-2.4,2.1-4.4,4.5-4.4C210,49,212.1,51,212.1,53.5z
		 M204.8,53.5c0,1.5,1.3,2.8,2.8,2.8c1.5,0,2.8-1.3,2.8-2.9c0-1.6-1.2-2.9-2.8-2.9C206,50.6,204.8,51.9,204.8,53.5z"/>
	<path class="st5" d="M213.3,49.2h1.6l2.7,4.7l2.7-4.7h1.6v8.5h-1.7v-5.2l-1.9,3.4h-1.3l-1.9-3.4v5.2h-1.7V49.2z"/>
	<path class="st5" d="M228.4,50.8h-3.2v1.9h2.8v1.6h-2.8v1.9h3.3v1.6h-5v-8.5h4.9V50.8z"/>
	<path class="st5" d="M232.6,49.2h1.6l2.7,4.7l2.7-4.7h1.6v8.5h-1.7v-5.2l-1.9,3.4h-1.3l-1.9-3.4v5.2h-1.7V49.2z"/>
	<path class="st5" d="M251.4,53.5c0,2.4-2,4.5-4.5,4.5c-2.5,0-4.5-2-4.5-4.5c0-2.4,2.1-4.4,4.5-4.4C249.4,49,251.4,51,251.4,53.5z
		 M244.1,53.5c0,1.5,1.3,2.8,2.8,2.8c1.5,0,2.8-1.3,2.8-2.9c0-1.6-1.2-2.9-2.8-2.9C245.3,50.6,244.1,51.9,244.1,53.5z"/>
	<path class="st5" d="M255.1,54.6L255.1,54.6L255.1,54.6l-0.5,0h-0.3v3.1h-1.7v-8.5h2c0.9,0,1.5,0.1,2,0.4c0.8,0.5,1.3,1.4,1.3,2.3
		c0,0.9-0.4,1.7-1.2,2.2l2,3.6h-1.9L255.1,54.6z M254.8,53.1c1.1,0,1.6-0.4,1.6-1.2c0-0.4-0.2-0.8-0.5-1c-0.2-0.1-0.5-0.2-1-0.2
		h-0.4v2.3H254.8z"/>
	<path class="st5" d="M264.6,50.8h-3.2v1.9h2.8v1.6h-2.8v1.9h3.3v1.6h-5v-8.5h4.9V50.8z"/>
	<path class="st5" d="M270.5,57.7h-1.7v-8.5h2c0.8,0,1.4,0.1,1.9,0.4c0.8,0.4,1.3,1.3,1.3,2.3c0,1-0.5,1.9-1.3,2.3
		c-0.5,0.3-1,0.4-1.9,0.4h-0.3V57.7z M271,53.1c0.9,0,1.4-0.4,1.4-1.2s-0.4-1.2-1.4-1.2h-0.4v2.3H271z"/>
	<path class="st5" d="M277.4,54.6L277.4,54.6L277.4,54.6l-0.5,0h-0.3v3.1h-1.7v-8.5h2c0.9,0,1.5,0.1,2,0.4c0.8,0.5,1.3,1.4,1.3,2.3
		c0,0.9-0.4,1.7-1.2,2.2l2,3.6h-1.9L277.4,54.6z M277,53.1c1.1,0,1.6-0.4,1.6-1.2c0-0.4-0.2-0.8-0.5-1c-0.2-0.1-0.6-0.2-1.1-0.2
		h-0.4v2.3H277z"/>
	<path class="st5" d="M290.4,53.5c0,2.4-2,4.5-4.5,4.5c-2.5,0-4.5-2-4.5-4.5c0-2.4,2.1-4.4,4.5-4.4C288.3,49,290.4,51,290.4,53.5z
		 M283.1,53.5c0,1.5,1.3,2.8,2.8,2.8c1.5,0,2.8-1.3,2.8-2.9c0-1.6-1.2-2.9-2.8-2.9S283.1,51.9,283.1,53.5z"/>
	<path class="st5" d="M293.6,49.2c2.9,0,4.7,1.7,4.7,4.3c0,2.6-1.8,4.3-4.7,4.3h-2v-8.5H293.6z M293.3,56.2h0.4c1.8,0,2.9-1,2.9-2.7
		c0-1.7-1.1-2.7-2.9-2.7h-0.4V56.2z"/>
	<path class="st5" d="M301.2,54.4c0,0.7,0,1,0.2,1.2c0.2,0.4,0.8,0.7,1.4,0.7c0.6,0,1.1-0.3,1.4-0.7c0.1-0.2,0.2-0.5,0.2-1.2v-5.2
		h1.7v5.5c0,0.8-0.1,1.3-0.4,1.7c-0.5,0.9-1.7,1.5-2.9,1.5c-1.2,0-2.3-0.6-2.9-1.5c-0.3-0.4-0.4-1-0.4-1.7v-5.5h1.7V54.4z"/>
	<path class="st5" d="M314,51.8c-0.8-0.9-1.4-1.2-2.2-1.2c-1.6,0-2.8,1.3-2.8,2.9c0,1.6,1.2,2.9,2.8,2.9c0.8,0,1.4-0.3,2.3-1.2
		l1.2,1.1c-1.1,1.2-2.1,1.7-3.5,1.7c-2.5,0-4.5-2-4.5-4.5c0-2.5,2-4.5,4.5-4.5c1.3,0,2.3,0.5,3.4,1.6L314,51.8z"/>
	<path class="st5" d="M321.5,50.8h-2v7h-1.7v-7h-2v-1.6h5.8V50.8z"/>
	<path class="st5" d="M323.9,57.7h-1.7v-8.5h1.7V57.7z"/>
	<path class="st5" d="M334.1,53.5c0,2.4-2,4.5-4.5,4.5c-2.5,0-4.5-2-4.5-4.5c0-2.4,2.1-4.4,4.5-4.4C332.1,49,334.1,51,334.1,53.5z
		 M326.9,53.5c0,1.5,1.3,2.8,2.8,2.8c1.5,0,2.8-1.3,2.8-2.9c0-1.6-1.2-2.9-2.8-2.9S326.9,51.9,326.9,53.5z"/>
	<path class="st5" d="M335.4,49.2h1.4l4.2,5.6v-5.6h1.7v8.5h-1.4l-4.2-5.6v5.6h-1.7V49.2z"/>
	<path class="st5" d="M346.9,54v1.5h-3V54H346.9z"/>
	<path class="st5" d="M349.8,49.2v7h3.1v1.6h-4.8v-8.5H349.8z"/>
	<path class="st5" d="M355.4,57.7h-1.7v-8.5h1.7V57.7z"/>
	<path class="st5" d="M364,57.7h-2l-2.4-3.7l-0.7,0.8v2.9h-1.7v-8.5h1.7v3.3l3.1-3.3h2.2l-3.4,3.6L364,57.7z"/>
	<path class="st5" d="M369.7,50.8h-3.2v1.9h2.8v1.6h-2.8v1.9h3.3v1.6h-5v-8.5h4.9V50.8z"/>
</g>
<g class="st4">
	<path class="st5" d="M195.4,309.9h-2.9v1.9h2.6v1.6h-2.6v3.5h-1.7v-8.5h4.6V309.9z"/>
	<path class="st5" d="M197.7,314.9l-0.7,2h-1.8l3.2-8.5h2l3.2,8.5h-1.8l-0.7-2H197.7z M199.4,310.1l-1.1,3.1h2.3L199.4,310.1z"/>
	<path class="st5" d="M208.2,310.7c-0.5-0.8-0.8-1-1.3-1c-0.6,0-1,0.4-1,1c0,0.3,0.3,0.6,0.9,0.9l0.8,0.3c1.4,0.6,2.1,1.3,2.1,2.4
		c0,1.6-1.3,2.8-3,2.8c-0.9,0-1.8-0.4-2.3-1c-0.3-0.4-0.5-0.9-0.7-1.6l1.7-0.4c0.1,0.6,0.2,0.8,0.3,1c0.2,0.3,0.6,0.5,1,0.5
		c0.7,0,1.2-0.5,1.2-1.2c0-0.4-0.3-0.7-1.2-1L206,313c-1.3-0.5-1.9-1.3-1.9-2.3c0-1.4,1.2-2.5,2.8-2.5c1.2,0,1.9,0.5,2.7,1.7
		L208.2,310.7z"/>
	<path class="st5" d="M215.9,309.9h-2v7h-1.7v-7h-2v-1.6h5.8V309.9z"/>
	<path class="st5" d="M221.6,309.9h-3.2v1.9h2.8v1.6h-2.8v1.9h3.3v1.6h-5v-8.5h4.9V309.9z"/>
	<path class="st5" d="M225.5,313.7L225.5,313.7L225.5,313.7l-0.5,0h-0.3v3.1H223v-8.5h2c0.9,0,1.5,0.1,2,0.4
		c0.8,0.5,1.3,1.4,1.3,2.3c0,0.9-0.4,1.7-1.2,2.2l2,3.6h-1.9L225.5,313.7z M225.1,312.2c1.1,0,1.6-0.4,1.6-1.2c0-0.4-0.2-0.8-0.5-1
		c-0.2-0.1-0.6-0.2-1-0.2h-0.4v2.3H225.1z"/>
	<path class="st5" d="M237.6,309.9h-2.9v1.9h2.6v1.6h-2.6v3.5H233v-8.5h4.6V309.9z"/>
	<path class="st5" d="M243.7,309.9h-3.2v1.9h2.8v1.6h-2.8v1.9h3.3v1.6h-5v-8.5h4.9V309.9z"/>
	<path class="st5" d="M249.9,309.9h-3.2v1.9h2.8v1.6h-2.8v1.9h3.3v1.6h-5v-8.5h4.9V309.9z"/>
	<path class="st5" d="M253.3,308.3c2.9,0,4.7,1.7,4.7,4.3c0,2.6-1.8,4.3-4.7,4.3h-2v-8.5H253.3z M253,315.3h0.4c1.8,0,2.9-1,2.9-2.7
		c0-1.7-1.1-2.7-2.9-2.7H253V315.3z"/>
	<path class="st5" d="M259.2,308.3h2c0.9,0,1.5,0.1,1.9,0.4c0.7,0.4,1.2,1.2,1.2,2c0,0.6-0.2,1.1-0.7,1.6c0.7,0.5,1.1,1.2,1.1,2
		c0,0.9-0.5,1.7-1.3,2.2c-0.5,0.3-1,0.4-1.8,0.4h-2.4V308.3z M261.4,311.8c0.5,0,0.7,0,0.9-0.1c0.3-0.2,0.5-0.5,0.5-0.9
		c0-0.3-0.1-0.6-0.3-0.7c-0.2-0.2-0.6-0.3-1.1-0.3h-0.5v2H261.4z M261.6,315.3c0.5,0,0.8,0,1-0.2c0.3-0.2,0.5-0.5,0.5-0.9
		c0-0.4-0.2-0.7-0.5-0.9c-0.3-0.2-0.6-0.2-1.2-0.2h-0.6v2.1H261.6z"/>
	<path class="st5" d="M267.5,314.9l-0.7,2h-1.8l3.2-8.5h2l3.2,8.5h-1.8l-0.7-2H267.5z M269.1,310.1l-1.1,3.1h2.3L269.1,310.1z"/>
	<path class="st5" d="M280,310.9c-0.8-0.9-1.4-1.2-2.2-1.2c-1.6,0-2.8,1.3-2.8,2.9c0,1.6,1.2,2.9,2.8,2.9c0.8,0,1.4-0.3,2.3-1.2
		l1.2,1.1c-1.1,1.2-2.1,1.7-3.5,1.7c-2.5,0-4.5-2-4.5-4.5c0-2.5,2-4.5,4.5-4.5c1.3,0,2.3,0.5,3.4,1.6L280,310.9z"/>
	<path class="st5" d="M289.2,316.8h-2l-2.4-3.7l-0.7,0.8v2.9h-1.7v-8.5h1.7v3.3l3.1-3.3h2.2l-3.4,3.6L289.2,316.8z"/>
</g>
<path class="st6" d="M86.1,221.9H14.5c-5,0-9-4-9-9v-59.8c0-5,4-9,9-9h71.6c5,0,9,4,9,9v59.8C95.1,217.9,91,221.9,86.1,221.9z"/>
<path class="st6" d="M203.3,221.9h-71.6c-5,0-9-4-9-9v-59.8c0-5,4-9,9-9h71.6c5,0,9,4,9,9v59.8C212.3,217.9,208.3,221.9,203.3,221.9
	z"/>
<path class="st6" d="M480.8,220.9h-71.6c-5,0-9-4-9-9v-59.8c0-5,4-9,9-9h71.6c5,0,9,4,9,9v59.8C489.8,216.9,485.8,220.9,480.8,220.9
	z"/>
<path class="st6" d="M320.6,174H249c-5,0-9-4-9-9v-59.8c0-5,4-9,9-9h71.6c5,0,9,4,9,9V165C329.6,169.9,325.6,174,320.6,174z"/>
<path class="st6" d="M320.6,267.8H249c-5,0-9-4-9-9V199c0-5,4-9,9-9h71.6c5,0,9,4,9,9v59.8C329.6,263.8,325.6,267.8,320.6,267.8z"/>
<g>
	<g>
		<line class="st7" x1="444.8" y1="296" x2="58.8" y2="296"/>
		<g>
			<polygon class="st8" points="63.2,281.1 37.3,296 63.2,311 			"/>
		</g>
	</g>
</g>
<g class="st4">
	<path class="st5" d="M17.9,159.3c-0.7-0.8-1.3-1.1-2-1.1c-1.4,0-2.6,1.2-2.6,2.6c0,1.5,1.1,2.6,2.6,2.6c0.8,0,1.3-0.3,2.1-1.1
		l1.1,1c-1,1.1-2,1.5-3.2,1.5c-2.3,0-4.2-1.8-4.2-4.1c0-2.3,1.9-4.1,4.2-4.1c1.2,0,2.1,0.4,3.1,1.5L17.9,159.3z"/>
	<path class="st5" d="M27.6,160.8c0,2.2-1.9,4.1-4.1,4.1c-2.3,0-4.1-1.8-4.1-4.2c0-2.2,1.9-4,4.1-4
		C25.7,156.7,27.6,158.6,27.6,160.8z M20.9,160.9c0,1.4,1.2,2.6,2.5,2.6c1.4,0,2.5-1.2,2.5-2.6c0-1.5-1.1-2.6-2.6-2.6
		S20.9,159.4,20.9,160.9z"/>
	<path class="st5" d="M28.7,156.9h1.4l2.5,4.3l2.5-4.3h1.4v7.8H35V160l-1.8,3.1H32l-1.8-3.1v4.7h-1.6V156.9z"/>
	<path class="st5" d="M38.1,156.9h1.4l2.5,4.3l2.5-4.3h1.4v7.8h-1.6V160l-1.8,3.1h-1.1l-1.8-3.1v4.7h-1.6V156.9z"/>
	<path class="st5" d="M49,164.7h-1.6v-7.8H49V164.7z"/>
	<path class="st5" d="M55,158.3h-1.9v6.4h-1.6v-6.4h-1.9v-1.4H55V158.3z"/>
	<path class="st5" d="M62,159.1c-0.5-0.7-0.7-0.9-1.2-0.9c-0.6,0-1,0.4-1,0.9c0,0.3,0.3,0.6,0.8,0.8l0.7,0.3
		c1.3,0.5,1.9,1.2,1.9,2.2c0,1.4-1.2,2.6-2.7,2.6c-0.8,0-1.6-0.4-2.1-0.9c-0.3-0.4-0.5-0.8-0.6-1.5l1.5-0.4c0.1,0.5,0.2,0.7,0.3,0.9
		c0.2,0.3,0.5,0.5,0.9,0.5c0.6,0,1.1-0.5,1.1-1.1c0-0.4-0.3-0.7-1.1-1l-0.7-0.3c-1.2-0.5-1.8-1.2-1.8-2.1c0-1.3,1.1-2.3,2.6-2.3
		c1.1,0,1.8,0.5,2.5,1.5L62,159.1z"/>
	<path class="st5" d="M69.1,158.3h-1.9v6.4h-1.6v-6.4h-1.9v-1.4h5.3V158.3z"/>
	<path class="st5" d="M70.7,162.9l-0.7,1.8h-1.6l2.9-7.8h1.8l2.9,7.8h-1.7l-0.6-1.8H70.7z M72.3,158.6l-1,2.9h2.1L72.3,158.6z"/>
	<path class="st5" d="M83.9,160.3v0.8c0,2.3-1.5,3.8-3.6,3.8c-2.3,0-4.2-1.8-4.2-4.1c0-2.3,1.9-4.1,4.2-4.1c1.2,0,2.1,0.4,3.1,1.5
		l-1.1,1c-0.8-0.8-1.3-1-2.1-1c-1.5,0-2.6,1.2-2.6,2.6s1.1,2.6,2.6,2.6c0.6,0,1.1-0.2,1.5-0.6c0.3-0.3,0.4-0.5,0.5-1h-2.1v-1.4H83.9
		z"/>
	<path class="st5" d="M89.6,158.3h-2.9v1.7h2.6v1.4h-2.6v1.8h3v1.5h-4.6v-7.8h4.5V158.3z"/>
</g>
<g class="st4">
	<path class="st5" d="M37.7,172.8c-0.6-0.6-1.1-0.9-1.8-0.9c-1.3,0-2.3,1-2.3,2.4c0,1.3,1,2.4,2.3,2.4c0.5,0,1-0.2,1.4-0.5
		c0.1-0.1,0.2-0.2,0.4-0.4l0.7,0.7c-0.8,0.8-1.5,1.2-2.5,1.2c-1.9,0-3.4-1.5-3.4-3.3s1.5-3.3,3.3-3.3c0.9,0,1.7,0.3,2.5,1.1
		L37.7,172.8z"/>
	<path class="st5" d="M45.5,174.3c0,1.8-1.5,3.3-3.3,3.3c-1.9,0-3.3-1.5-3.3-3.4c0-1.8,1.5-3.3,3.3-3.3
		C44,171,45.5,172.5,45.5,174.3z M39.9,174.4c0,1.3,1.1,2.4,2.3,2.4c1.3,0,2.3-1.1,2.3-2.4c0-1.3-1-2.4-2.3-2.4
		C40.9,171.9,39.9,173,39.9,174.4z"/>
	<path class="st5" d="M46.5,171.1h1l2.2,3.9l2.2-3.9h1v6.4h-1V173l-1.8,3.1h-0.8l-1.8-3.1v4.5h-1V171.1z"/>
	<path class="st5" d="M55.7,171.1c0.6,0,1,0.1,1.4,0.3c0.6,0.3,0.9,1,0.9,1.7c0,0.7-0.4,1.4-0.9,1.7c-0.3,0.2-0.7,0.3-1.4,0.3h-0.4
		v2.5h-1v-6.4H55.7z M55.7,174.1c0.5,0,0.8-0.1,1-0.3c0.2-0.2,0.2-0.5,0.2-0.8c0-0.4-0.2-0.7-0.5-0.9c-0.2-0.1-0.4-0.1-0.8-0.1h-0.5
		v2.1H55.7z"/>
	<path class="st5" d="M59.8,177.5h-1v-6.4h1V177.5z"/>
	<path class="st5" d="M62.2,176.6h2.4v0.9h-3.4v-6.4h1V176.6z"/>
	<path class="st5" d="M66.3,172v1.8h2.2v0.9h-2.2v1.9h2.6v0.9h-3.6v-6.4h3.5v0.9H66.3z"/>
</g>
<g class="st4">
	<path class="st5" d="M32.6,182.6v3.9c0,0.6,0,0.8,0.2,1c0.2,0.4,0.7,0.6,1.2,0.6c0.5,0,1-0.2,1.2-0.6c0.1-0.2,0.2-0.5,0.2-1v-3.9h1
		v4.1c0,0.6-0.1,1-0.3,1.3c-0.4,0.7-1.2,1.1-2.1,1.1c-0.9,0-1.7-0.4-2.1-1.1c-0.2-0.3-0.3-0.7-0.3-1.3v-4.1H32.6z"/>
	<path class="st5" d="M37.8,182.6h0.9l3.5,4.7v-4.7h1v6.4h-0.9l-3.5-4.7v4.7h-1V182.6z"/>
	<path class="st5" d="M45.6,189h-1v-6.4h1V189z"/>
	<path class="st5" d="M48.8,183.5v5.5h-1v-5.5h-1.6v-0.9h4.2v0.9H48.8z"/>
	<path class="st5" d="M55.3,183.5v5.5h-1v-5.5h-1.6v-0.9h4.2v0.9H55.3z"/>
	<path class="st5" d="M58.6,183.5v1.8h2.2v0.9h-2.2v1.9h2.6v0.9h-3.6v-6.4H61v0.9H58.6z"/>
	<path class="st5" d="M65,184.2c-0.4-0.6-0.6-0.7-1.1-0.7c-0.5,0-1,0.4-1,0.9c0,0.3,0.3,0.6,0.8,0.8l0.6,0.2c1.1,0.4,1.5,1,1.5,1.8
		c0,1.1-0.9,2-2.1,2c-0.7,0-1.3-0.3-1.6-0.7c-0.2-0.3-0.4-0.6-0.5-1.1l1-0.3l0,0.2c0.2,0.7,0.5,1,1.1,1c0.6,0,1.1-0.5,1.1-1.1
		c0-0.4-0.3-0.7-1-1l-0.6-0.2c-0.9-0.4-1.4-0.9-1.4-1.7c0-1,0.9-1.8,2-1.8c0.8,0,1.4,0.3,1.9,1.2L65,184.2z"/>
	<path class="st5" d="M69,183.5v5.5h-1v-5.5h-1.6v-0.9h4.2v0.9H69z"/>
</g>
<g class="st4">
	<path class="st5" d="M31.7,200.5h-1l2.4-6.4h1.2l2.4,6.4h-1.1l-0.6-1.7h-2.7L31.7,200.5z M34.7,197.9l-1-2.8l-1,2.8H34.7z"/>
	<path class="st5" d="M37.4,194.1h0.9l3.5,4.7v-4.7h1v6.4h-0.9l-3.5-4.7v4.7h-1V194.1z"/>
	<path class="st5" d="M44.5,200.5h-1l2.4-6.4h1.2l2.4,6.4h-1.1l-0.6-1.7h-2.7L44.5,200.5z M47.5,197.9l-1-2.8l-1,2.8H47.5z"/>
	<path class="st5" d="M51.2,199.6h2.4v0.9h-3.4v-6.4h1V199.6z"/>
	<path class="st5" d="M56,197.9v2.7h-1v-2.7l-2.1-3.7H54l1.5,2.7l1.5-2.7h1.1L56,197.9z"/>
	<path class="st5" d="M61.4,195.7c-0.4-0.6-0.6-0.7-1.1-0.7c-0.5,0-1,0.4-1,0.9c0,0.3,0.3,0.6,0.8,0.8l0.6,0.2
		c1.1,0.4,1.5,1,1.5,1.8c0,1.1-0.9,2-2.1,2c-0.7,0-1.3-0.3-1.6-0.7c-0.2-0.3-0.4-0.6-0.5-1.1l1-0.3l0,0.2c0.2,0.7,0.5,1,1.1,1
		c0.6,0,1.1-0.5,1.1-1.1c0-0.4-0.3-0.7-1-1l-0.6-0.2c-0.9-0.4-1.4-0.9-1.4-1.7c0-1,0.9-1.8,2-1.8c0.8,0,1.4,0.3,1.9,1.2L61.4,195.7z
		"/>
	<path class="st5" d="M64.4,200.5h-1v-6.4h1V200.5z"/>
	<path class="st5" d="M68.8,195.7c-0.4-0.6-0.6-0.7-1.1-0.7c-0.5,0-1,0.4-1,0.9c0,0.3,0.3,0.6,0.8,0.8l0.6,0.2
		c1.1,0.4,1.5,1,1.5,1.8c0,1.1-0.9,2-2.1,2c-0.7,0-1.3-0.3-1.6-0.7c-0.2-0.3-0.4-0.6-0.5-1.1l1-0.3l0,0.2c0.2,0.7,0.5,1,1.1,1
		c0.6,0,1.1-0.5,1.1-1.1c0-0.4-0.3-0.7-1-1l-0.6-0.2c-0.9-0.4-1.4-0.9-1.4-1.7c0-1,0.9-1.8,2-1.8c0.8,0,1.4,0.3,1.9,1.2L68.8,195.7z
		"/>
</g>
<g class="st4">
	<path class="st5" d="M14.8,205.6h1.4c0.6,0,1.1,0.1,1.4,0.3c0.5,0.3,0.8,0.9,0.8,1.5c0,0.5-0.2,0.9-0.6,1.2
		c0.6,0.3,0.9,0.9,0.9,1.6c0,0.7-0.3,1.2-1,1.6c-0.4,0.2-0.7,0.3-1.3,0.3h-1.7V205.6z M16.4,208.3c0.4,0,0.6,0,0.8-0.1
		c0.3-0.2,0.4-0.4,0.4-0.8c0-0.2-0.1-0.5-0.3-0.7c-0.2-0.1-0.5-0.2-0.9-0.2h-0.6v1.8H16.4z M16.5,211.1c0.4,0,0.7,0,0.9-0.2
		c0.3-0.2,0.5-0.5,0.5-0.8c0-0.3-0.2-0.6-0.4-0.8c-0.2-0.1-0.5-0.2-1-0.2h-0.6v1.9H16.5z"/>
	<path class="st5" d="M20.9,205.6v3.9c0,0.6,0,0.8,0.2,1c0.2,0.4,0.7,0.6,1.2,0.6c0.5,0,1-0.2,1.2-0.6c0.1-0.2,0.2-0.5,0.2-1v-3.9h1
		v4.1c0,0.6-0.1,1-0.3,1.3c-0.4,0.7-1.2,1.1-2.1,1.1c-0.9,0-1.7-0.4-2.1-1.1c-0.2-0.3-0.3-0.7-0.3-1.3v-4.1H20.9z"/>
	<path class="st5" d="M27,212h-1v-6.4h1V212z"/>
	<path class="st5" d="M29.4,211.1h2.4v0.9h-3.4v-6.4h1V211.1z"/>
	<path class="st5" d="M34,205.6c2.1,0,3.5,1.2,3.5,3.2c0,2-1.3,3.2-3.5,3.2h-1.4v-6.4H34z M33.6,211.1H34c1.5,0,2.4-0.9,2.4-2.3
		c0-1.4-0.9-2.3-2.4-2.3h-0.5V211.1z"/>
	<path class="st5" d="M41.8,212h-1v-6.4h1V212z"/>
	<path class="st5" d="M43.2,205.6h0.9l3.5,4.7v-4.7h1v6.4h-0.9l-3.5-4.7v4.7h-1V205.6z"/>
	<path class="st5" d="M52.9,207.2c-0.4-0.6-0.6-0.7-1.1-0.7c-0.5,0-1,0.4-1,0.9c0,0.3,0.3,0.6,0.8,0.8l0.6,0.2
		c1.1,0.4,1.5,1,1.5,1.8c0,1.1-0.9,2-2.1,2c-0.7,0-1.3-0.3-1.6-0.7c-0.2-0.3-0.4-0.6-0.5-1.1l1-0.3l0,0.2c0.2,0.7,0.5,1,1.1,1
		c0.6,0,1.1-0.5,1.1-1.1c0-0.4-0.3-0.7-1-1l-0.6-0.2c-0.9-0.4-1.4-0.9-1.4-1.7c0-1,0.9-1.8,2-1.8c0.8,0,1.4,0.3,1.9,1.2L52.9,207.2z
		"/>
	<path class="st5" d="M56.9,206.5v5.5h-1v-5.5h-1.6v-0.9h4.2v0.9H56.9z"/>
	<path class="st5" d="M59,212h-1l2.4-6.4h1.2l2.4,6.4H63l-0.6-1.7h-2.7L59,212z M62,209.4l-1-2.8l-1,2.8H62z"/>
	<path class="st5" d="M65.7,211.1h2.4v0.9h-3.4v-6.4h1V211.1z"/>
	<path class="st5" d="M69.9,211.1h2.4v0.9h-3.4v-6.4h1V211.1z"/>
	<path class="st5" d="M74,206.5v1.8h2.2v0.9H74v1.9h2.6v0.9H73v-6.4h3.5v0.9H74z"/>
	<path class="st5" d="M82,212h-1.1l-1.4-2.5c-0.2,0-0.3,0-0.5,0h-0.4v2.5h-1v-6.4h1.4c0.7,0,1.1,0.1,1.5,0.3c0.6,0.3,1,1,1,1.7
		c0,0.7-0.4,1.4-1,1.7L82,212z M79.2,208.6c0.4,0,0.7,0,0.9-0.2c0.3-0.2,0.5-0.5,0.5-0.9c0-0.4-0.2-0.7-0.5-0.9
		c-0.2-0.1-0.5-0.2-0.9-0.2h-0.5v2.1H79.2z"/>
	<path class="st5" d="M85.8,207.2c-0.4-0.6-0.6-0.7-1.1-0.7c-0.5,0-1,0.4-1,0.9c0,0.3,0.3,0.6,0.8,0.8l0.6,0.2
		c1.1,0.4,1.5,1,1.5,1.8c0,1.1-0.9,2-2.1,2c-0.7,0-1.3-0.3-1.6-0.7c-0.2-0.3-0.4-0.6-0.5-1.1l1-0.3l0,0.2c0.2,0.7,0.5,1,1.1,1
		c0.6,0,1.1-0.5,1.1-1.1c0-0.4-0.3-0.7-1-1l-0.6-0.2c-0.9-0.4-1.4-0.9-1.4-1.7c0-1,0.9-1.8,2-1.8c0.8,0,1.4,0.3,1.9,1.2L85.8,207.2z
		"/>
</g>
<g class="st4">
	<path class="st5" d="M134.6,178.7l-0.7,1.8h-1.6l2.9-7.8h1.8l2.9,7.8h-1.7l-0.6-1.8H134.6z M136.1,174.4l-1,2.9h2.1L136.1,174.4z"
		/>
	<path class="st5" d="M146.1,175.1c-0.7-0.8-1.3-1.1-2-1.1c-1.4,0-2.6,1.2-2.6,2.6c0,1.5,1.1,2.6,2.6,2.6c0.8,0,1.3-0.3,2.1-1.1
		l1.1,1c-1,1.1-2,1.5-3.2,1.5c-2.3,0-4.2-1.8-4.2-4.1c0-2.3,1.9-4.1,4.2-4.1c1.2,0,2.1,0.4,3.1,1.5L146.1,175.1z"/>
	<path class="st5" d="M153.7,175.1c-0.7-0.8-1.3-1.1-2-1.1c-1.4,0-2.6,1.2-2.6,2.6c0,1.5,1.1,2.6,2.6,2.6c0.8,0,1.3-0.3,2.1-1.1
		l1.1,1c-1,1.1-2,1.5-3.2,1.5c-2.3,0-4.2-1.8-4.2-4.1c0-2.3,1.9-4.1,4.2-4.1c1.2,0,2.1,0.4,3.1,1.5L153.7,175.1z"/>
	<path class="st5" d="M160.4,174.1h-2.9v1.7h2.6v1.4h-2.6v1.8h3v1.5h-4.6v-7.8h4.5V174.1z"/>
	<path class="st5" d="M163.2,180.5h-1.6v-7.8h1.9c0.8,0,1.3,0.1,1.7,0.4c0.7,0.4,1.2,1.2,1.2,2.1s-0.4,1.7-1.2,2.1
		c-0.4,0.2-0.9,0.4-1.7,0.4h-0.3V180.5z M163.6,176.3c0.9,0,1.2-0.3,1.2-1.1s-0.4-1.1-1.2-1.1h-0.4v2.1H163.6z"/>
	<path class="st5" d="M171.9,174.1h-1.9v6.4h-1.6v-6.4h-1.9v-1.4h5.3V174.1z"/>
	<path class="st5" d="M173.6,178.7l-0.7,1.8h-1.6l2.9-7.8h1.8l2.9,7.8h-1.7l-0.6-1.8H173.6z M175.1,174.4l-1,2.9h2.1L175.1,174.4z"
		/>
	<path class="st5" d="M179.7,172.7h1.3l3.8,5.1v-5.1h1.6v7.8h-1.3l-3.8-5.1v5.1h-1.6V172.7z"/>
	<path class="st5" d="M193.7,175.1c-0.7-0.8-1.3-1.1-2-1.1c-1.4,0-2.6,1.2-2.6,2.6c0,1.5,1.1,2.6,2.6,2.6c0.8,0,1.3-0.3,2.1-1.1
		l1.1,1c-1,1.1-2,1.5-3.2,1.5c-2.3,0-4.2-1.8-4.2-4.1c0-2.3,1.9-4.1,4.2-4.1c1.2,0,2.1,0.4,3.1,1.5L193.7,175.1z"/>
	<path class="st5" d="M200.4,174.1h-2.9v1.7h2.6v1.4h-2.6v1.8h3v1.5h-4.6v-7.8h4.5V174.1z"/>
</g>
<g class="st4">
	<path class="st5" d="M143.3,188.2h-1.9v6.4h-1.6v-6.4H138v-1.4h5.3V188.2z"/>
	<path class="st5" d="M148.5,188.2h-2.9v1.7h2.6v1.4h-2.6v1.8h3v1.5H144v-7.8h4.5V188.2z"/>
	<path class="st5" d="M153.3,189c-0.5-0.7-0.7-0.9-1.2-0.9c-0.6,0-1,0.4-1,0.9c0,0.3,0.3,0.6,0.8,0.8l0.7,0.3
		c1.3,0.5,1.9,1.2,1.9,2.2c0,1.4-1.2,2.6-2.7,2.6c-0.8,0-1.6-0.4-2.1-0.9c-0.3-0.4-0.5-0.8-0.6-1.5l1.5-0.4c0.1,0.5,0.2,0.7,0.3,0.9
		c0.2,0.3,0.5,0.5,0.9,0.5c0.6,0,1.1-0.5,1.1-1.1c0-0.4-0.3-0.7-1.1-0.9l-0.7-0.3c-1.2-0.5-1.8-1.2-1.8-2.1c0-1.3,1.1-2.3,2.6-2.3
		c1.1,0,1.8,0.5,2.5,1.5L153.3,189z"/>
	<path class="st5" d="M160.5,188.2h-1.9v6.4H157v-6.4h-1.9v-1.4h5.3V188.2z"/>
	<path class="st5" d="M167.4,189c-0.5-0.7-0.7-0.9-1.2-0.9c-0.6,0-1,0.4-1,0.9c0,0.3,0.3,0.6,0.8,0.8l0.7,0.3
		c1.3,0.5,1.9,1.2,1.9,2.2c0,1.4-1.2,2.6-2.7,2.6c-0.8,0-1.6-0.4-2.1-0.9c-0.3-0.4-0.5-0.8-0.6-1.5l1.5-0.4c0.1,0.5,0.2,0.7,0.3,0.9
		c0.2,0.3,0.5,0.5,0.9,0.5c0.6,0,1.1-0.5,1.1-1.1c0-0.4-0.3-0.7-1.1-0.9l-0.7-0.3c-1.2-0.5-1.8-1.2-1.8-2.1c0-1.3,1.1-2.3,2.6-2.3
		c1.1,0,1.8,0.5,2.5,1.5L167.4,189z"/>
	<path class="st5" d="M174.5,188.2h-1.9v6.4h-1.6v-6.4h-1.9v-1.4h5.3V188.2z"/>
	<path class="st5" d="M176.2,192.8l-0.7,1.8h-1.6l2.9-7.8h1.8l2.9,7.8h-1.7l-0.6-1.8H176.2z M177.7,188.5l-1,2.9h2.1L177.7,188.5z"
		/>
	<path class="st5" d="M189.4,190.2v0.8c0,2.3-1.5,3.8-3.6,3.8c-2.3,0-4.2-1.8-4.2-4.1c0-2.3,1.9-4.1,4.2-4.1c1.2,0,2.1,0.4,3.1,1.5
		l-1.1,1c-0.8-0.8-1.3-1-2.1-1c-1.5,0-2.6,1.2-2.6,2.6s1.1,2.6,2.6,2.6c0.6,0,1.1-0.2,1.5-0.6c0.3-0.3,0.4-0.5,0.5-1h-2.1v-1.4
		H189.4z"/>
	<path class="st5" d="M195,188.2h-2.9v1.7h2.6v1.4h-2.6v1.8h3v1.5h-4.6v-7.8h4.5V188.2z"/>
</g>
<g class="st4">
	<path class="st5" d="M274.7,122.4c0,0.6,0,0.9,0.2,1.1c0.2,0.4,0.7,0.6,1.3,0.6s1-0.3,1.3-0.6c0.1-0.2,0.2-0.5,0.2-1.1v-4.8h1.6v5
		c0,0.7-0.1,1.2-0.4,1.6c-0.5,0.9-1.5,1.4-2.6,1.4s-2.1-0.6-2.6-1.4c-0.2-0.4-0.3-0.9-0.3-1.6v-5h1.6V122.4z"/>
	<path class="st5" d="M284.3,119.7c-0.5-0.7-0.7-0.9-1.2-0.9c-0.6,0-1,0.4-1,0.9c0,0.3,0.3,0.6,0.8,0.8l0.7,0.3
		c1.3,0.5,1.9,1.2,1.9,2.2c0,1.4-1.2,2.6-2.7,2.6c-0.8,0-1.6-0.4-2.1-0.9c-0.3-0.4-0.5-0.8-0.6-1.5l1.5-0.4c0.1,0.5,0.2,0.7,0.3,0.9
		c0.2,0.3,0.5,0.5,0.9,0.5c0.6,0,1.1-0.5,1.1-1.1c0-0.4-0.3-0.7-1.1-1l-0.7-0.3c-1.2-0.5-1.8-1.2-1.8-2.1c0-1.3,1.1-2.3,2.6-2.3
		c1.1,0,1.8,0.5,2.5,1.5L284.3,119.7z"/>
	<path class="st5" d="M291.3,119h-2.9v1.7h2.6v1.4h-2.6v1.8h3v1.5h-4.6v-7.8h4.5V119z"/>
	<path class="st5" d="M294.8,122.6L294.8,122.6L294.8,122.6l-0.4,0h-0.3v2.8h-1.6v-7.8h1.9c0.8,0,1.4,0.1,1.9,0.4
		c0.8,0.4,1.2,1.2,1.2,2.1c0,0.8-0.4,1.6-1.1,2l1.8,3.3h-1.8L294.8,122.6z M294.5,121.1c1,0,1.4-0.3,1.4-1.1c0-0.4-0.2-0.7-0.5-0.9
		c-0.2-0.1-0.5-0.2-1-0.2h-0.4v2.1H294.5z"/>
</g>
<g class="st4">
	<path class="st5" d="M252.9,137.7l-0.7,1.8h-1.6l2.9-7.8h1.8l2.9,7.8h-1.7l-0.6-1.8H252.9z M254.5,133.3l-1,2.9h2.1L254.5,133.3z"
		/>
	<path class="st5" d="M264.5,134c-0.7-0.8-1.3-1.1-2-1.1c-1.4,0-2.6,1.2-2.6,2.6c0,1.5,1.1,2.6,2.6,2.6c0.8,0,1.3-0.3,2.1-1.1l1.1,1
		c-1,1.1-2,1.5-3.2,1.5c-2.3,0-4.2-1.8-4.2-4.1c0-2.3,1.9-4.1,4.2-4.1c1.2,0,2.1,0.4,3.1,1.5L264.5,134z"/>
	<path class="st5" d="M272.1,134c-0.7-0.8-1.3-1.1-2-1.1c-1.4,0-2.6,1.2-2.6,2.6c0,1.5,1.1,2.6,2.6,2.6c0.8,0,1.3-0.3,2.1-1.1l1.1,1
		c-1,1.1-2,1.5-3.2,1.5c-2.3,0-4.2-1.8-4.2-4.1c0-2.3,1.9-4.1,4.2-4.1c1.2,0,2.1,0.4,3.1,1.5L272.1,134z"/>
	<path class="st5" d="M278.7,133.1h-2.9v1.7h2.6v1.4h-2.6v1.8h3v1.5h-4.6v-7.8h4.5V133.1z"/>
	<path class="st5" d="M281.5,139.5H280v-7.8h1.9c0.8,0,1.3,0.1,1.7,0.4c0.7,0.4,1.2,1.2,1.2,2.1s-0.4,1.7-1.2,2.1
		c-0.4,0.2-0.9,0.4-1.7,0.4h-0.3V139.5z M281.9,135.2c0.9,0,1.2-0.3,1.2-1.1s-0.4-1.1-1.2-1.1h-0.4v2.1H281.9z"/>
	<path class="st5" d="M290.3,133.1h-1.9v6.4h-1.6v-6.4h-1.9v-1.4h5.3V133.1z"/>
	<path class="st5" d="M291.9,137.7l-0.7,1.8h-1.6l2.9-7.8h1.8l2.9,7.8h-1.7l-0.6-1.8H291.9z M293.4,133.3l-1,2.9h2.1L293.4,133.3z"
		/>
	<path class="st5" d="M298,131.7h1.3l3.8,5.1v-5.1h1.6v7.8h-1.3l-3.8-5.1v5.1H298V131.7z"/>
	<path class="st5" d="M312,134c-0.7-0.8-1.3-1.1-2-1.1c-1.4,0-2.6,1.2-2.6,2.6c0,1.5,1.1,2.6,2.6,2.6c0.8,0,1.3-0.3,2.1-1.1l1.1,1
		c-1,1.1-2,1.5-3.2,1.5c-2.3,0-4.2-1.8-4.2-4.1c0-2.3,1.9-4.1,4.2-4.1c1.2,0,2.1,0.4,3.1,1.5L312,134z"/>
	<path class="st5" d="M318.7,133.1h-2.9v1.7h2.6v1.4h-2.6v1.8h3v1.5h-4.6v-7.8h4.5V133.1z"/>
</g>
<g class="st4">
	<path class="st5" d="M269.5,147.1h-1.9v6.4h-1.6v-6.4h-1.9v-1.4h5.3V147.1z"/>
	<path class="st5" d="M274.7,147.1h-2.9v1.7h2.6v1.4h-2.6v1.8h3v1.5h-4.6v-7.8h4.5V147.1z"/>
	<path class="st5" d="M279.6,147.8c-0.5-0.7-0.7-0.9-1.2-0.9c-0.6,0-1,0.4-1,0.9c0,0.3,0.3,0.6,0.8,0.8l0.7,0.3
		c1.3,0.5,1.9,1.2,1.9,2.2c0,1.4-1.2,2.6-2.7,2.6c-0.8,0-1.6-0.4-2.1-0.9c-0.3-0.4-0.5-0.8-0.6-1.5l1.5-0.4c0.1,0.5,0.2,0.7,0.3,0.9
		c0.2,0.3,0.5,0.5,0.9,0.5c0.6,0,1.1-0.5,1.1-1.1c0-0.4-0.3-0.7-1.1-1l-0.7-0.3c-1.2-0.5-1.8-1.2-1.8-2.1c0-1.3,1.1-2.3,2.6-2.3
		c1.1,0,1.8,0.5,2.5,1.5L279.6,147.8z"/>
	<path class="st5" d="M286.7,147.1h-1.9v6.4h-1.6v-6.4h-1.9v-1.4h5.3V147.1z"/>
	<path class="st5" d="M288.9,153.5h-1.6v-7.8h1.6V153.5z"/>
	<path class="st5" d="M290.5,145.7h1.3l3.8,5.1v-5.1h1.6v7.8h-1.3l-3.8-5.1v5.1h-1.6V145.7z"/>
	<path class="st5" d="M306.2,149.1v0.8c0,2.3-1.5,3.8-3.6,3.8c-2.3,0-4.2-1.8-4.2-4.1c0-2.3,1.9-4.1,4.2-4.1c1.2,0,2.1,0.4,3.1,1.5
		l-1.1,1c-0.8-0.8-1.3-1-2.1-1c-1.5,0-2.6,1.2-2.6,2.6s1.1,2.6,2.6,2.6c0.6,0,1.2-0.2,1.5-0.6c0.3-0.3,0.4-0.5,0.5-1h-2.1v-1.4
		H306.2z"/>
</g>
<g class="st4">
	<path class="st5" d="M266.3,222.2c-0.7-0.8-1.3-1.1-2-1.1c-1.4,0-2.6,1.2-2.6,2.6c0,1.5,1.1,2.6,2.6,2.6c0.8,0,1.3-0.3,2.1-1.1
		l1.1,1c-1,1.1-2,1.5-3.2,1.5c-2.3,0-4.2-1.8-4.2-4.1c0-2.3,1.9-4.1,4.2-4.1c1.2,0,2.1,0.4,3.1,1.5L266.3,222.2z"/>
	<path class="st5" d="M269.9,225.9l-0.7,1.8h-1.6l2.9-7.8h1.8l2.9,7.8h-1.7l-0.6-1.8H269.9z M271.5,221.5l-1,2.9h2.1L271.5,221.5z"
		/>
	<path class="st5" d="M277.6,227.7H276v-7.8h1.9c0.8,0,1.3,0.1,1.7,0.4c0.7,0.4,1.2,1.2,1.2,2.1s-0.4,1.7-1.2,2.1
		c-0.4,0.2-0.9,0.4-1.7,0.4h-0.3V227.7z M278,223.4c0.9,0,1.2-0.3,1.2-1.1s-0.4-1.1-1.2-1.1h-0.4v2.1H278z"/>
	<path class="st5" d="M282.6,225.9l-0.7,1.8h-1.6l2.9-7.8h1.8l2.9,7.8h-1.7l-0.6-1.8H282.6z M284.1,221.5l-1,2.9h2.1L284.1,221.5z"
		/>
	<path class="st5" d="M294.2,222.2c-0.7-0.8-1.3-1.1-2-1.1c-1.4,0-2.6,1.2-2.6,2.6c0,1.5,1.1,2.6,2.6,2.6c0.8,0,1.3-0.3,2.1-1.1
		l1.1,1c-1,1.1-2,1.5-3.2,1.5c-2.3,0-4.2-1.8-4.2-4.1c0-2.3,1.9-4.1,4.2-4.1c1.2,0,2.1,0.4,3.1,1.5L294.2,222.2z"/>
	<path class="st5" d="M297.9,227.7h-1.6v-7.8h1.6V227.7z"/>
	<path class="st5" d="M303.9,221.3H302v6.4h-1.6v-6.4h-1.9v-1.4h5.3V221.3z"/>
	<path class="st5" d="M304.1,219.9h1.7l1.6,3l1.6-3h1.7l-2.6,4.6v3.2h-1.6v-3.2L304.1,219.9z"/>
</g>
<g class="st4">
	<path class="st5" d="M269.5,235.4h-1.9v6.4h-1.6v-6.4h-1.9V234h5.3V235.4z"/>
	<path class="st5" d="M274.7,235.4h-2.9v1.7h2.6v1.4h-2.6v1.8h3v1.5h-4.6V234h4.5V235.4z"/>
	<path class="st5" d="M279.5,236.1c-0.5-0.7-0.7-0.9-1.2-0.9c-0.6,0-1,0.4-1,0.9c0,0.3,0.3,0.6,0.8,0.8l0.7,0.3
		c1.3,0.5,1.9,1.2,1.9,2.2c0,1.4-1.2,2.6-2.7,2.6c-0.8,0-1.6-0.4-2.1-0.9c-0.3-0.4-0.5-0.8-0.6-1.5l1.5-0.4c0.1,0.5,0.2,0.7,0.3,0.9
		c0.2,0.3,0.5,0.5,0.9,0.5c0.6,0,1.1-0.5,1.1-1.1c0-0.4-0.3-0.7-1.1-1l-0.7-0.3c-1.2-0.5-1.8-1.2-1.8-2.1c0-1.3,1.1-2.3,2.6-2.3
		c1.1,0,1.8,0.5,2.5,1.5L279.5,236.1z"/>
	<path class="st5" d="M286.7,235.4h-1.9v6.4h-1.6v-6.4h-1.9V234h5.3V235.4z"/>
	<path class="st5" d="M288.9,241.8h-1.6V234h1.6V241.8z"/>
	<path class="st5" d="M290.5,234h1.3l3.8,5.1V234h1.6v7.8h-1.3l-3.8-5.1v5.1h-1.6V234z"/>
	<path class="st5" d="M306.2,237.4v0.8c0,2.3-1.5,3.8-3.6,3.8c-2.3,0-4.2-1.8-4.2-4.1c0-2.3,1.9-4.1,4.2-4.1c1.2,0,2.1,0.4,3.1,1.5
		l-1.1,1c-0.8-0.8-1.3-1-2.1-1c-1.5,0-2.6,1.2-2.6,2.6s1.1,2.6,2.6,2.6c0.6,0,1.2-0.2,1.5-0.6c0.3-0.3,0.4-0.5,0.5-1h-2.1v-1.4
		H306.2z"/>
</g>
<g class="st4">
	<path class="st5" d="M412.8,187.2h-1.6v-7.8h1.9c0.8,0,1.3,0.1,1.7,0.4c0.7,0.4,1.2,1.2,1.2,2.1s-0.4,1.7-1.2,2.1
		c-0.4,0.2-0.9,0.4-1.7,0.4h-0.3V187.2z M413.2,182.9c0.9,0,1.2-0.3,1.2-1.1s-0.4-1.1-1.2-1.1h-0.4v2.1H413.2z"/>
	<path class="st5" d="M419.1,184.3L419.1,184.3L419.1,184.3l-0.4,0h-0.3v2.8h-1.6v-7.8h1.9c0.8,0,1.4,0.1,1.9,0.4
		c0.8,0.4,1.2,1.2,1.2,2.1c0,0.8-0.4,1.6-1.1,2l1.8,3.3h-1.8L419.1,184.3z M418.7,182.9c1,0,1.4-0.3,1.4-1.1c0-0.4-0.2-0.7-0.5-0.9
		c-0.2-0.1-0.5-0.2-1-0.2h-0.4v2.1H418.7z"/>
	<path class="st5" d="M430.9,183.3c0,2.2-1.9,4.1-4.1,4.1c-2.3,0-4.1-1.8-4.1-4.2c0-2.2,1.9-4,4.1-4
		C429.1,179.2,430.9,181,430.9,183.3z M424.3,183.3c0,1.4,1.2,2.6,2.5,2.6c1.4,0,2.5-1.2,2.5-2.6c0-1.5-1.1-2.6-2.6-2.6
		S424.3,181.8,424.3,183.3z"/>
	<path class="st5" d="M433.9,179.4c2.6,0,4.3,1.5,4.3,3.9s-1.7,3.9-4.3,3.9h-1.9v-7.8H433.9z M433.6,185.7h0.3
		c1.7,0,2.7-0.9,2.7-2.5c0-1.5-1-2.5-2.7-2.5h-0.3V185.7z"/>
	<path class="st5" d="M440.9,184.2c0,0.6,0,0.9,0.2,1.1c0.2,0.4,0.7,0.6,1.3,0.6s1-0.3,1.3-0.6c0.1-0.2,0.2-0.5,0.2-1.1v-4.8h1.6v5
		c0,0.7-0.1,1.2-0.4,1.6c-0.5,0.9-1.5,1.4-2.6,1.4s-2.1-0.6-2.6-1.4c-0.2-0.4-0.3-0.9-0.3-1.6v-5h1.6V184.2z"/>
	<path class="st5" d="M452.6,181.7c-0.7-0.8-1.3-1.1-2-1.1c-1.4,0-2.6,1.2-2.6,2.6c0,1.5,1.1,2.6,2.6,2.6c0.8,0,1.3-0.3,2.1-1.1
		l1.1,1c-1,1.1-2,1.5-3.2,1.5c-2.3,0-4.2-1.8-4.2-4.1c0-2.3,1.9-4.1,4.2-4.1c1.2,0,2.1,0.4,3.1,1.5L452.6,181.7z"/>
	<path class="st5" d="M459.4,180.8h-1.9v6.4H456v-6.4h-1.9v-1.4h5.3V180.8z"/>
	<path class="st5" d="M461.7,187.2h-1.6v-7.8h1.6V187.2z"/>
	<path class="st5" d="M471.1,183.3c0,2.2-1.9,4.1-4.1,4.1c-2.3,0-4.1-1.8-4.1-4.2c0-2.2,1.9-4,4.1-4
		C469.2,179.2,471.1,181,471.1,183.3z M464.4,183.3c0,1.4,1.2,2.6,2.5,2.6c1.4,0,2.5-1.2,2.5-2.6c0-1.5-1.1-2.6-2.6-2.6
		S464.4,181.8,464.4,183.3z"/>
	<path class="st5" d="M472.2,179.4h1.3l3.8,5.1v-5.1h1.6v7.8h-1.3l-3.8-5.1v5.1h-1.6V179.4z"/>
</g>
<g>
	<g>
		<line class="st9" x1="112.6" y1="183" x2="98" y2="183"/>
		<g>
			<polygon class="st5" points="110.8,177 121.2,183 110.8,189 			"/>
		</g>
	</g>
</g>
<g>
	<g>
		<line class="st9" x1="390.7" y1="181" x2="376.1" y2="181"/>
		<g>
			<polygon class="st5" points="388.9,175 399.3,181 388.9,187 			"/>
		</g>
	</g>
</g>
<g>
	<g>
		<line class="st9" x1="231" y1="154.2" x2="216.1" y2="164.9"/>
		<g>
			<polygon class="st5" points="226.1,150.4 238,149.2 233.1,160.1 			"/>
		</g>
	</g>
</g>
<g>
	<g>
		<line class="st9" x1="231" y1="210.8" x2="216.1" y2="200.1"/>
		<g>
			<polygon class="st5" points="233.1,204.9 238,215.8 226.1,214.6 			"/>
		</g>
	</g>
</g>
<g>
	<g>
		<line class="st9" x1="347.2" y1="160.6" x2="332.2" y2="150"/>
		<g>
			<polygon class="st5" points="349.2,154.8 354.2,165.6 342.3,164.5 			"/>
		</g>
	</g>
</g>
<g>
	<g>
		<line class="st9" x1="347.2" y1="201.2" x2="332.2" y2="211.8"/>
		<g>
			<polygon class="st5" points="342.3,197.3 354.2,196.1 349.2,207 			"/>
		</g>
	</g>
</g>
<path class="st6" d="M354.8,195.2L344.6,185c-2-2-2-5.1,0-7.1l10.3-10.3c2-2,5.1-2,7.1,0l10.3,10.3c2,2,2,5.1,0,7.1L362,195.3
	C359.9,197.2,356.8,197.2,354.8,195.2z"/>
</svg>
