<?xml version="1.0" encoding="utf-8"?>
<!-- Generator: Adobe Illustrator 21.1.0, SVG Export Plug-In . SVG Version: 6.00 Build 0)  -->
<svg version="1.1" id="Layer_1" xmlns="http://www.w3.org/2000/svg" xmlns:xlink="http://www.w3.org/1999/xlink" x="0px" y="0px"
	 viewBox="0 0 563.5 424" style="enable-background:new 0 0 563.5 424;" xml:space="preserve">
<style type="text/css">
	.st0{fill:#EFEFEF;stroke:#1C425C;stroke-width:3;stroke-miterlimit:10;}
	.st1{fill:#1C425C;}
	.st2{font-family:'URWGeometric-ExtraBold';}
	.st3{font-size:11.7286px;}
	.st4{font-family:'URWGeometric-SemiBold';}
	.st5{font-size:9px;}
	.st6{fill:#BDD350;}
	.st7{fill:#36B1BF;}
	.st8{font-family:'URWGeometric-Heavy';}
	.st9{font-size:14px;}
	.st10{font-size:11px;}
	.st11{font-size:7px;}
	.st12{font-size:8px;}
	.st13{fill:none;stroke:#1C425C;stroke-width:3;stroke-miterlimit:10;}
	.st14{fill:#FFD34E;}
	.st15{fill:none;stroke:#023550;stroke-width:3;stroke-miterlimit:10;}
	.st16{fill:none;}
	.st17{fill:#E74C3C;}
	.st18{fill:none;stroke:#F48E36;stroke-width:9;stroke-miterlimit:10;}
	.st19{fill:#F48E36;}
</style>
<path class="st0" d="M128.4,257.2h-102c-5,0-9-4-9-9v-67c0-5,4-9,9-9h102c5,0,9,4,9,9v67C137.4,253.2,133.4,257.2,128.4,257.2z"/>
<text transform="matrix(1 0 0 1 42.8643 192.7236)" class="st1 st2 st3">COMMIT STAGE</text>
<text transform="matrix(1 0 0 1 64.8955 209.5186)" class="st1 st4 st5">COMPILE</text>
<text transform="matrix(1 0 0 1 63.6955 220.3186)" class="st1 st4 st5">UNIT TEST</text>
<text transform="matrix(1 0 0 1 63.3955 231.1186)" class="st1 st4 st5">ANALYSIS</text>
<text transform="matrix(1 0 0 1 47.8955 241.9186)" class="st1 st4 st5">BUILD INSTALLERS</text>
<g>
	<path class="st0" d="M448.3,155h-102c-5,0-9-4-9-9V79c0-5,4-9,9-9h102c5,0,9,4,9,9v67C457.3,151,453.3,155,448.3,155z"/>
	<text transform="matrix(1 0 0 1 344.707 112.5186)" class="st1 st4 st5">CONFIGURE ENVIRONMENT</text>
	<text transform="matrix(1 0 0 1 364.807 123.3186)" class="st1 st4 st5">DEPLOY BINARIES</text>
	<text transform="matrix(1 0 0 1 374.707 134.1186)" class="st1 st4 st5">SMOKE TEST</text>
	<text transform="matrix(1 0 0 1 386.7646 90.4053)" class="st1 st2 st3">UAT</text>
</g>
<g>
	<path class="st0" d="M448.3,257.1h-102c-5,0-9-4-9-9v-67c0-5,4-9,9-9h102c5,0,9,4,9,9v67C457.3,253.1,453.3,257.1,448.3,257.1z"/>
	<text transform="matrix(1 0 0 1 344.707 209.5186)" class="st1 st4 st5">CONFIGURE ENVIRONMENT</text>
	<text transform="matrix(1 0 0 1 364.807 220.3186)" class="st1 st4 st5">DEPLOY BINARIES</text>
	<text transform="matrix(1 0 0 1 374.707 231.1186)" class="st1 st4 st5">SMOKE TEST</text>
	<text transform="matrix(1 0 0 1 357.607 241.9186)" class="st1 st4 st5">RUN CAPACITY TESTS</text>
	<text transform="matrix(1 0 0 1 348.8296 191.5186)" class="st1 st2 st3">CAPACITY TESTING</text>
</g>
<g>
	<path class="st0" d="M448.3,359.1h-102c-5,0-9-4-9-9v-67c0-5,4-9,9-9h102c5,0,9,4,9,9v67C457.3,355.1,453.3,359.1,448.3,359.1z"/>
	<text transform="matrix(1 0 0 1 345.9422 314.5186)" class="st1 st4 st5">CONFIGURE ENVIRONMENT</text>
	<text transform="matrix(1 0 0 1 366.0422 325.3186)" class="st1 st4 st5">DEPLOY BINARIES</text>
	<text transform="matrix(1 0 0 1 375.9422 336.1186)" class="st1 st4 st5">SMOKE TEST</text>
	<text transform="matrix(1 0 0 1 362.647 296.1807)" class="st1 st2 st3">PRODUCTION</text>
</g>
<path class="st6" d="M505.5,417H35.3c-5,0-9-4-9-9v-31c0-5,4-9,9-9h470.2c5,0,9,4,9,9v31C514.5,413,510.5,417,505.5,417z"/>
<path class="st7" d="M504.3,62.5H34.1c-5,0-9-4-9-9V13c0-5,4-9,9-9h470.2c5,0,9,4,9,9v40.5C513.3,58.5,509.2,62.5,504.3,62.5z"/>
<text transform="matrix(1 0 0 1 196.6456 398)" class="st1 st8 st9">ARTIFACT REPOSITORY</text>
<text transform="matrix(1 0 0 1 210.0503 21)" class="st1 st8 st9">VERSION CONTROL</text>
<text transform="matrix(1 0 0 1 103.6011 48.8)" class="st1 st2 st5">SOURCE CODE</text>
<text transform="matrix(1 0 0 1 240.5272 45.7001)" class="st1 st2 st5">ENVIRONMENT</text>
<text transform="matrix(1 0 0 1 240.4272 55.7001)" class="st1 st2 st5"> &amp; APP CONFIG</text>
<text transform="matrix(1 0 0 1 128.2944 136)" class="st1 st8 st10">DEVELOPERS</text>
<text transform="matrix(1 0 0 1 129.6147 146)" class="st1 st2 st11">SEE CODE METRICS</text>
<text transform="matrix(1 0 0 1 129.3147 154.4)" class="st1 st2 st11">AND TEST FAILURES</text>
<text transform="matrix(1 0 0 1 165.5 352)" class="st1 st2 st12">BINARIES</text>
<text transform="matrix(1 0 0 1 281.5 352)" class="st1 st2 st12">BINARIES</text>
<text transform="matrix(1 0 0 1 223.5 352)" class="st1 st2 st12">REPORTS</text>
<text transform="matrix(1 0 0 1 223.5 361.6)" class="st1 st2 st12">METADATA</text>
<text transform="matrix(1 0 0 1 501.5 352)" class="st1 st2 st12">REPORTS</text>
<text transform="matrix(1 0 0 1 501.5 361.6)" class="st1 st2 st12">METADATA</text>
<text transform="matrix(1 0 0 1 243.228 117)" class="st1 st8 st10">TESTERS</text>
<text transform="matrix(1 0 0 1 242.2773 127)" class="st1 st2 st11">SELF-SERVICE</text>
<text transform="matrix(1 0 0 1 240.4773 135.4)" class="st1 st2 st11">DEPLOYMENTS</text>
<text transform="matrix(1 0 0 1 231.2769 299)" class="st1 st8 st10">OPERATIONS</text>
<text transform="matrix(1 0 0 1 248.1396 309)" class="st1 st2 st11">PERFORM</text>
<text transform="matrix(1 0 0 1 241.1396 317.4)" class="st1 st2 st11">PUSH-BUTTON</text>
<text transform="matrix(1 0 0 1 247.9396 325.8)" class="st1 st2 st11">RELEASES</text>
<text transform="matrix(1 0 0 1 396.3498 43.8002)" class="st1 st2 st5">ENVIRONMENT </text>
<text transform="matrix(1 0 0 1 398.2498 53.8002)" class="st1 st2 st5">&amp; APP CONFIG</text>
<g>
	<g>
		<line class="st13" x1="85" y1="162" x2="85.5" y2="54"/>
		<g>
			<polygon class="st1" points="91,160.3 85,170.6 79,160.2 			"/>
		</g>
	</g>
</g>
<g>
	<g>
		<line class="st13" x1="85" y1="358.3" x2="85.5" y2="260"/>
		<g>
			<polygon class="st1" points="91,356.6 85,366.9 79,356.5 			"/>
		</g>
	</g>
</g>
<g>
	<g>
		<line class="st13" x1="203" y1="368.3" x2="203.5" y2="268"/>
		<g>
			<polygon class="st1" points="209.5,269.8 203.5,259.4 197.5,269.7 			"/>
		</g>
	</g>
</g>
<g>
	<g>
		<line class="st13" x1="215.5" y1="260.7" x2="215" y2="359"/>
		<g>
			<polygon class="st1" points="209,357.2 215,367.6 221,357.3 			"/>
		</g>
	</g>
</g>
<g>
	<g>
		<line class="st13" x1="221" y1="162.3" x2="221.5" y2="54"/>
		<g>
			<polygon class="st1" points="227,160.6 221,170.9 215,160.5 			"/>
		</g>
	</g>
</g>
<g>
	<g>
		<polyline class="st13" points="330.8,90.4 318,90.4 318,367 		"/>
		<g>
			<polygon class="st1" points="329.5,85.9 337.3,90.4 329.5,94.9 			"/>
		</g>
	</g>
</g>
<polyline class="st13" points="457,90.4 491.5,90.4 491.5,359.5 "/>
<g>
	<g>
		<polygon class="st1" points="487,358.2 491.5,366 496,358.2 		"/>
	</g>
</g>
<g>
	<g>
		<line class="st13" x1="330.8" y1="186.4" x2="318" y2="186.4"/>
		<g>
			<polygon class="st1" points="329.5,181.9 337.3,186.4 329.5,190.9 			"/>
		</g>
	</g>
</g>
<g>
	<g>
		<line class="st13" x1="485" y1="186.4" x2="457" y2="186.4"/>
		<g>
			<polygon class="st1" points="483.7,181.9 491.5,186.4 483.7,190.9 			"/>
		</g>
	</g>
</g>
<g>
	<g>
		<line class="st13" x1="485" y1="291.4" x2="457" y2="291.4"/>
		<g>
			<polygon class="st1" points="483.7,286.9 491.5,291.4 483.7,295.9 			"/>
		</g>
	</g>
</g>
<g>
	<g>
		<line class="st13" x1="330.8" y1="288.4" x2="318" y2="288.4"/>
		<g>
			<g>
				<polygon class="st1" points="329.5,283.9 337.3,288.4 329.5,292.9 				"/>
			</g>
		</g>
	</g>
</g>
<g>
	<g>
		<polyline class="st13" points="463.5,319 476.3,319 476.3,54 		"/>
		<g>
			<g>
				<polygon class="st1" points="464.8,323.5 457,319 464.8,314.5 				"/>
			</g>
		</g>
	</g>
</g>
<g>
	<g>
		<line class="st13" x1="463.5" y1="223" x2="476.3" y2="223"/>
		<g>
			<polygon class="st1" points="464.8,227.5 457,223 464.8,218.5 			"/>
		</g>
	</g>
</g>
<g>
	<g>
		<line class="st13" x1="463.5" y1="121" x2="476.3" y2="121"/>
		<g>
			<polygon class="st1" points="464.8,125.5 457,121 464.8,116.5 			"/>
		</g>
	</g>
</g>
<g>
	<path class="st14" d="M486.8,31.8v22.8c-0.1,2.1-5,3.7-11.1,3.7s-11-1.7-11.1-3.7V31.8c0.1-2.1,5-3.7,11.1-3.7
		C481.8,28,486.7,29.7,486.8,31.8"/>
	<path class="st15" d="M486.8,31.8v22.8c-0.1,2.1-5,3.7-11.1,3.7s-11-1.7-11.1-3.7V31.8c0.1-2.1,5-3.7,11.1-3.7
		C481.8,28,486.7,29.7,486.8,31.8z"/>
	<path class="st15" d="M486.8,31.8c0,2.1-5,3.8-11.1,3.8s-11.1-1.7-11.1-3.8"/>
	<path class="st15" d="M486.8,39.4c0,2.1-5,3.8-11.1,3.8s-11.1-1.7-11.1-3.8"/>
	<path class="st15" d="M486.8,46.9c0,2.1-5,3.8-11.1,3.8s-11.1-1.7-11.1-3.8"/>
	<rect x="464" y="27.3" class="st16" width="23.5" height="31.7"/>
</g>
<g>
	<path class="st14" d="M232.8,31.8v22.8c-0.1,2.1-5,3.7-11.1,3.7s-11-1.7-11.1-3.7V31.8c0.1-2.1,5-3.7,11.1-3.7
		C227.8,28,232.7,29.7,232.8,31.8"/>
	<path class="st15" d="M232.8,31.8v22.8c-0.1,2.1-5,3.7-11.1,3.7s-11-1.7-11.1-3.7V31.8c0.1-2.1,5-3.7,11.1-3.7
		C227.8,28,232.7,29.7,232.8,31.8z"/>
	<path class="st15" d="M232.8,31.8c0,2.1-5,3.8-11.1,3.8s-11.1-1.7-11.1-3.8"/>
	<path class="st15" d="M232.8,39.4c0,2.1-5,3.8-11.1,3.8s-11.1-1.7-11.1-3.8"/>
	<path class="st15" d="M232.8,46.9c0,2.1-5,3.8-11.1,3.8s-11.1-1.7-11.1-3.8"/>
	<rect x="210" y="27.3" class="st16" width="23.5" height="31.7"/>
</g>
<g>
	<path class="st17" d="M96.8,31.8v22.8c-0.1,2.1-5,3.7-11.1,3.7s-11-1.7-11.1-3.7V31.8c0.1-2.1,5-3.7,11.1-3.7
		C91.8,28,96.7,29.7,96.8,31.8"/>
	<path class="st15" d="M96.8,31.8v22.8c-0.1,2.1-5,3.7-11.1,3.7s-11-1.7-11.1-3.7V31.8c0.1-2.1,5-3.7,11.1-3.7
		C91.8,28,96.7,29.7,96.8,31.8z"/>
	<path class="st15" d="M96.8,31.8c0,2.1-5,3.8-11.1,3.8s-11.1-1.7-11.1-3.8"/>
	<path class="st15" d="M96.8,39.4c0,2.1-5,3.8-11.1,3.8s-11.1-1.7-11.1-3.8"/>
	<path class="st15" d="M96.8,46.9c0,2.1-5,3.8-11.1,3.8S74.6,49,74.6,46.9"/>
	<rect x="74" y="27.3" class="st16" width="23.5" height="31.7"/>
</g>
<g>
	<g>
		<line class="st18" x1="158" y1="215" x2="139.3" y2="215"/>
		<g>
			<polygon class="st19" points="154.7,203.8 174.1,215 154.7,226.3 			"/>
		</g>
	</g>
</g>
<g>
	<g>
		<line class="st18" x1="322.6" y1="308" x2="303.7" y2="308"/>
		<g>
			<polygon class="st19" points="320,299 335.5,308 320,317 			"/>
		</g>
	</g>
</g>
<g>
	<g>
		<line class="st18" x1="322.6" y1="214.6" x2="296.2" y2="214.6"/>
		<g>
			<polygon class="st19" points="320,205.6 335.5,214.6 320,223.6 			"/>
		</g>
	</g>
</g>
<g>
	<g>
		<line class="st18" x1="265.7" y1="156.7" x2="265.7" y2="170.4"/>
		<g>
			<polygon class="st19" points="254.4,160 265.7,140.6 276.9,160 			"/>
		</g>
	</g>
</g>
<g>
	<g>
		<line class="st18" x1="265.7" y1="272.4" x2="265.7" y2="258.7"/>
		<g>
			<polygon class="st19" points="276.9,269.1 265.7,288.5 254.4,269.1 			"/>
		</g>
	</g>
</g>
<path class="st0" d="M285.4,257.2h-102c-5,0-9-4-9-9v-67c0-5,4-9,9-9h102c5,0,9,4,9,9v67C294.4,253.2,290.3,257.2,285.4,257.2z"/>
<text transform="matrix(1 0 0 1 180.707 209.5186)" class="st1 st4 st5">CONFIGURE ENVIRONMENT</text>
<text transform="matrix(1 0 0 1 200.807 220.3186)" class="st1 st4 st5">DEPLOY BINARIES</text>
<text transform="matrix(1 0 0 1 210.707 231.1186)" class="st1 st4 st5">SMOKE TEST</text>
<text transform="matrix(1 0 0 1 196.207 241.9186)" class="st1 st4 st5">ACCEPTANCE TESTS</text>
<text transform="matrix(1 0 0 1 180.9736 191.5186)" class="st1 st2 st3">ACCEPTANCE STAGE</text>
<g>
	<g>
		<line class="st18" x1="322.6" y1="118.8" x2="303.7" y2="118.8"/>
		<g>
			<polygon class="st19" points="320,109.8 335.5,118.8 320,127.7 			"/>
		</g>
	</g>
</g>
</svg>
