<?xml version="1.0" encoding="utf-8"?>
<!-- Generator: Adobe Illustrator 21.1.0, SVG Export Plug-In . SVG Version: 6.00 Build 0)  -->
<svg version="1.1" id="Layer_1" xmlns="http://www.w3.org/2000/svg" xmlns:xlink="http://www.w3.org/1999/xlink" x="0px" y="0px"
	 viewBox="0 0 329 315" style="enable-background:new 0 0 329 315;" xml:space="preserve">
<style type="text/css">
	.st0{fill:none;stroke:#1C425C;stroke-width:3;stroke-linecap:round;stroke-linejoin:round;}
	.st1{fill:#1C425C;}
	.st2{fill:#EFEFEF;stroke:#1C425C;stroke-width:3;stroke-miterlimit:10;}
	.st3{font-family:'URWGeometric-ExtraBold';}
	.st4{font-size:14px;}
</style>
<g>
	<g>
		<line class="st0" x1="172.5" y1="79.5" x2="141.5" y2="130.5"/>
		<g>
			<polygon class="st1" points="165,77.5 178.1,70.3 177.8,85.3 			"/>
		</g>
	</g>
</g>
<path class="st2" d="M131.5,190.5h-112c-5,0-9-4-9-9v-52c0-5,4-9,9-9h112c5,0,9,4,9,9v52C140.5,186.5,136.5,190.5,131.5,190.5z"/>
<text transform="matrix(1 0 0 1 31.0239 160.2266)" class="st1 st3 st4">BUILD PIPELINE</text>
<path class="st2" d="M303.5,190.5h-112c-5,0-9-4-9-9v-52c0-5,4-9,9-9h112c5,0,9,4,9,9v52C312.5,186.5,308.5,190.5,303.5,190.5z"/>
<text transform="matrix(1 0 0 1 188.9258 154.2266)"><tspan x="0" y="0" class="st1 st3 st4">USER ACCEPTANCE</tspan><tspan x="31.6" y="16.8" class="st1 st3 st4"> PIPELINE</tspan></text>
<path class="st2" d="M303.5,90.5h-112c-5,0-9-4-9-9v-52c0-5,4-9,9-9h112c5,0,9,4,9,9v52C312.5,86.5,308.5,90.5,303.5,90.5z"/>
<text transform="matrix(1 0 0 1 208.0986 54.2266)"><tspan x="0" y="0" class="st1 st3 st4">REGRESSION</tspan><tspan x="-12.8" y="16.8" class="st1 st3 st4">TESTING PIPELINE</tspan></text>
<path class="st2" d="M303.5,290.5h-112c-5,0-9-4-9-9v-52c0-5,4-9,9-9h112c5,0,9,4,9,9v52C312.5,286.5,308.5,290.5,303.5,290.5z"/>
<text transform="matrix(1 0 0 1 190.0391 254.2266)"><tspan x="0" y="0" class="st1 st3 st4">CAPACITY TESTING</tspan><tspan x="30.5" y="16.8" class="st1 st3 st4"> PIPELINE</tspan></text>
<g>
	<g>
		<line class="st0" x1="169.5" y1="156" x2="142.3" y2="156"/>
		<g>
			<polygon class="st1" points="167.3,148.5 180.3,156 167.3,163.5 			"/>
		</g>
	</g>
</g>
<g>
	<g>
		<line class="st0" x1="172.5" y1="232.5" x2="141.5" y2="181.5"/>
		<g>
			<polygon class="st1" points="177.8,226.7 178.1,241.7 165,234.5 			"/>
		</g>
	</g>
</g>
</svg>
