<?xml version="1.0" encoding="utf-8"?>
<!-- Generator: Adobe Illustrator 21.1.0, SVG Export Plug-In . SVG Version: 6.00 Build 0)  -->
<svg version="1.1" id="Layer_1" xmlns="http://www.w3.org/2000/svg" xmlns:xlink="http://www.w3.org/1999/xlink" x="0px" y="0px"
	 viewBox="0 0 600 250" style="enable-background:new 0 0 600 250;" xml:space="preserve">
<style type="text/css">
	.st0{fill:none;stroke:#1C425C;stroke-width:3;stroke-linecap:round;stroke-linejoin:round;}
	.st1{fill:#1C425C;}
	.st2{fill:#EFEFEF;stroke:#1C425C;stroke-width:3;stroke-miterlimit:10;}
	.st3{fill:#FF9311;stroke:#1C425C;stroke-width:3;stroke-miterlimit:10;}
	.st4{font-family:'URWGeometric-ExtraBold';}
	.st5{font-size:13px;}
	.st6{fill:#FFD34E;stroke:#1C425C;stroke-width:3;stroke-miterlimit:10;}
	.st7{font-size:14px;}
</style>
<g>
	<g>
		<line class="st0" x1="452.5" y1="105.5" x2="421.5" y2="156.5"/>
		<g>
			<polygon class="st1" points="445,103.5 458.1,96.3 457.8,111.3 			"/>
		</g>
	</g>
</g>
<path class="st2" d="M582,120H470c-5,0-9-4-9-9V59c0-5,4-9,9-9h112c5,0,9,4,9,9v52C591,116,587,120,582,120z"/>
<circle class="st3" cx="48.2" cy="85.4" r="37.6"/>
<text transform="matrix(1 0 0 1 22.1499 81)"><tspan x="0" y="0" class="st1 st4 st5">git://abc </tspan><tspan x="-6.3" y="15.6" class="st1 st4 st5">(MATERIAL)</tspan></text>
<circle class="st6" cx="217.2" cy="176.4" r="37.6"/>
<text transform="matrix(1 0 0 1 190.6299 172)"><tspan x="0" y="0" class="st1 st4 st5">svn://def </tspan><tspan x="-5.8" y="15.6" class="st1 st4 st5">(MATERIAL)</tspan></text>
<path class="st2" d="M244,120H132c-5,0-9-4-9-9V59c0-5,4-9,9-9h112c5,0,9,4,9,9v52C253,116,249,120,244,120z"/>
<text transform="matrix(1 0 0 1 143.5239 89.7266)" class="st1 st4 st7">BUILD PIPELINE</text>
<path class="st2" d="M414,120H302c-5,0-9-4-9-9V59c0-5,4-9,9-9h112c5,0,9,4,9,9v52C423,116,419,120,414,120z"/>
<text transform="matrix(1 0 0 1 299.4258 83.7266)"><tspan x="0" y="0" class="st1 st4 st7">USER ACCEPTANCE</tspan><tspan x="31.6" y="16.8" class="st1 st4 st7"> PIPELINE</tspan></text>
<text transform="matrix(1 0 0 1 485.4985 83.7266)"><tspan x="0" y="0" class="st1 st4 st7">PRODUCTION</tspan><tspan x="14.5" y="16.8" class="st1 st4 st7"> PIPELINE</tspan></text>
<path class="st2" d="M414,212H302c-5,0-9-4-9-9v-52c0-5,4-9,9-9h112c5,0,9,4,9,9v52C423,208,419,212,414,212z"/>
<text transform="matrix(1 0 0 1 327.2998 165.7266)"><tspan x="0" y="0" class="st1 st4 st7">CAPACITY</tspan><tspan x="5.4" y="16.8" class="st1 st4 st7">TESTING</tspan><tspan x="5.3" y="33.6" class="st1 st4 st7">PIPELINE</tspan></text>
<g>
	<g>
		<line class="st0" x1="111.5" y1="90" x2="86.3" y2="90"/>
		<g>
			<polygon class="st1" points="109.3,82.5 122.3,90 109.3,97.5 			"/>
		</g>
	</g>
</g>
<g>
	<g>
		<line class="st0" x1="280.5" y1="90" x2="255.3" y2="90"/>
		<g>
			<polygon class="st1" points="278.3,82.5 291.3,90 278.3,97.5 			"/>
		</g>
	</g>
</g>
<g>
	<g>
		<line class="st0" x1="280.5" y1="173" x2="255.3" y2="173"/>
		<g>
			<polygon class="st1" points="278.3,165.5 291.3,173 278.3,180.5 			"/>
		</g>
	</g>
</g>
<g>
	<g>
		<line class="st0" x1="284.5" y1="150.5" x2="253.5" y2="99.5"/>
		<g>
			<polygon class="st1" points="289.8,144.7 290.1,159.7 277,152.5 			"/>
		</g>
	</g>
</g>
<g>
	<g>
		<polyline class="st0" points="452.5,74.5 421.5,23.5 135.5,23.5 82.1,69.1 		"/>
		<g>
			<polygon class="st1" points="457.8,68.7 458.1,83.7 445,76.5 			"/>
		</g>
	</g>
</g>
<g>
	<g>
		<line class="st0" x1="448.5" y1="90" x2="423.3" y2="90"/>
		<g>
			<polygon class="st1" points="446.3,82.5 459.3,90 446.3,97.5 			"/>
		</g>
	</g>
</g>
</svg>
