<svg xmlns="http://www.w3.org/2000/svg" viewBox="0 0 949 466"><defs><style>.cls-1,.cls-10,.cls-2,.cls-28,.cls-4,.cls-6{fill:#fff;}.cls-1{opacity:0;}.cls-3,.cls-5,.cls-7,.cls-8{fill:none;}.cls-3,.cls-4,.cls-5,.cls-7,.cls-8{stroke:#fff;stroke-width:2px;}.cls-3,.cls-7,.cls-8{stroke-linecap:round;}.cls-3{stroke-linejoin:round;}.cls-4{fill-opacity:0.2;}.cls-4,.cls-5,.cls-7,.cls-8{stroke-miterlimit:10;}.cls-6{opacity:0.2;}.cls-8{stroke-dasharray:0 5.925;}.cls-9{fill:#c8db57;}.cls-10{font-size:15.424px;}.cls-10,.cls-28{font-family:URWGeometric-Heavy, URW Geometric;}.cls-11{letter-spacing:-0.004em;}.cls-12{letter-spacing:-0.001em;}.cls-13{letter-spacing:0.034em;}.cls-14{letter-spacing:-0.045em;}.cls-15{letter-spacing:-0.008em;}.cls-16{letter-spacing:0.034em;}.cls-17{letter-spacing:-0.011em;}.cls-18{letter-spacing:0em;}.cls-19{letter-spacing:0.026em;}.cls-20{letter-spacing:-0.039em;}.cls-21{letter-spacing:-0.005em;}.cls-22{letter-spacing:0.004em;}.cls-23{letter-spacing:0.003em;}.cls-24{letter-spacing:-0.006em;}.cls-25{letter-spacing:-0.014em;}.cls-26{letter-spacing:0.001em;}.cls-27{letter-spacing:-0.012em;}.cls-28{font-size:11.175px;}.cls-29{letter-spacing:0.008em;}.cls-30{letter-spacing:0.006em;}.cls-31{letter-spacing:0.039em;}.cls-32{letter-spacing:-0.15em;}.cls-33{letter-spacing:-0.052em;}.cls-34{letter-spacing:-0.018em;}.cls-35{letter-spacing:-0.007em;}.cls-36{letter-spacing:-0.014em;}.cls-37{letter-spacing:0em;}</style></defs><title>Asset 1</title><g id="Layer_2" data-name="Layer 2"><g id="Text_Headlines" data-name="Text, Headlines"><path class="cls-1" d="M32.631,465a1,1,0,0,1-.707-.293L1.293,434.076A1,1,0,0,1,1,433.369V2.673A1.674,1.674,0,0,1,2.673,1H917.725a1,1,0,0,1,.707.293l29.275,29.275a1,1,0,0,1,.293.707V463.327A1.674,1.674,0,0,1,946.327,465Z"/><path class="cls-2" d="M917.725,2,947,31.276V463.327a.673.673,0,0,1-.673.673H32.631L2,433.369V2.673A.673.673,0,0,1,2.673,2H917.725m0-2H2.673A2.676,2.676,0,0,0,0,2.673v430.7a2,2,0,0,0,.586,1.414L25.82,460.018l5.4,5.4a2,2,0,0,0,1.414.586h913.7A2.676,2.676,0,0,0,949,463.327V31.276a2,2,0,0,0-.586-1.415L933.776,15.224,919.139.586A2,2,0,0,0,917.725,0Z"/><path class="cls-3" d="M55.387,42.867a4.385,4.385,0,0,0-1.5-1.782,4.5,4.5,0,1,0-.658,7.758"/><polyline class="cls-3" points="57 39.886 56.271 44.062 52.095 43.333"/><circle class="cls-4" cx="82.977" cy="172.443" r="53.898"/><path class="cls-2" d="M96.7,167.263a5,5,0,0,1,1.166,3.185c0,3.5-2.743,5.548-6.714,5.548a10.009,10.009,0,0,1-2.492-.283l-1.041,1.671,3.09.189c5.455.347,8.67.5,8.67,4.7,0,3.627-3.184,5.675-8.67,5.675-5.706,0-7.882-1.45-7.882-3.941,0-1.419.631-2.174,1.734-3.216a2.1,2.1,0,0,1-1.387-2.079,2.822,2.822,0,0,1,.915-1.924c.567-.6,1.2-1.2,1.954-1.892a5.036,5.036,0,0,1-2.711-4.73c0-3.625,2.4-6.115,7.219-6.115a10.84,10.84,0,0,1,2.9.315H99.6v2.679Zm-9.332,14.378a2.793,2.793,0,0,0-.82,1.671c0,1.26,1.607,1.639,3.815,1.639,1.828,0,4.319-.128,4.319-1.828,0-1.011-1.2-1.073-2.712-1.168Zm3.467-14.473c-1.734,0-3.026.852-3.026,2.9,0,1.545.851,2.617,2.933,2.617a2.665,2.665,0,0,0,2.963-2.68A2.584,2.584,0,0,0,90.833,167.168Z"/><path class="cls-2" d="M101.078,180.481v-2.489l1.608-.22c.442-.064.5-.158.5-.632v-9.27c0-.346-.095-.567-.411-.661l-1.7-.6.346-2.553h6.527V177.14c0,.505.031.568.505.632l1.608.22v2.489Zm4.068-18.947a2.589,2.589,0,0,1-2.838-2.839,2.855,2.855,0,0,1,5.707,0A2.6,2.6,0,0,1,105.146,161.534Z"/><path class="cls-2" d="M122.532,179.259a12.616,12.616,0,0,1-5.14,1.26c-3.752,0-5.17-1.512-5.17-5.076v-8.26c0-.188,0-.315-.253-.315h-2.207v-2.806c2.775-.316,3.878-1.7,4.225-5.14h3V163.4c0,.22,0,.316.252.316h4.445v3.152h-4.7V174.4c0,1.86.442,2.585,2.143,2.585a7.5,7.5,0,0,0,2.554-.5Z"/><path class="cls-2" d="M75.817,170.985,61.4,156.57a2.127,2.127,0,0,0-3.007,0L55.4,159.564l3.8,3.8a2.525,2.525,0,0,1,3.2,3.219l3.659,3.66a2.527,2.527,0,1,1-1.515,1.426l-3.413-3.413v8.982a2.523,2.523,0,1,1-2.08-.074V168.1a2.489,2.489,0,0,1-.828-.552,2.529,2.529,0,0,1-.545-2.766l-3.743-3.744-9.885,9.884a2.126,2.126,0,0,0,0,3.008l14.416,14.415a2.125,2.125,0,0,0,3.007,0l14.349-14.348A2.128,2.128,0,0,0,75.817,170.985Z"/><path class="cls-5" d="M420.613,395.045c53.195,0,13.421-111.3,71.979-111.3"/><line class="cls-5" x1="492.928" y1="283.744" x2="420.612" y2="283.744"/><polygon class="cls-2" points="484.311 273.108 482.537 275.013 491.93 283.741 482.537 292.472 484.311 294.377 495.748 283.741 484.311 273.108"/><line class="cls-5" x1="492.928" y1="172.443" x2="388.836" y2="172.443"/><polygon class="cls-2" points="484.311 161.807 482.537 163.712 491.93 172.44 482.537 181.171 484.311 183.076 495.748 172.44 484.311 161.807"/><path class="cls-5" d="M245.928,283.744c-94.422,0-70.6-111.3-109.053-111.3"/><polygon class="cls-2" points="237.311 273.108 235.537 275.013 244.93 283.741 235.537 292.472 237.311 294.377 248.748 283.741 237.311 273.108"/><path class="cls-5" d="M245.928,395.045c-94.422,0-59.343-222.6-109.053-222.6"/><polygon class="cls-2" points="237.311 384.409 235.537 386.314 244.93 395.042 235.537 403.773 237.311 405.678 248.748 395.042 237.311 384.409"/><path class="cls-5" d="M667.982,283.744c53.2,0,18.669-111.3,77.228-111.3"/><line class="cls-5" x1="745.21" y1="172.443" x2="667.982" y2="172.443"/><polygon class="cls-2" points="736.593 161.807 734.82 163.712 744.212 172.44 734.82 181.171 736.593 183.076 748.03 172.44 736.593 161.807"/><g id="_Group_" data-name="&lt;Group&gt;"><g id="RECTANGLE_STAGE" data-name="RECTANGLE STAGE"><rect class="cls-6" x="248.264" y="244.927" width="173.349" height="77.635" rx="10.368" ry="10.368"/><path class="cls-2" d="M411.244,245.926a9.368,9.368,0,0,1,9.368,9.368v56.9a9.368,9.368,0,0,1-9.368,9.368H258.632a9.368,9.368,0,0,1-9.368-9.368v-56.9a9.368,9.368,0,0,1,9.368-9.368H411.244m0-2H258.632a11.381,11.381,0,0,0-11.368,11.368v56.9a11.381,11.381,0,0,0,11.368,11.368H411.244a11.381,11.381,0,0,0,11.368-11.368v-56.9a11.381,11.381,0,0,0-11.368-11.368Z"/><line class="cls-7" x1="258.917" y1="277.466" x2="258.917" y2="277.466"/><line class="cls-8" x1="264.842" y1="277.466" x2="410.008" y2="277.466"/><line class="cls-7" x1="412.97" y1="277.466" x2="412.97" y2="277.466"/><rect class="cls-9" x="258.515" y="291.118" width="152.846" height="17.353" rx="1" ry="1"/><polygon class="cls-2" points="265.624 261.377 261.602 261.377 261.602 258.33 260.626 258.33 260.626 255.679 259.199 255.679 259.199 258.33 258.223 258.33 258.223 261.377 258.223 264.756 258.223 267.803 259.199 267.803 259.199 270.454 260.626 270.454 260.626 267.803 261.602 267.803 261.602 264.756 265.624 264.756 265.624 261.377"/><line class="cls-2" x1="259.199" y1="258.33" x2="260.626" y2="258.33"/><line class="cls-2" x1="259.199" y1="267.803" x2="260.626" y2="267.803"/></g></g><text class="cls-10" transform="translate(272.056 267.229)"><tspan class="cls-11">P</tspan><tspan x="7.372" y="0">ip</tspan><tspan class="cls-12" x="19.418" y="0">e</tspan><tspan x="27.021" y="0">line On</tspan><tspan class="cls-13" x="72.891" y="0">e</tspan><tspan x="81.033" y="0">: Build</tspan></text><g id="_Group_2" data-name="&lt;Group&gt;"><g id="RECTANGLE_STAGE-2" data-name="RECTANGLE STAGE"><rect class="cls-6" x="248.264" y="356.228" width="173.349" height="77.635" rx="10.368" ry="10.368"/><path class="cls-2" d="M411.244,357.227a9.368,9.368,0,0,1,9.368,9.368v56.9a9.368,9.368,0,0,1-9.368,9.368H258.632a9.368,9.368,0,0,1-9.368-9.368V366.6a9.368,9.368,0,0,1,9.368-9.368H411.244m0-2H258.632A11.381,11.381,0,0,0,247.264,366.6v56.9a11.38,11.38,0,0,0,11.368,11.368H411.244a11.38,11.38,0,0,0,11.368-11.368V366.6a11.381,11.381,0,0,0-11.368-11.368Z"/><line class="cls-7" x1="258.917" y1="388.767" x2="258.917" y2="388.767"/><line class="cls-8" x1="264.842" y1="388.767" x2="410.008" y2="388.767"/><line class="cls-7" x1="412.97" y1="388.767" x2="412.97" y2="388.767"/><rect class="cls-9" x="258.515" y="402.419" width="152.846" height="17.353" rx="1" ry="1"/><polygon class="cls-2" points="265.624 372.678 261.602 372.678 261.602 369.631 260.626 369.631 260.626 366.98 259.199 366.98 259.199 369.631 258.223 369.631 258.223 372.678 258.223 376.057 258.223 379.104 259.199 379.104 259.199 381.755 260.626 381.755 260.626 379.104 261.602 379.104 261.602 376.057 265.624 376.057 265.624 372.678"/><line class="cls-2" x1="259.199" y1="369.631" x2="260.626" y2="369.631"/><line class="cls-2" x1="259.199" y1="379.104" x2="260.626" y2="379.104"/></g></g><text class="cls-10" transform="translate(272.056 378.532)"><tspan class="cls-11">P</tspan><tspan x="7.372" y="0">ip</tspan><tspan class="cls-12" x="19.418" y="0">e</tspan><tspan x="27.021" y="0">line </tspan><tspan class="cls-14" x="53.241" y="0">T</tspan><tspan class="cls-15" x="59.38" y="0">w</tspan><tspan class="cls-16" x="69.343" y="0">o</tspan><tspan x="77.888" y="0">: Build</tspan></text><g id="_Group_3" data-name="&lt;Group&gt;"><g id="RECTANGLE_STAGE-3" data-name="RECTANGLE STAGE"><rect class="cls-6" x="495.634" y="244.927" width="173.349" height="77.635" rx="10.368" ry="10.368"/><path class="cls-2" d="M658.614,245.926a9.368,9.368,0,0,1,9.368,9.368v56.9a9.368,9.368,0,0,1-9.368,9.368H506a9.368,9.368,0,0,1-9.368-9.368v-56.9A9.369,9.369,0,0,1,506,245.926H658.614m0-2H506a11.381,11.381,0,0,0-11.368,11.368v56.9A11.381,11.381,0,0,0,506,323.561H658.614a11.381,11.381,0,0,0,11.368-11.368v-56.9a11.381,11.381,0,0,0-11.368-11.368Z"/><line class="cls-7" x1="506.287" y1="277.466" x2="506.287" y2="277.466"/><line class="cls-8" x1="512.212" y1="277.466" x2="657.377" y2="277.466"/><line class="cls-7" x1="660.34" y1="277.466" x2="660.34" y2="277.466"/><rect class="cls-9" x="505.885" y="291.118" width="152.846" height="17.353" rx="1" ry="1"/><polygon class="cls-2" points="512.994 261.377 508.972 261.377 508.972 258.33 507.996 258.33 507.996 255.679 506.569 255.679 506.569 258.33 505.593 258.33 505.593 261.377 505.593 264.756 505.593 267.803 506.569 267.803 506.569 270.454 507.996 270.454 507.996 267.803 508.972 267.803 508.972 264.756 512.994 264.756 512.994 261.377"/><line class="cls-2" x1="506.569" y1="258.33" x2="507.996" y2="258.33"/><line class="cls-2" x1="506.569" y1="267.803" x2="507.996" y2="267.803"/></g></g><text class="cls-10" transform="translate(519.156 267.229)"><tspan class="cls-11">P</tspan><tspan x="7.372" y="0">ip</tspan><tspan class="cls-12" x="19.418" y="0">e</tspan><tspan x="27.021" y="0">line </tspan><tspan class="cls-17" x="53.241" y="0">F</tspan><tspan class="cls-18" x="60.136" y="0">ou</tspan><tspan class="cls-19" x="76.037" y="0">r</tspan><tspan x="81.296" y="0">: </tspan><tspan class="cls-20" x="88.761" y="0">T</tspan><tspan class="cls-21" x="94.991" y="0">e</tspan><tspan class="cls-22" x="102.534" y="0">s</tspan><tspan x="108.672" y="0">t</tspan></text><g id="_Group_4" data-name="&lt;Group&gt;"><g id="RECTANGLE_STAGE-4" data-name="RECTANGLE STAGE"><rect class="cls-6" x="495.634" y="133.625" width="173.349" height="77.635" rx="10.368" ry="10.368"/><path class="cls-2" d="M658.614,134.625a9.368,9.368,0,0,1,9.368,9.368v56.9a9.368,9.368,0,0,1-9.368,9.368H506a9.368,9.368,0,0,1-9.368-9.368v-56.9A9.368,9.368,0,0,1,506,134.625H658.614m0-2H506a11.381,11.381,0,0,0-11.368,11.368v56.9A11.381,11.381,0,0,0,506,212.26H658.614a11.381,11.381,0,0,0,11.368-11.368v-56.9a11.381,11.381,0,0,0-11.368-11.368Z"/><line class="cls-7" x1="506.287" y1="166.165" x2="506.287" y2="166.165"/><line class="cls-8" x1="512.212" y1="166.165" x2="657.377" y2="166.165"/><line class="cls-7" x1="660.34" y1="166.165" x2="660.34" y2="166.165"/><rect class="cls-9" x="505.885" y="179.817" width="152.846" height="17.353" rx="1" ry="1"/><polygon class="cls-2" points="512.994 150.076 508.972 150.076 508.972 147.029 507.996 147.029 507.996 144.378 506.569 144.378 506.569 147.029 505.593 147.029 505.593 150.076 505.593 153.455 505.593 156.502 506.569 156.502 506.569 159.153 507.996 159.153 507.996 156.502 508.972 156.502 508.972 153.455 512.994 153.455 512.994 150.076"/><line class="cls-2" x1="506.569" y1="147.029" x2="507.996" y2="147.029"/><line class="cls-2" x1="506.569" y1="156.502" x2="507.996" y2="156.502"/></g></g><g id="_Group_5" data-name="&lt;Group&gt;"><g id="RECTANGLE_STAGE-5" data-name="RECTANGLE STAGE"><rect class="cls-6" x="747.428" y="133.625" width="173.35" height="77.635" rx="10.368" ry="10.368"/><path class="cls-2" d="M910.409,134.625a9.368,9.368,0,0,1,9.368,9.368v56.9a9.368,9.368,0,0,1-9.368,9.368H757.8a9.368,9.368,0,0,1-9.368-9.368v-56.9a9.368,9.368,0,0,1,9.368-9.368H910.409m0-2H757.8a11.381,11.381,0,0,0-11.368,11.368v56.9A11.381,11.381,0,0,0,757.8,212.26H910.409a11.381,11.381,0,0,0,11.368-11.368v-56.9a11.381,11.381,0,0,0-11.368-11.368Z"/><line class="cls-7" x1="758.082" y1="166.165" x2="758.082" y2="166.165"/><line class="cls-8" x1="764.006" y1="166.165" x2="909.172" y2="166.165"/><line class="cls-7" x1="912.135" y1="166.165" x2="912.135" y2="166.165"/><rect class="cls-9" x="757.679" y="179.817" width="152.846" height="17.353" rx="1" ry="1"/><polygon class="cls-2" points="764.789 150.076 760.766 150.076 760.766 147.029 759.79 147.029 759.79 144.378 758.364 144.378 758.364 147.029 757.388 147.029 757.388 150.076 757.388 153.455 757.388 156.502 758.364 156.502 758.364 159.153 759.79 159.153 759.79 156.502 760.766 156.502 760.766 153.455 764.789 153.455 764.789 150.076"/><line class="cls-2" x1="758.364" y1="147.029" x2="759.79" y2="147.029"/><line class="cls-2" x1="758.364" y1="156.502" x2="759.79" y2="156.502"/></g></g><text class="cls-10" transform="translate(519.156 155.925)"><tspan class="cls-11">P</tspan><tspan x="7.372" y="0">ip</tspan><tspan class="cls-12" x="19.418" y="0">e</tspan><tspan x="27.021" y="0">line </tspan><tspan class="cls-23" x="53.241" y="0">T</tspan><tspan x="60.12" y="0">h</tspan><tspan class="cls-12" x="68.001" y="0">r</tspan><tspan x="72.844" y="0">e</tspan><tspan class="cls-16" x="80.463" y="0">e</tspan><tspan x="88.606" y="0">: </tspan><tspan class="cls-20" x="96.071" y="0">T</tspan><tspan class="cls-21" x="102.302" y="0">e</tspan><tspan class="cls-22" x="109.845" y="0">s</tspan><tspan x="115.982" y="0">t</tspan></text><text class="cls-10" transform="translate(770.149 155.925)"><tspan class="cls-11">P</tspan><tspan x="7.372" y="0">ip</tspan><tspan class="cls-12" x="19.418" y="0">e</tspan><tspan x="27.021" y="0">line </tspan><tspan class="cls-24" x="53.241" y="0">F</tspan><tspan class="cls-18" x="60.213" y="0">i</tspan><tspan class="cls-25" x="63.883" y="0">v</tspan><tspan class="cls-16" x="70.947" y="0">e</tspan><tspan x="79.091" y="0">: </tspan><tspan class="cls-26" x="86.555" y="0">D</tspan><tspan x="96.148" y="0">epl</tspan><tspan class="cls-27" x="115.828" y="0">o</tspan><tspan x="123.663" y="0">y</tspan></text><circle class="cls-4" cx="334.938" cy="172.443" r="53.898"/><g id="Layer_1-2" data-name="Layer 1"><path class="cls-2" d="M355.7,171.519q-.459-1.8-6.346-1.846-3.016.039-8.318.427t-13.194,1.222q-12.24,1.317-20.322,1.992-3.858.324-6.779.484v14.689a293.27,293.27,0,0,0,29-5.633,130.26,130.26,0,0,0,19.6-6.237Q356.221,173.6,355.7,171.519ZM304.159,183.4a.645.645,0,0,1-.471.2.62.62,0,0,1-.267-.058.645.645,0,0,1-.217-.14.609.609,0,0,1-.14-.21.624.624,0,0,1-.051-.267.669.669,0,0,1,.191-.477.678.678,0,0,1,.49-.2.625.625,0,0,1,.465.2.639.639,0,0,1,.2.477A.622.622,0,0,1,304.159,183.4Zm0-4.334a.622.622,0,0,1-.471.2.652.652,0,0,1-.484-.2.669.669,0,0,1-.191-.477.651.651,0,0,1,.191-.478.7.7,0,0,1,.49-.19.619.619,0,0,1,.465.2.643.643,0,0,1,.2.471A.626.626,0,0,1,304.159,179.061Zm2.33,4.334a.671.671,0,0,1-.478.2.74.74,0,0,1-.477-.2.609.609,0,0,1-.146-.21.729.729,0,0,1-.051-.267.646.646,0,0,1,.2-.477.667.667,0,0,1,.49-.2.638.638,0,0,1,.465.2.666.666,0,0,1,.2.477A.649.649,0,0,1,306.489,183.4Zm0-4.334a.649.649,0,0,1-.478.2.637.637,0,0,1-.477-.2.646.646,0,0,1-.2-.477.63.63,0,0,1,.2-.478.688.688,0,0,1,.49-.19.631.631,0,0,1,.465.2.671.671,0,0,1,.2.471A.652.652,0,0,1,306.489,179.061Z"/><path class="cls-2" d="M338.044,149.167q-23.389,5.908-37.3,11.73V142.783H367.01Q353.023,145.38,338.044,149.167Z"/><path class="cls-2" d="M369.454,146.653v13.779q-7.017.429-17.573,1.527-10.683,1.146-17.445,1.738t-9.764.656q-5.851.162-6.275-1.56-.5-1.958,6.994-5.091a136.877,136.877,0,0,1,19.743-6.3Q355.865,148.689,369.454,146.653Z"/><path class="cls-2" d="M334.442,185.693a293.1,293.1,0,0,0,35.012-10.839v18.057H300.741v-.128Q314.957,190.616,334.442,185.693Z"/><path id="path61" class="cls-2" d="M304.708,197.86a1.339,1.339,0,0,1-.213.743,1.414,1.414,0,0,1-.623.516,2.333,2.333,0,0,1-.971.187,2.193,2.193,0,0,1-1.111-.255,1.468,1.468,0,0,1-.5-.489,1.112,1.112,0,0,1-.2-.6.4.4,0,0,1,.414-.407.353.353,0,0,1,.247.093.717.717,0,0,1,.173.277,1.8,1.8,0,0,0,.188.363.76.76,0,0,0,.285.242,1.048,1.048,0,0,0,.482.095,1.09,1.09,0,0,0,.667-.192.576.576,0,0,0,.257-.477.506.506,0,0,0-.139-.37.891.891,0,0,0-.358-.215,6.052,6.052,0,0,0-.587-.159,4.3,4.3,0,0,1-.822-.27,1.319,1.319,0,0,1-.526-.419,1.094,1.094,0,0,1-.194-.661,1.135,1.135,0,0,1,.2-.669,1.29,1.29,0,0,1,.593-.45,2.442,2.442,0,0,1,.914-.156,2.274,2.274,0,0,1,.725.1,1.557,1.557,0,0,1,.508.276,1.18,1.18,0,0,1,.295.363.837.837,0,0,1,.093.37.44.44,0,0,1-.116.3.369.369,0,0,1-.29.133.329.329,0,0,1-.239-.08,1.026,1.026,0,0,1-.177-.26,1.19,1.19,0,0,0-.3-.4.877.877,0,0,0-.56-.144.963.963,0,0,0-.576.157.459.459,0,0,0-.22.378.38.38,0,0,0,.075.236.637.637,0,0,0,.2.172,1.349,1.349,0,0,0,.265.112c.09.027.236.066.442.118a7.053,7.053,0,0,1,.7.2,2.141,2.141,0,0,1,.529.264,1.079,1.079,0,0,1,.341.394A1.259,1.259,0,0,1,304.708,197.86Z"/><path id="path63" class="cls-2" d="M308.369,197.343v-2.192a.609.609,0,0,1,.126-.42.428.428,0,0,1,.331-.14.436.436,0,0,1,.341.14.614.614,0,0,1,.126.421V197.4a2.062,2.062,0,0,0,.086.641.736.736,0,0,0,.3.4,1.11,1.11,0,0,0,.607.141.9.9,0,0,0,.761-.288,1.417,1.417,0,0,0,.224-.874v-2.265a.615.615,0,0,1,.124-.422.424.424,0,0,1,.333-.139.439.439,0,0,1,.338.139.6.6,0,0,1,.129.422v2.194a3.267,3.267,0,0,1-.1.893,1.38,1.38,0,0,1-.394.629,1.52,1.52,0,0,1-.577.332,2.574,2.574,0,0,1-.77.105,3.185,3.185,0,0,1-.9-.114,1.456,1.456,0,0,1-.618-.351,1.429,1.429,0,0,1-.351-.61A3.116,3.116,0,0,1,308.369,197.343Z"/><path id="path65" class="cls-2" d="M318.944,196.812a1.05,1.05,0,0,0,.681-1,1.087,1.087,0,0,0-.07-.382,1.048,1.048,0,0,0-.184-.325,1.187,1.187,0,0,0-.287-.242,1.16,1.16,0,0,0-.433-.152,3.45,3.45,0,0,0-.566-.045h-1.477a.58.58,0,0,0-.426.134.6.6,0,0,0-.134.433v3.424a.634.634,0,0,0,.127.433.6.6,0,0,0,.433.133H318a4.436,4.436,0,0,0,.63-.038,1.741,1.741,0,0,0,.484-.121,1.166,1.166,0,0,0,.528-.452,1.268,1.268,0,0,0,.2-.687A1.118,1.118,0,0,0,318.944,196.812Zm-1.973-1.457h.751a1.878,1.878,0,0,1,.751.114.456.456,0,0,1,.248.465.528.528,0,0,1-.082.293.508.508,0,0,1-.287.248,1.712,1.712,0,0,1-.534.063h-.847Zm.993,3.182h-.993V197.2h.961a1.367,1.367,0,0,1,.726.153.553.553,0,0,1,.242.5C318.9,198.314,318.588,198.537,317.964,198.537Z"/><path id="path67" class="cls-2" d="M324.173,195.2l1.029,3.054,1.034-3.076c.054-.162.094-.274.121-.337a.461.461,0,0,1,.133-.171.39.39,0,0,1,.255-.076.435.435,0,0,1,.376.216.383.383,0,0,1,.058.2.662.662,0,0,1-.018.147,1.34,1.34,0,0,1-.047.156l-.056.157-1.1,2.979c-.039.114-.079.223-.118.325a1.4,1.4,0,0,1-.137.271.611.611,0,0,1-.206.191.627.627,0,0,1-.315.075.638.638,0,0,1-.315-.073.612.612,0,0,1-.208-.193,1.451,1.451,0,0,1-.138-.273c-.039-.1-.078-.209-.118-.323l-1.083-2.955c-.018-.053-.038-.106-.058-.158a1.277,1.277,0,0,1-.049-.168.747.747,0,0,1-.02-.152.4.4,0,0,1,.127-.289.43.43,0,0,1,.32-.131.371.371,0,0,1,.333.145A1.91,1.91,0,0,1,324.173,195.2Z"/><path id="path69" class="cls-2" d="M333.747,195.377h-2.079V196.5h1.914a.459.459,0,0,1,.316.095.325.325,0,0,1,.1.25.334.334,0,0,1-.1.253.446.446,0,0,1-.317.1h-1.914v1.3h2.15a.483.483,0,0,1,.329.1.345.345,0,0,1,.11.266.338.338,0,0,1-.11.261.481.481,0,0,1-.329.1H331.31a.484.484,0,0,1-.567-.565v-3.424a.774.774,0,0,1,.059-.325.363.363,0,0,1,.185-.183.771.771,0,0,1,.323-.058h2.437a.481.481,0,0,1,.328.1.359.359,0,0,1,0,.511A.466.466,0,0,1,333.747,195.377Z"/><path id="path71" class="cls-2" d="M341.532,198.613a4.153,4.153,0,0,0-.267-.515,4.9,4.9,0,0,0-.4-.548,1.871,1.871,0,0,0-.471-.382,1.635,1.635,0,0,0,.872-.432,1.148,1.148,0,0,0,.286-.815,1.273,1.273,0,0,0-.083-.471,1.059,1.059,0,0,0-.254-.388,1.157,1.157,0,0,0-.376-.261,1.327,1.327,0,0,0-.4-.1,4.264,4.264,0,0,0-.528-.025h-1.5a.6.6,0,0,0-.433.127.607.607,0,0,0-.133.433v3.507a.659.659,0,0,0,.121.42.432.432,0,0,0,.343.146.413.413,0,0,0,.331-.14.58.58,0,0,0,.127-.426v-1.464h.325a1.081,1.081,0,0,1,.407.063.833.833,0,0,1,.319.242,3.544,3.544,0,0,1,.356.516l.369.617c.089.146.159.255.21.331a.631.631,0,0,0,.178.185.437.437,0,0,0,.261.076.507.507,0,0,0,.23-.051.436.436,0,0,0,.159-.14.35.35,0,0,0,.057-.185A.981.981,0,0,0,341.532,198.613Zm-1.381-2.049a2.343,2.343,0,0,1-.56.057h-.821v-1.266h.846a1.918,1.918,0,0,1,.637.07.575.575,0,0,1,.363.553.574.574,0,0,1-.121.389A.65.65,0,0,1,340.151,196.564Z"/><path id="path73" class="cls-2" d="M348.752,197.86a1.346,1.346,0,0,1-.212.743,1.419,1.419,0,0,1-.623.516,2.338,2.338,0,0,1-.972.187,2.186,2.186,0,0,1-1.11-.255,1.462,1.462,0,0,1-.506-.489,1.112,1.112,0,0,1-.195-.6.4.4,0,0,1,.414-.407.354.354,0,0,1,.248.093.728.728,0,0,1,.172.277,1.849,1.849,0,0,0,.188.363.772.772,0,0,0,.284.242,1.061,1.061,0,0,0,.483.095,1.1,1.1,0,0,0,.668-.192.575.575,0,0,0,.256-.477.506.506,0,0,0-.139-.37.894.894,0,0,0-.357-.215,6.052,6.052,0,0,0-.587-.159,4.3,4.3,0,0,1-.822-.27,1.319,1.319,0,0,1-.526-.419,1.094,1.094,0,0,1-.194-.661,1.135,1.135,0,0,1,.205-.669,1.29,1.29,0,0,1,.593-.45,2.444,2.444,0,0,1,.913-.156,2.276,2.276,0,0,1,.726.1,1.557,1.557,0,0,1,.508.276,1.18,1.18,0,0,1,.3.363.837.837,0,0,1,.093.37.436.436,0,0,1-.117.3.365.365,0,0,1-.289.133.33.33,0,0,1-.239-.08,1.051,1.051,0,0,1-.178-.26,1.175,1.175,0,0,0-.3-.4.877.877,0,0,0-.56-.144.963.963,0,0,0-.576.157.457.457,0,0,0-.22.378.38.38,0,0,0,.075.236.63.63,0,0,0,.205.172,1.432,1.432,0,0,0,.264.112c.089.027.236.066.442.118a7.053,7.053,0,0,1,.7.2,2.166,2.166,0,0,1,.53.264,1.086,1.086,0,0,1,.34.394A1.262,1.262,0,0,1,348.752,197.86Z"/><path id="path75" class="cls-2" d="M352.443,198.742v-3.591a.6.6,0,0,1,.127-.42.434.434,0,0,1,.331-.14.439.439,0,0,1,.338.139.6.6,0,0,1,.129.421v3.591a.6.6,0,0,1-.129.423.442.442,0,0,1-.338.141.424.424,0,0,1-.329-.142A.609.609,0,0,1,352.443,198.742Z"/><path id="path77" class="cls-2" d="M361.243,195.7a1.839,1.839,0,0,0-.763-.821,2.438,2.438,0,0,0-1.216-.286,2.536,2.536,0,0,0-.936.165,1.943,1.943,0,0,0-.693.471,2.055,2.055,0,0,0-.433.745,2.9,2.9,0,0,0-.153.961,3.078,3.078,0,0,0,.146.955,2.013,2.013,0,0,0,.427.757,1.821,1.821,0,0,0,.706.49,2.5,2.5,0,0,0,.955.172,2.437,2.437,0,0,0,.948-.172,1.9,1.9,0,0,0,.707-.484,2.12,2.12,0,0,0,.426-.751,3,3,0,0,0,.14-.961A2.694,2.694,0,0,0,361.243,195.7Zm-.846,2.151a1.237,1.237,0,0,1-.471.554,1.273,1.273,0,0,1-.649.178,1.336,1.336,0,0,1-.51-.1,1.222,1.222,0,0,1-.407-.312,1.546,1.546,0,0,1-.28-.529,2.4,2.4,0,0,1-.095-.7,2.347,2.347,0,0,1,.095-.7,1.531,1.531,0,0,1,.267-.509,1.087,1.087,0,0,1,.4-.3,1.307,1.307,0,0,1,1.2.082,1.232,1.232,0,0,1,.459.56,2.129,2.129,0,0,1,.159.866A2.186,2.186,0,0,1,360.4,197.849Z"/><path id="path79" class="cls-2" d="M366.367,195.145l1.781,2.689V195.12a.6.6,0,0,1,.113-.4.379.379,0,0,1,.3-.132.394.394,0,0,1,.313.132.6.6,0,0,1,.114.4v3.585q0,.6-.5.6a.673.673,0,0,1-.223-.036.564.564,0,0,1-.187-.114,1.148,1.148,0,0,1-.162-.182l-.148-.213L366.04,196.1v2.673a.569.569,0,0,1-.121.395.43.43,0,0,1-.625,0,.582.582,0,0,1-.119-.393v-3.517a.975.975,0,0,1,.05-.351.494.494,0,0,1,.2-.229.532.532,0,0,1,.3-.088.513.513,0,0,1,.213.04.5.5,0,0,1,.155.109,1.175,1.175,0,0,1,.138.177C366.269,194.99,366.317,195.066,366.367,195.145Z"/><rect class="cls-2" x="300.422" y="201.466" width="68.9" height="0.636"/></g><text class="cls-28" transform="translate(76.34 47.521)">h<tspan class="cls-29" x="5.71" y="0">t</tspan><tspan class="cls-30" x="8.951" y="0">t</tspan><tspan x="12.17" y="0">p</tspan><tspan class="cls-31" x="18.238" y="0">s</tspan><tspan x="23.076" y="0">:</tspan><tspan class="cls-32" x="26.049" y="0">/</tspan><tspan class="cls-33" x="30.765" y="0">/</tspan><tspan x="36.576" y="0">gocd.</tspan><tspan class="cls-34" x="62.604" y="0">y</tspan><tspan x="67.71" y="0">ou</tspan><tspan class="cls-35" x="79.231" y="0">r</tspan><tspan x="82.674" y="0">build.</tspan><tspan class="cls-36" x="108.823" y="0">c</tspan><tspan class="cls-37" x="113.774" y="0">om</tspan></text><path class="cls-2" d="M946.994,33.079v23H2.006v-23H946.994m2-2H.006v27H948.994v-27Z"/><rect class="cls-3" x="71.69" y="36.283" width="847.709" height="16.592" rx="1.915" ry="1.915"/><path class="cls-2" d="M907.71,41.079l.9,1.829a1,1,0,0,0,.758.551l2.019.294-1.461,1.424a1.007,1.007,0,0,0-.29.891l.345,2.011-1.806-.95a1.012,1.012,0,0,0-.937,0l-1.8.95.344-2.011a1.006,1.006,0,0,0-.289-.891l-1.461-1.424,2.019-.294a1,1,0,0,0,.758-.551l.9-1.829m0-2a2,2,0,0,0-1.793,1.115l-.672,1.361-1.5.218a2,2,0,0,0-1.108,3.412l1.087,1.06-.257,1.5a2,2,0,0,0,2.9,2.108l1.344-.706,1.344.706a2,2,0,0,0,2.9-2.109l-.257-1.5,1.087-1.06a2,2,0,0,0-1.108-3.412l-1.5-.218-.672-1.361a2,2,0,0,0-1.793-1.115Z"/><circle class="cls-3" cx="18.525" cy="17.051" r="4.525"/><circle class="cls-3" cx="34.363" cy="17.051" r="4.525"/><circle class="cls-3" cx="50.201" cy="17.051" r="4.525"/><path class="cls-2" d="M238.275,13.509a5.526,5.526,0,0,1,5.125,3.353L249.354,31H73.619l5.953-14.137A5.526,5.526,0,0,1,84.7,13.509H238.275m0-2H84.7a7.545,7.545,0,0,0-6.969,4.577L70.606,33h181.76l-7.122-16.914a7.546,7.546,0,0,0-6.969-4.577Z"/><circle class="cls-3" cx="932.975" cy="40.054" r="1.508"/><circle class="cls-3" cx="932.975" cy="44.579" r="1.508"/><circle class="cls-3" cx="932.975" cy="49.104" r="1.508"/><path class="cls-2" d="M947,58V90H2V58H947m2-2H0V92H949V56Z"/><rect class="cls-3" x="91.299" y="68.344" width="48.268" height="11.313"/><rect class="cls-3" x="171.998" y="68.344" width="48.268" height="11.313"/><rect class="cls-3" x="252.696" y="68.344" width="48.268" height="11.313"/><rect class="cls-3" x="333.394" y="68.344" width="48.268" height="11.313"/><rect class="cls-3" x="871.132" y="68.344" width="48.268" height="11.313"/><path class="cls-2" d="M46.652,82.075A6.229,6.229,0,0,1,45.3,84.254a5.972,5.972,0,0,1-2.1,1.408,7.139,7.139,0,0,1-2.7.5,6.705,6.705,0,0,1-3.925-1.138,5.242,5.242,0,0,1-2.134-3.109h2.217a3.3,3.3,0,0,0,.824,1.161,3.615,3.615,0,0,0,1.063.659,4.8,4.8,0,0,0,1.086.3,6.058,6.058,0,0,0,.877.075,4.539,4.539,0,0,0,2.082-.435,4,4,0,0,0,1.393-1.123A4.272,4.272,0,0,0,44.764,81,6.636,6.636,0,0,0,45,79.251V77.9a6.008,6.008,0,0,1-1.835,1.61,4.928,4.928,0,0,1-2.532.659,6.162,6.162,0,0,1-4.6-1.97A6.741,6.741,0,0,1,34.69,76.06a7.318,7.318,0,0,1,0-5.25,6.479,6.479,0,0,1,3.378-3.588,6.067,6.067,0,0,1,2.569-.539,4.962,4.962,0,0,1,2.592.7,5.878,5.878,0,0,1,1.843,1.67V67.005h2.044V79.251A7.587,7.587,0,0,1,46.652,82.075ZM44.66,71.6a4.95,4.95,0,0,0-.952-1.535,4.331,4.331,0,0,0-1.385-1.034,3.911,3.911,0,0,0-1.686-.375,3.964,3.964,0,0,0-1.692.375,4.042,4.042,0,0,0-1.371,1.034,5.166,5.166,0,0,0-1.251,3.408,5.045,5.045,0,0,0,.337,1.842,4.869,4.869,0,0,0,.914,1.521,4.235,4.235,0,0,0,1.371,1.026,3.99,3.99,0,0,0,1.692.374,3.911,3.911,0,0,0,1.686-.374,4.427,4.427,0,0,0,1.385-1.026,5.1,5.1,0,0,0,.952-1.521,4.947,4.947,0,0,0,.352-1.842A5.02,5.02,0,0,0,44.66,71.6Z"/><path class="cls-2" d="M57.64,67.222a6.459,6.459,0,0,1,2.045,1.46,6.822,6.822,0,0,1,1.355,2.157,7.014,7.014,0,0,1,.5,2.63,6.708,6.708,0,0,1-.5,2.606,6.842,6.842,0,0,1-1.355,2.12,6.3,6.3,0,0,1-4.6,1.955,6.154,6.154,0,0,1-2.547-.525,6.48,6.48,0,0,1-2.045-1.43,6.619,6.619,0,0,1-1.37-2.12,7.077,7.077,0,0,1,0-5.236,6.721,6.721,0,0,1,1.37-2.157,6.631,6.631,0,0,1,2.045-1.46,6.3,6.3,0,0,1,5.1,0Zm-.869,10.613a4.5,4.5,0,0,0,1.386-1.011,4.7,4.7,0,0,0,.936-1.5,5.088,5.088,0,0,0,.337-1.843,5.193,5.193,0,0,0-.337-1.88,4.744,4.744,0,0,0-.936-1.535,4.567,4.567,0,0,0-1.386-1.034,3.807,3.807,0,0,0-1.685-.39,3.715,3.715,0,0,0-1.685.39,4.509,4.509,0,0,0-1.371,1.034,4.816,4.816,0,0,0-.921,1.535,5.256,5.256,0,0,0-.337,1.88,5.026,5.026,0,0,0,.337,1.843,4.6,4.6,0,0,0,.921,1.5A4.33,4.33,0,0,0,53.4,77.835a3.973,3.973,0,0,0,3.37,0Z"/><path class="cls-2" d="M15.134,83.063a2.086,2.086,0,0,1-1-.254,2.121,2.121,0,0,1-1.123-1.873V72.45a2.12,2.12,0,1,1,4.239,0v4.524l6.786-4.524L13.95,65.724A2.123,2.123,0,0,1,16.3,62.188l12.741,8.494a2.128,2.128,0,0,1,0,3.536L16.31,82.7A2.113,2.113,0,0,1,15.134,83.063Z"/><line class="cls-3" x1="30.412" y1="44.579" x2="39.412" y2="44.579"/><polyline class="cls-3" points="35.412 40.579 39.412 44.579 35.412 48.579"/><line class="cls-3" x1="23" y1="44.579" x2="14" y2="44.579"/><polyline class="cls-3" points="18 48.579 14 44.579 18 40.579"/></g></g></svg>