<svg xmlns="http://www.w3.org/2000/svg" viewBox="0 0 949 466"><defs><style>.cls-1,.cls-2,.cls-3{fill:#fff;}.cls-1{fill-opacity:0;}.cls-3{fill-opacity:0.2;}.cls-4{fill:#c8db57;}</style></defs><title>Asset 2</title><g id="Layer_2" data-name="Layer 2"><g id="Text_Headlines" data-name="Text, Headlines"><path class="cls-1" d="M946.327,464H32.631L2,433.369V2.673A.673.673,0,0,1,2.673,2H917.724L947,31.276V463.327A.673.673,0,0,1,946.327,464Z"/><path class="cls-2" d="M917.725,2,947,31.276V463.327a.673.673,0,0,1-.673.673H32.631L2,433.369V2.673A.673.673,0,0,1,2.673,2H917.725m0-2H2.673A2.676,2.676,0,0,0,0,2.673v430.7a2,2,0,0,0,.586,1.414L25.82,460.018l5.4,5.4a2,2,0,0,0,1.414.586h913.7A2.676,2.676,0,0,0,949,463.327V31.276a2,2,0,0,0-.586-1.415L933.776,15.224,919.139.586A2,2,0,0,0,917.725,0Z"/><path class="cls-2" d="M51.318,50.271A5.5,5.5,0,1,1,54.46,40.264,5.421,5.421,0,0,1,56.3,42.45a1,1,0,1,1-1.818.834,3.384,3.384,0,0,0-1.162-1.378,3.5,3.5,0,1,0-.514,6.032,1,1,0,1,1,.853,1.809A5.46,5.46,0,0,1,51.318,50.271Z"/><path class="cls-2" d="M56.271,45.062a.982.982,0,0,1-.172-.014l-4.176-.73a1,1,0,1,1,.344-1.97l3.19.557.558-3.191a1,1,0,1,1,1.97.344l-.729,4.176a1,1,0,0,1-.985.828Z"/><circle class="cls-3" cx="82.977" cy="172.443" r="53.898"/><path class="cls-2" d="M82.978,227.341a54.9,54.9,0,1,1,54.9-54.9A54.961,54.961,0,0,1,82.978,227.341Zm0-107.8a52.9,52.9,0,1,0,52.9,52.9A52.959,52.959,0,0,0,82.978,119.544Z"/><path class="cls-2" d="M96.7,167.263a5,5,0,0,1,1.166,3.185c0,3.5-2.743,5.548-6.714,5.548a10.009,10.009,0,0,1-2.492-.283l-1.041,1.671,3.09.189c5.455.347,8.67.5,8.67,4.7,0,3.627-3.184,5.675-8.67,5.675-5.706,0-7.882-1.45-7.882-3.941,0-1.419.631-2.174,1.734-3.216a2.1,2.1,0,0,1-1.387-2.079,2.822,2.822,0,0,1,.915-1.924c.567-.6,1.2-1.2,1.954-1.892a5.036,5.036,0,0,1-2.711-4.73c0-3.625,2.4-6.115,7.219-6.115a10.84,10.84,0,0,1,2.9.315H99.6v2.679Zm-9.332,14.378a2.793,2.793,0,0,0-.82,1.671c0,1.26,1.607,1.639,3.815,1.639,1.828,0,4.319-.128,4.319-1.828,0-1.011-1.2-1.073-2.712-1.168Zm3.467-14.473c-1.734,0-3.026.852-3.026,2.9,0,1.545.851,2.617,2.933,2.617a2.665,2.665,0,0,0,2.963-2.68A2.584,2.584,0,0,0,90.833,167.168Z"/><path class="cls-2" d="M101.078,180.481v-2.489l1.608-.22c.442-.064.5-.158.5-.632v-9.27c0-.346-.095-.567-.411-.661l-1.7-.6.346-2.553h6.527V177.14c0,.505.031.568.505.632l1.608.22v2.489Zm4.068-18.947a2.589,2.589,0,0,1-2.838-2.839,2.855,2.855,0,0,1,5.707,0A2.6,2.6,0,0,1,105.146,161.534Z"/><path class="cls-2" d="M122.532,179.259a12.616,12.616,0,0,1-5.14,1.26c-3.752,0-5.17-1.512-5.17-5.076v-8.26c0-.188,0-.315-.253-.315h-2.207v-2.806c2.775-.316,3.878-1.7,4.225-5.14h3V163.4c0,.22,0,.316.252.316h4.445v3.152h-4.7V174.4c0,1.86.442,2.585,2.143,2.585a7.5,7.5,0,0,0,2.554-.5Z"/><path class="cls-2" d="M75.817,170.985,61.4,156.57a2.127,2.127,0,0,0-3.007,0L55.4,159.564l3.8,3.8a2.525,2.525,0,0,1,3.2,3.219l3.659,3.66a2.527,2.527,0,1,1-1.515,1.426l-3.413-3.413v8.982a2.523,2.523,0,1,1-2.08-.074V168.1a2.489,2.489,0,0,1-.828-.552,2.529,2.529,0,0,1-.545-2.766l-3.743-3.744-9.885,9.884a2.126,2.126,0,0,0,0,3.008l14.416,14.415a2.125,2.125,0,0,0,3.007,0l14.349-14.348A2.128,2.128,0,0,0,75.817,170.985Z"/><path class="cls-2" d="M420.612,396.045v-2c25.093,0,28.788-25.643,32.7-52.79,4.145-28.766,8.431-58.511,39.28-58.511v2c-29.116,0-33.277,28.874-37.3,56.8C451.431,368.337,447.438,396.045,420.612,396.045Z"/><rect class="cls-2" x="420.612" y="282.744" width="72.315" height="2"/><polygon class="cls-2" points="484.311 273.108 482.537 275.013 491.93 283.741 482.537 292.472 484.311 294.377 495.748 283.741 484.311 273.108"/><rect class="cls-2" x="388.836" y="171.442" width="104.092" height="2"/><polygon class="cls-2" points="484.311 161.807 482.537 163.712 491.93 172.44 482.537 181.171 484.311 183.076 495.748 172.44 484.311 161.807"/><path class="cls-2" d="M245.928,284.744c-25.917,0-45.321-8.223-59.318-25.14-12.043-14.555-18.092-33.036-23.43-49.341-6.734-20.572-12.053-36.821-26.305-36.821v-2c15.7,0,21.5,17.7,28.206,38.2,10.662,32.569,23.931,73.1,80.847,73.1Z"/><polygon class="cls-2" points="237.311 273.108 235.537 275.013 244.93 283.741 235.537 292.472 237.311 294.377 248.748 283.741 237.311 273.108"/><path class="cls-2" d="M245.928,396.045c-24.827,0-43.014-15-55.6-45.859-10.872-26.66-16.135-61.7-20.778-92.62-6.78-45.139-12.634-84.124-32.676-84.124v-2c21.764,0,27.737,39.774,34.653,85.828,4.627,30.805,9.871,65.722,20.653,92.16,12.244,30.021,29.824,44.615,53.747,44.615Z"/><polygon class="cls-2" points="237.311 384.409 235.537 386.314 244.93 395.042 235.537 403.773 237.311 405.678 248.748 395.042 237.311 384.409"/><path class="cls-2" d="M667.982,284.744v-2c25.132,0,30.04-25.664,35.237-52.835,5.5-28.744,11.181-58.467,41.991-58.467v2c-29.155,0-34.682,28.9-40.026,56.843C700.063,257.059,694.769,284.744,667.982,284.744Z"/><rect class="cls-2" x="667.982" y="171.442" width="77.228" height="2"/><polygon class="cls-2" points="736.593 161.807 734.82 163.712 744.212 172.44 734.82 181.171 736.593 183.076 748.03 172.44 736.593 161.807"/><g id="_Group_" data-name="&lt;Group&gt;"><g id="RECTANGLE_STAGE" data-name="RECTANGLE STAGE"><rect class="cls-3" x="249.264" y="245.926" width="171.349" height="75.635" rx="9.368" ry="9.368"/><path class="cls-2" d="M411.244,245.926a9.368,9.368,0,0,1,9.368,9.368v56.9a9.368,9.368,0,0,1-9.368,9.368H258.632a9.368,9.368,0,0,1-9.368-9.368v-56.9a9.368,9.368,0,0,1,9.368-9.368H411.244m0-2H258.632a11.381,11.381,0,0,0-11.368,11.368v56.9a11.381,11.381,0,0,0,11.368,11.368H411.244a11.381,11.381,0,0,0,11.368-11.368v-56.9a11.381,11.381,0,0,0-11.368-11.368Z"/><path class="cls-2" d="M258.92,278.47a1.071,1.071,0,0,1-.391-.08.879.879,0,0,1-.319-.22,1.035,1.035,0,0,1-.221-.32.988.988,0,0,1-.069-.38.711.711,0,0,1,.019-.2,1.48,1.48,0,0,1,.05-.19,1.685,1.685,0,0,1,.1-.17.759.759,0,0,1,.12-.15,1.034,1.034,0,0,1,1.41,0,1.6,1.6,0,0,1,.13.15c.029.06.06.11.09.17s.04.13.059.19a1.223,1.223,0,0,1,.021.2,1,1,0,0,1-.08.38,1.066,1.066,0,0,1-.54.54A1.015,1.015,0,0,1,258.92,278.47Z"/><path class="cls-2" d="M406.04,277.47a1,1,0,0,1,1-1h0a1,1,0,0,1,1.01,1h0a1,1,0,0,1-1.01,1h0A1,1,0,0,1,406.04,277.47Zm-5.92,0a1,1,0,0,1,1-1h0a1,1,0,0,1,1,1h0a1,1,0,0,1-1,1h0A1,1,0,0,1,400.12,277.47Zm-5.931,0a1,1,0,0,1,1.01-1h0a.987.987,0,0,1,.99,1h0a.994.994,0,0,1-.99,1h0A1.006,1.006,0,0,1,394.189,277.47Zm-5.919,0a1,1,0,0,1,1-1h0a1,1,0,0,1,1,1h0a1,1,0,0,1-1,1h0A1,1,0,0,1,388.27,277.47Zm-5.93,0a1,1,0,0,1,1-1h0a.991.991,0,0,1,1,1h0a1,1,0,0,1-1,1h0A1,1,0,0,1,382.34,277.47Zm-5.92,0a1,1,0,0,1,1-1h0a1,1,0,0,1,1,1h0a1,1,0,0,1-1,1h0A1,1,0,0,1,376.42,277.47Zm-5.931,0a1,1,0,0,1,1-1h0a1,1,0,0,1,1,1h0a1,1,0,0,1-1,1h0A1,1,0,0,1,370.489,277.47Zm-5.92,0a1,1,0,0,1,1-1h0a1,1,0,0,1,1,1h0a1,1,0,0,1-1,1h0A1,1,0,0,1,364.569,277.47Zm-5.929,0a1,1,0,0,1,1-1h0a1,1,0,0,1,1.009,1h0a1.011,1.011,0,0,1-1.009,1h0A1,1,0,0,1,358.64,277.47Zm-5.92,0a.99.99,0,0,1,1-1h0a1,1,0,0,1,1,1h0a1,1,0,0,1-1,1h0A1,1,0,0,1,352.72,277.47Zm-5.93,0a1,1,0,0,1,1-1h0a.99.99,0,0,1,1,1h0a1,1,0,0,1-1,1h0A1,1,0,0,1,346.79,277.47Zm-5.92,0a1,1,0,0,1,1-1h0a1,1,0,0,1,1,1h0a1,1,0,0,1-1,1h0A1,1,0,0,1,340.87,277.47Zm-5.931,0a1,1,0,0,1,1-1h0a.99.99,0,0,1,1,1h0a1,1,0,0,1-1,1h0A1,1,0,0,1,334.939,277.47Zm-5.919,0a1,1,0,0,1,1-1h0a1,1,0,0,1,1,1h0a1,1,0,0,1-1,1h0A1,1,0,0,1,329.02,277.47Zm-5.93,0a1,1,0,0,1,1-1h0a1,1,0,0,1,1,1h0a1,1,0,0,1-1,1h0A1,1,0,0,1,323.09,277.47Zm-5.92,0a1,1,0,0,1,1-1h0a1,1,0,0,1,1,1h0a1,1,0,0,1-1,1h0A1,1,0,0,1,317.17,277.47Zm-5.931,0a1,1,0,0,1,1-1h0a1,1,0,0,1,1,1h0a1,1,0,0,1-1,1h0A1,1,0,0,1,311.239,277.47Zm-5.92,0a.991.991,0,0,1,1-1h0a1,1,0,0,1,1,1h0a1,1,0,0,1-1,1h0A1,1,0,0,1,305.319,277.47Zm-5.929,0a1,1,0,0,1,1-1h0a1,1,0,0,1,1,1h0a1,1,0,0,1-1,1h0A1,1,0,0,1,299.39,277.47Zm-5.92,0a.99.99,0,0,1,1-1h0a1,1,0,0,1,1,1h0a1,1,0,0,1-1,1h0A1,1,0,0,1,293.47,277.47Zm-5.93,0a1,1,0,0,1,1-1h0a.99.99,0,0,1,1,1h0a1,1,0,0,1-1,1h0A1,1,0,0,1,287.54,277.47Zm-5.92,0a.99.99,0,0,1,1-1h0a1,1,0,0,1,1,1h0a1,1,0,0,1-1,1h0A1,1,0,0,1,281.62,277.47Zm-5.931,0a1,1,0,0,1,1-1h0a.99.99,0,0,1,1,1h0a1,1,0,0,1-1,1h0A1,1,0,0,1,275.689,277.47Zm-5.919,0a1,1,0,0,1,1-1h0a1,1,0,0,1,1,1h0a1,1,0,0,1-1,1h0A1,1,0,0,1,269.77,277.47Zm-5.93,0a1,1,0,0,1,1-1h0a1,1,0,0,1,1,1h0a1,1,0,0,1-1,1h0A1,1,0,0,1,263.84,277.47Z"/><path class="cls-2" d="M412.97,278.47a1,1,0,0,1-.71-.3,1.016,1.016,0,0,1-.22-.32,1.222,1.222,0,0,1-.07-.38,1.087,1.087,0,0,1,.08-.39.988.988,0,0,1,.21-.32,1.251,1.251,0,0,1,.33-.22,1.036,1.036,0,0,1,.58-.05,1.243,1.243,0,0,1,.18.05,1.39,1.39,0,0,1,.179.1.763.763,0,0,1,.151.12,1.186,1.186,0,0,1,.219.32,1.074,1.074,0,0,1,.071.39.99.99,0,0,1-.071.38,1.186,1.186,0,0,1-.219.32.92.92,0,0,1-.33.22A.983.983,0,0,1,412.97,278.47Z"/><rect class="cls-4" x="258.515" y="291.118" width="152.846" height="17.353" rx="1" ry="1"/><polygon class="cls-2" points="265.624 261.377 261.602 261.377 261.602 258.33 260.626 258.33 260.626 255.679 259.199 255.679 259.199 258.33 258.223 258.33 258.223 261.377 258.223 264.756 258.223 267.803 259.199 267.803 259.199 270.454 260.626 270.454 260.626 267.803 261.602 267.803 261.602 264.756 265.624 264.756 265.624 261.377"/><line class="cls-2" x1="259.199" y1="258.33" x2="260.626" y2="258.33"/><line class="cls-2" x1="259.199" y1="267.803" x2="260.626" y2="267.803"/></g></g><path class="cls-2" d="M275.326,267.229h-2.283V256.938h2.53a4.386,4.386,0,0,1,2.252.463,3.257,3.257,0,0,1,1.589,2.885,3.35,3.35,0,0,1-1.589,2.9,4.377,4.377,0,0,1-2.252.462h-.247Zm.386-5.662c1.049,0,1.5-.371,1.5-1.281,0-.879-.447-1.265-1.5-1.265h-.4v2.546Z"/><path class="cls-2" d="M282.56,258.034a1.3,1.3,0,1,1-1.312-1.264A1.287,1.287,0,0,1,282.56,258.034Zm-.2,9.195h-2.19V260.4h2.19Z"/><path class="cls-2" d="M286.015,260.4v.339a2.583,2.583,0,0,1,1.712-.6,3.687,3.687,0,0,1,0,7.359,2.609,2.609,0,0,1-1.712-.6v3.949h-2.192V260.4ZM286,263.819a1.508,1.508,0,0,0,1.48,1.7,1.723,1.723,0,1,0-1.48-1.7Z"/><path class="cls-2" d="M298.616,265.64a3.671,3.671,0,0,1-3.224,1.851,3.673,3.673,0,0,1-.078-7.344,3.54,3.54,0,0,1,3.488,3.811c0,.154,0,.293-.016.571h-4.767a1.285,1.285,0,0,0,1.342,1.049,1.471,1.471,0,0,0,1.3-.694Zm-1.99-2.546c-.247-.74-.617-1.049-1.3-1.049a1.229,1.229,0,0,0-1.311,1.049Z"/><path class="cls-2" d="M299.817,267.229V256.938h2.191v10.291Z"/><path class="cls-2" d="M305.9,258.034a1.3,1.3,0,1,1-1.312-1.264A1.287,1.287,0,0,1,305.9,258.034Zm-.2,9.195H303.5V260.4h2.19Z"/><path class="cls-2" d="M309.351,260.672a2.218,2.218,0,0,1,1.511-.54,2.654,2.654,0,0,1,2.284,1.311,4.162,4.162,0,0,1,.431,2.083v3.7h-2.19v-3.595c0-1.172-.216-1.528-.942-1.528a1.026,1.026,0,0,0-.91.433,2.467,2.467,0,0,0-.184,1.234v3.456h-2.192V260.4h2.192Z"/><path class="cls-2" d="M321.458,265.64a3.671,3.671,0,0,1-3.225,1.851,3.673,3.673,0,0,1-.077-7.344,3.54,3.54,0,0,1,3.488,3.811c0,.154,0,.293-.016.571H316.86a1.286,1.286,0,0,0,1.343,1.049,1.471,1.471,0,0,0,1.3-.694Zm-1.99-2.546c-.247-.74-.617-1.049-1.3-1.049a1.23,1.23,0,0,0-1.312,1.049Z"/><path class="cls-2" d="M336.666,262.092a5.485,5.485,0,1,1-5.491-5.415A5.472,5.472,0,0,1,336.666,262.092Zm-8.67.046a3.188,3.188,0,1,0,3.163-3.332A3.217,3.217,0,0,0,328,262.138Z"/><path class="cls-2" d="M339.98,260.672a2.222,2.222,0,0,1,1.512-.54,2.652,2.652,0,0,1,2.283,1.311,4.15,4.15,0,0,1,.432,2.083v3.7h-2.19v-3.595c0-1.172-.216-1.528-.942-1.528a1.026,1.026,0,0,0-.91.433,2.464,2.464,0,0,0-.185,1.234v3.456h-2.191V260.4h2.191Z"/><path class="cls-2" d="M352.088,265.64a3.671,3.671,0,0,1-3.225,1.851,3.673,3.673,0,0,1-.077-7.344,3.54,3.54,0,0,1,3.487,3.811c0,.154,0,.293-.015.571H347.49a1.286,1.286,0,0,0,1.343,1.049,1.47,1.47,0,0,0,1.3-.694Zm-1.99-2.546c-.247-.74-.618-1.049-1.3-1.049a1.23,1.23,0,0,0-1.312,1.049Z"/><path class="cls-2" d="M356.437,261.845a1.3,1.3,0,1,1-1.312-1.265A1.287,1.287,0,0,1,356.437,261.845Zm0,4.35a1.3,1.3,0,1,1-1.3-1.265A1.287,1.287,0,0,1,356.437,266.2Z"/><path class="cls-2" d="M361.541,256.938h2.545a4.572,4.572,0,0,1,2.376.5,2.919,2.919,0,0,1,1.45,2.437,2.343,2.343,0,0,1-.849,1.836,2.909,2.909,0,0,1,1.328,2.422,3,3,0,0,1-1.62,2.622,4.142,4.142,0,0,1-2.207.479h-3.023Zm2.715,4.12a1.863,1.863,0,0,0,1-.155,1,1,0,0,0,.509-.925c0-.756-.416-1.049-1.512-1.049h-.509v2.129Zm.231,4.134a2.272,2.272,0,0,0,1.142-.185,1.126,1.126,0,0,0,.047-1.913,2.662,2.662,0,0,0-1.327-.216h-.6v2.314Z"/><path class="cls-2" d="M373.757,266.951a2.225,2.225,0,0,1-1.512.54,2.652,2.652,0,0,1-2.283-1.311,4.15,4.15,0,0,1-.433-2.083v-3.7h2.192v3.594c0,1.157.231,1.528.956,1.528a1.014,1.014,0,0,0,.894-.433,2.459,2.459,0,0,0,.186-1.234V260.4h2.19v6.834h-2.19Z"/><path class="cls-2" d="M379.817,258.034a1.3,1.3,0,1,1-1.311-1.264A1.287,1.287,0,0,1,379.817,258.034Zm-.2,9.195h-2.19V260.4h2.19Z"/><path class="cls-2" d="M381.1,267.229V256.938h2.19v10.291Z"/><path class="cls-2" d="M389.5,267.229v-.34a2.586,2.586,0,0,1-1.712.6,3.687,3.687,0,0,1,0-7.359,2.65,2.65,0,0,1,1.712.587v-3.781h2.19v10.291Zm-2.962-3.394a1.531,1.531,0,0,0,1.5,1.682c.9,0,1.482-.68,1.482-1.729a1.5,1.5,0,0,0-1.5-1.682A1.536,1.536,0,0,0,386.542,263.835Z"/><g id="_Group_2" data-name="&lt;Group&gt;"><g id="RECTANGLE_STAGE-2" data-name="RECTANGLE STAGE"><rect class="cls-3" x="249.264" y="357.227" width="171.349" height="75.635" rx="9.368" ry="9.368"/><path class="cls-2" d="M411.244,357.227a9.368,9.368,0,0,1,9.368,9.368v56.9a9.368,9.368,0,0,1-9.368,9.368H258.632a9.368,9.368,0,0,1-9.368-9.368V366.6a9.368,9.368,0,0,1,9.368-9.368H411.244m0-2H258.632A11.381,11.381,0,0,0,247.264,366.6v56.9a11.38,11.38,0,0,0,11.368,11.368H411.244a11.38,11.38,0,0,0,11.368-11.368V366.6a11.381,11.381,0,0,0-11.368-11.368Z"/><path class="cls-2" d="M258.92,389.77a1.032,1.032,0,0,1-.391-.081.976.976,0,0,1-.609-.919.99.99,0,0,1,.29-.71,1.023,1.023,0,0,1,.319-.22,1.253,1.253,0,0,1,.191-.05.852.852,0,0,1,.389,0,.729.729,0,0,1,.361.149.468.468,0,0,1,.15.121.989.989,0,0,1,0,1.419,1.046,1.046,0,0,1-.7.291Z"/><path class="cls-2" d="M406.04,388.77a1,1,0,0,1,1-1h0a1,1,0,0,1,1.01,1h0a1.006,1.006,0,0,1-1.01,1h0A1,1,0,0,1,406.04,388.77Zm-5.92,0a1,1,0,0,1,1-1h0a1,1,0,0,1,1,1h0a1,1,0,0,1-1,1h0A1,1,0,0,1,400.12,388.77Zm-5.931,0a1,1,0,0,1,1.01-1h0a.987.987,0,0,1,.99,1h0a.994.994,0,0,1-.99,1h0A1.006,1.006,0,0,1,394.189,388.77Zm-5.919,0a1,1,0,0,1,1-1h0a1,1,0,0,1,1,1h0a1,1,0,0,1-1,1h0A1,1,0,0,1,388.27,388.77Zm-5.93,0a1,1,0,0,1,1-1h0a.991.991,0,0,1,1,1h0a1,1,0,0,1-1,1h0A1,1,0,0,1,382.34,388.77Zm-5.92,0a1,1,0,0,1,1-1h0a1,1,0,0,1,1,1h0a1,1,0,0,1-1,1h0A1,1,0,0,1,376.42,388.77Zm-5.931,0a1,1,0,0,1,1-1h0a1,1,0,0,1,1,1h0a1,1,0,0,1-1,1h0A1,1,0,0,1,370.489,388.77Zm-5.92,0a1,1,0,0,1,1-1h0a1,1,0,0,1,1,1h0a1,1,0,0,1-1,1h0A1,1,0,0,1,364.569,388.77Zm-5.929,0a1,1,0,0,1,1-1h0a1,1,0,0,1,1.009,1h0a1.012,1.012,0,0,1-1.009,1h0A1,1,0,0,1,358.64,388.77Zm-5.92,0a.99.99,0,0,1,1-1h0a1,1,0,0,1,1,1h0a1,1,0,0,1-1,1h0A1,1,0,0,1,352.72,388.77Zm-5.93,0a1,1,0,0,1,1-1h0a.99.99,0,0,1,1,1h0a1,1,0,0,1-1,1h0A1,1,0,0,1,346.79,388.77Zm-5.92,0a1,1,0,0,1,1-1h0a1,1,0,0,1,1,1h0a1,1,0,0,1-1,1h0A1,1,0,0,1,340.87,388.77Zm-5.931,0a1,1,0,0,1,1-1h0a.99.99,0,0,1,1,1h0a1,1,0,0,1-1,1h0A1,1,0,0,1,334.939,388.77Zm-5.919,0a1,1,0,0,1,1-1h0a1,1,0,0,1,1,1h0a1,1,0,0,1-1,1h0A1,1,0,0,1,329.02,388.77Zm-5.93,0a1,1,0,0,1,1-1h0a1,1,0,0,1,1,1h0a1,1,0,0,1-1,1h0A1,1,0,0,1,323.09,388.77Zm-5.92,0a1,1,0,0,1,1-1h0a1,1,0,0,1,1,1h0a1,1,0,0,1-1,1h0A1,1,0,0,1,317.17,388.77Zm-5.931,0a1,1,0,0,1,1-1h0a1,1,0,0,1,1,1h0a1,1,0,0,1-1,1h0A1,1,0,0,1,311.239,388.77Zm-5.92,0a.991.991,0,0,1,1-1h0a1,1,0,0,1,1,1h0a1,1,0,0,1-1,1h0A1,1,0,0,1,305.319,388.77Zm-5.929,0a1,1,0,0,1,1-1h0a1,1,0,0,1,1,1h0a1,1,0,0,1-1,1h0A1,1,0,0,1,299.39,388.77Zm-5.92,0a.99.99,0,0,1,1-1h0a1,1,0,0,1,1,1h0a1,1,0,0,1-1,1h0A1,1,0,0,1,293.47,388.77Zm-5.93,0a1,1,0,0,1,1-1h0a.99.99,0,0,1,1,1h0a1,1,0,0,1-1,1h0A1,1,0,0,1,287.54,388.77Zm-5.92,0a.99.99,0,0,1,1-1h0a1,1,0,0,1,1,1h0a1,1,0,0,1-1,1h0A1,1,0,0,1,281.62,388.77Zm-5.931,0a1,1,0,0,1,1-1h0a.99.99,0,0,1,1,1h0a1,1,0,0,1-1,1h0A1,1,0,0,1,275.689,388.77Zm-5.919,0a1,1,0,0,1,1-1h0a1,1,0,0,1,1,1h0a1,1,0,0,1-1,1h0A1,1,0,0,1,269.77,388.77Zm-5.93,0a1,1,0,0,1,1-1h0a1,1,0,0,1,1,1h0a1,1,0,0,1-1,1h0A1,1,0,0,1,263.84,388.77Z"/><path class="cls-2" d="M412.97,389.77a1,1,0,0,1-.71-.3,1.009,1.009,0,0,1-.22-.321,1.216,1.216,0,0,1-.07-.379,1.087,1.087,0,0,1,.08-.39.977.977,0,0,1,.21-.32,1.018,1.018,0,0,1,.91-.27,1.128,1.128,0,0,1,.18.05,1.512,1.512,0,0,1,.179.1,1.633,1.633,0,0,1,.151.121,1.171,1.171,0,0,1,.219.32,1.074,1.074,0,0,1,.071.39.985.985,0,0,1-.071.379,1.176,1.176,0,0,1-.219.321.917.917,0,0,1-.33.219A.948.948,0,0,1,412.97,389.77Z"/><rect class="cls-4" x="258.515" y="402.419" width="152.846" height="17.353" rx="1" ry="1"/><polygon class="cls-2" points="265.624 372.678 261.602 372.678 261.602 369.631 260.626 369.631 260.626 366.98 259.199 366.98 259.199 369.631 258.223 369.631 258.223 372.678 258.223 376.057 258.223 379.104 259.199 379.104 259.199 381.755 260.626 381.755 260.626 379.104 261.602 379.104 261.602 376.057 265.624 376.057 265.624 372.678"/><line class="cls-2" x1="259.199" y1="369.631" x2="260.626" y2="369.631"/><line class="cls-2" x1="259.199" y1="379.104" x2="260.626" y2="379.104"/></g></g><path class="cls-2" d="M275.326,378.532h-2.283v-10.29h2.53a4.386,4.386,0,0,1,2.252.463,3.256,3.256,0,0,1,1.589,2.885,3.347,3.347,0,0,1-1.589,2.9,4.376,4.376,0,0,1-2.252.463h-.247Zm.386-5.661c1.049,0,1.5-.371,1.5-1.281,0-.879-.447-1.265-1.5-1.265h-.4v2.546Z"/><path class="cls-2" d="M282.56,369.338a1.3,1.3,0,1,1-1.312-1.265A1.288,1.288,0,0,1,282.56,369.338Zm-.2,9.194h-2.19V371.7h2.19Z"/><path class="cls-2" d="M286.015,371.7v.34a2.583,2.583,0,0,1,1.712-.6,3.687,3.687,0,0,1,0,7.359,2.605,2.605,0,0,1-1.712-.6v3.95h-2.192V371.7ZM286,375.123a1.507,1.507,0,0,0,1.48,1.7,1.722,1.722,0,1,0-1.48-1.7Z"/><path class="cls-2" d="M298.616,376.943a3.669,3.669,0,0,1-3.224,1.852,3.673,3.673,0,0,1-.078-7.344,3.54,3.54,0,0,1,3.488,3.811c0,.154,0,.293-.016.571h-4.767a1.286,1.286,0,0,0,1.342,1.049,1.471,1.471,0,0,0,1.3-.694Zm-1.99-2.546c-.247-.74-.617-1.048-1.3-1.048a1.229,1.229,0,0,0-1.311,1.048Z"/><path class="cls-2" d="M299.817,378.532v-10.29h2.191v10.29Z"/><path class="cls-2" d="M305.9,369.338a1.3,1.3,0,1,1-1.312-1.265A1.288,1.288,0,0,1,305.9,369.338Zm-.2,9.194H303.5V371.7h2.19Z"/><path class="cls-2" d="M309.351,371.976a2.218,2.218,0,0,1,1.511-.54,2.651,2.651,0,0,1,2.284,1.311,4.162,4.162,0,0,1,.431,2.083v3.7h-2.19v-3.594c0-1.172-.216-1.528-.942-1.528a1.026,1.026,0,0,0-.91.433,2.463,2.463,0,0,0-.184,1.233v3.456h-2.192V371.7h2.192Z"/><path class="cls-2" d="M321.458,376.943a3.67,3.67,0,0,1-3.225,1.852,3.673,3.673,0,0,1-.077-7.344,3.54,3.54,0,0,1,3.488,3.811c0,.154,0,.293-.016.571H316.86a1.287,1.287,0,0,0,1.343,1.049,1.471,1.471,0,0,0,1.3-.694Zm-1.99-2.546c-.247-.74-.617-1.048-1.3-1.048a1.23,1.23,0,0,0-1.312,1.048Z"/><path class="cls-2" d="M332.27,370.356h-2.407v8.176H327.58v-8.176h-2.422v-2.114h7.112Z"/><path class="cls-2" d="M333.5,371.7l1.095,3.286,1.064-3.286H337.3l1.08,3.286,1.095-3.286h2.283l-2.453,6.834h-1.758l-1.065-3.224-1.064,3.224h-1.759l-2.453-6.834Z"/><path class="cls-2" d="M349.128,375.107a3.718,3.718,0,1,1-3.671-3.671A3.665,3.665,0,0,1,349.128,375.107Zm-5.23,0a1.522,1.522,0,1,0,1.5-1.7A1.527,1.527,0,0,0,343.9,375.107Z"/><path class="cls-2" d="M353.292,373.148a1.3,1.3,0,1,1-1.312-1.264A1.287,1.287,0,0,1,353.292,373.148Zm0,4.351a1.3,1.3,0,1,1-1.3-1.266A1.288,1.288,0,0,1,353.292,377.5Z"/><path class="cls-2" d="M358.4,368.242h2.545a4.572,4.572,0,0,1,2.376.494,2.92,2.92,0,0,1,1.451,2.438,2.346,2.346,0,0,1-.849,1.836,2.911,2.911,0,0,1,1.327,2.422,3,3,0,0,1-1.62,2.622,4.141,4.141,0,0,1-2.206.478H358.4Zm2.715,4.119a1.863,1.863,0,0,0,1-.154,1,1,0,0,0,.509-.926c0-.756-.416-1.049-1.512-1.049H360.6v2.129Zm.232,4.135a2.278,2.278,0,0,0,1.141-.185,1.127,1.127,0,0,0,.047-1.914,2.673,2.673,0,0,0-1.327-.215h-.6V376.5Z"/><path class="cls-2" d="M370.612,378.255a2.221,2.221,0,0,1-1.511.54,2.651,2.651,0,0,1-2.284-1.312,4.145,4.145,0,0,1-.432-2.083v-3.7h2.191v3.6c0,1.156.232,1.527.956,1.527a1.018,1.018,0,0,0,.9-.432,2.48,2.48,0,0,0,.185-1.235V371.7H372.8v6.834h-2.191Z"/><path class="cls-2" d="M376.673,369.338a1.3,1.3,0,1,1-1.312-1.265A1.288,1.288,0,0,1,376.673,369.338Zm-.2,9.194h-2.191V371.7h2.191Z"/><path class="cls-2" d="M377.952,378.532v-10.29h2.191v10.29Z"/><path class="cls-2" d="M386.359,378.532v-.34a2.579,2.579,0,0,1-1.712.6,3.687,3.687,0,0,1,0-7.359,2.65,2.65,0,0,1,1.712.586v-3.78h2.191v10.29Zm-2.962-3.393a1.53,1.53,0,0,0,1.5,1.681c.895,0,1.481-.679,1.481-1.728a1.5,1.5,0,0,0-1.5-1.682A1.536,1.536,0,0,0,383.4,375.139Z"/><g id="_Group_3" data-name="&lt;Group&gt;"><g id="RECTANGLE_STAGE-3" data-name="RECTANGLE STAGE"><rect class="cls-3" x="496.634" y="245.926" width="171.349" height="75.635" rx="9.368" ry="9.368"/><path class="cls-2" d="M658.614,245.926a9.368,9.368,0,0,1,9.368,9.368v56.9a9.368,9.368,0,0,1-9.368,9.368H506a9.368,9.368,0,0,1-9.368-9.368v-56.9A9.369,9.369,0,0,1,506,245.926H658.614m0-2H506a11.381,11.381,0,0,0-11.368,11.368v56.9A11.381,11.381,0,0,0,506,323.561H658.614a11.381,11.381,0,0,0,11.368-11.368v-56.9a11.381,11.381,0,0,0-11.368-11.368Z"/><path class="cls-2" d="M506.29,278.46a1.025,1.025,0,0,1-.391-.07.871.871,0,0,1-.319-.22,1.018,1.018,0,0,1-.221-.32,1.007,1.007,0,0,1-.069-.38.99.99,0,0,1,.29-.71.979.979,0,0,1,1.409,0,.865.865,0,0,1,.221.32,1.543,1.543,0,0,1,.06.19,1.34,1.34,0,0,1,.02.2,1,1,0,0,1-.08.38.865.865,0,0,1-.221.32A.951.951,0,0,1,506.29,278.46Z"/><path class="cls-2" d="M653.41,277.47a1,1,0,0,1,1-1h0a.99.99,0,0,1,1,1h0a1,1,0,0,1-1,1h0A1,1,0,0,1,653.41,277.47Zm-5.921,0a1,1,0,0,1,1-1h0a1,1,0,0,1,1,1h0a1,1,0,0,1-1,1h0A1,1,0,0,1,647.489,277.47Zm-5.929,0a1,1,0,0,1,1-1h0a1,1,0,0,1,1.009,1h0a1,1,0,0,1-1.009,1h0A1,1,0,0,1,641.56,277.47Zm-5.92,0a1,1,0,0,1,1-1h0a1,1,0,0,1,1,1h0a1,1,0,0,1-1,1h0A1,1,0,0,1,635.64,277.47Zm-5.93,0a1,1,0,0,1,1-1h0a1,1,0,0,1,1.01,1h0a1,1,0,0,1-1.01,1h0A1,1,0,0,1,629.71,277.47Zm-5.92,0a1,1,0,0,1,1-1h0a1,1,0,0,1,1,1h0a1,1,0,0,1-1,1h0A1,1,0,0,1,623.79,277.47Zm-5.931,0a1,1,0,0,1,1-1h0a1,1,0,0,1,1.011,1h0a1,1,0,0,1-1.011,1h0A1,1,0,0,1,617.859,277.47Zm-5.92,0a1,1,0,0,1,1-1h0a1,1,0,0,1,1,1h0a1,1,0,0,1-1,1h0A1,1,0,0,1,611.939,277.47Zm-5.929,0a1,1,0,0,1,1-1h0a.991.991,0,0,1,1,1h0a1,1,0,0,1-1,1h0A1,1,0,0,1,606.01,277.47Zm-5.92,0a1,1,0,0,1,1-1h0a1,1,0,0,1,1,1h0a1,1,0,0,1-1,1h0A1,1,0,0,1,600.09,277.47Zm-5.93,0a1,1,0,0,1,1-1h0a1,1,0,0,1,1,1h0a1,1,0,0,1-1,1h0A1,1,0,0,1,594.16,277.47Zm-5.921,0a.991.991,0,0,1,1-1h0a1,1,0,0,1,1,1h0a1,1,0,0,1-1,1h0A1,1,0,0,1,588.239,277.47Zm-5.929,0a1,1,0,0,1,1-1h0a1,1,0,0,1,1,1h0a1,1,0,0,1-1,1h0A1,1,0,0,1,582.31,277.47Zm-5.92,0a.99.99,0,0,1,1-1h0a1,1,0,0,1,1,1h0a1,1,0,0,1-1,1h0A1,1,0,0,1,576.39,277.47Zm-5.93,0a1,1,0,0,1,1-1h0a.99.99,0,0,1,1,1h0a1,1,0,0,1-1,1h0A1,1,0,0,1,570.46,277.47Zm-5.92,0a.99.99,0,0,1,1-1h0a1,1,0,0,1,1,1h0a1,1,0,0,1-1,1h0A1,1,0,0,1,564.54,277.47Zm-5.931,0a1,1,0,0,1,1-1h0a.99.99,0,0,1,1,1h0a1,1,0,0,1-1,1h0A1,1,0,0,1,558.609,277.47Zm-5.92,0a1,1,0,0,1,1-1h0a1,1,0,0,1,1,1h0a1,1,0,0,1-1,1h0A1,1,0,0,1,552.689,277.47Zm-5.929,0a1,1,0,0,1,1-1h0a.991.991,0,0,1,1,1h0a1,1,0,0,1-1,1h0A1,1,0,0,1,546.76,277.47Zm-5.92,0a1,1,0,0,1,1-1h0a1,1,0,0,1,1,1h0a1,1,0,0,1-1,1h0A1,1,0,0,1,540.84,277.47Zm-5.93,0a1,1,0,0,1,1-1h0a1,1,0,0,1,1,1h0a1,1,0,0,1-1,1h0A1,1,0,0,1,534.91,277.47Zm-5.921,0a1,1,0,0,1,1-1h0a1,1,0,0,1,1,1h0a1,1,0,0,1-1,1h0A1,1,0,0,1,528.989,277.47Zm-5.929,0a1,1,0,0,1,1-1h0a1,1,0,0,1,1,1h0a1,1,0,0,1-1,1h0A1,1,0,0,1,523.06,277.47Zm-5.92,0a.99.99,0,0,1,1-1h0a1,1,0,0,1,1,1h0a1,1,0,0,1-1,1h0A1,1,0,0,1,517.14,277.47Zm-5.93,0a1,1,0,0,1,1-1h0a1,1,0,0,1,1,1h0a1,1,0,0,1-1,1h0A1,1,0,0,1,511.21,277.47Z"/><path class="cls-2" d="M660.34,278.47a1.015,1.015,0,0,1-.38-.08.994.994,0,0,1-.33-.22,1.016,1.016,0,0,1-.22-.32.971.971,0,0,1-.07-.38.711.711,0,0,1,.019-.2.866.866,0,0,1,.061-.19.667.667,0,0,1,.09-.17,1.459,1.459,0,0,1,.12-.15,1,1,0,0,1,1.09-.22,1.461,1.461,0,0,1,.179.1.793.793,0,0,1,.151.12,1.017,1.017,0,0,1,.29.71,1,1,0,0,1-.08.38.988.988,0,0,1-.21.32,1.038,1.038,0,0,1-.71.3Z"/><rect class="cls-4" x="505.885" y="291.118" width="152.846" height="17.353" rx="1" ry="1"/><polygon class="cls-2" points="512.994 261.377 508.972 261.377 508.972 258.33 507.996 258.33 507.996 255.679 506.569 255.679 506.569 258.33 505.593 258.33 505.593 261.377 505.593 264.756 505.593 267.803 506.569 267.803 506.569 270.454 507.996 270.454 507.996 267.803 508.972 267.803 508.972 264.756 512.994 264.756 512.994 261.377"/><line class="cls-2" x1="506.569" y1="258.33" x2="507.996" y2="258.33"/><line class="cls-2" x1="506.569" y1="267.803" x2="507.996" y2="267.803"/></g></g><path class="cls-2" d="M522.427,267.229h-2.283V256.938h2.53a4.388,4.388,0,0,1,2.252.463,3.257,3.257,0,0,1,1.589,2.885,3.353,3.353,0,0,1-1.589,2.9,4.379,4.379,0,0,1-2.252.462h-.247Zm.385-5.662c1.049,0,1.5-.371,1.5-1.281,0-.879-.448-1.265-1.5-1.265h-.4v2.546Z"/><path class="cls-2" d="M529.66,258.034a1.3,1.3,0,1,1-1.311-1.264A1.287,1.287,0,0,1,529.66,258.034Zm-.2,9.195h-2.19V260.4h2.19Z"/><path class="cls-2" d="M533.115,260.4v.339a2.586,2.586,0,0,1,1.712-.6,3.687,3.687,0,0,1,0,7.359,2.611,2.611,0,0,1-1.712-.6v3.949h-2.191V260.4Zm-.015,3.424a1.508,1.508,0,0,0,1.48,1.7,1.723,1.723,0,1,0-1.48-1.7Z"/><path class="cls-2" d="M545.717,265.64a3.671,3.671,0,0,1-3.225,1.851,3.673,3.673,0,0,1-.077-7.344,3.54,3.54,0,0,1,3.487,3.811c0,.154,0,.293-.015.571h-4.768a1.286,1.286,0,0,0,1.343,1.049,1.471,1.471,0,0,0,1.3-.694Zm-1.99-2.546c-.248-.74-.618-1.049-1.3-1.049a1.23,1.23,0,0,0-1.312,1.049Z"/><path class="cls-2" d="M546.918,267.229V256.938h2.19v10.291Z"/><path class="cls-2" d="M553,258.034a1.3,1.3,0,1,1-1.311-1.264A1.287,1.287,0,0,1,553,258.034Zm-.2,9.195H550.6V260.4h2.191Z"/><path class="cls-2" d="M556.451,260.672a2.222,2.222,0,0,1,1.512-.54,2.653,2.653,0,0,1,2.283,1.311,4.15,4.15,0,0,1,.432,2.083v3.7h-2.191v-3.595c0-1.172-.216-1.528-.941-1.528a1.024,1.024,0,0,0-.91.433,2.464,2.464,0,0,0-.185,1.234v3.456H554.26V260.4h2.191Z"/><path class="cls-2" d="M568.559,265.64a3.672,3.672,0,0,1-3.225,1.851,3.673,3.673,0,0,1-.077-7.344,3.54,3.54,0,0,1,3.487,3.811c0,.154,0,.293-.015.571h-4.768a1.285,1.285,0,0,0,1.343,1.049,1.472,1.472,0,0,0,1.3-.694Zm-1.991-2.546c-.247-.74-.617-1.049-1.3-1.049a1.229,1.229,0,0,0-1.311,1.049Z"/><path class="cls-2" d="M579.108,259.037h-3.44v1.928H578.8v2.114h-3.132v4.15h-2.283V256.938h5.723Z"/><path class="cls-2" d="M587.021,263.8a3.718,3.718,0,1,1-3.671-3.672A3.665,3.665,0,0,1,587.021,263.8Zm-5.23,0a1.522,1.522,0,1,0,1.5-1.7A1.527,1.527,0,0,0,581.791,263.8Z"/><path class="cls-2" d="M592.265,266.951a2.225,2.225,0,0,1-1.512.54,2.652,2.652,0,0,1-2.283-1.311,4.15,4.15,0,0,1-.433-2.083v-3.7h2.192v3.594c0,1.157.231,1.528.956,1.528a1.015,1.015,0,0,0,.894-.433,2.459,2.459,0,0,0,.186-1.234V260.4h2.19v6.834h-2.19Z"/><path class="cls-2" d="M598.109,260.7a2,2,0,0,1,1.172-.354,4.024,4.024,0,0,1,.7.061v1.928a6.466,6.466,0,0,0-.7-.046c-.91,0-1.172.37-1.172,1.62v3.317h-2.191V260.4h2.191Z"/><path class="cls-2" d="M603.8,261.845a1.3,1.3,0,1,1-1.312-1.265A1.287,1.287,0,0,1,603.8,261.845Zm0,4.35a1.3,1.3,0,1,1-1.3-1.265A1.287,1.287,0,0,1,603.8,266.2Z"/><path class="cls-2" d="M614.89,259.053h-2.407v8.176H610.2v-8.176h-2.422v-2.115h7.112Z"/><path class="cls-2" d="M621.291,265.64a3.671,3.671,0,0,1-3.225,1.851,3.673,3.673,0,0,1-.077-7.344,3.54,3.54,0,0,1,3.488,3.811c0,.154,0,.293-.016.571h-4.768a1.286,1.286,0,0,0,1.343,1.049,1.47,1.47,0,0,0,1.3-.694Zm-1.99-2.546c-.247-.74-.617-1.049-1.3-1.049a1.23,1.23,0,0,0-1.312,1.049Z"/><path class="cls-2" d="M623.789,264.76c.309.571.617.818,1,.818a.44.44,0,0,0,.494-.432c0-.2-.108-.293-.524-.462l-1.142-.463a1.957,1.957,0,0,1-1.266-1.821,2.384,2.384,0,0,1,2.577-2.268,2.714,2.714,0,0,1,2.53,1.574l-1.759.8a.949.949,0,0,0-.786-.493c-.294,0-.463.123-.463.339,0,.169.108.247.478.4l.957.37c1.064.4,1.589,1.033,1.589,1.913a2.546,2.546,0,0,1-2.715,2.453,2.881,2.881,0,0,1-2.855-2.067Z"/><path class="cls-2" d="M630.792,264.853c0,.37.062.494.263.494a2.175,2.175,0,0,0,.833-.216v2.02a3.756,3.756,0,0,1-1.219.216c-1.3,0-2.067-.894-2.067-2.437v-2.576h-.679V260.4h.679v-1.374l2.19-.848V260.4h1v1.959h-1Z"/><g id="_Group_4" data-name="&lt;Group&gt;"><g id="RECTANGLE_STAGE-4" data-name="RECTANGLE STAGE"><rect class="cls-3" x="496.634" y="134.625" width="171.349" height="75.635" rx="9.368" ry="9.368"/><path class="cls-2" d="M658.614,134.625a9.368,9.368,0,0,1,9.368,9.368v56.9a9.368,9.368,0,0,1-9.368,9.368H506a9.368,9.368,0,0,1-9.368-9.368v-56.9A9.368,9.368,0,0,1,506,134.625H658.614m0-2H506a11.381,11.381,0,0,0-11.368,11.368v56.9A11.381,11.381,0,0,0,506,212.26H658.614a11.381,11.381,0,0,0,11.368-11.368v-56.9a11.381,11.381,0,0,0-11.368-11.368Z"/><path class="cls-2" d="M506.29,167.16a.99.99,0,0,1-.71-.29.921.921,0,0,1-.29-.71,1.045,1.045,0,0,1,.069-.381,1.01,1.01,0,0,1,1.63-.319.87.87,0,0,1,.221.319,1,1,0,0,1,.08.381,1.006,1.006,0,0,1-.08.39,1.076,1.076,0,0,1-.54.54A.986.986,0,0,1,506.29,167.16Z"/><path class="cls-2" d="M653.41,166.16a1,1,0,0,1,1-1h0a1,1,0,0,1,1,1h0a1,1,0,0,1-1,1.01h0A1,1,0,0,1,653.41,166.16Zm-5.921,0a1,1,0,0,1,1-1h0a1,1,0,0,1,1,1h0a1,1,0,0,1-1,1.01h0A1,1,0,0,1,647.489,166.16Zm-5.929,0a1,1,0,0,1,1-1h0a1,1,0,0,1,1.009,1h0a1.006,1.006,0,0,1-1.009,1.01h0A1,1,0,0,1,641.56,166.16Zm-5.92,0a1,1,0,0,1,1-1h0a1,1,0,0,1,1,1h0a1.006,1.006,0,0,1-1,1.01h0A1,1,0,0,1,635.64,166.16Zm-5.93,0a1,1,0,0,1,1-1h0a1,1,0,0,1,1.01,1h0a1.007,1.007,0,0,1-1.01,1.01h0A1,1,0,0,1,629.71,166.16Zm-5.92,0a1,1,0,0,1,1-1h0a1,1,0,0,1,1,1h0a1,1,0,0,1-1,1.01h0A1,1,0,0,1,623.79,166.16Zm-5.931,0a1,1,0,0,1,1-1h0a1,1,0,0,1,1.011,1h0a1.007,1.007,0,0,1-1.011,1.01h0A1.006,1.006,0,0,1,617.859,166.16Zm-5.92,0a1,1,0,0,1,1-1h0a1,1,0,0,1,1,1h0a1,1,0,0,1-1,1.01h0A1.006,1.006,0,0,1,611.939,166.16Zm-5.929,0a1,1,0,0,1,1-1h0a1,1,0,0,1,1,1h0a1,1,0,0,1-1,1.01h0A1,1,0,0,1,606.01,166.16Zm-5.92,0a1,1,0,0,1,1-1h0a1,1,0,0,1,1,1h0a1,1,0,0,1-1,1.01h0A1,1,0,0,1,600.09,166.16Zm-5.93,0a1,1,0,0,1,1-1h0a1,1,0,0,1,1,1h0a1,1,0,0,1-1,1.01h0A1,1,0,0,1,594.16,166.16Zm-5.921,0a1,1,0,0,1,1-1h0a1,1,0,0,1,1,1h0a1,1,0,0,1-1,1.01h0A1,1,0,0,1,588.239,166.16Zm-5.929,0a1,1,0,0,1,1-1h0a1,1,0,0,1,1,1h0a1.006,1.006,0,0,1-1,1.01h0A1,1,0,0,1,582.31,166.16Zm-5.92,0a1,1,0,0,1,1-1h0a1,1,0,0,1,1,1h0a1.006,1.006,0,0,1-1,1.01h0A1,1,0,0,1,576.39,166.16Zm-5.93,0a1,1,0,0,1,1-1h0a1,1,0,0,1,1,1h0a1,1,0,0,1-1,1.01h0A1,1,0,0,1,570.46,166.16Zm-5.92,0a1,1,0,0,1,1-1h0a1,1,0,0,1,1,1h0a1,1,0,0,1-1,1.01h0A1,1,0,0,1,564.54,166.16Zm-5.931,0a1,1,0,0,1,1-1h0a1,1,0,0,1,1,1h0a1,1,0,0,1-1,1.01h0A1.006,1.006,0,0,1,558.609,166.16Zm-5.92,0a1,1,0,0,1,1-1h0a1,1,0,0,1,1,1h0a1,1,0,0,1-1,1.01h0A1.006,1.006,0,0,1,552.689,166.16Zm-5.929,0a1,1,0,0,1,1-1h0a1,1,0,0,1,1,1h0a1,1,0,0,1-1,1.01h0A1,1,0,0,1,546.76,166.16Zm-5.92,0a1,1,0,0,1,1-1h0a1,1,0,0,1,1,1h0a1,1,0,0,1-1,1.01h0A1,1,0,0,1,540.84,166.16Zm-5.93,0a1,1,0,0,1,1-1h0a1,1,0,0,1,1,1h0a1,1,0,0,1-1,1.01h0A1,1,0,0,1,534.91,166.16Zm-5.921,0a1,1,0,0,1,1-1h0a1,1,0,0,1,1,1h0a1,1,0,0,1-1,1.01h0A1,1,0,0,1,528.989,166.16Zm-5.929,0a1,1,0,0,1,1-1h0a1,1,0,0,1,1,1h0a1.006,1.006,0,0,1-1,1.01h0A1,1,0,0,1,523.06,166.16Zm-5.92,0a1,1,0,0,1,1-1h0a1,1,0,0,1,1,1h0a1.006,1.006,0,0,1-1,1.01h0A1,1,0,0,1,517.14,166.16Zm-5.93,0a1,1,0,0,1,1-1h0a1,1,0,0,1,1,1h0a1,1,0,0,1-1,1.01h0A1,1,0,0,1,511.21,166.16Z"/><path class="cls-2" d="M660.34,167.17a1.038,1.038,0,0,1-.71-.3,1.229,1.229,0,0,1-.22-.32.984.984,0,0,1-.07-.39.643.643,0,0,1,.019-.19.756.756,0,0,1,.061-.191.557.557,0,0,1,.09-.17.911.911,0,0,1,.12-.149,1.048,1.048,0,0,1,.33-.22,1.125,1.125,0,0,1,.58-.06l.18.06.179.09a1.747,1.747,0,0,1,.151.13c.04.04.08.1.12.149a.6.6,0,0,1,.09.17.677.677,0,0,1,.059.191,1.105,1.105,0,0,1,.021.19.979.979,0,0,1-.29.71A1.019,1.019,0,0,1,660.34,167.17Z"/><rect class="cls-4" x="505.885" y="179.817" width="152.846" height="17.353" rx="1" ry="1"/><polygon class="cls-2" points="512.994 150.076 508.972 150.076 508.972 147.029 507.996 147.029 507.996 144.378 506.569 144.378 506.569 147.029 505.593 147.029 505.593 150.076 505.593 153.455 505.593 156.502 506.569 156.502 506.569 159.153 507.996 159.153 507.996 156.502 508.972 156.502 508.972 153.455 512.994 153.455 512.994 150.076"/><line class="cls-2" x1="506.569" y1="147.029" x2="507.996" y2="147.029"/><line class="cls-2" x1="506.569" y1="156.502" x2="507.996" y2="156.502"/></g></g><g id="_Group_5" data-name="&lt;Group&gt;"><g id="RECTANGLE_STAGE-5" data-name="RECTANGLE STAGE"><rect class="cls-3" x="748.428" y="134.625" width="171.349" height="75.635" rx="9.368" ry="9.368"/><path class="cls-2" d="M910.409,134.625a9.368,9.368,0,0,1,9.368,9.368v56.9a9.368,9.368,0,0,1-9.368,9.368H757.8a9.368,9.368,0,0,1-9.368-9.368v-56.9a9.368,9.368,0,0,1,9.368-9.368H910.409m0-2H757.8a11.381,11.381,0,0,0-11.368,11.368v56.9A11.381,11.381,0,0,0,757.8,212.26H910.409a11.381,11.381,0,0,0,11.368-11.368v-56.9a11.381,11.381,0,0,0-11.368-11.368Z"/><path class="cls-2" d="M758.08,167.16a.987.987,0,0,1-.381-.07,1.069,1.069,0,0,1-.539-.54.989.989,0,0,1-.08-.39.971.971,0,0,1,.3-.7,1.024,1.024,0,0,1,1.41,0,.579.579,0,0,1,.12.149,1.186,1.186,0,0,1,.1.17,1.538,1.538,0,0,1,.05.191.612.612,0,0,1,.02.19.994.994,0,0,1-.29.71.841.841,0,0,1-.33.22A.986.986,0,0,1,758.08,167.16Z"/><path class="cls-2" d="M905.21,166.16a.994.994,0,0,1,1-.99h0a.994.994,0,0,1,1,.99h0a1,1,0,0,1-1,1h0A1,1,0,0,1,905.21,166.16Zm-5.931,0a.994.994,0,0,1,1-.99h0a.987.987,0,0,1,1,.99h0a.99.99,0,0,1-1,1h0A1,1,0,0,1,899.279,166.16Zm-5.92,0a.988.988,0,0,1,1-.99h0a.993.993,0,0,1,1,.99h0a1,1,0,0,1-1,1h0A.991.991,0,0,1,893.359,166.16Zm-5.929,0a.994.994,0,0,1,1-.99h0a.988.988,0,0,1,1,.99h0a.991.991,0,0,1-1,1h0A1,1,0,0,1,887.43,166.16Zm-5.92,0a.994.994,0,0,1,1-.99h0a.994.994,0,0,1,1,.99h0a1,1,0,0,1-1,1h0A1,1,0,0,1,881.51,166.16Zm-5.93,0a.993.993,0,0,1,1-.99h0a.987.987,0,0,1,1,.99h0a.99.99,0,0,1-1,1h0A1,1,0,0,1,875.58,166.16Zm-5.92,0a.993.993,0,0,1,1-.99h0a.994.994,0,0,1,1,.99h0a1,1,0,0,1-1,1h0A1,1,0,0,1,869.66,166.16Zm-5.931,0a.994.994,0,0,1,1-.99h0a.987.987,0,0,1,1,.99h0a.99.99,0,0,1-1,1h0A1,1,0,0,1,863.729,166.16Zm-5.919,0a.987.987,0,0,1,1-.99h0a.994.994,0,0,1,1,.99h0a1,1,0,0,1-1,1h0A.99.99,0,0,1,857.81,166.16Zm-5.93,0a.994.994,0,0,1,1-.99h0a.994.994,0,0,1,1,.99h0a1,1,0,0,1-1,1h0A1,1,0,0,1,851.88,166.16Zm-5.92,0a.994.994,0,0,1,1-.99h0a.994.994,0,0,1,1,.99h0a1,1,0,0,1-1,1h0A1,1,0,0,1,845.96,166.16Zm-5.931,0a.994.994,0,0,1,1-.99h0a.987.987,0,0,1,1,.99h0a.99.99,0,0,1-1,1h0A1,1,0,0,1,840.029,166.16Zm-5.929,0a1,1,0,0,1,1.009-.99h0a.993.993,0,0,1,1,.99h0a1,1,0,0,1-1,1h0A1,1,0,0,1,834.1,166.16Zm-5.92,0a.994.994,0,0,1,1-.99h0a.994.994,0,0,1,1,.99h0a1,1,0,0,1-1,1h0A1,1,0,0,1,828.18,166.16Zm-5.93,0a1,1,0,0,1,1.01-.99h0a.994.994,0,0,1,1,.99h0a1,1,0,0,1-1,1h0A1,1,0,0,1,822.25,166.16Zm-5.92,0a.993.993,0,0,1,1-.99h0a.994.994,0,0,1,1,.99h0a1,1,0,0,1-1,1h0A1,1,0,0,1,816.33,166.16Zm-5.931,0a1,1,0,0,1,1.011-.99h0a.994.994,0,0,1,1,.99h0a1,1,0,0,1-1,1h0A1,1,0,0,1,810.4,166.16Zm-5.92,0a.994.994,0,0,1,1-.99h0a.994.994,0,0,1,1,.99h0a1,1,0,0,1-1,1h0A1,1,0,0,1,804.479,166.16Zm-5.929,0a1,1,0,0,1,1.01-.99h0a.994.994,0,0,1,1,.99h0a1,1,0,0,1-1,1h0A1,1,0,0,1,798.55,166.16Zm-5.92,0a.994.994,0,0,1,1-.99h0a.994.994,0,0,1,1,.99h0a1,1,0,0,1-1,1h0A1,1,0,0,1,792.63,166.16Zm-5.92,0a.987.987,0,0,1,1-.99h0a.994.994,0,0,1,1,.99h0a1,1,0,0,1-1,1h0A.99.99,0,0,1,786.71,166.16Zm-5.931,0a.994.994,0,0,1,1-.99h0a.993.993,0,0,1,1,.99h0a1,1,0,0,1-1,1h0A1,1,0,0,1,780.779,166.16Zm-5.929,0a1,1,0,0,1,1.009-.99h0a.993.993,0,0,1,1,.99h0a1,1,0,0,1-1,1h0A1,1,0,0,1,774.85,166.16Zm-5.92,0a.994.994,0,0,1,1-.99h0a.994.994,0,0,1,1,.99h0a1,1,0,0,1-1,1h0A1,1,0,0,1,768.93,166.16Zm-5.93,0a1,1,0,0,1,1.01-.99h0a.994.994,0,0,1,1,.99h0a1,1,0,0,1-1,1h0A1,1,0,0,1,763,166.16Z"/><path class="cls-2" d="M912.13,167.16a.986.986,0,0,1-.38-.07,1.066,1.066,0,0,1-.54-.54,1,1,0,0,1-.08-.38,1.1,1.1,0,0,1,.08-.391.879.879,0,0,1,.22-.319.981.981,0,0,1,1.41,0,.991.991,0,0,1,.29.71,1,1,0,0,1-.07.38.9.9,0,0,1-.22.32.875.875,0,0,1-.32.22A1,1,0,0,1,912.13,167.16Z"/><rect class="cls-4" x="757.679" y="179.817" width="152.846" height="17.353" rx="1" ry="1"/><polygon class="cls-2" points="764.789 150.076 760.766 150.076 760.766 147.029 759.79 147.029 759.79 144.378 758.364 144.378 758.364 147.029 757.388 147.029 757.388 150.076 757.388 153.455 757.388 156.502 758.364 156.502 758.364 159.153 759.79 159.153 759.79 156.502 760.766 156.502 760.766 153.455 764.789 153.455 764.789 150.076"/><line class="cls-2" x1="758.364" y1="147.029" x2="759.79" y2="147.029"/><line class="cls-2" x1="758.364" y1="156.502" x2="759.79" y2="156.502"/></g></g><path class="cls-2" d="M522.427,155.925h-2.283v-10.29h2.53a4.378,4.378,0,0,1,2.252.463,3.254,3.254,0,0,1,1.589,2.884,3.353,3.353,0,0,1-1.589,2.9,4.378,4.378,0,0,1-2.252.463h-.247Zm.385-5.661c1.049,0,1.5-.371,1.5-1.282,0-.878-.448-1.264-1.5-1.264h-.4v2.546Z"/><path class="cls-2" d="M529.66,146.73a1.3,1.3,0,1,1-1.311-1.264A1.287,1.287,0,0,1,529.66,146.73Zm-.2,9.2h-2.19v-6.834h2.19Z"/><path class="cls-2" d="M533.115,149.091v.34a2.582,2.582,0,0,1,1.712-.6,3.687,3.687,0,0,1,0,7.36,2.612,2.612,0,0,1-1.712-.6v3.949h-2.191V149.091Zm-.015,3.425a1.508,1.508,0,0,0,1.48,1.7,1.722,1.722,0,1,0-1.48-1.7Z"/><path class="cls-2" d="M545.717,154.336a3.672,3.672,0,0,1-3.225,1.852,3.673,3.673,0,0,1-.077-7.344,3.539,3.539,0,0,1,3.487,3.81c0,.155,0,.293-.015.572h-4.768a1.286,1.286,0,0,0,1.343,1.048,1.471,1.471,0,0,0,1.3-.694Zm-1.99-2.546c-.248-.74-.618-1.049-1.3-1.049a1.23,1.23,0,0,0-1.312,1.049Z"/><path class="cls-2" d="M546.918,155.925v-10.29h2.19v10.29Z"/><path class="cls-2" d="M553,146.73a1.3,1.3,0,1,1-1.311-1.264A1.287,1.287,0,0,1,553,146.73Zm-.2,9.2H550.6v-6.834h2.191Z"/><path class="cls-2" d="M556.451,149.368a2.222,2.222,0,0,1,1.512-.54,2.652,2.652,0,0,1,2.283,1.312,4.145,4.145,0,0,1,.432,2.083v3.7h-2.191V152.33c0-1.172-.216-1.527-.941-1.527a1.026,1.026,0,0,0-.91.432,2.467,2.467,0,0,0-.185,1.234v3.456H554.26v-6.834h2.191Z"/><path class="cls-2" d="M568.559,154.336a3.673,3.673,0,0,1-3.225,1.852,3.673,3.673,0,0,1-.077-7.344,3.539,3.539,0,0,1,3.487,3.81c0,.155,0,.293-.015.572h-4.768a1.285,1.285,0,0,0,1.343,1.048,1.472,1.472,0,0,0,1.3-.694Zm-1.991-2.546c-.247-.74-.617-1.049-1.3-1.049a1.229,1.229,0,0,0-1.311,1.049Z"/><path class="cls-2" d="M579.37,147.749h-2.406v8.176h-2.283v-8.176h-2.422v-2.114h7.111Z"/><path class="cls-2" d="M582.191,149.354a2.279,2.279,0,0,1,1.512-.526,2.669,2.669,0,0,1,2.283,1.312,4.145,4.145,0,0,1,.432,2.083v3.7h-2.19V152.33c0-1.172-.216-1.527-.942-1.527a1.027,1.027,0,0,0-.91.432,2.434,2.434,0,0,0-.185,1.219v3.471H580v-10.29h2.191Z"/><path class="cls-2" d="M590.072,149.4a2,2,0,0,1,1.172-.354,4.107,4.107,0,0,1,.694.061v1.928a6.433,6.433,0,0,0-.694-.046c-.91,0-1.172.37-1.172,1.62v3.317h-2.191v-6.834h2.191Z"/><path class="cls-2" d="M599.143,154.336a3.673,3.673,0,0,1-3.225,1.852,3.673,3.673,0,0,1-.077-7.344,3.539,3.539,0,0,1,3.487,3.81c0,.155,0,.293-.016.572h-4.767a1.285,1.285,0,0,0,1.343,1.048,1.472,1.472,0,0,0,1.3-.694Zm-1.991-2.546c-.247-.74-.617-1.049-1.3-1.049a1.229,1.229,0,0,0-1.311,1.049Z"/><path class="cls-2" d="M606.762,154.336a3.672,3.672,0,0,1-3.225,1.852,3.673,3.673,0,0,1-.077-7.344,3.539,3.539,0,0,1,3.487,3.81c0,.155,0,.293-.015.572h-4.768a1.285,1.285,0,0,0,1.343,1.048,1.472,1.472,0,0,0,1.3-.694Zm-1.991-2.546c-.247-.74-.617-1.049-1.295-1.049a1.23,1.23,0,0,0-1.312,1.049Z"/><path class="cls-2" d="M611.11,150.541a1.3,1.3,0,1,1-1.311-1.265A1.287,1.287,0,0,1,611.11,150.541Zm0,4.351a1.3,1.3,0,1,1-1.3-1.266A1.287,1.287,0,0,1,611.11,154.892Z"/><path class="cls-2" d="M622.2,147.749h-2.406v8.176h-2.283v-8.176h-2.422v-2.114H622.2Z"/><path class="cls-2" d="M628.6,154.336a3.673,3.673,0,0,1-3.225,1.852,3.673,3.673,0,0,1-.077-7.344,3.539,3.539,0,0,1,3.487,3.81c0,.155,0,.293-.016.572H624a1.285,1.285,0,0,0,1.343,1.048,1.472,1.472,0,0,0,1.3-.694Zm-1.991-2.546c-.247-.74-.617-1.049-1.3-1.049A1.229,1.229,0,0,0,624,151.79Z"/><path class="cls-2" d="M631.1,153.457c.308.57.617.817,1,.817a.44.44,0,0,0,.494-.432c0-.2-.109-.293-.525-.462l-1.141-.463a1.956,1.956,0,0,1-1.266-1.82,2.384,2.384,0,0,1,2.576-2.269,2.717,2.717,0,0,1,2.531,1.574l-1.759.8a.951.951,0,0,0-.786-.493c-.294,0-.463.123-.463.339,0,.17.107.247.477.4l.957.37c1.065.4,1.589,1.033,1.589,1.913a2.547,2.547,0,0,1-2.715,2.454,2.88,2.88,0,0,1-2.854-2.068Z"/><path class="cls-2" d="M638.1,153.549c0,.37.061.494.262.494a2.171,2.171,0,0,0,.833-.216v2.021a3.774,3.774,0,0,1-1.218.215c-1.3,0-2.068-.894-2.068-2.437V151.05h-.679v-1.959h.679v-1.373l2.191-.849v2.222h1v1.959h-1Z"/><path class="cls-2" d="M773.42,155.925h-2.283v-10.29h2.53a4.376,4.376,0,0,1,2.252.463,3.254,3.254,0,0,1,1.589,2.884,3.35,3.35,0,0,1-1.589,2.9,4.376,4.376,0,0,1-2.252.463h-.247Zm.386-5.661c1.048,0,1.5-.371,1.5-1.282,0-.878-.448-1.264-1.5-1.264h-.4v2.546Z"/><path class="cls-2" d="M780.653,146.73a1.3,1.3,0,1,1-1.311-1.264A1.287,1.287,0,0,1,780.653,146.73Zm-.2,9.2h-2.19v-6.834h2.19Z"/><path class="cls-2" d="M784.108,149.091v.34a2.582,2.582,0,0,1,1.712-.6,3.687,3.687,0,0,1,0,7.36,2.614,2.614,0,0,1-1.712-.6v3.949h-2.191V149.091Zm-.015,3.425a1.508,1.508,0,0,0,1.48,1.7,1.722,1.722,0,1,0-1.48-1.7Z"/><path class="cls-2" d="M796.71,154.336a3.672,3.672,0,0,1-3.225,1.852,3.673,3.673,0,0,1-.077-7.344,3.54,3.54,0,0,1,3.488,3.81c0,.155,0,.293-.016.572h-4.768a1.286,1.286,0,0,0,1.343,1.048,1.471,1.471,0,0,0,1.3-.694Zm-1.99-2.546c-.247-.74-.617-1.049-1.3-1.049a1.23,1.23,0,0,0-1.312,1.049Z"/><path class="cls-2" d="M797.911,155.925v-10.29H800.1v10.29Z"/><path class="cls-2" d="M803.989,146.73a1.3,1.3,0,1,1-1.311-1.264A1.287,1.287,0,0,1,803.989,146.73Zm-.2,9.2H801.6v-6.834h2.19Z"/><path class="cls-2" d="M807.444,149.368a2.222,2.222,0,0,1,1.512-.54,2.652,2.652,0,0,1,2.283,1.312,4.145,4.145,0,0,1,.432,2.083v3.7H809.48V152.33c0-1.172-.215-1.527-.941-1.527a1.027,1.027,0,0,0-.91.432,2.467,2.467,0,0,0-.185,1.234v3.456h-2.191v-6.834h2.191Z"/><path class="cls-2" d="M819.552,154.336a3.672,3.672,0,0,1-3.225,1.852,3.673,3.673,0,0,1-.077-7.344,3.539,3.539,0,0,1,3.487,3.81c0,.155,0,.293-.015.572h-4.768a1.286,1.286,0,0,0,1.343,1.048,1.472,1.472,0,0,0,1.3-.694Zm-1.99-2.546c-.248-.74-.618-1.049-1.3-1.049a1.23,1.23,0,0,0-1.312,1.049Z"/><path class="cls-2" d="M830.1,147.733h-3.441v1.928h3.132v2.114h-3.132v4.15h-2.283v-10.29H830.1Z"/><path class="cls-2" d="M833.494,146.73a1.3,1.3,0,1,1-1.311-1.264A1.287,1.287,0,0,1,833.494,146.73Zm-.2,9.2H831.1v-6.834h2.19Z"/><path class="cls-2" d="M837.674,152.854l1.558-3.763h2.33l-2.9,6.834H836.7l-2.9-6.834h2.314Z"/><path class="cls-2" d="M848.239,154.336a3.67,3.67,0,0,1-3.224,1.852,3.673,3.673,0,0,1-.077-7.344,3.539,3.539,0,0,1,3.487,3.81c0,.155,0,.293-.016.572h-4.767a1.285,1.285,0,0,0,1.342,1.048,1.471,1.471,0,0,0,1.3-.694Zm-1.99-2.546c-.247-.74-.617-1.049-1.3-1.049a1.229,1.229,0,0,0-1.311,1.049Z"/><path class="cls-2" d="M852.587,150.541a1.3,1.3,0,1,1-1.312-1.265A1.287,1.287,0,0,1,852.587,150.541Zm0,4.351a1.3,1.3,0,1,1-1.3-1.266A1.287,1.287,0,0,1,852.587,154.892Z"/><path class="cls-2" d="M860.222,145.635c3.439,0,5.661,2.021,5.661,5.137,0,3.132-2.222,5.153-5.661,5.153h-2.531v-10.29Zm-.247,8.177h.293c2.067,0,3.332-1.142,3.332-3.024,0-1.9-1.249-3.039-3.332-3.039h-.293Z"/><path class="cls-2" d="M873.44,154.336a3.67,3.67,0,0,1-3.224,1.852,3.673,3.673,0,0,1-.077-7.344,3.539,3.539,0,0,1,3.487,3.81c0,.155,0,.293-.016.572h-4.767a1.285,1.285,0,0,0,1.343,1.048,1.47,1.47,0,0,0,1.295-.694Zm-1.99-2.546c-.247-.74-.617-1.049-1.3-1.049a1.229,1.229,0,0,0-1.311,1.049Z"/><path class="cls-2" d="M876.833,149.091v.34a2.581,2.581,0,0,1,1.712-.6,3.687,3.687,0,0,1,0,7.36,2.611,2.611,0,0,1-1.712-.6v3.949h-2.191V149.091Zm-.016,3.425a1.508,1.508,0,0,0,1.481,1.7,1.722,1.722,0,1,0-1.481-1.7Z"/><path class="cls-2" d="M883.032,155.925v-10.29h2.191v10.29Z"/><path class="cls-2" d="M893.707,152.5a3.718,3.718,0,1,1-3.671-3.672A3.665,3.665,0,0,1,893.707,152.5Zm-5.229,0a1.522,1.522,0,1,0,1.5-1.7A1.527,1.527,0,0,0,888.478,152.5Z"/><path class="cls-2" d="M893.583,149.091H895.9l1.481,3.795,1.7-3.795h2.314l-4.674,10.443H894.4l1.775-3.964Z"/><circle class="cls-3" cx="334.938" cy="172.443" r="53.898"/><path class="cls-2" d="M334.938,227.341a54.9,54.9,0,1,1,54.9-54.9A54.96,54.96,0,0,1,334.938,227.341Zm0-107.8a52.9,52.9,0,1,0,52.9,52.9A52.959,52.959,0,0,0,334.938,119.544Z"/><g id="Layer_1-2" data-name="Layer 1"><path class="cls-2" d="M355.7,171.519q-.459-1.8-6.346-1.846-3.016.039-8.318.427t-13.194,1.222q-12.24,1.317-20.322,1.992-3.858.324-6.779.484v14.689a293.27,293.27,0,0,0,29-5.633,130.26,130.26,0,0,0,19.6-6.237Q356.221,173.6,355.7,171.519ZM304.159,183.4a.645.645,0,0,1-.471.2.62.62,0,0,1-.267-.058.645.645,0,0,1-.217-.14.609.609,0,0,1-.14-.21.624.624,0,0,1-.051-.267.669.669,0,0,1,.191-.477.678.678,0,0,1,.49-.2.625.625,0,0,1,.465.2.639.639,0,0,1,.2.477A.622.622,0,0,1,304.159,183.4Zm0-4.334a.622.622,0,0,1-.471.2.652.652,0,0,1-.484-.2.669.669,0,0,1-.191-.477.651.651,0,0,1,.191-.478.7.7,0,0,1,.49-.19.619.619,0,0,1,.465.2.643.643,0,0,1,.2.471A.626.626,0,0,1,304.159,179.061Zm2.33,4.334a.671.671,0,0,1-.478.2.74.74,0,0,1-.477-.2.609.609,0,0,1-.146-.21.729.729,0,0,1-.051-.267.646.646,0,0,1,.2-.477.667.667,0,0,1,.49-.2.638.638,0,0,1,.465.2.666.666,0,0,1,.2.477A.649.649,0,0,1,306.489,183.4Zm0-4.334a.649.649,0,0,1-.478.2.637.637,0,0,1-.477-.2.646.646,0,0,1-.2-.477.63.63,0,0,1,.2-.478.688.688,0,0,1,.49-.19.631.631,0,0,1,.465.2.671.671,0,0,1,.2.471A.652.652,0,0,1,306.489,179.061Z"/><path class="cls-2" d="M338.044,149.167q-23.389,5.908-37.3,11.73V142.783H367.01Q353.023,145.38,338.044,149.167Z"/><path class="cls-2" d="M369.454,146.653v13.779q-7.017.429-17.573,1.527-10.683,1.146-17.445,1.738t-9.764.656q-5.851.162-6.275-1.56-.5-1.958,6.994-5.091a136.877,136.877,0,0,1,19.743-6.3Q355.865,148.689,369.454,146.653Z"/><path class="cls-2" d="M334.442,185.693a293.1,293.1,0,0,0,35.012-10.839v18.057H300.741v-.128Q314.957,190.616,334.442,185.693Z"/><path id="path61" class="cls-2" d="M304.708,197.86a1.339,1.339,0,0,1-.213.743,1.414,1.414,0,0,1-.623.516,2.333,2.333,0,0,1-.971.187,2.193,2.193,0,0,1-1.111-.255,1.468,1.468,0,0,1-.5-.489,1.112,1.112,0,0,1-.2-.6.4.4,0,0,1,.414-.407.353.353,0,0,1,.247.093.717.717,0,0,1,.173.277,1.8,1.8,0,0,0,.188.363.76.76,0,0,0,.285.242,1.048,1.048,0,0,0,.482.095,1.09,1.09,0,0,0,.667-.192.576.576,0,0,0,.257-.477.506.506,0,0,0-.139-.37.891.891,0,0,0-.358-.215,6.052,6.052,0,0,0-.587-.159,4.3,4.3,0,0,1-.822-.27,1.319,1.319,0,0,1-.526-.419,1.094,1.094,0,0,1-.194-.661,1.135,1.135,0,0,1,.2-.669,1.29,1.29,0,0,1,.593-.45,2.442,2.442,0,0,1,.914-.156,2.274,2.274,0,0,1,.725.1,1.557,1.557,0,0,1,.508.276,1.18,1.18,0,0,1,.295.363.837.837,0,0,1,.093.37.44.44,0,0,1-.116.3.369.369,0,0,1-.29.133.329.329,0,0,1-.239-.08,1.026,1.026,0,0,1-.177-.26,1.19,1.19,0,0,0-.3-.4.877.877,0,0,0-.56-.144.963.963,0,0,0-.576.157.459.459,0,0,0-.22.378.38.38,0,0,0,.075.236.637.637,0,0,0,.2.172,1.349,1.349,0,0,0,.265.112c.09.027.236.066.442.118a7.053,7.053,0,0,1,.7.2,2.141,2.141,0,0,1,.529.264,1.079,1.079,0,0,1,.341.394A1.259,1.259,0,0,1,304.708,197.86Z"/><path id="path63" class="cls-2" d="M308.369,197.343v-2.192a.609.609,0,0,1,.126-.42.428.428,0,0,1,.331-.14.436.436,0,0,1,.341.14.614.614,0,0,1,.126.421V197.4a2.062,2.062,0,0,0,.086.641.736.736,0,0,0,.3.4,1.11,1.11,0,0,0,.607.141.9.9,0,0,0,.761-.288,1.417,1.417,0,0,0,.224-.874v-2.265a.615.615,0,0,1,.124-.422.424.424,0,0,1,.333-.139.439.439,0,0,1,.338.139.6.6,0,0,1,.129.422v2.194a3.267,3.267,0,0,1-.1.893,1.38,1.38,0,0,1-.394.629,1.52,1.52,0,0,1-.577.332,2.574,2.574,0,0,1-.77.105,3.185,3.185,0,0,1-.9-.114,1.456,1.456,0,0,1-.618-.351,1.429,1.429,0,0,1-.351-.61A3.116,3.116,0,0,1,308.369,197.343Z"/><path id="path65" class="cls-2" d="M318.944,196.812a1.05,1.05,0,0,0,.681-1,1.087,1.087,0,0,0-.07-.382,1.048,1.048,0,0,0-.184-.325,1.187,1.187,0,0,0-.287-.242,1.16,1.16,0,0,0-.433-.152,3.45,3.45,0,0,0-.566-.045h-1.477a.58.58,0,0,0-.426.134.6.6,0,0,0-.134.433v3.424a.634.634,0,0,0,.127.433.6.6,0,0,0,.433.133H318a4.436,4.436,0,0,0,.63-.038,1.741,1.741,0,0,0,.484-.121,1.166,1.166,0,0,0,.528-.452,1.268,1.268,0,0,0,.2-.687A1.118,1.118,0,0,0,318.944,196.812Zm-1.973-1.457h.751a1.878,1.878,0,0,1,.751.114.456.456,0,0,1,.248.465.528.528,0,0,1-.082.293.508.508,0,0,1-.287.248,1.712,1.712,0,0,1-.534.063h-.847Zm.993,3.182h-.993V197.2h.961a1.367,1.367,0,0,1,.726.153.553.553,0,0,1,.242.5C318.9,198.314,318.588,198.537,317.964,198.537Z"/><path id="path67" class="cls-2" d="M324.173,195.2l1.029,3.054,1.034-3.076c.054-.162.094-.274.121-.337a.461.461,0,0,1,.133-.171.39.39,0,0,1,.255-.076.435.435,0,0,1,.376.216.383.383,0,0,1,.058.2.662.662,0,0,1-.018.147,1.34,1.34,0,0,1-.047.156l-.056.157-1.1,2.979c-.039.114-.079.223-.118.325a1.4,1.4,0,0,1-.137.271.611.611,0,0,1-.206.191.627.627,0,0,1-.315.075.638.638,0,0,1-.315-.073.612.612,0,0,1-.208-.193,1.451,1.451,0,0,1-.138-.273c-.039-.1-.078-.209-.118-.323l-1.083-2.955c-.018-.053-.038-.106-.058-.158a1.277,1.277,0,0,1-.049-.168.747.747,0,0,1-.02-.152.4.4,0,0,1,.127-.289.43.43,0,0,1,.32-.131.371.371,0,0,1,.333.145A1.91,1.91,0,0,1,324.173,195.2Z"/><path id="path69" class="cls-2" d="M333.747,195.377h-2.079V196.5h1.914a.459.459,0,0,1,.316.095.325.325,0,0,1,.1.25.334.334,0,0,1-.1.253.446.446,0,0,1-.317.1h-1.914v1.3h2.15a.483.483,0,0,1,.329.1.345.345,0,0,1,.11.266.338.338,0,0,1-.11.261.481.481,0,0,1-.329.1H331.31a.484.484,0,0,1-.567-.565v-3.424a.774.774,0,0,1,.059-.325.363.363,0,0,1,.185-.183.771.771,0,0,1,.323-.058h2.437a.481.481,0,0,1,.328.1.359.359,0,0,1,0,.511A.466.466,0,0,1,333.747,195.377Z"/><path id="path71" class="cls-2" d="M341.532,198.613a4.153,4.153,0,0,0-.267-.515,4.9,4.9,0,0,0-.4-.548,1.871,1.871,0,0,0-.471-.382,1.635,1.635,0,0,0,.872-.432,1.148,1.148,0,0,0,.286-.815,1.273,1.273,0,0,0-.083-.471,1.059,1.059,0,0,0-.254-.388,1.157,1.157,0,0,0-.376-.261,1.327,1.327,0,0,0-.4-.1,4.264,4.264,0,0,0-.528-.025h-1.5a.6.6,0,0,0-.433.127.607.607,0,0,0-.133.433v3.507a.659.659,0,0,0,.121.42.432.432,0,0,0,.343.146.413.413,0,0,0,.331-.14.58.58,0,0,0,.127-.426v-1.464h.325a1.081,1.081,0,0,1,.407.063.833.833,0,0,1,.319.242,3.544,3.544,0,0,1,.356.516l.369.617c.089.146.159.255.21.331a.631.631,0,0,0,.178.185.437.437,0,0,0,.261.076.507.507,0,0,0,.23-.051.436.436,0,0,0,.159-.14.35.35,0,0,0,.057-.185A.981.981,0,0,0,341.532,198.613Zm-1.381-2.049a2.343,2.343,0,0,1-.56.057h-.821v-1.266h.846a1.918,1.918,0,0,1,.637.07.575.575,0,0,1,.363.553.574.574,0,0,1-.121.389A.65.65,0,0,1,340.151,196.564Z"/><path id="path73" class="cls-2" d="M348.752,197.86a1.346,1.346,0,0,1-.212.743,1.419,1.419,0,0,1-.623.516,2.338,2.338,0,0,1-.972.187,2.186,2.186,0,0,1-1.11-.255,1.462,1.462,0,0,1-.506-.489,1.112,1.112,0,0,1-.195-.6.4.4,0,0,1,.414-.407.354.354,0,0,1,.248.093.728.728,0,0,1,.172.277,1.849,1.849,0,0,0,.188.363.772.772,0,0,0,.284.242,1.061,1.061,0,0,0,.483.095,1.1,1.1,0,0,0,.668-.192.575.575,0,0,0,.256-.477.506.506,0,0,0-.139-.37.894.894,0,0,0-.357-.215,6.052,6.052,0,0,0-.587-.159,4.3,4.3,0,0,1-.822-.27,1.319,1.319,0,0,1-.526-.419,1.094,1.094,0,0,1-.194-.661,1.135,1.135,0,0,1,.205-.669,1.29,1.29,0,0,1,.593-.45,2.444,2.444,0,0,1,.913-.156,2.276,2.276,0,0,1,.726.1,1.557,1.557,0,0,1,.508.276,1.18,1.18,0,0,1,.3.363.837.837,0,0,1,.093.37.436.436,0,0,1-.117.3.365.365,0,0,1-.289.133.33.33,0,0,1-.239-.08,1.051,1.051,0,0,1-.178-.26,1.175,1.175,0,0,0-.3-.4.877.877,0,0,0-.56-.144.963.963,0,0,0-.576.157.457.457,0,0,0-.22.378.38.38,0,0,0,.075.236.63.63,0,0,0,.205.172,1.432,1.432,0,0,0,.264.112c.089.027.236.066.442.118a7.053,7.053,0,0,1,.7.2,2.166,2.166,0,0,1,.53.264,1.086,1.086,0,0,1,.34.394A1.262,1.262,0,0,1,348.752,197.86Z"/><path id="path75" class="cls-2" d="M352.443,198.742v-3.591a.6.6,0,0,1,.127-.42.434.434,0,0,1,.331-.14.439.439,0,0,1,.338.139.6.6,0,0,1,.129.421v3.591a.6.6,0,0,1-.129.423.442.442,0,0,1-.338.141.424.424,0,0,1-.329-.142A.609.609,0,0,1,352.443,198.742Z"/><path id="path77" class="cls-2" d="M361.243,195.7a1.839,1.839,0,0,0-.763-.821,2.438,2.438,0,0,0-1.216-.286,2.536,2.536,0,0,0-.936.165,1.943,1.943,0,0,0-.693.471,2.055,2.055,0,0,0-.433.745,2.9,2.9,0,0,0-.153.961,3.078,3.078,0,0,0,.146.955,2.013,2.013,0,0,0,.427.757,1.821,1.821,0,0,0,.706.49,2.5,2.5,0,0,0,.955.172,2.437,2.437,0,0,0,.948-.172,1.9,1.9,0,0,0,.707-.484,2.12,2.12,0,0,0,.426-.751,3,3,0,0,0,.14-.961A2.694,2.694,0,0,0,361.243,195.7Zm-.846,2.151a1.237,1.237,0,0,1-.471.554,1.273,1.273,0,0,1-.649.178,1.336,1.336,0,0,1-.51-.1,1.222,1.222,0,0,1-.407-.312,1.546,1.546,0,0,1-.28-.529,2.4,2.4,0,0,1-.095-.7,2.347,2.347,0,0,1,.095-.7,1.531,1.531,0,0,1,.267-.509,1.087,1.087,0,0,1,.4-.3,1.307,1.307,0,0,1,1.2.082,1.232,1.232,0,0,1,.459.56,2.129,2.129,0,0,1,.159.866A2.186,2.186,0,0,1,360.4,197.849Z"/><path id="path79" class="cls-2" d="M366.367,195.145l1.781,2.689V195.12a.6.6,0,0,1,.113-.4.379.379,0,0,1,.3-.132.394.394,0,0,1,.313.132.6.6,0,0,1,.114.4v3.585q0,.6-.5.6a.673.673,0,0,1-.223-.036.564.564,0,0,1-.187-.114,1.148,1.148,0,0,1-.162-.182l-.148-.213L366.04,196.1v2.673a.569.569,0,0,1-.121.395.43.43,0,0,1-.625,0,.582.582,0,0,1-.119-.393v-3.517a.975.975,0,0,1,.05-.351.494.494,0,0,1,.2-.229.532.532,0,0,1,.3-.088.513.513,0,0,1,.213.04.5.5,0,0,1,.155.109,1.175,1.175,0,0,1,.138.177C366.269,194.99,366.317,195.066,366.367,195.145Z"/><rect class="cls-2" x="300.422" y="201.466" width="68.9" height="0.636"/></g><path class="cls-2" d="M78.451,42.764a1.652,1.652,0,0,1,1.1-.38,1.93,1.93,0,0,1,1.652.949,2.991,2.991,0,0,1,.314,1.508v2.68H79.925v-2.6c0-.849-.156-1.106-.681-1.106a.745.745,0,0,0-.659.313,1.758,1.758,0,0,0-.134.883v2.512H76.865v-7.45h1.586Z"/><path class="cls-2" d="M84.194,45.8c0,.267.045.357.19.357a1.558,1.558,0,0,0,.6-.157v1.464a2.739,2.739,0,0,1-.882.156c-.938,0-1.5-.647-1.5-1.765V43.992h-.491V42.573h.491v-.994l1.586-.614v1.608h.726v1.419h-.726Z"/><path class="cls-2" d="M87.435,45.8c0,.267.044.357.189.357a1.566,1.566,0,0,0,.6-.157v1.464a2.748,2.748,0,0,1-.882.156c-.939,0-1.5-.647-1.5-1.765V43.992h-.492V42.573h.492v-.994l1.586-.614v1.608h.725v1.419h-.725Z"/><path class="cls-2" d="M90.62,42.573v.246a1.873,1.873,0,0,1,1.239-.435,2.669,2.669,0,0,1,0,5.327,1.887,1.887,0,0,1-1.239-.436v2.86H89.034V42.573Zm-.012,2.48a1.091,1.091,0,0,0,1.073,1.228,1.246,1.246,0,1,0-1.073-1.228Z"/><path class="cls-2" d="M96.1,45.734c.223.413.447.592.726.592a.319.319,0,0,0,.358-.312c0-.146-.078-.212-.38-.335l-.826-.335a1.415,1.415,0,0,1-.916-1.319,1.724,1.724,0,0,1,1.865-1.641,1.967,1.967,0,0,1,1.832,1.138l-1.274.582a.684.684,0,0,0-.57-.358c-.212,0-.335.09-.335.246,0,.123.078.179.347.29l.692.269c.771.29,1.151.748,1.151,1.385A1.844,1.844,0,0,1,96.8,47.711a2.086,2.086,0,0,1-2.067-1.5Z"/><path class="cls-2" d="M101.84,43.623a.945.945,0,1,1-.949-.916A.933.933,0,0,1,101.84,43.623Zm0,3.15a.945.945,0,1,1-.939-.916A.933.933,0,0,1,101.84,46.773Z"/><path class="cls-2" d="M107.024,39.87l1.318.771-4.2,7.082-1.319-.771Z"/><path class="cls-2" d="M111.74,39.87l1.318.771-4.2,7.082-1.318-.771Z"/><path class="cls-2" d="M116.87,47.275a1.929,1.929,0,0,1-1.24.436,2.669,2.669,0,0,1,0-5.327,1.933,1.933,0,0,1,1.24.435v-.246h1.586v5.049a2.583,2.583,0,0,1-2.726,2.691,3.123,3.123,0,0,1-2.568-1.351l1.083-1.016.067.078a.778.778,0,0,1,.089.112,1.631,1.631,0,0,0,1.329.748c.727,0,1.14-.458,1.14-1.262Zm-2.144-2.211a1.107,1.107,0,0,0,1.083,1.217c.648,0,1.072-.491,1.072-1.251a1.084,1.084,0,0,0-1.083-1.217A1.111,1.111,0,0,0,114.726,45.064Z"/><path class="cls-2" d="M124.58,45.042a2.692,2.692,0,1,1-2.658-2.658A2.653,2.653,0,0,1,124.58,45.042Zm-3.786,0a1.1,1.1,0,1,0,1.083-1.229A1.1,1.1,0,0,0,120.794,45.042Z"/><path class="cls-2" d="M128.828,44.4c-.447-.448-.692-.582-1.105-.582a1.24,1.24,0,0,0,0,2.468,1.366,1.366,0,0,0,1.128-.625l.982,1.083a2.762,2.762,0,0,1-2.11.972,2.664,2.664,0,1,1-.012-5.327,2.743,2.743,0,0,1,2.089.938Z"/><path class="cls-2" d="M133.857,47.521v-.246a1.866,1.866,0,0,1-1.24.436,2.669,2.669,0,0,1,0-5.327,1.917,1.917,0,0,1,1.24.424V40.071h1.586v7.45Zm-2.144-2.457a1.107,1.107,0,0,0,1.083,1.217c.648,0,1.072-.491,1.072-1.251a1.084,1.084,0,0,0-1.083-1.217A1.111,1.111,0,0,0,131.713,45.064Z"/><path class="cls-2" d="M138.4,46.773a.945.945,0,1,1-.939-.916A.933.933,0,0,1,138.4,46.773Z"/><path class="cls-2" d="M138.776,42.573h1.676l1.072,2.748,1.229-2.748h1.676l-3.385,7.562h-1.675l1.284-2.87Z"/><path class="cls-2" d="M149.647,45.042a2.692,2.692,0,1,1-2.658-2.658A2.652,2.652,0,0,1,149.647,45.042Zm-3.786,0a1.1,1.1,0,1,0,1.083-1.229A1.1,1.1,0,0,0,145.861,45.042Z"/><path class="cls-2" d="M153.448,47.32a1.6,1.6,0,0,1-1.094.391,1.918,1.918,0,0,1-1.653-.949,2.993,2.993,0,0,1-.312-1.508V42.573h1.586v2.6c0,.838.167,1.1.692,1.1a.734.734,0,0,0,.647-.312,1.779,1.779,0,0,0,.134-.894v-2.5h1.587v4.948h-1.587Z"/><path class="cls-2" d="M157.685,42.8a1.445,1.445,0,0,1,.848-.257,2.927,2.927,0,0,1,.5.045V43.98a4.617,4.617,0,0,0-.5-.033c-.659,0-.848.268-.848,1.173v2.4H156.1V42.573h1.586Z"/><path class="cls-2" d="M159.541,40.071h1.586v2.737a1.916,1.916,0,0,1,1.239-.424,2.669,2.669,0,0,1,0,5.327,1.866,1.866,0,0,1-1.239-.436v.246h-1.586Zm1.574,4.971a1.1,1.1,0,0,0,1.073,1.239,1.243,1.243,0,0,0-.023-2.468A1.094,1.094,0,0,0,161.115,45.042Z"/><path class="cls-2" d="M168.669,47.32a1.606,1.606,0,0,1-1.094.391,1.918,1.918,0,0,1-1.653-.949,2.992,2.992,0,0,1-.313-1.508V42.573H167.2v2.6c0,.838.167,1.1.693,1.1a.734.734,0,0,0,.647-.312,1.779,1.779,0,0,0,.134-.894v-2.5h1.587v4.948h-1.587Z"/><path class="cls-2" d="M173.062,40.864a.945.945,0,1,1-.95-.916A.933.933,0,0,1,173.062,40.864Zm-.146,6.657H171.33V42.573h1.586Z"/><path class="cls-2" d="M173.989,47.521v-7.45h1.586v7.45Z"/><path class="cls-2" d="M180.078,47.521v-.246a1.866,1.866,0,0,1-1.24.436,2.669,2.669,0,0,1,0-5.327,1.917,1.917,0,0,1,1.24.424V40.071h1.586v7.45Zm-2.144-2.457a1.107,1.107,0,0,0,1.083,1.217c.648,0,1.072-.491,1.072-1.251a1.084,1.084,0,0,0-1.083-1.217A1.111,1.111,0,0,0,177.934,45.064Z"/><path class="cls-2" d="M184.616,46.773a.944.944,0,1,1-.938-.916A.933.933,0,0,1,184.616,46.773Z"/><path class="cls-2" d="M189.2,44.4c-.447-.448-.692-.582-1.1-.582a1.24,1.24,0,0,0,0,2.468,1.366,1.366,0,0,0,1.128-.625l.982,1.083a2.762,2.762,0,0,1-2.11.972,2.664,2.664,0,1,1-.012-5.327,2.743,2.743,0,0,1,2.089.938Z"/><path class="cls-2" d="M195.712,45.042a2.692,2.692,0,1,1-2.658-2.658A2.653,2.653,0,0,1,195.712,45.042Zm-3.786,0a1.1,1.1,0,1,0,1.083-1.229A1.1,1.1,0,0,0,191.926,45.042Z"/><path class="cls-2" d="M198.027,42.774a1.586,1.586,0,0,1,1.05-.39,1.79,1.79,0,0,1,1.24.5,2.068,2.068,0,0,1,1.4-.5,2.023,2.023,0,0,1,1.831,1.016,2.865,2.865,0,0,1,.3,1.474v2.647h-1.586V44.952c0-.871-.146-1.139-.6-1.139a.651.651,0,0,0-.58.291,1.994,1.994,0,0,0-.135.949v2.468h-1.586V44.952c0-.871-.144-1.139-.6-1.139a.652.652,0,0,0-.581.291,2.016,2.016,0,0,0-.134.949v2.468h-1.586V42.573h1.574Z"/><path class="cls-2" d="M946.994,33.079v23H2.006v-23H946.994m2-2H.006v27H948.994v-27Z"/><path class="cls-2" d="M917.484,53.875H73.605A2.919,2.919,0,0,1,70.69,50.96V38.2a2.919,2.919,0,0,1,2.915-2.915H917.484A2.918,2.918,0,0,1,920.4,38.2V50.96A2.918,2.918,0,0,1,917.484,53.875ZM73.605,37.283a.916.916,0,0,0-.915.915V50.96a.916.916,0,0,0,.915.915H917.484a.915.915,0,0,0,.915-.915V38.2a.915.915,0,0,0-.915-.915Z"/><path class="cls-2" d="M907.71,41.079l.9,1.829a1,1,0,0,0,.758.551l2.019.294-1.461,1.424a1.007,1.007,0,0,0-.29.891l.345,2.011-1.806-.95a1.012,1.012,0,0,0-.937,0l-1.8.95.344-2.011a1.006,1.006,0,0,0-.289-.891l-1.461-1.424,2.019-.294a1,1,0,0,0,.758-.551l.9-1.829m0-2a2,2,0,0,0-1.793,1.115l-.672,1.361-1.5.218a2,2,0,0,0-1.108,3.412l1.087,1.06-.257,1.5a2,2,0,0,0,2.9,2.108l1.344-.706,1.344.706a2,2,0,0,0,2.9-2.109l-.257-1.5,1.087-1.06a2,2,0,0,0-1.108-3.412l-1.5-.218-.672-1.361a2,2,0,0,0-1.793-1.115Z"/><path class="cls-2" d="M18.525,22.576a5.526,5.526,0,1,1,5.525-5.525A5.531,5.531,0,0,1,18.525,22.576Zm0-9.051a3.526,3.526,0,1,0,3.525,3.526A3.53,3.53,0,0,0,18.525,13.525Z"/><path class="cls-2" d="M34.363,22.576a5.526,5.526,0,1,1,5.526-5.525A5.531,5.531,0,0,1,34.363,22.576Zm0-9.051a3.526,3.526,0,1,0,3.526,3.526A3.53,3.53,0,0,0,34.363,13.525Z"/><path class="cls-2" d="M50.2,22.576a5.526,5.526,0,1,1,5.526-5.525A5.531,5.531,0,0,1,50.2,22.576Zm0-9.051a3.526,3.526,0,1,0,3.526,3.526A3.53,3.53,0,0,0,50.2,13.525Z"/><path class="cls-2" d="M238.275,13.509a5.526,5.526,0,0,1,5.125,3.353L249.354,31H73.619l5.953-14.137A5.526,5.526,0,0,1,84.7,13.509H238.275m0-2H84.7a7.545,7.545,0,0,0-6.969,4.577L70.606,33h181.76l-7.122-16.914a7.546,7.546,0,0,0-6.969-4.577Z"/><path class="cls-2" d="M932.976,42.562a2.509,2.509,0,1,1,2.507-2.508A2.51,2.51,0,0,1,932.976,42.562Zm0-3.017a.509.509,0,1,0,.507.509A.509.509,0,0,0,932.976,39.545Z"/><path class="cls-2" d="M932.976,47.087a2.509,2.509,0,1,1,2.507-2.508A2.511,2.511,0,0,1,932.976,47.087Zm0-3.017a.509.509,0,1,0,.507.509A.51.51,0,0,0,932.976,44.07Z"/><path class="cls-2" d="M932.976,51.612a2.508,2.508,0,1,1,2.507-2.508A2.511,2.511,0,0,1,932.976,51.612Zm0-3.016a.508.508,0,1,0,.507.508A.509.509,0,0,0,932.976,48.6Z"/><path class="cls-2" d="M947,58V90H2V58H947m2-2H0V92H949V56Z"/><path class="cls-2" d="M139.567,80.656H91.3a1,1,0,0,1-1-1V68.344a1,1,0,0,1,1-1h48.268a1,1,0,0,1,1,1V79.656A1,1,0,0,1,139.567,80.656Zm-47.268-2h46.268V69.344H92.3Z"/><path class="cls-2" d="M220.266,80.656H172a1,1,0,0,1-1-1V68.344a1,1,0,0,1,1-1h48.268a1,1,0,0,1,1,1V79.656A1,1,0,0,1,220.266,80.656Zm-47.268-2h46.268V69.344H173Z"/><path class="cls-2" d="M300.964,80.656H252.7a1,1,0,0,1-1-1V68.344a1,1,0,0,1,1-1h48.268a1,1,0,0,1,1,1V79.656A1,1,0,0,1,300.964,80.656Zm-47.268-2h46.268V69.344H253.7Z"/><path class="cls-2" d="M381.662,80.656H333.4a1,1,0,0,1-1-1V68.344a1,1,0,0,1,1-1h48.267a1,1,0,0,1,1,1V79.656A1,1,0,0,1,381.662,80.656Zm-47.267-2h46.267V69.344H334.4Z"/><path class="cls-2" d="M919.4,80.656H871.132a1,1,0,0,1-1-1V68.344a1,1,0,0,1,1-1H919.4a1,1,0,0,1,1,1V79.656A1,1,0,0,1,919.4,80.656Zm-47.267-2H918.4V69.344H872.132Z"/><path class="cls-2" d="M46.652,82.075A6.229,6.229,0,0,1,45.3,84.254a5.972,5.972,0,0,1-2.1,1.408,7.139,7.139,0,0,1-2.7.5,6.705,6.705,0,0,1-3.925-1.138,5.242,5.242,0,0,1-2.134-3.109h2.217a3.3,3.3,0,0,0,.824,1.161,3.615,3.615,0,0,0,1.063.659,4.8,4.8,0,0,0,1.086.3,6.058,6.058,0,0,0,.877.075,4.539,4.539,0,0,0,2.082-.435,4,4,0,0,0,1.393-1.123A4.272,4.272,0,0,0,44.764,81,6.636,6.636,0,0,0,45,79.251V77.9a6.008,6.008,0,0,1-1.835,1.61,4.928,4.928,0,0,1-2.532.659,6.162,6.162,0,0,1-4.6-1.97A6.741,6.741,0,0,1,34.69,76.06a7.318,7.318,0,0,1,0-5.25,6.479,6.479,0,0,1,3.378-3.588,6.067,6.067,0,0,1,2.569-.539,4.962,4.962,0,0,1,2.592.7,5.878,5.878,0,0,1,1.843,1.67V67.005h2.044V79.251A7.587,7.587,0,0,1,46.652,82.075ZM44.66,71.6a4.95,4.95,0,0,0-.952-1.535,4.331,4.331,0,0,0-1.385-1.034,3.911,3.911,0,0,0-1.686-.375,3.964,3.964,0,0,0-1.692.375,4.042,4.042,0,0,0-1.371,1.034,5.166,5.166,0,0,0-1.251,3.408,5.045,5.045,0,0,0,.337,1.842,4.869,4.869,0,0,0,.914,1.521,4.235,4.235,0,0,0,1.371,1.026,3.99,3.99,0,0,0,1.692.374,3.911,3.911,0,0,0,1.686-.374,4.427,4.427,0,0,0,1.385-1.026,5.1,5.1,0,0,0,.952-1.521,4.947,4.947,0,0,0,.352-1.842A5.02,5.02,0,0,0,44.66,71.6Z"/><path class="cls-2" d="M57.64,67.222a6.459,6.459,0,0,1,2.045,1.46,6.822,6.822,0,0,1,1.355,2.157,7.014,7.014,0,0,1,.5,2.63,6.708,6.708,0,0,1-.5,2.606,6.842,6.842,0,0,1-1.355,2.12,6.3,6.3,0,0,1-4.6,1.955,6.154,6.154,0,0,1-2.547-.525,6.48,6.48,0,0,1-2.045-1.43,6.619,6.619,0,0,1-1.37-2.12,7.077,7.077,0,0,1,0-5.236,6.721,6.721,0,0,1,1.37-2.157,6.631,6.631,0,0,1,2.045-1.46,6.3,6.3,0,0,1,5.1,0Zm-.869,10.613a4.5,4.5,0,0,0,1.386-1.011,4.7,4.7,0,0,0,.936-1.5,5.088,5.088,0,0,0,.337-1.843,5.193,5.193,0,0,0-.337-1.88,4.744,4.744,0,0,0-.936-1.535,4.567,4.567,0,0,0-1.386-1.034,3.807,3.807,0,0,0-1.685-.39,3.715,3.715,0,0,0-1.685.39,4.509,4.509,0,0,0-1.371,1.034,4.816,4.816,0,0,0-.921,1.535,5.256,5.256,0,0,0-.337,1.88,5.026,5.026,0,0,0,.337,1.843,4.6,4.6,0,0,0,.921,1.5A4.33,4.33,0,0,0,53.4,77.835a3.973,3.973,0,0,0,3.37,0Z"/><path class="cls-2" d="M15.134,83.063a2.086,2.086,0,0,1-1-.254,2.121,2.121,0,0,1-1.123-1.873V72.45a2.12,2.12,0,1,1,4.239,0v4.524l6.786-4.524L13.95,65.724A2.123,2.123,0,0,1,16.3,62.188l12.741,8.494a2.128,2.128,0,0,1,0,3.536L16.31,82.7A2.113,2.113,0,0,1,15.134,83.063Z"/><path class="cls-2" d="M39.412,45.579h-9a1,1,0,0,1,0-2h9a1,1,0,0,1,0,2Z"/><path class="cls-2" d="M35.412,49.579a1,1,0,0,1-.707-1.707L38,44.579l-3.293-3.293a1,1,0,0,1,1.414-1.414l4,4a1,1,0,0,1,0,1.414l-4,4A1,1,0,0,1,35.412,49.579Z"/><path class="cls-2" d="M23,45.579H14a1,1,0,0,1,0-2h9a1,1,0,1,1,0,2Z"/><path class="cls-2" d="M18,49.579a1,1,0,0,1-.707-.293l-4-4a1,1,0,0,1,0-1.414l4-4a1,1,0,0,1,1.414,1.414l-3.293,3.293,3.293,3.293A1,1,0,0,1,18,49.579Z"/></g></g></svg>