<?xml version="1.0" encoding="utf-8"?>
<!-- Generator: Adobe Illustrator 22.0.1, SVG Export Plug-In . SVG Version: 6.00 Build 0)  -->
<svg version="1.1" id="Layer_1" xmlns="http://www.w3.org/2000/svg" xmlns:xlink="http://www.w3.org/1999/xlink" x="0px" y="0px"
	 viewBox="0 0 1081.3 774.9" style="enable-background:new 0 0 1081.3 774.9;" xml:space="preserve">
<style type="text/css">
	.st0{fill:none;stroke:#1C425C;stroke-width:3;stroke-linejoin:round;stroke-miterlimit:10;stroke-dasharray:5,5,5,5,5,5;}
	.st1{enable-background:new    ;}
	.st2{fill:#1C425C;}
	.st3{fill:#EFEFEF;stroke:#132B3B;stroke-width:3;stroke-miterlimit:10;}
	.st4{fill:#023550;}
	.st5{fill:#FFFFFF;}
	.st6{fill:#F7A600;}
	.st7{fill:#00BFC0;}
	.st8{fill:none;stroke:#1C425C;stroke-width:2;stroke-miterlimit:10;}
	.st9{fill:#00BFC0;stroke:#1C425C;stroke-width:3;stroke-miterlimit:10;}
	.st10{fill:none;}
	.st11{fill:none;stroke:#1C425C;stroke-width:3;stroke-linejoin:round;stroke-miterlimit:10;}
	.st12{fill:none;stroke:#1C425C;stroke-width:3;stroke-linecap:round;stroke-linejoin:round;}
</style>
<path class="st0" d="M1074.7,670h-947c-1.7,0-3.1-1.2-3.1-2.6V57.6c0-1.4,1.4-2.6,3.1-2.6h947c1.7,0,3.1,1.2,3.1,2.6v609.9
	C1077.7,668.8,1076.4,670,1074.7,670z"/>
<g class="st1">
	<path class="st2" d="M530,32.6h-3.8v13.1H523V32.6h-3.8v-3H530V32.6z"/>
	<path class="st2" d="M534.6,36.1h6v-6.4h3.2v16h-3.2v-6.6h-6v6.6h-3.2v-16h3.2V36.1z"/>
	<path class="st2" d="M550.3,45.7h-3.2v-16h3.2V45.7z"/>
	<path class="st2" d="M560.9,34.1c-1-1.5-1.5-1.8-2.5-1.8c-1.1,0-2,0.8-2,1.8c0,0.6,0.6,1.2,1.7,1.6l1.5,0.6c2.7,1,4,2.5,4,4.6
		c0,3-2.4,5.2-5.5,5.2c-1.7,0-3.3-0.7-4.3-1.9c-0.6-0.8-1-1.6-1.3-3l3.1-0.8c0.3,1.1,0.4,1.5,0.6,1.8c0.4,0.6,1.1,1,1.8,1
		c1.3,0,2.3-1,2.3-2.2c0-0.8-0.6-1.3-2.2-1.9l-1.4-0.5c-2.4-0.9-3.6-2.4-3.6-4.4c0-2.7,2.3-4.8,5.2-4.8c2.2,0,3.6,0.9,5,3.2
		L560.9,34.1z"/>
	<path class="st2" d="M574.7,45.7h-3.2v-16h3.2V45.7z"/>
	<path class="st2" d="M585.3,34.1c-1-1.5-1.5-1.8-2.5-1.8c-1.1,0-2,0.8-2,1.8c0,0.6,0.6,1.2,1.7,1.6l1.5,0.6c2.7,1,4,2.5,4,4.6
		c0,3-2.4,5.2-5.5,5.2c-1.7,0-3.3-0.7-4.3-1.9c-0.6-0.8-1-1.6-1.3-3l3.1-0.8c0.3,1.1,0.4,1.5,0.6,1.8c0.4,0.6,1.1,1,1.8,1
		c1.3,0,2.3-1,2.3-2.2c0-0.8-0.6-1.3-2.2-1.9l-1.4-0.5c-2.4-0.9-3.6-2.4-3.6-4.4c0-2.7,2.3-4.8,5.2-4.8c2.2,0,3.6,0.9,5,3.2
		L585.3,34.1z"/>
	<path class="st2" d="M598.9,42l-1.3,3.7h-3.4l6-16h3.8l6,16h-3.4l-1.3-3.7H598.9z M602,33.1l-2.1,5.9h4.2L602,33.1z"/>
	<path class="st2" d="M619.9,45.7h-3.2v-16h3.8c1.6,0,2.6,0.2,3.5,0.7c1.5,0.8,2.4,2.5,2.4,4.4s-0.9,3.6-2.4,4.4
		c-0.9,0.5-1.9,0.7-3.5,0.7h-0.6V45.7z M620.7,37c1.8,0,2.5-0.7,2.5-2.2c0-1.5-0.8-2.2-2.5-2.2h-0.8V37H620.7z"/>
	<path class="st2" d="M631.3,45.7h-3.2v-16h3.2V45.7z"/>
	<path class="st2" d="M637.7,45.7h-3.2v-16h3.8c1.6,0,2.6,0.2,3.5,0.7c1.5,0.8,2.4,2.5,2.4,4.4s-0.9,3.6-2.4,4.4
		c-0.9,0.5-1.9,0.7-3.5,0.7h-0.6V45.7z M638.6,37c1.8,0,2.5-0.7,2.5-2.2c0-1.5-0.8-2.2-2.5-2.2h-0.8V37H638.6z"/>
	<path class="st2" d="M655.1,32.6h-6v3.5h5.3v3h-5.3v3.6h6.2v3H646v-16h9.2V32.6z"/>
	<path class="st2" d="M660.9,29.7v13h5.8v3h-9v-16H660.9z"/>
	<path class="st2" d="M671.5,45.7h-3.2v-16h3.2V45.7z"/>
	<path class="st2" d="M674.7,29.7h2.7l7.9,10.4V29.7h3.2v16h-2.7l-7.9-10.4v10.4h-3.2V29.7z"/>
	<path class="st2" d="M700.8,32.6h-6v3.5h5.3v3h-5.3v3.6h6.2v3h-9.4v-16h9.2V32.6z"/>
</g>
<path class="st3" d="M419.6,634.9H156.3c-2.4,0-4.3-1.8-4.3-4.2V89.4c0-2.3,1.9-4.2,4.3-4.2h263.3c2.4,0,4.3,1.8,4.3,4.2v541.3
	C423.9,633,422,634.9,419.6,634.9z"/>
<g class="st1">
	<path class="st4" d="M271.3,111.3c-0.8-1.3-1.3-1.6-2.2-1.6c-1.1,0-1.9,0.7-1.9,1.7c0,0.6,0.5,1.1,1.6,1.5l1.3,0.5
		c2.2,0.9,3.3,2,3.3,3.8c0,2.4-2,4.3-4.5,4.3c-1.8,0-3.3-0.9-4-2.5c-0.2-0.4-0.2-0.4-0.5-1.5l2.3-0.6c0.3,1.1,0.3,1.1,0.4,1.3
		c0.4,0.7,1,1.1,1.8,1.1c1.2,0,2.1-0.9,2.1-2c0-0.8-0.5-1.2-1.9-1.8l-1.2-0.5c-2-0.8-2.9-1.9-2.9-3.6c0-2.2,1.8-3.9,4.2-3.9
		c1.2,0,2.3,0.4,3.1,1.3c0.3,0.3,0.5,0.5,1,1.3L271.3,111.3z"/>
	<path class="st4" d="M279.8,121.1h-2.4V110h-3.3v-2.2h8.9v2.2h-3.3V121.1z"/>
	<path class="st4" d="M285.8,117.9l-1.2,3.3h-2.5l5-13.3h2.9l5,13.3h-2.5l-1.2-3.3H285.8z M288.5,110.3l-1.9,5.4h3.9L288.5,110.3z"
		/>
	<path class="st4" d="M308.3,113.8v1.1c0,3.9-2.5,6.5-6.1,6.5c-3.9,0-7.1-3.1-7.1-6.9c0-3.9,3.1-7,7-7c1.4,0,2.8,0.4,3.9,1.2
		c0.4,0.3,0.5,0.4,1.4,1.2l-1.7,1.6c-0.8-0.8-0.8-0.9-1.2-1.1c-0.7-0.5-1.5-0.8-2.5-0.8c-2.6,0-4.6,2.1-4.6,4.8c0,2.6,2,4.7,4.6,4.7
		c1.4,0,2.6-0.6,3.3-1.8c0.2-0.4,0.3-0.7,0.5-1.4h-3.7v-2.2H308.3z"/>
	<path class="st4" d="M312.7,110v3.3h4.5v2.2h-4.5v3.5h5.3v2.2h-7.6v-13.3h7.4v2.2H312.7z"/>
	<path class="st4" d="M326,121.1v-10.5l-1.7,1l-1.1-1.9l3.3-1.9h1.9v13.3H326z"/>
</g>
<path class="st5" d="M401.4,363.2H176.7c-1.8,0-3.2-1.5-3.2-3.2V145.3c0-1.8,1.5-3.2,3.2-3.2h224.7c1.8,0,3.2,1.5,3.2,3.2v214.6
	C404.6,361.7,403.1,363.2,401.4,363.2z"/>
<g class="st1">
	<path class="st2" d="M276,164c0,1.5-0.2,2.3-0.9,3c-0.6,0.6-1.4,1-2.4,1c-1.1,0-2.1-0.5-3.2-1.6l1.3-1.5c0.8,0.8,1.3,1.1,1.9,1.1
		c0.8,0,1.2-0.6,1.2-2v-8.3h2.1V164z"/>
	<path class="st2" d="M290.4,161.8c0,3.5-2.8,6.3-6.3,6.3c-3.4,0-6.2-2.9-6.2-6.4c0-3.3,2.9-6.2,6.3-6.2
		C287.6,155.5,290.4,158.3,290.4,161.8z M280,161.8c0,2.3,1.9,4.2,4.1,4.2c2.3,0,4.1-1.9,4.1-4.2c0-2.4-1.8-4.3-4.2-4.3
		C281.8,157.5,280,159.4,280,161.8z"/>
	<path class="st2" d="M292.3,155.8h2.8c1.4,0,2.3,0.2,3,0.7c0.8,0.6,1.3,1.6,1.3,2.6c0,0.9-0.3,1.5-1,2.2c1,0.6,1.6,1.7,1.6,2.9
		c0,1.1-0.5,2-1.3,2.7c-0.8,0.6-1.6,0.8-3,0.8h-3.3V155.8z M295.2,160.7c0.8,0,1.2-0.1,1.5-0.4c0.3-0.3,0.5-0.7,0.5-1.2
		c0-0.5-0.2-0.9-0.5-1.2c-0.3-0.2-0.8-0.3-1.5-0.3h-0.9v3H295.2z M295.5,165.8c0.9,0,1.3-0.1,1.7-0.4c0.4-0.3,0.6-0.7,0.6-1.2
		c0-0.6-0.3-1.1-0.7-1.3c-0.4-0.2-0.8-0.3-1.7-0.3h-1v3.3H295.5z"/>
</g>
<path class="st6" d="M389,217.4H194.8c-1.7,0-3-1.3-3-3v-29.1c0-1.7,1.3-3,3-3H389c1.7,0,3,1.3,3,3v29.1
	C392,216,390.7,217.4,389,217.4z"/>
<g>
	<path class="st7" d="M192.7,215.9c-0.9,0-1.5-0.6-1.5-1.5v-29.1c0-0.9,0.6-1.5,1.5-1.5h43.4v32.1H192.7z"/>
	<path class="st2" d="M234.6,185.3v29.1h-41.9v-29.1H234.6 M237.6,182.3h-44.9c-1.7,0-3,1.3-3,3v29.1c0,1.7,1.3,3,3,3h44.9V182.3
		L237.6,182.3z"/>
</g>
<g class="st1">
	<path class="st5" d="M202.1,204.5h-1.8v-8.4h-2.4v-1.6h6.7v1.6h-2.4V204.5z"/>
	<path class="st5" d="M206.5,202l-0.9,2.5h-1.9l3.7-10h2.2l3.7,10h-1.9l-0.9-2.5H206.5z M208.6,196.3l-1.5,4h2.9L208.6,196.3z"/>
	<path class="st5" d="M218.9,197.1c-0.6-0.9-0.9-1.2-1.6-1.2c-0.8,0-1.4,0.5-1.4,1.3c0,0.5,0.4,0.9,1.2,1.2l0.9,0.4
		c1.7,0.6,2.5,1.5,2.5,2.8c0,1.8-1.5,3.2-3.4,3.2c-1.3,0-2.5-0.7-3-1.9c-0.1-0.3-0.1-0.3-0.3-1.1l1.7-0.5c0.2,0.8,0.2,0.8,0.3,1
		c0.3,0.5,0.8,0.8,1.4,0.8c0.9,0,1.6-0.7,1.6-1.5c0-0.6-0.4-0.9-1.4-1.3l-0.9-0.3c-1.5-0.6-2.2-1.5-2.2-2.7c0-1.6,1.4-2.9,3.2-2.9
		c0.9,0,1.7,0.3,2.3,0.9c0.3,0.3,0.3,0.4,0.7,1L218.9,197.1z"/>
	<path class="st5" d="M229.9,204.5h-2.1l-3-4.5l-1,1.1v3.4h-1.8v-10h1.8v4.2l3.9-4.2h2.2l-3.9,4.2L229.9,204.5z"/>
</g>
<g class="st1">
	<path class="st2" d="M250.4,203.5V203c-0.7,0.5-1.2,0.7-1.9,0.7c-1.7,0-3.2-1.5-3.2-3.3c0-1.8,1.4-3.3,3.1-3.3
		c0.7,0,1.2,0.2,1.9,0.7v-0.5h1.4v6.2H250.4z M246.7,200.4c0,1.2,0.8,2,1.8,2c1.1,0,1.8-0.8,1.8-2.1c0-1.2-0.8-2-1.8-2
		C247.5,198.4,246.7,199.2,246.7,200.4z"/>
	<path class="st2" d="M254.7,197.3v0.4c0.4-0.4,1-0.6,1.6-0.6c0.9,0,1.8,0.5,2.2,1.2c0.3,0.4,0.4,1,0.4,1.8v3.3h-1.4v-3.2
		c0-0.7-0.1-1-0.2-1.3c-0.2-0.3-0.6-0.5-1.1-0.5c-0.5,0-1,0.2-1.2,0.6c-0.2,0.3-0.2,0.7-0.2,1.4v3.1h-1.4v-6.2H254.7z"/>
	<path class="st2" d="M262.9,198.6h-1v3c0,0.5,0.1,0.8,0.4,0.8c0.2,0,0.3,0,0.7-0.1v1.3c-0.4,0.1-0.6,0.1-0.8,0.1
		c-1,0-1.6-0.7-1.6-2.1v-3h-0.7v-1.3h0.7V196l1.4-0.6v1.9h1V198.6z"/>
	<path class="st2" d="M270,199.7v1.3h-2.9v-1.3H270z"/>
	<path class="st2" d="M273.5,194.2c3.1,0,5.1,1.8,5.1,4.7c0,2.9-1.9,4.7-5.1,4.7h-2.1v-9.3H273.5z M272.9,202.2h0.7
		c2.2,0,3.6-1.3,3.6-3.3c0-2-1.4-3.3-3.6-3.3h-0.7V202.2z"/>
	<path class="st2" d="M281.2,197.8c0.4-0.4,0.9-0.6,1.5-0.6c0.7,0,1.2,0.3,1.8,0.8c0.5-0.6,1.1-0.8,1.9-0.8c1,0,1.8,0.5,2.3,1.3
		c0.3,0.5,0.4,1,0.4,1.8v3.3h-1.4v-3.2c0-0.7-0.1-1.1-0.2-1.4c-0.2-0.3-0.5-0.5-1-0.5c-0.5,0-0.9,0.2-1.1,0.6
		c-0.2,0.3-0.2,0.7-0.2,1.4v3.1h-1.4v-3.2c0-0.7-0.1-1.1-0.2-1.4c-0.2-0.3-0.5-0.5-1-0.5c-0.5,0-0.9,0.2-1.1,0.6
		c-0.2,0.3-0.2,0.7-0.2,1.4v3.1h-1.4v-6.2h1.4V197.8z"/>
	<path class="st2" d="M296.8,200.4c0,1.9-1.4,3.3-3.3,3.3c-1.8,0-3.3-1.4-3.3-3.3c0-1.9,1.4-3.3,3.3-3.3
		C295.4,197.1,296.8,198.6,296.8,200.4z M291.7,200.4c0,1.2,0.8,2,1.8,2c1.1,0,1.8-0.8,1.8-2.1c0-1.2-0.8-2-1.9-2
		C292.4,198.4,291.7,199.2,291.7,200.4z"/>
	<path class="st2" d="M302.6,203.5V203c-0.7,0.5-1.2,0.7-1.9,0.7c-1.7,0-3.2-1.5-3.2-3.3c0-1.8,1.4-3.3,3.1-3.3
		c0.7,0,1.2,0.2,1.9,0.7v-3.7h1.4v9.3H302.6z M299,200.4c0,1.2,0.8,2,1.8,2s1.8-0.8,1.8-2c0-1.2-0.7-2-1.8-2
		C299.8,198.4,299,199.2,299,200.4z"/>
	<path class="st2" d="M309.8,203.5v-0.4c-0.4,0.4-1,0.6-1.6,0.6c-0.9,0-1.8-0.5-2.2-1.2c-0.3-0.4-0.4-1-0.4-1.8v-3.3h1.4v3.2
		c0,0.7,0.1,1,0.2,1.3c0.2,0.3,0.6,0.5,1.1,0.5c0.5,0,1-0.2,1.2-0.6c0.2-0.3,0.2-0.7,0.2-1.4v-3.1h1.4v6.2H309.8z"/>
	<path class="st2" d="M312.7,203.5v-9.3h1.4v9.3H312.7z"/>
	<path class="st2" d="M316.8,201c0.2,1,0.8,1.5,1.7,1.5c0.7,0,1.2-0.3,1.6-0.8c0,0,0-0.1,0.1-0.1c0,0,0-0.1,0.1-0.1l1.2,0.5
		c-0.7,1.2-1.7,1.8-2.9,1.8c-1.8,0-3.2-1.4-3.2-3.3c0-1.8,1.4-3.3,3.1-3.3c1.8,0,3,1.4,3,3.4v0.4H316.8z M320.1,199.9
		c-0.3-1-0.8-1.5-1.6-1.5c-0.9,0-1.5,0.6-1.7,1.5H320.1z"/>
	<path class="st2" d="M328.8,198.7h-6v-1.2h6V198.7z M328.8,200.8h-6v-1.2h6V200.8z"/>
	<path class="st2" d="M331.2,203.5h-1.5l3.5-9.3h1.8l3.5,9.3h-1.5l-0.9-2.4h-4L331.2,203.5z M335.6,199.8l-1.5-4.1l-1.5,4.1H335.6z"
		/>
	<path class="st2" d="M347.1,199.2c-0.6-0.7-1-0.9-1.6-0.9c-1.1,0-1.9,0.8-1.9,2s0.8,2,1.9,2c0.7,0,1.1-0.2,1.7-0.9l0.9,0.9
		c-0.8,0.9-1.6,1.3-2.6,1.3c-1.9,0-3.3-1.4-3.3-3.3c0-1.9,1.4-3.3,3.3-3.3c1,0,1.7,0.4,2.5,1.2L347.1,199.2z"/>
	<path class="st2" d="M355,200.4c0,1.9-1.4,3.3-3.3,3.3c-1.8,0-3.3-1.4-3.3-3.3c0-1.9,1.4-3.3,3.3-3.3
		C353.6,197.1,355,198.6,355,200.4z M349.9,200.4c0,1.2,0.8,2,1.8,2c1.1,0,1.8-0.8,1.8-2.1c0-1.2-0.8-2-1.9-2
		C350.6,198.4,349.9,199.2,349.9,200.4z"/>
	<path class="st2" d="M357.6,197.8c0.4-0.4,0.9-0.6,1.5-0.6c0.7,0,1.2,0.3,1.8,0.8c0.5-0.6,1.1-0.8,1.9-0.8c1,0,1.8,0.5,2.3,1.3
		c0.3,0.5,0.4,1,0.4,1.8v3.3H364v-3.2c0-0.7-0.1-1.1-0.2-1.4c-0.2-0.3-0.5-0.5-1-0.5c-0.5,0-0.9,0.2-1.1,0.6
		c-0.2,0.3-0.2,0.7-0.2,1.4v3.1h-1.4v-3.2c0-0.7-0.1-1.1-0.2-1.4c-0.2-0.3-0.5-0.5-1-0.5c-0.5,0-0.9,0.2-1.1,0.6
		c-0.2,0.3-0.2,0.7-0.2,1.4v3.1h-1.4v-6.2h1.4V197.8z"/>
	<path class="st2" d="M368.4,197.3v0.5c0.7-0.5,1.2-0.7,1.9-0.7c1.7,0,3.2,1.5,3.2,3.3c0,1.8-1.4,3.3-3.1,3.3
		c-0.7,0-1.2-0.2-1.9-0.7v3.8H367v-9.5H368.4z M368.4,200.4c0,1.2,0.7,2,1.8,2c1.1,0,1.8-0.8,1.8-2c0-1.2-0.8-2-1.8-2
		S368.4,199.2,368.4,200.4z"/>
	<path class="st2" d="M376.2,195.2c0,0.5-0.4,0.9-0.9,0.9c-0.5,0-0.9-0.4-0.9-0.9c0-0.5,0.4-0.9,0.9-0.9
		C375.8,194.3,376.2,194.7,376.2,195.2z M376,203.5h-1.4v-6.2h1.4V203.5z"/>
	<path class="st2" d="M377.6,203.5v-9.3h1.4v9.3H377.6z"/>
	<path class="st2" d="M381.6,201c0.2,1,0.8,1.5,1.7,1.5c0.7,0,1.2-0.3,1.6-0.8c0,0,0-0.1,0.1-0.1c0,0,0-0.1,0.1-0.1l1.2,0.5
		c-0.7,1.2-1.7,1.8-2.9,1.8c-1.8,0-3.2-1.4-3.2-3.3c0-1.8,1.4-3.3,3.1-3.3c1.8,0,3,1.4,3,3.4v0.4H381.6z M384.9,199.9
		c-0.3-1-0.8-1.5-1.6-1.5c-0.9,0-1.5,0.6-1.7,1.5H384.9z"/>
</g>
<polygon class="st6" points="242.3,207 229.7,199.7 242.3,192.4 "/>
<path class="st6" d="M389,279.4H194.8c-1.7,0-3-1.3-3-3v-29.1c0-1.7,1.3-3,3-3H389c1.7,0,3,1.3,3,3v29.1
	C392,278,390.7,279.4,389,279.4z"/>
<g>
	<path class="st7" d="M192.7,277.9c-0.9,0-1.5-0.6-1.5-1.5v-29.1c0-0.9,0.6-1.5,1.5-1.5h43.4v32.1H192.7z"/>
	<path class="st2" d="M234.6,247.3v29.1h-41.9v-29.1L234.6,247.3 M237.6,244.3h-44.9c-1.7,0-3,1.3-3,3v29.1c0,1.7,1.3,3,3,3h44.9
		V244.3L237.6,244.3z"/>
</g>
<g class="st1">
	<path class="st5" d="M202.1,266.5h-1.8v-8.4h-2.4v-1.6h6.7v1.6h-2.4V266.5z"/>
	<path class="st5" d="M206.5,264l-0.9,2.5h-1.9l3.7-10h2.2l3.7,10h-1.9l-0.9-2.5H206.5z M208.6,258.3l-1.5,4h2.9L208.6,258.3z"/>
	<path class="st5" d="M218.9,259.1c-0.6-0.9-0.9-1.2-1.6-1.2c-0.8,0-1.4,0.5-1.4,1.3c0,0.5,0.4,0.9,1.2,1.2l0.9,0.4
		c1.7,0.6,2.5,1.5,2.5,2.8c0,1.8-1.5,3.2-3.4,3.2c-1.3,0-2.5-0.7-3-1.9c-0.1-0.3-0.1-0.3-0.3-1.1l1.7-0.5c0.2,0.8,0.2,0.8,0.3,1
		c0.3,0.5,0.8,0.8,1.4,0.8c0.9,0,1.6-0.7,1.6-1.5c0-0.6-0.4-0.9-1.4-1.3l-0.9-0.3c-1.5-0.6-2.2-1.5-2.2-2.7c0-1.6,1.4-2.9,3.2-2.9
		c0.9,0,1.7,0.3,2.3,0.9c0.3,0.3,0.3,0.4,0.7,1L218.9,259.1z"/>
	<path class="st5" d="M229.9,266.5h-2.1l-3-4.5l-1,1.1v3.4h-1.8v-10h1.8v4.2l3.9-4.2h2.2l-3.9,4.2L229.9,266.5z"/>
</g>
<g class="st1">
	<path class="st2" d="M247.1,259.3v0.5c0.5-0.4,0.8-0.5,1.3-0.5c0.2,0,0.3,0,0.5,0v1.2c-0.3,0-0.4,0-0.5,0c-0.5,0-0.9,0.2-1.1,0.6
		c-0.2,0.3-0.2,0.7-0.2,1.4v3h-1.4v-6.2H247.1z"/>
	<path class="st2" d="M254.4,265.5V265c-0.7,0.5-1.2,0.7-1.9,0.7c-1.7,0-3.2-1.5-3.2-3.3c0-1.8,1.4-3.3,3.1-3.3
		c0.7,0,1.2,0.2,1.9,0.7v-0.5h1.4v6.2H254.4z M250.8,262.4c0,1.2,0.8,2,1.8,2c1.1,0,1.8-0.8,1.8-2.1c0-1.2-0.8-2-1.8-2
		C251.5,260.4,250.8,261.2,250.8,262.4z"/>
	<path class="st2" d="M263.3,265.5h-1.7l-2.1-2.7l-0.8,0.7v2h-1.4v-9.3h1.4v5.6l2.5-2.5h1.8l-2.6,2.6L263.3,265.5z"/>
	<path class="st2" d="M264.8,263c0.2,1,0.8,1.5,1.7,1.5c0.7,0,1.2-0.3,1.6-0.8c0,0,0-0.1,0.1-0.1c0,0,0-0.1,0.1-0.1l1.2,0.5
		c-0.7,1.2-1.7,1.8-2.9,1.8c-1.8,0-3.2-1.4-3.2-3.3c0-1.8,1.4-3.3,3.1-3.3c1.8,0,3,1.4,3,3.4v0.4H264.8z M268.1,261.9
		c-0.3-1-0.8-1.5-1.6-1.5c-0.9,0-1.5,0.6-1.7,1.5H268.1z"/>
	<path class="st2" d="M278.5,261.2c-0.6-0.7-1-0.9-1.6-0.9c-1.1,0-1.9,0.8-1.9,2s0.8,2,1.9,2c0.7,0,1.1-0.2,1.7-0.9l0.9,0.9
		c-0.8,0.9-1.6,1.3-2.6,1.3c-1.9,0-3.3-1.4-3.3-3.3c0-1.9,1.4-3.3,3.3-3.3c1,0,1.7,0.4,2.5,1.2L278.5,261.2z"/>
	<path class="st2" d="M281.8,259.3v0.5c0.5-0.4,0.8-0.5,1.3-0.5c0.2,0,0.3,0,0.5,0v1.2c-0.3,0-0.4,0-0.5,0c-0.5,0-0.9,0.2-1.1,0.6
		c-0.2,0.3-0.2,0.7-0.2,1.4v3h-1.4v-6.2H281.8z"/>
	<path class="st2" d="M285.5,263c0.2,1,0.8,1.5,1.7,1.5c0.7,0,1.2-0.3,1.6-0.8c0,0,0-0.1,0.1-0.1c0,0,0-0.1,0.1-0.1l1.2,0.5
		c-0.7,1.2-1.7,1.8-2.9,1.8c-1.8,0-3.2-1.4-3.2-3.3c0-1.8,1.4-3.3,3.1-3.3c1.8,0,3,1.4,3,3.4v0.4H285.5z M288.8,261.9
		c-0.3-1-0.8-1.5-1.6-1.5c-0.9,0-1.5,0.6-1.7,1.5H288.8z"/>
	<path class="st2" d="M296,265.5V265c-0.7,0.5-1.2,0.7-1.9,0.7c-1.7,0-3.2-1.5-3.2-3.3c0-1.8,1.4-3.3,3.1-3.3c0.7,0,1.2,0.2,1.9,0.7
		v-0.5h1.4v6.2H296z M292.4,262.4c0,1.2,0.8,2,1.8,2c1.1,0,1.8-0.8,1.8-2.1c0-1.2-0.8-2-1.8-2C293.2,260.4,292.4,261.2,292.4,262.4z
		"/>
	<path class="st2" d="M301.5,260.6h-1v3c0,0.5,0.1,0.8,0.4,0.8c0.2,0,0.3,0,0.7-0.1v1.3c-0.4,0.1-0.6,0.1-0.8,0.1
		c-1,0-1.6-0.7-1.6-2.1v-3h-0.7v-1.3h0.7V258l1.4-0.6v1.9h1V260.6z"/>
	<path class="st2" d="M303.7,263c0.2,1,0.8,1.5,1.7,1.5c0.7,0,1.2-0.3,1.6-0.8c0,0,0-0.1,0.1-0.1c0,0,0-0.1,0.1-0.1l1.2,0.5
		c-0.7,1.2-1.7,1.8-2.9,1.8c-1.8,0-3.2-1.4-3.2-3.3c0-1.8,1.4-3.3,3.1-3.3c1.8,0,3,1.4,3,3.4v0.4H303.7z M307,261.9
		c-0.3-1-0.8-1.5-1.6-1.5c-0.9,0-1.5,0.6-1.7,1.5H307z"/>
	<path class="st2" d="M316,266.3v1.3h-7.4v-1.3H316z"/>
	<path class="st2" d="M321.4,265.5V265c-0.7,0.5-1.2,0.7-1.9,0.7c-1.7,0-3.2-1.5-3.2-3.3c0-1.8,1.4-3.3,3.1-3.3
		c0.7,0,1.2,0.2,1.9,0.7v-3.7h1.4v9.3H321.4z M317.7,262.4c0,1.2,0.8,2,1.8,2s1.8-0.8,1.8-2c0-1.2-0.7-2-1.8-2
		C318.5,260.4,317.7,261.2,317.7,262.4z"/>
	<path class="st2" d="M330.5,262.4c0,1.9-1.4,3.3-3.3,3.3c-1.8,0-3.3-1.4-3.3-3.3c0-1.9,1.4-3.3,3.3-3.3
		C329,259.1,330.5,260.6,330.5,262.4z M325.4,262.4c0,1.2,0.8,2,1.8,2c1.1,0,1.8-0.8,1.8-2.1c0-1.2-0.8-2-1.9-2
		C326.1,260.4,325.4,261.2,325.4,262.4z"/>
	<path class="st2" d="M336.2,261.2c-0.6-0.7-1-0.9-1.6-0.9c-1.1,0-1.9,0.8-1.9,2s0.8,2,1.9,2c0.7,0,1.1-0.2,1.7-0.9l0.9,0.9
		c-0.8,0.9-1.6,1.3-2.6,1.3c-1.9,0-3.3-1.4-3.3-3.3c0-1.9,1.4-3.3,3.3-3.3c1,0,1.7,0.4,2.5,1.2L336.2,261.2z"/>
	<path class="st2" d="M338.8,263.4c0.4,0.8,0.7,1,1.2,1c0.5,0,0.9-0.3,0.9-0.8c0-0.3-0.2-0.5-0.9-0.7l-0.6-0.3
		c-0.9-0.3-1.4-0.9-1.4-1.7c0-1.1,0.9-1.9,2.1-1.9c0.9,0,1.6,0.4,2.1,1.4l-1.1,0.5c-0.3-0.5-0.6-0.7-1-0.7c-0.5,0-0.8,0.3-0.8,0.6
		c0,0.3,0.1,0.4,0.9,0.7l0.6,0.2c1,0.4,1.5,0.9,1.5,1.7c0,1.2-1,2.1-2.3,2.1c-1.1,0-1.9-0.6-2.3-1.8L338.8,263.4z"/>
</g>
<polygon class="st6" points="242.3,269 229.7,261.7 242.3,254.4 "/>
<path class="st6" d="M389,340.4H194.8c-1.7,0-3-1.3-3-3v-29.1c0-1.7,1.3-3,3-3H389c1.7,0,3,1.3,3,3v29.1
	C392,339,390.7,340.4,389,340.4z"/>
<g>
	<path class="st7" d="M192.7,338.9c-0.9,0-1.5-0.6-1.5-1.5v-29.1c0-0.9,0.6-1.5,1.5-1.5h43.4v32.1H192.7z"/>
	<path class="st2" d="M234.6,308.3v29.1h-41.9v-29.1H234.6 M237.6,305.3h-44.9c-1.7,0-3,1.3-3,3v29.1c0,1.7,1.3,3,3,3h44.9V305.3
		L237.6,305.3z"/>
</g>
<g class="st1">
	<path class="st5" d="M202.1,327.5h-1.8v-8.4h-2.4v-1.6h6.7v1.6h-2.4V327.5z"/>
	<path class="st5" d="M206.5,325l-0.9,2.5h-1.9l3.7-10h2.2l3.7,10h-1.9l-0.9-2.5H206.5z M208.6,319.3l-1.5,4h2.9L208.6,319.3z"/>
	<path class="st5" d="M218.9,320.1c-0.6-0.9-0.9-1.2-1.6-1.2c-0.8,0-1.4,0.5-1.4,1.3c0,0.5,0.4,0.9,1.2,1.2l0.9,0.4
		c1.7,0.6,2.5,1.5,2.5,2.8c0,1.8-1.5,3.2-3.4,3.2c-1.3,0-2.5-0.7-3-1.9c-0.1-0.3-0.1-0.3-0.3-1.1l1.7-0.5c0.2,0.8,0.2,0.8,0.3,1
		c0.3,0.5,0.8,0.8,1.4,0.8c0.9,0,1.6-0.7,1.6-1.5c0-0.6-0.4-0.9-1.4-1.3l-0.9-0.3c-1.5-0.6-2.2-1.5-2.2-2.7c0-1.6,1.4-2.9,3.2-2.9
		c0.9,0,1.7,0.3,2.3,0.9c0.3,0.3,0.3,0.4,0.7,1L218.9,320.1z"/>
	<path class="st5" d="M229.9,327.5h-2.1l-3-4.5l-1,1.1v3.4h-1.8v-10h1.8v4.2l3.9-4.2h2.2l-3.9,4.2L229.9,327.5z"/>
</g>
<g class="st1">
	<path class="st2" d="M250.2,322.2c-0.6-0.7-1-0.9-1.6-0.9c-1.1,0-1.9,0.8-1.9,2s0.8,2,1.9,2c0.7,0,1.1-0.2,1.7-0.9l0.9,0.9
		c-0.8,0.9-1.6,1.3-2.6,1.3c-1.9,0-3.3-1.4-3.3-3.3c0-1.9,1.4-3.3,3.3-3.3c1,0,1.7,0.4,2.5,1.2L250.2,322.2z"/>
	<path class="st2" d="M253.6,320.3v0.5c0.5-0.4,0.8-0.5,1.3-0.5c0.2,0,0.3,0,0.5,0v1.2c-0.3,0-0.4,0-0.5,0c-0.5,0-0.9,0.2-1.1,0.6
		c-0.2,0.3-0.2,0.7-0.2,1.4v3h-1.4v-6.2H253.6z"/>
	<path class="st2" d="M257.3,324c0.2,1,0.8,1.5,1.7,1.5c0.7,0,1.2-0.3,1.6-0.8c0,0,0-0.1,0.1-0.1c0,0,0-0.1,0.1-0.1l1.2,0.5
		c-0.7,1.2-1.7,1.8-2.9,1.8c-1.8,0-3.2-1.4-3.2-3.3c0-1.8,1.4-3.3,3.1-3.3c1.8,0,3,1.4,3,3.4v0.4H257.3z M260.6,322.9
		c-0.3-1-0.8-1.5-1.6-1.5c-0.9,0-1.5,0.6-1.7,1.5H260.6z"/>
	<path class="st2" d="M267.8,326.5V326c-0.7,0.5-1.2,0.7-1.9,0.7c-1.7,0-3.2-1.5-3.2-3.3c0-1.8,1.4-3.3,3.1-3.3
		c0.7,0,1.2,0.2,1.9,0.7v-0.5h1.4v6.2H267.8z M264.2,323.4c0,1.2,0.8,2,1.8,2c1.1,0,1.8-0.8,1.8-2.1c0-1.2-0.8-2-1.8-2
		C264.9,321.4,264.2,322.2,264.2,323.4z"/>
	<path class="st2" d="M273.3,321.6h-1v3c0,0.5,0.1,0.8,0.4,0.8c0.2,0,0.3,0,0.7-0.1v1.3c-0.4,0.1-0.6,0.1-0.8,0.1
		c-1,0-1.6-0.7-1.6-2.1v-3h-0.7v-1.3h0.7V319l1.4-0.6v1.9h1V321.6z"/>
	<path class="st2" d="M275.4,324c0.2,1,0.8,1.5,1.7,1.5c0.7,0,1.2-0.3,1.6-0.8c0,0,0-0.1,0.1-0.1c0,0,0-0.1,0.1-0.1l1.2,0.5
		c-0.7,1.2-1.7,1.8-2.9,1.8c-1.8,0-3.2-1.4-3.2-3.3c0-1.8,1.4-3.3,3.1-3.3c1.8,0,3,1.4,3,3.4v0.4H275.4z M278.7,322.9
		c-0.3-1-0.8-1.5-1.6-1.5c-0.9,0-1.5,0.6-1.7,1.5H278.7z"/>
	<path class="st2" d="M287.8,327.3v1.3h-7.4v-1.3H287.8z"/>
	<path class="st2" d="M289.9,320.3v0.5c0.7-0.5,1.2-0.7,1.9-0.7c1.7,0,3.2,1.5,3.2,3.3c0,1.8-1.4,3.3-3.1,3.3
		c-0.7,0-1.2-0.2-1.9-0.7v3.8h-1.4v-9.5H289.9z M289.9,323.4c0,1.2,0.7,2,1.8,2c1.1,0,1.8-0.8,1.8-2c0-1.2-0.8-2-1.8-2
		S289.9,322.2,289.9,323.4z"/>
	<path class="st2" d="M300.8,326.5V326c-0.7,0.5-1.2,0.7-1.9,0.7c-1.7,0-3.2-1.5-3.2-3.3c0-1.8,1.4-3.3,3.1-3.3
		c0.7,0,1.2,0.2,1.9,0.7v-0.5h1.4v6.2H300.8z M297.1,323.4c0,1.2,0.8,2,1.8,2c1.1,0,1.8-0.8,1.8-2.1c0-1.2-0.8-2-1.8-2
		C297.9,321.4,297.1,322.2,297.1,323.4z"/>
	<path class="st2" d="M308.3,322.2c-0.6-0.7-1-0.9-1.6-0.9c-1.1,0-1.9,0.8-1.9,2s0.8,2,1.9,2c0.7,0,1.1-0.2,1.7-0.9l0.9,0.9
		c-0.8,0.9-1.6,1.3-2.6,1.3c-1.9,0-3.3-1.4-3.3-3.3c0-1.9,1.4-3.3,3.3-3.3c1,0,1.7,0.4,2.5,1.2L308.3,322.2z"/>
	<path class="st2" d="M316.1,326.5h-1.7l-2.1-2.7l-0.8,0.7v2h-1.4v-9.3h1.4v5.6l2.5-2.5h1.8l-2.6,2.6L316.1,326.5z"/>
	<path class="st2" d="M321.1,326.5V326c-0.7,0.5-1.2,0.7-1.9,0.7c-1.7,0-3.2-1.5-3.2-3.3c0-1.8,1.4-3.3,3.1-3.3
		c0.7,0,1.2,0.2,1.9,0.7v-0.5h1.4v6.2H321.1z M317.5,323.4c0,1.2,0.8,2,1.8,2c1.1,0,1.8-0.8,1.8-2.1c0-1.2-0.8-2-1.8-2
		C318.2,321.4,317.5,322.2,317.5,323.4z"/>
	<path class="st2" d="M330.1,326.7c0,2-1.3,3.3-3.3,3.3c-0.9,0-1.8-0.3-2.4-0.9c-0.1-0.1-0.3-0.3-0.6-0.6l0.9-0.9
		c0.1,0.1,0.1,0.1,0.2,0.2c0.7,0.8,1.1,1,1.9,1c1.2,0,1.9-0.8,1.9-2.1V326c-0.5,0.5-1.1,0.7-1.8,0.7c-1.8,0-3.2-1.5-3.2-3.3
		c0-1.8,1.4-3.3,3.2-3.3c0.7,0,1.3,0.2,1.8,0.7v-0.5h1.4V326.7z M325.1,323.4c0,1.2,0.8,2,1.8,2c1.1,0,1.8-0.8,1.8-2.1
		c0-1.2-0.7-2-1.8-2C325.8,321.4,325.1,322.2,325.1,323.4z"/>
	<path class="st2" d="M332.7,324c0.2,1,0.8,1.5,1.7,1.5c0.7,0,1.2-0.3,1.6-0.8c0,0,0-0.1,0.1-0.1c0,0,0-0.1,0.1-0.1l1.2,0.5
		c-0.7,1.2-1.7,1.8-2.9,1.8c-1.8,0-3.2-1.4-3.2-3.3c0-1.8,1.4-3.3,3.1-3.3c1.8,0,3,1.4,3,3.4v0.4H332.7z M336,322.9
		c-0.3-1-0.8-1.5-1.6-1.5c-0.9,0-1.5,0.6-1.7,1.5H336z"/>
	<path class="st2" d="M340.3,325.8c0,0.5-0.4,0.9-0.9,0.9c-0.5,0-0.9-0.4-0.9-0.9c0-0.5,0.4-0.9,0.9-0.9
		C339.9,324.9,340.3,325.3,340.3,325.8z"/>
	<path class="st2" d="M342.6,324.4c0.4,0.8,0.7,1,1.2,1c0.5,0,0.9-0.3,0.9-0.8c0-0.3-0.2-0.5-0.9-0.7l-0.6-0.3
		c-0.9-0.3-1.4-0.9-1.4-1.7c0-1.1,0.9-1.9,2.1-1.9c0.9,0,1.6,0.4,2.1,1.4l-1.1,0.5c-0.3-0.5-0.6-0.7-1-0.7c-0.5,0-0.8,0.3-0.8,0.6
		c0,0.3,0.1,0.4,0.9,0.7l0.6,0.2c1,0.4,1.5,0.9,1.5,1.7c0,1.2-1,2.1-2.3,2.1c-1.1,0-1.9-0.6-2.3-1.8L342.6,324.4z"/>
	<path class="st2" d="M348.6,317.2v3.6c0.5-0.4,1-0.6,1.6-0.6c0.9,0,1.8,0.5,2.2,1.2c0.3,0.4,0.4,1,0.4,1.8v3.3h-1.4v-3.2
		c0-0.7-0.1-1-0.2-1.3c-0.2-0.4-0.6-0.5-1.1-0.5c-0.5,0-1,0.2-1.2,0.6c-0.2,0.3-0.2,0.7-0.2,1.4v3.1h-1.4v-9.3H348.6z"/>
</g>
<polygon class="st6" points="242.3,330 229.7,322.7 242.3,315.4 "/>
<g>
	<g>
		<line class="st8" x1="526.3" y1="225" x2="526.3" y2="234"/>
		<g>
			<polygon class="st2" points="530.7,233 521.2,233 525.9,237.7 			"/>
		</g>
	</g>
</g>
<g>
	<g>
		<line class="st8" x1="526.3" y1="288" x2="526.3" y2="297"/>
		<g>
			<polygon class="st2" points="530.7,296 521.2,296 525.9,300.7 			"/>
		</g>
	</g>
</g>
<g>
	<g>
		<line class="st8" x1="287.3" y1="225" x2="287.3" y2="234"/>
		<g>
			<polygon class="st2" points="291.7,233 282.2,233 286.9,237.7 			"/>
		</g>
	</g>
</g>
<g>
	<g>
		<line class="st8" x1="287.3" y1="288" x2="287.3" y2="297"/>
		<g>
			<polygon class="st2" points="291.7,296 282.2,296 286.9,300.7 			"/>
		</g>
	</g>
</g>
<path class="st5" d="M400.4,609.8H175.7c-1.8,0-3.2-1.5-3.2-3.2V391.3c0-1.8,1.5-3.2,3.2-3.2h224.7c1.8,0,3.2,1.5,3.2,3.2v215.2
	C403.6,608.3,402.1,609.8,400.4,609.8z"/>
<g>
	<g class="st1">
		<path class="st2" d="M273,410c0,1.5-0.2,2.3-0.9,3c-0.6,0.6-1.4,1-2.4,1c-1.1,0-2.1-0.5-3.2-1.6l1.3-1.5c0.8,0.8,1.3,1.1,1.9,1.1
			c0.8,0,1.2-0.6,1.2-2v-8.3h2.1V410z"/>
		<path class="st2" d="M287.4,407.8c0,3.5-2.8,6.3-6.3,6.3c-3.4,0-6.2-2.9-6.2-6.4c0-3.3,2.9-6.2,6.3-6.2
			C284.6,401.5,287.4,404.3,287.4,407.8z M277,407.8c0,2.3,1.9,4.2,4.1,4.2c2.3,0,4.1-1.9,4.1-4.2c0-2.4-1.8-4.3-4.2-4.3
			C278.8,403.5,277,405.4,277,407.8z"/>
		<path class="st2" d="M289.3,401.8h2.8c1.4,0,2.3,0.2,3,0.7c0.8,0.6,1.3,1.6,1.3,2.6c0,0.9-0.3,1.5-1,2.2c1,0.6,1.6,1.7,1.6,2.9
			c0,1.1-0.5,2-1.3,2.7c-0.8,0.6-1.6,0.8-3,0.8h-3.3V401.8z M292.2,406.7c0.8,0,1.2-0.1,1.5-0.4c0.3-0.3,0.5-0.7,0.5-1.2
			c0-0.5-0.2-0.9-0.5-1.2c-0.3-0.2-0.8-0.3-1.5-0.3h-0.9v3H292.2z M292.5,411.8c0.9,0,1.3-0.1,1.7-0.4c0.4-0.3,0.6-0.7,0.6-1.2
			c0-0.6-0.3-1.1-0.7-1.3c-0.4-0.2-0.8-0.3-1.7-0.3h-1v3.3H292.5z"/>
	</g>
</g>
<path class="st6" d="M387.9,465.4H193.7c-1.7,0-3-1.3-3-3v-29.1c0-1.7,1.3-3,3-3h194.2c1.7,0,3,1.3,3,3v29.1
	C391,464,389.7,465.4,387.9,465.4z"/>
<g>
	<path class="st7" d="M191.7,463.9c-0.9,0-1.5-0.6-1.5-1.5v-29.1c0-0.9,0.6-1.5,1.5-1.5h43.4v32.1H191.7z"/>
	<path class="st2" d="M233.6,433.3v29.1h-41.9v-29.1H233.6 M236.6,430.3h-44.9c-1.7,0-3,1.3-3,3v29.1c0,1.7,1.3,3,3,3h44.9V430.3
		L236.6,430.3z"/>
</g>
<g class="st1">
	<path class="st5" d="M201.1,452.5h-1.8v-8.4h-2.4v-1.6h6.7v1.6h-2.4V452.5z"/>
	<path class="st5" d="M205.5,450l-0.9,2.5h-1.9l3.7-10h2.2l3.7,10h-1.9l-0.9-2.5H205.5z M207.6,444.3l-1.5,4h2.9L207.6,444.3z"/>
	<path class="st5" d="M217.9,445.1c-0.6-0.9-0.9-1.2-1.6-1.2c-0.8,0-1.4,0.5-1.4,1.3c0,0.5,0.4,0.9,1.2,1.2l0.9,0.4
		c1.7,0.6,2.5,1.5,2.5,2.8c0,1.8-1.5,3.2-3.4,3.2c-1.3,0-2.5-0.7-3-1.9c-0.1-0.3-0.1-0.3-0.3-1.1l1.7-0.5c0.2,0.8,0.2,0.8,0.3,1
		c0.3,0.5,0.8,0.8,1.4,0.8c0.9,0,1.6-0.7,1.6-1.5c0-0.6-0.4-0.9-1.4-1.3l-0.9-0.3c-1.5-0.6-2.2-1.5-2.2-2.7c0-1.6,1.4-2.9,3.2-2.9
		c0.9,0,1.7,0.3,2.3,0.9c0.3,0.3,0.3,0.4,0.7,1L217.9,445.1z"/>
	<path class="st5" d="M228.9,452.5h-2.1l-3-4.5l-1,1.1v3.4h-1.8v-10h1.8v4.2l3.9-4.2h2.2l-3.9,4.2L228.9,452.5z"/>
</g>
<g class="st1">
	<path class="st2" d="M249.4,451.5V451c-0.7,0.5-1.2,0.7-1.9,0.7c-1.7,0-3.2-1.5-3.2-3.3c0-1.8,1.4-3.3,3.1-3.3
		c0.7,0,1.2,0.2,1.9,0.7v-0.5h1.4v6.2H249.4z M245.7,448.4c0,1.2,0.8,2,1.8,2c1.1,0,1.8-0.8,1.8-2.1c0-1.2-0.8-2-1.8-2
		C246.5,446.4,245.7,447.2,245.7,448.4z"/>
	<path class="st2" d="M253.7,445.3v0.4c0.4-0.4,1-0.6,1.6-0.6c0.9,0,1.8,0.5,2.2,1.2c0.3,0.4,0.4,1,0.4,1.8v3.3h-1.4v-3.2
		c0-0.7-0.1-1-0.2-1.3c-0.2-0.3-0.6-0.5-1.1-0.5c-0.5,0-1,0.2-1.2,0.6c-0.2,0.3-0.2,0.7-0.2,1.4v3.1h-1.4v-6.2H253.7z"/>
	<path class="st2" d="M261.9,446.6h-1v3c0,0.5,0.1,0.8,0.4,0.8c0.2,0,0.3,0,0.7-0.1v1.3c-0.4,0.1-0.6,0.1-0.8,0.1
		c-1,0-1.6-0.7-1.6-2.1v-3h-0.7v-1.3h0.7V444l1.4-0.6v1.9h1V446.6z"/>
	<path class="st2" d="M269,447.7v1.3h-2.9v-1.3H269z"/>
	<path class="st2" d="M272.5,442.2c3.1,0,5.1,1.8,5.1,4.7c0,2.9-1.9,4.7-5.1,4.7h-2.1v-9.3H272.5z M271.9,450.2h0.7
		c2.2,0,3.6-1.3,3.6-3.3c0-2-1.4-3.3-3.6-3.3h-0.7V450.2z"/>
	<path class="st2" d="M280.2,445.8c0.4-0.4,0.9-0.6,1.5-0.6c0.7,0,1.2,0.3,1.8,0.8c0.5-0.6,1.1-0.8,1.9-0.8c1,0,1.8,0.5,2.3,1.3
		c0.3,0.5,0.4,1,0.4,1.8v3.3h-1.4v-3.2c0-0.7-0.1-1.1-0.2-1.4c-0.2-0.3-0.5-0.5-1-0.5c-0.5,0-0.9,0.2-1.1,0.6
		c-0.2,0.3-0.2,0.7-0.2,1.4v3.1h-1.4v-3.2c0-0.7-0.1-1.1-0.2-1.4c-0.2-0.3-0.5-0.5-1-0.5c-0.5,0-0.9,0.2-1.1,0.6
		c-0.2,0.3-0.2,0.7-0.2,1.4v3.1h-1.4v-6.2h1.4V445.8z"/>
	<path class="st2" d="M295.8,448.4c0,1.9-1.4,3.3-3.3,3.3c-1.8,0-3.3-1.4-3.3-3.3c0-1.9,1.4-3.3,3.3-3.3
		C294.4,445.1,295.8,446.6,295.8,448.4z M290.7,448.4c0,1.2,0.8,2,1.8,2c1.1,0,1.8-0.8,1.8-2.1c0-1.2-0.8-2-1.9-2
		C291.4,446.4,290.7,447.2,290.7,448.4z"/>
	<path class="st2" d="M301.6,451.5V451c-0.7,0.5-1.2,0.7-1.9,0.7c-1.7,0-3.2-1.5-3.2-3.3c0-1.8,1.4-3.3,3.1-3.3
		c0.7,0,1.2,0.2,1.9,0.7v-3.7h1.4v9.3H301.6z M298,448.4c0,1.2,0.8,2,1.8,2s1.8-0.8,1.8-2c0-1.2-0.7-2-1.8-2
		C298.8,446.4,298,447.2,298,448.4z"/>
	<path class="st2" d="M308.8,451.5v-0.4c-0.4,0.4-1,0.6-1.6,0.6c-0.9,0-1.8-0.5-2.2-1.2c-0.3-0.4-0.4-1-0.4-1.8v-3.3h1.4v3.2
		c0,0.7,0.1,1,0.2,1.3c0.2,0.3,0.6,0.5,1.1,0.5c0.5,0,1-0.2,1.2-0.6c0.2-0.3,0.2-0.7,0.2-1.4v-3.1h1.4v6.2H308.8z"/>
	<path class="st2" d="M311.7,451.5v-9.3h1.4v9.3H311.7z"/>
	<path class="st2" d="M315.8,449c0.2,1,0.8,1.5,1.7,1.5c0.7,0,1.2-0.3,1.6-0.8c0,0,0-0.1,0.1-0.1c0,0,0-0.1,0.1-0.1l1.2,0.5
		c-0.7,1.2-1.7,1.8-2.9,1.8c-1.8,0-3.2-1.4-3.2-3.3c0-1.8,1.4-3.3,3.1-3.3c1.8,0,3,1.4,3,3.4v0.4H315.8z M319.1,447.9
		c-0.3-1-0.8-1.5-1.6-1.5c-0.9,0-1.5,0.6-1.7,1.5H319.1z"/>
	<path class="st2" d="M327.8,446.7h-6v-1.2h6V446.7z M327.8,448.8h-6v-1.2h6V448.8z"/>
	<path class="st2" d="M330.2,451.5h-1.5l3.5-9.3h1.8l3.5,9.3h-1.5l-0.9-2.4h-4L330.2,451.5z M334.6,447.8l-1.5-4.1l-1.5,4.1H334.6z"
		/>
	<path class="st2" d="M346.1,447.2c-0.6-0.7-1-0.9-1.6-0.9c-1.1,0-1.9,0.8-1.9,2s0.8,2,1.9,2c0.7,0,1.1-0.2,1.7-0.9l0.9,0.9
		c-0.8,0.9-1.6,1.3-2.6,1.3c-1.9,0-3.3-1.4-3.3-3.3c0-1.9,1.4-3.3,3.3-3.3c1,0,1.7,0.4,2.5,1.2L346.1,447.2z"/>
	<path class="st2" d="M354,448.4c0,1.9-1.4,3.3-3.3,3.3c-1.8,0-3.3-1.4-3.3-3.3c0-1.9,1.4-3.3,3.3-3.3
		C352.6,445.1,354,446.6,354,448.4z M348.9,448.4c0,1.2,0.8,2,1.8,2c1.1,0,1.8-0.8,1.8-2.1c0-1.2-0.8-2-1.9-2
		C349.6,446.4,348.9,447.2,348.9,448.4z"/>
	<path class="st2" d="M356.6,445.8c0.4-0.4,0.9-0.6,1.5-0.6c0.7,0,1.2,0.3,1.8,0.8c0.5-0.6,1.1-0.8,1.9-0.8c1,0,1.8,0.5,2.3,1.3
		c0.3,0.5,0.4,1,0.4,1.8v3.3H363v-3.2c0-0.7-0.1-1.1-0.2-1.4c-0.2-0.3-0.5-0.5-1-0.5c-0.5,0-0.9,0.2-1.1,0.6
		c-0.2,0.3-0.2,0.7-0.2,1.4v3.1h-1.4v-3.2c0-0.7-0.1-1.1-0.2-1.4c-0.2-0.3-0.5-0.5-1-0.5c-0.5,0-0.9,0.2-1.1,0.6
		c-0.2,0.3-0.2,0.7-0.2,1.4v3.1h-1.4v-6.2h1.4V445.8z"/>
	<path class="st2" d="M367.4,445.3v0.5c0.7-0.5,1.2-0.7,1.9-0.7c1.7,0,3.2,1.5,3.2,3.3c0,1.8-1.4,3.3-3.1,3.3
		c-0.7,0-1.2-0.2-1.9-0.7v3.8H366v-9.5H367.4z M367.4,448.4c0,1.2,0.7,2,1.8,2c1.1,0,1.8-0.8,1.8-2c0-1.2-0.8-2-1.8-2
		S367.4,447.2,367.4,448.4z"/>
	<path class="st2" d="M375.2,443.2c0,0.5-0.4,0.9-0.9,0.9c-0.5,0-0.9-0.4-0.9-0.9c0-0.5,0.4-0.9,0.9-0.9
		C374.8,442.3,375.2,442.7,375.2,443.2z M375,451.5h-1.4v-6.2h1.4V451.5z"/>
	<path class="st2" d="M376.6,451.5v-9.3h1.4v9.3H376.6z"/>
	<path class="st2" d="M380.6,449c0.2,1,0.8,1.5,1.7,1.5c0.7,0,1.2-0.3,1.6-0.8c0,0,0-0.1,0.1-0.1c0,0,0-0.1,0.1-0.1l1.2,0.5
		c-0.7,1.2-1.7,1.8-2.9,1.8c-1.8,0-3.2-1.4-3.2-3.3c0-1.8,1.4-3.3,3.1-3.3c1.8,0,3,1.4,3,3.4v0.4H380.6z M383.9,447.9
		c-0.3-1-0.8-1.5-1.6-1.5c-0.9,0-1.5,0.6-1.7,1.5H383.9z"/>
</g>
<polygon class="st6" points="241.3,455 228.7,447.7 241.3,440.4 "/>
<path class="st6" d="M387.9,526.4H193.7c-1.7,0-3-1.3-3-3v-29.1c0-1.7,1.3-3,3-3h194.2c1.7,0,3,1.3,3,3v29.1
	C391,525,389.7,526.4,387.9,526.4z"/>
<g>
	<path class="st7" d="M191.7,524.9c-0.9,0-1.5-0.6-1.5-1.5v-29.1c0-0.9,0.6-1.5,1.5-1.5h43.4v32.1H191.7z"/>
	<path class="st2" d="M233.6,494.3v29.1h-41.9v-29.1L233.6,494.3 M236.6,491.3h-44.9c-1.7,0-3,1.3-3,3v29.1c0,1.7,1.3,3,3,3h44.9
		V491.3L236.6,491.3z"/>
</g>
<g class="st1">
	<path class="st5" d="M201.1,513.5h-1.8v-8.4h-2.4v-1.6h6.7v1.6h-2.4V513.5z"/>
	<path class="st5" d="M205.5,511l-0.9,2.5h-1.9l3.7-10h2.2l3.7,10h-1.9l-0.9-2.5H205.5z M207.6,505.3l-1.5,4h2.9L207.6,505.3z"/>
	<path class="st5" d="M217.9,506.1c-0.6-0.9-0.9-1.2-1.6-1.2c-0.8,0-1.4,0.5-1.4,1.3c0,0.5,0.4,0.9,1.2,1.2l0.9,0.4
		c1.7,0.6,2.5,1.5,2.5,2.8c0,1.8-1.5,3.2-3.4,3.2c-1.3,0-2.5-0.7-3-1.9c-0.1-0.3-0.1-0.3-0.3-1.1l1.7-0.5c0.2,0.8,0.2,0.8,0.3,1
		c0.3,0.5,0.8,0.8,1.4,0.8c0.9,0,1.6-0.7,1.6-1.5c0-0.6-0.4-0.9-1.4-1.3l-0.9-0.3c-1.5-0.6-2.2-1.5-2.2-2.7c0-1.6,1.4-2.9,3.2-2.9
		c0.9,0,1.7,0.3,2.3,0.9c0.3,0.3,0.3,0.4,0.7,1L217.9,506.1z"/>
	<path class="st5" d="M228.9,513.5h-2.1l-3-4.5l-1,1.1v3.4h-1.8v-10h1.8v4.2l3.9-4.2h2.2l-3.9,4.2L228.9,513.5z"/>
</g>
<g class="st1">
	<path class="st2" d="M246.1,506.3v0.5c0.5-0.4,0.8-0.5,1.3-0.5c0.2,0,0.3,0,0.5,0v1.2c-0.3,0-0.4,0-0.5,0c-0.5,0-0.9,0.2-1.1,0.6
		c-0.2,0.3-0.2,0.7-0.2,1.4v3h-1.4v-6.2H246.1z"/>
	<path class="st2" d="M253.4,512.5V512c-0.7,0.5-1.2,0.7-1.9,0.7c-1.7,0-3.2-1.5-3.2-3.3c0-1.8,1.4-3.3,3.1-3.3
		c0.7,0,1.2,0.2,1.9,0.7v-0.5h1.4v6.2H253.4z M249.8,509.4c0,1.2,0.8,2,1.8,2c1.1,0,1.8-0.8,1.8-2.1c0-1.2-0.8-2-1.8-2
		C250.5,507.4,249.8,508.2,249.8,509.4z"/>
	<path class="st2" d="M262.3,512.5h-1.7l-2.1-2.7l-0.8,0.7v2h-1.4v-9.3h1.4v5.6l2.5-2.5h1.8l-2.6,2.6L262.3,512.5z"/>
	<path class="st2" d="M263.8,510c0.2,1,0.8,1.5,1.7,1.5c0.7,0,1.2-0.3,1.6-0.8c0,0,0-0.1,0.1-0.1c0,0,0-0.1,0.1-0.1l1.2,0.5
		c-0.7,1.2-1.7,1.8-2.9,1.8c-1.8,0-3.2-1.4-3.2-3.3c0-1.8,1.4-3.3,3.1-3.3c1.8,0,3,1.4,3,3.4v0.4H263.8z M267.1,508.9
		c-0.3-1-0.8-1.5-1.6-1.5c-0.9,0-1.5,0.6-1.7,1.5H267.1z"/>
	<path class="st2" d="M277.5,508.2c-0.6-0.7-1-0.9-1.6-0.9c-1.1,0-1.9,0.8-1.9,2s0.8,2,1.9,2c0.7,0,1.1-0.2,1.7-0.9l0.9,0.9
		c-0.8,0.9-1.6,1.3-2.6,1.3c-1.9,0-3.3-1.4-3.3-3.3c0-1.9,1.4-3.3,3.3-3.3c1,0,1.7,0.4,2.5,1.2L277.5,508.2z"/>
	<path class="st2" d="M280.8,506.3v0.5c0.5-0.4,0.8-0.5,1.3-0.5c0.2,0,0.3,0,0.5,0v1.2c-0.3,0-0.4,0-0.5,0c-0.5,0-0.9,0.2-1.1,0.6
		c-0.2,0.3-0.2,0.7-0.2,1.4v3h-1.4v-6.2H280.8z"/>
	<path class="st2" d="M284.5,510c0.2,1,0.8,1.5,1.7,1.5c0.7,0,1.2-0.3,1.6-0.8c0,0,0-0.1,0.1-0.1c0,0,0-0.1,0.1-0.1l1.2,0.5
		c-0.7,1.2-1.7,1.8-2.9,1.8c-1.8,0-3.2-1.4-3.2-3.3c0-1.8,1.4-3.3,3.1-3.3c1.8,0,3,1.4,3,3.4v0.4H284.5z M287.8,508.9
		c-0.3-1-0.8-1.5-1.6-1.5c-0.9,0-1.5,0.6-1.7,1.5H287.8z"/>
	<path class="st2" d="M295,512.5V512c-0.7,0.5-1.2,0.7-1.9,0.7c-1.7,0-3.2-1.5-3.2-3.3c0-1.8,1.4-3.3,3.1-3.3c0.7,0,1.2,0.2,1.9,0.7
		v-0.5h1.4v6.2H295z M291.4,509.4c0,1.2,0.8,2,1.8,2c1.1,0,1.8-0.8,1.8-2.1c0-1.2-0.8-2-1.8-2C292.2,507.4,291.4,508.2,291.4,509.4z
		"/>
	<path class="st2" d="M300.5,507.6h-1v3c0,0.5,0.1,0.8,0.4,0.8c0.2,0,0.3,0,0.7-0.1v1.3c-0.4,0.1-0.6,0.1-0.8,0.1
		c-1,0-1.6-0.7-1.6-2.1v-3h-0.7v-1.3h0.7V505l1.4-0.6v1.9h1V507.6z"/>
	<path class="st2" d="M302.7,510c0.2,1,0.8,1.5,1.7,1.5c0.7,0,1.2-0.3,1.6-0.8c0,0,0-0.1,0.1-0.1c0,0,0-0.1,0.1-0.1l1.2,0.5
		c-0.7,1.2-1.7,1.8-2.9,1.8c-1.8,0-3.2-1.4-3.2-3.3c0-1.8,1.4-3.3,3.1-3.3c1.8,0,3,1.4,3,3.4v0.4H302.7z M306,508.9
		c-0.3-1-0.8-1.5-1.6-1.5c-0.9,0-1.5,0.6-1.7,1.5H306z"/>
	<path class="st2" d="M315,513.3v1.3h-7.4v-1.3H315z"/>
	<path class="st2" d="M320.4,512.5V512c-0.7,0.5-1.2,0.7-1.9,0.7c-1.7,0-3.2-1.5-3.2-3.3c0-1.8,1.4-3.3,3.1-3.3
		c0.7,0,1.2,0.2,1.9,0.7v-3.7h1.4v9.3H320.4z M316.7,509.4c0,1.2,0.8,2,1.8,2s1.8-0.8,1.8-2c0-1.2-0.7-2-1.8-2
		C317.5,507.4,316.7,508.2,316.7,509.4z"/>
	<path class="st2" d="M329.5,509.4c0,1.9-1.4,3.3-3.3,3.3c-1.8,0-3.3-1.4-3.3-3.3c0-1.9,1.4-3.3,3.3-3.3
		C328,506.1,329.5,507.6,329.5,509.4z M324.4,509.4c0,1.2,0.8,2,1.8,2c1.1,0,1.8-0.8,1.8-2.1c0-1.2-0.8-2-1.9-2
		C325.1,507.4,324.4,508.2,324.4,509.4z"/>
	<path class="st2" d="M335.2,508.2c-0.6-0.7-1-0.9-1.6-0.9c-1.1,0-1.9,0.8-1.9,2s0.8,2,1.9,2c0.7,0,1.1-0.2,1.7-0.9l0.9,0.9
		c-0.8,0.9-1.6,1.3-2.6,1.3c-1.9,0-3.3-1.4-3.3-3.3c0-1.9,1.4-3.3,3.3-3.3c1,0,1.7,0.4,2.5,1.2L335.2,508.2z"/>
	<path class="st2" d="M337.8,510.4c0.4,0.8,0.7,1,1.2,1c0.5,0,0.9-0.3,0.9-0.8c0-0.3-0.2-0.5-0.9-0.7l-0.6-0.3
		c-0.9-0.3-1.4-0.9-1.4-1.7c0-1.1,0.9-1.9,2.1-1.9c0.9,0,1.6,0.4,2.1,1.4l-1.1,0.5c-0.3-0.5-0.6-0.7-1-0.7c-0.5,0-0.8,0.3-0.8,0.6
		c0,0.3,0.1,0.4,0.9,0.7l0.6,0.2c1,0.4,1.5,0.9,1.5,1.7c0,1.2-1,2.1-2.3,2.1c-1.1,0-1.9-0.6-2.3-1.8L337.8,510.4z"/>
</g>
<polygon class="st6" points="241.3,516 228.7,508.7 241.3,501.4 "/>
<path class="st6" d="M387.9,587.4H193.7c-1.7,0-3-1.3-3-3v-29.1c0-1.7,1.3-3,3-3h194.2c1.7,0,3,1.3,3,3v29.1
	C391,586,389.7,587.4,387.9,587.4z"/>
<g>
	<path class="st7" d="M191.7,585.9c-0.9,0-1.5-0.6-1.5-1.5v-29.1c0-0.9,0.6-1.5,1.5-1.5h43.4v32.1H191.7z"/>
	<path class="st2" d="M233.6,555.3v29.1h-41.9v-29.1H233.6 M236.6,552.3h-44.9c-1.7,0-3,1.3-3,3v29.1c0,1.7,1.3,3,3,3h44.9V552.3
		L236.6,552.3z"/>
</g>
<g class="st1">
	<path class="st5" d="M201.1,574.5h-1.8v-8.4h-2.4v-1.6h6.7v1.6h-2.4V574.5z"/>
	<path class="st5" d="M205.5,572l-0.9,2.5h-1.9l3.7-10h2.2l3.7,10h-1.9l-0.9-2.5H205.5z M207.6,566.3l-1.5,4h2.9L207.6,566.3z"/>
	<path class="st5" d="M217.9,567.1c-0.6-0.9-0.9-1.2-1.6-1.2c-0.8,0-1.4,0.5-1.4,1.3c0,0.5,0.4,0.9,1.2,1.2l0.9,0.4
		c1.7,0.6,2.5,1.5,2.5,2.8c0,1.8-1.5,3.2-3.4,3.2c-1.3,0-2.5-0.7-3-1.9c-0.1-0.3-0.1-0.3-0.3-1.1l1.7-0.5c0.2,0.8,0.2,0.8,0.3,1
		c0.3,0.5,0.8,0.8,1.4,0.8c0.9,0,1.6-0.7,1.6-1.5c0-0.6-0.4-0.9-1.4-1.3l-0.9-0.3c-1.5-0.6-2.2-1.5-2.2-2.7c0-1.6,1.4-2.9,3.2-2.9
		c0.9,0,1.7,0.3,2.3,0.9c0.3,0.3,0.3,0.4,0.7,1L217.9,567.1z"/>
	<path class="st5" d="M228.9,574.5h-2.1l-3-4.5l-1,1.1v3.4h-1.8v-10h1.8v4.2l3.9-4.2h2.2l-3.9,4.2L228.9,574.5z"/>
</g>
<g class="st1">
	<path class="st2" d="M249.2,569.2c-0.6-0.7-1-0.9-1.6-0.9c-1.1,0-1.9,0.8-1.9,2s0.8,2,1.9,2c0.7,0,1.1-0.2,1.7-0.9l0.9,0.9
		c-0.8,0.9-1.6,1.3-2.6,1.3c-1.9,0-3.3-1.4-3.3-3.3c0-1.9,1.4-3.3,3.3-3.3c1,0,1.7,0.4,2.5,1.2L249.2,569.2z"/>
	<path class="st2" d="M252.6,567.3v0.5c0.5-0.4,0.8-0.5,1.3-0.5c0.2,0,0.3,0,0.5,0v1.2c-0.3,0-0.4,0-0.5,0c-0.5,0-0.9,0.2-1.1,0.6
		c-0.2,0.3-0.2,0.7-0.2,1.4v3h-1.4v-6.2H252.6z"/>
	<path class="st2" d="M256.3,571c0.2,1,0.8,1.5,1.7,1.5c0.7,0,1.2-0.3,1.6-0.8c0,0,0-0.1,0.1-0.1c0,0,0-0.1,0.1-0.1l1.2,0.5
		c-0.7,1.2-1.7,1.8-2.9,1.8c-1.8,0-3.2-1.4-3.2-3.3c0-1.8,1.4-3.3,3.1-3.3c1.8,0,3,1.4,3,3.4v0.4H256.3z M259.6,569.9
		c-0.3-1-0.8-1.5-1.6-1.5c-0.9,0-1.5,0.6-1.7,1.5H259.6z"/>
	<path class="st2" d="M266.8,573.5V573c-0.7,0.5-1.2,0.7-1.9,0.7c-1.7,0-3.2-1.5-3.2-3.3c0-1.8,1.4-3.3,3.1-3.3
		c0.7,0,1.2,0.2,1.9,0.7v-0.5h1.4v6.2H266.8z M263.2,570.4c0,1.2,0.8,2,1.8,2c1.1,0,1.8-0.8,1.8-2.1c0-1.2-0.8-2-1.8-2
		C263.9,568.4,263.2,569.2,263.2,570.4z"/>
	<path class="st2" d="M272.3,568.6h-1v3c0,0.5,0.1,0.8,0.4,0.8c0.2,0,0.3,0,0.7-0.1v1.3c-0.4,0.1-0.6,0.1-0.8,0.1
		c-1,0-1.6-0.7-1.6-2.1v-3h-0.7v-1.3h0.7V566l1.4-0.6v1.9h1V568.6z"/>
	<path class="st2" d="M274.4,571c0.2,1,0.8,1.5,1.7,1.5c0.7,0,1.2-0.3,1.6-0.8c0,0,0-0.1,0.1-0.1c0,0,0-0.1,0.1-0.1l1.2,0.5
		c-0.7,1.2-1.7,1.8-2.9,1.8c-1.8,0-3.2-1.4-3.2-3.3c0-1.8,1.4-3.3,3.1-3.3c1.8,0,3,1.4,3,3.4v0.4H274.4z M277.7,569.9
		c-0.3-1-0.8-1.5-1.6-1.5c-0.9,0-1.5,0.6-1.7,1.5H277.7z"/>
	<path class="st2" d="M286.8,574.3v1.3h-7.4v-1.3H286.8z"/>
	<path class="st2" d="M288.9,567.3v0.5c0.7-0.5,1.2-0.7,1.9-0.7c1.7,0,3.2,1.5,3.2,3.3c0,1.8-1.4,3.3-3.1,3.3
		c-0.7,0-1.2-0.2-1.9-0.7v3.8h-1.4v-9.5H288.9z M288.9,570.4c0,1.2,0.7,2,1.8,2c1.1,0,1.8-0.8,1.8-2c0-1.2-0.8-2-1.8-2
		S288.9,569.2,288.9,570.4z"/>
	<path class="st2" d="M299.8,573.5V573c-0.7,0.5-1.2,0.7-1.9,0.7c-1.7,0-3.2-1.5-3.2-3.3c0-1.8,1.4-3.3,3.1-3.3
		c0.7,0,1.2,0.2,1.9,0.7v-0.5h1.4v6.2H299.8z M296.1,570.4c0,1.2,0.8,2,1.8,2c1.1,0,1.8-0.8,1.8-2.1c0-1.2-0.8-2-1.8-2
		C296.9,568.4,296.1,569.2,296.1,570.4z"/>
	<path class="st2" d="M307.3,569.2c-0.6-0.7-1-0.9-1.6-0.9c-1.1,0-1.9,0.8-1.9,2s0.8,2,1.9,2c0.7,0,1.1-0.2,1.7-0.9l0.9,0.9
		c-0.8,0.9-1.6,1.3-2.6,1.3c-1.9,0-3.3-1.4-3.3-3.3c0-1.9,1.4-3.3,3.3-3.3c1,0,1.7,0.4,2.5,1.2L307.3,569.2z"/>
	<path class="st2" d="M315.1,573.5h-1.7l-2.1-2.7l-0.8,0.7v2h-1.4v-9.3h1.4v5.6l2.5-2.5h1.8l-2.6,2.6L315.1,573.5z"/>
	<path class="st2" d="M320.1,573.5V573c-0.7,0.5-1.2,0.7-1.9,0.7c-1.7,0-3.2-1.5-3.2-3.3c0-1.8,1.4-3.3,3.1-3.3
		c0.7,0,1.2,0.2,1.9,0.7v-0.5h1.4v6.2H320.1z M316.5,570.4c0,1.2,0.8,2,1.8,2c1.1,0,1.8-0.8,1.8-2.1c0-1.2-0.8-2-1.8-2
		C317.2,568.4,316.5,569.2,316.5,570.4z"/>
	<path class="st2" d="M329.1,573.7c0,2-1.3,3.3-3.3,3.3c-0.9,0-1.8-0.3-2.4-0.9c-0.1-0.1-0.3-0.3-0.6-0.6l0.9-0.9
		c0.1,0.1,0.1,0.1,0.2,0.2c0.7,0.8,1.1,1,1.9,1c1.2,0,1.9-0.8,1.9-2.1V573c-0.5,0.5-1.1,0.7-1.8,0.7c-1.8,0-3.2-1.5-3.2-3.3
		c0-1.8,1.4-3.3,3.2-3.3c0.7,0,1.3,0.2,1.8,0.7v-0.5h1.4V573.7z M324.1,570.4c0,1.2,0.8,2,1.8,2c1.1,0,1.8-0.8,1.8-2.1
		c0-1.2-0.7-2-1.8-2C324.8,568.4,324.1,569.2,324.1,570.4z"/>
	<path class="st2" d="M331.7,571c0.2,1,0.8,1.5,1.7,1.5c0.7,0,1.2-0.3,1.6-0.8c0,0,0-0.1,0.1-0.1c0,0,0-0.1,0.1-0.1l1.2,0.5
		c-0.7,1.2-1.7,1.8-2.9,1.8c-1.8,0-3.2-1.4-3.2-3.3c0-1.8,1.4-3.3,3.1-3.3c1.8,0,3,1.4,3,3.4v0.4H331.7z M335,569.9
		c-0.3-1-0.8-1.5-1.6-1.5c-0.9,0-1.5,0.6-1.7,1.5H335z"/>
	<path class="st2" d="M339.3,572.8c0,0.5-0.4,0.9-0.9,0.9c-0.5,0-0.9-0.4-0.9-0.9c0-0.5,0.4-0.9,0.9-0.9
		C338.9,571.9,339.3,572.3,339.3,572.8z"/>
	<path class="st2" d="M341.6,571.4c0.4,0.8,0.7,1,1.2,1c0.5,0,0.9-0.3,0.9-0.8c0-0.3-0.2-0.5-0.9-0.7l-0.6-0.3
		c-0.9-0.3-1.4-0.9-1.4-1.7c0-1.1,0.9-1.9,2.1-1.9c0.9,0,1.6,0.4,2.1,1.4l-1.1,0.5c-0.3-0.5-0.6-0.7-1-0.7c-0.5,0-0.8,0.3-0.8,0.6
		c0,0.3,0.1,0.4,0.9,0.7l0.6,0.2c1,0.4,1.5,0.9,1.5,1.7c0,1.2-1,2.1-2.3,2.1c-1.1,0-1.9-0.6-2.3-1.8L341.6,571.4z"/>
	<path class="st2" d="M347.6,564.2v3.6c0.5-0.4,1-0.6,1.6-0.6c0.9,0,1.8,0.5,2.2,1.2c0.3,0.4,0.4,1,0.4,1.8v3.3h-1.4v-3.2
		c0-0.7-0.1-1-0.2-1.3c-0.2-0.4-0.6-0.5-1.1-0.5c-0.5,0-1,0.2-1.2,0.6c-0.2,0.3-0.2,0.7-0.2,1.4v3.1h-1.4v-9.3H347.6z"/>
</g>
<polygon class="st6" points="241.3,577 228.7,569.7 241.3,562.4 "/>
<g>
	<g>
		<line class="st8" x1="291.3" y1="472" x2="291.3" y2="481"/>
		<g>
			<polygon class="st2" points="295.7,480 286.2,480 290.9,484.7 			"/>
		</g>
	</g>
</g>
<g>
	<g>
		<line class="st8" x1="291.3" y1="535" x2="291.3" y2="544"/>
		<g>
			<polygon class="st2" points="295.7,543 286.2,543 290.9,547.7 			"/>
		</g>
	</g>
</g>
<g class="st1">
	<path class="st4" d="M569.3,113.9c0,1.1-0.4,1.9-1.2,2.5c-0.8,0.6-1.9,0.9-3.2,0.9c-1.4,0-2.5-0.2-3.4-0.6v-1.9
		c0.6,0.3,1.1,0.5,1.8,0.6c0.6,0.1,1.2,0.2,1.7,0.2c0.8,0,1.4-0.1,1.7-0.4c0.4-0.3,0.6-0.7,0.6-1.2c0-0.5-0.2-0.8-0.5-1.2
		c-0.3-0.3-1.1-0.7-2.1-1.1c-1.1-0.4-1.9-1-2.3-1.5c-0.5-0.6-0.7-1.3-0.7-2.1c0-1,0.4-1.8,1.1-2.4c0.7-0.6,1.7-0.9,2.9-0.9
		c1.2,0,2.3,0.3,3.5,0.8l-0.6,1.6c-1.1-0.5-2-0.7-2.9-0.7c-0.6,0-1.1,0.1-1.5,0.4s-0.5,0.6-0.5,1.1c0,0.3,0.1,0.6,0.2,0.8
		c0.1,0.2,0.4,0.4,0.7,0.6c0.3,0.2,0.9,0.5,1.6,0.8c0.9,0.4,1.5,0.7,2,1s0.7,0.7,0.9,1.1C569.2,112.8,569.3,113.3,569.3,113.9z"/>
	<path class="st4" d="M574.9,115.7c0.5,0,1-0.1,1.4-0.2v1.5c-0.2,0.1-0.5,0.2-0.8,0.2c-0.3,0.1-0.7,0.1-1.1,0.1
		c-1.8,0-2.8-1-2.8-2.9v-4.9h-1.3v-0.9l1.3-0.7l0.7-1.9h1.2v2h2.6v1.5h-2.6v4.9c0,0.5,0.1,0.8,0.4,1
		C574.2,115.6,574.5,115.7,574.9,115.7z"/>
	<path class="st4" d="M583.9,117.1l-0.4-1.3h-0.1c-0.4,0.6-0.9,0.9-1.3,1.1s-1,0.3-1.7,0.3c-0.9,0-1.6-0.2-2.1-0.7
		c-0.5-0.5-0.8-1.2-0.8-2.1c0-0.9,0.4-1.7,1.1-2.1c0.7-0.5,1.8-0.7,3.2-0.8l1.6,0V111c0-0.6-0.1-1-0.4-1.3c-0.3-0.3-0.7-0.4-1.3-0.4
		c-0.5,0-0.9,0.1-1.4,0.2c-0.4,0.1-0.8,0.3-1.2,0.5l-0.6-1.4c0.5-0.3,1-0.5,1.6-0.6c0.6-0.1,1.2-0.2,1.7-0.2c1.2,0,2,0.3,2.6,0.8
		s0.9,1.3,0.9,2.4v6.2H583.9z M581,115.8c0.7,0,1.3-0.2,1.7-0.6c0.4-0.4,0.6-1,0.6-1.7v-0.8l-1.2,0c-0.9,0-1.6,0.2-2,0.5
		c-0.4,0.3-0.6,0.7-0.6,1.3c0,0.4,0.1,0.7,0.4,1C580.1,115.7,580.5,115.8,581,115.8z"/>
	<path class="st4" d="M595.7,108v1.1l-1.6,0.3c0.1,0.2,0.3,0.4,0.4,0.7c0.1,0.3,0.1,0.6,0.1,0.9c0,0.9-0.3,1.7-1,2.2
		c-0.7,0.5-1.6,0.8-2.7,0.8c-0.3,0-0.6,0-0.8-0.1c-0.4,0.3-0.6,0.6-0.6,0.9c0,0.2,0.1,0.4,0.3,0.5c0.2,0.1,0.6,0.2,1.1,0.2h1.6
		c1,0,1.8,0.2,2.3,0.6c0.5,0.4,0.8,1.1,0.8,1.9c0,1-0.4,1.8-1.3,2.4c-0.9,0.6-2.1,0.8-3.7,0.8c-1.2,0-2.2-0.2-2.9-0.7
		c-0.7-0.4-1-1.1-1-1.9c0-0.6,0.2-1,0.5-1.4c0.4-0.4,0.9-0.7,1.5-0.8c-0.3-0.1-0.5-0.3-0.6-0.5s-0.3-0.5-0.3-0.8
		c0-0.3,0.1-0.6,0.3-0.9c0.2-0.2,0.5-0.5,0.9-0.7c-0.5-0.2-0.9-0.5-1.2-1c-0.3-0.5-0.4-1-0.4-1.6c0-1,0.3-1.8,0.9-2.3
		c0.6-0.5,1.5-0.8,2.7-0.8c0.3,0,0.5,0,0.8,0.1c0.3,0,0.5,0.1,0.6,0.1H595.7z M588.5,118.6c0,0.4,0.2,0.7,0.6,1
		c0.4,0.2,0.9,0.3,1.6,0.3c1.1,0,1.9-0.2,2.4-0.5c0.5-0.3,0.8-0.7,0.8-1.2c0-0.4-0.1-0.7-0.4-0.9s-0.8-0.3-1.6-0.3h-1.5
		c-0.6,0-1,0.1-1.3,0.4S588.5,118.1,588.5,118.6z M589.4,110.9c0,0.6,0.1,1,0.4,1.3c0.3,0.3,0.7,0.5,1.3,0.5c1.1,0,1.7-0.6,1.7-1.8
		c0-0.6-0.1-1.1-0.4-1.4c-0.3-0.3-0.7-0.5-1.3-0.5c-0.6,0-1,0.2-1.3,0.5C589.5,109.9,589.4,110.3,589.4,110.9z"/>
	<path class="st4" d="M601.5,117.3c-1.4,0-2.5-0.4-3.3-1.2c-0.8-0.8-1.2-2-1.2-3.4c0-1.5,0.4-2.7,1.1-3.5c0.7-0.9,1.8-1.3,3.1-1.3
		c1.2,0,2.2,0.4,2.9,1.1c0.7,0.7,1.1,1.7,1.1,3v1.1h-6.1c0,0.9,0.3,1.6,0.7,2.1c0.5,0.5,1.1,0.7,1.9,0.7c0.5,0,1-0.1,1.5-0.2
		c0.5-0.1,1-0.3,1.5-0.5v1.6c-0.5,0.2-1,0.4-1.4,0.5C602.6,117.3,602.1,117.3,601.5,117.3z M601.1,109.3c-0.6,0-1.1,0.2-1.5,0.6
		c-0.4,0.4-0.6,1-0.7,1.7h4.2c0-0.8-0.2-1.3-0.5-1.7C602.2,109.5,601.7,109.3,601.1,109.3z"/>
	<path class="st4" d="M619.2,117.1H611v-1.5l3.1-3.1c0.9-0.9,1.5-1.6,1.8-2c0.3-0.4,0.5-0.8,0.7-1.1c0.1-0.3,0.2-0.7,0.2-1.1
		c0-0.5-0.2-1-0.5-1.3c-0.3-0.3-0.8-0.5-1.4-0.5c-0.5,0-0.9,0.1-1.3,0.3c-0.4,0.2-0.9,0.5-1.5,0.9l-1.1-1.3c0.7-0.6,1.3-1,2-1.2
		c0.6-0.2,1.3-0.4,2-0.4c1.1,0,2,0.3,2.7,0.9c0.7,0.6,1,1.4,1,2.4c0,0.5-0.1,1.1-0.3,1.6c-0.2,0.5-0.5,1-0.9,1.5
		c-0.4,0.5-1.1,1.2-2,2.1l-2.1,2v0.1h5.8V117.1z"/>
</g>
<path class="st3" d="M732.3,574.5H469.6c-2.6,0-4.7-1.6-4.7-3.5V88.6c0-1.9,2.1-3.5,4.7-3.5h262.7c2.6,0,4.7,1.6,4.7,3.5V571
	C736.9,572.9,734.8,574.5,732.3,574.5z"/>
<path class="st5" d="M714.4,548.8H489.7c-1.8,0-3.2-1.5-3.2-3.2V330.3c0-1.8,1.5-3.2,3.2-3.2h224.7c1.8,0,3.2,1.5,3.2,3.2v215.2
	C717.6,547.3,716.1,548.8,714.4,548.8z"/>
<g>
	<g class="st1">
		<path class="st2" d="M585,349c0,1.5-0.2,2.3-0.9,3c-0.6,0.6-1.4,1-2.4,1c-1.1,0-2.1-0.5-3.2-1.6l1.3-1.5c0.8,0.8,1.3,1.1,1.9,1.1
			c0.8,0,1.2-0.6,1.2-2v-8.3h2.1V349z"/>
		<path class="st2" d="M599.4,346.8c0,3.5-2.8,6.3-6.3,6.3c-3.4,0-6.2-2.9-6.2-6.4c0-3.3,2.9-6.2,6.3-6.2
			C596.6,340.5,599.4,343.3,599.4,346.8z M589,346.8c0,2.3,1.9,4.2,4.1,4.2c2.3,0,4.1-1.9,4.1-4.2c0-2.4-1.8-4.3-4.2-4.3
			C590.8,342.5,589,344.4,589,346.8z"/>
		<path class="st2" d="M601.3,340.8h2.8c1.4,0,2.3,0.2,3,0.7c0.8,0.6,1.3,1.6,1.3,2.6c0,0.9-0.3,1.5-1,2.2c1,0.6,1.6,1.7,1.6,2.9
			c0,1.1-0.5,2-1.3,2.7c-0.8,0.6-1.6,0.8-3,0.8h-3.3V340.8z M604.2,345.7c0.8,0,1.2-0.1,1.5-0.4c0.3-0.3,0.5-0.7,0.5-1.2
			c0-0.5-0.2-0.9-0.5-1.2c-0.3-0.2-0.8-0.3-1.5-0.3h-0.9v3H604.2z M604.5,350.8c0.9,0,1.3-0.1,1.7-0.4c0.4-0.3,0.6-0.7,0.6-1.2
			c0-0.6-0.3-1.1-0.7-1.3c-0.4-0.2-0.8-0.3-1.7-0.3h-1v3.3H604.5z"/>
	</g>
</g>
<path class="st6" d="M702,404.4H508.7c-1.7,0-3-1.3-3-3v-29.1c0-1.7,1.3-3,3-3H702c1.7,0,3,1.3,3,3v29.1
	C705,403,703.7,404.4,702,404.4z"/>
<path class="st9" d="M548.6,404.4h-44.9c-1.7,0-3-1.3-3-3v-29.1c0-1.7,1.3-3,3-3h44.9V404.4z"/>
<g class="st1">
	<path class="st5" d="M513.1,391.5h-1.8v-8.4h-2.4v-1.6h6.7v1.6h-2.4V391.5z"/>
	<path class="st5" d="M517.5,389l-0.9,2.5h-1.9l3.7-10h2.2l3.7,10h-1.9l-0.9-2.5H517.5z M519.6,383.3l-1.5,4h2.9L519.6,383.3z"/>
	<path class="st5" d="M529.9,384.1c-0.6-0.9-0.9-1.2-1.6-1.2c-0.8,0-1.4,0.5-1.4,1.3c0,0.5,0.4,0.9,1.2,1.2l0.9,0.4
		c1.7,0.6,2.5,1.5,2.5,2.8c0,1.8-1.5,3.2-3.4,3.2c-1.3,0-2.5-0.7-3-1.9c-0.1-0.3-0.1-0.3-0.3-1.1l1.7-0.5c0.2,0.8,0.2,0.8,0.3,1
		c0.3,0.5,0.8,0.8,1.4,0.8c0.9,0,1.6-0.7,1.6-1.5c0-0.6-0.4-0.9-1.4-1.3l-0.9-0.3c-1.5-0.6-2.2-1.5-2.2-2.7c0-1.6,1.4-2.9,3.2-2.9
		c0.9,0,1.7,0.3,2.3,0.9c0.3,0.3,0.3,0.4,0.7,1L529.9,384.1z"/>
	<path class="st5" d="M540.9,391.5h-2.1l-3-4.5l-1,1.1v3.4h-1.8v-10h1.8v4.2l3.9-4.2h2.2l-3.9,4.2L540.9,391.5z"/>
</g>
<g class="st1">
	<path class="st2" d="M561.4,390.5V390c-0.7,0.5-1.2,0.7-1.9,0.7c-1.7,0-3.2-1.5-3.2-3.3c0-1.8,1.4-3.3,3.1-3.3
		c0.7,0,1.2,0.2,1.9,0.7v-0.5h1.4v6.2H561.4z M557.7,387.4c0,1.2,0.8,2,1.8,2c1.1,0,1.8-0.8,1.8-2.1c0-1.2-0.8-2-1.8-2
		C558.5,385.4,557.7,386.2,557.7,387.4z"/>
	<path class="st2" d="M565.7,384.3v0.4c0.4-0.4,1-0.6,1.6-0.6c0.9,0,1.8,0.5,2.2,1.2c0.3,0.4,0.4,1,0.4,1.8v3.3h-1.4v-3.2
		c0-0.7-0.1-1-0.2-1.3c-0.2-0.3-0.6-0.5-1.1-0.5c-0.5,0-1,0.2-1.2,0.6c-0.2,0.3-0.2,0.7-0.2,1.4v3.1h-1.4v-6.2H565.7z"/>
	<path class="st2" d="M573.9,385.6h-1v3c0,0.5,0.1,0.8,0.4,0.8c0.2,0,0.3,0,0.7-0.1v1.3c-0.4,0.1-0.6,0.1-0.8,0.1
		c-1,0-1.6-0.7-1.6-2.1v-3h-0.7v-1.3h0.7V383l1.4-0.6v1.9h1V385.6z"/>
	<path class="st2" d="M581,386.7v1.3h-2.9v-1.3H581z"/>
	<path class="st2" d="M584.5,381.2c3.1,0,5.1,1.8,5.1,4.7c0,2.9-1.9,4.7-5.1,4.7h-2.1v-9.3H584.5z M583.9,389.2h0.7
		c2.2,0,3.6-1.3,3.6-3.3c0-2-1.4-3.3-3.6-3.3h-0.7V389.2z"/>
	<path class="st2" d="M592.2,384.8c0.4-0.4,0.9-0.6,1.5-0.6c0.7,0,1.2,0.3,1.8,0.8c0.5-0.6,1.1-0.8,1.9-0.8c1,0,1.8,0.5,2.3,1.3
		c0.3,0.5,0.4,1,0.4,1.8v3.3h-1.4v-3.2c0-0.7-0.1-1.1-0.2-1.4c-0.2-0.3-0.5-0.5-1-0.5c-0.5,0-0.9,0.2-1.1,0.6
		c-0.2,0.3-0.2,0.7-0.2,1.4v3.1h-1.4v-3.2c0-0.7-0.1-1.1-0.2-1.4c-0.2-0.3-0.5-0.5-1-0.5c-0.5,0-0.9,0.2-1.1,0.6
		c-0.2,0.3-0.2,0.7-0.2,1.4v3.1h-1.4v-6.2h1.4V384.8z"/>
	<path class="st2" d="M607.8,387.4c0,1.9-1.4,3.3-3.3,3.3c-1.8,0-3.3-1.4-3.3-3.3c0-1.9,1.4-3.3,3.3-3.3
		C606.4,384.1,607.8,385.6,607.8,387.4z M602.7,387.4c0,1.2,0.8,2,1.8,2c1.1,0,1.8-0.8,1.8-2.1c0-1.2-0.8-2-1.9-2
		C603.4,385.4,602.7,386.2,602.7,387.4z"/>
	<path class="st2" d="M613.6,390.5V390c-0.7,0.5-1.2,0.7-1.9,0.7c-1.7,0-3.2-1.5-3.2-3.3c0-1.8,1.4-3.3,3.1-3.3
		c0.7,0,1.2,0.2,1.9,0.7v-3.7h1.4v9.3H613.6z M610,387.4c0,1.2,0.8,2,1.8,2s1.8-0.8,1.8-2c0-1.2-0.7-2-1.8-2
		C610.8,385.4,610,386.2,610,387.4z"/>
	<path class="st2" d="M620.8,390.5v-0.4c-0.4,0.4-1,0.6-1.6,0.6c-0.9,0-1.8-0.5-2.2-1.2c-0.3-0.4-0.4-1-0.4-1.8v-3.3h1.4v3.2
		c0,0.7,0.1,1,0.2,1.3c0.2,0.3,0.6,0.5,1.1,0.5c0.5,0,1-0.2,1.2-0.6c0.2-0.3,0.2-0.7,0.2-1.4v-3.1h1.4v6.2H620.8z"/>
	<path class="st2" d="M623.7,390.5v-9.3h1.4v9.3H623.7z"/>
	<path class="st2" d="M627.8,388c0.2,1,0.8,1.5,1.7,1.5c0.7,0,1.2-0.3,1.6-0.8c0,0,0-0.1,0.1-0.1c0,0,0-0.1,0.1-0.1l1.2,0.5
		c-0.7,1.2-1.7,1.8-2.9,1.8c-1.8,0-3.2-1.4-3.2-3.3c0-1.8,1.4-3.3,3.1-3.3c1.8,0,3,1.4,3,3.4v0.4H627.8z M631.1,386.9
		c-0.3-1-0.8-1.5-1.6-1.5c-0.9,0-1.5,0.6-1.7,1.5H631.1z"/>
	<path class="st2" d="M639.8,385.7h-6v-1.2h6V385.7z M639.8,387.8h-6v-1.2h6V387.8z"/>
	<path class="st2" d="M642.2,390.5h-1.5l3.5-9.3h1.8l3.5,9.3h-1.5l-0.9-2.4h-4L642.2,390.5z M646.6,386.8l-1.5-4.1l-1.5,4.1H646.6z"
		/>
	<path class="st2" d="M658.1,386.2c-0.6-0.7-1-0.9-1.6-0.9c-1.1,0-1.9,0.8-1.9,2s0.8,2,1.9,2c0.7,0,1.1-0.2,1.7-0.9l0.9,0.9
		c-0.8,0.9-1.6,1.3-2.6,1.3c-1.9,0-3.3-1.4-3.3-3.3c0-1.9,1.4-3.3,3.3-3.3c1,0,1.7,0.4,2.5,1.2L658.1,386.2z"/>
	<path class="st2" d="M666,387.4c0,1.9-1.4,3.3-3.3,3.3c-1.8,0-3.3-1.4-3.3-3.3c0-1.9,1.4-3.3,3.3-3.3
		C664.6,384.1,666,385.6,666,387.4z M660.9,387.4c0,1.2,0.8,2,1.8,2c1.1,0,1.8-0.8,1.8-2.1c0-1.2-0.8-2-1.9-2
		C661.6,385.4,660.9,386.2,660.9,387.4z"/>
	<path class="st2" d="M668.6,384.8c0.4-0.4,0.9-0.6,1.5-0.6c0.7,0,1.2,0.3,1.8,0.8c0.5-0.6,1.1-0.8,1.9-0.8c1,0,1.8,0.5,2.3,1.3
		c0.3,0.5,0.4,1,0.4,1.8v3.3H675v-3.2c0-0.7-0.1-1.1-0.2-1.4c-0.2-0.3-0.5-0.5-1-0.5c-0.5,0-0.9,0.2-1.1,0.6
		c-0.2,0.3-0.2,0.7-0.2,1.4v3.1h-1.4v-3.2c0-0.7-0.1-1.1-0.2-1.4c-0.2-0.3-0.5-0.5-1-0.5c-0.5,0-0.9,0.2-1.1,0.6
		c-0.2,0.3-0.2,0.7-0.2,1.4v3.1h-1.4v-6.2h1.4V384.8z"/>
	<path class="st2" d="M679.4,384.3v0.5c0.7-0.5,1.2-0.7,1.9-0.7c1.7,0,3.2,1.5,3.2,3.3c0,1.8-1.4,3.3-3.1,3.3
		c-0.7,0-1.2-0.2-1.9-0.7v3.8H678v-9.5H679.4z M679.4,387.4c0,1.2,0.7,2,1.8,2c1.1,0,1.8-0.8,1.8-2c0-1.2-0.8-2-1.8-2
		S679.4,386.2,679.4,387.4z"/>
	<path class="st2" d="M687.2,382.2c0,0.5-0.4,0.9-0.9,0.9c-0.5,0-0.9-0.4-0.9-0.9c0-0.5,0.4-0.9,0.9-0.9
		C686.8,381.3,687.2,381.7,687.2,382.2z M687,390.5h-1.4v-6.2h1.4V390.5z"/>
	<path class="st2" d="M688.6,390.5v-9.3h1.4v9.3H688.6z"/>
	<path class="st2" d="M692.6,388c0.2,1,0.8,1.5,1.7,1.5c0.7,0,1.2-0.3,1.6-0.8c0,0,0-0.1,0.1-0.1c0,0,0-0.1,0.1-0.1l1.2,0.5
		c-0.7,1.2-1.7,1.8-2.9,1.8c-1.8,0-3.2-1.4-3.2-3.3c0-1.8,1.4-3.3,3.1-3.3c1.8,0,3,1.4,3,3.4v0.4H692.6z M695.9,386.9
		c-0.3-1-0.8-1.5-1.6-1.5c-0.9,0-1.5,0.6-1.7,1.5H695.9z"/>
</g>
<polygon class="st6" points="553.3,394 540.7,386.7 553.3,379.4 "/>
<path class="st6" d="M702,465.4H508.7c-1.7,0-3-1.3-3-3v-29.1c0-1.7,1.3-3,3-3H702c1.7,0,3,1.3,3,3v29.1
	C705,464,703.7,465.4,702,465.4z"/>
<g>
	<path class="st7" d="M503.7,463.9c-0.9,0-1.5-0.6-1.5-1.5v-29.1c0-0.9,0.6-1.5,1.5-1.5h43.4v32.1H503.7z"/>
	<path class="st2" d="M545.6,433.3v29.1h-41.9v-29.1H545.6 M548.6,430.3h-44.9c-1.7,0-3,1.3-3,3v29.1c0,1.7,1.3,3,3,3h44.9V430.3
		L548.6,430.3z"/>
</g>
<g class="st1">
	<path class="st5" d="M513.1,452.5h-1.8v-8.4h-2.4v-1.6h6.7v1.6h-2.4V452.5z"/>
	<path class="st5" d="M517.5,450l-0.9,2.5h-1.9l3.7-10h2.2l3.7,10h-1.9l-0.9-2.5H517.5z M519.6,444.3l-1.5,4h2.9L519.6,444.3z"/>
	<path class="st5" d="M529.9,445.1c-0.6-0.9-0.9-1.2-1.6-1.2c-0.8,0-1.4,0.5-1.4,1.3c0,0.5,0.4,0.9,1.2,1.2l0.9,0.4
		c1.7,0.6,2.5,1.5,2.5,2.8c0,1.8-1.5,3.2-3.4,3.2c-1.3,0-2.5-0.7-3-1.9c-0.1-0.3-0.1-0.3-0.3-1.1l1.7-0.5c0.2,0.8,0.2,0.8,0.3,1
		c0.3,0.5,0.8,0.8,1.4,0.8c0.9,0,1.6-0.7,1.6-1.5c0-0.6-0.4-0.9-1.4-1.3l-0.9-0.3c-1.5-0.6-2.2-1.5-2.2-2.7c0-1.6,1.4-2.9,3.2-2.9
		c0.9,0,1.7,0.3,2.3,0.9c0.3,0.3,0.3,0.4,0.7,1L529.9,445.1z"/>
	<path class="st5" d="M540.9,452.5h-2.1l-3-4.5l-1,1.1v3.4h-1.8v-10h1.8v4.2l3.9-4.2h2.2l-3.9,4.2L540.9,452.5z"/>
</g>
<g class="st1">
	<path class="st2" d="M558.1,445.3v0.5c0.5-0.4,0.8-0.5,1.3-0.5c0.2,0,0.3,0,0.5,0v1.2c-0.3,0-0.3,0-0.5,0c-0.5,0-0.9,0.2-1.1,0.6
		c-0.2,0.3-0.2,0.7-0.2,1.4v3h-1.4v-6.2H558.1z"/>
	<path class="st2" d="M565.4,451.5V451c-0.7,0.5-1.2,0.7-1.9,0.7c-1.7,0-3.2-1.5-3.2-3.3c0-1.8,1.4-3.3,3.1-3.3
		c0.7,0,1.2,0.2,1.9,0.7v-0.5h1.4v6.2H565.4z M561.8,448.4c0,1.2,0.8,2,1.8,2c1.1,0,1.8-0.8,1.8-2.1c0-1.2-0.8-2-1.8-2
		C562.5,446.4,561.8,447.2,561.8,448.4z"/>
	<path class="st2" d="M574.3,451.5h-1.7l-2.1-2.7l-0.8,0.7v2h-1.4v-9.3h1.4v5.6l2.5-2.5h1.8l-2.6,2.6L574.3,451.5z"/>
	<path class="st2" d="M575.8,449c0.2,1,0.8,1.5,1.7,1.5c0.7,0,1.2-0.3,1.6-0.8c0,0,0-0.1,0.1-0.1c0,0,0-0.1,0.1-0.1l1.2,0.5
		c-0.7,1.2-1.7,1.8-2.9,1.8c-1.8,0-3.2-1.4-3.2-3.3c0-1.8,1.4-3.3,3.1-3.3c1.8,0,3,1.4,3,3.4v0.4H575.8z M579.1,447.9
		c-0.3-1-0.8-1.5-1.6-1.5c-0.9,0-1.5,0.6-1.7,1.5H579.1z"/>
	<path class="st2" d="M589.5,447.2c-0.6-0.7-1-0.9-1.6-0.9c-1.1,0-1.9,0.8-1.9,2s0.8,2,1.9,2c0.7,0,1.1-0.2,1.7-0.9l0.9,0.9
		c-0.8,0.9-1.6,1.3-2.6,1.3c-1.9,0-3.3-1.4-3.3-3.3c0-1.9,1.4-3.3,3.3-3.3c1,0,1.7,0.4,2.5,1.2L589.5,447.2z"/>
	<path class="st2" d="M592.8,445.3v0.5c0.5-0.4,0.8-0.5,1.3-0.5c0.2,0,0.3,0,0.5,0v1.2c-0.3,0-0.3,0-0.5,0c-0.5,0-0.9,0.2-1.1,0.6
		c-0.2,0.3-0.2,0.7-0.2,1.4v3h-1.4v-6.2H592.8z"/>
	<path class="st2" d="M596.5,449c0.2,1,0.8,1.5,1.7,1.5c0.7,0,1.2-0.3,1.6-0.8c0,0,0-0.1,0.1-0.1c0,0,0-0.1,0.1-0.1l1.2,0.5
		c-0.7,1.2-1.7,1.8-2.9,1.8c-1.8,0-3.2-1.4-3.2-3.3c0-1.8,1.4-3.3,3.1-3.3c1.8,0,3,1.4,3,3.4v0.4H596.5z M599.8,447.9
		c-0.3-1-0.8-1.5-1.6-1.5c-0.9,0-1.5,0.6-1.7,1.5H599.8z"/>
	<path class="st2" d="M607,451.5V451c-0.7,0.5-1.2,0.7-1.9,0.7c-1.7,0-3.2-1.5-3.2-3.3c0-1.8,1.4-3.3,3.1-3.3c0.7,0,1.2,0.2,1.9,0.7
		v-0.5h1.4v6.2H607z M603.4,448.4c0,1.2,0.8,2,1.8,2c1.1,0,1.8-0.8,1.8-2.1c0-1.2-0.8-2-1.8-2C604.2,446.4,603.4,447.2,603.4,448.4z
		"/>
	<path class="st2" d="M612.5,446.6h-1v3c0,0.5,0.1,0.8,0.4,0.8c0.2,0,0.3,0,0.7-0.1v1.3c-0.3,0.1-0.6,0.1-0.8,0.1
		c-1,0-1.6-0.7-1.6-2.1v-3h-0.7v-1.3h0.7V444l1.4-0.6v1.9h1V446.6z"/>
	<path class="st2" d="M614.7,449c0.2,1,0.8,1.5,1.7,1.5c0.7,0,1.2-0.3,1.6-0.8c0,0,0-0.1,0.1-0.1c0,0,0-0.1,0.1-0.1l1.2,0.5
		c-0.7,1.2-1.7,1.8-2.9,1.8c-1.8,0-3.2-1.4-3.2-3.3c0-1.8,1.4-3.3,3.1-3.3c1.8,0,3,1.4,3,3.4v0.4H614.7z M618,447.9
		c-0.3-1-0.8-1.5-1.6-1.5c-0.9,0-1.5,0.6-1.7,1.5H618z"/>
	<path class="st2" d="M627,452.3v1.3h-7.4v-1.3H627z"/>
	<path class="st2" d="M632.4,451.5V451c-0.7,0.5-1.2,0.7-1.9,0.7c-1.7,0-3.2-1.5-3.2-3.3c0-1.8,1.4-3.3,3.1-3.3
		c0.7,0,1.2,0.2,1.9,0.7v-3.7h1.4v9.3H632.4z M628.7,448.4c0,1.2,0.8,2,1.8,2c1.1,0,1.8-0.8,1.8-2c0-1.2-0.7-2-1.8-2
		C629.5,446.4,628.7,447.2,628.7,448.4z"/>
	<path class="st2" d="M641.5,448.4c0,1.9-1.4,3.3-3.3,3.3c-1.8,0-3.3-1.4-3.3-3.3c0-1.9,1.4-3.3,3.3-3.3
		C640,445.1,641.5,446.6,641.5,448.4z M636.4,448.4c0,1.2,0.8,2,1.8,2c1.1,0,1.8-0.8,1.8-2.1c0-1.2-0.8-2-1.9-2
		C637.1,446.4,636.4,447.2,636.4,448.4z"/>
	<path class="st2" d="M647.2,447.2c-0.6-0.7-1-0.9-1.6-0.9c-1.1,0-1.9,0.8-1.9,2s0.8,2,1.9,2c0.7,0,1.1-0.2,1.7-0.9l0.9,0.9
		c-0.8,0.9-1.6,1.3-2.6,1.3c-1.9,0-3.3-1.4-3.3-3.3c0-1.9,1.4-3.3,3.3-3.3c1,0,1.7,0.4,2.5,1.2L647.2,447.2z"/>
	<path class="st2" d="M649.8,449.4c0.4,0.8,0.7,1,1.2,1c0.5,0,0.9-0.3,0.9-0.8c0-0.3-0.2-0.5-0.9-0.7l-0.6-0.3
		c-0.9-0.3-1.4-0.9-1.4-1.7c0-1.1,0.9-1.9,2.1-1.9c0.9,0,1.6,0.4,2.1,1.4l-1.1,0.5c-0.3-0.5-0.6-0.7-1-0.7c-0.5,0-0.8,0.3-0.8,0.6
		c0,0.3,0.1,0.4,0.9,0.7l0.6,0.2c1,0.4,1.5,0.9,1.5,1.7c0,1.2-1,2.1-2.3,2.1c-1.1,0-1.9-0.6-2.3-1.8L649.8,449.4z"/>
</g>
<polygon class="st6" points="553.3,455 540.7,447.7 553.3,440.4 "/>
<path class="st6" d="M702,526.4H508.7c-1.7,0-3-1.3-3-3v-29.1c0-1.7,1.3-3,3-3H702c1.7,0,3,1.3,3,3v29.1
	C705,525,703.7,526.4,702,526.4z"/>
<g>
	<path class="st7" d="M503.7,524.9c-0.9,0-1.5-0.6-1.5-1.5v-29.1c0-0.9,0.6-1.5,1.5-1.5h43.4v32.1H503.7z"/>
	<path class="st2" d="M545.6,494.3v29.1h-41.9v-29.1L545.6,494.3 M548.6,491.3h-44.9c-1.7,0-3,1.3-3,3v29.1c0,1.7,1.3,3,3,3h44.9
		V491.3L548.6,491.3z"/>
</g>
<g class="st1">
	<path class="st5" d="M513.1,513.5h-1.8v-8.4h-2.4v-1.6h6.7v1.6h-2.4V513.5z"/>
	<path class="st5" d="M517.5,511l-0.9,2.5h-1.9l3.7-10h2.2l3.7,10h-1.9l-0.9-2.5H517.5z M519.6,505.3l-1.5,4h2.9L519.6,505.3z"/>
	<path class="st5" d="M529.9,506.1c-0.6-0.9-0.9-1.2-1.6-1.2c-0.8,0-1.4,0.5-1.4,1.3c0,0.5,0.4,0.9,1.2,1.2l0.9,0.4
		c1.7,0.6,2.5,1.5,2.5,2.8c0,1.8-1.5,3.2-3.4,3.2c-1.3,0-2.5-0.7-3-1.9c-0.1-0.3-0.1-0.3-0.3-1.1l1.7-0.5c0.2,0.8,0.2,0.8,0.3,1
		c0.3,0.5,0.8,0.8,1.4,0.8c0.9,0,1.6-0.7,1.6-1.5c0-0.6-0.4-0.9-1.4-1.3l-0.9-0.3c-1.5-0.6-2.2-1.5-2.2-2.7c0-1.6,1.4-2.9,3.2-2.9
		c0.9,0,1.7,0.3,2.3,0.9c0.3,0.3,0.3,0.4,0.7,1L529.9,506.1z"/>
	<path class="st5" d="M540.9,513.5h-2.1l-3-4.5l-1,1.1v3.4h-1.8v-10h1.8v4.2l3.9-4.2h2.2l-3.9,4.2L540.9,513.5z"/>
</g>
<g class="st1">
	<path class="st2" d="M561.2,508.2c-0.6-0.7-1-0.9-1.6-0.9c-1.1,0-1.9,0.8-1.9,2s0.8,2,1.9,2c0.7,0,1.1-0.2,1.7-0.9l0.9,0.9
		c-0.8,0.9-1.6,1.3-2.6,1.3c-1.9,0-3.3-1.4-3.3-3.3c0-1.9,1.4-3.3,3.3-3.3c1,0,1.7,0.4,2.5,1.2L561.2,508.2z"/>
	<path class="st2" d="M564.6,506.3v0.5c0.5-0.4,0.8-0.5,1.3-0.5c0.2,0,0.3,0,0.5,0v1.2c-0.3,0-0.4,0-0.5,0c-0.5,0-0.9,0.2-1.1,0.6
		c-0.2,0.3-0.2,0.7-0.2,1.4v3h-1.4v-6.2H564.6z"/>
	<path class="st2" d="M568.3,510c0.2,1,0.8,1.5,1.7,1.5c0.7,0,1.2-0.3,1.6-0.8c0,0,0-0.1,0.1-0.1c0,0,0-0.1,0.1-0.1l1.2,0.5
		c-0.7,1.2-1.7,1.8-2.9,1.8c-1.8,0-3.2-1.4-3.2-3.3c0-1.8,1.4-3.3,3.1-3.3c1.8,0,3,1.4,3,3.4v0.4H568.3z M571.6,508.9
		c-0.3-1-0.8-1.5-1.6-1.5c-0.9,0-1.5,0.6-1.7,1.5H571.6z"/>
	<path class="st2" d="M578.8,512.5V512c-0.7,0.5-1.2,0.7-1.9,0.7c-1.7,0-3.2-1.5-3.2-3.3c0-1.8,1.4-3.3,3.1-3.3
		c0.7,0,1.2,0.2,1.9,0.7v-0.5h1.4v6.2H578.8z M575.2,509.4c0,1.2,0.8,2,1.8,2c1.1,0,1.8-0.8,1.8-2.1c0-1.2-0.8-2-1.8-2
		C575.9,507.4,575.2,508.2,575.2,509.4z"/>
	<path class="st2" d="M584.3,507.6h-1v3c0,0.5,0.1,0.8,0.4,0.8c0.2,0,0.3,0,0.7-0.1v1.3c-0.4,0.1-0.6,0.1-0.8,0.1
		c-1,0-1.6-0.7-1.6-2.1v-3h-0.7v-1.3h0.7V505l1.4-0.6v1.9h1V507.6z"/>
	<path class="st2" d="M586.4,510c0.2,1,0.8,1.5,1.7,1.5c0.7,0,1.2-0.3,1.6-0.8c0,0,0-0.1,0.1-0.1c0,0,0-0.1,0.1-0.1l1.2,0.5
		c-0.7,1.2-1.7,1.8-2.9,1.8c-1.8,0-3.2-1.4-3.2-3.3c0-1.8,1.4-3.3,3.1-3.3c1.8,0,3,1.4,3,3.4v0.4H586.4z M589.7,508.9
		c-0.3-1-0.8-1.5-1.6-1.5c-0.9,0-1.5,0.6-1.7,1.5H589.7z"/>
	<path class="st2" d="M598.8,513.3v1.3h-7.4v-1.3H598.8z"/>
	<path class="st2" d="M600.9,506.3v0.5c0.7-0.5,1.2-0.7,1.9-0.7c1.7,0,3.2,1.5,3.2,3.3c0,1.8-1.4,3.3-3.1,3.3
		c-0.7,0-1.2-0.2-1.9-0.7v3.8h-1.4v-9.5H600.9z M600.9,509.4c0,1.2,0.7,2,1.8,2c1.1,0,1.8-0.8,1.8-2c0-1.2-0.8-2-1.8-2
		C601.6,507.4,600.9,508.2,600.9,509.4z"/>
	<path class="st2" d="M611.8,512.5V512c-0.7,0.5-1.2,0.7-1.9,0.7c-1.7,0-3.2-1.5-3.2-3.3c0-1.8,1.4-3.3,3.1-3.3
		c0.7,0,1.2,0.2,1.9,0.7v-0.5h1.4v6.2H611.8z M608.1,509.4c0,1.2,0.8,2,1.8,2c1.1,0,1.8-0.8,1.8-2.1c0-1.2-0.8-2-1.8-2
		C608.9,507.4,608.1,508.2,608.1,509.4z"/>
	<path class="st2" d="M619.3,508.2c-0.6-0.7-1-0.9-1.6-0.9c-1.1,0-1.9,0.8-1.9,2s0.8,2,1.9,2c0.7,0,1.1-0.2,1.7-0.9l0.9,0.9
		c-0.8,0.9-1.6,1.3-2.6,1.3c-1.9,0-3.3-1.4-3.3-3.3c0-1.9,1.4-3.3,3.3-3.3c1,0,1.7,0.4,2.5,1.2L619.3,508.2z"/>
	<path class="st2" d="M627.1,512.5h-1.7l-2.1-2.7l-0.8,0.7v2h-1.4v-9.3h1.4v5.6l2.5-2.5h1.8l-2.6,2.6L627.1,512.5z"/>
	<path class="st2" d="M632.1,512.5V512c-0.7,0.5-1.2,0.7-1.9,0.7c-1.7,0-3.2-1.5-3.2-3.3c0-1.8,1.4-3.3,3.1-3.3
		c0.7,0,1.2,0.2,1.9,0.7v-0.5h1.4v6.2H632.1z M628.5,509.4c0,1.2,0.8,2,1.8,2c1.1,0,1.8-0.8,1.8-2.1c0-1.2-0.8-2-1.8-2
		C629.2,507.4,628.5,508.2,628.5,509.4z"/>
	<path class="st2" d="M641.1,512.7c0,2-1.3,3.3-3.3,3.3c-0.9,0-1.8-0.3-2.4-0.9c-0.1-0.1-0.3-0.3-0.6-0.6l0.9-0.9
		c0.1,0.1,0.1,0.1,0.2,0.2c0.7,0.8,1.1,1,1.9,1c1.2,0,1.9-0.8,1.9-2.1V512c-0.5,0.5-1.1,0.7-1.8,0.7c-1.8,0-3.2-1.5-3.2-3.3
		c0-1.8,1.4-3.3,3.2-3.3c0.7,0,1.3,0.2,1.8,0.7v-0.5h1.4V512.7z M636.1,509.4c0,1.2,0.8,2,1.8,2c1.1,0,1.8-0.8,1.8-2.1
		c0-1.2-0.7-2-1.8-2C636.8,507.4,636.1,508.2,636.1,509.4z"/>
	<path class="st2" d="M643.7,510c0.2,1,0.8,1.5,1.7,1.5c0.7,0,1.2-0.3,1.6-0.8c0,0,0-0.1,0.1-0.1c0,0,0-0.1,0.1-0.1l1.2,0.5
		c-0.7,1.2-1.7,1.8-2.9,1.8c-1.8,0-3.2-1.4-3.2-3.3c0-1.8,1.4-3.3,3.1-3.3c1.8,0,3,1.4,3,3.4v0.4H643.7z M647,508.9
		c-0.3-1-0.8-1.5-1.6-1.5c-0.9,0-1.5,0.6-1.7,1.5H647z"/>
	<path class="st2" d="M651.3,511.8c0,0.5-0.4,0.9-0.9,0.9c-0.5,0-0.9-0.4-0.9-0.9c0-0.5,0.4-0.9,0.9-0.9
		C650.9,510.9,651.3,511.3,651.3,511.8z"/>
	<path class="st2" d="M653.6,510.4c0.4,0.8,0.7,1,1.2,1c0.5,0,0.9-0.3,0.9-0.8c0-0.3-0.2-0.5-0.9-0.7l-0.6-0.3
		c-0.9-0.3-1.4-0.9-1.4-1.7c0-1.1,0.9-1.9,2.1-1.9c0.9,0,1.6,0.4,2.1,1.4l-1.1,0.5c-0.3-0.5-0.6-0.7-1-0.7c-0.5,0-0.8,0.3-0.8,0.6
		c0,0.3,0.1,0.4,0.9,0.7l0.6,0.2c1,0.4,1.5,0.9,1.5,1.7c0,1.2-1,2.1-2.3,2.1c-1.1,0-1.9-0.6-2.3-1.8L653.6,510.4z"/>
	<path class="st2" d="M659.6,503.2v3.6c0.5-0.4,1-0.6,1.6-0.6c0.9,0,1.8,0.5,2.2,1.2c0.3,0.4,0.4,1,0.4,1.8v3.3h-1.4v-3.2
		c0-0.7-0.1-1-0.2-1.3c-0.2-0.4-0.6-0.5-1.1-0.5c-0.5,0-1,0.2-1.2,0.6c-0.2,0.3-0.2,0.7-0.2,1.4v3.1h-1.4v-9.3H659.6z"/>
</g>
<polygon class="st6" points="553.3,516 540.7,508.7 553.3,501.4 "/>
<g>
	<g>
		<line class="st8" x1="603.3" y1="411" x2="603.3" y2="420"/>
		<g>
			<polygon class="st2" points="607.7,419 598.2,419 602.9,423.7 			"/>
		</g>
	</g>
</g>
<g>
	<g>
		<line class="st8" x1="603.3" y1="474" x2="603.3" y2="483"/>
		<g>
			<polygon class="st2" points="607.7,482 598.2,482 602.9,486.7 			"/>
		</g>
	</g>
</g>
<path class="st5" d="M714.8,305.2H489.2c-1.5,0-2.8-1.2-2.8-2.8V146.8c0-1.5,1.2-2.8,2.8-2.8h225.6c1.5,0,2.8,1.2,2.8,2.8v155.6
	C717.6,303.9,716.4,305.2,714.8,305.2z"/>
<g>
	<g class="st1">
		<path class="st2" d="M589,166c0,1.5-0.2,2.3-0.9,3c-0.6,0.6-1.4,1-2.4,1c-1.1,0-2.1-0.5-3.2-1.6l1.3-1.5c0.8,0.8,1.3,1.1,1.9,1.1
			c0.8,0,1.2-0.6,1.2-2v-8.3h2.1V166z"/>
		<path class="st2" d="M603.4,163.8c0,3.5-2.8,6.3-6.3,6.3c-3.4,0-6.2-2.9-6.2-6.4c0-3.3,2.9-6.2,6.3-6.2
			C600.6,157.5,603.4,160.3,603.4,163.8z M593,163.8c0,2.3,1.9,4.2,4.1,4.2c2.3,0,4.1-1.9,4.1-4.2c0-2.4-1.8-4.3-4.2-4.3
			C594.8,159.5,593,161.4,593,163.8z"/>
		<path class="st2" d="M605.3,157.8h2.8c1.4,0,2.3,0.2,3,0.7c0.8,0.6,1.3,1.6,1.3,2.6c0,0.9-0.3,1.5-1,2.2c1,0.6,1.6,1.7,1.6,2.9
			c0,1.1-0.5,2-1.3,2.7c-0.8,0.6-1.6,0.8-3,0.8h-3.3V157.8z M608.2,162.7c0.8,0,1.2-0.1,1.5-0.4c0.3-0.3,0.5-0.7,0.5-1.2
			c0-0.5-0.2-0.9-0.5-1.2c-0.3-0.2-0.8-0.3-1.5-0.3h-0.9v3H608.2z M608.5,167.8c0.9,0,1.3-0.1,1.7-0.4c0.4-0.3,0.6-0.7,0.6-1.2
			c0-0.6-0.3-1.1-0.7-1.3c-0.4-0.2-0.8-0.3-1.7-0.3h-1v3.3H608.5z"/>
	</g>
</g>
<path class="st6" d="M702,221.4H508.7c-1.7,0-3-1.3-3-3v-29.1c0-1.7,1.3-3,3-3H702c1.7,0,3,1.3,3,3v29.1
	C705,220,703.7,221.4,702,221.4z"/>
<g>
	<path class="st7" d="M503.7,219.9c-0.9,0-1.5-0.6-1.5-1.5v-29.1c0-0.9,0.6-1.5,1.5-1.5h43.4v32.1H503.7z"/>
	<path class="st2" d="M545.6,189.3v29.1h-41.9v-29.1H545.6 M548.6,186.3h-44.9c-1.7,0-3,1.3-3,3v29.1c0,1.7,1.3,3,3,3h44.9V186.3
		L548.6,186.3z"/>
</g>
<g class="st1">
	<path class="st5" d="M513.1,208.5h-1.8v-8.4h-2.4v-1.6h6.7v1.6h-2.4V208.5z"/>
	<path class="st5" d="M517.5,206l-0.9,2.5h-1.9l3.7-10h2.2l3.7,10h-1.9l-0.9-2.5H517.5z M519.6,200.3l-1.5,4h2.9L519.6,200.3z"/>
	<path class="st5" d="M529.9,201.1c-0.6-0.9-0.9-1.2-1.6-1.2c-0.8,0-1.4,0.5-1.4,1.3c0,0.5,0.4,0.9,1.2,1.2l0.9,0.4
		c1.7,0.6,2.5,1.5,2.5,2.8c0,1.8-1.5,3.2-3.4,3.2c-1.3,0-2.5-0.7-3-1.9c-0.1-0.3-0.1-0.3-0.3-1.1l1.7-0.5c0.2,0.8,0.2,0.8,0.3,1
		c0.3,0.5,0.8,0.8,1.4,0.8c0.9,0,1.6-0.7,1.6-1.5c0-0.6-0.4-0.9-1.4-1.3l-0.9-0.3c-1.5-0.6-2.2-1.5-2.2-2.7c0-1.6,1.4-2.9,3.2-2.9
		c0.9,0,1.7,0.3,2.3,0.9c0.3,0.3,0.3,0.4,0.7,1L529.9,201.1z"/>
	<path class="st5" d="M540.9,208.5h-2.1l-3-4.5l-1,1.1v3.4h-1.8v-10h1.8v4.2l3.9-4.2h2.2l-3.9,4.2L540.9,208.5z"/>
</g>
<g class="st1">
	<path class="st2" d="M561.4,207.5V207c-0.7,0.5-1.2,0.7-1.9,0.7c-1.7,0-3.2-1.5-3.2-3.3c0-1.8,1.4-3.3,3.1-3.3
		c0.7,0,1.2,0.2,1.9,0.7v-0.5h1.4v6.2H561.4z M557.7,204.4c0,1.2,0.8,2,1.8,2c1.1,0,1.8-0.8,1.8-2.1c0-1.2-0.8-2-1.8-2
		C558.5,202.4,557.7,203.2,557.7,204.4z"/>
	<path class="st2" d="M565.7,201.3v0.4c0.4-0.4,1-0.6,1.6-0.6c0.9,0,1.8,0.5,2.2,1.2c0.3,0.4,0.4,1,0.4,1.8v3.3h-1.4v-3.2
		c0-0.7-0.1-1-0.2-1.3c-0.2-0.3-0.6-0.5-1.1-0.5c-0.5,0-1,0.2-1.2,0.6c-0.2,0.3-0.2,0.7-0.2,1.4v3.1h-1.4v-6.2H565.7z"/>
	<path class="st2" d="M573.9,202.6h-1v3c0,0.5,0.1,0.8,0.4,0.8c0.2,0,0.3,0,0.7-0.1v1.3c-0.4,0.1-0.6,0.1-0.8,0.1
		c-1,0-1.6-0.7-1.6-2.1v-3h-0.7v-1.3h0.7V200l1.4-0.6v1.9h1V202.6z"/>
	<path class="st2" d="M581,203.7v1.3h-2.9v-1.3H581z"/>
	<path class="st2" d="M584.5,198.2c3.1,0,5.1,1.8,5.1,4.7c0,2.9-1.9,4.7-5.1,4.7h-2.1v-9.3H584.5z M583.9,206.2h0.7
		c2.2,0,3.6-1.3,3.6-3.3c0-2-1.4-3.3-3.6-3.3h-0.7V206.2z"/>
	<path class="st2" d="M592.2,201.8c0.4-0.4,0.9-0.6,1.5-0.6c0.7,0,1.2,0.3,1.8,0.8c0.5-0.6,1.1-0.8,1.9-0.8c1,0,1.8,0.5,2.3,1.3
		c0.3,0.5,0.4,1,0.4,1.8v3.3h-1.4v-3.2c0-0.7-0.1-1.1-0.2-1.4c-0.2-0.3-0.5-0.5-1-0.5c-0.5,0-0.9,0.2-1.1,0.6
		c-0.2,0.3-0.2,0.7-0.2,1.4v3.1h-1.4v-3.2c0-0.7-0.1-1.1-0.2-1.4c-0.2-0.3-0.5-0.5-1-0.5c-0.5,0-0.9,0.2-1.1,0.6
		c-0.2,0.3-0.2,0.7-0.2,1.4v3.1h-1.4v-6.2h1.4V201.8z"/>
	<path class="st2" d="M607.8,204.4c0,1.9-1.4,3.3-3.3,3.3c-1.8,0-3.3-1.4-3.3-3.3c0-1.9,1.4-3.3,3.3-3.3
		C606.4,201.1,607.8,202.6,607.8,204.4z M602.7,204.4c0,1.2,0.8,2,1.8,2c1.1,0,1.8-0.8,1.8-2.1c0-1.2-0.8-2-1.9-2
		C603.4,202.4,602.7,203.2,602.7,204.4z"/>
	<path class="st2" d="M613.6,207.5V207c-0.7,0.5-1.2,0.7-1.9,0.7c-1.7,0-3.2-1.5-3.2-3.3c0-1.8,1.4-3.3,3.1-3.3
		c0.7,0,1.2,0.2,1.9,0.7v-3.7h1.4v9.3H613.6z M610,204.4c0,1.2,0.8,2,1.8,2s1.8-0.8,1.8-2c0-1.2-0.7-2-1.8-2
		C610.8,202.4,610,203.2,610,204.4z"/>
	<path class="st2" d="M620.8,207.5v-0.4c-0.4,0.4-1,0.6-1.6,0.6c-0.9,0-1.8-0.5-2.2-1.2c-0.3-0.4-0.4-1-0.4-1.8v-3.3h1.4v3.2
		c0,0.7,0.1,1,0.2,1.3c0.2,0.3,0.6,0.5,1.1,0.5c0.5,0,1-0.2,1.2-0.6c0.2-0.3,0.2-0.7,0.2-1.4v-3.1h1.4v6.2H620.8z"/>
	<path class="st2" d="M623.7,207.5v-9.3h1.4v9.3H623.7z"/>
	<path class="st2" d="M627.8,205c0.2,1,0.8,1.5,1.7,1.5c0.7,0,1.2-0.3,1.6-0.8c0,0,0-0.1,0.1-0.1c0,0,0-0.1,0.1-0.1l1.2,0.5
		c-0.7,1.2-1.7,1.8-2.9,1.8c-1.8,0-3.2-1.4-3.2-3.3c0-1.8,1.4-3.3,3.1-3.3c1.8,0,3,1.4,3,3.4v0.4H627.8z M631.1,203.9
		c-0.3-1-0.8-1.5-1.6-1.5c-0.9,0-1.5,0.6-1.7,1.5H631.1z"/>
	<path class="st2" d="M639.8,202.7h-6v-1.2h6V202.7z M639.8,204.8h-6v-1.2h6V204.8z"/>
	<path class="st2" d="M642.2,207.5h-1.5l3.5-9.3h1.8l3.5,9.3h-1.5l-0.9-2.4h-4L642.2,207.5z M646.6,203.8l-1.5-4.1l-1.5,4.1H646.6z"
		/>
	<path class="st2" d="M658.1,203.2c-0.6-0.7-1-0.9-1.6-0.9c-1.1,0-1.9,0.8-1.9,2s0.8,2,1.9,2c0.7,0,1.1-0.2,1.7-0.9l0.9,0.9
		c-0.8,0.9-1.6,1.3-2.6,1.3c-1.9,0-3.3-1.4-3.3-3.3c0-1.9,1.4-3.3,3.3-3.3c1,0,1.7,0.4,2.5,1.2L658.1,203.2z"/>
	<path class="st2" d="M666,204.4c0,1.9-1.4,3.3-3.3,3.3c-1.8,0-3.3-1.4-3.3-3.3c0-1.9,1.4-3.3,3.3-3.3
		C664.6,201.1,666,202.6,666,204.4z M660.9,204.4c0,1.2,0.8,2,1.8,2c1.1,0,1.8-0.8,1.8-2.1c0-1.2-0.8-2-1.9-2
		C661.6,202.4,660.9,203.2,660.9,204.4z"/>
	<path class="st2" d="M668.6,201.8c0.4-0.4,0.9-0.6,1.5-0.6c0.7,0,1.2,0.3,1.8,0.8c0.5-0.6,1.1-0.8,1.9-0.8c1,0,1.8,0.5,2.3,1.3
		c0.3,0.5,0.4,1,0.4,1.8v3.3H675v-3.2c0-0.7-0.1-1.1-0.2-1.4c-0.2-0.3-0.5-0.5-1-0.5c-0.5,0-0.9,0.2-1.1,0.6
		c-0.2,0.3-0.2,0.7-0.2,1.4v3.1h-1.4v-3.2c0-0.7-0.1-1.1-0.2-1.4c-0.2-0.3-0.5-0.5-1-0.5c-0.5,0-0.9,0.2-1.1,0.6
		c-0.2,0.3-0.2,0.7-0.2,1.4v3.1h-1.4v-6.2h1.4V201.8z"/>
	<path class="st2" d="M679.4,201.3v0.5c0.7-0.5,1.2-0.7,1.9-0.7c1.7,0,3.2,1.5,3.2,3.3c0,1.8-1.4,3.3-3.1,3.3
		c-0.7,0-1.2-0.2-1.9-0.7v3.8H678v-9.5H679.4z M679.4,204.4c0,1.2,0.7,2,1.8,2c1.1,0,1.8-0.8,1.8-2c0-1.2-0.8-2-1.8-2
		S679.4,203.2,679.4,204.4z"/>
	<path class="st2" d="M687.2,199.2c0,0.5-0.4,0.9-0.9,0.9c-0.5,0-0.9-0.4-0.9-0.9c0-0.5,0.4-0.9,0.9-0.9
		C686.8,198.3,687.2,198.7,687.2,199.2z M687,207.5h-1.4v-6.2h1.4V207.5z"/>
	<path class="st2" d="M688.6,207.5v-9.3h1.4v9.3H688.6z"/>
	<path class="st2" d="M692.6,205c0.2,1,0.8,1.5,1.7,1.5c0.7,0,1.2-0.3,1.6-0.8c0,0,0-0.1,0.1-0.1c0,0,0-0.1,0.1-0.1l1.2,0.5
		c-0.7,1.2-1.7,1.8-2.9,1.8c-1.8,0-3.2-1.4-3.2-3.3c0-1.8,1.4-3.3,3.1-3.3c1.8,0,3,1.4,3,3.4v0.4H692.6z M695.9,203.9
		c-0.3-1-0.8-1.5-1.6-1.5c-0.9,0-1.5,0.6-1.7,1.5H695.9z"/>
</g>
<polygon class="st6" points="553.3,211 540.7,203.7 553.3,196.4 "/>
<path class="st6" d="M702,282.4H508.7c-1.7,0-3-1.3-3-3v-29.1c0-1.7,1.3-3,3-3H702c1.7,0,3,1.3,3,3v29.1
	C705,281,703.7,282.4,702,282.4z"/>
<g>
	<path class="st7" d="M503.7,280.9c-0.9,0-1.5-0.6-1.5-1.5v-29.1c0-0.9,0.6-1.5,1.5-1.5h43.4v32.1H503.7z"/>
	<path class="st2" d="M545.6,250.3v29.1h-41.9v-29.1L545.6,250.3 M548.6,247.3h-44.9c-1.7,0-3,1.3-3,3v29.1c0,1.7,1.3,3,3,3h44.9
		V247.3L548.6,247.3z"/>
</g>
<g class="st1">
	<path class="st5" d="M513.1,269.5h-1.8v-8.4h-2.4v-1.6h6.7v1.6h-2.4V269.5z"/>
	<path class="st5" d="M517.5,267l-0.9,2.5h-1.9l3.7-10h2.2l3.7,10h-1.9l-0.9-2.5H517.5z M519.6,261.3l-1.5,4h2.9L519.6,261.3z"/>
	<path class="st5" d="M529.9,262.1c-0.6-0.9-0.9-1.2-1.6-1.2c-0.8,0-1.4,0.5-1.4,1.3c0,0.5,0.4,0.9,1.2,1.2l0.9,0.4
		c1.7,0.6,2.5,1.5,2.5,2.8c0,1.8-1.5,3.2-3.4,3.2c-1.3,0-2.5-0.7-3-1.9c-0.1-0.3-0.1-0.3-0.3-1.1l1.7-0.5c0.2,0.8,0.2,0.8,0.3,1
		c0.3,0.5,0.8,0.8,1.4,0.8c0.9,0,1.6-0.7,1.6-1.5c0-0.6-0.4-0.9-1.4-1.3l-0.9-0.3c-1.5-0.6-2.2-1.5-2.2-2.7c0-1.6,1.4-2.9,3.2-2.9
		c0.9,0,1.7,0.3,2.3,0.9c0.3,0.3,0.3,0.4,0.7,1L529.9,262.1z"/>
	<path class="st5" d="M540.9,269.5h-2.1l-3-4.5l-1,1.1v3.4h-1.8v-10h1.8v4.2l3.9-4.2h2.2l-3.9,4.2L540.9,269.5z"/>
</g>
<g class="st1">
	<path class="st2" d="M558.1,262.3v0.5c0.5-0.4,0.8-0.5,1.3-0.5c0.2,0,0.3,0,0.5,0v1.2c-0.3,0-0.3,0-0.5,0c-0.5,0-0.9,0.2-1.1,0.6
		c-0.2,0.3-0.2,0.7-0.2,1.4v3h-1.4v-6.2H558.1z"/>
	<path class="st2" d="M561.6,266.4c0.4,0.8,0.7,1,1.2,1c0.5,0,0.9-0.3,0.9-0.8c0-0.3-0.2-0.5-0.9-0.7l-0.6-0.3
		c-0.9-0.3-1.4-0.9-1.4-1.7c0-1.1,0.9-1.9,2.1-1.9c0.9,0,1.6,0.4,2.1,1.4l-1.1,0.5c-0.3-0.5-0.6-0.7-1-0.7c-0.5,0-0.8,0.3-0.8,0.6
		c0,0.3,0.1,0.4,0.9,0.7l0.6,0.2c1,0.4,1.5,0.9,1.5,1.7c0,1.2-1,2.1-2.3,2.1c-1.1,0-1.9-0.6-2.3-1.8L561.6,266.4z"/>
	<path class="st2" d="M567.6,262.3v0.5c0.7-0.5,1.2-0.7,1.9-0.7c1.7,0,3.2,1.5,3.2,3.3c0,1.8-1.4,3.3-3.1,3.3
		c-0.7,0-1.2-0.2-1.9-0.7v3.8h-1.4v-9.5H567.6z M567.6,265.4c0,1.2,0.7,2,1.8,2c1.1,0,1.8-0.8,1.8-2c0-1.2-0.8-2-1.8-2
		C568.3,263.4,567.6,264.2,567.6,265.4z"/>
	<path class="st2" d="M574.9,266c0.2,1,0.8,1.5,1.7,1.5c0.7,0,1.2-0.3,1.6-0.8c0,0,0-0.1,0.1-0.1c0,0,0-0.1,0.1-0.1l1.2,0.5
		c-0.7,1.2-1.7,1.8-2.9,1.8c-1.8,0-3.2-1.4-3.2-3.3c0-1.8,1.4-3.3,3.1-3.3c1.8,0,3,1.4,3,3.4v0.4H574.9z M578.2,264.9
		c-0.3-1-0.8-1.5-1.6-1.5c-0.9,0-1.5,0.6-1.7,1.5H578.2z"/>
	<path class="st2" d="M585.3,264.2c-0.6-0.7-1-0.9-1.6-0.9c-1.1,0-1.9,0.8-1.9,2s0.8,2,1.9,2c0.7,0,1.1-0.2,1.7-0.9l0.9,0.9
		c-0.8,0.9-1.6,1.3-2.6,1.3c-1.9,0-3.3-1.4-3.3-3.3c0-1.9,1.4-3.3,3.3-3.3c1,0,1.7,0.4,2.5,1.2L585.3,264.2z"/>
	<path class="st2" d="M591.2,266.4c0.4,0.8,0.7,1,1.2,1c0.5,0,0.9-0.3,0.9-0.8c0-0.3-0.2-0.5-0.9-0.7l-0.6-0.3
		c-0.9-0.3-1.4-0.9-1.4-1.7c0-1.1,0.9-1.9,2.1-1.9c0.9,0,1.6,0.4,2.1,1.4l-1.1,0.5c-0.3-0.5-0.6-0.7-1-0.7c-0.5,0-0.8,0.3-0.8,0.6
		c0,0.3,0.1,0.4,0.9,0.7l0.6,0.2c1,0.4,1.5,0.9,1.5,1.7c0,1.2-1,2.1-2.3,2.1c-1.1,0-1.9-0.6-2.3-1.8L591.2,266.4z"/>
	<path class="st2" d="M597.3,262.3v0.5c0.7-0.5,1.2-0.7,1.9-0.7c1.7,0,3.2,1.5,3.2,3.3c0,1.8-1.4,3.3-3.1,3.3
		c-0.7,0-1.2-0.2-1.9-0.7v3.8h-1.4v-9.5H597.3z M597.3,265.4c0,1.2,0.7,2,1.8,2c1.1,0,1.8-0.8,1.8-2c0-1.2-0.8-2-1.8-2
		C598,263.4,597.3,264.2,597.3,265.4z"/>
	<path class="st2" d="M604.5,266c0.2,1,0.8,1.5,1.7,1.5c0.7,0,1.2-0.3,1.6-0.8c0,0,0-0.1,0.1-0.1c0,0,0-0.1,0.1-0.1l1.2,0.5
		c-0.7,1.2-1.7,1.8-2.9,1.8c-1.8,0-3.2-1.4-3.2-3.3c0-1.8,1.4-3.3,3.1-3.3c1.8,0,3,1.4,3,3.4v0.4H604.5z M607.8,264.9
		c-0.3-1-0.8-1.5-1.6-1.5c-0.9,0-1.5,0.6-1.7,1.5H607.8z"/>
	<path class="st2" d="M614.9,264.2c-0.6-0.7-1-0.9-1.6-0.9c-1.1,0-1.9,0.8-1.9,2s0.8,2,1.9,2c0.7,0,1.1-0.2,1.7-0.9l0.9,0.9
		c-0.8,0.9-1.6,1.3-2.6,1.3c-1.9,0-3.3-1.4-3.3-3.3c0-1.9,1.4-3.3,3.3-3.3c1,0,1.7,0.4,2.5,1.2L614.9,264.2z"/>
	<path class="st2" d="M621.6,262.8c0.4-0.4,0.9-0.6,1.5-0.6c0.7,0,1.2,0.3,1.8,0.8c0.5-0.6,1.1-0.8,1.9-0.8c1,0,1.8,0.5,2.3,1.3
		c0.3,0.5,0.4,1,0.4,1.8v3.3H628v-3.2c0-0.7-0.1-1.1-0.2-1.4c-0.2-0.3-0.5-0.5-1-0.5c-0.5,0-0.9,0.2-1.1,0.6
		c-0.2,0.3-0.2,0.7-0.2,1.4v3.1h-1.4v-3.2c0-0.7-0.1-1.1-0.2-1.4c-0.2-0.3-0.5-0.5-1-0.5c-0.5,0-0.9,0.2-1.1,0.6
		c-0.2,0.3-0.2,0.7-0.2,1.4v3.1h-1.4v-6.2h1.4V262.8z"/>
	<path class="st2" d="M632.4,262.3v0.5c0.7-0.5,1.2-0.7,1.9-0.7c1.7,0,3.2,1.5,3.2,3.3c0,1.8-1.4,3.3-3.1,3.3
		c-0.7,0-1.2-0.2-1.9-0.7v3.8H631v-9.5H632.4z M632.4,265.4c0,1.2,0.7,2,1.8,2c1.1,0,1.8-0.8,1.8-2c0-1.2-0.8-2-1.8-2
		C633.1,263.4,632.4,264.2,632.4,265.4z"/>
	<path class="st2" d="M643.3,268.5V268c-0.7,0.5-1.2,0.7-1.9,0.7c-1.7,0-3.2-1.5-3.2-3.3c0-1.8,1.4-3.3,3.1-3.3
		c0.7,0,1.2,0.2,1.9,0.7v-3.7h1.4v9.3H643.3z M639.6,265.4c0,1.2,0.8,2,1.8,2s1.8-0.8,1.8-2c0-1.2-0.7-2-1.8-2
		C640.4,263.4,639.6,264.2,639.6,265.4z"/>
	<path class="st2" d="M650.4,268.5v-0.4c-0.4,0.4-1,0.6-1.6,0.6c-0.9,0-1.8-0.5-2.2-1.2c-0.3-0.4-0.4-1-0.4-1.8v-3.3h1.4v3.2
		c0,0.7,0.1,1,0.2,1.3c0.2,0.3,0.6,0.5,1.1,0.5c0.5,0,1-0.2,1.2-0.6c0.2-0.3,0.2-0.7,0.2-1.4v-3.1h1.4v6.2H650.4z"/>
	<path class="st2" d="M653.4,268.5v-9.3h1.4v9.3H653.4z"/>
	<path class="st2" d="M657.4,266c0.2,1,0.8,1.5,1.7,1.5c0.7,0,1.2-0.3,1.6-0.8c0,0,0-0.1,0.1-0.1c0,0,0-0.1,0.1-0.1l1.2,0.5
		c-0.7,1.2-1.7,1.8-2.9,1.8c-1.8,0-3.2-1.4-3.2-3.3c0-1.8,1.4-3.3,3.1-3.3c1.8,0,3,1.4,3,3.4v0.4H657.4z M660.7,264.9
		c-0.3-1-0.8-1.5-1.6-1.5c-0.9,0-1.5,0.6-1.7,1.5H660.7z"/>
	<path class="st2" d="M666.2,264.7v1.3h-2.9v-1.3H666.2z"/>
	<path class="st2" d="M668.5,268.5H667l3.5-9.3h1.8l3.5,9.3h-1.5l-0.9-2.4h-4L668.5,268.5z M672.9,264.8l-1.5-4.1l-1.5,4.1H672.9z"
		/>
</g>
<polygon class="st6" points="553.3,272 540.7,264.7 553.3,257.4 "/>
<g>
	<g>
		<line class="st8" x1="603.3" y1="228" x2="603.3" y2="237"/>
		<g>
			<polygon class="st2" points="607.7,236 598.2,236 602.9,240.7 			"/>
		</g>
	</g>
</g>
<path class="st3" d="M1046.7,394H781.1c-1.8,0-3.2-1.4-3.2-3.2V88.3c0-1.8,1.4-3.2,3.2-3.2h265.6c1.8,0,3.2,1.4,3.2,3.2v302.5
	C1049.9,392.6,1048.5,394,1046.7,394z"/>
<path class="st5" d="M1027.4,365.8H802.7c-1.8,0-3.2-1.5-3.2-3.2V147.3c0-1.8,1.5-3.2,3.2-3.2h224.7c1.8,0,3.2,1.5,3.2,3.2v215.2
	C1030.6,364.3,1029.1,365.8,1027.4,365.8z"/>
<g>
	<g class="st1">
		<path class="st2" d="M902,166c0,1.5-0.2,2.3-0.9,3c-0.6,0.6-1.4,1-2.4,1c-1.1,0-2.1-0.5-3.2-1.6l1.3-1.5c0.8,0.8,1.3,1.1,1.9,1.1
			c0.8,0,1.2-0.6,1.2-2v-8.3h2.1V166z"/>
		<path class="st2" d="M916.4,163.8c0,3.5-2.8,6.3-6.3,6.3c-3.4,0-6.2-2.9-6.2-6.4c0-3.3,2.9-6.2,6.3-6.2
			C913.6,157.5,916.4,160.3,916.4,163.8z M906,163.8c0,2.3,1.9,4.2,4.1,4.2c2.3,0,4.1-1.9,4.1-4.2c0-2.4-1.8-4.3-4.2-4.3
			C907.8,159.5,906,161.4,906,163.8z"/>
		<path class="st2" d="M918.3,157.8h2.8c1.4,0,2.3,0.2,3,0.7c0.8,0.6,1.3,1.6,1.3,2.6c0,0.9-0.3,1.5-1,2.2c1,0.6,1.6,1.7,1.6,2.9
			c0,1.1-0.5,2-1.3,2.7c-0.8,0.6-1.6,0.8-3,0.8h-3.3V157.8z M921.2,162.7c0.8,0,1.2-0.1,1.5-0.4c0.3-0.3,0.5-0.7,0.5-1.2
			c0-0.5-0.2-0.9-0.5-1.2c-0.3-0.2-0.8-0.3-1.5-0.3h-0.9v3H921.2z M921.5,167.8c0.9,0,1.3-0.1,1.7-0.4c0.4-0.3,0.6-0.7,0.6-1.2
			c0-0.6-0.3-1.1-0.7-1.3c-0.4-0.2-0.8-0.3-1.7-0.3h-1v3.3H921.5z"/>
	</g>
</g>
<path class="st6" d="M1015,221.4H821.7c-1.7,0-3-1.3-3-3v-29.1c0-1.7,1.3-3,3-3H1015c1.7,0,3,1.3,3,3v29.1
	C1018,220,1016.7,221.4,1015,221.4z"/>
<g>
	<path class="st7" d="M815.7,219.9c-0.9,0-1.5-0.6-1.5-1.5v-29.1c0-0.9,0.6-1.5,1.5-1.5h43.4v32.1H815.7z"/>
	<path class="st2" d="M857.6,189.3v29.1h-41.9v-29.1H857.6 M860.6,186.3h-44.9c-1.7,0-3,1.3-3,3v29.1c0,1.7,1.3,3,3,3h44.9V186.3
		L860.6,186.3z"/>
</g>
<g class="st1">
	<path class="st5" d="M825.1,208.5h-1.8v-8.4h-2.4v-1.6h6.7v1.6h-2.4V208.5z"/>
	<path class="st5" d="M829.5,206l-0.9,2.5h-1.9l3.7-10h2.2l3.7,10h-1.9l-0.9-2.5H829.5z M831.6,200.3l-1.5,4h2.9L831.6,200.3z"/>
	<path class="st5" d="M841.9,201.1c-0.6-0.9-0.9-1.2-1.6-1.2c-0.8,0-1.4,0.5-1.4,1.3c0,0.5,0.4,0.9,1.2,1.2l0.9,0.4
		c1.7,0.6,2.5,1.5,2.5,2.8c0,1.8-1.5,3.2-3.4,3.2c-1.3,0-2.5-0.7-3-1.9c-0.1-0.3-0.1-0.3-0.3-1.1l1.7-0.5c0.2,0.8,0.2,0.8,0.3,1
		c0.3,0.5,0.8,0.8,1.4,0.8c0.9,0,1.6-0.7,1.6-1.5c0-0.6-0.4-0.9-1.4-1.3l-0.9-0.3c-1.5-0.6-2.2-1.5-2.2-2.7c0-1.6,1.4-2.9,3.2-2.9
		c0.9,0,1.7,0.3,2.3,0.9c0.3,0.3,0.3,0.4,0.7,1L841.9,201.1z"/>
	<path class="st5" d="M852.9,208.5h-2.1l-3-4.5l-1,1.1v3.4h-1.8v-10h1.8v4.2l3.9-4.2h2.2l-3.9,4.2L852.9,208.5z"/>
</g>
<g class="st1">
	<path class="st2" d="M873.4,207.5V207c-0.7,0.5-1.2,0.7-1.9,0.7c-1.7,0-3.2-1.5-3.2-3.3c0-1.8,1.4-3.3,3.1-3.3
		c0.7,0,1.2,0.2,1.9,0.7v-0.5h1.4v6.2H873.4z M869.7,204.4c0,1.2,0.8,2,1.8,2c1.1,0,1.8-0.8,1.8-2.1c0-1.2-0.8-2-1.8-2
		C870.5,202.4,869.7,203.2,869.7,204.4z"/>
	<path class="st2" d="M877.7,201.3v0.4c0.4-0.4,1-0.6,1.6-0.6c0.9,0,1.8,0.5,2.2,1.2c0.3,0.4,0.4,1,0.4,1.8v3.3h-1.4v-3.2
		c0-0.7-0.1-1-0.2-1.3c-0.2-0.3-0.6-0.5-1.1-0.5c-0.5,0-1,0.2-1.2,0.6c-0.2,0.3-0.2,0.7-0.2,1.4v3.1h-1.4v-6.2H877.7z"/>
	<path class="st2" d="M885.9,202.6h-1v3c0,0.5,0.1,0.8,0.4,0.8c0.2,0,0.3,0,0.7-0.1v1.3c-0.4,0.1-0.6,0.1-0.8,0.1
		c-1,0-1.6-0.7-1.6-2.1v-3h-0.7v-1.3h0.7V200l1.4-0.6v1.9h1V202.6z"/>
	<path class="st2" d="M893,203.7v1.3h-2.9v-1.3H893z"/>
	<path class="st2" d="M896.5,198.2c3.1,0,5.1,1.8,5.1,4.7c0,2.9-1.9,4.7-5.1,4.7h-2.1v-9.3H896.5z M895.9,206.2h0.7
		c2.2,0,3.6-1.3,3.6-3.3c0-2-1.4-3.3-3.6-3.3h-0.7V206.2z"/>
	<path class="st2" d="M904.2,201.8c0.4-0.4,0.9-0.6,1.5-0.6c0.7,0,1.2,0.3,1.8,0.8c0.5-0.6,1.1-0.8,1.9-0.8c1,0,1.8,0.5,2.3,1.3
		c0.3,0.5,0.4,1,0.4,1.8v3.3h-1.4v-3.2c0-0.7-0.1-1.1-0.2-1.4c-0.2-0.3-0.5-0.5-1-0.5c-0.5,0-0.9,0.2-1.1,0.6
		c-0.2,0.3-0.2,0.7-0.2,1.4v3.1h-1.4v-3.2c0-0.7-0.1-1.1-0.2-1.4c-0.2-0.3-0.5-0.5-1-0.5c-0.5,0-0.9,0.2-1.1,0.6
		c-0.2,0.3-0.2,0.7-0.2,1.4v3.1h-1.4v-6.2h1.4V201.8z"/>
	<path class="st2" d="M919.8,204.4c0,1.9-1.4,3.3-3.3,3.3c-1.8,0-3.3-1.4-3.3-3.3c0-1.9,1.4-3.3,3.3-3.3
		C918.4,201.1,919.8,202.6,919.8,204.4z M914.7,204.4c0,1.2,0.8,2,1.8,2c1.1,0,1.8-0.8,1.8-2.1c0-1.2-0.8-2-1.9-2
		C915.4,202.4,914.7,203.2,914.7,204.4z"/>
	<path class="st2" d="M925.6,207.5V207c-0.7,0.5-1.2,0.7-1.9,0.7c-1.7,0-3.2-1.5-3.2-3.3c0-1.8,1.4-3.3,3.1-3.3
		c0.7,0,1.2,0.2,1.9,0.7v-3.7h1.4v9.3H925.6z M922,204.4c0,1.2,0.8,2,1.8,2s1.8-0.8,1.8-2c0-1.2-0.7-2-1.8-2
		C922.8,202.4,922,203.2,922,204.4z"/>
	<path class="st2" d="M932.8,207.5v-0.4c-0.4,0.4-1,0.6-1.6,0.6c-0.9,0-1.8-0.5-2.2-1.2c-0.3-0.4-0.4-1-0.4-1.8v-3.3h1.4v3.2
		c0,0.7,0.1,1,0.2,1.3c0.2,0.3,0.6,0.5,1.1,0.5c0.5,0,1-0.2,1.2-0.6c0.2-0.3,0.2-0.7,0.2-1.4v-3.1h1.4v6.2H932.8z"/>
	<path class="st2" d="M935.7,207.5v-9.3h1.4v9.3H935.7z"/>
	<path class="st2" d="M939.8,205c0.2,1,0.8,1.5,1.7,1.5c0.7,0,1.2-0.3,1.6-0.8c0,0,0-0.1,0.1-0.1c0,0,0-0.1,0.1-0.1l1.2,0.5
		c-0.7,1.2-1.7,1.8-2.9,1.8c-1.8,0-3.2-1.4-3.2-3.3c0-1.8,1.4-3.3,3.1-3.3c1.8,0,3,1.4,3,3.4v0.4H939.8z M943.1,203.9
		c-0.3-1-0.8-1.5-1.6-1.5c-0.9,0-1.5,0.6-1.7,1.5H943.1z"/>
	<path class="st2" d="M951.8,202.7h-6v-1.2h6V202.7z M951.8,204.8h-6v-1.2h6V204.8z"/>
	<path class="st2" d="M954.2,207.5h-1.5l3.5-9.3h1.8l3.5,9.3h-1.5l-0.9-2.4h-4L954.2,207.5z M958.6,203.8l-1.5-4.1l-1.5,4.1H958.6z"
		/>
	<path class="st2" d="M970.1,203.2c-0.6-0.7-1-0.9-1.6-0.9c-1.1,0-1.9,0.8-1.9,2s0.8,2,1.9,2c0.7,0,1.1-0.2,1.7-0.9l0.9,0.9
		c-0.8,0.9-1.6,1.3-2.6,1.3c-1.9,0-3.3-1.4-3.3-3.3c0-1.9,1.4-3.3,3.3-3.3c1,0,1.7,0.4,2.5,1.2L970.1,203.2z"/>
	<path class="st2" d="M978,204.4c0,1.9-1.4,3.3-3.3,3.3c-1.8,0-3.3-1.4-3.3-3.3c0-1.9,1.4-3.3,3.3-3.3
		C976.6,201.1,978,202.6,978,204.4z M972.9,204.4c0,1.2,0.8,2,1.8,2c1.1,0,1.8-0.8,1.8-2.1c0-1.2-0.8-2-1.9-2
		C973.6,202.4,972.9,203.2,972.9,204.4z"/>
	<path class="st2" d="M980.6,201.8c0.4-0.4,0.9-0.6,1.5-0.6c0.7,0,1.2,0.3,1.8,0.8c0.5-0.6,1.1-0.8,1.9-0.8c1,0,1.8,0.5,2.3,1.3
		c0.3,0.5,0.4,1,0.4,1.8v3.3H987v-3.2c0-0.7-0.1-1.1-0.2-1.4c-0.2-0.3-0.5-0.5-1-0.5c-0.5,0-0.9,0.2-1.1,0.6
		c-0.2,0.3-0.2,0.7-0.2,1.4v3.1h-1.4v-3.2c0-0.7-0.1-1.1-0.2-1.4c-0.2-0.3-0.5-0.5-1-0.5c-0.5,0-0.9,0.2-1.1,0.6
		c-0.2,0.3-0.2,0.7-0.2,1.4v3.1h-1.4v-6.2h1.4V201.8z"/>
	<path class="st2" d="M991.4,201.3v0.5c0.7-0.5,1.2-0.7,1.9-0.7c1.7,0,3.2,1.5,3.2,3.3c0,1.8-1.4,3.3-3.1,3.3
		c-0.7,0-1.2-0.2-1.9-0.7v3.8H990v-9.5H991.4z M991.4,204.4c0,1.2,0.7,2,1.8,2c1.1,0,1.8-0.8,1.8-2c0-1.2-0.8-2-1.8-2
		S991.4,203.2,991.4,204.4z"/>
	<path class="st2" d="M999.2,199.2c0,0.5-0.4,0.9-0.9,0.9c-0.5,0-0.9-0.4-0.9-0.9c0-0.5,0.4-0.9,0.9-0.9
		C998.8,198.3,999.2,198.7,999.2,199.2z M999,207.5h-1.4v-6.2h1.4V207.5z"/>
	<path class="st2" d="M1000.6,207.5v-9.3h1.4v9.3H1000.6z"/>
	<path class="st2" d="M1004.6,205c0.2,1,0.8,1.5,1.7,1.5c0.7,0,1.2-0.3,1.6-0.8c0,0,0-0.1,0.1-0.1c0,0,0-0.1,0.1-0.1l1.2,0.5
		c-0.7,1.2-1.7,1.8-2.9,1.8c-1.8,0-3.2-1.4-3.2-3.3c0-1.8,1.4-3.3,3.1-3.3c1.8,0,3,1.4,3,3.4v0.4H1004.6z M1007.9,203.9
		c-0.3-1-0.8-1.5-1.6-1.5c-0.9,0-1.5,0.6-1.7,1.5H1007.9z"/>
</g>
<polygon class="st6" points="865.3,211 852.7,203.7 865.3,196.4 "/>
<path class="st6" d="M1015,282.4H821.7c-1.7,0-3-1.3-3-3v-29.1c0-1.7,1.3-3,3-3H1015c1.7,0,3,1.3,3,3v29.1
	C1018,281,1016.7,282.4,1015,282.4z"/>
<g>
	<path class="st7" d="M815.7,280.9c-0.9,0-1.5-0.6-1.5-1.5v-29.1c0-0.9,0.6-1.5,1.5-1.5h43.4v32.1H815.7z"/>
	<path class="st2" d="M857.6,250.3v29.1h-41.9v-29.1L857.6,250.3 M860.6,247.3h-44.9c-1.7,0-3,1.3-3,3v29.1c0,1.7,1.3,3,3,3h44.9
		V247.3L860.6,247.3z"/>
</g>
<g class="st1">
	<path class="st5" d="M825.1,269.5h-1.8v-8.4h-2.4v-1.6h6.7v1.6h-2.4V269.5z"/>
	<path class="st5" d="M829.5,267l-0.9,2.5h-1.9l3.7-10h2.2l3.7,10h-1.9l-0.9-2.5H829.5z M831.6,261.3l-1.5,4h2.9L831.6,261.3z"/>
	<path class="st5" d="M841.9,262.1c-0.6-0.9-0.9-1.2-1.6-1.2c-0.8,0-1.4,0.5-1.4,1.3c0,0.5,0.4,0.9,1.2,1.2l0.9,0.4
		c1.7,0.6,2.5,1.5,2.5,2.8c0,1.8-1.5,3.2-3.4,3.2c-1.3,0-2.5-0.7-3-1.9c-0.1-0.3-0.1-0.3-0.3-1.1l1.7-0.5c0.2,0.8,0.2,0.8,0.3,1
		c0.3,0.5,0.8,0.8,1.4,0.8c0.9,0,1.6-0.7,1.6-1.5c0-0.6-0.4-0.9-1.4-1.3l-0.9-0.3c-1.5-0.6-2.2-1.5-2.2-2.7c0-1.6,1.4-2.9,3.2-2.9
		c0.9,0,1.7,0.3,2.3,0.9c0.3,0.3,0.3,0.4,0.7,1L841.9,262.1z"/>
	<path class="st5" d="M852.9,269.5h-2.1l-3-4.5l-1,1.1v3.4h-1.8v-10h1.8v4.2l3.9-4.2h2.2l-3.9,4.2L852.9,269.5z"/>
</g>
<g class="st1">
	<path class="st2" d="M870.1,262.3v0.5c0.5-0.4,0.8-0.5,1.3-0.5c0.2,0,0.3,0,0.5,0v1.2c-0.3,0-0.3,0-0.5,0c-0.5,0-0.9,0.2-1.1,0.6
		c-0.2,0.3-0.2,0.7-0.2,1.4v3h-1.4v-6.2H870.1z"/>
	<path class="st2" d="M877.4,268.5V268c-0.7,0.5-1.2,0.7-1.9,0.7c-1.7,0-3.2-1.5-3.2-3.3c0-1.8,1.4-3.3,3.1-3.3
		c0.7,0,1.2,0.2,1.9,0.7v-0.5h1.4v6.2H877.4z M873.8,265.4c0,1.2,0.8,2,1.8,2c1.1,0,1.8-0.8,1.8-2.1c0-1.2-0.8-2-1.8-2
		C874.5,263.4,873.8,264.2,873.8,265.4z"/>
	<path class="st2" d="M886.3,268.5h-1.7l-2.1-2.7l-0.8,0.7v2h-1.4v-9.3h1.4v5.6l2.5-2.5h1.8l-2.6,2.6L886.3,268.5z"/>
	<path class="st2" d="M887.8,266c0.2,1,0.8,1.5,1.7,1.5c0.7,0,1.2-0.3,1.6-0.8c0,0,0-0.1,0.1-0.1c0,0,0-0.1,0.1-0.1l1.2,0.5
		c-0.7,1.2-1.7,1.8-2.9,1.8c-1.8,0-3.2-1.4-3.2-3.3c0-1.8,1.4-3.3,3.1-3.3c1.8,0,3,1.4,3,3.4v0.4H887.8z M891.1,264.9
		c-0.3-1-0.8-1.5-1.6-1.5c-0.9,0-1.5,0.6-1.7,1.5H891.1z"/>
	<path class="st2" d="M901.5,264.2c-0.6-0.7-1-0.9-1.6-0.9c-1.1,0-1.9,0.8-1.9,2s0.8,2,1.9,2c0.7,0,1.1-0.2,1.7-0.9l0.9,0.9
		c-0.8,0.9-1.6,1.3-2.6,1.3c-1.9,0-3.3-1.4-3.3-3.3c0-1.9,1.4-3.3,3.3-3.3c1,0,1.7,0.4,2.5,1.2L901.5,264.2z"/>
	<path class="st2" d="M904.8,262.3v0.5c0.5-0.4,0.8-0.5,1.3-0.5c0.2,0,0.3,0,0.5,0v1.2c-0.3,0-0.3,0-0.5,0c-0.5,0-0.9,0.2-1.1,0.6
		c-0.2,0.3-0.2,0.7-0.2,1.4v3h-1.4v-6.2H904.8z"/>
	<path class="st2" d="M908.5,266c0.2,1,0.8,1.5,1.7,1.5c0.7,0,1.2-0.3,1.6-0.8c0,0,0-0.1,0.1-0.1c0,0,0-0.1,0.1-0.1l1.2,0.5
		c-0.7,1.2-1.7,1.8-2.9,1.8c-1.8,0-3.2-1.4-3.2-3.3c0-1.8,1.4-3.3,3.1-3.3c1.8,0,3,1.4,3,3.4v0.4H908.5z M911.8,264.9
		c-0.3-1-0.8-1.5-1.6-1.5c-0.9,0-1.5,0.6-1.7,1.5H911.8z"/>
	<path class="st2" d="M919,268.5V268c-0.7,0.5-1.2,0.7-1.9,0.7c-1.7,0-3.2-1.5-3.2-3.3c0-1.8,1.4-3.3,3.1-3.3c0.7,0,1.2,0.2,1.9,0.7
		v-0.5h1.4v6.2H919z M915.4,265.4c0,1.2,0.8,2,1.8,2c1.1,0,1.8-0.8,1.8-2.1c0-1.2-0.8-2-1.8-2C916.2,263.4,915.4,264.2,915.4,265.4z
		"/>
	<path class="st2" d="M924.5,263.6h-1v3c0,0.5,0.1,0.8,0.4,0.8c0.2,0,0.3,0,0.7-0.1v1.3c-0.3,0.1-0.6,0.1-0.8,0.1
		c-1,0-1.6-0.7-1.6-2.1v-3h-0.7v-1.3h0.7V261l1.4-0.6v1.9h1V263.6z"/>
	<path class="st2" d="M926.7,266c0.2,1,0.8,1.5,1.7,1.5c0.7,0,1.2-0.3,1.6-0.8c0,0,0-0.1,0.1-0.1c0,0,0-0.1,0.1-0.1l1.2,0.5
		c-0.7,1.2-1.7,1.8-2.9,1.8c-1.8,0-3.2-1.4-3.2-3.3c0-1.8,1.4-3.3,3.1-3.3c1.8,0,3,1.4,3,3.4v0.4H926.7z M930,264.9
		c-0.3-1-0.8-1.5-1.6-1.5c-0.9,0-1.5,0.6-1.7,1.5H930z"/>
	<path class="st2" d="M939,269.3v1.3h-7.4v-1.3H939z"/>
	<path class="st2" d="M944.4,268.5V268c-0.7,0.5-1.2,0.7-1.9,0.7c-1.7,0-3.2-1.5-3.2-3.3c0-1.8,1.4-3.3,3.1-3.3
		c0.7,0,1.2,0.2,1.9,0.7v-3.7h1.4v9.3H944.4z M940.7,265.4c0,1.2,0.8,2,1.8,2c1.1,0,1.8-0.8,1.8-2c0-1.2-0.7-2-1.8-2
		C941.5,263.4,940.7,264.2,940.7,265.4z"/>
	<path class="st2" d="M953.5,265.4c0,1.9-1.4,3.3-3.3,3.3c-1.8,0-3.3-1.4-3.3-3.3c0-1.9,1.4-3.3,3.3-3.3
		C952,262.1,953.5,263.6,953.5,265.4z M948.4,265.4c0,1.2,0.8,2,1.8,2c1.1,0,1.8-0.8,1.8-2.1c0-1.2-0.8-2-1.9-2
		C949.1,263.4,948.4,264.2,948.4,265.4z"/>
	<path class="st2" d="M959.2,264.2c-0.6-0.7-1-0.9-1.6-0.9c-1.1,0-1.9,0.8-1.9,2s0.8,2,1.9,2c0.7,0,1.1-0.2,1.7-0.9l0.9,0.9
		c-0.8,0.9-1.6,1.3-2.6,1.3c-1.9,0-3.3-1.4-3.3-3.3c0-1.9,1.4-3.3,3.3-3.3c1,0,1.7,0.4,2.5,1.2L959.2,264.2z"/>
	<path class="st2" d="M961.8,266.4c0.4,0.8,0.7,1,1.2,1c0.5,0,0.9-0.3,0.9-0.8c0-0.3-0.2-0.5-0.9-0.7l-0.6-0.3
		c-0.9-0.3-1.4-0.9-1.4-1.7c0-1.1,0.9-1.9,2.1-1.9c0.9,0,1.6,0.4,2.1,1.4l-1.1,0.5c-0.3-0.5-0.6-0.7-1-0.7c-0.5,0-0.8,0.3-0.8,0.6
		c0,0.3,0.1,0.4,0.9,0.7l0.6,0.2c1,0.4,1.5,0.9,1.5,1.7c0,1.2-1,2.1-2.3,2.1c-1.1,0-1.9-0.6-2.3-1.8L961.8,266.4z"/>
</g>
<polygon class="st6" points="865.3,272 852.7,264.7 865.3,257.4 "/>
<path class="st6" d="M1015,343.4H821.7c-1.7,0-3-1.3-3-3v-29.1c0-1.7,1.3-3,3-3H1015c1.7,0,3,1.3,3,3v29.1
	C1018,342,1016.7,343.4,1015,343.4z"/>
<g>
	<path class="st7" d="M815.7,341.9c-0.9,0-1.5-0.6-1.5-1.5v-29.1c0-0.9,0.6-1.5,1.5-1.5h43.4v32.1H815.7z"/>
	<path class="st2" d="M857.6,311.3v29.1h-41.9v-29.1H857.6 M860.6,308.3h-44.9c-1.7,0-3,1.3-3,3v29.1c0,1.7,1.3,3,3,3h44.9V308.3
		L860.6,308.3z"/>
</g>
<g class="st1">
	<path class="st5" d="M825.1,330.5h-1.8v-8.4h-2.4v-1.6h6.7v1.6h-2.4V330.5z"/>
	<path class="st5" d="M829.5,328l-0.9,2.5h-1.9l3.7-10h2.2l3.7,10h-1.9l-0.9-2.5H829.5z M831.6,322.3l-1.5,4h2.9L831.6,322.3z"/>
	<path class="st5" d="M841.9,323.1c-0.6-0.9-0.9-1.2-1.6-1.2c-0.8,0-1.4,0.5-1.4,1.3c0,0.5,0.4,0.9,1.2,1.2l0.9,0.4
		c1.7,0.6,2.5,1.5,2.5,2.8c0,1.8-1.5,3.2-3.4,3.2c-1.3,0-2.5-0.7-3-1.9c-0.1-0.3-0.1-0.3-0.3-1.1l1.7-0.5c0.2,0.8,0.2,0.8,0.3,1
		c0.3,0.5,0.8,0.8,1.4,0.8c0.9,0,1.6-0.7,1.6-1.5c0-0.6-0.4-0.9-1.4-1.3l-0.9-0.3c-1.5-0.6-2.2-1.5-2.2-2.7c0-1.6,1.4-2.9,3.2-2.9
		c0.9,0,1.7,0.3,2.3,0.9c0.3,0.3,0.3,0.4,0.7,1L841.9,323.1z"/>
	<path class="st5" d="M852.9,330.5h-2.1l-3-4.5l-1,1.1v3.4h-1.8v-10h1.8v4.2l3.9-4.2h2.2l-3.9,4.2L852.9,330.5z"/>
</g>
<g class="st1">
	<path class="st2" d="M873.2,325.2c-0.6-0.7-1-0.9-1.6-0.9c-1.1,0-1.9,0.8-1.9,2s0.8,2,1.9,2c0.7,0,1.1-0.2,1.7-0.9l0.9,0.9
		c-0.8,0.9-1.6,1.3-2.6,1.3c-1.9,0-3.3-1.4-3.3-3.3c0-1.9,1.4-3.3,3.3-3.3c1,0,1.7,0.4,2.5,1.2L873.2,325.2z"/>
	<path class="st2" d="M876.6,323.3v0.5c0.5-0.4,0.8-0.5,1.3-0.5c0.2,0,0.3,0,0.5,0v1.2c-0.3,0-0.4,0-0.5,0c-0.5,0-0.9,0.2-1.1,0.6
		c-0.2,0.3-0.2,0.7-0.2,1.4v3h-1.4v-6.2H876.6z"/>
	<path class="st2" d="M880.3,327c0.2,1,0.8,1.5,1.7,1.5c0.7,0,1.2-0.3,1.6-0.8c0,0,0-0.1,0.1-0.1c0,0,0-0.1,0.1-0.1l1.2,0.5
		c-0.7,1.2-1.7,1.8-2.9,1.8c-1.8,0-3.2-1.4-3.2-3.3c0-1.8,1.4-3.3,3.1-3.3c1.8,0,3,1.4,3,3.4v0.4H880.3z M883.6,325.9
		c-0.3-1-0.8-1.5-1.6-1.5c-0.9,0-1.5,0.6-1.7,1.5H883.6z"/>
	<path class="st2" d="M890.8,329.5V329c-0.7,0.5-1.2,0.7-1.9,0.7c-1.7,0-3.2-1.5-3.2-3.3c0-1.8,1.4-3.3,3.1-3.3
		c0.7,0,1.2,0.2,1.9,0.7v-0.5h1.4v6.2H890.8z M887.2,326.4c0,1.2,0.8,2,1.8,2c1.1,0,1.8-0.8,1.8-2.1c0-1.2-0.8-2-1.8-2
		C887.9,324.4,887.2,325.2,887.2,326.4z"/>
	<path class="st2" d="M896.3,324.6h-1v3c0,0.5,0.1,0.8,0.4,0.8c0.2,0,0.3,0,0.7-0.1v1.3c-0.4,0.1-0.6,0.1-0.8,0.1
		c-1,0-1.6-0.7-1.6-2.1v-3h-0.7v-1.3h0.7V322l1.4-0.6v1.9h1V324.6z"/>
	<path class="st2" d="M898.4,327c0.2,1,0.8,1.5,1.7,1.5c0.7,0,1.2-0.3,1.6-0.8c0,0,0-0.1,0.1-0.1c0,0,0-0.1,0.1-0.1l1.2,0.5
		c-0.7,1.2-1.7,1.8-2.9,1.8c-1.8,0-3.2-1.4-3.2-3.3c0-1.8,1.4-3.3,3.1-3.3c1.8,0,3,1.4,3,3.4v0.4H898.4z M901.7,325.9
		c-0.3-1-0.8-1.5-1.6-1.5c-0.9,0-1.5,0.6-1.7,1.5H901.7z"/>
	<path class="st2" d="M910.8,330.3v1.3h-7.4v-1.3H910.8z"/>
	<path class="st2" d="M912.9,323.3v0.5c0.7-0.5,1.2-0.7,1.9-0.7c1.7,0,3.2,1.5,3.2,3.3c0,1.8-1.4,3.3-3.1,3.3
		c-0.7,0-1.2-0.2-1.9-0.7v3.8h-1.4v-9.5H912.9z M912.9,326.4c0,1.2,0.7,2,1.8,2c1.1,0,1.8-0.8,1.8-2c0-1.2-0.8-2-1.8-2
		C913.6,324.4,912.9,325.2,912.9,326.4z"/>
	<path class="st2" d="M923.8,329.5V329c-0.7,0.5-1.2,0.7-1.9,0.7c-1.7,0-3.2-1.5-3.2-3.3c0-1.8,1.4-3.3,3.1-3.3
		c0.7,0,1.2,0.2,1.9,0.7v-0.5h1.4v6.2H923.8z M920.1,326.4c0,1.2,0.8,2,1.8,2c1.1,0,1.8-0.8,1.8-2.1c0-1.2-0.8-2-1.8-2
		C920.9,324.4,920.1,325.2,920.1,326.4z"/>
	<path class="st2" d="M931.3,325.2c-0.6-0.7-1-0.9-1.6-0.9c-1.1,0-1.9,0.8-1.9,2s0.8,2,1.9,2c0.7,0,1.1-0.2,1.7-0.9l0.9,0.9
		c-0.8,0.9-1.6,1.3-2.6,1.3c-1.9,0-3.3-1.4-3.3-3.3c0-1.9,1.4-3.3,3.3-3.3c1,0,1.7,0.4,2.5,1.2L931.3,325.2z"/>
	<path class="st2" d="M939.1,329.5h-1.7l-2.1-2.7l-0.8,0.7v2h-1.4v-9.3h1.4v5.6l2.5-2.5h1.8l-2.6,2.6L939.1,329.5z"/>
	<path class="st2" d="M944.1,329.5V329c-0.7,0.5-1.2,0.7-1.9,0.7c-1.7,0-3.2-1.5-3.2-3.3c0-1.8,1.4-3.3,3.1-3.3
		c0.7,0,1.2,0.2,1.9,0.7v-0.5h1.4v6.2H944.1z M940.5,326.4c0,1.2,0.8,2,1.8,2c1.1,0,1.8-0.8,1.8-2.1c0-1.2-0.8-2-1.8-2
		C941.2,324.4,940.5,325.2,940.5,326.4z"/>
	<path class="st2" d="M953.1,329.7c0,2-1.3,3.3-3.3,3.3c-0.9,0-1.8-0.3-2.4-0.9c-0.1-0.1-0.3-0.3-0.6-0.6l0.9-0.9
		c0.1,0.1,0.1,0.1,0.2,0.2c0.7,0.8,1.1,1,1.9,1c1.2,0,1.9-0.8,1.9-2.1V329c-0.5,0.5-1.1,0.7-1.8,0.7c-1.8,0-3.2-1.5-3.2-3.3
		c0-1.8,1.4-3.3,3.2-3.3c0.7,0,1.3,0.2,1.8,0.7v-0.5h1.4V329.7z M948.1,326.4c0,1.2,0.8,2,1.8,2c1.1,0,1.8-0.8,1.8-2.1
		c0-1.2-0.7-2-1.8-2C948.8,324.4,948.1,325.2,948.1,326.4z"/>
	<path class="st2" d="M955.7,327c0.2,1,0.8,1.5,1.7,1.5c0.7,0,1.2-0.3,1.6-0.8c0,0,0-0.1,0.1-0.1c0,0,0-0.1,0.1-0.1l1.2,0.5
		c-0.7,1.2-1.7,1.8-2.9,1.8c-1.8,0-3.2-1.4-3.2-3.3c0-1.8,1.4-3.3,3.1-3.3c1.8,0,3,1.4,3,3.4v0.4H955.7z M959,325.9
		c-0.3-1-0.8-1.5-1.6-1.5c-0.9,0-1.5,0.6-1.7,1.5H959z"/>
	<path class="st2" d="M963.3,328.8c0,0.5-0.4,0.9-0.9,0.9c-0.5,0-0.9-0.4-0.9-0.9c0-0.5,0.4-0.9,0.9-0.9
		C962.9,327.9,963.3,328.3,963.3,328.8z"/>
	<path class="st2" d="M965.6,327.4c0.4,0.8,0.7,1,1.2,1c0.5,0,0.9-0.3,0.9-0.8c0-0.3-0.2-0.5-0.9-0.7l-0.6-0.3
		c-0.9-0.3-1.4-0.9-1.4-1.7c0-1.1,0.9-1.9,2.1-1.9c0.9,0,1.6,0.4,2.1,1.4l-1.1,0.5c-0.3-0.5-0.6-0.7-1-0.7c-0.5,0-0.8,0.3-0.8,0.6
		c0,0.3,0.1,0.4,0.9,0.7l0.6,0.2c1,0.4,1.5,0.9,1.5,1.7c0,1.2-1,2.1-2.3,2.1c-1.1,0-1.9-0.6-2.3-1.8L965.6,327.4z"/>
	<path class="st2" d="M971.6,320.2v3.6c0.5-0.4,1-0.6,1.6-0.6c0.9,0,1.8,0.5,2.2,1.2c0.3,0.4,0.4,1,0.4,1.8v3.3h-1.4v-3.2
		c0-0.7-0.1-1-0.2-1.3c-0.2-0.4-0.6-0.5-1.1-0.5c-0.5,0-1,0.2-1.2,0.6c-0.2,0.3-0.2,0.7-0.2,1.4v3.1h-1.4v-9.3H971.6z"/>
</g>
<polygon class="st6" points="865.3,333 852.7,325.7 865.3,318.4 "/>
<g>
	<g>
		<line class="st8" x1="915.3" y1="228" x2="915.3" y2="237"/>
		<g>
			<polygon class="st2" points="919.7,236 910.2,236 914.9,240.7 			"/>
		</g>
	</g>
</g>
<g>
	<g>
		<line class="st8" x1="915.3" y1="291" x2="915.3" y2="300"/>
		<g>
			<polygon class="st2" points="919.7,299 910.2,299 914.9,303.7 			"/>
		</g>
	</g>
</g>
<rect y="319.5" class="st10" width="107.9" height="53.6"/>
<g>
	<g class="st1">
		<path class="st4" d="M14.3,323.3H12v7.6h-1.9v-7.6H7.9v-1.7h6.3V323.3z"/>
		<path class="st4" d="M16.9,325.3h3.5v-3.8h1.9v9.3h-1.9V327h-3.5v3.9h-1.9v-9.3h1.9V325.3z"/>
		<path class="st4" d="M29.6,323.3h-3.5v2h3.1v1.7h-3.1v2.1h3.6v1.7h-5.5v-9.3h5.4V323.3z"/>
		<path class="st4" d="M35.4,324.2c-0.6-0.9-0.9-1.1-1.4-1.1c-0.7,0-1.1,0.4-1.1,1.1c0,0.4,0.3,0.7,1,1l0.9,0.3
			c1.6,0.6,2.3,1.5,2.3,2.7c0,1.7-1.4,3.1-3.2,3.1c-1,0-1.9-0.4-2.5-1.1c-0.4-0.5-0.6-0.9-0.7-1.8l1.8-0.5c0.2,0.6,0.2,0.9,0.4,1.1
			c0.3,0.4,0.6,0.6,1.1,0.6c0.8,0,1.3-0.6,1.3-1.3c0-0.5-0.3-0.8-1.3-1.1l-0.8-0.3c-1.4-0.5-2.1-1.4-2.1-2.5c0-1.6,1.3-2.8,3.1-2.8
			c1.3,0,2.1,0.5,2.9,1.8L35.4,324.2z"/>
		<path class="st4" d="M43.8,323.3h-3.5v2h3.1v1.7h-3.1v2.1h3.6v1.7h-5.5v-9.3h5.4V323.3z"/>
		<path class="st4" d="M52.5,328c0,0.9-0.1,1.4-0.4,2c-0.4,0.7-1.2,1.2-2.2,1.2c-1,0-1.7-0.4-2.6-1.3l1.1-1.3c0.6,0.6,1,0.9,1.4,0.9
			c0.5,0,0.8-0.4,0.8-1.4v-6.4h1.9V328z"/>
		<path class="st4" d="M63.7,326.2c0,2.7-2.2,4.9-4.9,4.9c-2.7,0-4.9-2.2-4.9-5c0-2.6,2.3-4.8,4.9-4.8
			C61.5,321.3,63.7,323.5,63.7,326.2z M55.7,326.3c0,1.7,1.4,3.1,3,3.1c1.7,0,3-1.4,3-3.1c0-1.8-1.4-3.2-3.1-3.2
			S55.7,324.5,55.7,326.3z"/>
		<path class="st4" d="M65,321.6h2.2c1,0,1.6,0.1,2.1,0.4c0.8,0.4,1.3,1.3,1.3,2.2c0,0.7-0.2,1.2-0.8,1.7c0.8,0.5,1.2,1.3,1.2,2.2
			c0,1-0.5,1.8-1.4,2.4c-0.5,0.3-1.1,0.4-2,0.4H65V321.6z M67.4,325.4c0.5,0,0.8,0,1-0.2c0.3-0.2,0.5-0.5,0.5-0.9
			c0-0.3-0.1-0.6-0.3-0.8c-0.2-0.2-0.6-0.3-1.2-0.3h-0.6v2.2H67.4z M67.6,329.2c0.6,0,0.8,0,1.1-0.2c0.4-0.2,0.6-0.5,0.6-1
			c0-0.4-0.2-0.8-0.5-0.9c-0.3-0.2-0.6-0.2-1.3-0.2h-0.7v2.3H67.6z"/>
		<path class="st4" d="M76.8,324.2c-0.6-0.9-0.9-1.1-1.4-1.1c-0.7,0-1.1,0.4-1.1,1.1c0,0.4,0.3,0.7,1,1l0.9,0.3
			c1.6,0.6,2.3,1.5,2.3,2.7c0,1.7-1.4,3.1-3.2,3.1c-1,0-1.9-0.4-2.5-1.1c-0.4-0.5-0.6-0.9-0.7-1.8l1.8-0.5c0.2,0.6,0.2,0.9,0.4,1.1
			c0.3,0.4,0.6,0.6,1.1,0.6c0.8,0,1.3-0.6,1.3-1.3c0-0.5-0.3-0.8-1.3-1.1l-0.8-0.3c-1.4-0.5-2.1-1.4-2.1-2.5c0-1.6,1.3-2.8,3.1-2.8
			c1.3,0,2.1,0.5,2.9,1.8L76.8,324.2z"/>
		<path class="st4" d="M85.6,327.5l1.8-6H89l1.8,6l1.7-6h1.9l-2.8,9.3h-1.7l-1.8-5.8l-1.8,5.8h-1.7l-2.8-9.3h1.9L85.6,327.5z"/>
		<path class="st4" d="M97.1,330.9h-1.9v-9.3h1.9V330.9z"/>
		<path class="st4" d="M100.8,321.6v7.6h3.4v1.7H99v-9.3H100.8z"/>
		<path class="st4" d="M107,321.6v7.6h3.4v1.7h-5.2v-9.3H107z"/>
	</g>
	<g class="st1">
		<path class="st4" d="M11.7,345.5L11.7,345.5L11.7,345.5l-0.5,0h-0.4v3.4H8.9v-9.3h2.2c1,0,1.7,0.1,2.2,0.4
			c0.9,0.5,1.4,1.5,1.4,2.6c0,1-0.5,1.9-1.3,2.4l2.2,3.9h-2.1L11.7,345.5z M11.3,343.8c1.2,0,1.7-0.4,1.7-1.3c0-0.5-0.2-0.9-0.6-1.1
			c-0.3-0.1-0.6-0.2-1.1-0.2h-0.5v2.5H11.3z"/>
		<path class="st4" d="M18.5,345.3c0,0.8,0,1.1,0.2,1.3c0.3,0.4,0.9,0.7,1.5,0.7c0.6,0,1.2-0.3,1.5-0.7c0.2-0.3,0.2-0.6,0.2-1.3
			v-5.7h1.9v6c0,0.8-0.1,1.4-0.4,1.9c-0.6,1-1.8,1.7-3.1,1.7c-1.3,0-2.5-0.7-3.2-1.7c-0.3-0.5-0.4-1.1-0.4-1.9v-6h1.9V345.3z"/>
		<path class="st4" d="M25.6,339.6h1.6l4.6,6.1v-6.1h1.9v9.3H32l-4.6-6.1v6.1h-1.9V339.6z"/>
		<path class="st4" d="M40.5,348.9h-1.9v-9.3h1.9V348.9z"/>
		<path class="st4" d="M42.4,339.6H44l4.6,6.1v-6.1h1.9v9.3h-1.6l-4.6-6.1v6.1h-1.9V339.6z"/>
		<path class="st4" d="M57.3,348.9h-1.9v-9.3h2.2c0.9,0,1.5,0.1,2,0.4c0.9,0.5,1.4,1.5,1.4,2.5c0,1.1-0.5,2.1-1.4,2.6
			c-0.5,0.3-1.1,0.4-2,0.4h-0.4V348.9z M57.8,343.8c1,0,1.5-0.4,1.5-1.3s-0.5-1.3-1.5-1.3h-0.5v2.5H57.8z"/>
		<path class="st4" d="M63.3,346.7l-0.8,2.2h-2l3.5-9.3h2.2l3.5,9.3h-2l-0.8-2.2H63.3z M65.1,341.5l-1.2,3.4h2.5L65.1,341.5z"/>
		<path class="st4" d="M73.3,345.5L73.3,345.5L73.3,345.5l-0.5,0h-0.4v3.4h-1.9v-9.3h2.2c1,0,1.7,0.1,2.2,0.4
			c0.9,0.5,1.4,1.5,1.4,2.6c0,1-0.5,1.9-1.3,2.4l2.2,3.9h-2.1L73.3,345.5z M72.9,343.8c1.2,0,1.7-0.4,1.7-1.3c0-0.5-0.2-0.9-0.6-1.1
			c-0.3-0.1-0.6-0.2-1.1-0.2h-0.5v2.5H72.9z"/>
		<path class="st4" d="M80.5,346.7l-0.8,2.2h-2l3.5-9.3h2.2l3.5,9.3h-2l-0.8-2.2H80.5z M82.3,341.5l-1.2,3.4h2.5L82.3,341.5z"/>
		<path class="st4" d="M89.6,339.6v7.6H93v1.7h-5.2v-9.3H89.6z"/>
		<path class="st4" d="M95.8,339.6v7.6h3.4v1.7h-5.2v-9.3H95.8z"/>
		<path class="st4" d="M105.4,341.3h-3.5v2h3.1v1.7h-3.1v2.1h3.6v1.7h-5.5v-9.3h5.4V341.3z"/>
		<path class="st4" d="M108.8,339.6v7.6h3.4v1.7h-5.2v-9.3H108.8z"/>
	</g>
</g>
<line class="st11" x1="62" y1="216" x2="62" y2="305"/>
<g>
	<g>
		<line class="st12" x1="141.2" y1="216" x2="61.6" y2="216"/>
		<g>
			<polygon class="st2" points="139,208.5 151.9,216 139,223.5 			"/>
		</g>
	</g>
</g>
<g>
	<g>
		<line class="st12" x1="454" y1="216" x2="426.3" y2="216"/>
		<g>
			<polygon class="st2" points="451.8,208.5 464.8,216 451.8,223.5 			"/>
		</g>
	</g>
</g>
<g>
	<g>
		<line class="st12" x1="767.3" y1="216" x2="737.3" y2="216"/>
		<g>
			<polygon class="st2" points="765.1,208.5 778,216 765.1,223.5 			"/>
		</g>
	</g>
</g>
<line class="st11" x1="62" y1="363" x2="62" y2="452"/>
<g>
	<g>
		<line class="st12" x1="141.2" y1="451" x2="61.6" y2="451"/>
		<g>
			<polygon class="st2" points="139,443.5 151.9,451 139,458.5 			"/>
		</g>
	</g>
</g>
<g class="st1">
	<path class="st4" d="M574.3,111.3c-0.8-1.3-1.3-1.6-2.2-1.6c-1.1,0-1.9,0.7-1.9,1.7c0,0.6,0.5,1.1,1.6,1.5l1.3,0.5
		c2.2,0.9,3.3,2,3.3,3.8c0,2.4-2,4.3-4.5,4.3c-1.8,0-3.3-0.9-4-2.5c-0.2-0.4-0.2-0.4-0.5-1.5l2.3-0.6c0.3,1.1,0.3,1.1,0.4,1.3
		c0.4,0.7,1,1.1,1.8,1.1c1.2,0,2.1-0.9,2.1-2c0-0.8-0.5-1.2-1.9-1.8l-1.2-0.5c-2-0.8-2.9-1.9-2.9-3.6c0-2.2,1.8-3.9,4.2-3.9
		c1.2,0,2.3,0.4,3.1,1.3c0.3,0.3,0.5,0.5,1,1.3L574.3,111.3z"/>
	<path class="st4" d="M582.8,121.1h-2.4V110h-3.3v-2.2h8.9v2.2h-3.3V121.1z"/>
	<path class="st4" d="M588.8,117.9l-1.2,3.3h-2.5l5-13.3h2.9l5,13.3h-2.5l-1.2-3.3H588.8z M591.5,110.3l-1.9,5.4h3.9L591.5,110.3z"
		/>
	<path class="st4" d="M611.3,113.8v1.1c0,3.9-2.5,6.5-6.1,6.5c-3.9,0-7.1-3.1-7.1-6.9c0-3.9,3.1-7,7-7c1.4,0,2.8,0.4,3.9,1.2
		c0.4,0.3,0.5,0.4,1.4,1.2l-1.7,1.6c-0.8-0.8-0.8-0.9-1.2-1.1c-0.7-0.5-1.5-0.8-2.5-0.8c-2.6,0-4.6,2.1-4.6,4.8c0,2.6,2,4.7,4.6,4.7
		c1.4,0,2.6-0.6,3.3-1.8c0.2-0.4,0.3-0.7,0.5-1.4h-3.7v-2.2H611.3z"/>
	<path class="st4" d="M615.7,110v3.3h4.5v2.2h-4.5v3.5h5.3v2.2h-7.6v-13.3h7.4v2.2H615.7z"/>
	<path class="st4" d="M627.1,119.3l4.7-5.3c0.9-1,1.3-1.9,1.3-2.7c0-1-0.7-1.6-1.8-1.6c-0.8,0-1.4,0.3-1.7,0.8
		c-0.2,0.3-0.3,0.6-0.5,1.4l-2.2-0.6c0.2-1,0.4-1.5,0.8-2c0.8-1.1,2.1-1.7,3.6-1.7c2.4,0,4.1,1.6,4.1,3.9c0,1.3-0.5,2.5-1.4,3.5
		l-3.7,4.1h5.4v2.2h-8.7V119.3z"/>
</g>
<g class="st1">
	<path class="st4" d="M886.3,111.3c-0.8-1.3-1.3-1.6-2.2-1.6c-1.1,0-1.9,0.7-1.9,1.7c0,0.6,0.5,1.1,1.6,1.5l1.3,0.5
		c2.2,0.9,3.3,2,3.3,3.8c0,2.4-2,4.3-4.5,4.3c-1.8,0-3.3-0.9-4-2.5c-0.2-0.4-0.2-0.4-0.5-1.5l2.3-0.6c0.3,1.1,0.3,1.1,0.4,1.3
		c0.4,0.7,1,1.1,1.8,1.1c1.2,0,2.1-0.9,2.1-2c0-0.8-0.5-1.2-1.9-1.8l-1.2-0.5c-2-0.8-2.9-1.9-2.9-3.6c0-2.2,1.8-3.9,4.2-3.9
		c1.2,0,2.3,0.4,3.1,1.3c0.3,0.3,0.5,0.5,1,1.3L886.3,111.3z"/>
	<path class="st4" d="M894.8,121.1h-2.4V110h-3.3v-2.2h8.9v2.2h-3.3V121.1z"/>
	<path class="st4" d="M900.8,117.9l-1.2,3.3h-2.5l5-13.3h2.9l5,13.3h-2.5l-1.2-3.3H900.8z M903.5,110.3l-1.9,5.4h3.9L903.5,110.3z"
		/>
	<path class="st4" d="M923.3,113.8v1.1c0,3.9-2.5,6.5-6.1,6.5c-3.9,0-7.1-3.1-7.1-6.9c0-3.9,3.1-7,7-7c1.4,0,2.8,0.4,3.9,1.2
		c0.4,0.3,0.5,0.4,1.4,1.2l-1.7,1.6c-0.8-0.8-0.8-0.9-1.2-1.1c-0.7-0.5-1.5-0.8-2.5-0.8c-2.6,0-4.6,2.1-4.6,4.8c0,2.6,2,4.7,4.6,4.7
		c1.4,0,2.6-0.6,3.3-1.8c0.2-0.4,0.3-0.7,0.5-1.4h-3.7v-2.2H923.3z"/>
	<path class="st4" d="M927.7,110v3.3h4.5v2.2h-4.5v3.5h5.3v2.2h-7.6v-13.3h7.4v2.2H927.7z"/>
	<path class="st4" d="M942.8,113.1c1.3,0,2-0.6,2-1.7c0-1-0.7-1.7-1.9-1.7c-0.9,0-1.4,0.4-2.1,1.5l-2-1.1c1.1-1.9,2.3-2.6,4.1-2.6
		c2.4,0,4.2,1.6,4.2,3.9c0,1.1-0.4,1.9-1.2,2.7c1.1,0.9,1.5,1.8,1.5,3.1c0,2.5-1.9,4.3-4.6,4.3c-1.3,0-2.5-0.5-3.3-1.4
		c-0.6-0.6-0.8-1.2-1.1-2.5l2.3-0.6c0.2,0.8,0.3,1.1,0.5,1.4c0.3,0.5,0.9,0.8,1.7,0.8c1.3,0,2.1-0.8,2.1-2c0-1.3-0.8-1.9-2.2-1.9h-1
		v-2.2H942.8z"/>
</g>
</svg>
