<?xml version="1.0" encoding="utf-8"?>
<!-- Generator: Adobe Illustrator 22.0.1, SVG Export Plug-In . SVG Version: 6.00 Build 0)  -->
<svg version="1.1" id="Layer_1" xmlns="http://www.w3.org/2000/svg" xmlns:xlink="http://www.w3.org/1999/xlink" x="0px" y="0px"
	 viewBox="0 0 600 250" style="enable-background:new 0 0 600 250;" xml:space="preserve">
<style type="text/css">
	.st0{fill:#FF9311;stroke:#1C425C;stroke-width:3;stroke-miterlimit:10;}
	.st1{enable-background:new    ;}
	.st2{fill:#1C425C;}
	.st3{fill:none;stroke:#1C425C;stroke-width:3;stroke-miterlimit:10;}
	.st4{fill:#EFEFEF;stroke:#1C425C;stroke-width:3;stroke-miterlimit:10;}
	.st5{fill:#FFFFFF;stroke:#1C425C;stroke-width:3;stroke-miterlimit:10;}
</style>
<circle class="st0" cx="43.2" cy="62.4" r="37.6"/>
<g class="st1">
	<path class="st2" d="M11,57.7h1.7l2.9,5.2l2.9-5.2h1.7V67h-1.9v-5.6l-2.1,3.7H15l-2.1-3.7V67H11V57.7z"/>
	<path class="st2" d="M23.9,64.8L23.2,67h-2l3.5-9.3h2.2l3.5,9.3h-2l-0.8-2.2H23.9z M25.8,59.6l-1.2,3.4H27L25.8,59.6z"/>
	<path class="st2" d="M35.9,59.4h-2.2V67h-1.9v-7.6h-2.2v-1.7h6.3V59.4z"/>
	<path class="st2" d="M42.1,59.4h-3.5v2h3.1v1.7h-3.1v2.1h3.6V67h-5.5v-9.3h5.4V59.4z"/>
	<path class="st2" d="M46.3,63.6L46.3,63.6L46.3,63.6l-0.5,0h-0.4V67h-1.9v-9.3h2.2c1,0,1.7,0.1,2.2,0.4c0.9,0.5,1.4,1.5,1.4,2.6
		c0,1-0.5,1.9-1.3,2.4l2.2,3.9h-2.1L46.3,63.6z M45.9,61.9c1.2,0,1.7-0.4,1.7-1.3c0-0.5-0.2-0.9-0.6-1.1c-0.3-0.1-0.6-0.2-1.1-0.2
		h-0.5v2.5H45.9z"/>
	<path class="st2" d="M53.2,67h-1.9v-9.3h1.9V67z"/>
	<path class="st2" d="M56.7,64.8L55.9,67h-2l3.5-9.3h2.2l3.5,9.3h-2l-0.8-2.2H56.7z M58.6,59.6l-1.2,3.4h2.5L58.6,59.6z"/>
	<path class="st2" d="M65.9,57.7v7.6h3.4V67H64v-9.3H65.9z"/>
	<path class="st2" d="M74.3,67v-7.1l-1.1,0.6L72.3,59l2.4-1.3h1.5V67H74.3z"/>
</g>
<g>
	<g>
		<path class="st3" d="M43,100c0,0,5.6,60.5,68.8,64.8"/>
		<g>
			<polygon class="st2" points="110.2,169.6 119,165 110.6,159.6 			"/>
		</g>
	</g>
</g>
<path class="st4" d="M384,212H128.5c-5,0-9-4-9-9v-83.5c0-5,4-9,9-9H384c5,0,9,4,9,9V203C393,208,389,212,384,212z"/>
<path class="st5" d="M198.5,197.5h-61c-3.9,0-7-3.1-7-7v-12c0-3.9,3.1-7,7-7h61c3.9,0,7,3.1,7,7v12
	C205.5,194.4,202.4,197.5,198.5,197.5z"/>
<path class="st5" d="M287,197.5h-61c-3.9,0-7-3.1-7-7v-12c0-3.9,3.1-7,7-7h61c3.9,0,7,3.1,7,7v12C294,194.4,290.9,197.5,287,197.5z"
	/>
<path class="st5" d="M375.5,197.5h-61c-3.9,0-7-3.1-7-7v-12c0-3.9,3.1-7,7-7h61c3.9,0,7,3.1,7,7v12
	C382.5,194.4,379.4,197.5,375.5,197.5z"/>
<g class="st1">
	<path class="st2" d="M190.8,133.6c0,0.9,0,1.2,0.2,1.5c0.3,0.5,1,0.8,1.7,0.8c0.7,0,1.4-0.4,1.7-0.8c0.2-0.3,0.2-0.7,0.2-1.5V127
		h2.1v6.8c0,0.9-0.1,1.6-0.5,2.2c-0.7,1.2-2.1,1.9-3.6,1.9c-1.5,0-2.9-0.8-3.6-1.9c-0.3-0.6-0.5-1.2-0.5-2.2V127h2.1V133.6z"/>
	<path class="st2" d="M201,137.7h-2.1V127h2.5c1,0,1.7,0.1,2.3,0.5c1,0.6,1.6,1.7,1.6,2.9c0,1.2-0.6,2.4-1.6,2.9
		c-0.6,0.3-1.3,0.5-2.3,0.5H201V137.7z M201.6,131.9c1.2,0,1.7-0.4,1.7-1.5c0-1-0.5-1.5-1.7-1.5H201v2.9H201.6z"/>
	<path class="st2" d="M211.4,130c-0.6-1-1-1.2-1.6-1.2c-0.8,0-1.3,0.5-1.3,1.2c0,0.4,0.4,0.8,1.2,1.1l1,0.4c1.8,0.7,2.7,1.7,2.7,3.1
		c0,2-1.6,3.5-3.7,3.5c-1.2,0-2.2-0.5-2.8-1.3c-0.4-0.5-0.6-1.1-0.8-2l2.1-0.6c0.2,0.7,0.3,1,0.4,1.2c0.3,0.4,0.7,0.6,1.2,0.6
		c0.9,0,1.5-0.7,1.5-1.5c0-0.5-0.4-0.9-1.4-1.3l-0.9-0.4c-1.6-0.6-2.4-1.6-2.4-2.9c0-1.8,1.5-3.2,3.5-3.2c1.5,0,2.4,0.6,3.3,2.1
		L211.4,130z"/>
	<path class="st2" d="M221.1,129h-2.6v8.7h-2.1V129h-2.6v-2h7.3V129z"/>
	<path class="st2" d="M225.2,133.8L225.2,133.8L225.2,133.8l-0.6,0h-0.4v3.9h-2.1V127h2.5c1.2,0,1.9,0.1,2.5,0.5
		c1,0.6,1.6,1.7,1.6,2.9c0,1.2-0.5,2.2-1.5,2.8l2.5,4.5h-2.4L225.2,133.8z M224.7,131.9c1.4,0,2-0.4,2-1.4c0-0.5-0.2-1-0.6-1.2
		c-0.3-0.2-0.7-0.2-1.3-0.2h-0.5v2.9H224.7z"/>
	<path class="st2" d="M237,129h-4v2.3h3.5v2H233v2.4h4.1v2h-6.3V127h6.1V129z"/>
	<path class="st2" d="M240.9,135.2l-0.9,2.5h-2.2l4-10.7h2.5l4,10.7H246l-0.9-2.5H240.9z M243,129.3l-1.4,3.9h2.8L243,129.3z"/>
	<path class="st2" d="M249.3,127h2l3.4,5.9l3.4-5.9h2v10.7h-2.1v-6.5l-2.4,4.3h-1.6l-2.4-4.3v6.5h-2.1V127z"/>
	<path class="st2" d="M267.8,137.7h-2.1V127h2.5c1,0,1.7,0.1,2.3,0.5c1,0.6,1.6,1.7,1.6,2.9c0,1.2-0.6,2.4-1.6,2.9
		c-0.6,0.3-1.3,0.5-2.3,0.5h-0.4V137.7z M268.3,131.9c1.2,0,1.7-0.4,1.7-1.5c0-1-0.5-1.5-1.7-1.5h-0.5v2.9H268.3z"/>
	<path class="st2" d="M275.4,137.7h-2.1V127h2.1V137.7z"/>
	<path class="st2" d="M279.7,137.7h-2.1V127h2.5c1,0,1.7,0.1,2.3,0.5c1,0.6,1.6,1.7,1.6,2.9c0,1.2-0.6,2.4-1.6,2.9
		c-0.6,0.3-1.3,0.5-2.3,0.5h-0.4V137.7z M280.2,131.9c1.2,0,1.7-0.4,1.7-1.5c0-1-0.5-1.5-1.7-1.5h-0.5v2.9H280.2z"/>
	<path class="st2" d="M291.3,129h-4v2.3h3.5v2h-3.5v2.4h4.1v2h-6.3V127h6.1V129z"/>
	<path class="st2" d="M295.1,127v8.7h3.8v2h-6V127H295.1z"/>
	<path class="st2" d="M302.1,137.7H300V127h2.1V137.7z"/>
	<path class="st2" d="M304.3,127h1.8l5.2,6.9V127h2.1v10.7h-1.8l-5.2-6.9v6.9h-2.1V127z"/>
	<path class="st2" d="M321.7,129h-4v2.3h3.5v2h-3.5v2.4h4.1v2h-6.3V127h6.1V129z"/>
</g>
<g class="st1">
	<path class="st2" d="M326.4,182.9c-0.5-0.8-0.8-1-1.3-1c-0.6,0-1.1,0.4-1.1,1c0,0.4,0.3,0.6,0.9,0.9l0.8,0.3
		c1.5,0.6,2.2,1.4,2.2,2.5c0,1.6-1.3,2.8-3,2.8c-0.9,0-1.8-0.4-2.3-1c-0.3-0.4-0.5-0.9-0.7-1.6l1.7-0.5c0.1,0.6,0.2,0.8,0.4,1
		c0.2,0.3,0.6,0.5,1,0.5c0.7,0,1.2-0.5,1.2-1.2c0-0.4-0.3-0.7-1.2-1.1l-0.8-0.3c-1.3-0.5-2-1.3-2-2.4c0-1.5,1.2-2.6,2.8-2.6
		c1.2,0,2,0.5,2.7,1.7L326.4,182.9z"/>
	<path class="st2" d="M334.3,182.1h-2.1v7.1h-1.7v-7.1h-2.1v-1.6h5.9V182.1z"/>
	<path class="st2" d="M336.1,187.1l-0.7,2h-1.8l3.2-8.7h2l3.2,8.7h-1.8l-0.7-2H336.1z M337.8,182.3l-1.1,3.2h2.3L337.8,182.3z"/>
	<path class="st2" d="M350.8,184.3v0.8c0,2.5-1.6,4.2-4,4.2c-2.6,0-4.6-2-4.6-4.5c0-2.5,2.1-4.5,4.6-4.5c1.3,0,2.3,0.4,3.5,1.6
		L349,183c-0.9-0.9-1.4-1.1-2.3-1.1c-1.6,0-2.9,1.3-2.9,2.9s1.2,2.9,2.9,2.9c0.7,0,1.3-0.2,1.7-0.7c0.3-0.3,0.4-0.6,0.5-1.1h-2.4
		v-1.6H350.8z"/>
	<path class="st2" d="M357,182.1h-3.2v1.9h2.9v1.6h-2.9v2h3.4v1.6H352v-8.7h5V182.1z"/>
	<path class="st2" d="M362.7,183.9h0.7c0.8,0,1.2-0.3,1.2-1c0-0.6-0.4-1-1.1-1c-0.6,0-0.8,0.2-1.4,0.9l-1.4-0.8
		c0.7-1.2,1.5-1.8,2.8-1.8c1.6,0,2.8,1.1,2.8,2.6c0,0.7-0.2,1.2-0.7,1.7c0.7,0.6,0.9,1.2,0.9,2c0,1.6-1.3,2.8-3,2.8
		c-0.9,0-1.8-0.4-2.3-1c-0.3-0.4-0.5-0.8-0.7-1.6l1.7-0.4c0.3,1.1,0.6,1.4,1.3,1.4c0.8,0,1.3-0.5,1.3-1.2c0-0.8-0.5-1.1-1.3-1.1
		h-0.7V183.9z"/>
</g>
<g class="st1">
	<path class="st2" d="M238.4,182.9c-0.5-0.8-0.8-1-1.3-1c-0.6,0-1.1,0.4-1.1,1c0,0.4,0.3,0.6,0.9,0.9l0.8,0.3
		c1.5,0.6,2.2,1.4,2.2,2.5c0,1.6-1.3,2.8-3,2.8c-0.9,0-1.8-0.4-2.3-1c-0.3-0.4-0.5-0.9-0.7-1.6l1.7-0.5c0.1,0.6,0.2,0.8,0.4,1
		c0.2,0.3,0.6,0.5,1,0.5c0.7,0,1.2-0.5,1.2-1.2c0-0.4-0.3-0.7-1.2-1.1l-0.8-0.3c-1.3-0.5-2-1.3-2-2.4c0-1.5,1.2-2.6,2.8-2.6
		c1.2,0,2,0.5,2.7,1.7L238.4,182.9z"/>
	<path class="st2" d="M246.3,182.1h-2.1v7.1h-1.7v-7.1h-2.1v-1.6h5.9V182.1z"/>
	<path class="st2" d="M248.1,187.1l-0.7,2h-1.8l3.2-8.7h2l3.2,8.7h-1.8l-0.7-2H248.1z M249.8,182.3l-1.1,3.2h2.3L249.8,182.3z"/>
	<path class="st2" d="M262.7,184.3v0.8c0,2.5-1.6,4.2-4,4.2c-2.6,0-4.6-2-4.6-4.5c0-2.5,2.1-4.5,4.6-4.5c1.3,0,2.3,0.4,3.5,1.6
		l-1.2,1.2c-0.9-0.9-1.4-1.1-2.3-1.1c-1.6,0-2.9,1.3-2.9,2.9s1.2,2.9,2.9,2.9c0.7,0,1.3-0.2,1.7-0.7c0.3-0.3,0.4-0.6,0.5-1.1h-2.4
		v-1.6H262.7z"/>
	<path class="st2" d="M269,182.1h-3.2v1.9h2.9v1.6h-2.9v2h3.4v1.6H264v-8.7h5V182.1z"/>
	<path class="st2" d="M272.9,187.8l3.1-3.4c0.5-0.6,0.8-1.2,0.8-1.6c0-0.6-0.4-0.9-1.1-0.9c-0.8,0-1,0.3-1.3,1.3l-1.6-0.4
		c0.1-0.7,0.3-1.1,0.6-1.5c0.5-0.6,1.3-1,2.3-1c1.7,0,2.8,1,2.8,2.6c0,0.8-0.3,1.6-0.9,2.3l-2.2,2.4h3.3v1.6h-5.8V187.8z"/>
</g>
<g class="st1">
	<path class="st2" d="M150.5,182.9c-0.5-0.8-0.8-1-1.3-1c-0.6,0-1.1,0.4-1.1,1c0,0.4,0.3,0.6,0.9,0.9l0.8,0.3
		c1.5,0.6,2.2,1.4,2.2,2.5c0,1.6-1.3,2.8-3,2.8c-0.9,0-1.8-0.4-2.3-1c-0.3-0.4-0.5-0.9-0.7-1.6l1.7-0.5c0.1,0.6,0.2,0.8,0.4,1
		c0.2,0.3,0.6,0.5,1,0.5c0.7,0,1.2-0.5,1.2-1.2c0-0.4-0.3-0.7-1.2-1.1l-0.8-0.3c-1.3-0.5-2-1.3-2-2.4c0-1.5,1.2-2.6,2.8-2.6
		c1.2,0,2,0.5,2.7,1.7L150.5,182.9z"/>
	<path class="st2" d="M158.4,182.1h-2.1v7.1h-1.7v-7.1h-2.1v-1.6h5.9V182.1z"/>
	<path class="st2" d="M160.2,187.1l-0.7,2h-1.8l3.2-8.7h2l3.2,8.7h-1.8l-0.7-2H160.2z M161.9,182.3l-1.1,3.2h2.3L161.9,182.3z"/>
	<path class="st2" d="M174.8,184.3v0.8c0,2.5-1.6,4.2-4,4.2c-2.6,0-4.6-2-4.6-4.5c0-2.5,2.1-4.5,4.6-4.5c1.3,0,2.3,0.4,3.5,1.6
		L173,183c-0.9-0.9-1.4-1.1-2.3-1.1c-1.6,0-2.9,1.3-2.9,2.9s1.2,2.9,2.9,2.9c0.7,0,1.3-0.2,1.7-0.7c0.3-0.3,0.4-0.6,0.5-1.1h-2.4
		v-1.6H174.8z"/>
	<path class="st2" d="M181,182.1h-3.2v1.9h2.9v1.6h-2.9v2h3.4v1.6h-5.1v-8.7h5V182.1z"/>
	<path class="st2" d="M186.2,189.1v-6.6l-1,0.6l-0.8-1.4l2.2-1.2h1.4v8.7H186.2z"/>
</g>
<g>
	<g>
		<path class="st3" d="M410,146.4c0,0-90.1-0.4-126.8-0.4c-22.2,0-26.9,8.4-28,17.3"/>
		<g>
			<polygon class="st2" points="250.5,161.6 255,170.5 260.4,162.1 			"/>
		</g>
	</g>
</g>
<path class="st4" d="M586,185.2H419.2c-5,0-9-4-9-9v-82c0-5,4-9,9-9H586c5,0,9,4,9,9v82C595,181.2,591,185.2,586,185.2z"/>
<path class="st5" d="M487.5,171h-61c-3.9,0-7-3.1-7-7v-11c0-3.9,3.1-7,7-7h61c3.9,0,7,3.1,7,7v11C494.5,167.9,491.4,171,487.5,171z"
	/>
<path class="st5" d="M577,171h-61c-3.9,0-7-3.1-7-7v-11c0-3.9,3.1-7,7-7h61c3.9,0,7,3.1,7,7v11C584,167.9,580.9,171,577,171z"/>
<g class="st1">
	<path class="st2" d="M419.9,103c3.6,0,5.9,2.1,5.9,5.3c0,3.2-2.3,5.3-5.9,5.3h-2.5V103H419.9z M419.5,111.7h0.5
		c2.3,0,3.6-1.3,3.6-3.4c0-2.1-1.4-3.3-3.6-3.3h-0.5V111.7z"/>
	<path class="st2" d="M438,108.4c0,3-2.5,5.6-5.6,5.6c-3.1,0-5.6-2.5-5.6-5.7c0-3,2.6-5.5,5.6-5.5C435.4,102.8,438,105.3,438,108.4z
		 M428.9,108.4c0,1.9,1.6,3.5,3.5,3.5c1.9,0,3.5-1.6,3.5-3.6c0-2-1.6-3.6-3.5-3.6C430.4,104.8,428.9,106.4,428.9,108.4z"/>
	<path class="st2" d="M442.3,109.9l2-6.8h1.8l2,6.8l2-6.8h2.2l-3.2,10.7h-1.9l-2-6.7l-2,6.7h-1.9l-3.2-10.7h2.2L442.3,109.9z"/>
	<path class="st2" d="M453.3,103h1.8l5.2,6.9V103h2.1v10.7h-1.8l-5.2-6.9v6.9h-2.1V103z"/>
	<path class="st2" d="M469.6,106c-0.6-1-1-1.2-1.6-1.2c-0.8,0-1.3,0.5-1.3,1.2c0,0.4,0.4,0.8,1.2,1.1l1,0.4c1.8,0.7,2.7,1.7,2.7,3.1
		c0,2-1.6,3.5-3.7,3.5c-1.2,0-2.2-0.5-2.8-1.3c-0.4-0.5-0.6-1.1-0.8-2l2.1-0.6c0.2,0.7,0.3,1,0.4,1.2c0.3,0.4,0.7,0.6,1.2,0.6
		c0.9,0,1.5-0.7,1.5-1.5c0-0.5-0.4-0.9-1.4-1.3l-0.9-0.4c-1.6-0.6-2.4-1.6-2.4-2.9c0-1.8,1.5-3.2,3.5-3.2c1.5,0,2.4,0.6,3.3,2.1
		L469.6,106z"/>
	<path class="st2" d="M479.3,105h-2.6v8.7h-2.1V105H472v-2h7.3V105z"/>
	<path class="st2" d="M483.4,109.8L483.4,109.8L483.4,109.8l-0.6,0h-0.4v3.9h-2.1V103h2.5c1.2,0,1.9,0.1,2.5,0.5
		c1,0.6,1.6,1.7,1.6,2.9c0,1.2-0.5,2.2-1.5,2.8l2.5,4.5h-2.4L483.4,109.8z M482.9,107.9c1.4,0,2-0.4,2-1.4c0-0.5-0.2-1-0.6-1.2
		c-0.3-0.2-0.7-0.2-1.3-0.2h-0.5v2.9H482.9z"/>
	<path class="st2" d="M495.2,105h-4v2.3h3.5v2h-3.5v2.4h4.1v2h-6.3V103h6.1V105z"/>
	<path class="st2" d="M499.1,111.2l-0.9,2.5H496l4-10.7h2.5l4,10.7h-2.3l-0.9-2.5H499.1z M501.2,105.3l-1.4,3.9h2.8L501.2,105.3z"/>
	<path class="st2" d="M507.4,103h2l3.4,5.9l3.4-5.9h2v10.7H516v-6.5l-2.4,4.3H512l-2.4-4.3v6.5h-2.1V103z"/>
	<path class="st2" d="M525.9,113.7h-2.1V103h2.5c1,0,1.7,0.1,2.3,0.5c1,0.6,1.6,1.7,1.6,2.9c0,1.2-0.6,2.4-1.6,2.9
		c-0.6,0.3-1.3,0.5-2.3,0.5h-0.4V113.7z M526.5,107.9c1.2,0,1.7-0.4,1.7-1.5c0-1-0.5-1.5-1.7-1.5h-0.5v2.9H526.5z"/>
	<path class="st2" d="M533.6,113.7h-2.1V103h2.1V113.7z"/>
	<path class="st2" d="M537.8,113.7h-2.1V103h2.5c1,0,1.7,0.1,2.3,0.5c1,0.6,1.6,1.7,1.6,2.9c0,1.2-0.6,2.4-1.6,2.9
		c-0.6,0.3-1.3,0.5-2.3,0.5h-0.4V113.7z M538.4,107.9c1.2,0,1.7-0.4,1.7-1.5c0-1-0.5-1.5-1.7-1.5h-0.5v2.9H538.4z"/>
	<path class="st2" d="M549.4,105h-4v2.3h3.5v2h-3.5v2.4h4.1v2h-6.3V103h6.1V105z"/>
	<path class="st2" d="M553.3,103v8.7h3.8v2h-6V103H553.3z"/>
	<path class="st2" d="M560.3,113.7h-2.1V103h2.1V113.7z"/>
	<path class="st2" d="M562.5,103h1.8l5.2,6.9V103h2.1v10.7h-1.8l-5.2-6.9v6.9h-2.1V103z"/>
	<path class="st2" d="M579.9,105h-4v2.3h3.5v2h-3.5v2.4h4.1v2h-6.3V103h6.1V105z"/>
	<path class="st2" d="M586.3,113.7v-8.1l-1.2,0.7l-1-1.7l2.7-1.5h1.7v10.7H586.3z"/>
</g>
<g class="st1">
	<path class="st2" d="M528.4,156.9c-0.5-0.8-0.8-1-1.3-1c-0.6,0-1.1,0.4-1.1,1c0,0.4,0.3,0.6,0.9,0.9l0.8,0.3
		c1.5,0.6,2.2,1.4,2.2,2.5c0,1.6-1.3,2.8-3,2.8c-0.9,0-1.8-0.4-2.3-1c-0.3-0.4-0.5-0.9-0.7-1.6l1.7-0.5c0.1,0.6,0.2,0.8,0.4,1
		c0.2,0.3,0.6,0.5,1,0.5c0.7,0,1.2-0.5,1.2-1.2c0-0.4-0.3-0.7-1.2-1.1l-0.8-0.3c-1.3-0.5-2-1.3-2-2.4c0-1.5,1.2-2.6,2.8-2.6
		c1.2,0,2,0.5,2.7,1.7L528.4,156.9z"/>
	<path class="st2" d="M536.3,156.1h-2.1v7.1h-1.7v-7.1h-2.1v-1.6h5.9V156.1z"/>
	<path class="st2" d="M538.1,161.1l-0.7,2h-1.8l3.2-8.7h2l3.2,8.7h-1.8l-0.7-2H538.1z M539.8,156.3l-1.1,3.2h2.3L539.8,156.3z"/>
	<path class="st2" d="M552.7,158.3v0.8c0,2.5-1.6,4.2-4,4.2c-2.6,0-4.6-2-4.6-4.5c0-2.5,2.1-4.5,4.6-4.5c1.3,0,2.3,0.4,3.5,1.6
		l-1.2,1.2c-0.9-0.9-1.4-1.1-2.3-1.1c-1.6,0-2.9,1.3-2.9,2.9s1.2,2.9,2.9,2.9c0.7,0,1.3-0.2,1.7-0.7c0.3-0.3,0.4-0.6,0.5-1.1h-2.4
		v-1.6H552.7z"/>
	<path class="st2" d="M559,156.1h-3.2v1.9h2.9v1.6h-2.9v2h3.4v1.6H554v-8.7h5V156.1z"/>
	<path class="st2" d="M562.9,161.8l3.1-3.4c0.5-0.6,0.8-1.2,0.8-1.6c0-0.6-0.4-0.9-1.1-0.9c-0.8,0-1,0.3-1.3,1.3l-1.6-0.4
		c0.1-0.7,0.3-1.1,0.7-1.5c0.5-0.6,1.3-1,2.3-1c1.7,0,2.8,1,2.8,2.6c0,0.8-0.3,1.6-0.9,2.3l-2.2,2.4h3.3v1.6h-5.8V161.8z"/>
</g>
<g class="st1">
	<path class="st2" d="M439.5,156.9c-0.5-0.8-0.8-1-1.3-1c-0.6,0-1.1,0.4-1.1,1c0,0.4,0.3,0.6,0.9,0.9l0.8,0.3
		c1.5,0.6,2.2,1.4,2.2,2.5c0,1.6-1.3,2.8-3,2.8c-0.9,0-1.8-0.4-2.3-1c-0.3-0.4-0.5-0.9-0.7-1.6l1.7-0.5c0.1,0.6,0.2,0.8,0.4,1
		c0.2,0.3,0.6,0.5,1,0.5c0.7,0,1.2-0.5,1.2-1.2c0-0.4-0.3-0.7-1.2-1.1l-0.8-0.3c-1.3-0.5-2-1.3-2-2.4c0-1.5,1.2-2.6,2.8-2.6
		c1.2,0,2,0.5,2.7,1.7L439.5,156.9z"/>
	<path class="st2" d="M447.4,156.1h-2.1v7.1h-1.7v-7.1h-2.1v-1.6h5.9V156.1z"/>
	<path class="st2" d="M449.2,161.1l-0.7,2h-1.8l3.2-8.7h2l3.2,8.7h-1.8l-0.7-2H449.2z M450.9,156.3l-1.1,3.2h2.3L450.9,156.3z"/>
	<path class="st2" d="M463.8,158.3v0.8c0,2.5-1.6,4.2-4,4.2c-2.6,0-4.6-2-4.6-4.5c0-2.5,2.1-4.5,4.6-4.5c1.3,0,2.3,0.4,3.5,1.6
		L462,157c-0.9-0.9-1.4-1.1-2.3-1.1c-1.6,0-2.9,1.3-2.9,2.9s1.2,2.9,2.9,2.9c0.7,0,1.3-0.2,1.7-0.7c0.3-0.3,0.4-0.6,0.5-1.1h-2.4
		v-1.6H463.8z"/>
	<path class="st2" d="M470,156.1h-3.2v1.9h2.9v1.6h-2.9v2h3.4v1.6h-5.1v-8.7h5V156.1z"/>
	<path class="st2" d="M475.2,163.1v-6.6l-1,0.6l-0.8-1.4l2.2-1.2h1.4v8.7H475.2z"/>
</g>
</svg>
