<?xml version="1.0" encoding="UTF-8" standalone="no"?>
<!-- Generator: Adobe Illustrator 19.1.0, SVG Export Plug-In . SVG Version: 6.00 Build 0)  -->

<svg
   xmlns:dc="http://purl.org/dc/elements/1.1/"
   xmlns:cc="http://creativecommons.org/ns#"
   xmlns:rdf="http://www.w3.org/1999/02/22-rdf-syntax-ns#"
   xmlns:svg="http://www.w3.org/2000/svg"
   xmlns="http://www.w3.org/2000/svg"
   xmlns:sodipodi="http://sodipodi.sourceforge.net/DTD/sodipodi-0.dtd"
   xmlns:inkscape="http://www.inkscape.org/namespaces/inkscape"
   version="1.1"
   x="0px"
   y="0px"
   viewBox="0 0 128 64"
   xml:space="preserve"
   id="svg4206"
   inkscape:version="0.91 r13725"
   sodipodi:docname="Circle-icons-caution.svg"
   inkscape:export-filename="/Users/aravindsv/security.png"
   inkscape:export-xdpi="720"
   inkscape:export-ydpi="720"
   width="128"
   height="64"><metadata
     id="metadata4236"><rdf:RDF><cc:Work
         rdf:about=""><dc:format>image/svg+xml</dc:format><dc:type
           rdf:resource="http://purl.org/dc/dcmitype/StillImage" /><dc:title></dc:title></cc:Work></rdf:RDF></metadata><defs
     id="defs4234" /><sodipodi:namedview
     pagecolor="#ffffff"
     bordercolor="#666666"
     borderopacity="1"
     objecttolerance="10"
     gridtolerance="10"
     guidetolerance="10"
     inkscape:pageopacity="0"
     inkscape:pageshadow="2"
     inkscape:window-width="1418"
     inkscape:window-height="819"
     id="namedview4232"
     showgrid="false"
     inkscape:zoom="4"
     inkscape:cx="32"
     inkscape:cy="62"
     inkscape:window-x="0"
     inkscape:window-y="0"
     inkscape:window-maximized="0"
     inkscape:current-layer="Layer_1" /><style
     type="text/css"
     id="style4208">
	.st0{fill:#C75C5C;}
	.st1{opacity:0.2;}
	.st2{fill:#231F20;}
	.st3{fill:#F5CF87;}
	.st4{fill:#4F5D73;}
</style><g
     id="Layer_1"><g
       id="g4239"
       transform="translate(0,4)"><circle
         class="st0"
         cx="64"
         cy="28"
         r="32"
         id="circle4213"
         style="fill:#c75c5c" /><g
         transform="translate(32,-4)"
         style="opacity:0.2"
         id="g4215"
         class="st1"><path
           style="fill:#231f20"
           inkscape:connector-curvature="0"
           id="path4217"
           d="m 17,50 c -4.4,0 -6.2,-3.1 -4,-6.9 L 28,17 c 2.2,-3.8 5.8,-3.8 8,0 l 15,26.1 c 2.2,3.8 0.4,6.9 -4,6.9 l -30,0 z"
           class="st2" /></g><g
         transform="translate(32,-4)"
         id="g4219"><path
           style="fill:#f5cf87"
           inkscape:connector-curvature="0"
           id="path4221"
           d="m 17,48 c -4.4,0 -6.2,-3.1 -4,-6.9 L 28,15 c 2.2,-3.8 5.8,-3.8 8,0 l 15,26.1 c 2.2,3.8 0.4,6.9 -4,6.9 l -30,0 z"
           class="st3" /></g><g
         transform="translate(32,-4)"
         id="g4223"><path
           style="fill:#4f5d73"
           inkscape:connector-curvature="0"
           id="path4225"
           d="m 34,32 c 0,1.1 -0.9,2 -2,2 l 0,0 c -1.1,0 -2,-0.9 -2,-2 l 0,-8 c 0,-1.1 0.9,-2 2,-2 l 0,0 c 1.1,0 2,0.9 2,2 l 0,8 z"
           class="st4" /></g><g
         transform="translate(32,-4)"
         id="g4227"><path
           style="fill:#4f5d73"
           inkscape:connector-curvature="0"
           id="path4229"
           d="m 34,40 c 0,1.1 -0.9,2 -2,2 l 0,0 c -1.1,0 -2,-0.9 -2,-2 l 0,0 c 0,-1.1 0.9,-2 2,-2 l 0,0 c 1.1,0 2,0.9 2,2 l 0,0 z"
           class="st4" /></g></g></g><g
     id="Layer_2" /></svg>