<?xml version="1.0" encoding="utf-8"?>
<!-- Generator: Adobe Illustrator 22.0.1, SVG Export Plug-In . SVG Version: 6.00 Build 0)  -->
<svg version="1.1" id="Layer_1" xmlns="http://www.w3.org/2000/svg" xmlns:xlink="http://www.w3.org/1999/xlink" x="0px" y="0px"
	 viewBox="0 0 480 280" style="enable-background:new 0 0 480 280;" xml:space="preserve">
<style type="text/css">
	.st0{fill:#FFFFFF;}
	.st1{fill:#1C425C;}
	.st2{fill:#E74C3C;}
	.st3{fill:#C8DB57;}
	.st4{enable-background:new    ;}
	.st5{fill:#FFD34E;}
</style>
<title>Artboard 1 copy</title>
<g>
	<path class="st0" d="M188,16h177c6.6,0,12,5.4,12,12v59c0,6.6-5.4,12-12,12H188c-6.6,0-12-5.4-12-12V28C176,21.4,181.4,16,188,16z"
		/>
	<path class="st1" d="M365,100H188c-7.2,0-13-5.8-13-13V28c0-7.2,5.8-13,13-13h177c7.2,0,13,5.8,13,13v59
		C378,94.2,372.2,100,365,100z M188,17c-6.1,0-11,4.9-11,11v59c0,6.1,4.9,11,11,11h177c6.1,0,11-4.9,11-11V28c0-6.1-4.9-11-11-11
		H188z"/>
</g>
<g>
	<g>
		<path class="st2" d="M14,119.6h143.9c1.7,0,3,1.3,3,3v24.7c0,1.7-1.3,3-3,3H14c-1.7,0-3-1.3-3-3v-24.7C11,121,12.3,119.6,14,119.6
			z"/>
	</g>
	<g>
		<path class="st1" d="M157.9,120.6c1.1,0,2,0.9,2,2v24.7c0,1.1-0.9,2-2,2H14c-1.1,0-2-0.9-2-2v-24.7c0-1.1,0.9-2,2-2H157.9
			 M157.9,118.6H14c-2.2,0-4,1.8-4,4v24.7c0,2.2,1.8,4,4,4h143.9c2.2,0,4-1.8,4-4v-24.7C161.9,120.4,160.1,118.6,157.9,118.6z"/>
	</g>
	<g>
		<path class="st2" d="M14,120.6h143.9c1.1,0,2,0.9,2,2v24.7c0,1.1-0.9,2-2,2H14c-1.1,0-2-0.9-2-2v-24.7
			C12,121.5,12.9,120.6,14,120.6z"/>
	</g>
	<g>
		<path class="st3" d="M14,120.6h143.9c1.1,0,2,0.9,2,2v24.7c0,1.1-0.9,2-2,2H14c-1.1,0-2-0.9-2-2v-24.7
			C12,121.5,12.9,120.6,14,120.6z"/>
	</g>
</g>
<g>
	<g>
		<path class="st2" d="M168.1,119.6h143.9c1.7,0,3,1.3,3,3v24.7c0,1.7-1.3,3-3,3H168.1c-1.7,0-3-1.3-3-3v-24.7
			C165.1,121,166.4,119.6,168.1,119.6z"/>
	</g>
	<g>
		<path class="st1" d="M311.9,120.6c1.1,0,2,0.9,2,2v24.7c0,1.1-0.9,2-2,2H168.1c-1.1,0-2-0.9-2-2v-24.7c0-1.1,0.9-2,2-2H311.9
			 M311.9,118.6H168.1c-2.2,0-4,1.8-4,4v24.7c0,2.2,1.8,4,4,4h143.9c2.2,0,4-1.8,4-4v-24.7C315.9,120.4,314.2,118.6,311.9,118.6z"/>
	</g>
	<g>
		<path class="st2" d="M168.1,120.6h143.9c1.1,0,2,0.9,2,2v24.7c0,1.1-0.9,2-2,2H168.1c-1.1,0-2-0.9-2-2v-24.7
			C166.1,121.5,166.9,120.6,168.1,120.6z"/>
	</g>
	<g>
		<path class="st3" d="M168.1,120.6h143.9c1.1,0,2,0.9,2,2v24.7c0,1.1-0.9,2-2,2H168.1c-1.1,0-2-0.9-2-2v-24.7
			C166.1,121.5,166.9,120.6,168.1,120.6z"/>
	</g>
</g>
<g>
	<g>
		<path class="st2" d="M322.1,119.6H466c1.7,0,3,1.3,3,3v24.7c0,1.7-1.3,3-3,3H322.1c-1.7,0-3-1.3-3-3v-24.7
			C319.1,121,320.5,119.6,322.1,119.6z"/>
	</g>
	<g>
		<path class="st1" d="M466,120.6c1.1,0,2,0.9,2,2v24.7c0,1.1-0.9,2-2,2H322.1c-1.1,0-2-0.9-2-2v-24.7c0-1.1,0.9-2,2-2H466
			 M466,118.6H322.1c-2.2,0-4,1.8-4,4v24.7c0,2.2,1.8,4,4,4H466c2.2,0,4-1.8,4-4v-24.7C470,120.4,468.2,118.6,466,118.6z"/>
	</g>
	<g>
		<path class="st2" d="M322.1,120.6H466c1.1,0,2,0.9,2,2v24.7c0,1.1-0.9,2-2,2H322.1c-1.1,0-2-0.9-2-2v-24.7
			C320.1,121.5,321,120.6,322.1,120.6z"/>
	</g>
	<g>
		<path class="st2" d="M322.1,120.6H466c1.1,0,2,0.9,2,2v24.7c0,1.1-0.9,2-2,2H322.1c-1.1,0-2-0.9-2-2v-24.7
			C320.1,121.5,321,120.6,322.1,120.6z"/>
	</g>
</g>
<g class="st4">
	<g>
		<path class="st0" d="M249.3,129.9c1,1.6,1.4,3.4,1.4,5.4c0,1.9-0.5,3.7-1.4,5.4s-2.3,2.9-3.9,3.9s-3.4,1.4-5.4,1.4
			s-3.7-0.5-5.4-1.4c-1.6-1-2.9-2.3-3.9-3.9c-1-1.6-1.4-3.4-1.4-5.4c0-1.9,0.5-3.7,1.4-5.4c1-1.6,2.3-2.9,3.9-3.9
			c1.6-1,3.4-1.4,5.4-1.4s3.7,0.5,5.4,1.4S248.3,128.3,249.3,129.9z M247.2,133c0-0.3-0.1-0.5-0.3-0.6l-1.3-1.3
			c-0.2-0.2-0.4-0.3-0.6-0.3c-0.2,0-0.5,0.1-0.6,0.3l-5.7,5.7l-3.2-3.2c-0.2-0.2-0.4-0.3-0.6-0.3c-0.2,0-0.5,0.1-0.6,0.3l-1.3,1.3
			c-0.2,0.2-0.3,0.4-0.3,0.6c0,0.3,0.1,0.5,0.3,0.6l5.1,5.1c0.2,0.2,0.4,0.3,0.6,0.3c0.3,0,0.5-0.1,0.6-0.3l7.6-7.6
			C247.1,133.5,247.2,133.3,247.2,133z"/>
	</g>
</g>
<g class="st4">
	<g>
		<path class="st0" d="M395.4,126.1l9.4,17.3c0.3,0.5,0.3,1,0,1.5c-0.1,0.2-0.3,0.4-0.6,0.6c-0.2,0.1-0.5,0.2-0.8,0.2h-18.9
			c-0.3,0-0.5-0.1-0.8-0.2c-0.2-0.1-0.4-0.3-0.6-0.6c-0.3-0.5-0.3-1,0-1.5l9.4-17.3c0.1-0.3,0.3-0.5,0.6-0.6
			c0.2-0.1,0.5-0.2,0.8-0.2c0.3,0,0.6,0.1,0.8,0.2C395.1,125.6,395.3,125.8,395.4,126.1z M395.6,137.5l0.2-5.6c0-0.1,0-0.2-0.1-0.2
			c-0.1-0.1-0.2-0.1-0.3-0.1h-2.7c-0.1,0-0.2,0-0.3,0.1c-0.1,0.1-0.1,0.1-0.1,0.3l0.2,5.6c0,0.1,0,0.1,0.1,0.2
			c0.1,0.1,0.2,0.1,0.3,0.1h2.3c0.1,0,0.2,0,0.3-0.1C395.5,137.7,395.6,137.6,395.6,137.5z M395.6,142.1v-2.3c0-0.1,0-0.2-0.1-0.3
			s-0.2-0.1-0.3-0.1h-2.4c-0.1,0-0.2,0-0.3,0.1c-0.1,0.1-0.1,0.2-0.1,0.3v2.3c0,0.1,0,0.2,0.1,0.3c0.1,0.1,0.2,0.1,0.3,0.1h2.4
			c0.1,0,0.2,0,0.3-0.1C395.6,142.3,395.6,142.2,395.6,142.1z"/>
	</g>
</g>
<g class="st4">
	<g>
		<path class="st0" d="M95.2,129.9c1,1.6,1.4,3.4,1.4,5.4c0,1.9-0.5,3.7-1.4,5.4c-1,1.6-2.3,2.9-3.9,3.9s-3.4,1.4-5.4,1.4
			s-3.7-0.5-5.4-1.4c-1.6-1-2.9-2.3-3.9-3.9c-1-1.6-1.4-3.4-1.4-5.4c0-1.9,0.5-3.7,1.4-5.4c1-1.6,2.3-2.9,3.9-3.9
			c1.6-1,3.4-1.4,5.4-1.4s3.7,0.5,5.4,1.4S94.3,128.3,95.2,129.9z M93.1,133c0-0.3-0.1-0.5-0.3-0.6l-1.3-1.3
			c-0.2-0.2-0.4-0.3-0.6-0.3c-0.2,0-0.5,0.1-0.6,0.3l-5.7,5.7l-3.2-3.2c-0.2-0.2-0.4-0.3-0.6-0.3c-0.2,0-0.5,0.1-0.6,0.3l-1.3,1.3
			c-0.2,0.2-0.3,0.4-0.3,0.6c0,0.3,0.1,0.5,0.3,0.6l5.1,5.1c0.2,0.2,0.4,0.3,0.6,0.3c0.3,0,0.5-0.1,0.6-0.3l7.6-7.6
			C93.1,133.5,93.1,133.3,93.1,133z"/>
	</g>
</g>
<g>
	<g>
		<g>
			<path class="st1" d="M192.4,85.7c-0.6,0-1-0.4-1-1V24.8c0-0.6,0.4-1,1-1s1,0.4,1,1v59.8C193.4,85.2,192.9,85.7,192.4,85.7z"/>
		</g>
		<g>
			<path class="st1" d="M360.6,85.7H192.6c-0.6,0-1-0.4-1-1s0.4-1,1-1h168.1c0.6,0,1,0.4,1,1S361.2,85.7,360.6,85.7z"/>
		</g>
	</g>
	<g>
		<path class="st3" d="M200.8,47.6H269c1.1,0,2,0.9,2,2v7.1c0,1.1-0.9,2-2,2h-68.2c-1.1,0-2-0.9-2-2v-7.1
			C198.8,48.5,199.7,47.6,200.8,47.6z"/>
	</g>
	<g>
		<path class="st5" d="M318.5,31.6v7.1c0,1.1-0.9,2-2,2H200.8c-1.1,0-2-0.9-2-2v-7.1c0-1.1,0.9-2,2-2h115.8
			C317.6,29.6,318.5,30.5,318.5,31.6z"/>
	</g>
	<g>
		<path class="st2" d="M340.1,67.6v7.1c0,1.1-0.9,2-2,2H200.8c-1.1,0-2-0.9-2-2v-7.1c0-1.1,0.9-2,2-2h137.4
			C339.2,65.6,340.1,66.5,340.1,67.6z"/>
	</g>
	<g>
		<path class="st1" d="M199,91.2c-0.5,0-1-0.4-1-1v-4.7c0-0.5,0.4-1,1-1s1,0.4,1,1v4.7C199.9,90.7,199.5,91.2,199,91.2z"/>
	</g>
	<g>
		<g>
			<path class="st1" d="M199,91.2c-0.6,0-1-0.4-1-1v-4.7c0-0.6,0.4-1,1-1s1,0.4,1,1v4.7C200,90.7,199.5,91.2,199,91.2z"/>
		</g>
		<g>
			<path class="st1" d="M216.6,91.2c-0.6,0-1-0.4-1-1v-4.7c0-0.6,0.4-1,1-1s1,0.4,1,1v4.7C217.6,90.7,217.1,91.2,216.6,91.2z"/>
		</g>
		<g>
			<path class="st1" d="M234.2,91.2c-0.6,0-1-0.4-1-1v-4.7c0-0.6,0.4-1,1-1s1,0.4,1,1v4.7C235.2,90.7,234.7,91.2,234.2,91.2z"/>
		</g>
		<g>
			<path class="st1" d="M251.8,91.2c-0.6,0-1-0.4-1-1v-4.7c0-0.6,0.4-1,1-1s1,0.4,1,1v4.7C252.8,90.7,252.3,91.2,251.8,91.2z"/>
		</g>
		<g>
			<path class="st1" d="M269.4,91.2c-0.6,0-1-0.4-1-1v-4.7c0-0.6,0.4-1,1-1s1,0.4,1,1v4.7C270.4,90.7,269.9,91.2,269.4,91.2z"/>
		</g>
		<g>
			<path class="st1" d="M287,91.2c-0.6,0-1-0.4-1-1v-4.7c0-0.6,0.4-1,1-1s1,0.4,1,1v4.7C288,90.7,287.5,91.2,287,91.2z"/>
		</g>
		<g>
			<path class="st1" d="M304.6,91.2c-0.6,0-1-0.4-1-1v-4.7c0-0.6,0.4-1,1-1s1,0.4,1,1v4.7C305.6,90.7,305.1,91.2,304.6,91.2z"/>
		</g>
		<g>
			<path class="st1" d="M322.2,91.2c-0.6,0-1-0.4-1-1v-4.7c0-0.6,0.4-1,1-1s1,0.4,1,1v4.7C323.2,90.7,322.7,91.2,322.2,91.2z"/>
		</g>
		<g>
			<path class="st1" d="M339.8,91.2c-0.6,0-1-0.4-1-1v-4.7c0-0.6,0.4-1,1-1s1,0.4,1,1v4.7C340.8,90.7,340.3,91.2,339.8,91.2z"/>
		</g>
		<g>
			<path class="st1" d="M357.4,91.2c-0.6,0-1-0.4-1-1v-4.7c0-0.6,0.4-1,1-1s1,0.4,1,1v4.7C358.4,90.7,357.9,91.2,357.4,91.2z"/>
		</g>
	</g>
</g>
<g>
	<g>
		<path class="st1" d="M416.7,114.9c-0.5,0-1-0.4-1-1C415.5,93.4,410.1,59,377,59c-0.6,0-1-0.4-1-1s0.4-1,1-1
			c15.4,0,26.7,7,33.5,20.8c5.8,11.7,7.1,26.1,7.2,36C417.7,114.4,417.2,114.9,416.7,114.9C416.7,114.9,416.7,114.9,416.7,114.9z"/>
	</g>
	<g>
		<polygon class="st1" points="416,128 408.7,107.8 416.6,112.8 424.9,108.4 		"/>
	</g>
</g>
<g>
	<g>
		<path class="st0" d="M24,172h177c6.6,0,12,5.4,12,12v65c0,6.6-5.4,12-12,12H24c-6.6,0-12-5.4-12-12v-65C12,177.4,17.4,172,24,172z
			"/>
		<path class="st1" d="M201,262H24c-7.2,0-13-5.8-13-13v-65c0-7.2,5.8-13,13-13h177c7.2,0,13,5.8,13,13v65
			C214,256.2,208.2,262,201,262z M24,173c-6.1,0-11,4.9-11,11v65c0,6.1,4.9,11,11,11h177c6.1,0,11-4.9,11-11v-65c0-6.1-4.9-11-11-11
			H24z"/>
	</g>
	<g>
		<g>
			<g>
				<path class="st1" d="M31.1,247.2c-0.6,0-1-0.4-1-1v-64.8c0-0.6,0.4-1,1-1s1,0.4,1,1v64.8C32.1,246.7,31.6,247.2,31.1,247.2z"/>
			</g>
			<g>
				<path class="st1" d="M199.3,247.2H31.2c-0.6,0-1-0.4-1-1s0.4-1,1-1h168.1c0.6,0,1,0.4,1,1S199.9,247.2,199.3,247.2z"/>
			</g>
		</g>
		<g>
			<path class="st1" d="M37.6,252.7c-0.6,0-1-0.4-1-1V247c0-0.6,0.4-1,1-1s1,0.4,1,1v4.7C38.6,252.2,38.2,252.7,37.6,252.7z"/>
		</g>
		<g>
			<g>
				<path class="st1" d="M37.6,252.7c-0.6,0-1-0.4-1-1V247c0-0.6,0.4-1,1-1s1,0.4,1,1v4.7C38.6,252.2,38.2,252.7,37.6,252.7z"/>
			</g>
			<g>
				<path class="st1" d="M55.2,252.7c-0.6,0-1-0.4-1-1V247c0-0.6,0.4-1,1-1s1,0.4,1,1v4.7C56.2,252.2,55.8,252.7,55.2,252.7z"/>
			</g>
			<g>
				<path class="st1" d="M72.8,252.7c-0.6,0-1-0.4-1-1V247c0-0.6,0.4-1,1-1s1,0.4,1,1v4.7C73.8,252.2,73.4,252.7,72.8,252.7z"/>
			</g>
			<g>
				<path class="st1" d="M90.4,252.7c-0.6,0-1-0.4-1-1V247c0-0.6,0.4-1,1-1s1,0.4,1,1v4.7C91.4,252.2,91,252.7,90.4,252.7z"/>
			</g>
			<g>
				<path class="st1" d="M108,252.7c-0.6,0-1-0.4-1-1V247c0-0.6,0.4-1,1-1s1,0.4,1,1v4.7C109,252.2,108.6,252.7,108,252.7z"/>
			</g>
			<g>
				<path class="st1" d="M125.6,252.7c-0.6,0-1-0.4-1-1V247c0-0.6,0.4-1,1-1s1,0.4,1,1v4.7C126.6,252.2,126.2,252.7,125.6,252.7z"/>
			</g>
			<g>
				<path class="st1" d="M143.3,252.7c-0.6,0-1-0.4-1-1V247c0-0.6,0.4-1,1-1s1,0.4,1,1v4.7C144.3,252.2,143.8,252.7,143.3,252.7z"/>
			</g>
			<g>
				<path class="st1" d="M160.9,252.7c-0.6,0-1-0.4-1-1V247c0-0.6,0.4-1,1-1s1,0.4,1,1v4.7C161.9,252.2,161.4,252.7,160.9,252.7z"/>
			</g>
			<g>
				<path class="st1" d="M178.5,252.7c-0.6,0-1-0.4-1-1V247c0-0.6,0.4-1,1-1s1,0.4,1,1v4.7C179.5,252.2,179,252.7,178.5,252.7z"/>
			</g>
			<g>
				<path class="st1" d="M196.1,252.7c-0.6,0-1-0.4-1-1V247c0-0.6,0.4-1,1-1s1,0.4,1,1v4.7C197.1,252.2,196.6,252.7,196.1,252.7z"/>
			</g>
		</g>
		<g>
			<g>
				<path class="st1" d="M30.4,242.3h-4.7c-0.6,0-1-0.4-1-1s0.4-1,1-1h4.7c0.6,0,1,0.4,1,1S31,242.3,30.4,242.3z"/>
			</g>
			<g>
				<path class="st1" d="M30.4,236h-4.7c-0.6,0-1-0.4-1-1s0.4-1,1-1h4.7c0.6,0,1,0.4,1,1S31,236,30.4,236z"/>
			</g>
			<g>
				<path class="st1" d="M30.4,229.7h-4.7c-0.6,0-1-0.4-1-1s0.4-1,1-1h4.7c0.6,0,1,0.4,1,1S31,229.7,30.4,229.7z"/>
			</g>
			<g>
				<path class="st1" d="M30.4,223.3h-4.7c-0.6,0-1-0.4-1-1s0.4-1,1-1h4.7c0.6,0,1,0.4,1,1S31,223.3,30.4,223.3z"/>
			</g>
			<g>
				<path class="st1" d="M30.4,217h-4.7c-0.6,0-1-0.4-1-1s0.4-1,1-1h4.7c0.6,0,1,0.4,1,1S31,217,30.4,217z"/>
			</g>
			<g>
				<path class="st1" d="M30.4,210.7h-4.7c-0.6,0-1-0.4-1-1s0.4-1,1-1h4.7c0.6,0,1,0.4,1,1S31,210.7,30.4,210.7z"/>
			</g>
			<g>
				<path class="st1" d="M30.4,204.3h-4.7c-0.6,0-1-0.4-1-1s0.4-1,1-1h4.7c0.6,0,1,0.4,1,1S31,204.3,30.4,204.3z"/>
			</g>
			<g>
				<path class="st1" d="M30.4,198h-4.7c-0.6,0-1-0.4-1-1s0.4-1,1-1h4.7c0.6,0,1,0.4,1,1S31,198,30.4,198z"/>
			</g>
			<g>
				<path class="st1" d="M30.4,191.7h-4.7c-0.6,0-1-0.4-1-1s0.4-1,1-1h4.7c0.6,0,1,0.4,1,1S31,191.7,30.4,191.7z"/>
			</g>
			<g>
				<path class="st1" d="M30.4,185.3h-4.7c-0.6,0-1-0.4-1-1s0.4-1,1-1h4.7c0.6,0,1,0.4,1,1S31,185.3,30.4,185.3z"/>
			</g>
		</g>
		<g>
			<g>
				<path class="st1" d="M39.1,231.8c-0.5,0-0.9-0.4-1-0.8c-0.1-0.5,0.3-1.1,0.8-1.1l24.9-4l29.9-8l28.3-14.2l32.2,14.1l33.7-5.9
					c0.5-0.1,1.1,0.3,1.2,0.8c0.1,0.5-0.3,1.1-0.8,1.2l-34.3,6.1l-31.8-13.9l-27.8,13.9l-30.1,8l-25,4
					C39.2,231.8,39.1,231.8,39.1,231.8z"/>
			</g>
			<g>
				<circle class="st3" cx="39.1" cy="230.8" r="2"/>
				<path class="st1" d="M39.1,233.8c-1.7,0-3-1.3-3-3s1.3-3,3-3s3,1.3,3,3S40.7,233.8,39.1,233.8z M39.1,229.8c-0.6,0-1,0.4-1,1
					s0.4,1,1,1s1-0.4,1-1S39.6,229.8,39.1,229.8z"/>
			</g>
			<g>
				<circle class="st3" cx="64.1" cy="226.8" r="2"/>
				<path class="st1" d="M64.1,229.8c-1.7,0-3-1.3-3-3s1.3-3,3-3s3,1.3,3,3S65.7,229.8,64.1,229.8z M64.1,225.8c-0.6,0-1,0.4-1,1
					s0.4,1,1,1s1-0.4,1-1S64.6,225.8,64.1,225.8z"/>
			</g>
			<g>
				<circle class="st3" cx="94.1" cy="218.8" r="2"/>
				<path class="st1" d="M94.1,221.8c-1.7,0-3-1.3-3-3s1.3-3,3-3s3,1.3,3,3S95.7,221.8,94.1,221.8z M94.1,217.8c-0.6,0-1,0.4-1,1
					s0.4,1,1,1s1-0.4,1-1S94.6,217.8,94.1,217.8z"/>
			</g>
			<g>
				<circle class="st3" cx="122.1" cy="204.8" r="2"/>
				<path class="st1" d="M122.1,207.8c-1.7,0-3-1.3-3-3s1.3-3,3-3s3,1.3,3,3S123.7,207.8,122.1,207.8z M122.1,203.8
					c-0.6,0-1,0.4-1,1s0.4,1,1,1s1-0.4,1-1S122.6,203.8,122.1,203.8z"/>
			</g>
			<g>
				<circle class="st3" cx="154.1" cy="218.8" r="2"/>
				<path class="st1" d="M154.1,221.8c-1.7,0-3-1.3-3-3s1.3-3,3-3s3,1.3,3,3S155.7,221.8,154.1,221.8z M154.1,217.8
					c-0.6,0-1,0.4-1,1s0.4,1,1,1s1-0.4,1-1S154.6,217.8,154.1,217.8z"/>
			</g>
			<g>
				<circle class="st3" cx="188.1" cy="212.8" r="2"/>
				<path class="st1" d="M188.1,215.8c-1.7,0-3-1.3-3-3s1.3-3,3-3s3,1.3,3,3S189.7,215.8,188.1,215.8z M188.1,211.8
					c-0.6,0-1,0.4-1,1s0.4,1,1,1s1-0.4,1-1S188.6,211.8,188.1,211.8z"/>
			</g>
		</g>
		<g>
			<g>
				<path class="st1" d="M122,215.9l-28-12l-30,11l-24.4-10.2c-0.5-0.2-0.8-0.8-0.5-1.3c0.2-0.5,0.8-0.8,1.3-0.5l23.6,9.8l30-11
					l28,12l31.7-12.9l34.1-4c0.5-0.1,1,0.3,1.1,0.9c0.1,0.5-0.3,1-0.9,1.1l-33.9,4L122,215.9z"/>
			</g>
			<g>
				<circle class="st5" cx="40.1" cy="203.8" r="2"/>
				<path class="st1" d="M40.1,206.8c-1.7,0-3-1.3-3-3s1.3-3,3-3s3,1.3,3,3S41.7,206.8,40.1,206.8z M40.1,202.8c-0.6,0-1,0.4-1,1
					s0.4,1,1,1s1-0.4,1-1S40.6,202.8,40.1,202.8z"/>
			</g>
			<g>
				<circle class="st5" cx="64.1" cy="213.8" r="2"/>
				<path class="st1" d="M64.1,216.8c-1.7,0-3-1.3-3-3s1.3-3,3-3s3,1.3,3,3S65.7,216.8,64.1,216.8z M64.1,212.8c-0.6,0-1,0.4-1,1
					s0.4,1,1,1s1-0.4,1-1S64.6,212.8,64.1,212.8z"/>
			</g>
			<g>
				<circle class="st5" cx="94.1" cy="202.8" r="2"/>
				<path class="st1" d="M94.1,205.8c-1.7,0-3-1.3-3-3s1.3-3,3-3s3,1.3,3,3S95.7,205.8,94.1,205.8z M94.1,201.8c-0.6,0-1,0.4-1,1
					s0.4,1,1,1s1-0.4,1-1S94.6,201.8,94.1,201.8z"/>
			</g>
			<g>
				<circle class="st5" cx="122.1" cy="214.8" r="2"/>
				<path class="st1" d="M122.1,217.8c-1.7,0-3-1.3-3-3s1.3-3,3-3s3,1.3,3,3S123.7,217.8,122.1,217.8z M122.1,213.8
					c-0.6,0-1,0.4-1,1s0.4,1,1,1s1-0.4,1-1S122.6,213.8,122.1,213.8z"/>
			</g>
			<g>
				<circle class="st5" cx="154.1" cy="201.8" r="2"/>
				<path class="st1" d="M154.1,204.8c-1.7,0-3-1.3-3-3s1.3-3,3-3s3,1.3,3,3S155.7,204.8,154.1,204.8z M154.1,200.8
					c-0.6,0-1,0.4-1,1s0.4,1,1,1s1-0.4,1-1S154.6,200.8,154.1,200.8z"/>
			</g>
			<g>
				<circle class="st5" cx="188.1" cy="197.8" r="2"/>
				<path class="st1" d="M188.1,200.8c-1.7,0-3-1.3-3-3s1.3-3,3-3s3,1.3,3,3S189.7,200.8,188.1,200.8z M188.1,196.8
					c-0.6,0-1,0.4-1,1s0.4,1,1,1s1-0.4,1-1S188.6,196.8,188.1,196.8z"/>
			</g>
		</g>
		<g>
			<g>
				<path class="st1" d="M39.1,231.8c-0.5,0-0.9-0.4-1-0.8c-0.1-0.5,0.3-1.1,0.8-1.1l24.9-4l29.9-8l28.3-14.2l32.2,14.1l33.7-5.9
					c0.5-0.1,1.1,0.3,1.2,0.8c0.1,0.5-0.3,1.1-0.8,1.2l-34.3,6.1l-31.8-13.9l-27.8,13.9l-30.1,8l-25,4
					C39.2,231.8,39.1,231.8,39.1,231.8z"/>
			</g>
			<g>
				<circle class="st2" cx="39.1" cy="230.8" r="2"/>
				<path class="st1" d="M39.1,233.8c-1.7,0-3-1.3-3-3s1.3-3,3-3s3,1.3,3,3S40.7,233.8,39.1,233.8z M39.1,229.8c-0.6,0-1,0.4-1,1
					s0.4,1,1,1s1-0.4,1-1S39.6,229.8,39.1,229.8z"/>
			</g>
			<g>
				<circle class="st2" cx="64.1" cy="226.8" r="2"/>
				<path class="st1" d="M64.1,229.8c-1.7,0-3-1.3-3-3s1.3-3,3-3s3,1.3,3,3S65.7,229.8,64.1,229.8z M64.1,225.8c-0.6,0-1,0.4-1,1
					s0.4,1,1,1s1-0.4,1-1S64.6,225.8,64.1,225.8z"/>
			</g>
			<g>
				<circle class="st2" cx="94.1" cy="218.8" r="2"/>
				<path class="st1" d="M94.1,221.8c-1.7,0-3-1.3-3-3s1.3-3,3-3s3,1.3,3,3S95.7,221.8,94.1,221.8z M94.1,217.8c-0.6,0-1,0.4-1,1
					s0.4,1,1,1s1-0.4,1-1S94.6,217.8,94.1,217.8z"/>
			</g>
			<g>
				<circle class="st2" cx="122.1" cy="204.8" r="2"/>
				<path class="st1" d="M122.1,207.8c-1.7,0-3-1.3-3-3s1.3-3,3-3s3,1.3,3,3S123.7,207.8,122.1,207.8z M122.1,203.8
					c-0.6,0-1,0.4-1,1s0.4,1,1,1s1-0.4,1-1S122.6,203.8,122.1,203.8z"/>
			</g>
			<g>
				<circle class="st2" cx="154.1" cy="218.8" r="2"/>
				<path class="st1" d="M154.1,221.8c-1.7,0-3-1.3-3-3s1.3-3,3-3s3,1.3,3,3S155.7,221.8,154.1,221.8z M154.1,217.8
					c-0.6,0-1,0.4-1,1s0.4,1,1,1s1-0.4,1-1S154.6,217.8,154.1,217.8z"/>
			</g>
			<g>
				<circle class="st2" cx="188.1" cy="212.8" r="2"/>
				<path class="st1" d="M188.1,215.8c-1.7,0-3-1.3-3-3s1.3-3,3-3s3,1.3,3,3S189.7,215.8,188.1,215.8z M188.1,211.8
					c-0.6,0-1,0.4-1,1s0.4,1,1,1s1-0.4,1-1S188.6,211.8,188.1,211.8z"/>
			</g>
		</g>
		<g>
			<g>
				<path class="st1" d="M64,196.9l-0.2-0.1l-24-7c-0.5-0.2-0.8-0.7-0.7-1.2c0.2-0.5,0.7-0.8,1.2-0.7l23.8,6.9l29.8-5l28.1-5l0.1,0
					l31.9,2l33.9-2c0.5,0,1,0.4,1.1,0.9c0,0.6-0.4,1-0.9,1.1l-34.1,2l-0.1,0l-31.9-2l-27.9,5L64,196.9z"/>
			</g>
			<g>
				<circle class="st3" cx="40.1" cy="188.8" r="2"/>
				<path class="st1" d="M40.1,191.8c-1.7,0-3-1.3-3-3s1.3-3,3-3s3,1.3,3,3S41.7,191.8,40.1,191.8z M40.1,187.8c-0.6,0-1,0.4-1,1
					s0.4,1,1,1s1-0.4,1-1S40.6,187.8,40.1,187.8z"/>
			</g>
			<g>
				<circle class="st3" cx="64.1" cy="195.8" r="2"/>
				<path class="st1" d="M64.1,198.8c-1.7,0-3-1.3-3-3s1.3-3,3-3s3,1.3,3,3S65.7,198.8,64.1,198.8z M64.1,194.8c-0.6,0-1,0.4-1,1
					s0.4,1,1,1s1-0.4,1-1S64.6,194.8,64.1,194.8z"/>
			</g>
			<g>
				<circle class="st3" cx="94.1" cy="190.8" r="2"/>
				<path class="st1" d="M94.1,193.8c-1.7,0-3-1.3-3-3s1.3-3,3-3s3,1.3,3,3S95.7,193.8,94.1,193.8z M94.1,189.8c-0.6,0-1,0.4-1,1
					s0.4,1,1,1s1-0.4,1-1S94.6,189.8,94.1,189.8z"/>
			</g>
			<g>
				<circle class="st3" cx="122.1" cy="185.8" r="2"/>
				<path class="st1" d="M122.1,188.8c-1.7,0-3-1.3-3-3s1.3-3,3-3s3,1.3,3,3S123.7,188.8,122.1,188.8z M122.1,184.8
					c-0.6,0-1,0.4-1,1s0.4,1,1,1s1-0.4,1-1S122.6,184.8,122.1,184.8z"/>
			</g>
			<g>
				<circle class="st3" cx="154.1" cy="187.8" r="2"/>
				<path class="st1" d="M154.1,190.8c-1.7,0-3-1.3-3-3s1.3-3,3-3s3,1.3,3,3S155.7,190.8,154.1,190.8z M154.1,186.8
					c-0.6,0-1,0.4-1,1s0.4,1,1,1s1-0.4,1-1S154.6,186.8,154.1,186.8z"/>
			</g>
			<g>
				<circle class="st3" cx="188.1" cy="185.8" r="2"/>
				<path class="st1" d="M188.1,188.8c-1.7,0-3-1.3-3-3s1.3-3,3-3s3,1.3,3,3S189.7,188.8,188.1,188.8z M188.1,184.8
					c-0.6,0-1,0.4-1,1s0.4,1,1,1s1-0.4,1-1S188.6,184.8,188.1,184.8z"/>
			</g>
		</g>
	</g>
	<g>
		<g>
			<path class="st1" d="M213.1,217.8c-0.6,0-1-0.4-1-1s0.4-1,1-1c16.1,0,37.6-5.6,57.4-15c16.7-7.9,40.2-22.3,57.2-45.5
				c0.3-0.4,1-0.5,1.4-0.2c0.4,0.3,0.5,1,0.2,1.4c-17.2,23.6-41,38.1-57.9,46.1C251.2,212.1,229.4,217.8,213.1,217.8z"/>
		</g>
		<g>
			<polygon class="st1" points="336,144 332,165.1 327.7,156.7 318.4,156.3 			"/>
		</g>
	</g>
</g>
</svg>
