<?xml version="1.0" encoding="utf-8"?>
<!-- Generator: Adobe Illustrator 22.0.1, SVG Export Plug-In . SVG Version: 6.00 Build 0)  -->
<svg version="1.1" id="Layer_1" xmlns="http://www.w3.org/2000/svg" xmlns:xlink="http://www.w3.org/1999/xlink" x="0px" y="0px"
	 viewBox="0 0 563.5 424" style="enable-background:new 0 0 563.5 424;" xml:space="preserve">
<style type="text/css">
	.st0{fill:#EFEFEF;stroke:#1C425C;stroke-width:3;stroke-miterlimit:10;}
	.st1{enable-background:new    ;}
	.st2{fill:#1C425C;}
	.st3{fill:#BDD350;}
	.st4{fill:#36B1BF;}
	.st5{fill:none;stroke:#1C425C;stroke-width:3;stroke-miterlimit:10;}
	.st6{fill:#FFD34E;}
	.st7{fill:none;stroke:#023550;stroke-width:3;stroke-miterlimit:10;}
	.st8{fill:none;}
	.st9{fill:#E74C3C;}
	.st10{fill:none;stroke:#F48E36;stroke-width:9;stroke-miterlimit:10;}
	.st11{fill:#F48E36;}
</style>
<path class="st0" d="M128.4,257.2h-102c-5,0-9-4-9-9v-67c0-5,4-9,9-9h102c5,0,9,4,9,9v67C137.4,253.2,133.4,257.2,128.4,257.2z"/>
<g class="st1">
	<path class="st2" d="M44.6,187.3c-0.7-0.8-1.3-1.1-2-1.1c-1.4,0-2.6,1.2-2.6,2.6c0,1.5,1.1,2.6,2.6,2.6c0.8,0,1.3-0.3,2.1-1.1
		l1.1,1c-1,1.1-2,1.5-3.2,1.5c-2.3,0-4.2-1.8-4.2-4.1c0-2.3,1.9-4.1,4.2-4.1c1.2,0,2.1,0.4,3.1,1.5L44.6,187.3z"/>
	<path class="st2" d="M54.3,188.8c0,2.2-1.9,4.1-4.1,4.1c-2.3,0-4.1-1.8-4.1-4.2c0-2.2,1.9-4,4.1-4
		C52.4,184.7,54.3,186.6,54.3,188.8z M47.6,188.9c0,1.4,1.2,2.6,2.5,2.6c1.4,0,2.5-1.2,2.5-2.6c0-1.5-1.1-2.6-2.6-2.6
		S47.6,187.4,47.6,188.9z"/>
	<path class="st2" d="M55.4,184.9h1.4l2.5,4.3l2.5-4.3h1.4v7.8h-1.6V188l-1.8,3.1h-1.1L57,188v4.7h-1.6V184.9z"/>
	<path class="st2" d="M64.8,184.9h1.4l2.5,4.3l2.5-4.3h1.4v7.8h-1.6V188l-1.8,3.1h-1.1l-1.8-3.1v4.7h-1.6V184.9z"/>
	<path class="st2" d="M75.7,192.7h-1.6v-7.8h1.6V192.7z"/>
	<path class="st2" d="M81.7,186.3h-1.9v6.4h-1.6v-6.4h-1.9v-1.4h5.3V186.3z"/>
	<path class="st2" d="M88.7,187.1c-0.5-0.7-0.7-0.9-1.2-0.9c-0.6,0-1,0.4-1,0.9c0,0.3,0.3,0.6,0.8,0.8l0.7,0.3
		c1.3,0.5,1.9,1.2,1.9,2.2c0,1.4-1.2,2.6-2.7,2.6c-0.8,0-1.6-0.4-2.1-0.9c-0.3-0.4-0.5-0.8-0.6-1.5l1.5-0.4c0.1,0.5,0.2,0.7,0.3,0.9
		c0.2,0.3,0.5,0.5,0.9,0.5c0.6,0,1.1-0.5,1.1-1.1c0-0.4-0.3-0.7-1.1-1l-0.7-0.3c-1.2-0.5-1.8-1.2-1.8-2.1c0-1.3,1.1-2.3,2.6-2.3
		c1.1,0,1.8,0.5,2.5,1.5L88.7,187.1z"/>
	<path class="st2" d="M95.8,186.3h-1.9v6.4h-1.6v-6.4h-1.9v-1.4h5.3V186.3z"/>
	<path class="st2" d="M97.4,190.9l-0.7,1.8h-1.6l2.9-7.8h1.8l2.9,7.8h-1.7l-0.6-1.8H97.4z M99,186.6l-1,2.9h2.1L99,186.6z"/>
	<path class="st2" d="M110.6,188.3v0.8c0,2.3-1.5,3.8-3.6,3.8c-2.3,0-4.2-1.8-4.2-4.1c0-2.3,1.9-4.1,4.2-4.1c1.2,0,2.1,0.4,3.1,1.5
		l-1.1,1c-0.8-0.8-1.3-1-2.1-1c-1.5,0-2.6,1.2-2.6,2.6s1.1,2.6,2.6,2.6c0.6,0,1.1-0.2,1.5-0.6c0.3-0.3,0.4-0.5,0.5-1h-2.1v-1.4
		H110.6z"/>
	<path class="st2" d="M116.3,186.3h-2.9v1.7h2.6v1.4h-2.6v1.8h3v1.5h-4.6v-7.8h4.5V186.3z"/>
</g>
<g class="st1">
	<path class="st2" d="M65.2,205.1c-0.6-0.6-1-0.8-1.7-0.8c-1.2,0-2.2,1-2.2,2.3c0,1.3,1,2.2,2.2,2.2c0.5,0,0.9-0.2,1.3-0.5
		c0.1-0.1,0.2-0.2,0.4-0.4l0.7,0.6c-0.8,0.8-1.4,1.1-2.3,1.1c-1.8,0-3.2-1.4-3.2-3.1s1.4-3.1,3.1-3.1c0.9,0,1.6,0.3,2.3,1.1
		L65.2,205.1z"/>
	<path class="st2" d="M72.5,206.5c0,1.7-1.4,3.1-3.1,3.1c-1.7,0-3.1-1.4-3.1-3.2c0-1.7,1.4-3.1,3.1-3.1
		C71.1,203.4,72.5,204.8,72.5,206.5z M67.2,206.6c0,1.2,1,2.2,2.2,2.2c1.2,0,2.2-1,2.2-2.2c0-1.3-1-2.3-2.2-2.3
		C68.1,204.3,67.2,205.3,67.2,206.6z"/>
	<path class="st2" d="M73.5,203.5h0.9l2.1,3.7l2.1-3.7h0.9v6h-0.9v-4.2l-1.7,3h-0.7l-1.7-3v4.2h-0.9V203.5z"/>
	<path class="st2" d="M82,203.5c0.6,0,1,0.1,1.3,0.3c0.5,0.3,0.9,0.9,0.9,1.6c0,0.7-0.3,1.3-0.9,1.6c-0.3,0.2-0.7,0.3-1.3,0.3h-0.4
		v2.3h-0.9v-6H82z M82.1,206.3c0.4,0,0.7-0.1,0.9-0.3c0.1-0.2,0.2-0.4,0.2-0.7c0-0.4-0.2-0.7-0.4-0.8c-0.2-0.1-0.4-0.1-0.7-0.1h-0.5
		v2H82.1z"/>
	<path class="st2" d="M85.9,209.5h-0.9v-6h0.9V209.5z"/>
	<path class="st2" d="M88.1,208.7h2.2v0.9h-3.2v-6h0.9V208.7z"/>
	<path class="st2" d="M92,204.4v1.7h2.1v0.9H92v1.7h2.4v0.9h-3.3v-6h3.3v0.9H92z"/>
</g>
<g class="st1">
	<path class="st2" d="M60.1,214.3v3.7c0,0.5,0,0.8,0.2,1c0.2,0.3,0.7,0.6,1.1,0.6c0.5,0,0.9-0.2,1.1-0.6c0.1-0.2,0.2-0.4,0.2-1v-3.7
		h0.9v3.9c0,0.5-0.1,0.9-0.3,1.2c-0.4,0.6-1.1,1.1-1.9,1.1c-0.8,0-1.6-0.4-2-1.1c-0.2-0.3-0.3-0.7-0.3-1.2v-3.9H60.1z"/>
	<path class="st2" d="M64.9,214.3h0.8l3.3,4.4v-4.4h0.9v6h-0.8l-3.3-4.4v4.4h-0.9V214.3z"/>
	<path class="st2" d="M72.2,220.3h-0.9v-6h0.9V220.3z"/>
	<path class="st2" d="M75.3,215.2v5.1h-0.9v-5.1h-1.5v-0.9h3.9v0.9H75.3z"/>
	<path class="st2" d="M81.3,215.2v5.1h-0.9v-5.1h-1.5v-0.9h3.9v0.9H81.3z"/>
	<path class="st2" d="M84.4,215.2v1.7h2.1v0.9h-2.1v1.7h2.4v0.9h-3.3v-6h3.3v0.9H84.4z"/>
	<path class="st2" d="M90.5,215.8c-0.4-0.5-0.6-0.7-1-0.7c-0.5,0-0.9,0.4-0.9,0.8c0,0.3,0.2,0.6,0.8,0.8l0.6,0.2
		c1,0.4,1.4,0.9,1.4,1.7c0,1.1-0.9,1.9-2,1.9c-0.6,0-1.2-0.3-1.5-0.7c-0.2-0.3-0.3-0.5-0.4-1l0.9-0.2l0,0.1c0.2,0.6,0.5,1,1,1
		c0.6,0,1-0.4,1-1c0-0.4-0.2-0.6-0.9-0.9l-0.5-0.2c-0.9-0.3-1.3-0.9-1.3-1.6c0-1,0.8-1.7,1.9-1.7c0.8,0,1.3,0.3,1.8,1.1L90.5,215.8z
		"/>
	<path class="st2" d="M94.2,215.2v5.1h-0.9v-5.1h-1.5v-0.9h3.9v0.9H94.2z"/>
</g>
<g class="st1">
	<path class="st2" d="M60.1,231.1h-1l2.3-6h1.2l2.3,6h-1l-0.6-1.5h-2.6L60.1,231.1z M62.9,228.7l-1-2.6l-1,2.6H62.9z"/>
	<path class="st2" d="M65.4,225.1h0.8l3.3,4.4v-4.4h0.9v6h-0.8l-3.3-4.4v4.4h-0.9V225.1z"/>
	<path class="st2" d="M72.1,231.1h-1l2.3-6h1.2l2.3,6h-1l-0.6-1.5h-2.6L72.1,231.1z M74.9,228.7l-1-2.6l-1,2.6H74.9z"/>
	<path class="st2" d="M78.4,230.3h2.2v0.9h-3.2v-6h0.9V230.3z"/>
	<path class="st2" d="M82.9,228.6v2.5h-0.9v-2.5l-2-3.5h1l1.4,2.6l1.4-2.6h1L82.9,228.6z"/>
	<path class="st2" d="M88,226.6c-0.4-0.5-0.6-0.7-1-0.7c-0.5,0-0.9,0.4-0.9,0.8c0,0.3,0.2,0.6,0.8,0.8l0.6,0.2
		c1,0.4,1.4,0.9,1.4,1.7c0,1.1-0.9,1.9-2,1.9c-0.6,0-1.2-0.3-1.5-0.7c-0.2-0.3-0.3-0.5-0.4-1l0.9-0.2l0,0.1c0.2,0.6,0.5,1,1,1
		c0.6,0,1-0.4,1-1c0-0.4-0.2-0.6-0.9-0.9l-0.5-0.2c-0.9-0.3-1.3-0.9-1.3-1.6c0-1,0.8-1.7,1.9-1.7c0.8,0,1.3,0.3,1.8,1.1L88,226.6z"
		/>
	<path class="st2" d="M90.8,231.1h-0.9v-6h0.9V231.1z"/>
	<path class="st2" d="M94.9,226.6c-0.4-0.5-0.6-0.7-1-0.7c-0.5,0-0.9,0.4-0.9,0.8c0,0.3,0.2,0.6,0.8,0.8l0.6,0.2
		c1,0.4,1.4,0.9,1.4,1.7c0,1.1-0.9,1.9-2,1.9c-0.6,0-1.2-0.3-1.5-0.7c-0.2-0.3-0.3-0.5-0.4-1l0.9-0.2l0,0.1c0.2,0.6,0.5,1,1,1
		c0.6,0,1-0.4,1-1c0-0.4-0.2-0.6-0.9-0.9l-0.5-0.2c-0.9-0.3-1.3-0.9-1.3-1.6c0-1,0.8-1.7,1.9-1.7c0.8,0,1.3,0.3,1.8,1.1L94.9,226.6z
		"/>
</g>
<g class="st1">
	<path class="st2" d="M43.7,235.9h1.3c0.6,0,1,0.1,1.3,0.3c0.5,0.3,0.8,0.8,0.8,1.4c0,0.5-0.2,0.8-0.6,1.2c0.5,0.3,0.9,0.8,0.9,1.5
		c0,0.6-0.3,1.2-0.9,1.5c-0.3,0.2-0.7,0.3-1.2,0.3h-1.6V235.9z M45.2,238.4c0.4,0,0.5,0,0.7-0.1c0.3-0.1,0.4-0.4,0.4-0.7
		c0-0.2-0.1-0.5-0.2-0.6c-0.1-0.1-0.5-0.2-0.9-0.2h-0.5v1.7H45.2z M45.3,241.1c0.4,0,0.6,0,0.8-0.1c0.3-0.2,0.4-0.4,0.4-0.8
		c0-0.3-0.2-0.6-0.4-0.7c-0.2-0.1-0.5-0.2-0.9-0.2h-0.6v1.8H45.3z"/>
	<path class="st2" d="M49.4,235.9v3.7c0,0.5,0,0.8,0.2,1c0.2,0.3,0.7,0.6,1.1,0.6c0.5,0,0.9-0.2,1.1-0.6c0.1-0.2,0.2-0.4,0.2-1v-3.7
		h0.9v3.9c0,0.5-0.1,0.9-0.3,1.2c-0.4,0.6-1.1,1.1-1.9,1.1c-0.8,0-1.6-0.4-2-1.1c-0.2-0.3-0.3-0.7-0.3-1.2v-3.9H49.4z"/>
	<path class="st2" d="M55.1,241.9h-0.9v-6h0.9V241.9z"/>
	<path class="st2" d="M57.4,241.1h2.2v0.9h-3.2v-6h0.9V241.1z"/>
	<path class="st2" d="M61.7,235.9c2,0,3.3,1.2,3.3,3s-1.3,3-3.3,3h-1.3v-6H61.7z M61.3,241.1h0.4c1.4,0,2.3-0.8,2.3-2.1
		c0-1.3-0.9-2.1-2.3-2.1h-0.4V241.1z"/>
	<path class="st2" d="M69,241.9H68v-6H69V241.9z"/>
	<path class="st2" d="M70.3,235.9h0.8l3.3,4.4v-4.4h0.9v6h-0.8l-3.3-4.4v4.4h-0.9V235.9z"/>
	<path class="st2" d="M79.4,237.4c-0.4-0.5-0.6-0.7-1-0.7c-0.5,0-0.9,0.4-0.9,0.8c0,0.3,0.2,0.6,0.8,0.8l0.6,0.2
		c1,0.4,1.4,0.9,1.4,1.7c0,1.1-0.9,1.9-2,1.9c-0.6,0-1.2-0.3-1.5-0.7c-0.2-0.3-0.3-0.5-0.4-1l0.9-0.2l0,0.1c0.2,0.6,0.5,1,1,1
		c0.6,0,1-0.4,1-1c0-0.4-0.2-0.6-0.9-0.9l-0.5-0.2c-0.9-0.3-1.3-0.9-1.3-1.6c0-1,0.8-1.7,1.9-1.7c0.8,0,1.3,0.3,1.8,1.1L79.4,237.4z
		"/>
	<path class="st2" d="M83.1,236.8v5.1h-0.9v-5.1h-1.5v-0.9h3.9v0.9H83.1z"/>
	<path class="st2" d="M85.2,241.9h-1l2.3-6h1.2l2.3,6h-1l-0.6-1.5h-2.6L85.2,241.9z M88,239.5l-1-2.6l-1,2.6H88z"/>
	<path class="st2" d="M91.5,241.1h2.2v0.9h-3.2v-6h0.9V241.1z"/>
	<path class="st2" d="M95.3,241.1h2.2v0.9h-3.2v-6h0.9V241.1z"/>
	<path class="st2" d="M99.2,236.8v1.7h2.1v0.9h-2.1v1.7h2.4v0.9h-3.3v-6h3.3v0.9H99.2z"/>
	<path class="st2" d="M106.7,241.9h-1.1l-1.3-2.3c-0.2,0-0.3,0-0.4,0h-0.4v2.3h-0.9v-6h1.3c0.6,0,1,0.1,1.4,0.3
		c0.5,0.3,0.9,0.9,0.9,1.6c0,0.7-0.4,1.3-0.9,1.6L106.7,241.9z M104,238.8c0.4,0,0.6,0,0.9-0.2c0.3-0.2,0.4-0.5,0.4-0.8
		c0-0.4-0.2-0.7-0.4-0.8c-0.2-0.1-0.5-0.2-0.8-0.2h-0.5v2H104z"/>
	<path class="st2" d="M110.2,237.4c-0.4-0.5-0.6-0.7-1-0.7c-0.5,0-0.9,0.4-0.9,0.8c0,0.3,0.2,0.6,0.8,0.8l0.6,0.2
		c1,0.4,1.4,0.9,1.4,1.7c0,1.1-0.9,1.9-2,1.9c-0.6,0-1.2-0.3-1.5-0.7c-0.2-0.3-0.3-0.5-0.4-1l0.9-0.2l0,0.1c0.2,0.6,0.5,1,1,1
		c0.6,0,1-0.4,1-1c0-0.4-0.2-0.6-0.9-0.9l-0.5-0.2c-0.9-0.3-1.3-0.9-1.3-1.6c0-1,0.8-1.7,1.9-1.7c0.8,0,1.3,0.3,1.8,1.1L110.2,237.4
		z"/>
</g>
<g>
	<path class="st0" d="M448.3,155h-102c-5,0-9-4-9-9V79c0-5,4-9,9-9h102c5,0,9,4,9,9v67C457.3,151,453.3,155,448.3,155z"/>
	<g class="st1">
		<path class="st2" d="M349.8,108.1c-0.6-0.6-1-0.8-1.7-0.8c-1.2,0-2.2,1-2.2,2.3c0,1.3,1,2.2,2.2,2.2c0.5,0,0.9-0.2,1.3-0.5
			c0.1-0.1,0.2-0.2,0.4-0.4l0.7,0.6c-0.8,0.8-1.4,1.1-2.3,1.1c-1.8,0-3.2-1.4-3.2-3.1s1.4-3.1,3.1-3.1c0.9,0,1.6,0.3,2.3,1.1
			L349.8,108.1z"/>
		<path class="st2" d="M357.1,109.5c0,1.7-1.4,3.1-3.1,3.1c-1.7,0-3.1-1.4-3.1-3.2c0-1.7,1.4-3.1,3.1-3.1
			C355.7,106.4,357.1,107.8,357.1,109.5z M351.9,109.6c0,1.2,1,2.2,2.2,2.2c1.2,0,2.2-1,2.2-2.2c0-1.3-1-2.3-2.2-2.3
			C352.8,107.3,351.9,108.3,351.9,109.6z"/>
		<path class="st2" d="M358.1,106.5h0.8l3.3,4.4v-4.4h0.9v6h-0.8l-3.3-4.4v4.4h-0.9V106.5z"/>
		<path class="st2" d="M365.4,107.4v1.7h1.9v0.9h-1.9v2.6h-0.9v-6h3.1v0.9H365.4z"/>
		<path class="st2" d="M369.4,112.5h-0.9v-6h0.9V112.5z"/>
		<path class="st2" d="M376.3,109.3v0.5c0,1.7-1.1,2.9-2.7,2.9c-1.8,0-3.2-1.4-3.2-3.1s1.4-3.1,3.1-3.1c0.7,0,1.4,0.2,1.9,0.7
			c0.1,0.1,0.2,0.2,0.4,0.4l-0.6,0.6c-0.6-0.6-1-0.8-1.7-0.8c-1.2,0-2.2,1-2.2,2.3c0,1.3,1,2.2,2.2,2.2c0.6,0,1.1-0.2,1.4-0.6
			c0.2-0.3,0.3-0.5,0.4-1h-1.7v-0.9H376.3z"/>
		<path class="st2" d="M378.2,106.5v3.7c0,0.5,0,0.8,0.2,1c0.2,0.3,0.7,0.6,1.1,0.6c0.5,0,0.9-0.2,1.1-0.6c0.1-0.2,0.2-0.4,0.2-1
			v-3.7h0.9v3.9c0,0.5-0.1,0.9-0.3,1.2c-0.4,0.6-1.1,1.1-1.9,1.1c-0.8,0-1.6-0.4-2-1.1c-0.2-0.3-0.3-0.7-0.3-1.2v-3.9H378.2z"/>
		<path class="st2" d="M387.1,112.5h-1.1l-1.3-2.3c-0.2,0-0.3,0-0.4,0h-0.4v2.3H383v-6h1.3c0.6,0,1,0.1,1.4,0.3
			c0.5,0.3,0.9,0.9,0.9,1.6c0,0.7-0.4,1.3-0.9,1.6L387.1,112.5z M384.4,109.3c0.4,0,0.6,0,0.9-0.2c0.3-0.2,0.4-0.5,0.4-0.8
			c0-0.4-0.2-0.7-0.4-0.8c-0.2-0.1-0.4-0.2-0.8-0.2h-0.5v2H384.4z"/>
		<path class="st2" d="M388.9,107.4v1.7h2.1v0.9h-2.1v1.7h2.4v0.9h-3.3v-6h3.3v0.9H388.9z"/>
		<path class="st2" d="M395.3,107.4v1.7h2.1v0.9h-2.1v1.7h2.4v0.9h-3.3v-6h3.3v0.9H395.3z"/>
		<path class="st2" d="M398.7,106.5h0.8l3.3,4.4v-4.4h0.9v6h-0.8l-3.3-4.4v4.4h-0.9V106.5z"/>
		<path class="st2" d="M405.4,106.5l1.6,4.7l1.6-4.7h1l-2,6h-1.1l-2-6H405.4z"/>
		<path class="st2" d="M411.1,112.5h-0.9v-6h0.9V112.5z"/>
		<path class="st2" d="M416.5,112.5h-1.1l-1.3-2.3c-0.2,0-0.3,0-0.4,0h-0.4v2.3h-0.9v-6h1.3c0.6,0,1,0.1,1.4,0.3
			c0.5,0.3,0.9,0.9,0.9,1.6c0,0.7-0.4,1.3-0.9,1.6L416.5,112.5z M413.8,109.3c0.4,0,0.6,0,0.9-0.2c0.3-0.2,0.4-0.5,0.4-0.8
			c0-0.4-0.2-0.7-0.4-0.8c-0.2-0.1-0.5-0.2-0.8-0.2h-0.5v2H413.8z"/>
		<path class="st2" d="M423.1,109.5c0,1.7-1.4,3.1-3.1,3.1c-1.7,0-3.1-1.4-3.1-3.2c0-1.7,1.4-3.1,3.1-3.1
			C421.7,106.4,423.1,107.8,423.1,109.5z M417.8,109.6c0,1.2,1,2.2,2.2,2.2c1.2,0,2.2-1,2.2-2.2c0-1.3-1-2.3-2.2-2.3
			C418.8,107.3,417.8,108.3,417.8,109.6z"/>
		<path class="st2" d="M424.1,106.5h0.8l3.3,4.4v-4.4h0.9v6h-0.8l-3.3-4.4v4.4h-0.9V106.5z"/>
		<path class="st2" d="M430.4,106.5h0.9l2.1,3.7l2.1-3.7h0.9v6h-0.9v-4.2l-1.7,3H433l-1.7-3v4.2h-0.9V106.5z"/>
		<path class="st2" d="M438.6,107.4v1.7h2.1v0.9h-2.1v1.7h2.4v0.9h-3.3v-6h3.3v0.9H438.6z"/>
		<path class="st2" d="M442,106.5h0.8l3.3,4.4v-4.4h0.9v6h-0.8l-3.3-4.4v4.4H442V106.5z"/>
		<path class="st2" d="M450.1,107.4v5.1h-0.9v-5.1h-1.5v-0.9h3.9v0.9H450.1z"/>
	</g>
	<g class="st1">
		<path class="st2" d="M366.8,117.3c2,0,3.3,1.2,3.3,3s-1.3,3-3.3,3h-1.3v-6H366.8z M366.4,122.5h0.4c1.4,0,2.3-0.8,2.3-2.1
			c0-1.3-0.9-2.1-2.3-2.1h-0.4V122.5z"/>
		<path class="st2" d="M372,118.2v1.7h2.1v0.9H372v1.7h2.4v0.9h-3.3v-6h3.3v0.9H372z"/>
		<path class="st2" d="M376.8,117.3c0.6,0,1,0.1,1.3,0.3c0.5,0.3,0.9,0.9,0.9,1.6c0,0.7-0.3,1.3-0.9,1.6c-0.3,0.2-0.7,0.3-1.3,0.3
			h-0.4v2.3h-0.9v-6H376.8z M376.8,120.1c0.4,0,0.7-0.1,0.9-0.3c0.1-0.2,0.2-0.4,0.2-0.7c0-0.4-0.2-0.7-0.4-0.8
			c-0.2-0.1-0.4-0.1-0.7-0.1h-0.5v2H376.8z"/>
		<path class="st2" d="M380.6,122.5h2.2v0.9h-3.2v-6h0.9V122.5z"/>
		<path class="st2" d="M389.2,120.3c0,1.7-1.4,3.1-3.1,3.1c-1.7,0-3.1-1.4-3.1-3.2c0-1.7,1.4-3.1,3.1-3.1
			C387.8,117.2,389.2,118.6,389.2,120.3z M383.9,120.4c0,1.2,1,2.2,2.2,2.2c1.2,0,2.2-1,2.2-2.2c0-1.3-1-2.3-2.2-2.3
			C384.8,118.1,383.9,119.1,383.9,120.4z"/>
		<path class="st2" d="M392,120.8v2.5h-0.9v-2.5l-2-3.5h1l1.4,2.6l1.4-2.6h1L392,120.8z"/>
		<path class="st2" d="M396.7,117.3h1.3c0.6,0,1,0.1,1.3,0.3c0.5,0.3,0.8,0.8,0.8,1.4c0,0.5-0.2,0.8-0.6,1.2
			c0.5,0.3,0.9,0.8,0.9,1.5c0,0.6-0.3,1.2-0.9,1.5c-0.3,0.2-0.7,0.3-1.2,0.3h-1.6V117.3z M398.2,119.8c0.4,0,0.5,0,0.7-0.1
			c0.3-0.1,0.4-0.4,0.4-0.7c0-0.2-0.1-0.5-0.2-0.6c-0.1-0.1-0.5-0.2-0.9-0.2h-0.5v1.7H398.2z M398.3,122.5c0.4,0,0.6,0,0.8-0.1
			c0.3-0.2,0.4-0.4,0.4-0.8c0-0.3-0.2-0.6-0.4-0.7c-0.2-0.1-0.5-0.2-0.9-0.2h-0.6v1.8H398.3z"/>
		<path class="st2" d="M402.4,123.3h-0.9v-6h0.9V123.3z"/>
		<path class="st2" d="M403.7,117.3h0.8l3.3,4.4v-4.4h0.9v6h-0.8l-3.3-4.4v4.4h-0.9V117.3z"/>
		<path class="st2" d="M410.4,123.3h-1l2.3-6h1.2l2.3,6h-1l-0.6-1.5H411L410.4,123.3z M413.2,120.9l-1-2.6l-1,2.6H413.2z"/>
		<path class="st2" d="M419.9,123.3h-1.1l-1.3-2.3c-0.2,0-0.3,0-0.4,0h-0.4v2.3h-0.9v-6h1.3c0.6,0,1,0.1,1.4,0.3
			c0.5,0.3,0.9,0.9,0.9,1.6c0,0.7-0.4,1.3-0.9,1.6L419.9,123.3z M417.2,120.1c0.4,0,0.6,0,0.9-0.2c0.3-0.2,0.4-0.5,0.4-0.8
			c0-0.4-0.2-0.7-0.4-0.8c-0.2-0.1-0.5-0.2-0.8-0.2h-0.5v2H417.2z"/>
		<path class="st2" d="M421.6,123.3h-0.9v-6h0.9V123.3z"/>
		<path class="st2" d="M423.9,118.2v1.7h2.1v0.9h-2.1v1.7h2.4v0.9h-3.3v-6h3.3v0.9H423.9z"/>
		<path class="st2" d="M429.9,118.8c-0.4-0.5-0.6-0.7-1-0.7c-0.5,0-0.9,0.4-0.9,0.8c0,0.3,0.2,0.6,0.8,0.8l0.6,0.2
			c1,0.4,1.5,0.9,1.5,1.7c0,1.1-0.9,1.9-2,1.9c-0.6,0-1.2-0.3-1.5-0.7c-0.2-0.3-0.3-0.5-0.4-1l0.9-0.2l0,0.1c0.2,0.6,0.5,1,1,1
			c0.6,0,1-0.4,1-1c0-0.4-0.2-0.6-0.9-0.9l-0.5-0.2c-0.9-0.3-1.3-0.9-1.3-1.6c0-1,0.8-1.7,1.9-1.7c0.8,0,1.3,0.3,1.8,1.1
			L429.9,118.8z"/>
	</g>
	<g class="st1">
		<path class="st2" d="M378.1,129.6c-0.4-0.5-0.6-0.7-1-0.7c-0.5,0-0.9,0.4-0.9,0.8c0,0.3,0.2,0.6,0.8,0.8l0.6,0.2
			c1,0.4,1.4,0.9,1.4,1.7c0,1.1-0.9,1.9-2,1.9c-0.6,0-1.2-0.3-1.5-0.7c-0.2-0.3-0.3-0.5-0.4-1l0.9-0.2l0,0.1c0.2,0.6,0.5,1,1,1
			c0.6,0,1-0.4,1-1c0-0.4-0.2-0.6-0.9-0.9l-0.5-0.2c-0.9-0.3-1.3-0.9-1.3-1.6c0-1,0.8-1.7,1.9-1.7c0.8,0,1.3,0.3,1.8,1.1
			L378.1,129.6z"/>
		<path class="st2" d="M380,128.1h0.9l2.1,3.7l2.1-3.7h0.9v6H385v-4.2l-1.7,3h-0.7l-1.7-3v4.2H380V128.1z"/>
		<path class="st2" d="M393.1,131.1c0,1.7-1.4,3.1-3.1,3.1c-1.7,0-3.1-1.4-3.1-3.2c0-1.7,1.4-3.1,3.1-3.1
			C391.7,128,393.1,129.4,393.1,131.1z M387.8,131.2c0,1.2,1,2.2,2.2,2.2c1.2,0,2.2-1,2.2-2.2c0-1.3-1-2.3-2.2-2.3
			C388.8,128.9,387.8,129.9,387.8,131.2z"/>
		<path class="st2" d="M398.7,134.1h-1.1l-1.9-2.8l-0.7,0.7v2h-0.9v-6h0.9v2.7l2.5-2.7h1.2l-2.3,2.5L398.7,134.1z"/>
		<path class="st2" d="M400.3,129v1.7h2.1v0.9h-2.1v1.7h2.4v0.9h-3.3v-6h3.3v0.9H400.3z"/>
		<path class="st2" d="M407.6,129v5.1h-0.9V129h-1.5v-0.9h3.9v0.9H407.6z"/>
		<path class="st2" d="M410.6,129v1.7h2.1v0.9h-2.1v1.7h2.4v0.9h-3.3v-6h3.3v0.9H410.6z"/>
		<path class="st2" d="M416.7,129.6c-0.4-0.5-0.6-0.7-1-0.7c-0.5,0-0.9,0.4-0.9,0.8c0,0.3,0.2,0.6,0.8,0.8l0.6,0.2
			c1,0.4,1.4,0.9,1.4,1.7c0,1.1-0.9,1.9-2,1.9c-0.6,0-1.2-0.3-1.5-0.7c-0.2-0.3-0.3-0.5-0.4-1l0.9-0.2l0,0.1c0.2,0.6,0.5,1,1,1
			c0.6,0,1-0.4,1-1c0-0.4-0.2-0.6-0.9-0.9l-0.5-0.2c-0.9-0.3-1.3-0.9-1.3-1.6c0-1,0.8-1.7,1.9-1.7c0.8,0,1.3,0.3,1.8,1.1
			L416.7,129.6z"/>
		<path class="st2" d="M420.4,129v5.1h-0.9V129H418v-0.9h3.9v0.9H420.4z"/>
	</g>
	<g class="st1">
		<path class="st2" d="M389.1,87.4c0,0.6,0,0.9,0.2,1.1c0.2,0.4,0.7,0.6,1.3,0.6s1-0.3,1.3-0.6c0.1-0.2,0.2-0.5,0.2-1.1v-4.8h1.6v5
			c0,0.7-0.1,1.2-0.4,1.6c-0.5,0.9-1.5,1.4-2.6,1.4s-2.1-0.6-2.6-1.4c-0.2-0.4-0.3-0.9-0.3-1.6v-5h1.6V87.4z"/>
		<path class="st2" d="M396.2,88.6l-0.7,1.8h-1.6l2.9-7.8h1.8l2.9,7.8H400l-0.6-1.8H396.2z M397.8,84.2l-1,2.9h2.1L397.8,84.2z"/>
		<path class="st2" d="M406.3,84h-1.9v6.4h-1.6V84h-1.9v-1.4h5.3V84z"/>
	</g>
</g>
<g>
	<path class="st0" d="M448.3,257.1h-102c-5,0-9-4-9-9v-67c0-5,4-9,9-9h102c5,0,9,4,9,9v67C457.3,253.1,453.3,257.1,448.3,257.1z"/>
	<g class="st1">
		<path class="st2" d="M348.8,205.1c-0.6-0.6-1-0.8-1.7-0.8c-1.2,0-2.2,1-2.2,2.3c0,1.3,1,2.2,2.2,2.2c0.5,0,0.9-0.2,1.3-0.5
			c0.1-0.1,0.2-0.2,0.4-0.4l0.7,0.6c-0.8,0.8-1.4,1.1-2.3,1.1c-1.8,0-3.2-1.4-3.2-3.1s1.4-3.1,3.1-3.1c0.9,0,1.6,0.3,2.3,1.1
			L348.8,205.1z"/>
		<path class="st2" d="M356.1,206.5c0,1.7-1.4,3.1-3.1,3.1c-1.7,0-3.1-1.4-3.1-3.2c0-1.7,1.4-3.1,3.1-3.1
			C354.7,203.4,356.1,204.8,356.1,206.5z M350.8,206.6c0,1.2,1,2.2,2.2,2.2c1.2,0,2.2-1,2.2-2.2c0-1.3-1-2.3-2.2-2.3
			C351.8,204.3,350.8,205.3,350.8,206.6z"/>
		<path class="st2" d="M357.1,203.5h0.8l3.3,4.4v-4.4h0.9v6h-0.8l-3.3-4.4v4.4h-0.9V203.5z"/>
		<path class="st2" d="M364.4,204.4v1.7h1.9v0.9h-1.9v2.6h-0.9v-6h3.1v0.9H364.4z"/>
		<path class="st2" d="M368.4,209.5h-0.9v-6h0.9V209.5z"/>
		<path class="st2" d="M375.2,206.3v0.5c0,1.7-1.1,2.9-2.7,2.9c-1.8,0-3.2-1.4-3.2-3.1s1.4-3.1,3.1-3.1c0.7,0,1.4,0.2,1.9,0.7
			c0.1,0.1,0.2,0.2,0.4,0.4l-0.6,0.6c-0.6-0.6-1-0.8-1.7-0.8c-1.2,0-2.2,1-2.2,2.3c0,1.3,1,2.2,2.2,2.2c0.6,0,1.1-0.2,1.4-0.6
			c0.2-0.3,0.3-0.5,0.4-1h-1.7v-0.9H375.2z"/>
		<path class="st2" d="M377.2,203.5v3.7c0,0.5,0,0.8,0.2,1c0.2,0.3,0.7,0.6,1.1,0.6c0.5,0,0.9-0.2,1.1-0.6c0.1-0.2,0.2-0.4,0.2-1
			v-3.7h0.9v3.9c0,0.5-0.1,0.9-0.3,1.2c-0.4,0.6-1.1,1.1-1.9,1.1c-0.8,0-1.6-0.4-2-1.1c-0.2-0.3-0.3-0.7-0.3-1.2v-3.9H377.2z"/>
		<path class="st2" d="M386.1,209.5H385l-1.3-2.3c-0.2,0-0.3,0-0.4,0h-0.4v2.3H382v-6h1.3c0.6,0,1,0.1,1.4,0.3
			c0.5,0.3,0.9,0.9,0.9,1.6c0,0.7-0.4,1.3-0.9,1.6L386.1,209.5z M383.4,206.3c0.4,0,0.6,0,0.9-0.2c0.3-0.2,0.4-0.5,0.4-0.8
			c0-0.4-0.2-0.7-0.4-0.8c-0.2-0.1-0.4-0.2-0.8-0.2h-0.5v2H383.4z"/>
		<path class="st2" d="M387.8,204.4v1.7h2.1v0.9h-2.1v1.7h2.4v0.9h-3.3v-6h3.3v0.9H387.8z"/>
		<path class="st2" d="M394.3,204.4v1.7h2.1v0.9h-2.1v1.7h2.4v0.9h-3.3v-6h3.3v0.9H394.3z"/>
		<path class="st2" d="M397.7,203.5h0.8l3.3,4.4v-4.4h0.9v6h-0.8l-3.3-4.4v4.4h-0.9V203.5z"/>
		<path class="st2" d="M404.4,203.5l1.6,4.7l1.6-4.7h1l-2,6h-1.1l-2-6H404.4z"/>
		<path class="st2" d="M410.1,209.5h-0.9v-6h0.9V209.5z"/>
		<path class="st2" d="M415.5,209.5h-1.1l-1.3-2.3c-0.2,0-0.3,0-0.4,0h-0.4v2.3h-0.9v-6h1.3c0.6,0,1,0.1,1.4,0.3
			c0.5,0.3,0.9,0.9,0.9,1.6c0,0.7-0.4,1.3-0.9,1.6L415.5,209.5z M412.8,206.3c0.4,0,0.6,0,0.9-0.2c0.3-0.2,0.4-0.5,0.4-0.8
			c0-0.4-0.2-0.7-0.4-0.8c-0.2-0.1-0.5-0.2-0.8-0.2h-0.5v2H412.8z"/>
		<path class="st2" d="M422.1,206.5c0,1.7-1.4,3.1-3.1,3.1c-1.7,0-3.1-1.4-3.1-3.2c0-1.7,1.4-3.1,3.1-3.1
			C420.7,203.4,422.1,204.8,422.1,206.5z M416.8,206.6c0,1.2,1,2.2,2.2,2.2c1.2,0,2.2-1,2.2-2.2c0-1.3-1-2.3-2.2-2.3
			C417.7,204.3,416.8,205.3,416.8,206.6z"/>
		<path class="st2" d="M423,203.5h0.8l3.3,4.4v-4.4h0.9v6h-0.8l-3.3-4.4v4.4H423V203.5z"/>
		<path class="st2" d="M429.4,203.5h0.9l2.1,3.7l2.1-3.7h0.9v6h-0.9v-4.2l-1.7,3H432l-1.7-3v4.2h-0.9V203.5z"/>
		<path class="st2" d="M437.6,204.4v1.7h2.1v0.9h-2.1v1.7h2.4v0.9h-3.3v-6h3.3v0.9H437.6z"/>
		<path class="st2" d="M441,203.5h0.8l3.3,4.4v-4.4h0.9v6h-0.8l-3.3-4.4v4.4H441V203.5z"/>
		<path class="st2" d="M449.1,204.4v5.1h-0.9v-5.1h-1.5v-0.9h3.9v0.9H449.1z"/>
	</g>
	<g class="st1">
		<path class="st2" d="M366,214.3c2,0,3.3,1.2,3.3,3s-1.3,3-3.3,3h-1.3v-6H366z M365.6,219.5h0.4c1.4,0,2.3-0.8,2.3-2.1
			c0-1.3-0.9-2.1-2.3-2.1h-0.4V219.5z"/>
		<path class="st2" d="M371.2,215.2v1.7h2.1v0.9h-2.1v1.7h2.4v0.9h-3.3v-6h3.3v0.9H371.2z"/>
		<path class="st2" d="M376,214.3c0.6,0,1,0.1,1.3,0.3c0.5,0.3,0.9,0.9,0.9,1.6c0,0.7-0.3,1.3-0.9,1.6c-0.3,0.2-0.7,0.3-1.3,0.3
			h-0.4v2.3h-0.9v-6H376z M376,217.1c0.4,0,0.7-0.1,0.9-0.3c0.1-0.2,0.2-0.4,0.2-0.7c0-0.4-0.2-0.7-0.4-0.8
			c-0.2-0.1-0.4-0.1-0.7-0.1h-0.5v2H376z"/>
		<path class="st2" d="M379.8,219.5h2.2v0.9h-3.2v-6h0.9V219.5z"/>
		<path class="st2" d="M388.4,217.3c0,1.7-1.4,3.1-3.1,3.1c-1.7,0-3.1-1.4-3.1-3.2c0-1.7,1.4-3.1,3.1-3.1
			C387,214.2,388.4,215.6,388.4,217.3z M383.1,217.4c0,1.2,1,2.2,2.2,2.2c1.2,0,2.2-1,2.2-2.2c0-1.3-1-2.3-2.2-2.3
			C384,215.1,383.1,216.1,383.1,217.4z"/>
		<path class="st2" d="M391.2,217.8v2.5h-0.9v-2.5l-2-3.5h1l1.4,2.6l1.4-2.6h1L391.2,217.8z"/>
		<path class="st2" d="M395.9,214.3h1.3c0.6,0,1,0.1,1.3,0.3c0.5,0.3,0.8,0.8,0.8,1.4c0,0.5-0.2,0.8-0.6,1.2
			c0.5,0.3,0.9,0.8,0.9,1.5c0,0.6-0.3,1.2-0.9,1.5c-0.3,0.2-0.7,0.3-1.2,0.3h-1.6V214.3z M397.4,216.8c0.4,0,0.5,0,0.7-0.1
			c0.3-0.1,0.4-0.4,0.4-0.7c0-0.2-0.1-0.5-0.2-0.6c-0.1-0.1-0.5-0.2-0.9-0.2h-0.5v1.7H397.4z M397.5,219.5c0.4,0,0.6,0,0.8-0.1
			c0.3-0.2,0.4-0.4,0.4-0.8c0-0.3-0.2-0.6-0.4-0.7c-0.2-0.1-0.5-0.2-0.9-0.2h-0.6v1.8H397.5z"/>
		<path class="st2" d="M401.6,220.3h-0.9v-6h0.9V220.3z"/>
		<path class="st2" d="M402.9,214.3h0.8l3.3,4.4v-4.4h0.9v6h-0.8l-3.3-4.4v4.4h-0.9V214.3z"/>
		<path class="st2" d="M409.6,220.3h-1l2.3-6h1.2l2.3,6h-1l-0.6-1.5h-2.6L409.6,220.3z M412.4,217.9l-1-2.6l-1,2.6H412.4z"/>
		<path class="st2" d="M419,220.3H418l-1.3-2.3c-0.2,0-0.3,0-0.4,0h-0.4v2.3h-0.9v-6h1.3c0.6,0,1,0.1,1.4,0.3
			c0.5,0.3,0.9,0.9,0.9,1.6c0,0.7-0.4,1.3-0.9,1.6L419,220.3z M416.3,217.1c0.4,0,0.6,0,0.9-0.2c0.3-0.2,0.4-0.5,0.4-0.8
			c0-0.4-0.2-0.7-0.4-0.8c-0.2-0.1-0.5-0.2-0.8-0.2h-0.5v2H416.3z"/>
		<path class="st2" d="M420.8,220.3h-0.9v-6h0.9V220.3z"/>
		<path class="st2" d="M423,215.2v1.7h2.1v0.9H423v1.7h2.4v0.9h-3.3v-6h3.3v0.9H423z"/>
		<path class="st2" d="M429.1,215.8c-0.4-0.5-0.6-0.7-1-0.7c-0.5,0-0.9,0.4-0.9,0.8c0,0.3,0.2,0.6,0.8,0.8l0.6,0.2
			c1,0.4,1.5,0.9,1.5,1.7c0,1.1-0.9,1.9-2,1.9c-0.6,0-1.2-0.3-1.5-0.7c-0.2-0.3-0.3-0.5-0.4-1l0.9-0.2l0,0.1c0.2,0.6,0.5,1,1,1
			c0.6,0,1-0.4,1-1c0-0.4-0.2-0.6-0.9-0.9l-0.5-0.2c-0.9-0.3-1.3-0.9-1.3-1.6c0-1,0.8-1.7,1.9-1.7c0.8,0,1.3,0.3,1.8,1.1
			L429.1,215.8z"/>
	</g>
	<g class="st1">
		<path class="st2" d="M377,226.6c-0.4-0.5-0.6-0.7-1-0.7c-0.5,0-0.9,0.4-0.9,0.8c0,0.3,0.2,0.6,0.8,0.8l0.6,0.2
			c1,0.4,1.4,0.9,1.4,1.7c0,1.1-0.9,1.9-2,1.9c-0.6,0-1.2-0.3-1.5-0.7c-0.2-0.3-0.3-0.5-0.4-1l0.9-0.2l0,0.1c0.2,0.6,0.5,1,1,1
			c0.6,0,1-0.4,1-1c0-0.4-0.2-0.6-0.9-0.9l-0.5-0.2c-0.9-0.3-1.3-0.9-1.3-1.6c0-1,0.8-1.7,1.9-1.7c0.8,0,1.3,0.3,1.8,1.1L377,226.6z
			"/>
		<path class="st2" d="M378.8,225.1h0.9l2.1,3.7l2.1-3.7h0.9v6h-0.9v-4.2l-1.7,3h-0.7l-1.7-3v4.2h-0.9V225.1z"/>
		<path class="st2" d="M392,228.1c0,1.7-1.4,3.1-3.1,3.1c-1.7,0-3.1-1.4-3.1-3.2c0-1.7,1.4-3.1,3.1-3.1
			C390.6,225,392,226.4,392,228.1z M386.7,228.2c0,1.2,1,2.2,2.2,2.2c1.2,0,2.2-1,2.2-2.2c0-1.3-1-2.3-2.2-2.3
			C387.6,225.9,386.7,226.9,386.7,228.2z"/>
		<path class="st2" d="M397.5,231.1h-1.1l-1.9-2.8l-0.7,0.7v2h-0.9v-6h0.9v2.7l2.5-2.7h1.2l-2.3,2.5L397.5,231.1z"/>
		<path class="st2" d="M399.1,226v1.7h2.1v0.9h-2.1v1.7h2.4v0.9h-3.3v-6h3.3v0.9H399.1z"/>
		<path class="st2" d="M406.4,226v5.1h-0.9V226H404v-0.9h3.9v0.9H406.4z"/>
		<path class="st2" d="M409.5,226v1.7h2.1v0.9h-2.1v1.7h2.4v0.9h-3.3v-6h3.3v0.9H409.5z"/>
		<path class="st2" d="M415.5,226.6c-0.4-0.5-0.6-0.7-1-0.7c-0.5,0-0.9,0.4-0.9,0.8c0,0.3,0.2,0.6,0.8,0.8l0.6,0.2
			c1,0.4,1.4,0.9,1.4,1.7c0,1.1-0.9,1.9-2,1.9c-0.6,0-1.2-0.3-1.5-0.7c-0.2-0.3-0.3-0.5-0.4-1l0.9-0.2l0,0.1c0.2,0.6,0.5,1,1,1
			c0.6,0,1-0.4,1-1c0-0.4-0.2-0.6-0.9-0.9l-0.5-0.2c-0.9-0.3-1.3-0.9-1.3-1.6c0-1,0.8-1.7,1.9-1.7c0.8,0,1.3,0.3,1.8,1.1
			L415.5,226.6z"/>
		<path class="st2" d="M419.3,226v5.1h-0.9V226h-1.5v-0.9h3.9v0.9H419.3z"/>
	</g>
	<g class="st1">
		<path class="st2" d="M361.4,241.9h-1.1l-1.3-2.3c-0.2,0-0.3,0-0.4,0h-0.4v2.3h-0.9v-6h1.3c0.6,0,1,0.1,1.4,0.3
			c0.5,0.3,0.9,0.9,0.9,1.6c0,0.7-0.4,1.3-0.9,1.6L361.4,241.9z M358.7,238.8c0.4,0,0.6,0,0.9-0.2c0.3-0.2,0.4-0.5,0.4-0.8
			c0-0.4-0.2-0.7-0.4-0.8c-0.2-0.1-0.5-0.2-0.8-0.2h-0.5v2H358.7z"/>
		<path class="st2" d="M363.1,235.9v3.7c0,0.5,0,0.8,0.2,1c0.2,0.3,0.7,0.6,1.1,0.6c0.5,0,0.9-0.2,1.1-0.6c0.1-0.2,0.2-0.4,0.2-1
			v-3.7h0.9v3.9c0,0.5-0.1,0.9-0.3,1.2c-0.4,0.6-1.1,1.1-1.9,1.1c-0.8,0-1.6-0.4-2-1.1c-0.2-0.3-0.3-0.7-0.3-1.2v-3.9H363.1z"/>
		<path class="st2" d="M367.9,235.9h0.8l3.3,4.4v-4.4h0.9v6h-0.8l-3.3-4.4v4.4h-0.9V235.9z"/>
		<path class="st2" d="M380.8,237.5c-0.6-0.6-1-0.8-1.7-0.8c-1.2,0-2.2,1-2.2,2.3c0,1.3,1,2.2,2.2,2.2c0.5,0,0.9-0.2,1.3-0.5
			c0.1-0.1,0.2-0.2,0.4-0.4l0.7,0.6c-0.8,0.8-1.4,1.1-2.3,1.1c-1.8,0-3.2-1.4-3.2-3.1s1.4-3.1,3.1-3.1c0.9,0,1.6,0.3,2.3,1.1
			L380.8,237.5z"/>
		<path class="st2" d="M382.8,241.9h-1l2.3-6h1.2l2.3,6h-1l-0.6-1.5h-2.6L382.8,241.9z M385.6,239.5l-1-2.6l-1,2.6H385.6z"/>
		<path class="st2" d="M389.4,235.9c0.6,0,1,0.1,1.3,0.3c0.5,0.3,0.9,0.9,0.9,1.6c0,0.7-0.3,1.3-0.9,1.6c-0.3,0.2-0.7,0.3-1.3,0.3
			H389v2.3h-0.9v-6H389.4z M389.5,238.8c0.4,0,0.7-0.1,0.9-0.3c0.1-0.2,0.2-0.4,0.2-0.7c0-0.4-0.2-0.7-0.4-0.8
			c-0.2-0.1-0.4-0.1-0.7-0.1H389v2H389.5z"/>
		<path class="st2" d="M392.4,241.9h-1l2.3-6h1.2l2.3,6h-1l-0.6-1.5h-2.6L392.4,241.9z M395.2,239.5l-1-2.6l-1,2.6H395.2z"/>
		<path class="st2" d="M402,237.5c-0.6-0.6-1-0.8-1.7-0.8c-1.2,0-2.2,1-2.2,2.3c0,1.3,1,2.2,2.2,2.2c0.5,0,0.9-0.2,1.3-0.5
			c0.1-0.1,0.2-0.2,0.4-0.4l0.7,0.6c-0.8,0.8-1.4,1.1-2.3,1.1c-1.8,0-3.2-1.4-3.2-3.1s1.4-3.1,3.1-3.1c0.9,0,1.6,0.3,2.3,1.1
			L402,237.5z"/>
		<path class="st2" d="M404.5,241.9h-0.9v-6h0.9V241.9z"/>
		<path class="st2" d="M407.6,236.8v5.1h-0.9v-5.1h-1.5v-0.9h3.9v0.9H407.6z"/>
		<path class="st2" d="M412.3,239.4v2.5h-0.9v-2.5l-2-3.5h1l1.4,2.6l1.4-2.6h1L412.3,239.4z"/>
		<path class="st2" d="M418.7,236.8v5.1h-0.9v-5.1h-1.5v-0.9h3.9v0.9H418.7z"/>
		<path class="st2" d="M421.8,236.8v1.7h2.1v0.9h-2.1v1.7h2.4v0.9h-3.3v-6h3.3v0.9H421.8z"/>
		<path class="st2" d="M427.9,237.4c-0.4-0.5-0.6-0.7-1-0.7c-0.5,0-0.9,0.4-0.9,0.8c0,0.3,0.2,0.6,0.8,0.8l0.6,0.2
			c1,0.4,1.4,0.9,1.4,1.7c0,1.1-0.9,1.9-2,1.9c-0.6,0-1.2-0.3-1.5-0.7c-0.2-0.3-0.3-0.5-0.4-1l0.9-0.2l0,0.1c0.2,0.6,0.5,1,1,1
			c0.6,0,1-0.4,1-1c0-0.4-0.2-0.6-0.9-0.9l-0.5-0.2c-0.9-0.3-1.3-0.9-1.3-1.6c0-1,0.8-1.7,1.9-1.7c0.8,0,1.3,0.3,1.8,1.1
			L427.9,237.4z"/>
		<path class="st2" d="M431.6,236.8v5.1h-0.9v-5.1h-1.5v-0.9h3.9v0.9H431.6z"/>
		<path class="st2" d="M436.5,237.4c-0.4-0.5-0.6-0.7-1-0.7c-0.5,0-0.9,0.4-0.9,0.8c0,0.3,0.2,0.6,0.8,0.8l0.6,0.2
			c1,0.4,1.4,0.9,1.4,1.7c0,1.1-0.9,1.9-2,1.9c-0.6,0-1.2-0.3-1.5-0.7c-0.2-0.3-0.3-0.5-0.4-1l0.9-0.2l0,0.1c0.2,0.6,0.5,1,1,1
			c0.6,0,1-0.4,1-1c0-0.4-0.2-0.6-0.9-0.9l-0.5-0.2c-0.9-0.3-1.3-0.9-1.3-1.6c0-1,0.8-1.7,1.9-1.7c0.8,0,1.3,0.3,1.8,1.1
			L436.5,237.4z"/>
	</g>
	<g class="st1">
		<path class="st2" d="M355.9,186.1c-0.7-0.8-1.3-1.1-2-1.1c-1.4,0-2.6,1.2-2.6,2.6c0,1.5,1.1,2.6,2.6,2.6c0.8,0,1.3-0.3,2.1-1.1
			l1.1,1c-1,1.1-2,1.5-3.2,1.5c-2.3,0-4.2-1.8-4.2-4.1c0-2.3,1.9-4.1,4.2-4.1c1.2,0,2.1,0.4,3.1,1.5L355.9,186.1z"/>
		<path class="st2" d="M359.6,189.7l-0.7,1.8h-1.6l2.9-7.8h1.8l2.9,7.8h-1.7l-0.6-1.8H359.6z M361.1,185.4l-1,2.9h2.1L361.1,185.4z"
			/>
		<path class="st2" d="M367.2,191.5h-1.6v-7.8h1.9c0.8,0,1.3,0.1,1.7,0.4c0.7,0.4,1.2,1.2,1.2,2.1s-0.4,1.7-1.2,2.1
			c-0.4,0.2-0.9,0.4-1.7,0.4h-0.3V191.5z M367.6,187.3c0.9,0,1.2-0.3,1.2-1.1s-0.4-1.1-1.2-1.1h-0.4v2.1H367.6z"/>
		<path class="st2" d="M372.2,189.7l-0.7,1.8h-1.6l2.9-7.8h1.8l2.9,7.8H376l-0.6-1.8H372.2z M373.8,185.4l-1,2.9h2.1L373.8,185.4z"
			/>
		<path class="st2" d="M383.8,186.1c-0.7-0.8-1.3-1.1-2-1.1c-1.4,0-2.6,1.2-2.6,2.6c0,1.5,1.1,2.6,2.6,2.6c0.8,0,1.3-0.3,2.1-1.1
			l1.1,1c-1,1.1-2,1.5-3.2,1.5c-2.3,0-4.2-1.8-4.2-4.1c0-2.3,1.9-4.1,4.2-4.1c1.2,0,2.1,0.4,3.1,1.5L383.8,186.1z"/>
		<path class="st2" d="M387.5,191.5h-1.6v-7.8h1.6V191.5z"/>
		<path class="st2" d="M393.5,185.1h-1.9v6.4h-1.6v-6.4h-1.9v-1.4h5.3V185.1z"/>
		<path class="st2" d="M393.7,183.7h1.7l1.6,3l1.6-3h1.7l-2.6,4.6v3.2h-1.6v-3.2L393.7,183.7z"/>
		<path class="st2" d="M408.2,185.1h-1.9v6.4h-1.6v-6.4h-1.9v-1.4h5.3V185.1z"/>
		<path class="st2" d="M413.4,185.1h-2.9v1.7h2.6v1.4h-2.6v1.8h3v1.5h-4.6v-7.8h4.5V185.1z"/>
		<path class="st2" d="M418.2,185.9c-0.5-0.7-0.7-0.9-1.2-0.9c-0.6,0-1,0.4-1,0.9c0,0.3,0.3,0.6,0.8,0.8l0.7,0.3
			c1.3,0.5,1.9,1.2,1.9,2.2c0,1.4-1.2,2.6-2.7,2.6c-0.8,0-1.6-0.4-2.1-0.9c-0.3-0.4-0.5-0.8-0.6-1.5l1.5-0.4
			c0.1,0.5,0.2,0.7,0.3,0.9c0.2,0.3,0.5,0.5,0.9,0.5c0.6,0,1.1-0.5,1.1-1.1c0-0.4-0.3-0.7-1.1-1l-0.7-0.3c-1.2-0.5-1.8-1.2-1.8-2.1
			c0-1.3,1.1-2.3,2.6-2.3c1.1,0,1.8,0.5,2.5,1.5L418.2,185.9z"/>
		<path class="st2" d="M425.4,185.1h-1.9v6.4h-1.6v-6.4H420v-1.4h5.3V185.1z"/>
		<path class="st2" d="M427.6,191.5h-1.6v-7.8h1.6V191.5z"/>
		<path class="st2" d="M429.2,183.7h1.3l3.8,5.1v-5.1h1.6v7.8h-1.3l-3.8-5.1v5.1h-1.6V183.7z"/>
		<path class="st2" d="M444.9,187.1v0.8c0,2.3-1.5,3.8-3.6,3.8c-2.3,0-4.2-1.8-4.2-4.1c0-2.3,1.9-4.1,4.2-4.1c1.2,0,2.1,0.4,3.1,1.5
			l-1.1,1c-0.8-0.8-1.3-1-2.1-1c-1.5,0-2.6,1.2-2.6,2.6s1.1,2.6,2.6,2.6c0.6,0,1.1-0.2,1.5-0.6c0.3-0.3,0.4-0.5,0.5-1h-2.1v-1.4
			H444.9z"/>
	</g>
</g>
<g>
	<path class="st0" d="M448.3,359.1h-102c-5,0-9-4-9-9v-67c0-5,4-9,9-9h102c5,0,9,4,9,9v67C457.3,355.1,453.3,359.1,448.3,359.1z"/>
	<g class="st1">
		<path class="st2" d="M348.8,310.1c-0.6-0.6-1-0.8-1.7-0.8c-1.2,0-2.2,1-2.2,2.3c0,1.3,1,2.2,2.2,2.2c0.5,0,0.9-0.2,1.3-0.5
			c0.1-0.1,0.2-0.2,0.4-0.4l0.7,0.6c-0.8,0.8-1.4,1.1-2.3,1.1c-1.8,0-3.2-1.4-3.2-3.1s1.4-3.1,3.1-3.1c0.9,0,1.6,0.3,2.3,1.1
			L348.8,310.1z"/>
		<path class="st2" d="M356.1,311.5c0,1.7-1.4,3.1-3.1,3.1c-1.7,0-3.1-1.4-3.1-3.2c0-1.7,1.4-3.1,3.1-3.1
			C354.7,308.4,356.1,309.8,356.1,311.5z M350.8,311.6c0,1.2,1,2.2,2.2,2.2c1.2,0,2.2-1,2.2-2.2c0-1.3-1-2.3-2.2-2.3
			C351.8,309.3,350.8,310.3,350.8,311.6z"/>
		<path class="st2" d="M357.1,308.5h0.8l3.3,4.4v-4.4h0.9v6h-0.8l-3.3-4.4v4.4h-0.9V308.5z"/>
		<path class="st2" d="M364.4,309.4v1.7h1.9v0.9h-1.9v2.6h-0.9v-6h3.1v0.9H364.4z"/>
		<path class="st2" d="M368.4,314.5h-0.9v-6h0.9V314.5z"/>
		<path class="st2" d="M375.2,311.3v0.5c0,1.7-1.1,2.9-2.7,2.9c-1.8,0-3.2-1.4-3.2-3.1s1.4-3.1,3.1-3.1c0.7,0,1.4,0.2,1.9,0.7
			c0.1,0.1,0.2,0.2,0.4,0.4l-0.6,0.6c-0.6-0.6-1-0.8-1.7-0.8c-1.2,0-2.2,1-2.2,2.3c0,1.3,1,2.2,2.2,2.2c0.6,0,1.1-0.2,1.4-0.6
			c0.2-0.3,0.3-0.5,0.4-1h-1.7v-0.9H375.2z"/>
		<path class="st2" d="M377.2,308.5v3.7c0,0.5,0,0.8,0.2,1c0.2,0.3,0.7,0.6,1.1,0.6c0.5,0,0.9-0.2,1.1-0.6c0.1-0.2,0.2-0.4,0.2-1
			v-3.7h0.9v3.9c0,0.5-0.1,0.9-0.3,1.2c-0.4,0.6-1.1,1.1-1.9,1.1c-0.8,0-1.6-0.4-2-1.1c-0.2-0.3-0.3-0.7-0.3-1.2v-3.9H377.2z"/>
		<path class="st2" d="M386.1,314.5H385l-1.3-2.3c-0.2,0-0.3,0-0.4,0h-0.4v2.3H382v-6h1.3c0.6,0,1,0.1,1.4,0.3
			c0.5,0.3,0.9,0.9,0.9,1.6c0,0.7-0.4,1.3-0.9,1.6L386.1,314.5z M383.4,311.3c0.4,0,0.6,0,0.9-0.2c0.3-0.2,0.4-0.5,0.4-0.8
			c0-0.4-0.2-0.7-0.4-0.8c-0.2-0.1-0.5-0.2-0.8-0.2h-0.5v2H383.4z"/>
		<path class="st2" d="M387.8,309.4v1.7h2.1v0.9h-2.1v1.7h2.4v0.9h-3.3v-6h3.3v0.9H387.8z"/>
		<path class="st2" d="M394.3,309.4v1.7h2.1v0.9h-2.1v1.7h2.4v0.9h-3.3v-6h3.3v0.9H394.3z"/>
		<path class="st2" d="M397.7,308.5h0.8l3.3,4.4v-4.4h0.9v6h-0.8l-3.3-4.4v4.4h-0.9V308.5z"/>
		<path class="st2" d="M404.4,308.5l1.6,4.7l1.6-4.7h1l-2,6h-1.1l-2-6H404.4z"/>
		<path class="st2" d="M410.1,314.5h-0.9v-6h0.9V314.5z"/>
		<path class="st2" d="M415.5,314.5h-1.1l-1.3-2.3c-0.2,0-0.3,0-0.4,0h-0.4v2.3h-0.9v-6h1.3c0.6,0,1,0.1,1.4,0.3
			c0.5,0.3,0.9,0.9,0.9,1.6c0,0.7-0.4,1.3-0.9,1.6L415.5,314.5z M412.8,311.3c0.4,0,0.6,0,0.9-0.2c0.3-0.2,0.4-0.5,0.4-0.8
			c0-0.4-0.2-0.7-0.4-0.8c-0.2-0.1-0.5-0.2-0.8-0.2h-0.5v2H412.8z"/>
		<path class="st2" d="M422.1,311.5c0,1.7-1.4,3.1-3.1,3.1c-1.7,0-3.1-1.4-3.1-3.2c0-1.7,1.4-3.1,3.1-3.1
			C420.7,308.4,422.1,309.8,422.1,311.5z M416.8,311.6c0,1.2,1,2.2,2.2,2.2c1.2,0,2.2-1,2.2-2.2c0-1.3-1-2.3-2.2-2.3
			C417.7,309.3,416.8,310.3,416.8,311.6z"/>
		<path class="st2" d="M423,308.5h0.8l3.3,4.4v-4.4h0.9v6h-0.8l-3.3-4.4v4.4H423V308.5z"/>
		<path class="st2" d="M429.4,308.5h0.9l2.1,3.7l2.1-3.7h0.9v6h-0.9v-4.2l-1.7,3H432l-1.7-3v4.2h-0.9V308.5z"/>
		<path class="st2" d="M437.6,309.4v1.7h2.1v0.9h-2.1v1.7h2.4v0.9h-3.3v-6h3.3v0.9H437.6z"/>
		<path class="st2" d="M441,308.5h0.8l3.3,4.4v-4.4h0.9v6h-0.8l-3.3-4.4v4.4H441V308.5z"/>
		<path class="st2" d="M449.1,309.4v5.1h-0.9v-5.1h-1.5v-0.9h3.9v0.9H449.1z"/>
	</g>
	<g class="st1">
		<path class="st2" d="M366,319.3c2,0,3.3,1.2,3.3,3s-1.3,3-3.3,3h-1.3v-6H366z M365.6,324.5h0.4c1.4,0,2.3-0.8,2.3-2.1
			c0-1.3-0.9-2.1-2.3-2.1h-0.4V324.5z"/>
		<path class="st2" d="M371.2,320.2v1.7h2.1v0.9h-2.1v1.7h2.4v0.9h-3.3v-6h3.3v0.9H371.2z"/>
		<path class="st2" d="M376,319.3c0.6,0,1,0.1,1.3,0.3c0.5,0.3,0.9,0.9,0.9,1.6c0,0.7-0.3,1.3-0.9,1.6c-0.3,0.2-0.7,0.3-1.3,0.3
			h-0.4v2.3h-0.9v-6H376z M376,322.1c0.4,0,0.7-0.1,0.9-0.3c0.1-0.2,0.2-0.4,0.2-0.7c0-0.4-0.2-0.7-0.4-0.8
			c-0.2-0.1-0.4-0.1-0.7-0.1h-0.5v2H376z"/>
		<path class="st2" d="M379.8,324.5h2.2v0.9h-3.2v-6h0.9V324.5z"/>
		<path class="st2" d="M388.4,322.3c0,1.7-1.4,3.1-3.1,3.1c-1.7,0-3.1-1.4-3.1-3.2c0-1.7,1.4-3.1,3.1-3.1
			C387,319.2,388.4,320.6,388.4,322.3z M383.1,322.4c0,1.2,1,2.2,2.2,2.2c1.2,0,2.2-1,2.2-2.2c0-1.3-1-2.3-2.2-2.3
			C384,320.1,383.1,321.1,383.1,322.4z"/>
		<path class="st2" d="M391.2,322.8v2.5h-0.9v-2.5l-2-3.5h1l1.4,2.6l1.4-2.6h1L391.2,322.8z"/>
		<path class="st2" d="M395.9,319.3h1.3c0.6,0,1,0.1,1.3,0.3c0.5,0.3,0.8,0.8,0.8,1.4c0,0.5-0.2,0.8-0.6,1.2
			c0.5,0.3,0.9,0.8,0.9,1.5c0,0.6-0.3,1.2-0.9,1.5c-0.3,0.2-0.7,0.3-1.2,0.3h-1.6V319.3z M397.4,321.8c0.4,0,0.5,0,0.7-0.1
			c0.3-0.1,0.4-0.4,0.4-0.7c0-0.2-0.1-0.5-0.2-0.6c-0.1-0.1-0.5-0.2-0.9-0.2h-0.5v1.7H397.4z M397.5,324.5c0.4,0,0.6,0,0.8-0.1
			c0.3-0.2,0.4-0.4,0.4-0.8c0-0.3-0.2-0.6-0.4-0.7c-0.2-0.1-0.5-0.2-0.9-0.2h-0.6v1.8H397.5z"/>
		<path class="st2" d="M401.6,325.3h-0.9v-6h0.9V325.3z"/>
		<path class="st2" d="M402.9,319.3h0.8l3.3,4.4v-4.4h0.9v6h-0.8l-3.3-4.4v4.4h-0.9V319.3z"/>
		<path class="st2" d="M409.6,325.3h-1l2.3-6h1.2l2.3,6h-1l-0.6-1.5h-2.6L409.6,325.3z M412.4,322.9l-1-2.6l-1,2.6H412.4z"/>
		<path class="st2" d="M419,325.3H418l-1.3-2.3c-0.2,0-0.3,0-0.4,0h-0.4v2.3h-0.9v-6h1.3c0.6,0,1,0.1,1.4,0.3
			c0.5,0.3,0.9,0.9,0.9,1.6c0,0.7-0.4,1.3-0.9,1.6L419,325.3z M416.3,322.1c0.4,0,0.6,0,0.9-0.2c0.3-0.2,0.4-0.5,0.4-0.8
			c0-0.4-0.2-0.7-0.4-0.8c-0.2-0.1-0.5-0.2-0.8-0.2h-0.5v2H416.3z"/>
		<path class="st2" d="M420.8,325.3h-0.9v-6h0.9V325.3z"/>
		<path class="st2" d="M423,320.2v1.7h2.1v0.9H423v1.7h2.4v0.9h-3.3v-6h3.3v0.9H423z"/>
		<path class="st2" d="M429.1,320.8c-0.4-0.5-0.6-0.7-1-0.7c-0.5,0-0.9,0.4-0.9,0.8c0,0.3,0.2,0.6,0.8,0.8l0.6,0.2
			c1,0.4,1.5,0.9,1.5,1.7c0,1.1-0.9,1.9-2,1.9c-0.6,0-1.2-0.3-1.5-0.7c-0.2-0.3-0.3-0.5-0.4-1l0.9-0.2l0,0.1c0.2,0.6,0.5,1,1,1
			c0.6,0,1-0.4,1-1c0-0.4-0.2-0.6-0.9-0.9l-0.5-0.2c-0.9-0.3-1.3-0.9-1.3-1.6c0-1,0.8-1.7,1.9-1.7c0.8,0,1.3,0.3,1.8,1.1
			L429.1,320.8z"/>
	</g>
	<g class="st1">
		<path class="st2" d="M377,331.6c-0.4-0.5-0.6-0.7-1-0.7c-0.5,0-0.9,0.4-0.9,0.8c0,0.3,0.2,0.6,0.8,0.8l0.6,0.2
			c1,0.4,1.4,0.9,1.4,1.7c0,1.1-0.9,1.9-2,1.9c-0.6,0-1.2-0.3-1.5-0.7c-0.2-0.3-0.3-0.5-0.4-1l0.9-0.2l0,0.1c0.2,0.6,0.5,1,1,1
			c0.6,0,1-0.4,1-1c0-0.4-0.2-0.6-0.9-0.9l-0.5-0.2c-0.9-0.3-1.3-0.9-1.3-1.6c0-1,0.8-1.7,1.9-1.7c0.8,0,1.3,0.3,1.8,1.1L377,331.6z
			"/>
		<path class="st2" d="M378.8,330.1h0.9l2.1,3.7l2.1-3.7h0.9v6h-0.9v-4.2l-1.7,3h-0.7l-1.7-3v4.2h-0.9V330.1z"/>
		<path class="st2" d="M392,333.1c0,1.7-1.4,3.1-3.1,3.1c-1.7,0-3.1-1.4-3.1-3.2c0-1.7,1.4-3.1,3.1-3.1
			C390.6,330,392,331.4,392,333.1z M386.7,333.2c0,1.2,1,2.2,2.2,2.2c1.2,0,2.2-1,2.2-2.2c0-1.3-1-2.3-2.2-2.3
			C387.6,330.9,386.7,331.9,386.7,333.2z"/>
		<path class="st2" d="M397.5,336.1h-1.1l-1.9-2.8l-0.7,0.7v2h-0.9v-6h0.9v2.7l2.5-2.7h1.2l-2.3,2.5L397.5,336.1z"/>
		<path class="st2" d="M399.1,331v1.7h2.1v0.9h-2.1v1.7h2.4v0.9h-3.3v-6h3.3v0.9H399.1z"/>
		<path class="st2" d="M406.4,331v5.1h-0.9V331H404v-0.9h3.9v0.9H406.4z"/>
		<path class="st2" d="M409.5,331v1.7h2.1v0.9h-2.1v1.7h2.4v0.9h-3.3v-6h3.3v0.9H409.5z"/>
		<path class="st2" d="M415.5,331.6c-0.4-0.5-0.6-0.7-1-0.7c-0.5,0-0.9,0.4-0.9,0.8c0,0.3,0.2,0.6,0.8,0.8l0.6,0.2
			c1,0.4,1.4,0.9,1.4,1.7c0,1.1-0.9,1.9-2,1.9c-0.6,0-1.2-0.3-1.5-0.7c-0.2-0.3-0.3-0.5-0.4-1l0.9-0.2l0,0.1c0.2,0.6,0.5,1,1,1
			c0.6,0,1-0.4,1-1c0-0.4-0.2-0.6-0.9-0.9l-0.5-0.2c-0.9-0.3-1.3-0.9-1.3-1.6c0-1,0.8-1.7,1.9-1.7c0.8,0,1.3,0.3,1.8,1.1
			L415.5,331.6z"/>
		<path class="st2" d="M419.3,331v5.1h-0.9V331h-1.5v-0.9h3.9v0.9H419.3z"/>
	</g>
	<g class="st1">
		<path class="st2" d="M365,296.2h-1.6v-7.8h1.9c0.8,0,1.3,0.1,1.7,0.4c0.7,0.4,1.2,1.2,1.2,2.1s-0.4,1.7-1.2,2.1
			c-0.4,0.2-0.9,0.4-1.7,0.4H365V296.2z M365.4,291.9c0.9,0,1.2-0.3,1.2-1.1s-0.4-1.1-1.2-1.1H365v2.1H365.4z"/>
		<path class="st2" d="M371.3,293.3L371.3,293.3L371.3,293.3l-0.4,0h-0.3v2.8H369v-7.8h1.9c0.8,0,1.4,0.1,1.9,0.4
			c0.8,0.4,1.2,1.2,1.2,2.1c0,0.8-0.4,1.6-1.1,2l1.8,3.3h-1.8L371.3,293.3z M371,291.9c1,0,1.4-0.3,1.4-1.1c0-0.4-0.2-0.7-0.5-0.9
			c-0.2-0.1-0.5-0.2-1-0.2h-0.4v2.1H371z"/>
		<path class="st2" d="M383.2,292.3c0,2.2-1.9,4.1-4.1,4.1c-2.3,0-4.1-1.8-4.1-4.2c0-2.2,1.9-4,4.1-4
			C381.3,288.2,383.2,290,383.2,292.3z M376.5,292.3c0,1.4,1.2,2.6,2.5,2.6c1.4,0,2.5-1.2,2.5-2.6c0-1.5-1.1-2.6-2.6-2.6
			S376.5,290.8,376.5,292.3z"/>
		<path class="st2" d="M386.2,288.4c2.6,0,4.3,1.5,4.3,3.9s-1.7,3.9-4.3,3.9h-1.9v-7.8H386.2z M385.9,294.7h0.3
			c1.7,0,2.7-0.9,2.7-2.5c0-1.5-1-2.5-2.7-2.5h-0.3V294.7z"/>
		<path class="st2" d="M393.1,293.2c0,0.6,0,0.9,0.2,1.1c0.2,0.4,0.7,0.6,1.3,0.6c0.5,0,1-0.3,1.3-0.6c0.1-0.2,0.2-0.5,0.2-1.1v-4.8
			h1.6v5c0,0.7-0.1,1.2-0.4,1.6c-0.5,0.9-1.5,1.4-2.6,1.4c-1.1,0-2.1-0.6-2.6-1.4c-0.2-0.4-0.3-0.9-0.3-1.6v-5h1.6V293.2z"/>
		<path class="st2" d="M404.8,290.7c-0.7-0.8-1.3-1.1-2-1.1c-1.4,0-2.6,1.2-2.6,2.6c0,1.5,1.1,2.6,2.6,2.6c0.8,0,1.3-0.3,2.1-1.1
			l1.1,1c-1,1.1-2,1.5-3.2,1.5c-2.3,0-4.2-1.8-4.2-4.1c0-2.3,1.9-4.1,4.2-4.1c1.2,0,2.1,0.4,3.1,1.5L404.8,290.7z"/>
		<path class="st2" d="M411.7,289.8h-1.9v6.4h-1.6v-6.4h-1.9v-1.4h5.3V289.8z"/>
		<path class="st2" d="M413.9,296.2h-1.6v-7.8h1.6V296.2z"/>
		<path class="st2" d="M423.3,292.3c0,2.2-1.9,4.1-4.1,4.1c-2.3,0-4.1-1.8-4.1-4.2c0-2.2,1.9-4,4.1-4
			C421.5,288.2,423.3,290,423.3,292.3z M416.6,292.3c0,1.4,1.2,2.6,2.5,2.6c1.4,0,2.5-1.2,2.5-2.6c0-1.5-1.1-2.6-2.6-2.6
			S416.6,290.8,416.6,292.3z"/>
		<path class="st2" d="M424.4,288.4h1.3l3.8,5.1v-5.1h1.6v7.8h-1.3l-3.8-5.1v5.1h-1.6V288.4z"/>
	</g>
</g>
<path class="st3" d="M505.5,417H35.3c-5,0-9-4-9-9v-31c0-5,4-9,9-9h470.2c5,0,9,4,9,9v31C514.5,413,510.5,417,505.5,417z"/>
<path class="st4" d="M504.3,62.5H34.1c-5,0-9-4-9-9V13c0-5,4-9,9-9h470.2c5,0,9,4,9,9v40.5C513.3,58.5,509.2,62.5,504.3,62.5z"/>
<g class="st1">
	<path class="st2" d="M205.2,395.9l-0.7,2.1h-2.2l3.5-9.3h2.4l3.5,9.3h-2.2l-0.7-2.1H205.2z M207,390.9l-1.1,3.2h2.2L207,390.9z"/>
	<path class="st2" d="M215.2,394.7L215.2,394.7L215.2,394.7H215c-0.1,0-0.1,0-0.2,0h-0.2v3.2h-2.1v-9.3h2.3c1,0,1.7,0.1,2.2,0.4
		c0.9,0.5,1.5,1.5,1.5,2.6c0,1-0.4,1.9-1.2,2.4l2.2,3.9H217L215.2,394.7z M214.9,392.9c1.1,0,1.6-0.3,1.6-1.1c0-0.8-0.5-1.2-1.6-1.2
		h-0.4v2.3H214.9z"/>
	<path class="st2" d="M225.6,390.6h-2.2v7.4h-2.1v-7.4h-2.2v-1.9h6.5V390.6z"/>
	<path class="st2" d="M228.4,398h-2.1v-9.3h2.1V398z"/>
	<path class="st2" d="M235.4,390.6h-3.1v1.8h2.8v1.9h-2.8v3.8h-2.1v-9.3h5.2V390.6z"/>
	<path class="st2" d="M238,395.9l-0.7,2.1h-2.2l3.5-9.3h2.4l3.5,9.3h-2.2l-0.7-2.1H238z M239.8,390.9l-1.1,3.2h2.2L239.8,390.9z"/>
	<path class="st2" d="M251.7,391.6c-0.8-0.9-1.5-1.3-2.4-1.3c-1.6,0-2.9,1.3-2.9,3c0,1.6,1.3,3,2.9,3c0.9,0,1.5-0.3,2.4-1.3l1.5,1.4
		c-1.2,1.3-2.4,1.8-3.8,1.8c-2.8,0-5-2.2-5-4.9c0-2.7,2.2-4.9,5-4.9c1.5,0,2.6,0.5,3.8,1.8L251.7,391.6z"/>
	<path class="st2" d="M260,390.6h-2.2v7.4h-2.1v-7.4h-2.2v-1.9h6.5V390.6z"/>
	<path class="st2" d="M266.6,394.7L266.6,394.7L266.6,394.7h-0.3c-0.1,0-0.1,0-0.2,0h-0.2v3.2h-2.1v-9.3h2.3c1,0,1.7,0.1,2.2,0.4
		c0.9,0.5,1.5,1.5,1.5,2.6c0,1-0.4,1.9-1.2,2.4l2.2,3.9h-2.3L266.6,394.7z M266.2,392.9c1.1,0,1.6-0.3,1.6-1.1
		c0-0.8-0.5-1.2-1.6-1.2h-0.4v2.3H266.2z"/>
	<path class="st2" d="M277.1,390.6h-3.4v1.8h3.1v1.9h-3.1v1.9h3.6v1.9h-5.6v-9.3h5.5V390.6z"/>
	<path class="st2" d="M280.7,398h-2.1v-9.3h2.3c0.9,0,1.5,0.1,2,0.4c0.9,0.5,1.4,1.5,1.4,2.6c0,1.1-0.6,2.1-1.4,2.6
		c-0.5,0.3-1.1,0.4-2,0.4h-0.2V398z M281,392.9c1,0,1.4-0.3,1.4-1.2c0-0.8-0.4-1.1-1.4-1.1h-0.4v2.3H281z"/>
	<path class="st2" d="M294.8,393.3c0,2.7-2.3,4.9-5,4.9c-2.7,0-4.9-2.2-4.9-5c0-2.6,2.3-4.8,5-4.8
		C292.6,388.4,294.8,390.6,294.8,393.3z M287,393.4c0,1.6,1.3,2.9,2.9,2.9c1.6,0,2.9-1.3,2.9-3c0-1.7-1.3-3-2.9-3
		C288.2,390.4,287,391.7,287,393.4z"/>
	<path class="st2" d="M300.2,391.4c-0.6-0.9-0.8-1.1-1.4-1.1c-0.6,0-1,0.4-1,0.9c0,0.3,0.3,0.6,0.9,0.8l0.8,0.3
		c1.6,0.6,2.4,1.5,2.4,2.7c0,1.7-1.5,3.1-3.3,3.1c-1,0-2-0.4-2.5-1.1c-0.4-0.5-0.6-0.9-0.8-1.8l2-0.5l0,0.1l0.1,0.2
		c0.2,0.8,0.6,1.2,1.2,1.2c0.7,0,1.2-0.5,1.2-1.1c0-0.4-0.3-0.7-1.2-1l-0.8-0.3c-1.5-0.5-2.2-1.4-2.2-2.6c0-1.6,1.3-2.8,3.1-2.8
		c1.3,0,2.2,0.6,3,1.9L300.2,391.4z"/>
	<path class="st2" d="M305.5,398h-2.1v-9.3h2.1V398z"/>
	<path class="st2" d="M312.7,390.6h-2.2v7.4h-2.1v-7.4h-2.2v-1.9h6.5V390.6z"/>
	<path class="st2" d="M322.7,393.3c0,2.7-2.3,4.9-5,4.9c-2.7,0-4.9-2.2-4.9-5c0-2.6,2.3-4.8,5-4.8
		C320.4,388.4,322.7,390.6,322.7,393.3z M314.8,393.4c0,1.6,1.3,2.9,2.9,2.9c1.6,0,2.9-1.3,2.9-3c0-1.7-1.3-3-2.9-3
		C316.1,390.4,314.8,391.7,314.8,393.4z"/>
	<path class="st2" d="M326.7,394.7L326.7,394.7L326.7,394.7h-0.3c-0.1,0-0.1,0-0.2,0H326v3.2h-2.1v-9.3h2.3c1,0,1.7,0.1,2.2,0.4
		c0.9,0.5,1.5,1.5,1.5,2.6c0,1-0.4,1.9-1.2,2.4l2.2,3.9h-2.3L326.7,394.7z M326.4,392.9c1.1,0,1.6-0.3,1.6-1.1
		c0-0.8-0.5-1.2-1.6-1.2H326v2.3H326.4z"/>
	<path class="st2" d="M330.1,388.7h2.3l1.8,3.3l1.9-3.3h2.3l-3.1,5.5v3.9h-2.1v-3.9L330.1,388.7z"/>
</g>
<g class="st1">
	<path class="st2" d="M214.2,18.1l2.1-6.4h2.2l-3.1,9.3H213l-3.1-9.3h2.2L214.2,18.1z"/>
	<path class="st2" d="M224.8,13.6h-3.4v1.8h3.1v1.9h-3.1v1.9h3.6V21h-5.6v-9.3h5.5V13.6z"/>
	<path class="st2" d="M229,17.7L229,17.7L229,17.7h-0.3c-0.1,0-0.1,0-0.2,0h-0.2V21h-2.1v-9.3h2.3c1,0,1.7,0.1,2.2,0.4
		c0.9,0.5,1.5,1.5,1.5,2.6c0,1-0.4,1.9-1.2,2.4l2.2,3.9h-2.3L229,17.7z M228.6,15.9c1.1,0,1.6-0.3,1.6-1.1c0-0.8-0.5-1.2-1.6-1.2
		h-0.4v2.3H228.6z"/>
	<path class="st2" d="M238.2,14.4c-0.6-0.9-0.8-1.1-1.4-1.1c-0.6,0-1,0.4-1,0.9c0,0.3,0.3,0.6,0.9,0.8l0.8,0.3
		c1.6,0.6,2.4,1.5,2.4,2.7c0,1.7-1.5,3.1-3.3,3.1c-1,0-2-0.4-2.5-1.1c-0.4-0.5-0.6-0.9-0.8-1.8l2-0.5l0,0.1l0.1,0.2
		c0.2,0.8,0.6,1.2,1.2,1.2c0.7,0,1.2-0.5,1.2-1.1c0-0.4-0.3-0.7-1.2-1l-0.8-0.3c-1.5-0.5-2.2-1.4-2.2-2.6c0-1.6,1.3-2.8,3.1-2.8
		c1.3,0,2.2,0.6,3,1.9L238.2,14.4z"/>
	<path class="st2" d="M243.4,21h-2.1v-9.3h2.1V21z"/>
	<path class="st2" d="M254.6,16.3c0,2.7-2.3,4.9-5,4.9c-2.7,0-4.9-2.2-4.9-5c0-2.6,2.3-4.8,5-4.8C252.4,11.4,254.6,13.6,254.6,16.3z
		 M246.7,16.4c0,1.6,1.3,2.9,2.9,2.9c1.6,0,2.9-1.3,2.9-3c0-1.7-1.3-3-2.9-3C248,13.4,246.7,14.7,246.7,16.4z"/>
	<path class="st2" d="M255.9,11.7h1.7l4.3,5.7v-5.7h2.1V21h-1.7l-4.3-5.7V21h-2.1V11.7z"/>
	<path class="st2" d="M275.6,14.6c-0.8-0.9-1.5-1.3-2.4-1.3c-1.6,0-2.9,1.3-2.9,3c0,1.6,1.3,3,2.9,3c0.9,0,1.5-0.3,2.4-1.3l1.5,1.4
		c-1.2,1.3-2.4,1.8-3.8,1.8c-2.8,0-5-2.2-5-4.9c0-2.7,2.2-4.9,5-4.9c1.5,0,2.6,0.5,3.8,1.8L275.6,14.6z"/>
	<path class="st2" d="M287.3,16.3c0,2.7-2.3,4.9-5,4.9c-2.7,0-4.9-2.2-4.9-5c0-2.6,2.3-4.8,5-4.8C285.1,11.4,287.3,13.6,287.3,16.3z
		 M279.5,16.4c0,1.6,1.3,2.9,2.9,2.9c1.6,0,2.9-1.3,2.9-3c0-1.7-1.3-3-2.9-3C280.7,13.4,279.5,14.7,279.5,16.4z"/>
	<path class="st2" d="M288.6,11.7h1.7l4.3,5.7v-5.7h2.1V21H295l-4.3-5.7V21h-2.1V11.7z"/>
	<path class="st2" d="M303.9,13.6h-2.2V21h-2.1v-7.4h-2.2v-1.9h6.5V13.6z"/>
	<path class="st2" d="M307.4,17.7L307.4,17.7L307.4,17.7h-0.3c-0.1,0-0.1,0-0.2,0h-0.2V21h-2.1v-9.3h2.3c1,0,1.7,0.1,2.2,0.4
		c0.9,0.5,1.5,1.5,1.5,2.6c0,1-0.4,1.9-1.2,2.4l2.2,3.9h-2.3L307.4,17.7z M307.1,15.9c1.1,0,1.6-0.3,1.6-1.1c0-0.8-0.5-1.2-1.6-1.2
		h-0.3v2.3H307.1z"/>
	<path class="st2" d="M321.8,16.3c0,2.7-2.3,4.9-5,4.9c-2.7,0-4.9-2.2-4.9-5c0-2.6,2.3-4.8,5-4.8C319.5,11.4,321.8,13.6,321.8,16.3z
		 M313.9,16.4c0,1.6,1.3,2.9,2.9,2.9c1.6,0,2.9-1.3,2.9-3c0-1.7-1.3-3-2.9-3C315.1,13.4,313.9,14.7,313.9,16.4z"/>
	<path class="st2" d="M325.1,11.7v7.4h3.3V21H323v-9.3H325.1z"/>
</g>
<g class="st1">
	<path class="st2" d="M107,41.8c-0.4-0.5-0.5-0.7-0.9-0.7c-0.4,0-0.7,0.3-0.7,0.7c0,0.2,0.2,0.5,0.6,0.6l0.6,0.2
		c1,0.4,1.5,0.9,1.5,1.7c0,1.1-0.9,2-2.1,2c-0.6,0-1.3-0.3-1.6-0.7c-0.2-0.3-0.4-0.6-0.5-1.1l1.2-0.3c0.1,0.4,0.2,0.6,0.2,0.7
		c0.2,0.2,0.4,0.4,0.7,0.4c0.5,0,0.9-0.4,0.9-0.8c0-0.3-0.2-0.5-0.8-0.7l-0.5-0.2c-0.9-0.4-1.4-0.9-1.4-1.6c0-1,0.8-1.8,2-1.8
		c0.8,0,1.4,0.4,1.9,1.2L107,41.8z"/>
	<path class="st2" d="M114.8,43.2c0,1.7-1.4,3.1-3.2,3.1c-1.8,0-3.2-1.4-3.2-3.2c0-1.7,1.5-3.1,3.2-3.1
		C113.4,40,114.8,41.4,114.8,43.2z M109.7,43.2c0,1.1,0.9,2,2,2c1.1,0,2-0.9,2-2c0-1.1-0.9-2-2-2S109.7,42,109.7,43.2z"/>
	<path class="st2" d="M116.9,43.8c0,0.5,0,0.7,0.1,0.9c0.2,0.3,0.6,0.5,1,0.5c0.4,0,0.8-0.2,1-0.5c0.1-0.2,0.1-0.4,0.1-0.9v-3.7h1.2
		V44c0,0.5-0.1,0.9-0.3,1.2c-0.4,0.7-1.2,1.1-2,1.1c-0.8,0-1.6-0.4-2-1.1c-0.2-0.3-0.3-0.7-0.3-1.2v-3.8h1.2V43.8z"/>
	<path class="st2" d="M123.2,44L123.2,44L123.2,44l-0.3,0h-0.2v2.2h-1.2v-6h1.4c0.6,0,1.1,0.1,1.4,0.3c0.6,0.3,0.9,1,0.9,1.6
		c0,0.6-0.3,1.2-0.8,1.6l1.4,2.5h-1.4L123.2,44z M123,42.9c0.8,0,1.1-0.3,1.1-0.8c0-0.3-0.1-0.6-0.4-0.7c-0.2-0.1-0.4-0.1-0.7-0.1
		h-0.3v1.6H123z"/>
	<path class="st2" d="M130.8,42c-0.6-0.6-1-0.8-1.6-0.8c-1.1,0-2,0.9-2,2c0,1.1,0.9,2,2,2c0.6,0,1-0.2,1.6-0.8l0.9,0.8
		c-0.8,0.8-1.5,1.2-2.4,1.2c-1.8,0-3.2-1.4-3.2-3.1c0-1.7,1.4-3.2,3.2-3.2c0.9,0,1.6,0.3,2.4,1.1L130.8,42z"/>
	<path class="st2" d="M135.9,41.3h-2.2v1.3h2v1.1h-2V45h2.3v1.1h-3.5v-6h3.4V41.3z"/>
	<path class="st2" d="M143.2,42c-0.6-0.6-1-0.8-1.6-0.8c-1.1,0-2,0.9-2,2c0,1.1,0.9,2,2,2c0.6,0,1-0.2,1.6-0.8l0.9,0.8
		c-0.8,0.8-1.5,1.2-2.4,1.2c-1.8,0-3.2-1.4-3.2-3.1c0-1.7,1.4-3.2,3.2-3.2c0.9,0,1.6,0.3,2.4,1.1L143.2,42z"/>
	<path class="st2" d="M150.7,43.2c0,1.7-1.4,3.1-3.2,3.1c-1.8,0-3.2-1.4-3.2-3.2c0-1.7,1.5-3.1,3.2-3.1
		C149.3,40,150.7,41.4,150.7,43.2z M145.6,43.2c0,1.1,0.9,2,2,2c1.1,0,2-0.9,2-2c0-1.1-0.9-2-2-2S145.6,42,145.6,43.2z"/>
	<path class="st2" d="M153,40.1c2,0,3.3,1.2,3.3,3s-1.3,3-3.3,3h-1.4v-6H153z M152.7,45h0.3c1.3,0,2.1-0.7,2.1-1.9
		c0-1.2-0.8-1.9-2.1-1.9h-0.3V45z"/>
	<path class="st2" d="M160.6,41.3h-2.2v1.3h2v1.1h-2V45h2.3v1.1h-3.5v-6h3.4V41.3z"/>
</g>
<g>
	<g class="st1">
		<path class="st2" d="M244.6,36.3h-2.2v1.3h2v1.1h-2V40h2.3v1.1h-3.5v-6h3.4V36.3z"/>
		<path class="st2" d="M245.5,35.1h1l3,3.9v-3.9h1.2v6h-1l-3-3.9v3.9h-1.2V35.1z"/>
		<path class="st2" d="M253.9,39.5l1.4-4.3h1.3l-2,6h-1.4l-2-6h1.3L253.9,39.5z"/>
		<path class="st2" d="M258.3,41.2h-1.2v-6h1.2V41.2z"/>
		<path class="st2" d="M261.3,39L261.3,39L261.3,39l-0.3,0h-0.2v2.2h-1.2v-6h1.4c0.6,0,1.1,0.1,1.4,0.3c0.6,0.3,0.9,1,0.9,1.6
			c0,0.6-0.3,1.2-0.8,1.6l1.4,2.5h-1.4L261.3,39z M261,37.9c0.8,0,1.1-0.3,1.1-0.8c0-0.3-0.1-0.6-0.4-0.7c-0.2-0.1-0.4-0.1-0.7-0.1
			h-0.3v1.6H261z"/>
		<path class="st2" d="M270.4,38.2c0,1.7-1.4,3.1-3.2,3.1c-1.8,0-3.2-1.4-3.2-3.2c0-1.7,1.5-3.1,3.2-3.1
			C269,35,270.4,36.4,270.4,38.2z M265.3,38.2c0,1.1,0.9,2,2,2c1.1,0,2-0.9,2-2c0-1.1-0.9-2-2-2S265.3,37,265.3,38.2z"/>
		<path class="st2" d="M271.3,35.1h1l3,3.9v-3.9h1.2v6h-1l-3-3.9v3.9h-1.2V35.1z"/>
		<path class="st2" d="M277.7,35.1h1.1l1.9,3.3l1.9-3.3h1.1v6h-1.2v-3.6l-1.4,2.4h-0.9l-1.4-2.4v3.6h-1.2V35.1z"/>
		<path class="st2" d="M288.3,36.3H286v1.3h2v1.1h-2V40h2.3v1.1h-3.5v-6h3.4V36.3z"/>
		<path class="st2" d="M289.3,35.1h1l3,3.9v-3.9h1.2v6h-1l-3-3.9v3.9h-1.2V35.1z"/>
		<path class="st2" d="M299,36.3h-1.4v4.9h-1.2v-4.9h-1.4v-1.1h4.1V36.3z"/>
	</g>
	<g class="st1">
		<path class="st2" d="M246.6,49c0.1-0.2,0.1-0.3,0.3-0.7l1.1,0.3l-0.1,0.1c-0.2,0.5-0.3,0.9-0.5,1.3l1.1,1.2H247l-0.3-0.4
			c-0.5,0.4-1,0.5-1.6,0.5c-1.2,0-2.1-0.8-2.1-1.8c0-0.7,0.3-1.1,1.2-1.7c-0.4-0.6-0.6-0.9-0.6-1.3c0-0.8,0.6-1.5,1.5-1.5
			c0.8,0,1.5,0.6,1.5,1.4c0,0.5-0.3,0.9-0.9,1.4L246.6,49z M244.7,48.5c-0.5,0.4-0.6,0.6-0.6,0.9c0,0.5,0.4,0.8,0.9,0.8
			c0.3,0,0.6-0.1,0.8-0.3L244.7,48.5z M245.5,46.4c0-0.3-0.2-0.4-0.5-0.4c-0.3,0-0.5,0.2-0.5,0.5c0,0.2,0.1,0.4,0.4,0.7
			C245.4,46.8,245.5,46.6,245.5,46.4z"/>
		<path class="st2" d="M252.2,49.8l-0.5,1.4h-1.3l2.2-6h1.4l2.2,6h-1.3l-0.5-1.4H252.2z M253.4,46.4l-0.8,2.2h1.6L253.4,46.4z"/>
		<path class="st2" d="M258.1,51.2h-1.2v-6h1.4c0.6,0,1,0.1,1.3,0.3c0.6,0.3,0.9,0.9,0.9,1.6c0,0.7-0.3,1.3-0.9,1.6
			c-0.3,0.2-0.7,0.3-1.3,0.3h-0.2V51.2z M258.4,47.9c0.7,0,1-0.3,1-0.8c0-0.6-0.3-0.8-1-0.8h-0.3v1.6H258.4z"/>
		<path class="st2" d="M262.4,51.2h-1.2v-6h1.4c0.6,0,1,0.1,1.3,0.3c0.6,0.3,0.9,0.9,0.9,1.6c0,0.7-0.3,1.3-0.9,1.6
			c-0.3,0.2-0.7,0.3-1.3,0.3h-0.2V51.2z M262.7,47.9c0.7,0,1-0.3,1-0.8c0-0.6-0.3-0.8-1-0.8h-0.3v1.6H262.7z"/>
		<path class="st2" d="M271.9,47c-0.6-0.6-1-0.8-1.6-0.8c-1.1,0-2,0.9-2,2c0,1.1,0.9,2,2,2c0.6,0,1-0.2,1.6-0.8l0.9,0.8
			c-0.8,0.8-1.5,1.2-2.4,1.2c-1.8,0-3.2-1.4-3.2-3.1c0-1.7,1.4-3.2,3.2-3.2c0.9,0,1.6,0.3,2.4,1.1L271.9,47z"/>
		<path class="st2" d="M279.4,48.2c0,1.7-1.4,3.1-3.2,3.1c-1.8,0-3.2-1.4-3.2-3.2c0-1.7,1.5-3.1,3.2-3.1
			C277.9,45,279.4,46.4,279.4,48.2z M274.2,48.2c0,1.1,0.9,2,2,2c1.1,0,2-0.9,2-2c0-1.1-0.9-2-2-2S274.2,47,274.2,48.2z"/>
		<path class="st2" d="M280.2,45.1h1l3,3.9v-3.9h1.2v6h-1l-3-3.9v3.9h-1.2V45.1z"/>
		<path class="st2" d="M289.8,46.3h-2v1.3h1.9v1.1h-1.9v2.5h-1.2v-6h3.2V46.3z"/>
		<path class="st2" d="M291.9,51.2h-1.2v-6h1.2V51.2z"/>
		<path class="st2" d="M298.7,47.8v0.6c0,1.8-1.1,2.9-2.8,2.9c-1.8,0-3.2-1.4-3.2-3.1c0-1.8,1.4-3.2,3.2-3.2c0.9,0,1.6,0.3,2.4,1.1
			l-0.8,0.8c-0.6-0.6-1-0.8-1.6-0.8c-1.1,0-2,0.9-2,2s0.9,2,2,2c0.5,0,0.9-0.2,1.2-0.5c0.2-0.2,0.3-0.4,0.4-0.8h-1.6v-1.1H298.7z"/>
	</g>
</g>
<g class="st1">
	<path class="st2" d="M130.8,128.7c2.5,0,4,1.4,4,3.7c0,2.2-1.6,3.7-4,3.7H129v-7.3H130.8z M130.6,134.5h0.2c1.5,0,2.4-0.8,2.4-2.2
		c0-1.4-0.9-2.2-2.4-2.2h-0.2V134.5z"/>
	<path class="st2" d="M140.2,130.2h-2.7v1.4h2.4v1.5h-2.4v1.5h2.8v1.5h-4.4v-7.3h4.3V130.2z"/>
	<path class="st2" d="M144,133.7l1.7-5h1.7l-2.5,7.3H143l-2.5-7.3h1.7L144,133.7z"/>
	<path class="st2" d="M152.2,130.2h-2.7v1.4h2.4v1.5h-2.4v1.5h2.8v1.5h-4.4v-7.3h4.3V130.2z"/>
	<path class="st2" d="M155,128.7v5.8h2.6v1.5h-4.2v-7.3H155z"/>
	<path class="st2" d="M165.5,132.3c0,2.1-1.8,3.9-3.9,3.9c-2.1,0-3.9-1.8-3.9-3.9c0-2,1.8-3.8,3.9-3.8
		C163.7,128.5,165.5,130.2,165.5,132.3z M159.3,132.4c0,1.2,1,2.3,2.3,2.3c1.3,0,2.3-1.1,2.3-2.3c0-1.3-1-2.3-2.3-2.3
		C160.3,130,159.3,131,159.3,132.4z"/>
	<path class="st2" d="M168.1,136h-1.6v-7.3h1.8c0.7,0,1.2,0.1,1.6,0.3c0.7,0.4,1.1,1.2,1.1,2.1c0,0.9-0.4,1.7-1.1,2.1
		c-0.4,0.2-0.9,0.3-1.6,0.3h-0.2V136z M168.4,132c0.7,0,1.1-0.3,1.1-0.9c0-0.6-0.3-0.9-1.1-0.9h-0.3v1.8H168.4z"/>
	<path class="st2" d="M176.1,130.2h-2.7v1.4h2.4v1.5h-2.4v1.5h2.8v1.5h-4.4v-7.3h4.3V130.2z"/>
	<path class="st2" d="M179.4,133.4L179.4,133.4L179.4,133.4h-0.2c0,0-0.1,0-0.2,0h-0.2v2.6h-1.6v-7.3h1.8c0.8,0,1.3,0.1,1.7,0.4
		c0.7,0.4,1.2,1.2,1.2,2.1c0,0.8-0.4,1.5-1,1.9l1.7,3h-1.8L179.4,133.4z M179.1,132c0.9,0,1.2-0.3,1.2-0.9c0-0.6-0.4-0.9-1.2-0.9
		h-0.3v1.8H179.1z"/>
	<path class="st2" d="M186.6,130.8c-0.4-0.7-0.6-0.8-1.1-0.8c-0.4,0-0.8,0.3-0.8,0.7c0,0.3,0.2,0.5,0.7,0.6l0.7,0.3
		c1.3,0.5,1.9,1.2,1.9,2.1c0,1.4-1.1,2.4-2.6,2.4c-0.8,0-1.6-0.3-2-0.9c-0.3-0.4-0.5-0.7-0.6-1.4l1.6-0.4l0,0.1l0,0.2
		c0.2,0.6,0.5,0.9,1,0.9c0.5,0,0.9-0.4,0.9-0.9c0-0.3-0.2-0.5-0.9-0.8l-0.6-0.2c-1.1-0.4-1.7-1.1-1.7-2c0-1.3,1.1-2.2,2.5-2.2
		c1,0,1.7,0.4,2.4,1.5L186.6,130.8z"/>
</g>
<g class="st1">
	<path class="st2" d="M132.2,142.6c-0.3-0.4-0.4-0.5-0.7-0.5c-0.3,0-0.6,0.2-0.6,0.5c0,0.2,0.2,0.3,0.5,0.5l0.4,0.2
		c0.8,0.3,1.2,0.7,1.2,1.3c0,0.9-0.7,1.5-1.6,1.5c-0.5,0-1-0.2-1.2-0.6c-0.2-0.2-0.3-0.5-0.4-0.9l0.9-0.2c0.1,0.3,0.1,0.4,0.2,0.5
		c0.1,0.2,0.3,0.3,0.5,0.3c0.4,0,0.7-0.3,0.7-0.6c0-0.2-0.2-0.4-0.6-0.6l-0.4-0.2c-0.7-0.3-1.1-0.7-1.1-1.3c0-0.8,0.7-1.4,1.5-1.4
		c0.6,0,1.1,0.3,1.5,0.9L132.2,142.6z"/>
	<path class="st2" d="M136.4,142.2h-1.7v1h1.5v0.9h-1.5v1.1h1.8v0.9h-2.7v-4.7h2.7V142.2z"/>
	<path class="st2" d="M139.9,142.2h-1.7v1h1.5v0.9h-1.5v1.1h1.8v0.9h-2.7v-4.7h2.7V142.2z"/>
	<path class="st2" d="M145.6,142.7c-0.4-0.5-0.7-0.6-1.2-0.6c-0.9,0-1.5,0.7-1.5,1.6c0,0.9,0.7,1.6,1.5,1.6c0.5,0,0.8-0.2,1.2-0.7
		l0.7,0.6c-0.6,0.6-1.2,0.9-1.9,0.9c-1.4,0-2.5-1.1-2.5-2.4c0-1.4,1.1-2.5,2.5-2.5c0.7,0,1.3,0.3,1.9,0.9L145.6,142.7z"/>
	<path class="st2" d="M151.4,143.7c0,1.3-1.1,2.4-2.5,2.4c-1.4,0-2.5-1.1-2.5-2.5c0-1.3,1.1-2.4,2.5-2.4
		C150.3,141.2,151.4,142.3,151.4,143.7z M147.4,143.7c0,0.8,0.7,1.5,1.5,1.5c0.8,0,1.5-0.7,1.5-1.6c0-0.9-0.7-1.6-1.5-1.6
		C148.1,142.1,147.4,142.8,147.4,143.7z"/>
	<path class="st2" d="M153.2,141.3c1.6,0,2.6,0.9,2.6,2.3c0,1.4-1,2.3-2.6,2.3H152v-4.7H153.2z M153,145.1h0.2c1,0,1.6-0.6,1.6-1.5
		c0-0.9-0.6-1.5-1.6-1.5H153V145.1z"/>
	<path class="st2" d="M159.1,142.2h-1.7v1h1.5v0.9h-1.5v1.1h1.8v0.9h-2.7v-4.7h2.7V142.2z"/>
	<path class="st2" d="M161.4,141.3h0.9l1.5,2.6l1.5-2.6h0.9v4.7h-0.9v-2.8l-1.1,1.9h-0.7l-1.1-1.9v2.8h-0.9V141.3z"/>
	<path class="st2" d="M169.7,142.2h-1.7v1h1.5v0.9h-1.5v1.1h1.8v0.9H167v-4.7h2.7V142.2z"/>
	<path class="st2" d="M173.1,142.2H172v3.8h-0.9v-3.8H170v-0.9h3.2V142.2z"/>
	<path class="st2" d="M174.9,144.3L174.9,144.3L174.9,144.3l-0.3,0h-0.2v1.7h-0.9v-4.7h1.1c0.5,0,0.8,0.1,1.1,0.2
		c0.4,0.3,0.7,0.7,0.7,1.3c0,0.5-0.2,0.9-0.7,1.2l1.1,2h-1.1L174.9,144.3z M174.7,143.5c0.6,0,0.9-0.2,0.9-0.6
		c0-0.2-0.1-0.4-0.3-0.5c-0.1-0.1-0.3-0.1-0.6-0.1h-0.2v1.3H174.7z"/>
	<path class="st2" d="M178.4,146h-0.9v-4.7h0.9V146z"/>
	<path class="st2" d="M182.7,142.7c-0.4-0.5-0.7-0.6-1.2-0.6c-0.9,0-1.5,0.7-1.5,1.6c0,0.9,0.7,1.6,1.5,1.6c0.5,0,0.8-0.2,1.2-0.7
		l0.7,0.6c-0.6,0.6-1.2,0.9-1.9,0.9c-1.4,0-2.5-1.1-2.5-2.4c0-1.4,1.1-2.5,2.5-2.5c0.7,0,1.3,0.3,1.9,0.9L182.7,142.7z"/>
	<path class="st2" d="M186.1,142.6c-0.3-0.4-0.4-0.5-0.7-0.5c-0.3,0-0.6,0.2-0.6,0.5c0,0.2,0.2,0.3,0.5,0.5l0.4,0.2
		c0.8,0.3,1.2,0.7,1.2,1.3c0,0.9-0.7,1.5-1.6,1.5c-0.5,0-1-0.2-1.2-0.6c-0.2-0.2-0.3-0.5-0.4-0.9l0.9-0.2c0.1,0.3,0.1,0.4,0.2,0.5
		c0.1,0.2,0.3,0.3,0.5,0.3c0.4,0,0.7-0.3,0.7-0.6c0-0.2-0.2-0.4-0.6-0.6l-0.4-0.2c-0.7-0.3-1.1-0.7-1.1-1.3c0-0.8,0.7-1.4,1.5-1.4
		c0.6,0,1.1,0.3,1.5,0.9L186.1,142.6z"/>
</g>
<g class="st1">
	<path class="st2" d="M130.6,153.3l-0.4,1.1h-1l1.7-4.7h1.1l1.7,4.7h-1l-0.4-1.1H130.6z M131.6,150.7l-0.6,1.7h1.2L131.6,150.7z"/>
	<path class="st2" d="M134.3,149.7h0.8l2.3,3v-3h0.9v4.7h-0.8l-2.3-3v3h-0.9V149.7z"/>
	<path class="st2" d="M140.3,149.7c1.6,0,2.6,0.9,2.6,2.3c0,1.4-1,2.3-2.6,2.3h-1.1v-4.7H140.3z M140.2,153.5h0.2
		c1,0,1.6-0.6,1.6-1.5c0-0.9-0.6-1.5-1.6-1.5h-0.2V153.5z"/>
	<path class="st2" d="M147.8,150.6h-1.1v3.8h-0.9v-3.8h-1.1v-0.9h3.2V150.6z"/>
	<path class="st2" d="M150.9,150.6h-1.7v1h1.5v0.9h-1.5v1.1h1.8v0.9h-2.7v-4.7h2.7V150.6z"/>
	<path class="st2" d="M153.8,151c-0.3-0.4-0.4-0.5-0.7-0.5c-0.3,0-0.6,0.2-0.6,0.5c0,0.2,0.2,0.3,0.5,0.5l0.4,0.2
		c0.8,0.3,1.2,0.7,1.2,1.3c0,0.9-0.7,1.5-1.6,1.5c-0.5,0-1-0.2-1.2-0.6c-0.2-0.2-0.3-0.5-0.4-0.9l0.9-0.2c0.1,0.3,0.1,0.4,0.2,0.5
		c0.1,0.2,0.3,0.3,0.5,0.3c0.4,0,0.7-0.3,0.7-0.6c0-0.2-0.2-0.4-0.6-0.6l-0.4-0.2c-0.7-0.3-1.1-0.7-1.1-1.3c0-0.8,0.7-1.4,1.5-1.4
		c0.6,0,1.1,0.3,1.5,0.9L153.8,151z"/>
	<path class="st2" d="M158.1,150.6h-1.1v3.8H156v-3.8h-1.1v-0.9h3.2V150.6z"/>
	<path class="st2" d="M162.6,150.6H161v1h1.4v0.9H161v1.9H160v-4.7h2.5V150.6z"/>
	<path class="st2" d="M163.8,153.3l-0.4,1.1h-1l1.7-4.7h1.1l1.7,4.7h-1l-0.4-1.1H163.8z M164.7,150.7l-0.6,1.7h1.2L164.7,150.7z"/>
	<path class="st2" d="M168.4,154.4h-0.9v-4.7h0.9V154.4z"/>
	<path class="st2" d="M170.3,149.7v3.8h1.7v0.9h-2.6v-4.7H170.3z"/>
	<path class="st2" d="M173.3,152.6c0,0.4,0,0.5,0.1,0.7c0.1,0.2,0.4,0.4,0.7,0.4c0.3,0,0.6-0.2,0.7-0.4c0.1-0.1,0.1-0.3,0.1-0.7
		v-2.9h0.9v3c0,0.4-0.1,0.7-0.2,0.9c-0.3,0.5-0.9,0.8-1.6,0.8s-1.3-0.3-1.6-0.8c-0.1-0.2-0.2-0.5-0.2-0.9v-3h0.9V152.6z"/>
	<path class="st2" d="M178.2,152.7L178.2,152.7L178.2,152.7l-0.3,0h-0.2v1.7h-0.9v-4.7h1.1c0.5,0,0.8,0.1,1.1,0.2
		c0.4,0.3,0.7,0.7,0.7,1.3c0,0.5-0.2,0.9-0.7,1.2l1.1,2h-1.1L178.2,152.7z M178,151.9c0.6,0,0.9-0.2,0.9-0.6c0-0.2-0.1-0.4-0.3-0.5
		c-0.1-0.1-0.3-0.1-0.6-0.1h-0.2v1.3H178z"/>
	<path class="st2" d="M183.4,150.6h-1.7v1h1.5v0.9h-1.5v1.1h1.8v0.9h-2.7v-4.7h2.7V150.6z"/>
	<path class="st2" d="M186.3,151c-0.3-0.4-0.4-0.5-0.7-0.5c-0.3,0-0.6,0.2-0.6,0.5c0,0.2,0.2,0.3,0.5,0.5l0.4,0.2
		c0.8,0.3,1.2,0.7,1.2,1.3c0,0.9-0.7,1.5-1.6,1.5c-0.5,0-1-0.2-1.2-0.6c-0.2-0.2-0.3-0.5-0.4-0.9l0.9-0.2c0.1,0.3,0.1,0.4,0.2,0.5
		c0.1,0.2,0.3,0.3,0.5,0.3c0.4,0,0.7-0.3,0.7-0.6c0-0.2-0.2-0.4-0.6-0.6l-0.4-0.2c-0.7-0.3-1.1-0.7-1.1-1.3c0-0.8,0.7-1.4,1.5-1.4
		c0.6,0,1.1,0.3,1.5,0.9L186.3,151z"/>
</g>
<g class="st1">
	<path class="st2" d="M166,346.7h1.3c0.5,0,0.9,0.1,1.2,0.2c0.4,0.3,0.7,0.8,0.7,1.3c0,0.4-0.1,0.7-0.4,1c0.4,0.3,0.7,0.8,0.7,1.3
		c0,0.6-0.3,1.1-0.8,1.3c-0.3,0.2-0.6,0.2-1.1,0.2H166V346.7z M167.4,348.8c0.3,0,0.4,0,0.6-0.1c0.2-0.1,0.3-0.3,0.3-0.5
		c0-0.2-0.1-0.3-0.2-0.4c-0.1-0.1-0.4-0.2-0.7-0.2h-0.3v1.2H167.4z M167.5,351c0.3,0,0.5,0,0.6-0.1c0.2-0.1,0.3-0.3,0.3-0.6
		c0-0.2-0.1-0.4-0.3-0.5c-0.2-0.1-0.4-0.1-0.7-0.1h-0.4v1.3H167.5z"/>
	<path class="st2" d="M171.3,352h-1.1v-5.3h1.1V352z"/>
	<path class="st2" d="M172.4,346.7h0.9l2.6,3.5v-3.5h1.1v5.3h-0.9l-2.6-3.5v3.5h-1.1V346.7z"/>
	<path class="st2" d="M179.1,350.8l-0.4,1.2h-1.1l2-5.3h1.3l2,5.3h-1.1l-0.4-1.2H179.1z M180.1,347.8l-0.7,2h1.4L180.1,347.8z"/>
	<path class="st2" d="M184.8,350.1L184.8,350.1L184.8,350.1l-0.3,0h-0.2v1.9h-1.1v-5.3h1.3c0.6,0,1,0.1,1.3,0.3
		c0.5,0.3,0.8,0.8,0.8,1.5c0,0.6-0.3,1.1-0.8,1.4l1.3,2.2h-1.2L184.8,350.1z M184.5,349.1c0.7,0,1-0.2,1-0.7c0-0.3-0.1-0.5-0.3-0.6
		c-0.1-0.1-0.3-0.1-0.7-0.1h-0.3v1.5H184.5z"/>
	<path class="st2" d="M188.7,352h-1.1v-5.3h1.1V352z"/>
	<path class="st2" d="M192.8,347.7h-2v1.2h1.8v1h-1.8v1.2h2.1v1h-3.1v-5.3h3.1V347.7z"/>
	<path class="st2" d="M196.1,348.1c-0.3-0.5-0.5-0.6-0.8-0.6c-0.4,0-0.7,0.3-0.7,0.6c0,0.2,0.2,0.4,0.6,0.5l0.5,0.2
		c0.9,0.3,1.3,0.8,1.3,1.5c0,1-0.8,1.7-1.8,1.7c-0.6,0-1.1-0.2-1.4-0.6c-0.2-0.3-0.3-0.5-0.4-1l1-0.3c0.1,0.4,0.1,0.5,0.2,0.6
		c0.1,0.2,0.4,0.3,0.6,0.3c0.4,0,0.8-0.3,0.8-0.7c0-0.3-0.2-0.4-0.7-0.6l-0.5-0.2c-0.8-0.3-1.2-0.8-1.2-1.5c0-0.9,0.8-1.6,1.7-1.6
		c0.7,0,1.2,0.3,1.7,1.1L196.1,348.1z"/>
</g>
<g class="st1">
	<path class="st2" d="M282,346.7h1.3c0.5,0,0.9,0.1,1.2,0.2c0.4,0.3,0.7,0.8,0.7,1.3c0,0.4-0.1,0.7-0.4,1c0.4,0.3,0.7,0.8,0.7,1.3
		c0,0.6-0.3,1.1-0.8,1.3c-0.3,0.2-0.6,0.2-1.1,0.2H282V346.7z M283.4,348.8c0.3,0,0.4,0,0.6-0.1c0.2-0.1,0.3-0.3,0.3-0.5
		c0-0.2-0.1-0.3-0.2-0.4c-0.1-0.1-0.4-0.2-0.7-0.2h-0.3v1.2H283.4z M283.5,351c0.3,0,0.5,0,0.6-0.1c0.2-0.1,0.3-0.3,0.3-0.6
		c0-0.2-0.1-0.4-0.3-0.5c-0.2-0.1-0.4-0.1-0.7-0.1h-0.4v1.3H283.5z"/>
	<path class="st2" d="M287.3,352h-1.1v-5.3h1.1V352z"/>
	<path class="st2" d="M288.4,346.7h0.9l2.6,3.5v-3.5h1.1v5.3h-0.9l-2.6-3.5v3.5h-1.1V346.7z"/>
	<path class="st2" d="M295.1,350.8l-0.4,1.2h-1.1l2-5.3h1.3l2,5.3h-1.1l-0.4-1.2H295.1z M296.1,347.8l-0.7,2h1.4L296.1,347.8z"/>
	<path class="st2" d="M300.8,350.1L300.8,350.1L300.8,350.1l-0.3,0h-0.2v1.9h-1.1v-5.3h1.3c0.6,0,1,0.1,1.3,0.3
		c0.5,0.3,0.8,0.8,0.8,1.5c0,0.6-0.3,1.1-0.8,1.4l1.3,2.2h-1.2L300.8,350.1z M300.5,349.1c0.7,0,1-0.2,1-0.7c0-0.3-0.1-0.5-0.3-0.6
		c-0.1-0.1-0.3-0.1-0.7-0.1h-0.3v1.5H300.5z"/>
	<path class="st2" d="M304.7,352h-1.1v-5.3h1.1V352z"/>
	<path class="st2" d="M308.8,347.7h-2v1.2h1.8v1h-1.8v1.2h2.1v1h-3.1v-5.3h3.1V347.7z"/>
	<path class="st2" d="M312.1,348.1c-0.3-0.5-0.5-0.6-0.8-0.6c-0.4,0-0.7,0.3-0.7,0.6c0,0.2,0.2,0.4,0.6,0.5l0.5,0.2
		c0.9,0.3,1.3,0.8,1.3,1.5c0,1-0.8,1.7-1.8,1.7c-0.6,0-1.1-0.2-1.4-0.6c-0.2-0.3-0.3-0.5-0.4-1l1-0.3c0.1,0.4,0.1,0.5,0.2,0.6
		c0.1,0.2,0.4,0.3,0.6,0.3c0.4,0,0.8-0.3,0.8-0.7c0-0.3-0.2-0.4-0.7-0.6l-0.5-0.2c-0.8-0.3-1.2-0.8-1.2-1.5c0-0.9,0.8-1.6,1.7-1.6
		c0.7,0,1.2,0.3,1.7,1.1L312.1,348.1z"/>
</g>
<g class="st1">
	<path class="st2" d="M225.6,350.1L225.6,350.1L225.6,350.1l-0.3,0h-0.2v1.9H224v-5.3h1.3c0.6,0,1,0.1,1.3,0.3
		c0.5,0.3,0.8,0.8,0.8,1.5c0,0.6-0.3,1.1-0.8,1.4l1.3,2.2h-1.2L225.6,350.1z M225.4,349.1c0.7,0,1-0.2,1-0.7c0-0.3-0.1-0.5-0.3-0.6
		c-0.1-0.1-0.3-0.1-0.7-0.1h-0.3v1.5H225.4z"/>
	<path class="st2" d="M231.5,347.7h-2v1.2h1.8v1h-1.8v1.2h2.1v1h-3.1v-5.3h3.1V347.7z"/>
	<path class="st2" d="M233.4,352h-1.1v-5.3h1.3c0.5,0,0.9,0.1,1.2,0.2c0.5,0.3,0.8,0.8,0.8,1.5c0,0.6-0.3,1.2-0.8,1.5
		c-0.3,0.2-0.6,0.2-1.2,0.2h-0.2V352z M233.7,349.1c0.6,0,0.8-0.2,0.8-0.7s-0.3-0.7-0.8-0.7h-0.3v1.5H233.7z"/>
	<path class="st2" d="M241.6,349.3c0,1.5-1.3,2.8-2.8,2.8c-1.6,0-2.8-1.3-2.8-2.8c0-1.5,1.3-2.8,2.8-2.8
		C240.3,346.5,241.6,347.8,241.6,349.3z M237,349.4c0,1,0.8,1.8,1.7,1.8c1,0,1.7-0.8,1.7-1.8c0-1-0.8-1.8-1.7-1.8
		C237.8,347.5,237,348.3,237,349.4z"/>
	<path class="st2" d="M243.9,350.1L243.9,350.1L243.9,350.1l-0.3,0h-0.2v1.9h-1.1v-5.3h1.3c0.6,0,1,0.1,1.3,0.3
		c0.5,0.3,0.8,0.8,0.8,1.5c0,0.6-0.3,1.1-0.8,1.4l1.3,2.2H245L243.9,350.1z M243.7,349.1c0.7,0,1-0.2,1-0.7c0-0.3-0.1-0.5-0.3-0.6
		c-0.1-0.1-0.3-0.1-0.7-0.1h-0.3v1.5H243.7z"/>
	<path class="st2" d="M249.7,347.7h-1.3v4.3h-1.1v-4.3h-1.3v-1h3.6V347.7z"/>
	<path class="st2" d="M252.7,348.1c-0.3-0.5-0.5-0.6-0.8-0.6c-0.4,0-0.7,0.3-0.7,0.6c0,0.2,0.2,0.4,0.6,0.5l0.5,0.2
		c0.9,0.3,1.3,0.8,1.3,1.5c0,1-0.8,1.7-1.8,1.7c-0.6,0-1.1-0.2-1.4-0.6c-0.2-0.3-0.3-0.5-0.4-1l1-0.3c0.1,0.4,0.1,0.5,0.2,0.6
		c0.1,0.2,0.4,0.3,0.6,0.3c0.4,0,0.8-0.3,0.8-0.7c0-0.3-0.2-0.4-0.7-0.6l-0.5-0.2c-0.8-0.3-1.2-0.8-1.2-1.5c0-0.9,0.8-1.6,1.7-1.6
		c0.7,0,1.2,0.3,1.7,1.1L252.7,348.1z"/>
</g>
<g class="st1">
	<path class="st2" d="M224,356.3h1l1.7,3l1.7-3h1v5.3h-1.1v-3.2l-1.2,2.1h-0.8l-1.2-2.1v3.2H224V356.3z"/>
	<path class="st2" d="M233.5,357.2h-2v1.2h1.8v1h-1.8v1.2h2.1v1h-3.1v-5.3h3.1V357.2z"/>
	<path class="st2" d="M237.5,357.2h-1.3v4.3h-1.1v-4.3h-1.3v-1h3.6V357.2z"/>
	<path class="st2" d="M238.6,360.4l-0.4,1.2H237l2-5.3h1.3l2,5.3h-1.1l-0.4-1.2H238.6z M239.6,357.4l-0.7,2h1.4L239.6,357.4z"/>
	<path class="st2" d="M244,356.3c1.8,0,2.9,1,2.9,2.7s-1.1,2.7-2.9,2.7h-1.3v-5.3H244z M243.8,360.6h0.2c1.1,0,1.8-0.6,1.8-1.7
		c0-1-0.7-1.7-1.8-1.7h-0.2V360.6z"/>
	<path class="st2" d="M248.5,360.4l-0.4,1.2h-1.1l2-5.3h1.3l2,5.3H251l-0.4-1.2H248.5z M249.5,357.4l-0.7,2h1.4L249.5,357.4z"/>
	<path class="st2" d="M255.3,357.2h-1.3v4.3H253v-4.3h-1.3v-1h3.6V357.2z"/>
	<path class="st2" d="M256.4,360.4l-0.4,1.2h-1.1l2-5.3h1.3l2,5.3H259l-0.4-1.2H256.4z M257.5,357.4l-0.7,2h1.4L257.5,357.4z"/>
</g>
<g class="st1">
	<path class="st2" d="M503.6,350.1L503.6,350.1L503.6,350.1l-0.3,0h-0.2v1.9H502v-5.3h1.3c0.6,0,1,0.1,1.3,0.3
		c0.5,0.3,0.8,0.8,0.8,1.5c0,0.6-0.3,1.1-0.8,1.4l1.3,2.2h-1.2L503.6,350.1z M503.4,349.1c0.7,0,1-0.2,1-0.7c0-0.3-0.1-0.5-0.3-0.6
		c-0.1-0.1-0.3-0.1-0.7-0.1h-0.3v1.5H503.4z"/>
	<path class="st2" d="M509.5,347.7h-2v1.2h1.8v1h-1.8v1.2h2.1v1h-3.1v-5.3h3.1V347.7z"/>
	<path class="st2" d="M511.4,352h-1.1v-5.3h1.3c0.5,0,0.9,0.1,1.2,0.2c0.5,0.3,0.8,0.8,0.8,1.5c0,0.6-0.3,1.2-0.8,1.5
		c-0.3,0.2-0.6,0.2-1.2,0.2h-0.2V352z M511.7,349.1c0.6,0,0.8-0.2,0.8-0.7s-0.3-0.7-0.8-0.7h-0.3v1.5H511.7z"/>
	<path class="st2" d="M519.6,349.3c0,1.5-1.3,2.8-2.8,2.8c-1.6,0-2.8-1.3-2.8-2.8c0-1.5,1.3-2.8,2.8-2.8
		C518.3,346.5,519.6,347.8,519.6,349.3z M515,349.4c0,1,0.8,1.8,1.7,1.8c1,0,1.7-0.8,1.7-1.8c0-1-0.8-1.8-1.7-1.8
		C515.8,347.5,515,348.3,515,349.4z"/>
	<path class="st2" d="M521.9,350.1L521.9,350.1L521.9,350.1l-0.3,0h-0.2v1.9h-1.1v-5.3h1.3c0.6,0,1,0.1,1.3,0.3
		c0.5,0.3,0.8,0.8,0.8,1.5c0,0.6-0.3,1.1-0.8,1.4l1.3,2.2H523L521.9,350.1z M521.7,349.1c0.7,0,1-0.2,1-0.7c0-0.3-0.1-0.5-0.3-0.6
		c-0.1-0.1-0.3-0.1-0.7-0.1h-0.3v1.5H521.7z"/>
	<path class="st2" d="M527.7,347.7h-1.3v4.3h-1.1v-4.3h-1.3v-1h3.6V347.7z"/>
	<path class="st2" d="M530.7,348.1c-0.3-0.5-0.5-0.6-0.8-0.6c-0.4,0-0.7,0.3-0.7,0.6c0,0.2,0.2,0.4,0.6,0.5l0.5,0.2
		c0.9,0.3,1.3,0.8,1.3,1.5c0,1-0.8,1.7-1.8,1.7c-0.6,0-1.1-0.2-1.4-0.6c-0.2-0.3-0.3-0.5-0.4-1l1-0.3c0.1,0.4,0.1,0.5,0.2,0.6
		c0.1,0.2,0.4,0.3,0.6,0.3c0.4,0,0.8-0.3,0.8-0.7c0-0.3-0.2-0.4-0.7-0.6l-0.5-0.2c-0.8-0.3-1.2-0.8-1.2-1.5c0-0.9,0.8-1.6,1.7-1.6
		c0.7,0,1.2,0.3,1.7,1.1L530.7,348.1z"/>
</g>
<g class="st1">
	<path class="st2" d="M502,356.3h1l1.7,3l1.7-3h1v5.3h-1.1v-3.2l-1.2,2.1h-0.8l-1.2-2.1v3.2H502V356.3z"/>
	<path class="st2" d="M511.5,357.2h-2v1.2h1.8v1h-1.8v1.2h2.1v1h-3.1v-5.3h3.1V357.2z"/>
	<path class="st2" d="M515.5,357.2h-1.3v4.3h-1.1v-4.3h-1.3v-1h3.6V357.2z"/>
	<path class="st2" d="M516.6,360.4l-0.4,1.2H515l2-5.3h1.3l2,5.3h-1.1l-0.4-1.2H516.6z M517.6,357.4l-0.7,2h1.4L517.6,357.4z"/>
	<path class="st2" d="M522,356.3c1.8,0,2.9,1,2.9,2.7s-1.1,2.7-2.9,2.7h-1.3v-5.3H522z M521.8,360.6h0.2c1.1,0,1.8-0.6,1.8-1.7
		c0-1-0.7-1.7-1.8-1.7h-0.2V360.6z"/>
	<path class="st2" d="M526.5,360.4l-0.4,1.2h-1.1l2-5.3h1.3l2,5.3H529l-0.4-1.2H526.5z M527.5,357.4l-0.7,2h1.4L527.5,357.4z"/>
	<path class="st2" d="M533.3,357.2h-1.3v4.3H531v-4.3h-1.3v-1h3.6V357.2z"/>
	<path class="st2" d="M534.4,360.4l-0.4,1.2h-1.1l2-5.3h1.3l2,5.3H537l-0.4-1.2H534.4z M535.5,357.4l-0.7,2h1.4L535.5,357.4z"/>
</g>
<g class="st1">
	<path class="st2" d="M248.2,111.2h-1.7v5.8h-1.6v-5.8h-1.7v-1.5h5.1V111.2z"/>
	<path class="st2" d="M253.1,111.2h-2.7v1.4h2.4v1.5h-2.4v1.5h2.8v1.5h-4.4v-7.3h4.3V111.2z"/>
	<path class="st2" d="M257.6,111.8c-0.4-0.7-0.6-0.8-1.1-0.8c-0.4,0-0.8,0.3-0.8,0.7c0,0.3,0.2,0.5,0.7,0.6l0.7,0.3
		c1.3,0.5,1.9,1.2,1.9,2.1c0,1.4-1.1,2.4-2.6,2.4c-0.8,0-1.6-0.3-2-0.9c-0.3-0.4-0.5-0.7-0.6-1.4l1.6-0.4l0,0.1l0,0.2
		c0.2,0.6,0.5,0.9,1,0.9c0.5,0,0.9-0.4,0.9-0.9c0-0.3-0.2-0.5-0.9-0.8l-0.6-0.2c-1.1-0.4-1.7-1.1-1.7-2c0-1.3,1.1-2.2,2.5-2.2
		c1,0,1.7,0.4,2.4,1.5L257.6,111.8z"/>
	<path class="st2" d="M264.4,111.2h-1.7v5.8h-1.6v-5.8h-1.7v-1.5h5.1V111.2z"/>
	<path class="st2" d="M269.3,111.2h-2.7v1.4h2.4v1.5h-2.4v1.5h2.8v1.5H265v-7.3h4.3V111.2z"/>
	<path class="st2" d="M272.7,114.4L272.7,114.4L272.7,114.4h-0.2c0,0-0.1,0-0.2,0h-0.2v2.6h-1.6v-7.3h1.8c0.8,0,1.3,0.1,1.7,0.4
		c0.7,0.4,1.2,1.2,1.2,2.1c0,0.8-0.4,1.5-1,1.9l1.7,3h-1.8L272.7,114.4z M272.4,113c0.9,0,1.2-0.3,1.2-0.9c0-0.6-0.4-0.9-1.2-0.9
		h-0.3v1.8H272.4z"/>
	<path class="st2" d="M279.9,111.8c-0.4-0.7-0.6-0.8-1.1-0.8c-0.4,0-0.8,0.3-0.8,0.7c0,0.3,0.2,0.5,0.7,0.6l0.7,0.3
		c1.3,0.5,1.9,1.2,1.9,2.1c0,1.4-1.1,2.4-2.6,2.4c-0.8,0-1.6-0.3-2-0.9c-0.3-0.4-0.5-0.7-0.6-1.4l1.6-0.4l0,0.1l0,0.2
		c0.2,0.6,0.5,0.9,1,0.9c0.5,0,0.9-0.4,0.9-0.9c0-0.3-0.2-0.5-0.9-0.8l-0.6-0.2c-1.1-0.4-1.7-1.1-1.7-2c0-1.3,1.1-2.2,2.5-2.2
		c1,0,1.7,0.4,2.4,1.5L279.9,111.8z"/>
</g>
<g class="st1">
	<path class="st2" d="M244.6,123.6c-0.3-0.4-0.4-0.5-0.7-0.5c-0.3,0-0.6,0.2-0.6,0.5c0,0.2,0.2,0.3,0.5,0.5l0.4,0.2
		c0.8,0.3,1.2,0.7,1.2,1.3c0,0.9-0.7,1.5-1.6,1.5c-0.5,0-1-0.2-1.2-0.6c-0.2-0.2-0.3-0.5-0.4-0.9l0.9-0.2c0.1,0.3,0.1,0.4,0.2,0.5
		c0.1,0.2,0.3,0.3,0.5,0.3c0.4,0,0.7-0.3,0.7-0.6c0-0.2-0.2-0.4-0.6-0.6l-0.4-0.2c-0.7-0.3-1.1-0.7-1.1-1.3c0-0.8,0.7-1.4,1.5-1.4
		c0.6,0,1.1,0.3,1.5,0.9L244.6,123.6z"/>
	<path class="st2" d="M248.8,123.2H247v1h1.5v0.9H247v1.1h1.8v0.9h-2.7v-4.7h2.7V123.2z"/>
	<path class="st2" d="M250.5,122.3v3.8h1.7v0.9h-2.6v-4.7H250.5z"/>
	<path class="st2" d="M255.1,123.2h-1.6v1h1.4v0.9h-1.4v1.9h-0.9v-4.7h2.5V123.2z"/>
	<path class="st2" d="M257.2,125v0.8h-1.6V125H257.2z"/>
	<path class="st2" d="M260.2,123.6c-0.3-0.4-0.4-0.5-0.7-0.5c-0.3,0-0.6,0.2-0.6,0.5c0,0.2,0.2,0.3,0.5,0.5l0.4,0.2
		c0.8,0.3,1.2,0.7,1.2,1.3c0,0.9-0.7,1.5-1.6,1.5c-0.5,0-1-0.2-1.2-0.6c-0.2-0.2-0.3-0.5-0.4-0.9l0.9-0.2c0.1,0.3,0.1,0.4,0.2,0.5
		c0.1,0.2,0.3,0.3,0.5,0.3c0.4,0,0.7-0.3,0.7-0.6c0-0.2-0.2-0.4-0.6-0.6l-0.4-0.2c-0.7-0.3-1.1-0.7-1.1-1.3c0-0.8,0.7-1.4,1.5-1.4
		c0.6,0,1.1,0.3,1.5,0.9L260.2,123.6z"/>
	<path class="st2" d="M264.4,123.2h-1.7v1h1.5v0.9h-1.5v1.1h1.8v0.9h-2.7v-4.7h2.7V123.2z"/>
	<path class="st2" d="M266.5,125.3L266.5,125.3L266.5,125.3l-0.3,0H266v1.7h-0.9v-4.7h1.1c0.5,0,0.8,0.1,1.1,0.2
		c0.4,0.3,0.7,0.7,0.7,1.3c0,0.5-0.2,0.9-0.7,1.2l1.1,2h-1.1L266.5,125.3z M266.3,124.5c0.6,0,0.9-0.2,0.9-0.6
		c0-0.2-0.1-0.4-0.3-0.5c-0.1-0.1-0.3-0.1-0.6-0.1H266v1.3H266.3z"/>
	<path class="st2" d="M270.4,125.7l1.1-3.4h1L271,127h-1.1l-1.6-4.7h1L270.4,125.7z"/>
	<path class="st2" d="M273.9,127h-0.9v-4.7h0.9V127z"/>
	<path class="st2" d="M278.2,123.7c-0.4-0.5-0.7-0.6-1.2-0.6c-0.9,0-1.5,0.7-1.5,1.6c0,0.9,0.7,1.6,1.5,1.6c0.5,0,0.8-0.2,1.2-0.7
		l0.7,0.6c-0.6,0.6-1.2,0.9-1.9,0.9c-1.4,0-2.5-1.1-2.5-2.4c0-1.4,1.1-2.5,2.5-2.5c0.7,0,1.3,0.3,1.9,0.9L278.2,123.7z"/>
	<path class="st2" d="M282.2,123.2h-1.7v1h1.5v0.9h-1.5v1.1h1.8v0.9h-2.7v-4.7h2.7V123.2z"/>
</g>
<g class="st1">
	<path class="st2" d="M241.8,130.7c1.6,0,2.6,0.9,2.6,2.3c0,1.4-1,2.3-2.6,2.3h-1.1v-4.7H241.8z M241.6,134.5h0.2
		c1,0,1.6-0.6,1.6-1.5c0-0.9-0.6-1.5-1.6-1.5h-0.2V134.5z"/>
	<path class="st2" d="M247.7,131.6H246v1h1.5v0.9H246v1.1h1.8v0.9h-2.7v-4.7h2.7V131.6z"/>
	<path class="st2" d="M249.4,135.4h-0.9v-4.7h1.1c0.5,0,0.8,0.1,1,0.2c0.4,0.2,0.7,0.7,0.7,1.3c0,0.5-0.3,1-0.7,1.3
		c-0.3,0.1-0.6,0.2-1,0.2h-0.2V135.4z M249.7,132.9c0.5,0,0.7-0.2,0.7-0.6s-0.2-0.6-0.7-0.6h-0.2v1.3H249.7z"/>
	<path class="st2" d="M252.7,130.7v3.8h1.7v0.9h-2.6v-4.7H252.7z"/>
	<path class="st2" d="M259.4,133.1c0,1.3-1.1,2.4-2.5,2.4c-1.4,0-2.5-1.1-2.5-2.5c0-1.3,1.1-2.4,2.5-2.4
		C258.3,130.6,259.4,131.7,259.4,133.1z M255.4,133.1c0,0.8,0.7,1.5,1.5,1.5c0.8,0,1.5-0.7,1.5-1.6c0-0.9-0.7-1.6-1.5-1.6
		S255.4,132.2,255.4,133.1z"/>
	<path class="st2" d="M259.3,130.7h1l1,1.8l1-1.8h1l-1.6,2.7v1.9h-0.9v-1.9L259.3,130.7z"/>
	<path class="st2" d="M263.7,130.7h0.9l1.5,2.6l1.5-2.6h0.9v4.7h-0.9v-2.8l-1.1,1.9h-0.7l-1.1-1.9v2.8h-0.9V130.7z"/>
	<path class="st2" d="M272,131.6h-1.7v1h1.5v0.9h-1.5v1.1h1.8v0.9h-2.7v-4.7h2.7V131.6z"/>
	<path class="st2" d="M272.7,130.7h0.8l2.3,3v-3h0.9v4.7h-0.8l-2.3-3v3h-0.9V130.7z"/>
	<path class="st2" d="M280.3,131.6h-1.1v3.8h-0.9v-3.8h-1.1v-0.9h3.2V131.6z"/>
	<path class="st2" d="M282.9,132c-0.3-0.4-0.4-0.5-0.7-0.5c-0.3,0-0.6,0.2-0.6,0.5c0,0.2,0.2,0.3,0.5,0.5l0.4,0.2
		c0.8,0.3,1.2,0.7,1.2,1.3c0,0.9-0.7,1.5-1.6,1.5c-0.5,0-1-0.2-1.2-0.6c-0.2-0.2-0.3-0.5-0.4-0.9l0.9-0.2c0.1,0.3,0.1,0.4,0.2,0.5
		c0.1,0.2,0.3,0.3,0.5,0.3c0.4,0,0.7-0.3,0.7-0.6c0-0.2-0.2-0.4-0.6-0.6l-0.4-0.2c-0.7-0.3-1.1-0.7-1.1-1.3c0-0.8,0.7-1.4,1.5-1.4
		c0.6,0,1.1,0.3,1.5,0.9L282.9,132z"/>
</g>
<g class="st1">
	<path class="st2" d="M239.4,295.3c0,2.1-1.8,3.9-3.9,3.9c-2.1,0-3.9-1.8-3.9-3.9c0-2,1.8-3.8,3.9-3.8
		C237.6,291.5,239.4,293.2,239.4,295.3z M233.2,295.4c0,1.2,1,2.3,2.3,2.3c1.3,0,2.3-1.1,2.3-2.3c0-1.3-1-2.3-2.3-2.3
		C234.2,293,233.2,294,233.2,295.4z"/>
	<path class="st2" d="M242,299h-1.6v-7.3h1.8c0.7,0,1.2,0.1,1.6,0.3c0.7,0.4,1.1,1.2,1.1,2.1c0,0.9-0.4,1.7-1.1,2.1
		c-0.4,0.2-0.9,0.3-1.6,0.3H242V299z M242.3,295c0.7,0,1.1-0.3,1.1-0.9c0-0.6-0.3-0.9-1.1-0.9H242v1.8H242.3z"/>
	<path class="st2" d="M250,293.2h-2.7v1.4h2.4v1.5h-2.4v1.5h2.8v1.5h-4.4v-7.3h4.3V293.2z"/>
	<path class="st2" d="M253.3,296.4L253.3,296.4L253.3,296.4h-0.2c0,0-0.1,0-0.2,0h-0.2v2.6h-1.6v-7.3h1.8c0.8,0,1.3,0.1,1.7,0.4
		c0.7,0.4,1.2,1.2,1.2,2.1c0,0.8-0.4,1.5-1,1.9l1.7,3h-1.8L253.3,296.4z M253,295c0.9,0,1.2-0.3,1.2-0.9c0-0.6-0.4-0.9-1.2-0.9h-0.3
		v1.8H253z"/>
	<path class="st2" d="M259.1,297.4l-0.6,1.6h-1.7l2.7-7.3h1.9l2.7,7.3h-1.7l-0.6-1.6H259.1z M260.5,293.4l-0.9,2.5h1.7L260.5,293.4z
		"/>
	<path class="st2" d="M268.6,293.2h-1.7v5.8h-1.6v-5.8h-1.7v-1.5h5.1V293.2z"/>
	<path class="st2" d="M270.8,299h-1.6v-7.3h1.6V299z"/>
	<path class="st2" d="M279.6,295.3c0,2.1-1.8,3.9-3.9,3.9c-2.1,0-3.9-1.8-3.9-3.9c0-2,1.8-3.8,3.9-3.8
		C277.8,291.5,279.6,293.2,279.6,295.3z M273.4,295.4c0,1.2,1,2.3,2.3,2.3c1.3,0,2.3-1.1,2.3-2.3c0-1.3-1-2.3-2.3-2.3
		C274.4,293,273.4,294,273.4,295.4z"/>
	<path class="st2" d="M280.6,291.7h1.4l3.4,4.5v-4.5h1.6v7.3h-1.4l-3.4-4.5v4.5h-1.6V291.7z"/>
	<path class="st2" d="M291.7,293.8c-0.4-0.7-0.6-0.8-1.1-0.8c-0.4,0-0.8,0.3-0.8,0.7c0,0.3,0.2,0.5,0.7,0.6l0.7,0.3
		c1.3,0.5,1.9,1.2,1.9,2.1c0,1.4-1.1,2.4-2.6,2.4c-0.8,0-1.6-0.3-2-0.9c-0.3-0.4-0.5-0.7-0.6-1.4l1.6-0.4l0,0.1l0,0.2
		c0.2,0.6,0.5,0.9,1,0.9c0.5,0,0.9-0.4,0.9-0.9c0-0.3-0.2-0.5-0.9-0.8l-0.6-0.2c-1.1-0.4-1.7-1.1-1.7-2c0-1.3,1.1-2.2,2.5-2.2
		c1,0,1.7,0.4,2.4,1.5L291.7,293.8z"/>
</g>
<g class="st1">
	<path class="st2" d="M249.5,309h-0.9v-4.7h1.1c0.5,0,0.8,0.1,1,0.2c0.4,0.2,0.7,0.7,0.7,1.3c0,0.5-0.3,1-0.7,1.3
		c-0.3,0.1-0.6,0.2-1,0.2h-0.2V309z M249.8,306.5c0.5,0,0.7-0.2,0.7-0.6s-0.2-0.6-0.7-0.6h-0.2v1.3H249.8z"/>
	<path class="st2" d="M254.6,305.2h-1.7v1h1.5v0.9h-1.5v1.1h1.8v0.9h-2.7v-4.7h2.7V305.2z"/>
	<path class="st2" d="M256.7,307.3L256.7,307.3L256.7,307.3l-0.3,0h-0.2v1.7h-0.9v-4.7h1.1c0.5,0,0.8,0.1,1.1,0.2
		c0.4,0.3,0.7,0.7,0.7,1.3c0,0.5-0.2,0.9-0.7,1.2l1.1,2h-1.1L256.7,307.3z M256.5,306.5c0.6,0,0.9-0.2,0.9-0.6
		c0-0.2-0.1-0.4-0.3-0.5c-0.1-0.1-0.3-0.1-0.6-0.1h-0.2v1.3H256.5z"/>
	<path class="st2" d="M261.7,305.2h-1.6v1h1.4v0.9h-1.4v1.9h-0.9v-4.7h2.5V305.2z"/>
	<path class="st2" d="M267,306.7c0,1.3-1.1,2.4-2.5,2.4c-1.4,0-2.5-1.1-2.5-2.5c0-1.3,1.1-2.4,2.5-2.4
		C265.9,304.2,267,305.3,267,306.7z M263,306.7c0,0.8,0.7,1.5,1.5,1.5c0.8,0,1.5-0.7,1.5-1.6c0-0.9-0.7-1.6-1.5-1.6
		C263.7,305.1,263,305.8,263,306.7z"/>
	<path class="st2" d="M269,307.3L269,307.3L269,307.3l-0.3,0h-0.2v1.7h-0.9v-4.7h1.1c0.5,0,0.8,0.1,1.1,0.2c0.4,0.3,0.7,0.7,0.7,1.3
		c0,0.5-0.2,0.9-0.7,1.2l1.1,2H270L269,307.3z M268.8,306.5c0.6,0,0.9-0.2,0.9-0.6c0-0.2-0.1-0.4-0.3-0.5c-0.1-0.1-0.3-0.1-0.6-0.1
		h-0.2v1.3H268.8z"/>
	<path class="st2" d="M271.5,304.3h0.9l1.5,2.6l1.5-2.6h0.9v4.7h-0.9v-2.8l-1.1,1.9h-0.7l-1.1-1.9v2.8h-0.9V304.3z"/>
</g>
<g class="st1">
	<path class="st2" d="M242.5,317.4h-0.9v-4.7h1.1c0.5,0,0.8,0.1,1,0.2c0.4,0.2,0.7,0.7,0.7,1.3c0,0.5-0.3,1-0.7,1.3
		c-0.3,0.1-0.6,0.2-1,0.2h-0.2V317.4z M242.8,314.9c0.5,0,0.7-0.2,0.7-0.6s-0.2-0.6-0.7-0.6h-0.2v1.3H242.8z"/>
	<path class="st2" d="M245.9,315.6c0,0.4,0,0.5,0.1,0.7c0.1,0.2,0.4,0.4,0.7,0.4s0.6-0.2,0.7-0.4c0.1-0.1,0.1-0.3,0.1-0.7v-2.9h0.9
		v3c0,0.4-0.1,0.7-0.2,0.9c-0.3,0.5-0.9,0.8-1.6,0.8c-0.7,0-1.3-0.3-1.6-0.8c-0.1-0.2-0.2-0.5-0.2-0.9v-3h0.9V315.6z"/>
	<path class="st2" d="M251.5,314c-0.3-0.4-0.4-0.5-0.7-0.5c-0.3,0-0.6,0.2-0.6,0.5c0,0.2,0.2,0.3,0.5,0.5l0.4,0.2
		c0.8,0.3,1.2,0.7,1.2,1.3c0,0.9-0.7,1.5-1.6,1.5c-0.5,0-1-0.2-1.2-0.6c-0.2-0.2-0.3-0.5-0.4-0.9l0.9-0.2c0.1,0.3,0.1,0.4,0.2,0.5
		c0.1,0.2,0.3,0.3,0.5,0.3c0.4,0,0.7-0.3,0.7-0.6c0-0.2-0.2-0.4-0.6-0.6l-0.4-0.2c-0.7-0.3-1.1-0.7-1.1-1.3c0-0.8,0.7-1.4,1.5-1.4
		c0.6,0,1.1,0.3,1.5,0.9L251.5,314z"/>
	<path class="st2" d="M254,314.6h1.8v-1.9h0.9v4.7h-0.9v-1.9H254v1.9h-0.9v-4.7h0.9V314.6z"/>
	<path class="st2" d="M259,315.4v0.8h-1.6v-0.8H259z"/>
	<path class="st2" d="M259.6,312.7h1.1c0.5,0,0.8,0.1,1.1,0.2c0.4,0.2,0.6,0.7,0.6,1.1c0,0.3-0.1,0.6-0.4,0.9
		c0.4,0.3,0.6,0.7,0.6,1.1c0,0.5-0.3,0.9-0.7,1.2c-0.3,0.2-0.5,0.2-1,0.2h-1.3V312.7z M260.8,314.6c0.3,0,0.4,0,0.5-0.1
		c0.2-0.1,0.3-0.3,0.3-0.5c0-0.2-0.1-0.3-0.2-0.4c-0.1-0.1-0.3-0.1-0.6-0.1h-0.3v1.1H260.8z M260.9,316.6c0.3,0,0.4,0,0.6-0.1
		c0.2-0.1,0.3-0.3,0.3-0.5c0-0.2-0.1-0.4-0.3-0.5c-0.1-0.1-0.3-0.1-0.6-0.1h-0.3v1.2H260.9z"/>
	<path class="st2" d="M264.3,315.6c0,0.4,0,0.5,0.1,0.7c0.1,0.2,0.4,0.4,0.7,0.4s0.6-0.2,0.7-0.4c0.1-0.1,0.1-0.3,0.1-0.7v-2.9h0.9
		v3c0,0.4-0.1,0.7-0.2,0.9c-0.3,0.5-0.9,0.8-1.6,0.8c-0.7,0-1.3-0.3-1.6-0.8c-0.1-0.2-0.2-0.5-0.2-0.9v-3h0.9V315.6z"/>
	<path class="st2" d="M270.5,313.6h-1.1v3.8h-0.9v-3.8h-1.1v-0.9h3.2V313.6z"/>
	<path class="st2" d="M273.8,313.6h-1.1v3.8h-0.9v-3.8h-1.1v-0.9h3.2V313.6z"/>
	<path class="st2" d="M278.8,315.1c0,1.3-1.1,2.4-2.5,2.4c-1.4,0-2.5-1.1-2.5-2.5c0-1.3,1.1-2.4,2.5-2.4
		C277.7,312.6,278.8,313.7,278.8,315.1z M274.8,315.1c0,0.8,0.7,1.5,1.5,1.5c0.8,0,1.5-0.7,1.5-1.6c0-0.9-0.7-1.6-1.5-1.6
		C275.4,313.5,274.8,314.2,274.8,315.1z"/>
	<path class="st2" d="M279.4,312.7h0.8l2.3,3v-3h0.9v4.7h-0.8l-2.3-3v3h-0.9V312.7z"/>
</g>
<g class="st1">
	<path class="st2" d="M249.8,324.1L249.8,324.1L249.8,324.1l-0.3,0h-0.2v1.7h-0.9v-4.7h1.1c0.5,0,0.8,0.1,1.1,0.2
		c0.4,0.3,0.7,0.7,0.7,1.3c0,0.5-0.2,0.9-0.7,1.2l1.1,2h-1.1L249.8,324.1z M249.6,323.3c0.6,0,0.9-0.2,0.9-0.6
		c0-0.2-0.1-0.4-0.3-0.5c-0.1-0.1-0.3-0.1-0.6-0.1h-0.2v1.3H249.6z"/>
	<path class="st2" d="M254.9,322h-1.7v1h1.5v0.9h-1.5v1.1h1.8v0.9h-2.7v-4.7h2.7V322z"/>
	<path class="st2" d="M256.6,321.1v3.8h1.7v0.9h-2.6v-4.7H256.6z"/>
	<path class="st2" d="M261.5,322h-1.7v1h1.5v0.9h-1.5v1.1h1.8v0.9h-2.7v-4.7h2.7V322z"/>
	<path class="st2" d="M263.2,324.7l-0.4,1.1h-1l1.7-4.7h1.1l1.7,4.7h-1l-0.4-1.1H263.2z M264.1,322.1l-0.6,1.7h1.2L264.1,322.1z"/>
	<path class="st2" d="M268.9,322.4c-0.3-0.4-0.4-0.5-0.7-0.5c-0.3,0-0.6,0.2-0.6,0.5c0,0.2,0.2,0.3,0.5,0.5l0.4,0.2
		c0.8,0.3,1.2,0.7,1.2,1.3c0,0.9-0.7,1.5-1.6,1.5c-0.5,0-1-0.2-1.2-0.6c-0.2-0.2-0.3-0.5-0.4-0.9l0.9-0.2c0.1,0.3,0.1,0.4,0.2,0.5
		c0.1,0.2,0.3,0.3,0.5,0.3c0.4,0,0.7-0.3,0.7-0.6c0-0.2-0.2-0.4-0.6-0.6l-0.4-0.2c-0.7-0.3-1.1-0.7-1.1-1.3c0-0.8,0.7-1.4,1.5-1.4
		c0.6,0,1.1,0.3,1.5,0.9L268.9,322.4z"/>
	<path class="st2" d="M273.1,322h-1.7v1h1.5v0.9h-1.5v1.1h1.8v0.9h-2.7v-4.7h2.7V322z"/>
	<path class="st2" d="M276,322.4c-0.3-0.4-0.4-0.5-0.7-0.5c-0.3,0-0.6,0.2-0.6,0.5c0,0.2,0.2,0.3,0.5,0.5l0.4,0.2
		c0.8,0.3,1.2,0.7,1.2,1.3c0,0.9-0.7,1.5-1.6,1.5c-0.5,0-1-0.2-1.2-0.6c-0.2-0.2-0.3-0.5-0.4-0.9l0.9-0.2c0.1,0.3,0.1,0.4,0.2,0.5
		c0.1,0.2,0.3,0.3,0.5,0.3c0.4,0,0.7-0.3,0.7-0.6c0-0.2-0.2-0.4-0.6-0.6l-0.4-0.2c-0.7-0.3-1.1-0.7-1.1-1.3c0-0.8,0.7-1.4,1.5-1.4
		c0.6,0,1.1,0.3,1.5,0.9L276,322.4z"/>
</g>
<g>
	<g class="st1">
		<path class="st2" d="M400.4,36.3h-2.2v1.3h2v1.1h-2V40h2.3v1.1H397v-6h3.4V36.3z"/>
		<path class="st2" d="M401.4,35.1h1l3,3.9v-3.9h1.2v6h-1l-3-3.9v3.9h-1.2V35.1z"/>
		<path class="st2" d="M409.8,39.5l1.4-4.3h1.3l-2,6h-1.4l-2-6h1.3L409.8,39.5z"/>
		<path class="st2" d="M414.2,41.2H413v-6h1.2V41.2z"/>
		<path class="st2" d="M417.1,39L417.1,39L417.1,39l-0.3,0h-0.2v2.2h-1.2v-6h1.4c0.6,0,1.1,0.1,1.4,0.3c0.6,0.3,0.9,1,0.9,1.6
			c0,0.6-0.3,1.2-0.8,1.6l1.4,2.5h-1.3L417.1,39z M416.9,37.9c0.8,0,1.1-0.3,1.1-0.8c0-0.3-0.1-0.6-0.4-0.7
			c-0.2-0.1-0.4-0.1-0.7-0.1h-0.3v1.6H416.9z"/>
		<path class="st2" d="M426.2,38.2c0,1.7-1.4,3.1-3.2,3.1c-1.8,0-3.2-1.4-3.2-3.2c0-1.7,1.5-3.1,3.2-3.1
			C424.8,35,426.2,36.4,426.2,38.2z M421.1,38.2c0,1.1,0.9,2,2,2c1.1,0,2-0.9,2-2c0-1.1-0.9-2-2-2C422,36.1,421.1,37,421.1,38.2z"/>
		<path class="st2" d="M427.1,35.1h1l3,3.9v-3.9h1.2v6h-1l-3-3.9v3.9h-1.2V35.1z"/>
		<path class="st2" d="M433.5,35.1h1.1l1.9,3.3l1.9-3.3h1.1v6h-1.2v-3.6l-1.4,2.4H436l-1.4-2.4v3.6h-1.2V35.1z"/>
		<path class="st2" d="M444.1,36.3h-2.2v1.3h2v1.1h-2V40h2.3v1.1h-3.5v-6h3.4V36.3z"/>
		<path class="st2" d="M445.1,35.1h1l3,3.9v-3.9h1.2v6h-1l-3-3.9v3.9h-1.2V35.1z"/>
		<path class="st2" d="M454.9,36.3h-1.4v4.9h-1.2v-4.9h-1.4v-1.1h4.1V36.3z"/>
	</g>
	<g class="st1">
		<path class="st2" d="M402.4,49c0.1-0.2,0.1-0.3,0.3-0.7l1.1,0.3l-0.1,0.1c-0.2,0.5-0.3,0.9-0.5,1.3l1.1,1.2h-1.5l-0.3-0.4
			c-0.5,0.4-1,0.5-1.6,0.5c-1.2,0-2.1-0.8-2.1-1.8c0-0.7,0.3-1.1,1.2-1.7c-0.4-0.6-0.6-0.9-0.6-1.3c0-0.8,0.6-1.5,1.5-1.5
			c0.8,0,1.5,0.6,1.5,1.4c0,0.5-0.3,0.9-0.9,1.4L402.4,49z M400.5,48.5c-0.5,0.4-0.6,0.6-0.6,0.9c0,0.5,0.4,0.8,0.9,0.8
			c0.3,0,0.6-0.1,0.8-0.3L400.5,48.5z M401.3,46.4c0-0.3-0.2-0.4-0.5-0.4s-0.5,0.2-0.5,0.5c0,0.2,0.1,0.4,0.4,0.7
			C401.2,46.8,401.3,46.6,401.3,46.4z"/>
		<path class="st2" d="M408.1,49.8l-0.5,1.4h-1.3l2.2-6h1.4l2.2,6h-1.3l-0.5-1.4H408.1z M409.2,46.4l-0.8,2.2h1.6L409.2,46.4z"/>
		<path class="st2" d="M413.9,51.2h-1.2v-6h1.4c0.6,0,1,0.1,1.3,0.3c0.6,0.3,0.9,0.9,0.9,1.6c0,0.7-0.3,1.3-0.9,1.6
			c-0.3,0.2-0.7,0.3-1.3,0.3h-0.2V51.2z M414.2,47.9c0.7,0,1-0.3,1-0.8c0-0.6-0.3-0.8-1-0.8h-0.3v1.6H414.2z"/>
		<path class="st2" d="M418.2,51.2H417v-6h1.4c0.6,0,1,0.1,1.3,0.3c0.6,0.3,0.9,0.9,0.9,1.6c0,0.7-0.3,1.3-0.9,1.6
			c-0.3,0.2-0.7,0.3-1.3,0.3h-0.2V51.2z M418.5,47.9c0.7,0,1-0.3,1-0.8c0-0.6-0.3-0.8-1-0.8h-0.3v1.6H418.5z"/>
		<path class="st2" d="M427.7,47c-0.6-0.6-1-0.8-1.6-0.8c-1.1,0-2,0.9-2,2c0,1.1,0.9,2,2,2c0.6,0,1-0.2,1.6-0.8l0.9,0.8
			c-0.8,0.8-1.5,1.2-2.4,1.2c-1.8,0-3.2-1.4-3.2-3.1c0-1.7,1.4-3.2,3.2-3.2c0.9,0,1.6,0.3,2.4,1.1L427.7,47z"/>
		<path class="st2" d="M435.2,48.2c0,1.7-1.4,3.1-3.2,3.1c-1.8,0-3.2-1.4-3.2-3.2c0-1.7,1.5-3.1,3.2-3.1
			C433.7,45,435.2,46.4,435.2,48.2z M430,48.2c0,1.1,0.9,2,2,2c1.1,0,2-0.9,2-2c0-1.1-0.9-2-2-2C430.9,46.1,430,47,430,48.2z"/>
		<path class="st2" d="M436,45.1h1l3,3.9v-3.9h1.2v6h-1l-3-3.9v3.9H436V45.1z"/>
		<path class="st2" d="M445.6,46.3h-2v1.3h1.9v1.1h-1.9v2.5h-1.2v-6h3.2V46.3z"/>
		<path class="st2" d="M447.7,51.2h-1.2v-6h1.2V51.2z"/>
		<path class="st2" d="M454.5,47.8v0.6c0,1.8-1.1,2.9-2.8,2.9c-1.8,0-3.2-1.4-3.2-3.1c0-1.8,1.4-3.2,3.2-3.2c0.9,0,1.6,0.3,2.4,1.1
			l-0.8,0.8c-0.6-0.6-1-0.8-1.6-0.8c-1.1,0-2,0.9-2,2s0.9,2,2,2c0.5,0,0.9-0.2,1.2-0.5c0.2-0.2,0.3-0.4,0.4-0.8h-1.6v-1.1H454.5z"/>
	</g>
</g>
<g>
	<g>
		<line class="st5" x1="85" y1="162" x2="85.5" y2="54"/>
		<g>
			<polygon class="st2" points="91,160.3 85,170.6 79,160.2 			"/>
		</g>
	</g>
</g>
<g>
	<g>
		<line class="st5" x1="85" y1="358.3" x2="85.5" y2="260"/>
		<g>
			<polygon class="st2" points="91,356.6 85,366.9 79,356.5 			"/>
		</g>
	</g>
</g>
<g>
	<g>
		<line class="st5" x1="203" y1="368.3" x2="203.5" y2="268"/>
		<g>
			<polygon class="st2" points="209.5,269.8 203.5,259.4 197.5,269.7 			"/>
		</g>
	</g>
</g>
<g>
	<g>
		<line class="st5" x1="215.5" y1="260.7" x2="215" y2="359"/>
		<g>
			<polygon class="st2" points="209,357.2 215,367.6 221,357.3 			"/>
		</g>
	</g>
</g>
<g>
	<g>
		<line class="st5" x1="221" y1="162.3" x2="221.5" y2="54"/>
		<g>
			<polygon class="st2" points="227,160.6 221,170.9 215,160.5 			"/>
		</g>
	</g>
</g>
<g>
	<g>
		<polyline class="st5" points="330.8,90.4 318,90.4 318,367 		"/>
		<g>
			<polygon class="st2" points="329.5,85.9 337.3,90.4 329.5,94.9 			"/>
		</g>
	</g>
</g>
<polyline class="st5" points="457,90.4 491.5,90.4 491.5,359.5 "/>
<g>
	<g>
		<polygon class="st2" points="487,358.2 491.5,366 496,358.2 		"/>
	</g>
</g>
<g>
	<g>
		<line class="st5" x1="330.8" y1="186.4" x2="318" y2="186.4"/>
		<g>
			<polygon class="st2" points="329.5,181.9 337.3,186.4 329.5,190.9 			"/>
		</g>
	</g>
</g>
<g>
	<g>
		<line class="st5" x1="485" y1="186.4" x2="457" y2="186.4"/>
		<g>
			<polygon class="st2" points="483.7,181.9 491.5,186.4 483.7,190.9 			"/>
		</g>
	</g>
</g>
<g>
	<g>
		<line class="st5" x1="485" y1="291.4" x2="457" y2="291.4"/>
		<g>
			<polygon class="st2" points="483.7,286.9 491.5,291.4 483.7,295.9 			"/>
		</g>
	</g>
</g>
<g>
	<g>
		<line class="st5" x1="330.8" y1="288.4" x2="318" y2="288.4"/>
		<g>
			<g>
				<polygon class="st2" points="329.5,283.9 337.3,288.4 329.5,292.9 				"/>
			</g>
		</g>
	</g>
</g>
<g>
	<g>
		<polyline class="st5" points="463.5,319 476.3,319 476.3,54 		"/>
		<g>
			<g>
				<polygon class="st2" points="464.8,323.5 457,319 464.8,314.5 				"/>
			</g>
		</g>
	</g>
</g>
<g>
	<g>
		<line class="st5" x1="463.5" y1="223" x2="476.3" y2="223"/>
		<g>
			<polygon class="st2" points="464.8,227.5 457,223 464.8,218.5 			"/>
		</g>
	</g>
</g>
<g>
	<g>
		<line class="st5" x1="463.5" y1="121" x2="476.3" y2="121"/>
		<g>
			<polygon class="st2" points="464.8,125.5 457,121 464.8,116.5 			"/>
		</g>
	</g>
</g>
<g>
	<path class="st6" d="M486.8,31.8v22.8c-0.1,2.1-5,3.7-11.1,3.7s-11-1.7-11.1-3.7V31.8c0.1-2.1,5-3.7,11.1-3.7
		C481.8,28,486.7,29.7,486.8,31.8"/>
	<path class="st7" d="M486.8,31.8v22.8c-0.1,2.1-5,3.7-11.1,3.7s-11-1.7-11.1-3.7V31.8c0.1-2.1,5-3.7,11.1-3.7
		C481.8,28,486.7,29.7,486.8,31.8z"/>
	<path class="st7" d="M486.8,31.8c0,2.1-5,3.8-11.1,3.8s-11.1-1.7-11.1-3.8"/>
	<path class="st7" d="M486.8,39.4c0,2.1-5,3.8-11.1,3.8s-11.1-1.7-11.1-3.8"/>
	<path class="st7" d="M486.8,46.9c0,2.1-5,3.8-11.1,3.8s-11.1-1.7-11.1-3.8"/>
	<rect x="464" y="27.3" class="st8" width="23.5" height="31.7"/>
</g>
<g>
	<path class="st6" d="M232.8,31.8v22.8c-0.1,2.1-5,3.7-11.1,3.7s-11-1.7-11.1-3.7V31.8c0.1-2.1,5-3.7,11.1-3.7
		C227.8,28,232.7,29.7,232.8,31.8"/>
	<path class="st7" d="M232.8,31.8v22.8c-0.1,2.1-5,3.7-11.1,3.7s-11-1.7-11.1-3.7V31.8c0.1-2.1,5-3.7,11.1-3.7
		C227.8,28,232.7,29.7,232.8,31.8z"/>
	<path class="st7" d="M232.8,31.8c0,2.1-5,3.8-11.1,3.8s-11.1-1.7-11.1-3.8"/>
	<path class="st7" d="M232.8,39.4c0,2.1-5,3.8-11.1,3.8s-11.1-1.7-11.1-3.8"/>
	<path class="st7" d="M232.8,46.9c0,2.1-5,3.8-11.1,3.8s-11.1-1.7-11.1-3.8"/>
	<rect x="210" y="27.3" class="st8" width="23.5" height="31.7"/>
</g>
<g>
	<path class="st9" d="M96.8,31.8v22.8c-0.1,2.1-5,3.7-11.1,3.7s-11-1.7-11.1-3.7V31.8c0.1-2.1,5-3.7,11.1-3.7
		C91.8,28,96.7,29.7,96.8,31.8"/>
	<path class="st7" d="M96.8,31.8v22.8c-0.1,2.1-5,3.7-11.1,3.7s-11-1.7-11.1-3.7V31.8c0.1-2.1,5-3.7,11.1-3.7
		C91.8,28,96.7,29.7,96.8,31.8z"/>
	<path class="st7" d="M96.8,31.8c0,2.1-5,3.8-11.1,3.8s-11.1-1.7-11.1-3.8"/>
	<path class="st7" d="M96.8,39.4c0,2.1-5,3.8-11.1,3.8s-11.1-1.7-11.1-3.8"/>
	<path class="st7" d="M96.8,46.9c0,2.1-5,3.8-11.1,3.8S74.6,49,74.6,46.9"/>
	<rect x="74" y="27.3" class="st8" width="23.5" height="31.7"/>
</g>
<g>
	<g>
		<line class="st10" x1="158" y1="215" x2="139.3" y2="215"/>
		<g>
			<polygon class="st11" points="154.7,203.8 174.1,215 154.7,226.3 			"/>
		</g>
	</g>
</g>
<g>
	<g>
		<line class="st10" x1="322.6" y1="308" x2="303.7" y2="308"/>
		<g>
			<polygon class="st11" points="320,299 335.5,308 320,317 			"/>
		</g>
	</g>
</g>
<g>
	<g>
		<line class="st10" x1="322.6" y1="214.6" x2="296.2" y2="214.6"/>
		<g>
			<polygon class="st11" points="320,205.6 335.5,214.6 320,223.6 			"/>
		</g>
	</g>
</g>
<g>
	<g>
		<line class="st10" x1="265.7" y1="156.7" x2="265.7" y2="170.4"/>
		<g>
			<polygon class="st11" points="254.4,160 265.7,140.6 276.9,160 			"/>
		</g>
	</g>
</g>
<g>
	<g>
		<line class="st10" x1="265.7" y1="272.4" x2="265.7" y2="258.7"/>
		<g>
			<polygon class="st11" points="276.9,269.1 265.7,288.5 254.4,269.1 			"/>
		</g>
	</g>
</g>
<path class="st0" d="M285.4,257.2h-102c-5,0-9-4-9-9v-67c0-5,4-9,9-9h102c5,0,9,4,9,9v67C294.4,253.2,290.3,257.2,285.4,257.2z"/>
<g class="st1">
	<path class="st2" d="M185.9,205.1c-0.6-0.6-1-0.8-1.7-0.8c-1.2,0-2.2,1-2.2,2.3c0,1.3,1,2.2,2.2,2.2c0.5,0,0.9-0.2,1.3-0.5
		c0.1-0.1,0.2-0.2,0.4-0.4l0.7,0.6c-0.8,0.8-1.4,1.1-2.3,1.1c-1.8,0-3.2-1.4-3.2-3.1s1.4-3.1,3.1-3.1c0.9,0,1.6,0.3,2.3,1.1
		L185.9,205.1z"/>
	<path class="st2" d="M193.2,206.5c0,1.7-1.4,3.1-3.1,3.1c-1.7,0-3.1-1.4-3.1-3.2c0-1.7,1.4-3.1,3.1-3.1
		C191.8,203.4,193.2,204.8,193.2,206.5z M187.9,206.6c0,1.2,1,2.2,2.2,2.2c1.2,0,2.2-1,2.2-2.2c0-1.3-1-2.3-2.2-2.3
		C188.9,204.3,187.9,205.3,187.9,206.6z"/>
	<path class="st2" d="M194.2,203.5h0.8l3.3,4.4v-4.4h0.9v6h-0.8l-3.3-4.4v4.4h-0.9V203.5z"/>
	<path class="st2" d="M201.5,204.4v1.7h1.9v0.9h-1.9v2.6h-0.9v-6h3.1v0.9H201.5z"/>
	<path class="st2" d="M205.5,209.5h-0.9v-6h0.9V209.5z"/>
	<path class="st2" d="M212.3,206.3v0.5c0,1.7-1.1,2.9-2.7,2.9c-1.8,0-3.2-1.4-3.2-3.1s1.4-3.1,3.1-3.1c0.7,0,1.4,0.2,1.9,0.7
		c0.1,0.1,0.2,0.2,0.4,0.4l-0.6,0.6c-0.6-0.6-1-0.8-1.7-0.8c-1.2,0-2.2,1-2.2,2.3c0,1.3,1,2.2,2.2,2.2c0.6,0,1.1-0.2,1.4-0.6
		c0.2-0.3,0.3-0.5,0.4-1h-1.7v-0.9H212.3z"/>
	<path class="st2" d="M214.3,203.5v3.7c0,0.5,0,0.8,0.2,1c0.2,0.3,0.7,0.6,1.1,0.6c0.5,0,0.9-0.2,1.1-0.6c0.1-0.2,0.2-0.4,0.2-1
		v-3.7h0.9v3.9c0,0.5-0.1,0.9-0.3,1.2c-0.4,0.6-1.1,1.1-1.9,1.1c-0.8,0-1.6-0.4-2-1.1c-0.2-0.3-0.3-0.7-0.3-1.2v-3.9H214.3z"/>
	<path class="st2" d="M223.2,209.5h-1.1l-1.3-2.3c-0.2,0-0.3,0-0.4,0H220v2.3h-0.9v-6h1.3c0.6,0,1,0.1,1.4,0.3
		c0.5,0.3,0.9,0.9,0.9,1.6c0,0.7-0.4,1.3-0.9,1.6L223.2,209.5z M220.5,206.3c0.4,0,0.6,0,0.9-0.2c0.3-0.2,0.4-0.5,0.4-0.8
		c0-0.4-0.2-0.7-0.4-0.8c-0.2-0.1-0.5-0.2-0.8-0.2H220v2H220.5z"/>
	<path class="st2" d="M224.9,204.4v1.7h2.1v0.9h-2.1v1.7h2.4v0.9H224v-6h3.3v0.9H224.9z"/>
	<path class="st2" d="M231.4,204.4v1.7h2.1v0.9h-2.1v1.7h2.4v0.9h-3.3v-6h3.3v0.9H231.4z"/>
	<path class="st2" d="M234.8,203.5h0.8l3.3,4.4v-4.4h0.9v6H239l-3.3-4.4v4.4h-0.9V203.5z"/>
	<path class="st2" d="M241.5,203.5l1.6,4.7l1.6-4.7h1l-2,6h-1.1l-2-6H241.5z"/>
	<path class="st2" d="M247.2,209.5h-0.9v-6h0.9V209.5z"/>
	<path class="st2" d="M252.6,209.5h-1.1l-1.3-2.3c-0.2,0-0.3,0-0.4,0h-0.4v2.3h-0.9v-6h1.3c0.6,0,1,0.1,1.4,0.3
		c0.5,0.3,0.9,0.9,0.9,1.6c0,0.7-0.4,1.3-0.9,1.6L252.6,209.5z M249.9,206.3c0.4,0,0.6,0,0.9-0.2c0.3-0.2,0.4-0.5,0.4-0.8
		c0-0.4-0.2-0.7-0.4-0.8c-0.2-0.1-0.5-0.2-0.8-0.2h-0.5v2H249.9z"/>
	<path class="st2" d="M259.2,206.5c0,1.7-1.4,3.1-3.1,3.1c-1.7,0-3.1-1.4-3.1-3.2c0-1.7,1.4-3.1,3.1-3.1
		C257.8,203.4,259.2,204.8,259.2,206.5z M253.9,206.6c0,1.2,1,2.2,2.2,2.2c1.2,0,2.2-1,2.2-2.2c0-1.3-1-2.3-2.2-2.3
		C254.8,204.3,253.9,205.3,253.9,206.6z"/>
	<path class="st2" d="M260.1,203.5h0.8l3.3,4.4v-4.4h0.9v6h-0.8l-3.3-4.4v4.4h-0.9V203.5z"/>
	<path class="st2" d="M266.5,203.5h0.9l2.1,3.7l2.1-3.7h0.9v6h-0.9v-4.2l-1.7,3h-0.7l-1.7-3v4.2h-0.9V203.5z"/>
	<path class="st2" d="M274.7,204.4v1.7h2.1v0.9h-2.1v1.7h2.4v0.9h-3.3v-6h3.3v0.9H274.7z"/>
	<path class="st2" d="M278.1,203.5h0.8l3.3,4.4v-4.4h0.9v6h-0.8l-3.3-4.4v4.4h-0.9V203.5z"/>
	<path class="st2" d="M286.2,204.4v5.1h-0.9v-5.1h-1.5v-0.9h3.9v0.9H286.2z"/>
</g>
<g class="st1">
	<path class="st2" d="M203.1,214.3c2,0,3.3,1.2,3.3,3s-1.3,3-3.3,3h-1.3v-6H203.1z M202.7,219.5h0.4c1.4,0,2.3-0.8,2.3-2.1
		c0-1.3-0.9-2.1-2.3-2.1h-0.4V219.5z"/>
	<path class="st2" d="M208.3,215.2v1.7h2.1v0.9h-2.1v1.7h2.4v0.9h-3.3v-6h3.3v0.9H208.3z"/>
	<path class="st2" d="M213.1,214.3c0.6,0,1,0.1,1.3,0.3c0.5,0.3,0.9,0.9,0.9,1.6c0,0.7-0.3,1.3-0.9,1.6c-0.3,0.2-0.7,0.3-1.3,0.3
		h-0.4v2.3h-0.9v-6H213.1z M213.1,217.1c0.4,0,0.7-0.1,0.9-0.3c0.1-0.2,0.2-0.4,0.2-0.7c0-0.4-0.2-0.7-0.4-0.8
		c-0.2-0.1-0.4-0.1-0.7-0.1h-0.5v2H213.1z"/>
	<path class="st2" d="M216.9,219.5h2.2v0.9H216v-6h0.9V219.5z"/>
	<path class="st2" d="M225.5,217.3c0,1.7-1.4,3.1-3.1,3.1c-1.7,0-3.1-1.4-3.1-3.2c0-1.7,1.4-3.1,3.1-3.1
		C224.1,214.2,225.5,215.6,225.5,217.3z M220.2,217.4c0,1.2,1,2.2,2.2,2.2c1.2,0,2.2-1,2.2-2.2c0-1.3-1-2.3-2.2-2.3
		C221.1,215.1,220.2,216.1,220.2,217.4z"/>
	<path class="st2" d="M228.3,217.8v2.5h-0.9v-2.5l-2-3.5h1l1.4,2.6l1.4-2.6h1L228.3,217.8z"/>
	<path class="st2" d="M233,214.3h1.3c0.6,0,1,0.1,1.3,0.3c0.5,0.3,0.8,0.8,0.8,1.4c0,0.5-0.2,0.8-0.6,1.2c0.5,0.3,0.9,0.8,0.9,1.5
		c0,0.6-0.3,1.2-0.9,1.5c-0.3,0.2-0.7,0.3-1.2,0.3H233V214.3z M234.5,216.8c0.4,0,0.5,0,0.7-0.1c0.3-0.1,0.4-0.4,0.4-0.7
		c0-0.2-0.1-0.5-0.2-0.6c-0.1-0.1-0.5-0.2-0.9-0.2h-0.5v1.7H234.5z M234.6,219.5c0.4,0,0.6,0,0.8-0.1c0.3-0.2,0.4-0.4,0.4-0.8
		c0-0.3-0.2-0.6-0.4-0.7c-0.2-0.1-0.5-0.2-0.9-0.2h-0.6v1.8H234.6z"/>
	<path class="st2" d="M238.7,220.3h-0.9v-6h0.9V220.3z"/>
	<path class="st2" d="M240,214.3h0.8l3.3,4.4v-4.4h0.9v6h-0.8l-3.3-4.4v4.4H240V214.3z"/>
	<path class="st2" d="M246.7,220.3h-1l2.3-6h1.2l2.3,6h-1l-0.6-1.5h-2.6L246.7,220.3z M249.5,217.9l-1-2.6l-1,2.6H249.5z"/>
	<path class="st2" d="M256.1,220.3h-1.1l-1.3-2.3c-0.2,0-0.3,0-0.4,0H253v2.3H252v-6h1.3c0.6,0,1,0.1,1.4,0.3
		c0.5,0.3,0.9,0.9,0.9,1.6c0,0.7-0.4,1.3-0.9,1.6L256.1,220.3z M253.4,217.1c0.4,0,0.6,0,0.9-0.2c0.3-0.2,0.4-0.5,0.4-0.8
		c0-0.4-0.2-0.7-0.4-0.8c-0.2-0.1-0.5-0.2-0.8-0.2H253v2H253.4z"/>
	<path class="st2" d="M257.9,220.3H257v-6h0.9V220.3z"/>
	<path class="st2" d="M260.1,215.2v1.7h2.1v0.9h-2.1v1.7h2.4v0.9h-3.3v-6h3.3v0.9H260.1z"/>
	<path class="st2" d="M266.2,215.8c-0.4-0.5-0.6-0.7-1-0.7c-0.5,0-0.9,0.4-0.9,0.8c0,0.3,0.2,0.6,0.8,0.8l0.6,0.2
		c1,0.4,1.4,0.9,1.4,1.7c0,1.1-0.9,1.9-2,1.9c-0.6,0-1.2-0.3-1.5-0.7c-0.2-0.3-0.3-0.5-0.4-1l0.9-0.2l0,0.1c0.2,0.6,0.5,1,1,1
		c0.6,0,1-0.4,1-1c0-0.4-0.2-0.6-0.9-0.9l-0.5-0.2c-0.9-0.3-1.3-0.9-1.3-1.6c0-1,0.8-1.7,1.9-1.7c0.8,0,1.3,0.3,1.8,1.1L266.2,215.8
		z"/>
</g>
<g class="st1">
	<path class="st2" d="M214.1,226.6c-0.4-0.5-0.6-0.7-1-0.7c-0.5,0-0.9,0.4-0.9,0.8c0,0.3,0.2,0.6,0.8,0.8l0.6,0.2
		c1,0.4,1.4,0.9,1.4,1.7c0,1.1-0.9,1.9-2,1.9c-0.6,0-1.2-0.3-1.5-0.7c-0.2-0.3-0.3-0.5-0.4-1l0.9-0.2l0,0.1c0.2,0.6,0.5,1,1,1
		c0.6,0,1-0.4,1-1c0-0.4-0.2-0.6-0.9-0.9l-0.5-0.2c-0.9-0.3-1.3-0.9-1.3-1.6c0-1,0.8-1.7,1.9-1.7c0.8,0,1.3,0.3,1.8,1.1L214.1,226.6
		z"/>
	<path class="st2" d="M215.9,225.1h0.9l2.1,3.7l2.1-3.7h0.9v6h-0.9v-4.2l-1.7,3h-0.7l-1.7-3v4.2h-0.9V225.1z"/>
	<path class="st2" d="M229.1,228.1c0,1.7-1.4,3.1-3.1,3.1c-1.7,0-3.1-1.4-3.1-3.2c0-1.7,1.4-3.1,3.1-3.1
		C227.7,225,229.1,226.4,229.1,228.1z M223.8,228.2c0,1.2,1,2.2,2.2,2.2c1.2,0,2.2-1,2.2-2.2c0-1.3-1-2.3-2.2-2.3
		C224.7,225.9,223.8,226.9,223.8,228.2z"/>
	<path class="st2" d="M234.6,231.1h-1.1l-1.9-2.8l-0.7,0.7v2H230v-6h0.9v2.7l2.5-2.7h1.2l-2.3,2.5L234.6,231.1z"/>
	<path class="st2" d="M236.2,226v1.7h2.1v0.9h-2.1v1.7h2.4v0.9h-3.3v-6h3.3v0.9H236.2z"/>
	<path class="st2" d="M243.5,226v5.1h-0.9V226h-1.5v-0.9h3.9v0.9H243.5z"/>
	<path class="st2" d="M246.6,226v1.7h2.1v0.9h-2.1v1.7h2.4v0.9h-3.3v-6h3.3v0.9H246.6z"/>
	<path class="st2" d="M252.6,226.6c-0.4-0.5-0.6-0.7-1-0.7c-0.5,0-0.9,0.4-0.9,0.8c0,0.3,0.2,0.6,0.8,0.8l0.6,0.2
		c1,0.4,1.4,0.9,1.4,1.7c0,1.1-0.9,1.9-2,1.9c-0.6,0-1.2-0.3-1.5-0.7c-0.2-0.3-0.3-0.5-0.4-1l0.9-0.2l0,0.1c0.2,0.6,0.5,1,1,1
		c0.6,0,1-0.4,1-1c0-0.4-0.2-0.6-0.9-0.9l-0.5-0.2c-0.9-0.3-1.3-0.9-1.3-1.6c0-1,0.8-1.7,1.9-1.7c0.8,0,1.3,0.3,1.8,1.1L252.6,226.6
		z"/>
	<path class="st2" d="M256.4,226v5.1h-0.9V226h-1.5v-0.9h3.9v0.9H256.4z"/>
</g>
<g class="st1">
	<path class="st2" d="M197.8,241.9h-1l2.3-6h1.2l2.3,6h-1l-0.6-1.5h-2.6L197.8,241.9z M200.6,239.5l-1-2.6l-1,2.6H200.6z"/>
	<path class="st2" d="M207.4,237.5c-0.6-0.6-1-0.8-1.7-0.8c-1.2,0-2.2,1-2.2,2.3c0,1.3,1,2.2,2.2,2.2c0.5,0,0.9-0.2,1.3-0.5
		c0.1-0.1,0.2-0.2,0.4-0.4l0.7,0.6c-0.8,0.8-1.4,1.1-2.3,1.1c-1.8,0-3.2-1.4-3.2-3.1s1.4-3.1,3.1-3.1c0.9,0,1.6,0.3,2.3,1.1
		L207.4,237.5z"/>
	<path class="st2" d="M213.3,237.5c-0.6-0.6-1-0.8-1.7-0.8c-1.2,0-2.2,1-2.2,2.3c0,1.3,1,2.2,2.2,2.2c0.5,0,0.9-0.2,1.3-0.5
		c0.1-0.1,0.2-0.2,0.4-0.4l0.7,0.6c-0.8,0.8-1.4,1.1-2.3,1.1c-1.8,0-3.2-1.4-3.2-3.1s1.4-3.1,3.1-3.1c0.9,0,1.6,0.3,2.3,1.1
		L213.3,237.5z"/>
	<path class="st2" d="M215.8,236.8v1.7h2.1v0.9h-2.1v1.7h2.4v0.9h-3.3v-6h3.3v0.9H215.8z"/>
	<path class="st2" d="M220.5,235.9c0.6,0,1,0.1,1.3,0.3c0.5,0.3,0.9,0.9,0.9,1.6c0,0.7-0.3,1.3-0.9,1.6c-0.3,0.2-0.7,0.3-1.3,0.3
		h-0.4v2.3h-0.9v-6H220.5z M220.6,238.8c0.4,0,0.7-0.1,0.9-0.3c0.1-0.2,0.2-0.4,0.2-0.7c0-0.4-0.2-0.7-0.4-0.8
		c-0.2-0.1-0.4-0.1-0.7-0.1h-0.5v2H220.6z"/>
	<path class="st2" d="M225.3,236.8v5.1h-0.9v-5.1h-1.5v-0.9h3.9v0.9H225.3z"/>
	<path class="st2" d="M227.4,241.9h-1l2.3-6h1.2l2.3,6h-1l-0.6-1.5H228L227.4,241.9z M230.2,239.5l-1-2.6l-1,2.6H230.2z"/>
	<path class="st2" d="M232.7,235.9h0.8l3.3,4.4v-4.4h0.9v6H237l-3.3-4.4v4.4h-0.9V235.9z"/>
	<path class="st2" d="M243.6,237.5c-0.6-0.6-1-0.8-1.7-0.8c-1.2,0-2.2,1-2.2,2.3c0,1.3,1,2.2,2.2,2.2c0.5,0,0.9-0.2,1.3-0.5
		c0.1-0.1,0.2-0.2,0.4-0.4l0.7,0.6c-0.8,0.8-1.4,1.1-2.3,1.1c-1.8,0-3.2-1.4-3.2-3.1s1.4-3.1,3.1-3.1c0.9,0,1.6,0.3,2.3,1.1
		L243.6,237.5z"/>
	<path class="st2" d="M246.1,236.8v1.7h2.1v0.9h-2.1v1.7h2.4v0.9h-3.3v-6h3.3v0.9H246.1z"/>
	<path class="st2" d="M253.4,236.8v5.1h-0.9v-5.1H251v-0.9h3.9v0.9H253.4z"/>
	<path class="st2" d="M256.5,236.8v1.7h2.1v0.9h-2.1v1.7h2.4v0.9h-3.3v-6h3.3v0.9H256.5z"/>
	<path class="st2" d="M262.6,237.4c-0.4-0.5-0.6-0.7-1-0.7c-0.5,0-0.9,0.4-0.9,0.8c0,0.3,0.2,0.6,0.8,0.8l0.6,0.2
		c1,0.4,1.4,0.9,1.4,1.7c0,1.1-0.9,1.9-2,1.9c-0.6,0-1.2-0.3-1.5-0.7c-0.2-0.3-0.3-0.5-0.4-1l0.9-0.2l0,0.1c0.2,0.6,0.5,1,1,1
		c0.6,0,1-0.4,1-1c0-0.4-0.2-0.6-0.9-0.9l-0.5-0.2c-0.9-0.3-1.3-0.9-1.3-1.6c0-1,0.8-1.7,1.9-1.7c0.8,0,1.3,0.3,1.8,1.1L262.6,237.4
		z"/>
	<path class="st2" d="M266.3,236.8v5.1h-0.9v-5.1h-1.5v-0.9h3.9v0.9H266.3z"/>
	<path class="st2" d="M271.2,237.4c-0.4-0.5-0.6-0.7-1-0.7c-0.5,0-0.9,0.4-0.9,0.8c0,0.3,0.2,0.6,0.8,0.8l0.6,0.2
		c1,0.4,1.4,0.9,1.4,1.7c0,1.1-0.9,1.9-2,1.9c-0.6,0-1.2-0.3-1.5-0.7c-0.2-0.3-0.3-0.5-0.4-1l0.9-0.2l0,0.1c0.2,0.6,0.5,1,1,1
		c0.6,0,1-0.4,1-1c0-0.4-0.2-0.6-0.9-0.9l-0.5-0.2c-0.9-0.3-1.3-0.9-1.3-1.6c0-1,0.8-1.7,1.9-1.7c0.8,0,1.3,0.3,1.8,1.1L271.2,237.4
		z"/>
</g>
<g class="st1">
	<path class="st2" d="M185.1,189.7l-0.7,1.8h-1.6l2.9-7.8h1.8l2.9,7.8h-1.7l-0.6-1.8H185.1z M186.6,185.4l-1,2.9h2.1L186.6,185.4z"
		/>
	<path class="st2" d="M196.6,186.1c-0.7-0.8-1.3-1.1-2-1.1c-1.4,0-2.6,1.2-2.6,2.6c0,1.5,1.1,2.6,2.6,2.6c0.8,0,1.3-0.3,2.1-1.1
		l1.1,1c-1,1.1-2,1.5-3.2,1.5c-2.3,0-4.2-1.8-4.2-4.1c0-2.3,1.9-4.1,4.2-4.1c1.2,0,2.1,0.4,3.1,1.5L196.6,186.1z"/>
	<path class="st2" d="M204.2,186.1c-0.7-0.8-1.3-1.1-2-1.1c-1.4,0-2.6,1.2-2.6,2.6c0,1.5,1.1,2.6,2.6,2.6c0.8,0,1.3-0.3,2.1-1.1
		l1.1,1c-1,1.1-2,1.5-3.2,1.5c-2.3,0-4.2-1.8-4.2-4.1c0-2.3,1.9-4.1,4.2-4.1c1.2,0,2.1,0.4,3.1,1.5L204.2,186.1z"/>
	<path class="st2" d="M210.9,185.1H208v1.7h2.6v1.4H208v1.8h3v1.5h-4.6v-7.8h4.5V185.1z"/>
	<path class="st2" d="M213.7,191.5h-1.6v-7.8h1.9c0.8,0,1.3,0.1,1.7,0.4c0.7,0.4,1.2,1.2,1.2,2.1s-0.4,1.7-1.2,2.1
		c-0.4,0.2-0.9,0.4-1.7,0.4h-0.3V191.5z M214.1,187.3c0.9,0,1.2-0.3,1.2-1.1s-0.4-1.1-1.2-1.1h-0.4v2.1H214.1z"/>
	<path class="st2" d="M222.4,185.1h-1.9v6.4H219v-6.4h-1.9v-1.4h5.3V185.1z"/>
	<path class="st2" d="M224,189.7l-0.7,1.8h-1.6l2.9-7.8h1.8l2.9,7.8h-1.7l-0.6-1.8H224z M225.6,185.4l-1,2.9h2.1L225.6,185.4z"/>
	<path class="st2" d="M230.1,183.7h1.3l3.8,5.1v-5.1h1.6v7.8h-1.3l-3.8-5.1v5.1h-1.6V183.7z"/>
	<path class="st2" d="M244.2,186.1c-0.7-0.8-1.3-1.1-2-1.1c-1.4,0-2.6,1.2-2.6,2.6c0,1.5,1.1,2.6,2.6,2.6c0.8,0,1.3-0.3,2.1-1.1
		l1.1,1c-1,1.1-2,1.5-3.2,1.5c-2.3,0-4.2-1.8-4.2-4.1c0-2.3,1.9-4.1,4.2-4.1c1.2,0,2.1,0.4,3.1,1.5L244.2,186.1z"/>
	<path class="st2" d="M250.9,185.1h-2.9v1.7h2.6v1.4h-2.6v1.8h3v1.5h-4.6v-7.8h4.5V185.1z"/>
	<path class="st2" d="M258.3,185.9c-0.5-0.7-0.7-0.9-1.2-0.9c-0.6,0-1,0.4-1,0.9c0,0.3,0.3,0.6,0.8,0.8l0.7,0.3
		c1.3,0.5,1.9,1.2,1.9,2.2c0,1.4-1.2,2.6-2.7,2.6c-0.8,0-1.6-0.4-2.1-0.9c-0.3-0.4-0.5-0.8-0.6-1.5l1.5-0.4c0.1,0.5,0.2,0.7,0.3,0.9
		c0.2,0.3,0.5,0.5,0.9,0.5c0.6,0,1.1-0.5,1.1-1.1c0-0.4-0.3-0.7-1.1-1l-0.7-0.3c-1.2-0.5-1.8-1.2-1.8-2.1c0-1.3,1.1-2.3,2.6-2.3
		c1.1,0,1.8,0.5,2.5,1.5L258.3,185.9z"/>
	<path class="st2" d="M265.5,185.1h-1.9v6.4H262v-6.4h-1.9v-1.4h5.3V185.1z"/>
	<path class="st2" d="M267.1,189.7l-0.7,1.8h-1.6l2.9-7.8h1.8l2.9,7.8h-1.7l-0.6-1.8H267.1z M268.6,185.4l-1,2.9h2.1L268.6,185.4z"
		/>
	<path class="st2" d="M280.3,187.1v0.8c0,2.3-1.5,3.8-3.6,3.8c-2.3,0-4.2-1.8-4.2-4.1c0-2.3,1.9-4.1,4.2-4.1c1.2,0,2.1,0.4,3.1,1.5
		l-1.1,1c-0.8-0.8-1.3-1-2.1-1c-1.5,0-2.6,1.2-2.6,2.6s1.1,2.6,2.6,2.6c0.6,0,1.1-0.2,1.5-0.6c0.3-0.3,0.4-0.5,0.5-1h-2.1v-1.4
		H280.3z"/>
	<path class="st2" d="M285.9,185.1H283v1.7h2.6v1.4H283v1.8h3v1.5h-4.6v-7.8h4.5V185.1z"/>
</g>
<g>
	<g>
		<line class="st10" x1="322.6" y1="118.8" x2="303.7" y2="118.8"/>
		<g>
			<polygon class="st11" points="320,109.8 335.5,118.8 320,127.7 			"/>
		</g>
	</g>
</g>
</svg>
