<?xml version="1.0" encoding="utf-8"?>
<!-- Generator: Adobe Illustrator 22.0.1, SVG Export Plug-In . SVG Version: 6.00 Build 0)  -->
<svg version="1.1" id="Layer_1" xmlns="http://www.w3.org/2000/svg" xmlns:xlink="http://www.w3.org/1999/xlink" x="0px" y="0px"
	 viewBox="0 0 329 315" style="enable-background:new 0 0 329 315;" xml:space="preserve">
<style type="text/css">
	.st0{fill:none;stroke:#1C425C;stroke-width:3;stroke-linecap:round;stroke-linejoin:round;}
	.st1{fill:#1C425C;}
	.st2{fill:#EFEFEF;stroke:#1C425C;stroke-width:3;stroke-miterlimit:10;}
	.st3{enable-background:new    ;}
</style>
<g>
	<g>
		<line class="st0" x1="172.5" y1="79.5" x2="141.5" y2="130.5"/>
		<g>
			<polygon class="st1" points="165,77.5 178.1,70.3 177.8,85.3 			"/>
		</g>
	</g>
</g>
<path class="st2" d="M131.5,190.5h-112c-5,0-9-4-9-9v-52c0-5,4-9,9-9h112c5,0,9,4,9,9v52C140.5,186.5,136.5,190.5,131.5,190.5z"/>
<g class="st3">
	<path class="st1" d="M32,150.9h2.2c1,0,1.6,0.1,2.1,0.4c0.8,0.4,1.3,1.3,1.3,2.2c0,0.7-0.2,1.2-0.8,1.7c0.8,0.5,1.2,1.3,1.2,2.2
		c0,1-0.5,1.8-1.4,2.4c-0.5,0.3-1.1,0.4-2,0.4H32V150.9z M34.4,154.7c0.5,0,0.8,0,1-0.2c0.3-0.2,0.5-0.5,0.5-0.9
		c0-0.3-0.1-0.6-0.3-0.8c-0.2-0.2-0.6-0.3-1.2-0.3h-0.6v2.2H34.4z M34.6,158.5c0.6,0,0.8,0,1.1-0.2c0.4-0.2,0.6-0.5,0.6-1
		c0-0.4-0.2-0.8-0.5-0.9c-0.3-0.2-0.6-0.2-1.3-0.2h-0.7v2.3H34.6z"/>
	<path class="st1" d="M41.3,156.6c0,0.8,0,1.1,0.2,1.3c0.3,0.4,0.9,0.7,1.5,0.7c0.6,0,1.2-0.3,1.5-0.7c0.2-0.3,0.2-0.6,0.2-1.3v-5.7
		h1.9v6c0,0.8-0.1,1.4-0.4,1.9c-0.6,1-1.8,1.7-3.1,1.7c-1.3,0-2.5-0.7-3.2-1.7c-0.3-0.5-0.4-1.1-0.4-1.9v-6h1.9V156.6z"/>
	<path class="st1" d="M50.2,160.2h-1.9v-9.3h1.9V160.2z"/>
	<path class="st1" d="M54,150.9v7.6h3.4v1.7h-5.2v-9.3H54z"/>
	<path class="st1" d="M60.5,150.9c3.1,0,5.1,1.8,5.1,4.7s-2,4.7-5.1,4.7h-2.2v-9.3H60.5z M60.1,158.5h0.4c2,0,3.2-1.1,3.2-2.9
		c0-1.8-1.2-2.9-3.2-2.9h-0.4V158.5z"/>
	<path class="st1" d="M72,160.2h-1.9v-9.3h2.2c0.9,0,1.5,0.1,2,0.4c0.9,0.5,1.4,1.5,1.4,2.5c0,1.1-0.5,2.1-1.4,2.6
		c-0.5,0.3-1.1,0.4-2,0.4H72V160.2z M72.4,155.1c1,0,1.5-0.4,1.5-1.3s-0.5-1.3-1.5-1.3H72v2.5H72.4z"/>
	<path class="st1" d="M78.6,160.2h-1.9v-9.3h1.9V160.2z"/>
	<path class="st1" d="M82.4,160.2h-1.9v-9.3h2.2c0.9,0,1.5,0.1,2,0.4c0.9,0.5,1.4,1.5,1.4,2.5c0,1.1-0.5,2.1-1.4,2.6
		c-0.5,0.3-1.1,0.4-2,0.4h-0.4V160.2z M82.8,155.1c1,0,1.5-0.4,1.5-1.3s-0.5-1.3-1.5-1.3h-0.5v2.5H82.8z"/>
	<path class="st1" d="M92.5,152.6H89v2h3.1v1.7H89v2.1h3.6v1.7h-5.5v-9.3h5.4V152.6z"/>
	<path class="st1" d="M95.9,150.9v7.6h3.4v1.7H94v-9.3H95.9z"/>
	<path class="st1" d="M102,160.2h-1.9v-9.3h1.9V160.2z"/>
	<path class="st1" d="M103.9,150.9h1.6l4.6,6.1v-6.1h1.9v9.3h-1.6l-4.6-6.1v6.1h-1.9V150.9z"/>
	<path class="st1" d="M119.2,152.6h-3.5v2h3.1v1.7h-3.1v2.1h3.6v1.7h-5.5v-9.3h5.4V152.6z"/>
</g>
<path class="st2" d="M303.5,190.5h-112c-5,0-9-4-9-9v-52c0-5,4-9,9-9h112c5,0,9,4,9,9v52C312.5,186.5,308.5,190.5,303.5,190.5z"/>
<g class="st3">
	<path class="st1" d="M191.7,150.6c0,0.8,0,1.1,0.2,1.3c0.3,0.4,0.9,0.7,1.5,0.7c0.6,0,1.2-0.3,1.5-0.7c0.2-0.3,0.2-0.6,0.2-1.3
		v-5.7h1.9v6c0,0.8-0.1,1.4-0.4,1.9c-0.6,1-1.8,1.7-3.1,1.7s-2.5-0.7-3.2-1.7c-0.3-0.5-0.4-1.1-0.4-1.9v-6h1.9V150.6z"/>
	<path class="st1" d="M203.1,147.5c-0.6-0.9-0.9-1.1-1.4-1.1c-0.7,0-1.1,0.4-1.1,1.1c0,0.4,0.3,0.7,1,1l0.9,0.3
		c1.6,0.6,2.3,1.5,2.3,2.7c0,1.7-1.4,3.1-3.2,3.1c-1,0-1.9-0.4-2.5-1.1c-0.4-0.5-0.6-0.9-0.7-1.8l1.8-0.5c0.2,0.6,0.2,0.9,0.4,1.1
		c0.3,0.4,0.6,0.6,1.1,0.6c0.8,0,1.3-0.6,1.3-1.3c0-0.5-0.3-0.8-1.3-1.1l-0.8-0.3c-1.4-0.5-2.1-1.4-2.1-2.5c0-1.6,1.3-2.8,3.1-2.8
		c1.3,0,2.1,0.5,2.9,1.8L203.1,147.5z"/>
	<path class="st1" d="M211.5,146.6H208v2h3.1v1.7H208v2.1h3.6v1.7h-5.5v-9.3h5.4V146.6z"/>
	<path class="st1" d="M215.7,150.8L215.7,150.8L215.7,150.8l-0.5,0h-0.3v3.4H213v-9.3h2.2c1,0,1.7,0.1,2.2,0.4
		c0.9,0.5,1.4,1.5,1.4,2.6c0,1-0.5,1.9-1.3,2.4l2.2,3.9h-2.1L215.7,150.8z M215.3,149.1c1.2,0,1.7-0.4,1.7-1.3
		c0-0.5-0.2-0.9-0.6-1.1c-0.3-0.1-0.6-0.2-1.1-0.2h-0.5v2.5H215.3z"/>
	<path class="st1" d="M225.7,152.1l-0.8,2.2h-2l3.5-9.3h2.2l3.5,9.3h-2l-0.8-2.2H225.7z M227.5,146.9l-1.2,3.4h2.5L227.5,146.9z"/>
	<path class="st1" d="M239.5,147.7c-0.9-1-1.5-1.3-2.4-1.3c-1.7,0-3.1,1.4-3.1,3.2c0,1.8,1.4,3.1,3.1,3.1c0.9,0,1.6-0.3,2.5-1.3
		l1.3,1.2c-1.2,1.3-2.3,1.8-3.8,1.8c-2.8,0-5-2.2-5-4.9c0-2.7,2.2-4.9,5-4.9c1.4,0,2.5,0.5,3.7,1.8L239.5,147.7z"/>
	<path class="st1" d="M248.6,147.7c-0.9-1-1.5-1.3-2.4-1.3c-1.7,0-3.1,1.4-3.1,3.2c0,1.8,1.4,3.1,3.1,3.1c0.9,0,1.6-0.3,2.5-1.3
		l1.3,1.2c-1.2,1.3-2.3,1.8-3.8,1.8c-2.8,0-5-2.2-5-4.9c0-2.7,2.2-4.9,5-4.9c1.4,0,2.5,0.5,3.7,1.8L248.6,147.7z"/>
	<path class="st1" d="M256.5,146.6H253v2h3.1v1.7H253v2.1h3.6v1.7h-5.5v-9.3h5.4V146.6z"/>
	<path class="st1" d="M259.9,154.2H258v-9.3h2.2c0.9,0,1.5,0.1,2,0.4c0.9,0.5,1.4,1.5,1.4,2.5c0,1.1-0.5,2.1-1.4,2.6
		c-0.5,0.3-1.1,0.4-2,0.4h-0.3V154.2z M260.3,149.1c1,0,1.5-0.4,1.5-1.3s-0.5-1.3-1.5-1.3h-0.5v2.5H260.3z"/>
	<path class="st1" d="M270.3,146.6H268v7.6h-1.9v-7.6h-2.2v-1.7h6.3V146.6z"/>
	<path class="st1" d="M272.2,152.1l-0.8,2.2h-2l3.5-9.3h2.2l3.5,9.3h-2l-0.8-2.2H272.2z M274.1,146.9l-1.2,3.4h2.5L274.1,146.9z"/>
	<path class="st1" d="M279.5,144.9h1.6l4.6,6.1v-6.1h1.9v9.3H286l-4.6-6.1v6.1h-1.9V144.9z"/>
	<path class="st1" d="M296.3,147.7c-0.9-1-1.5-1.3-2.4-1.3c-1.7,0-3.1,1.4-3.1,3.2c0,1.8,1.4,3.1,3.1,3.1c0.9,0,1.6-0.3,2.5-1.3
		l1.3,1.2c-1.2,1.3-2.3,1.8-3.8,1.8c-2.8,0-5-2.2-5-4.9c0-2.7,2.2-4.9,5-4.9c1.4,0,2.5,0.5,3.7,1.8L296.3,147.7z"/>
	<path class="st1" d="M304.2,146.6h-3.5v2h3.1v1.7h-3.1v2.1h3.6v1.7h-5.5v-9.3h5.4V146.6z"/>
</g>
<g class="st3">
	<path class="st1" d="M226.5,171h-1.9v-9.3h2.2c0.9,0,1.5,0.1,2,0.4c0.9,0.5,1.4,1.5,1.4,2.5c0,1.1-0.5,2.1-1.4,2.6
		c-0.5,0.3-1.1,0.4-2,0.4h-0.4V171z M226.9,165.9c1,0,1.5-0.4,1.5-1.3s-0.5-1.3-1.5-1.3h-0.5v2.5H226.9z"/>
	<path class="st1" d="M233.1,171h-1.9v-9.3h1.9V171z"/>
	<path class="st1" d="M236.9,171H235v-9.3h2.2c0.9,0,1.5,0.1,2,0.4c0.9,0.5,1.4,1.5,1.4,2.5c0,1.1-0.5,2.1-1.4,2.6
		c-0.5,0.3-1.1,0.4-2,0.4h-0.4V171z M237.3,165.9c1,0,1.5-0.4,1.5-1.3s-0.5-1.3-1.5-1.3h-0.5v2.5H237.3z"/>
	<path class="st1" d="M247,163.4h-3.5v2h3.1v1.7h-3.1v2.1h3.6v1.7h-5.5v-9.3h5.4V163.4z"/>
	<path class="st1" d="M250.4,161.7v7.6h3.4v1.7h-5.2v-9.3H250.4z"/>
	<path class="st1" d="M256.5,171h-1.9v-9.3h1.9V171z"/>
	<path class="st1" d="M258.4,161.7h1.6l4.6,6.1v-6.1h1.9v9.3h-1.6l-4.6-6.1v6.1h-1.9V161.7z"/>
	<path class="st1" d="M273.7,163.4h-3.5v2h3.1v1.7h-3.1v2.1h3.6v1.7h-5.5v-9.3h5.4V163.4z"/>
</g>
<path class="st2" d="M303.5,90.5h-112c-5,0-9-4-9-9v-52c0-5,4-9,9-9h112c5,0,9,4,9,9v52C312.5,86.5,308.5,90.5,303.5,90.5z"/>
<g class="st3">
	<path class="st1" d="M211.8,50.8L211.8,50.8L211.8,50.8l-0.5,0h-0.3v3.4H209v-9.3h2.2c1,0,1.7,0.1,2.2,0.4c0.9,0.5,1.4,1.5,1.4,2.6
		c0,1-0.5,1.9-1.3,2.4l2.2,3.9h-2.1L211.8,50.8z M211.4,49.1c1.2,0,1.7-0.4,1.7-1.3c0-0.5-0.2-0.9-0.6-1.1c-0.3-0.1-0.6-0.2-1.1-0.2
		h-0.5v2.5H211.4z"/>
	<path class="st1" d="M222.1,46.6h-3.5v2h3.1v1.7h-3.1v2.1h3.6v1.7h-5.5v-9.3h5.4V46.6z"/>
	<path class="st1" d="M232.4,49v0.9c0,2.7-1.7,4.6-4.4,4.6c-2.8,0-5-2.2-5-4.9c0-2.7,2.2-4.9,5-4.9c1.4,0,2.5,0.5,3.8,1.7l-1.3,1.2
		c-0.9-0.9-1.5-1.2-2.5-1.2c-1.8,0-3.1,1.4-3.1,3.2c0,1.8,1.3,3.1,3.1,3.1c0.8,0,1.4-0.3,1.8-0.8c0.3-0.4,0.4-0.6,0.6-1.2h-2.5V49
		H232.4z"/>
	<path class="st1" d="M236.5,50.8L236.5,50.8L236.5,50.8l-0.5,0h-0.4v3.4h-1.9v-9.3h2.2c1,0,1.7,0.1,2.2,0.4
		c0.9,0.5,1.4,1.5,1.4,2.6c0,1-0.5,1.9-1.3,2.4l2.2,3.9h-2.1L236.5,50.8z M236.1,49.1c1.2,0,1.7-0.4,1.7-1.3c0-0.5-0.2-0.9-0.6-1.1
		c-0.3-0.1-0.6-0.2-1.1-0.2h-0.5v2.5H236.1z"/>
	<path class="st1" d="M246.9,46.6h-3.5v2h3.1v1.7h-3.1v2.1h3.6v1.7h-5.5v-9.3h5.4V46.6z"/>
	<path class="st1" d="M252.7,47.5c-0.6-0.9-0.9-1.1-1.4-1.1c-0.7,0-1.1,0.4-1.1,1.1c0,0.4,0.3,0.7,1,1l0.9,0.3
		c1.6,0.6,2.3,1.5,2.3,2.7c0,1.7-1.4,3.1-3.2,3.1c-1,0-1.9-0.4-2.5-1.1c-0.4-0.5-0.6-0.9-0.7-1.8l1.8-0.5c0.2,0.6,0.2,0.9,0.4,1.1
		c0.3,0.4,0.6,0.6,1.1,0.6c0.8,0,1.3-0.6,1.3-1.3c0-0.5-0.3-0.8-1.3-1.1l-0.8-0.3c-1.4-0.5-2.1-1.4-2.1-2.5c0-1.6,1.3-2.8,3.1-2.8
		c1.3,0,2.1,0.5,2.9,1.8L252.7,47.5z"/>
	<path class="st1" d="M260,47.5c-0.6-0.9-0.9-1.1-1.4-1.1c-0.7,0-1.1,0.4-1.1,1.1c0,0.4,0.3,0.7,1,1l0.9,0.3
		c1.6,0.6,2.3,1.5,2.3,2.7c0,1.7-1.4,3.1-3.2,3.1c-1,0-1.9-0.4-2.5-1.1c-0.4-0.5-0.6-0.9-0.7-1.8l1.8-0.5c0.2,0.6,0.2,0.9,0.4,1.1
		c0.3,0.4,0.6,0.6,1.1,0.6c0.8,0,1.3-0.6,1.3-1.3c0-0.5-0.3-0.8-1.3-1.1l-0.8-0.3c-1.4-0.5-2.1-1.4-2.1-2.5c0-1.6,1.3-2.8,3.1-2.8
		c1.3,0,2.1,0.5,2.9,1.8L260,47.5z"/>
	<path class="st1" d="M264.9,54.2H263v-9.3h1.9V54.2z"/>
	<path class="st1" d="M276.1,49.6c0,2.7-2.2,4.9-4.9,4.9c-2.7,0-4.9-2.2-4.9-5c0-2.6,2.3-4.8,4.9-4.8
		C273.9,44.7,276.1,46.9,276.1,49.6z M268.1,49.6c0,1.7,1.4,3.1,3,3.1c1.7,0,3-1.4,3-3.1c0-1.8-1.4-3.2-3.1-3.2
		S268.1,47.8,268.1,49.6z"/>
	<path class="st1" d="M277.4,44.9h1.6l4.6,6.1v-6.1h1.9v9.3h-1.6l-4.6-6.1v6.1h-1.9V44.9z"/>
</g>
<g class="st3">
	<path class="st1" d="M201.6,63.4h-2.2V71h-1.9v-7.6h-2.2v-1.7h6.3V63.4z"/>
	<path class="st1" d="M207.7,63.4h-3.5v2h3.1v1.7h-3.1v2.1h3.6V71h-5.5v-9.3h5.4V63.4z"/>
	<path class="st1" d="M213.5,64.3c-0.6-0.9-0.9-1.1-1.4-1.1c-0.7,0-1.1,0.4-1.1,1.1c0,0.4,0.3,0.7,1,1l0.9,0.3
		c1.6,0.6,2.3,1.5,2.3,2.7c0,1.7-1.4,3.1-3.2,3.1c-1,0-1.9-0.4-2.5-1.1c-0.4-0.5-0.6-0.9-0.7-1.8l1.8-0.5c0.2,0.6,0.2,0.9,0.4,1.1
		c0.3,0.4,0.6,0.6,1,0.6c0.8,0,1.3-0.6,1.3-1.3c0-0.5-0.3-0.8-1.3-1.1l-0.8-0.3c-1.4-0.5-2.1-1.4-2.1-2.5c0-1.6,1.3-2.8,3.1-2.8
		c1.3,0,2.1,0.5,2.9,1.8L213.5,64.3z"/>
	<path class="st1" d="M222,63.4h-2.2V71h-1.9v-7.6h-2.2v-1.7h6.3V63.4z"/>
	<path class="st1" d="M224.7,71h-1.9v-9.3h1.9V71z"/>
	<path class="st1" d="M226.6,61.7h1.6l4.6,6.1v-6.1h1.9V71h-1.6l-4.6-6.1V71h-1.9V61.7z"/>
	<path class="st1" d="M245.4,65.8v0.9c0,2.7-1.7,4.6-4.4,4.6c-2.8,0-5-2.2-5-4.9c0-2.7,2.2-4.9,5-4.9c1.4,0,2.5,0.5,3.8,1.7
		l-1.3,1.2c-0.9-0.9-1.5-1.2-2.5-1.2c-1.8,0-3.1,1.4-3.1,3.2c0,1.8,1.3,3.1,3.1,3.1c0.8,0,1.4-0.3,1.8-0.8c0.3-0.4,0.4-0.6,0.6-1.2
		h-2.5v-1.7H245.4z"/>
	<path class="st1" d="M251.7,71h-1.9v-9.3h2.2c0.9,0,1.5,0.1,2,0.4c0.9,0.5,1.4,1.5,1.4,2.5c0,1.1-0.5,2.1-1.4,2.6
		c-0.5,0.3-1.1,0.4-2,0.4h-0.3V71z M252.2,65.9c1,0,1.5-0.4,1.5-1.3s-0.5-1.3-1.5-1.3h-0.5v2.5H252.2z"/>
	<path class="st1" d="M258.4,71h-1.9v-9.3h1.9V71z"/>
	<path class="st1" d="M262.1,71h-1.9v-9.3h2.2c0.9,0,1.5,0.1,2,0.4c0.9,0.5,1.4,1.5,1.4,2.5c0,1.1-0.5,2.1-1.4,2.6
		c-0.5,0.3-1.1,0.4-2,0.4h-0.3V71z M262.6,65.9c1,0,1.5-0.4,1.5-1.3s-0.5-1.3-1.5-1.3h-0.5v2.5H262.6z"/>
	<path class="st1" d="M272.3,63.4h-3.5v2h3.1v1.7h-3.1v2.1h3.6V71h-5.5v-9.3h5.4V63.4z"/>
	<path class="st1" d="M275.6,61.7v7.6h3.4V71h-5.2v-9.3H275.6z"/>
	<path class="st1" d="M281.8,71h-1.9v-9.3h1.9V71z"/>
	<path class="st1" d="M283.7,61.7h1.6l4.6,6.1v-6.1h1.9V71h-1.6l-4.6-6.1V71h-1.9V61.7z"/>
	<path class="st1" d="M298.9,63.4h-3.5v2h3.1v1.7h-3.1v2.1h3.6V71h-5.5v-9.3h5.4V63.4z"/>
</g>
<path class="st2" d="M303.5,290.5h-112c-5,0-9-4-9-9v-52c0-5,4-9,9-9h112c5,0,9,4,9,9v52C312.5,286.5,308.5,290.5,303.5,290.5z"/>
<g class="st3">
	<path class="st1" d="M197.8,247.7c-0.9-1-1.5-1.3-2.4-1.3c-1.7,0-3.1,1.4-3.1,3.2c0,1.8,1.4,3.1,3.1,3.1c0.9,0,1.6-0.3,2.5-1.3
		l1.3,1.2c-1.2,1.3-2.3,1.8-3.8,1.8c-2.8,0-5-2.2-5-4.9c0-2.7,2.2-4.9,5-4.9c1.4,0,2.5,0.5,3.7,1.8L197.8,247.7z"/>
	<path class="st1" d="M202.2,252.1l-0.8,2.2h-2l3.5-9.3h2.2l3.5,9.3h-2l-0.8-2.2H202.2z M204,246.9l-1.2,3.4h2.5L204,246.9z"/>
	<path class="st1" d="M211.3,254.2h-1.9v-9.3h2.2c0.9,0,1.5,0.1,2,0.4c0.9,0.5,1.4,1.5,1.4,2.5c0,1.1-0.5,2.1-1.4,2.6
		c-0.5,0.3-1.1,0.4-2,0.4h-0.4V254.2z M211.8,249.1c1,0,1.5-0.4,1.5-1.3s-0.5-1.3-1.5-1.3h-0.5v2.5H211.8z"/>
	<path class="st1" d="M217.3,252.1l-0.8,2.2h-2l3.5-9.3h2.2l3.5,9.3h-2l-0.8-2.2H217.3z M219.2,246.9l-1.2,3.4h2.5L219.2,246.9z"/>
	<path class="st1" d="M231.1,247.7c-0.9-1-1.5-1.3-2.4-1.3c-1.7,0-3.1,1.4-3.1,3.2c0,1.8,1.4,3.1,3.1,3.1c0.9,0,1.6-0.3,2.5-1.3
		l1.3,1.2c-1.2,1.3-2.3,1.8-3.8,1.8c-2.8,0-5-2.2-5-4.9c0-2.7,2.2-4.9,5-4.9c1.4,0,2.5,0.5,3.7,1.8L231.1,247.7z"/>
	<path class="st1" d="M235.6,254.2h-1.9v-9.3h1.9V254.2z"/>
	<path class="st1" d="M242.7,246.6h-2.2v7.6h-1.9v-7.6h-2.2v-1.7h6.3V246.6z"/>
	<path class="st1" d="M243,244.9h2.1l2,3.6l2-3.6h2.1l-3.1,5.5v3.9h-1.9v-3.9L243,244.9z"/>
	<path class="st1" d="M260.3,246.6H258v7.6h-1.9v-7.6h-2.2v-1.7h6.3V246.6z"/>
	<path class="st1" d="M266.4,246.6H263v2h3.1v1.7H263v2.1h3.6v1.7h-5.5v-9.3h5.4V246.6z"/>
	<path class="st1" d="M272.2,247.5c-0.6-0.9-0.9-1.1-1.4-1.1c-0.7,0-1.1,0.4-1.1,1.1c0,0.4,0.3,0.7,1,1l0.9,0.3
		c1.6,0.6,2.3,1.5,2.3,2.7c0,1.7-1.4,3.1-3.2,3.1c-1,0-1.9-0.4-2.5-1.1c-0.4-0.5-0.6-0.9-0.7-1.8l1.8-0.5c0.2,0.6,0.2,0.9,0.4,1.1
		c0.3,0.4,0.6,0.6,1.1,0.6c0.8,0,1.3-0.6,1.3-1.3c0-0.5-0.3-0.8-1.3-1.1l-0.8-0.3c-1.4-0.5-2.1-1.4-2.1-2.5c0-1.6,1.3-2.8,3.1-2.8
		c1.3,0,2.1,0.5,2.9,1.8L272.2,247.5z"/>
	<path class="st1" d="M280.7,246.6h-2.2v7.6h-1.9v-7.6h-2.2v-1.7h6.3V246.6z"/>
	<path class="st1" d="M283.4,254.2h-1.9v-9.3h1.9V254.2z"/>
	<path class="st1" d="M285.3,244.9h1.6l4.6,6.1v-6.1h1.9v9.3h-1.6l-4.6-6.1v6.1h-1.9V244.9z"/>
	<path class="st1" d="M304.1,249v0.9c0,2.7-1.7,4.6-4.4,4.6c-2.8,0-5-2.2-5-4.9c0-2.7,2.2-4.9,5-4.9c1.4,0,2.5,0.5,3.8,1.7l-1.3,1.2
		c-0.9-0.9-1.5-1.2-2.5-1.2c-1.8,0-3.1,1.4-3.1,3.2c0,1.8,1.3,3.1,3.1,3.1c0.8,0,1.4-0.3,1.8-0.8c0.3-0.4,0.4-0.6,0.6-1.2h-2.5V249
		H304.1z"/>
</g>
<g class="st3">
	<path class="st1" d="M226.5,271h-1.9v-9.3h2.2c0.9,0,1.5,0.1,2,0.4c0.9,0.5,1.4,1.5,1.4,2.5c0,1.1-0.5,2.1-1.4,2.6
		c-0.5,0.3-1.1,0.4-2,0.4h-0.3V271z M227,265.9c1,0,1.5-0.4,1.5-1.3s-0.5-1.3-1.5-1.3h-0.5v2.5H227z"/>
	<path class="st1" d="M233.1,271h-1.9v-9.3h1.9V271z"/>
	<path class="st1" d="M236.9,271H235v-9.3h2.2c0.9,0,1.5,0.1,2,0.4c0.9,0.5,1.4,1.5,1.4,2.5c0,1.1-0.5,2.1-1.4,2.6
		c-0.5,0.3-1.1,0.4-2,0.4h-0.3V271z M237.4,265.9c1,0,1.5-0.4,1.5-1.3s-0.5-1.3-1.5-1.3h-0.5v2.5H237.4z"/>
	<path class="st1" d="M247,263.4h-3.5v2h3.1v1.7h-3.1v2.1h3.6v1.7h-5.5v-9.3h5.4V263.4z"/>
	<path class="st1" d="M250.4,261.7v7.6h3.4v1.7h-5.2v-9.3H250.4z"/>
	<path class="st1" d="M256.5,271h-1.9v-9.3h1.9V271z"/>
	<path class="st1" d="M258.4,261.7h1.6l4.6,6.1v-6.1h1.9v9.3h-1.6l-4.6-6.1v6.1h-1.9V261.7z"/>
	<path class="st1" d="M273.7,263.4h-3.5v2h3.1v1.7h-3.1v2.1h3.6v1.7h-5.5v-9.3h5.4V263.4z"/>
</g>
<g>
	<g>
		<line class="st0" x1="169.5" y1="156" x2="142.3" y2="156"/>
		<g>
			<polygon class="st1" points="167.3,148.5 180.3,156 167.3,163.5 			"/>
		</g>
	</g>
</g>
<g>
	<g>
		<line class="st0" x1="172.5" y1="232.5" x2="141.5" y2="181.5"/>
		<g>
			<polygon class="st1" points="177.8,226.7 178.1,241.7 165,234.5 			"/>
		</g>
	</g>
</g>
</svg>
