<?xml version="1.0" encoding="utf-8"?>
<!-- Generator: Adobe Illustrator 22.0.1, SVG Export Plug-In . SVG Version: 6.00 Build 0)  -->
<svg version="1.1" id="Layer_1" xmlns="http://www.w3.org/2000/svg" xmlns:xlink="http://www.w3.org/1999/xlink" x="0px" y="0px"
	 viewBox="0 0 600 250" style="enable-background:new 0 0 600 250;" xml:space="preserve">
<style type="text/css">
	.st0{fill:none;stroke:#1C425C;stroke-width:3;stroke-linecap:round;stroke-linejoin:round;}
	.st1{fill:#1C425C;}
	.st2{fill:#EFEFEF;stroke:#1C425C;stroke-width:3;stroke-miterlimit:10;}
	.st3{fill:#FF9311;stroke:#1C425C;stroke-width:3;stroke-miterlimit:10;}
	.st4{enable-background:new    ;}
	.st5{fill:#FFD34E;stroke:#1C425C;stroke-width:3;stroke-miterlimit:10;}
</style>
<g>
	<g>
		<line class="st0" x1="452.5" y1="105.5" x2="421.5" y2="156.5"/>
		<g>
			<polygon class="st1" points="445,103.5 458.1,96.3 457.8,111.3 			"/>
		</g>
	</g>
</g>
<path class="st2" d="M582,120H470c-5,0-9-4-9-9V59c0-5,4-9,9-9h112c5,0,9,4,9,9v52C591,116,587,120,582,120z"/>
<circle class="st3" cx="48.2" cy="85.4" r="37.6"/>
<g class="st4">
	<path class="st1" d="M26.9,80.7c-0.6,0.4-0.9,0.5-1.5,0.5c-1.6,0-3-1.4-3-3.1c0-1.7,1.3-3.1,3-3.1c0.6,0,0.9,0.1,1.5,0.5v-0.3h1.7
		v5.9c0,1.8-1.3,3.1-3.1,3.1c-0.9,0-1.7-0.3-2.3-0.9c-0.2-0.2-0.3-0.3-0.6-0.7l1.1-1.1c0.1,0.1,0.1,0.1,0.1,0.2
		c0,0.1,0.1,0.1,0.1,0.1c0.5,0.6,0.9,0.8,1.5,0.8c0.9,0,1.5-0.6,1.5-1.6V80.7z M24.1,78.1c0,1,0.6,1.6,1.4,1.6s1.4-0.7,1.4-1.6
		c0-0.9-0.6-1.6-1.4-1.6C24.7,76.5,24.1,77.2,24.1,78.1z"/>
	<path class="st1" d="M31.7,73.3c0,0.5-0.5,1-1,1c-0.6,0-1-0.4-1-1c0-0.5,0.5-1,1-1S31.7,72.7,31.7,73.3z M31.5,81h-1.7v-5.8h1.7V81
		z"/>
	<path class="st1" d="M34.6,79.1c0,0.4,0.1,0.5,0.2,0.5c0.2,0,0.3,0,0.7-0.2v1.5c-0.4,0.1-0.6,0.2-0.9,0.2c-1.1,0-1.7-0.7-1.7-2
		v-2.4h-0.6v-1.5h0.6V74l1.7-0.7v1.8h0.9v1.5h-0.9V79.1z"/>
	<path class="st1" d="M39,76.4c0,0.5-0.5,1-1,1c-0.6,0-1-0.4-1-1c0-0.5,0.5-1,1-1C38.6,75.4,39,75.9,39,76.4z M39,80.2
		c0,0.5-0.5,1-1,1c-0.6,0-1-0.4-1-1c0-0.5,0.5-1,1-1C38.6,79.2,39,79.6,39,80.2z"/>
	<path class="st1" d="M45.1,72.1l1.3,0.8l-4.9,8.3l-1.4-0.8L45.1,72.1z"/>
	<path class="st1" d="M51.3,72.1l1.3,0.8l-4.9,8.3l-1.4-0.8L51.3,72.1z"/>
	<path class="st1" d="M57.9,81v-0.3c-0.5,0.4-0.9,0.5-1.5,0.5c-1.6,0-3-1.4-3-3.1c0-1.7,1.3-3.1,3-3.1c0.6,0,1,0.1,1.5,0.5v-0.3h1.7
		V81H57.9z M55.1,78.1c0,0.9,0.6,1.6,1.4,1.6s1.4-0.7,1.4-1.6c0-0.9-0.6-1.6-1.4-1.6C55.7,76.5,55.1,77.2,55.1,78.1z"/>
	<path class="st1" d="M60.9,72.3h1.7v3.2C63,75.2,63.4,75,64,75c1.7,0,3,1.4,3,3.1c0,1.7-1.3,3.1-3,3.1c-0.6,0-1-0.1-1.5-0.5V81
		h-1.7V72.3z M62.5,78.1c0,0.9,0.6,1.6,1.4,1.6c0.8,0,1.4-0.7,1.4-1.6c0-0.9-0.6-1.6-1.4-1.6C63.1,76.5,62.5,77.2,62.5,78.1z"/>
	<path class="st1" d="M72,77.3c-0.6-0.6-0.9-0.7-1.4-0.7c-0.9,0-1.4,0.6-1.4,1.6c0,0.9,0.6,1.6,1.4,1.6c0.5,0,0.9-0.2,1.4-0.8
		l1.1,1.1c-0.8,0.9-1.5,1.2-2.5,1.2c-1.8,0-3.1-1.3-3.1-3.1c0-1.7,1.4-3.1,3.1-3.1c0.9,0,1.6,0.3,2.4,1.1L72,77.3z"/>
</g>
<g class="st4">
	<path class="st1" d="M19.5,87.6c-0.8,1.9-1,3.4-1,5.5c0,2.1,0.3,3.5,1,5.5L18,99.2c-0.3-0.7-0.3-0.7-0.4-0.8
		c-0.5-1.3-0.9-3.5-0.9-5.4s0.4-4.1,0.9-5.4c0-0.1,0.1-0.1,0.4-0.8L19.5,87.6z"/>
	<path class="st1" d="M21,87.9h1.6l2.7,4.8l2.7-4.8h1.6v8.7h-1.7v-5.2l-2,3.5h-1.3l-2-3.5v5.2H21V87.9z"/>
	<path class="st1" d="M33,94.6l-0.7,2h-1.8l3.2-8.7h2l3.2,8.7h-1.8l-0.7-2H33z M34.7,89.8L33.5,93h2.3L34.7,89.8z"/>
	<path class="st1" d="M44.1,89.5H42v7.1h-1.7v-7.1h-2.1v-1.6h5.9V89.5z"/>
	<path class="st1" d="M49.8,89.5h-3.2v1.9h2.9V93h-2.9v2h3.4v1.6h-5.1v-8.7h5V89.5z"/>
	<path class="st1" d="M53.7,93.4L53.7,93.4L53.7,93.4l-0.5,0h-0.3v3.1h-1.7v-8.7h2.1c0.9,0,1.5,0.1,2.1,0.4c0.8,0.5,1.3,1.4,1.3,2.4
		c0,0.9-0.4,1.8-1.2,2.2l2,3.6h-2L53.7,93.4z M53.4,91.9c1.1,0,1.6-0.4,1.6-1.2c0-0.4-0.2-0.8-0.5-1c-0.2-0.1-0.6-0.2-1.1-0.2h-0.4
		v2.4H53.4z"/>
	<path class="st1" d="M60.1,96.6h-1.7v-8.7h1.7V96.6z"/>
	<path class="st1" d="M63.4,94.6l-0.7,2h-1.8l3.2-8.7h2l3.2,8.7h-1.8l-0.7-2H63.4z M65.1,89.8L64,93h2.3L65.1,89.8z"/>
	<path class="st1" d="M71.9,87.9V95H75v1.6h-4.8v-8.7H71.9z"/>
	<path class="st1" d="M77.2,86.9c0.3,0.6,0.3,0.7,0.4,0.8c0.5,1.3,0.9,3.5,0.9,5.4s-0.4,4.1-0.9,5.4c-0.1,0.1-0.1,0.1-0.4,0.8
		l-1.5-0.7c0.8-1.9,1-3.4,1-5.5c0-2.1-0.3-3.5-1-5.5L77.2,86.9z"/>
</g>
<circle class="st5" cx="217.2" cy="176.4" r="37.6"/>
<g class="st4">
	<path class="st1" d="M192.3,169.9c0.3,0.6,0.6,0.8,0.9,0.8c0.3,0,0.5-0.2,0.5-0.5c0-0.2-0.1-0.3-0.6-0.5l-0.8-0.3
		c-0.8-0.3-1.2-0.9-1.2-1.6c0-1.1,0.9-1.9,2.1-1.9c0.9,0,1.6,0.4,2.1,1.3L194,168c-0.3-0.4-0.5-0.5-0.8-0.5c-0.3,0-0.5,0.1-0.5,0.4
		c0,0.2,0.1,0.3,0.6,0.4l0.7,0.3c0.9,0.4,1.4,0.9,1.4,1.6c0,1.1-1,2-2.2,2c-0.6,0-1.3-0.2-1.7-0.7c-0.3-0.3-0.4-0.6-0.6-1.1
		L192.3,169.9z"/>
	<path class="st1" d="M198.7,169.6l1.4-3.4h1.8l-2.5,5.8H198l-2.5-5.8h1.8L198.7,169.6z"/>
	<path class="st1" d="M204.1,166.5c0.4-0.4,0.8-0.5,1.3-0.5c0.8,0,1.6,0.4,2,1.1c0.2,0.4,0.4,1,0.4,1.7v3.1h-1.7v-3
		c0-1.1-0.2-1.5-0.9-1.5c-0.4,0-0.7,0.2-0.9,0.4c-0.1,0.2-0.2,0.5-0.2,1.1v2.9h-1.7v-5.8h1.7V166.5z"/>
	<path class="st1" d="M211.1,167.4c0,0.5-0.5,1-1,1c-0.6,0-1-0.4-1-1c0-0.5,0.5-1,1-1C210.6,166.4,211.1,166.9,211.1,167.4z
		 M211.1,171.2c0,0.5-0.5,1-1,1c-0.6,0-1-0.4-1-1c0-0.5,0.5-1,1-1C210.6,170.2,211.1,170.6,211.1,171.2z"/>
	<path class="st1" d="M217.2,163.1l1.3,0.8l-4.9,8.3l-1.4-0.8L217.2,163.1z"/>
	<path class="st1" d="M223.3,163.1l1.3,0.8l-4.9,8.3l-1.4-0.8L223.3,163.1z"/>
	<path class="st1" d="M230,172v-0.3c-0.5,0.4-0.9,0.5-1.5,0.5c-1.6,0-3-1.4-3-3.1c0-1.7,1.3-3.1,3-3.1c0.6,0,1,0.1,1.5,0.5v-3.2h1.7
		v8.7H230z M227.2,169.1c0,0.9,0.6,1.6,1.4,1.6c0.8,0,1.4-0.6,1.4-1.6c0-0.9-0.6-1.6-1.4-1.6C227.8,167.5,227.2,168.2,227.2,169.1z"
		/>
	<path class="st1" d="M238.3,170.6c-0.7,1.1-1.6,1.6-2.7,1.6c-1.7,0-3-1.3-3-3.1c0-1.7,1.3-3.1,3-3.1c1.7,0,2.9,1.4,2.9,3.2
		c0,0.1,0,0.2,0,0.5h-4.1c0.2,0.7,0.6,1,1.3,1c0.6,0,1-0.2,1.3-0.7L238.3,170.6z M236.8,168.5c-0.2-0.7-0.6-1.1-1.2-1.1
		c-0.6,0-1.1,0.4-1.2,1.1H236.8z"/>
	<path class="st1" d="M241.1,172h-1.7v-4.3h-0.5v-1.5h0.5v-1c0-1.3,0.6-2,1.7-2c0.3,0,0.5,0,0.9,0.1v1.5c-0.2-0.1-0.4-0.1-0.6-0.1
		c-0.3,0-0.4,0.2-0.4,0.5v1h1v1.5h-1V172z"/>
</g>
<g class="st4">
	<path class="st1" d="M188.5,178.6c-0.8,1.9-1,3.4-1,5.5c0,2.1,0.3,3.5,1,5.5l-1.5,0.7c-0.3-0.7-0.3-0.7-0.4-0.8
		c-0.5-1.3-0.9-3.5-0.9-5.4s0.4-4.1,0.9-5.4c0-0.1,0.1-0.1,0.4-0.8L188.5,178.6z"/>
	<path class="st1" d="M190,178.9h1.6l2.7,4.8l2.7-4.8h1.6v8.7h-1.7v-5.2l-2,3.5h-1.3l-2-3.5v5.2H190V178.9z"/>
	<path class="st1" d="M202,185.6l-0.7,2h-1.8l3.2-8.7h2l3.2,8.7h-1.8l-0.7-2H202z M203.7,180.8l-1.1,3.2h2.3L203.7,180.8z"/>
	<path class="st1" d="M213.1,180.5H211v7.1h-1.7v-7.1h-2.1v-1.6h5.9V180.5z"/>
	<path class="st1" d="M218.8,180.5h-3.2v1.9h2.9v1.6h-2.9v2h3.4v1.6h-5.1v-8.7h5V180.5z"/>
	<path class="st1" d="M222.7,184.4L222.7,184.4L222.7,184.4l-0.5,0h-0.3v3.1h-1.7v-8.7h2.1c0.9,0,1.5,0.1,2.1,0.4
		c0.8,0.5,1.3,1.4,1.3,2.4c0,0.9-0.4,1.8-1.2,2.2l2,3.6h-2L222.7,184.4z M222.3,182.9c1.1,0,1.6-0.4,1.6-1.2c0-0.4-0.2-0.8-0.5-1
		c-0.2-0.1-0.6-0.2-1.1-0.2h-0.4v2.4H222.3z"/>
	<path class="st1" d="M229.1,187.6h-1.7v-8.7h1.7V187.6z"/>
	<path class="st1" d="M232.4,185.6l-0.7,2h-1.8l3.2-8.7h2l3.2,8.7h-1.8l-0.7-2H232.4z M234.1,180.8L233,184h2.3L234.1,180.8z"/>
	<path class="st1" d="M240.9,178.9v7.1h3.1v1.6h-4.8v-8.7H240.9z"/>
	<path class="st1" d="M246.2,177.8c0.3,0.6,0.3,0.7,0.4,0.8c0.5,1.3,0.9,3.5,0.9,5.4s-0.4,4.1-0.9,5.4c-0.1,0.1-0.1,0.1-0.4,0.8
		l-1.5-0.7c0.8-1.9,1-3.4,1-5.5c0-2.1-0.3-3.5-1-5.5L246.2,177.8z"/>
</g>
<path class="st2" d="M244,120H132c-5,0-9-4-9-9V59c0-5,4-9,9-9h112c5,0,9,4,9,9v52C253,116,249,120,244,120z"/>
<g class="st4">
	<path class="st1" d="M144.5,80.4h2.2c1,0,1.6,0.1,2.1,0.4c0.8,0.4,1.3,1.3,1.3,2.2c0,0.7-0.2,1.2-0.8,1.7c0.8,0.5,1.2,1.3,1.2,2.2
		c0,1-0.5,1.8-1.4,2.4c-0.5,0.3-1.1,0.4-2,0.4h-2.7V80.4z M146.9,84.2c0.5,0,0.8,0,1-0.2c0.3-0.2,0.5-0.5,0.5-0.9
		c0-0.3-0.1-0.6-0.3-0.8c-0.2-0.2-0.6-0.3-1.2-0.3h-0.6v2.2H146.9z M147.1,88c0.6,0,0.8,0,1.1-0.2c0.4-0.2,0.6-0.5,0.6-1
		c0-0.4-0.2-0.8-0.5-0.9c-0.3-0.2-0.6-0.2-1.3-0.2h-0.7V88H147.1z"/>
	<path class="st1" d="M153.8,86.1c0,0.8,0,1.1,0.2,1.3c0.3,0.4,0.9,0.7,1.5,0.7c0.6,0,1.2-0.3,1.5-0.7c0.2-0.3,0.2-0.6,0.2-1.3v-5.7
		h1.9v6c0,0.8-0.1,1.4-0.4,1.9c-0.6,1-1.8,1.7-3.1,1.7c-1.3,0-2.5-0.7-3.2-1.7c-0.3-0.5-0.4-1.1-0.4-1.9v-6h1.9V86.1z"/>
	<path class="st1" d="M162.7,89.7h-1.9v-9.3h1.9V89.7z"/>
	<path class="st1" d="M166.5,80.4V88h3.4v1.7h-5.2v-9.3H166.5z"/>
	<path class="st1" d="M173,80.4c3.1,0,5.1,1.8,5.1,4.7s-2,4.7-5.1,4.7h-2.2v-9.3H173z M172.6,88h0.4c2,0,3.2-1.1,3.2-2.9
		c0-1.8-1.2-2.9-3.2-2.9h-0.4V88z"/>
	<path class="st1" d="M184.5,89.7h-1.9v-9.3h2.2c0.9,0,1.5,0.1,2,0.4c0.9,0.5,1.4,1.5,1.4,2.5c0,1.1-0.5,2.1-1.4,2.6
		c-0.5,0.3-1.1,0.4-2,0.4h-0.4V89.7z M184.9,84.6c1,0,1.5-0.4,1.5-1.3s-0.5-1.3-1.5-1.3h-0.5v2.5H184.9z"/>
	<path class="st1" d="M191.1,89.7h-1.9v-9.3h1.9V89.7z"/>
	<path class="st1" d="M194.9,89.7H193v-9.3h2.2c0.9,0,1.5,0.1,2,0.4c0.9,0.5,1.4,1.5,1.4,2.5c0,1.1-0.5,2.1-1.4,2.6
		c-0.5,0.3-1.1,0.4-2,0.4h-0.4V89.7z M195.3,84.6c1,0,1.5-0.4,1.5-1.3s-0.5-1.3-1.5-1.3h-0.5v2.5H195.3z"/>
	<path class="st1" d="M205,82.1h-3.5v2h3.1v1.7h-3.1V88h3.6v1.7h-5.5v-9.3h5.4V82.1z"/>
	<path class="st1" d="M208.4,80.4V88h3.4v1.7h-5.2v-9.3H208.4z"/>
	<path class="st1" d="M214.5,89.7h-1.9v-9.3h1.9V89.7z"/>
	<path class="st1" d="M216.4,80.4h1.6l4.6,6.1v-6.1h1.9v9.3h-1.6l-4.6-6.1v6.1h-1.9V80.4z"/>
	<path class="st1" d="M231.7,82.1h-3.5v2h3.1v1.7h-3.1V88h3.6v1.7h-5.5v-9.3h5.4V82.1z"/>
</g>
<path class="st2" d="M414,120H302c-5,0-9-4-9-9V59c0-5,4-9,9-9h112c5,0,9,4,9,9v52C423,116,419,120,414,120z"/>
<g class="st4">
	<path class="st1" d="M302.2,80.1c0,0.8,0,1.1,0.2,1.3c0.3,0.4,0.9,0.7,1.5,0.7c0.6,0,1.2-0.3,1.5-0.7c0.2-0.3,0.2-0.6,0.2-1.3v-5.7
		h1.9v6c0,0.8-0.1,1.4-0.4,1.9c-0.6,1-1.8,1.7-3.1,1.7s-2.5-0.7-3.2-1.7c-0.3-0.5-0.4-1.1-0.4-1.9v-6h1.9V80.1z"/>
	<path class="st1" d="M313.6,77c-0.6-0.9-0.9-1.1-1.4-1.1c-0.7,0-1.1,0.4-1.1,1.1c0,0.4,0.3,0.7,1,1l0.9,0.3
		c1.6,0.6,2.3,1.5,2.3,2.7c0,1.7-1.4,3.1-3.2,3.1c-1,0-1.9-0.4-2.5-1.1c-0.4-0.5-0.6-0.9-0.7-1.8l1.8-0.5c0.2,0.6,0.2,0.9,0.4,1.1
		c0.3,0.4,0.6,0.6,1.1,0.6c0.8,0,1.3-0.6,1.3-1.3c0-0.5-0.3-0.8-1.3-1.1l-0.8-0.3c-1.4-0.5-2.1-1.4-2.1-2.5c0-1.6,1.3-2.8,3.1-2.8
		c1.3,0,2.1,0.5,2.9,1.8L313.6,77z"/>
	<path class="st1" d="M322,76.1h-3.5v2h3.1v1.7h-3.1V82h3.6v1.7h-5.5v-9.3h5.4V76.1z"/>
	<path class="st1" d="M326.2,80.3L326.2,80.3L326.2,80.3l-0.5,0h-0.3v3.4h-1.9v-9.3h2.2c1,0,1.7,0.1,2.2,0.4
		c0.9,0.5,1.4,1.5,1.4,2.6c0,1-0.5,1.9-1.3,2.4l2.2,3.9h-2.1L326.2,80.3z M325.8,78.6c1.2,0,1.7-0.4,1.7-1.3c0-0.5-0.2-0.9-0.6-1.1
		c-0.3-0.1-0.6-0.2-1.1-0.2h-0.5v2.5H325.8z"/>
	<path class="st1" d="M336.2,81.6l-0.8,2.2h-2l3.5-9.3h2.2l3.5,9.3h-2l-0.8-2.2H336.2z M338,76.4l-1.2,3.4h2.5L338,76.4z"/>
	<path class="st1" d="M350,77.2c-0.9-1-1.5-1.3-2.4-1.3c-1.7,0-3.1,1.4-3.1,3.2c0,1.8,1.4,3.1,3.1,3.1c0.9,0,1.6-0.3,2.5-1.3
		l1.3,1.2c-1.2,1.3-2.3,1.8-3.8,1.8c-2.8,0-5-2.2-5-4.9c0-2.7,2.2-4.9,5-4.9c1.4,0,2.5,0.5,3.7,1.8L350,77.2z"/>
	<path class="st1" d="M359.1,77.2c-0.9-1-1.5-1.3-2.4-1.3c-1.7,0-3.1,1.4-3.1,3.2c0,1.8,1.4,3.1,3.1,3.1c0.9,0,1.6-0.3,2.5-1.3
		l1.3,1.2c-1.2,1.3-2.3,1.8-3.8,1.8c-2.8,0-5-2.2-5-4.9c0-2.7,2.2-4.9,5-4.9c1.4,0,2.5,0.5,3.7,1.8L359.1,77.2z"/>
	<path class="st1" d="M367,76.1h-3.5v2h3.1v1.7h-3.1V82h3.6v1.7h-5.5v-9.3h5.4V76.1z"/>
	<path class="st1" d="M370.4,83.7h-1.9v-9.3h2.2c0.9,0,1.5,0.1,2,0.4c0.9,0.5,1.4,1.5,1.4,2.5c0,1.1-0.5,2.1-1.4,2.6
		c-0.5,0.3-1.1,0.4-2,0.4h-0.3V83.7z M370.8,78.6c1,0,1.5-0.4,1.5-1.3s-0.5-1.3-1.5-1.3h-0.5v2.5H370.8z"/>
	<path class="st1" d="M380.8,76.1h-2.2v7.6h-1.9v-7.6h-2.2v-1.7h6.3V76.1z"/>
	<path class="st1" d="M382.7,81.6l-0.8,2.2h-2l3.5-9.3h2.2l3.5,9.3h-2l-0.8-2.2H382.7z M384.6,76.4l-1.2,3.4h2.5L384.6,76.4z"/>
	<path class="st1" d="M390,74.4h1.6l4.6,6.1v-6.1h1.9v9.3h-1.6l-4.6-6.1v6.1H390V74.4z"/>
	<path class="st1" d="M406.8,77.2c-0.9-1-1.5-1.3-2.4-1.3c-1.7,0-3.1,1.4-3.1,3.2c0,1.8,1.4,3.1,3.1,3.1c0.9,0,1.6-0.3,2.5-1.3
		l1.3,1.2c-1.2,1.3-2.3,1.8-3.8,1.8c-2.8,0-5-2.2-5-4.9c0-2.7,2.2-4.9,5-4.9c1.4,0,2.5,0.5,3.7,1.8L406.8,77.2z"/>
	<path class="st1" d="M414.7,76.1h-3.5v2h3.1v1.7h-3.1V82h3.6v1.7h-5.5v-9.3h5.4V76.1z"/>
</g>
<g class="st4">
	<path class="st1" d="M337,100.5h-1.9v-9.3h2.2c0.9,0,1.5,0.1,2,0.4c0.9,0.5,1.4,1.5,1.4,2.5c0,1.1-0.5,2.1-1.4,2.6
		c-0.5,0.3-1.1,0.4-2,0.4H337V100.5z M337.4,95.4c1,0,1.5-0.4,1.5-1.3s-0.5-1.3-1.5-1.3H337v2.5H337.4z"/>
	<path class="st1" d="M343.6,100.5h-1.9v-9.3h1.9V100.5z"/>
	<path class="st1" d="M347.4,100.5h-1.9v-9.3h2.2c0.9,0,1.5,0.1,2,0.4c0.9,0.5,1.4,1.5,1.4,2.5c0,1.1-0.5,2.1-1.4,2.6
		c-0.5,0.3-1.1,0.4-2,0.4h-0.4V100.5z M347.8,95.4c1,0,1.5-0.4,1.5-1.3s-0.5-1.3-1.5-1.3h-0.5v2.5H347.8z"/>
	<path class="st1" d="M357.5,92.9H354v2h3.1v1.7H354v2.1h3.6v1.7h-5.5v-9.3h5.4V92.9z"/>
	<path class="st1" d="M360.9,91.2v7.6h3.4v1.7H359v-9.3H360.9z"/>
	<path class="st1" d="M367,100.5h-1.9v-9.3h1.9V100.5z"/>
	<path class="st1" d="M368.9,91.2h1.6l4.6,6.1v-6.1h1.9v9.3h-1.6l-4.6-6.1v6.1h-1.9V91.2z"/>
	<path class="st1" d="M384.2,92.9h-3.5v2h3.1v1.7h-3.1v2.1h3.6v1.7h-5.5v-9.3h5.4V92.9z"/>
</g>
<g class="st4">
	<path class="st1" d="M488.3,83.7h-1.9v-9.3h2.2c0.9,0,1.5,0.1,2,0.4c0.9,0.5,1.4,1.5,1.4,2.5c0,1.1-0.5,2.1-1.4,2.6
		c-0.5,0.3-1.1,0.4-2,0.4h-0.3V83.7z M488.8,78.6c1,0,1.5-0.4,1.5-1.3s-0.5-1.3-1.5-1.3h-0.5v2.5H488.8z"/>
	<path class="st1" d="M495.8,80.3L495.8,80.3L495.8,80.3l-0.5,0H495v3.4h-1.9v-9.3h2.2c1,0,1.7,0.1,2.2,0.4c0.9,0.5,1.4,1.5,1.4,2.6
		c0,1-0.5,1.9-1.3,2.4l2.2,3.9h-2.1L495.8,80.3z M495.4,78.6c1.2,0,1.7-0.4,1.7-1.3c0-0.5-0.2-0.9-0.6-1.1c-0.3-0.1-0.6-0.2-1.1-0.2
		H495v2.5H495.4z"/>
	<path class="st1" d="M510,79.1c0,2.7-2.2,4.9-4.9,4.9c-2.7,0-4.9-2.2-4.9-5c0-2.6,2.3-4.8,4.9-4.8C507.8,74.2,510,76.4,510,79.1z
		 M502,79.1c0,1.7,1.4,3.1,3,3.1c1.7,0,3-1.4,3-3.1c0-1.8-1.4-3.2-3.1-3.2S502,77.3,502,79.1z"/>
	<path class="st1" d="M513.6,74.4c3.1,0,5.1,1.8,5.1,4.7s-2,4.7-5.1,4.7h-2.2v-9.3H513.6z M513.2,82h0.4c2,0,3.2-1.1,3.2-2.9
		c0-1.8-1.2-2.9-3.2-2.9h-0.4V82z"/>
	<path class="st1" d="M521.9,80.1c0,0.8,0,1.1,0.2,1.3c0.3,0.4,0.9,0.7,1.5,0.7s1.2-0.3,1.5-0.7c0.2-0.3,0.2-0.6,0.2-1.3v-5.7h1.9v6
		c0,0.8-0.1,1.4-0.4,1.9c-0.6,1-1.8,1.7-3.1,1.7c-1.3,0-2.5-0.7-3.2-1.7c-0.3-0.5-0.4-1.1-0.4-1.9v-6h1.9V80.1z"/>
	<path class="st1" d="M535.9,77.2c-0.9-1-1.5-1.3-2.4-1.3c-1.7,0-3.1,1.4-3.1,3.2c0,1.8,1.4,3.1,3.1,3.1c0.9,0,1.6-0.3,2.5-1.3
		l1.3,1.2c-1.2,1.3-2.3,1.8-3.8,1.8c-2.8,0-5-2.2-5-4.9c0-2.7,2.2-4.9,5-4.9c1.4,0,2.5,0.5,3.7,1.8L535.9,77.2z"/>
	<path class="st1" d="M544,76.1h-2.2v7.6h-1.9v-7.6h-2.2v-1.7h6.3V76.1z"/>
	<path class="st1" d="M546.7,83.7h-1.9v-9.3h1.9V83.7z"/>
	<path class="st1" d="M557.9,79.1c0,2.7-2.2,4.9-4.9,4.9c-2.7,0-4.9-2.2-4.9-5c0-2.6,2.3-4.8,4.9-4.8
		C555.7,74.2,557.9,76.4,557.9,79.1z M550,79.1c0,1.7,1.4,3.1,3,3.1c1.7,0,3-1.4,3-3.1c0-1.8-1.4-3.2-3.1-3.2S550,77.3,550,79.1z"/>
	<path class="st1" d="M559.3,74.4h1.6l4.6,6.1v-6.1h1.9v9.3h-1.6l-4.6-6.1v6.1h-1.9V74.4z"/>
</g>
<g class="st4">
	<path class="st1" d="M505.9,100.5h-1.9v-9.3h2.2c0.9,0,1.5,0.1,2,0.4c0.9,0.5,1.4,1.5,1.4,2.5c0,1.1-0.5,2.1-1.4,2.6
		c-0.5,0.3-1.1,0.4-2,0.4h-0.4V100.5z M506.4,95.4c1,0,1.5-0.4,1.5-1.3s-0.5-1.3-1.5-1.3h-0.5v2.5H506.4z"/>
	<path class="st1" d="M512.6,100.5h-1.9v-9.3h1.9V100.5z"/>
	<path class="st1" d="M516.3,100.5h-1.9v-9.3h2.2c0.9,0,1.5,0.1,2,0.4c0.9,0.5,1.4,1.5,1.4,2.5c0,1.1-0.5,2.1-1.4,2.6
		c-0.5,0.3-1.1,0.4-2,0.4h-0.4V100.5z M516.8,95.4c1,0,1.5-0.4,1.5-1.3s-0.5-1.3-1.5-1.3h-0.5v2.5H516.8z"/>
	<path class="st1" d="M526.5,92.9H523v2h3.1v1.7H523v2.1h3.6v1.7h-5.5v-9.3h5.4V92.9z"/>
	<path class="st1" d="M529.8,91.2v7.6h3.4v1.7H528v-9.3H529.8z"/>
	<path class="st1" d="M536,100.5h-1.9v-9.3h1.9V100.5z"/>
	<path class="st1" d="M537.9,91.2h1.6l4.6,6.1v-6.1h1.9v9.3h-1.6l-4.6-6.1v6.1h-1.9V91.2z"/>
	<path class="st1" d="M553.1,92.9h-3.5v2h3.1v1.7h-3.1v2.1h3.6v1.7h-5.5v-9.3h5.4V92.9z"/>
</g>
<path class="st2" d="M414,212H302c-5,0-9-4-9-9v-52c0-5,4-9,9-9h112c5,0,9,4,9,9v52C423,208,419,212,414,212z"/>
<g class="st4">
	<path class="st1" d="M335.1,159.2c-0.9-1-1.5-1.3-2.4-1.3c-1.7,0-3.1,1.4-3.1,3.2c0,1.8,1.4,3.1,3.1,3.1c0.9,0,1.6-0.3,2.5-1.3
		l1.3,1.2c-1.2,1.3-2.3,1.8-3.8,1.8c-2.8,0-5-2.2-5-4.9c0-2.7,2.2-4.9,5-4.9c1.4,0,2.5,0.5,3.7,1.8L335.1,159.2z"/>
	<path class="st1" d="M339.5,163.6l-0.8,2.2h-2l3.5-9.3h2.2l3.5,9.3h-2l-0.8-2.2H339.5z M341.3,158.4l-1.2,3.4h2.5L341.3,158.4z"/>
	<path class="st1" d="M348.6,165.7h-1.9v-9.3h2.2c0.9,0,1.5,0.1,2,0.4c0.9,0.5,1.4,1.5,1.4,2.5c0,1.1-0.5,2.1-1.4,2.6
		c-0.5,0.3-1.1,0.4-2,0.4h-0.4V165.7z M349.1,160.6c1,0,1.5-0.4,1.5-1.3s-0.5-1.3-1.5-1.3h-0.5v2.5H349.1z"/>
	<path class="st1" d="M354.6,163.6l-0.8,2.2h-2l3.5-9.3h2.2l3.5,9.3h-2l-0.8-2.2H354.6z M356.4,158.4l-1.2,3.4h2.5L356.4,158.4z"/>
	<path class="st1" d="M368.4,159.2c-0.9-1-1.5-1.3-2.4-1.3c-1.7,0-3.1,1.4-3.1,3.2c0,1.8,1.4,3.1,3.1,3.1c0.9,0,1.6-0.3,2.5-1.3
		l1.3,1.2c-1.2,1.3-2.3,1.8-3.8,1.8c-2.8,0-5-2.2-5-4.9c0-2.7,2.2-4.9,5-4.9c1.4,0,2.5,0.5,3.7,1.8L368.4,159.2z"/>
	<path class="st1" d="M372.8,165.7H371v-9.3h1.9V165.7z"/>
	<path class="st1" d="M380,158.1h-2.2v7.6h-1.9v-7.6h-2.2v-1.7h6.3V158.1z"/>
	<path class="st1" d="M380.2,156.4h2.1l2,3.6l2-3.6h2.1l-3.1,5.5v3.9h-1.9v-3.9L380.2,156.4z"/>
</g>
<g class="st4">
	<path class="st1" d="M339,174.9h-2.2v7.6h-1.9v-7.6h-2.2v-1.7h6.3V174.9z"/>
	<path class="st1" d="M345.1,174.9h-3.5v2h3.1v1.7h-3.1v2.1h3.6v1.7h-5.5v-9.3h5.4V174.9z"/>
	<path class="st1" d="M350.9,175.8c-0.6-0.9-0.9-1.1-1.4-1.1c-0.7,0-1.1,0.4-1.1,1.1c0,0.4,0.3,0.7,1,1l0.9,0.3
		c1.6,0.6,2.3,1.5,2.3,2.7c0,1.7-1.4,3.1-3.2,3.1c-1,0-1.9-0.4-2.5-1.1c-0.4-0.5-0.6-0.9-0.7-1.8l1.8-0.5c0.2,0.6,0.2,0.9,0.4,1.1
		c0.3,0.4,0.6,0.6,1,0.6c0.8,0,1.3-0.6,1.3-1.3c0-0.5-0.3-0.8-1.3-1.1l-0.8-0.3c-1.4-0.5-2.1-1.4-2.1-2.5c0-1.6,1.3-2.8,3.1-2.8
		c1.3,0,2.1,0.5,2.9,1.8L350.9,175.8z"/>
	<path class="st1" d="M359.4,174.9h-2.2v7.6h-1.9v-7.6h-2.2v-1.7h6.3V174.9z"/>
	<path class="st1" d="M362.1,182.5h-1.9v-9.3h1.9V182.5z"/>
	<path class="st1" d="M364,173.2h1.6l4.6,6.1v-6.1h1.9v9.3h-1.6l-4.6-6.1v6.1H364V173.2z"/>
	<path class="st1" d="M382.8,177.3v0.9c0,2.7-1.7,4.6-4.4,4.6c-2.8,0-5-2.2-5-4.9c0-2.7,2.2-4.9,5-4.9c1.4,0,2.5,0.5,3.8,1.7
		l-1.3,1.2c-0.9-0.9-1.5-1.2-2.5-1.2c-1.8,0-3.1,1.4-3.1,3.2c0,1.8,1.3,3.1,3.1,3.1c0.8,0,1.4-0.3,1.8-0.8c0.3-0.4,0.4-0.6,0.6-1.2
		h-2.5v-1.7H382.8z"/>
</g>
<g class="st4">
	<path class="st1" d="M335.4,199.3h-1.9V190h2.2c0.9,0,1.5,0.1,2,0.4c0.9,0.5,1.4,1.5,1.4,2.5c0,1.1-0.5,2.1-1.4,2.6
		c-0.5,0.3-1.1,0.4-2,0.4h-0.4V199.3z M335.9,194.2c1,0,1.5-0.4,1.5-1.3s-0.5-1.3-1.5-1.3h-0.5v2.5H335.9z"/>
	<path class="st1" d="M342.1,199.3h-1.9V190h1.9V199.3z"/>
	<path class="st1" d="M345.8,199.3h-1.9V190h2.2c0.9,0,1.5,0.1,2,0.4c0.9,0.5,1.4,1.5,1.4,2.5c0,1.1-0.5,2.1-1.4,2.6
		c-0.5,0.3-1.1,0.4-2,0.4h-0.4V199.3z M346.3,194.2c1,0,1.5-0.4,1.5-1.3s-0.5-1.3-1.5-1.3h-0.5v2.5H346.3z"/>
	<path class="st1" d="M356,191.7h-3.5v2h3.1v1.7h-3.1v2.1h3.6v1.7h-5.5V190h5.4V191.7z"/>
	<path class="st1" d="M359.3,190v7.6h3.4v1.7h-5.2V190H359.3z"/>
	<path class="st1" d="M365.5,199.3h-1.9V190h1.9V199.3z"/>
	<path class="st1" d="M367.3,190h1.6l4.6,6.1V190h1.9v9.3h-1.6l-4.6-6.1v6.1h-1.9V190z"/>
	<path class="st1" d="M382.6,191.7h-3.5v2h3.1v1.7h-3.1v2.1h3.6v1.7h-5.5V190h5.4V191.7z"/>
</g>
<g>
	<g>
		<line class="st0" x1="111.5" y1="90" x2="86.3" y2="90"/>
		<g>
			<polygon class="st1" points="109.3,82.5 122.3,90 109.3,97.5 			"/>
		</g>
	</g>
</g>
<g>
	<g>
		<line class="st0" x1="280.5" y1="90" x2="255.3" y2="90"/>
		<g>
			<polygon class="st1" points="278.3,82.5 291.3,90 278.3,97.5 			"/>
		</g>
	</g>
</g>
<g>
	<g>
		<line class="st0" x1="280.5" y1="173" x2="255.3" y2="173"/>
		<g>
			<polygon class="st1" points="278.3,165.5 291.3,173 278.3,180.5 			"/>
		</g>
	</g>
</g>
<g>
	<g>
		<line class="st0" x1="284.5" y1="150.5" x2="253.5" y2="99.5"/>
		<g>
			<polygon class="st1" points="289.8,144.7 290.1,159.7 277,152.5 			"/>
		</g>
	</g>
</g>
<g>
	<g>
		<polyline class="st0" points="452.5,74.5 421.5,23.5 135.5,23.5 82.1,69.1 		"/>
		<g>
			<polygon class="st1" points="457.8,68.7 458.1,83.7 445,76.5 			"/>
		</g>
	</g>
</g>
<g>
	<g>
		<line class="st0" x1="448.5" y1="90" x2="423.3" y2="90"/>
		<g>
			<polygon class="st1" points="446.3,82.5 459.3,90 446.3,97.5 			"/>
		</g>
	</g>
</g>
</svg>
