<svg xmlns="http://www.w3.org/2000/svg" viewBox="0 0 1478 550">
  <title>890-pipeline-illo-edit-outline</title>
  <g id="Layer_1" data-name="Layer 1">
    <g>
      <rect x="5.431" y="7.044" width="1467.138" height="535.911" rx="38.028" ry="38.028" fill="#fff" stroke="#1c425c" stroke-linecap="round" stroke-linejoin="round" stroke-width="2"/>
      <g>
        <path d="M691.209,93.026H687.64v2h3.249V97.22H687.64v4.305h-2.369V90.85h5.938Z" fill="#1c425c"/>
        <path d="M698.873,93.026h-3.922v2h3.49V97.2h-3.49v2.129h4.067v2.192H692.6V90.85h6.274Z" fill="#1c425c"/>
        <path d="M706.889,93.042h-2.5v8.483h-2.369V93.042H699.51V90.85h7.379Z" fill="#1c425c"/>
        <path d="M715.321,94.243a3.326,3.326,0,1,0-2.673,5.346,3.425,3.425,0,0,0,2.721-1.473l1.681,1.569a5.639,5.639,0,1,1-4.37-9.108A5.541,5.541,0,0,1,717,92.658Z" fill="#1c425c"/>
        <path d="M720.584,95.027h3.665V90.85h2.368v10.675h-2.368V97.22h-3.665v4.305h-2.369V90.85h2.369Z" fill="#1c425c"/>
        <path d="M734.535,101.525h-2.369V90.85h2.369Z" fill="#1c425c"/>
        <path d="M736.582,90.85h2.177l3.2,5.57,3.186-5.57h2.176v10.675h-2.369V95.6L742.809,99.4h-1.7l-2.16-3.792v5.921h-2.369Z" fill="#1c425c"/>
        <path d="M751.479,99.173l-.817,2.352h-2.5l3.985-10.675h2.721l3.985,10.675h-2.512l-.817-2.352Zm2.017-5.8-1.249,3.6h2.513Z" fill="#1c425c"/>
        <path d="M769.53,95.443v1.105a5.83,5.83,0,0,1-.688,2.9,4.857,4.857,0,0,1-4.354,2.354,5.612,5.612,0,1,1-.015-11.221,5.942,5.942,0,0,1,4.384,1.985l-1.679,1.569a3.563,3.563,0,0,0-2.722-1.345,3.4,3.4,0,0,0,.017,6.8,2.484,2.484,0,0,0,2.591-1.985h-2.848V95.443Z" fill="#1c425c"/>
        <path d="M777.271,93.026h-3.92v2h3.489V97.2h-3.489v2.129h4.065v2.192H771V90.85h6.273Z" fill="#1c425c"/>
      </g>
      <g>
        <path d="M1008.189,152.6h-2.8l-2.9-4.417-.752.8V152.6h-2.369V141.93h2.369v3.841l3.586-3.841h3.026l-4.243,4.529Z" fill="#1c425c"/>
        <path d="M1011.562,148.46a2.825,2.825,0,0,0,.209,1.44,1.848,1.848,0,0,0,1.553.768,1.9,1.9,0,0,0,1.569-.768,2.831,2.831,0,0,0,.207-1.44v-6.53h2.369v6.818a4.079,4.079,0,0,1-.481,2.16,4.381,4.381,0,0,1-7.314,0,4.079,4.079,0,0,1-.481-2.16V141.93h2.369Z" fill="#1c425c"/>
        <path d="M1019.514,141.93h2.64a4.767,4.767,0,0,1,2.465.511,3.031,3.031,0,0,1,1.5,2.53,2.432,2.432,0,0,1-.879,1.9,3.019,3.019,0,0,1,1.375,2.514,3.113,3.113,0,0,1-1.68,2.72,4.3,4.3,0,0,1-2.289.5h-3.136Zm2.816,4.273a1.946,1.946,0,0,0,1.041-.16,1.034,1.034,0,0,0,.527-.961c0-.783-.431-1.088-1.568-1.088h-.527V146.2Zm.24,4.289a2.371,2.371,0,0,0,1.186-.191,1.168,1.168,0,0,0,.047-1.985,2.766,2.766,0,0,0-1.377-.224h-.623v2.4Z" fill="#1c425c"/>
        <path d="M1034.348,144.1h-3.922v2h3.49v2.176h-3.49v2.129h4.066V152.6h-6.418V141.93h6.274Z" fill="#1c425c"/>
        <path d="M1039.18,148.876h-.305a1.077,1.077,0,0,1-.256.017h-.256V152.6h-2.369V141.93h2.625a5.1,5.1,0,0,1,2.545.511,3.446,3.446,0,0,1,1.68,2.994,3.291,3.291,0,0,1-1.408,2.768l2.48,4.4h-2.672Zm-.434-2.146c1.281,0,1.809-.382,1.809-1.295,0-.929-.559-1.345-1.809-1.345h-.4v2.64Z" fill="#1c425c"/>
        <path d="M1044.938,141.93h1.984l4.93,6.482V141.93h2.369V152.6h-1.985l-4.929-6.482V152.6h-2.369Z" fill="#1c425c"/>
        <path d="M1062.539,144.1h-3.922v2h3.49v2.176h-3.49v2.129h4.067V152.6h-6.418V141.93h6.273Z" fill="#1c425c"/>
        <path d="M1070.557,144.122h-2.5V152.6h-2.37v-8.483h-2.513V141.93h7.381Z" fill="#1c425c"/>
        <path d="M1077.676,144.1h-3.922v2h3.49v2.176h-3.49v2.129h4.066V152.6h-6.42V141.93h6.276Z" fill="#1c425c"/>
        <path d="M1084.219,145.051c-.641-.992-.912-1.2-1.569-1.2a1.085,1.085,0,0,0-1.136,1.056c0,.368.351.689,1.072.945l.961.368c1.871.705,2.721,1.68,2.721,3.121a3.631,3.631,0,0,1-3.793,3.537,3.714,3.714,0,0,1-2.914-1.313,4.628,4.628,0,0,1-.866-2.015l2.323-.625.031.129.064.256c.225.927.672,1.359,1.393,1.359a1.335,1.335,0,0,0,1.377-1.313c0-.479-.336-.767-1.328-1.152l-.93-.351c-1.664-.625-2.465-1.6-2.465-2.961a3.342,3.342,0,0,1,3.57-3.234,3.726,3.726,0,0,1,3.442,2.161Z" fill="#1c425c"/>
        <path d="M1021,164.523a3.327,3.327,0,1,0-2.672,5.346,3.425,3.425,0,0,0,2.721-1.473l1.68,1.569a5.639,5.639,0,1,1-4.37-9.108,5.539,5.539,0,0,1,4.323,2.081Z" fill="#1c425c"/>
        <path d="M1026.4,161.129v8.484h3.762v2.193h-6.131V161.129Z" fill="#1c425c"/>
        <path d="M1033.348,167.66a2.836,2.836,0,0,0,.207,1.441,1.849,1.849,0,0,0,1.552.768,1.9,1.9,0,0,0,1.569-.768,2.829,2.829,0,0,0,.209-1.441v-6.531h2.369v6.819a4.08,4.08,0,0,1-.481,2.161,4.381,4.381,0,0,1-7.314,0,4.081,4.081,0,0,1-.48-2.161v-6.819h2.369Z" fill="#1c425c"/>
        <path d="M1046.115,164.25c-.638-.992-.912-1.2-1.568-1.2a1.084,1.084,0,0,0-1.137,1.055c0,.369.354.689,1.072.945l.961.368c1.873.7,2.721,1.681,2.721,3.122a3.631,3.631,0,0,1-3.793,3.537,3.721,3.721,0,0,1-2.914-1.312,4.618,4.618,0,0,1-.863-2.018l2.32-.624.033.128.063.256c.224.929.674,1.361,1.392,1.361a1.332,1.332,0,0,0,1.377-1.312c0-.481-.336-.769-1.328-1.153l-.928-.352c-1.666-.624-2.464-1.6-2.464-2.962a3.34,3.34,0,0,1,3.568-3.233,3.724,3.724,0,0,1,3.441,2.161Z" fill="#1c425c"/>
        <path d="M1056.084,163.322h-2.5v8.484h-2.369v-8.484h-2.514v-2.193h7.379Z" fill="#1c425c"/>
        <path d="M1063.2,163.307h-3.922v2h3.49v2.177h-3.49v2.129h4.067v2.193h-6.418V161.129h6.273Z" fill="#1c425c"/>
        <path d="M1068.035,168.076h-.305a1.133,1.133,0,0,1-.255.016h-.256v3.714h-2.369V161.129h2.625a5.075,5.075,0,0,1,2.545.513,3.444,3.444,0,0,1,1.679,2.993,3.292,3.292,0,0,1-1.408,2.769l2.48,4.4H1070.1Zm-.433-2.144c1.281,0,1.808-.385,1.808-1.3,0-.928-.558-1.345-1.808-1.345h-.4v2.642Z" fill="#1c425c"/>
      </g>
      <polygon points="1074.801 194.837 1010.457 194.886 964.924 149.424 964.875 85.08 1010.337 39.547 1074.681 39.497 1120.214 84.96 1120.264 149.304 1074.801 194.837" fill="none" stroke="#1c425c" stroke-linecap="round" stroke-linejoin="round" stroke-width="5"/>
      <g>
        <path d="M405.167,137.93c3.569,0,5.874,2.1,5.874,5.33,0,3.25-2.305,5.345-5.874,5.345h-2.625V137.93Zm-.256,8.483h.3c2.144,0,3.457-1.184,3.457-3.138s-1.3-3.152-3.457-3.152h-.3Z" fill="#1c425c"/>
        <path d="M423.25,143.275a5.692,5.692,0,1,1-5.7-5.617A5.677,5.677,0,0,1,423.25,143.275Zm-9,.049a3.307,3.307,0,1,0,3.281-3.458A3.338,3.338,0,0,0,414.255,143.324Z" fill="#1c425c"/>
        <path d="M432.433,141.323a3.327,3.327,0,1,0-2.673,5.346,3.419,3.419,0,0,0,2.72-1.472l1.682,1.569a5.639,5.639,0,1,1-4.371-9.108,5.539,5.539,0,0,1,4.322,2.08Z" fill="#1c425c"/>
        <path d="M444.145,148.6h-2.8l-2.9-4.417-.752.8V148.6h-2.369V137.93H437.7v3.841l3.585-3.841h3.025l-4.242,4.529Z" fill="#1c425c"/>
        <path d="M451.424,140.106H447.5v2h3.489v2.177H447.5v2.129h4.065V148.6H445.15V137.93h6.274Z" fill="#1c425c"/>
        <path d="M456.255,144.877h-.3a1.138,1.138,0,0,1-.256.016h-.256V148.6H453.07V137.93H455.7a5.093,5.093,0,0,1,2.545.511,3.451,3.451,0,0,1,1.68,3,3.292,3.292,0,0,1-1.408,2.768l2.481,4.4H458.32Zm-.433-2.146c1.282,0,1.81-.383,1.81-1.295,0-.929-.561-1.346-1.81-1.346h-.4v2.641Z" fill="#1c425c"/>
        <path d="M398.071,164.076h-.3a1.082,1.082,0,0,1-.256.017h-.256v3.714h-2.369V157.13h2.625a5.075,5.075,0,0,1,2.545.513,3.443,3.443,0,0,1,1.679,2.992,3.29,3.29,0,0,1-1.408,2.769l2.482,4.4h-2.673Zm-.432-2.144c1.281,0,1.809-.384,1.809-1.3s-.56-1.344-1.809-1.344h-.4v2.641Z" fill="#1c425c"/>
        <path d="M410.105,159.307h-3.921v2h3.489v2.176h-3.489v2.129h4.065v2.194H403.83V157.13h6.275Z" fill="#1c425c"/>
        <path d="M421.947,161.724v1.1a5.821,5.821,0,0,1-.689,2.9,4.856,4.856,0,0,1-4.354,2.353,5.612,5.612,0,1,1-.015-11.221,5.945,5.945,0,0,1,4.385,1.985l-1.68,1.569a3.561,3.561,0,0,0-2.721-1.345,3.4,3.4,0,0,0,.016,6.8,2.485,2.485,0,0,0,2.592-1.984h-2.848v-2.161Z" fill="#1c425c"/>
        <path d="M425.783,167.807h-2.369V157.13h2.369Z" fill="#1c425c"/>
        <path d="M432.711,160.251c-.64-.992-.912-1.2-1.568-1.2a1.085,1.085,0,0,0-1.137,1.056c0,.368.352.688,1.073.944l.96.369c1.873.7,2.721,1.68,2.721,3.121a3.631,3.631,0,0,1-3.793,3.537,3.716,3.716,0,0,1-2.913-1.312,4.625,4.625,0,0,1-.865-2.017l2.321-.624.033.128.063.256c.224.929.673,1.36,1.393,1.36a1.332,1.332,0,0,0,1.376-1.312c0-.481-.336-.768-1.328-1.153l-.928-.351c-1.666-.625-2.466-1.6-2.466-2.962a3.342,3.342,0,0,1,3.57-3.234,3.725,3.725,0,0,1,3.441,2.162Z" fill="#1c425c"/>
        <path d="M442.68,159.322h-2.5v8.485h-2.37v-8.485H435.3V157.13h7.379Z" fill="#1c425c"/>
        <path d="M446.711,164.076h-.3a1.069,1.069,0,0,1-.257.017H445.9v3.714h-2.37V157.13h2.625a5.067,5.067,0,0,1,2.545.513,3.444,3.444,0,0,1,1.682,2.992,3.3,3.3,0,0,1-1.408,2.769l2.48,4.4h-2.674Zm-.432-2.144c1.281,0,1.809-.384,1.809-1.3s-.561-1.344-1.809-1.344h-.4v2.641Z" fill="#1c425c"/>
        <path d="M454.839,167.807H452.47V157.13h2.369Z" fill="#1c425c"/>
        <path d="M463.16,159.307h-3.922v2h3.49v2.176h-3.49v2.129H463.3v2.194h-6.419V157.13h6.275Z" fill="#1c425c"/>
        <path d="M469.7,160.251c-.641-.992-.912-1.2-1.568-1.2A1.085,1.085,0,0,0,467,160.107c0,.368.352.688,1.072.944l.961.369c1.873.7,2.721,1.68,2.721,3.121a3.631,3.631,0,0,1-3.793,3.537,3.719,3.719,0,0,1-2.914-1.312,4.613,4.613,0,0,1-.863-2.017l2.32-.624.032.128.064.256c.224.929.673,1.36,1.392,1.36a1.333,1.333,0,0,0,1.377-1.312c0-.481-.336-.768-1.328-1.153l-.929-.351c-1.665-.625-2.465-1.6-2.465-2.962a3.342,3.342,0,0,1,3.57-3.234,3.726,3.726,0,0,1,3.441,2.162Z" fill="#1c425c"/>
      </g>
      <circle cx="433.069" cy="117.192" r="78.133" fill="none" stroke="#1c425c" stroke-linecap="round" stroke-linejoin="round" stroke-width="5"/>
      <g>
        <line x1="957.646" y1="114.817" x2="511.069" y2="114.817" fill="none" stroke="#1c425c" stroke-linecap="round" stroke-linejoin="round" stroke-width="5" stroke-dasharray="8 14"/>
        <path d="M939.377,96.2l0,0a2.5,2.5,0,0,0,.128,3.536l16.226,15.078L939.5,129.9a2.5,2.5,0,0,0-.127,3.535l0,0a2.5,2.5,0,0,0,3.531.127l20.161-18.748L942.908,96.069A2.5,2.5,0,0,0,939.377,96.2Z" fill="#1c425c"/>
      </g>
      <g>
        <line x1="433.069" y1="369.03" x2="433.069" y2="293.53" fill="none" stroke="#1c425c" stroke-linecap="round" stroke-linejoin="round" stroke-width="5" stroke-dasharray="8 14"/>
        <polyline points="433.069 270.53 433.069 204.52 433.069 202.61" fill="none" stroke="#1c425c" stroke-linecap="round" stroke-linejoin="round" stroke-width="5" stroke-dasharray="8 14"/>
        <path d="M414.448,220.875l0,0a2.5,2.5,0,0,0,3.535-.128l15.078-16.226,15.084,16.227a2.5,2.5,0,0,0,3.534.127l0,0a2.5,2.5,0,0,0,.127-3.531l-18.748-20.161-18.743,20.161A2.5,2.5,0,0,0,414.448,220.875Z" fill="#1c425c"/>
      </g>
      <g>
        <path d="M360.9,396.052v1.242a6.56,6.56,0,0,1-.774,3.259,5.465,5.465,0,0,1-4.9,2.646,6.313,6.313,0,1,1-.017-12.621,6.686,6.686,0,0,1,4.933,2.233l-1.89,1.764a4.006,4.006,0,0,0-3.062-1.513,3.827,3.827,0,0,0,.019,7.653,2.8,2.8,0,0,0,2.916-2.233h-3.2v-2.43Z" fill="#1c425c"/>
        <path d="M370.514,398.9a4.339,4.339,0,1,1-4.285-4.285A4.277,4.277,0,0,1,370.514,398.9Zm-6.1,0a1.776,1.776,0,1,0,1.747-1.98A1.782,1.782,0,0,0,364.41,398.9Z" fill="#1c425c"/>
        <path d="M380.721,394.7a3.743,3.743,0,1,0-3.008,6.014,3.853,3.853,0,0,0,3.061-1.656l1.891,1.764a6.343,6.343,0,1,1-4.915-10.245,6.229,6.229,0,0,1,4.861,2.341Z" fill="#1c425c"/>
        <path d="M386.93,390.884c4.014,0,6.607,2.358,6.607,6,0,3.655-2.593,6.014-6.607,6.014h-2.953v-12.01Zm-.289,9.543h.341c2.414,0,3.89-1.332,3.89-3.53s-1.458-3.546-3.89-3.546h-.341Z" fill="#1c425c"/>
        <path d="M401.742,402.894h-2.664v-12.01h2.953a5.108,5.108,0,0,1,2.628.54,3.8,3.8,0,0,1,1.855,3.367,3.909,3.909,0,0,1-1.855,3.385,5.1,5.1,0,0,1-2.628.541h-.289Zm.45-6.609c1.225,0,1.747-.431,1.747-1.494,0-1.026-.522-1.477-1.747-1.477h-.467v2.971Z" fill="#1c425c"/>
        <path d="M410.383,402.894h-2.665v-12.01h2.665Z" fill="#1c425c"/>
        <path d="M415.35,402.894h-2.664v-12.01h2.953a5.112,5.112,0,0,1,2.629.54,3.8,3.8,0,0,1,1.853,3.367,3.91,3.91,0,0,1-1.853,3.385,5.1,5.1,0,0,1-2.629.541h-.289Zm.451-6.609c1.224,0,1.746-.431,1.746-1.494,0-1.026-.522-1.477-1.746-1.477h-.469v2.971Z" fill="#1c425c"/>
        <path d="M428.383,393.333h-4.41v2.25H427.9v2.449h-3.923v2.4h4.572v2.467h-7.22v-12.01h7.058Z" fill="#1c425c"/>
        <path d="M432.9,390.884v9.543h4.231v2.467h-6.9v-12.01Z" fill="#1c425c"/>
        <path d="M440.928,402.894h-2.664v-12.01h2.664Z" fill="#1c425c"/>
        <path d="M443.23,390.884h2.233l5.547,7.292v-7.292h2.664v12.01h-2.233L445.9,395.6v7.292H443.23Z" fill="#1c425c"/>
        <path d="M463.033,393.333h-4.412v2.25h3.926v2.449h-3.926v2.4H463.2v2.467h-7.22v-12.01h7.058Z" fill="#1c425c"/>
        <path d="M467.64,396.609a1.523,1.523,0,1,1-1.531-1.476A1.5,1.5,0,0,1,467.64,396.609Zm0,5.079a1.523,1.523,0,1,1-1.513-1.477A1.5,1.5,0,0,1,467.64,401.688Z" fill="#1c425c"/>
        <path d="M473.6,390.884h2.97a5.352,5.352,0,0,1,2.774.576,3.41,3.41,0,0,1,1.692,2.845,2.734,2.734,0,0,1-.99,2.142,3.4,3.4,0,0,1,1.548,2.827,3.5,3.5,0,0,1-1.89,3.061,4.84,4.84,0,0,1-2.575.559H473.6Zm3.17,4.807a2.194,2.194,0,0,0,1.17-.179,1.168,1.168,0,0,0,.593-1.081c0-.882-.486-1.224-1.763-1.224h-.6v2.484Zm.269,4.826a2.649,2.649,0,0,0,1.332-.216,1.314,1.314,0,0,0,.055-2.233,3.112,3.112,0,0,0-1.549-.252h-.7v2.7Z" fill="#1c425c"/>
        <path d="M485.891,398.23a3.186,3.186,0,0,0,.234,1.621,2.083,2.083,0,0,0,1.746.864,2.142,2.142,0,0,0,1.766-.864,3.2,3.2,0,0,0,.233-1.621v-7.346h2.665v7.671a4.579,4.579,0,0,1-.541,2.43,4.929,4.929,0,0,1-8.228,0,4.6,4.6,0,0,1-.539-2.43v-7.671h2.664Z" fill="#1c425c"/>
        <path d="M497.5,402.894h-2.664v-12.01H497.5Z" fill="#1c425c"/>
        <path d="M502.469,390.884v9.543h4.23v2.467h-6.9v-12.01Z" fill="#1c425c"/>
        <path d="M510.785,390.884c4.015,0,6.608,2.358,6.608,6,0,3.655-2.593,6.014-6.608,6.014h-2.953v-12.01Zm-.289,9.543h.342c2.413,0,3.89-1.332,3.89-3.53s-1.458-3.546-3.89-3.546H510.5Z" fill="#1c425c"/>
      </g>
      <g>
        <g>
          <g>
            <path d="M290.805,448.5h2.311a4.16,4.16,0,0,1,2.157.448,2.651,2.651,0,0,1,1.317,2.213,2.128,2.128,0,0,1-.77,1.667,2.645,2.645,0,0,1,1.2,2.2,2.724,2.724,0,0,1-1.47,2.381,3.756,3.756,0,0,1-2,.435h-2.746Zm2.466,3.74a1.706,1.706,0,0,0,.911-.14.908.908,0,0,0,.461-.841c0-.686-.377-.952-1.372-.952h-.462v1.933Zm.209,3.754a2.071,2.071,0,0,0,1.038-.168,1.024,1.024,0,0,0,.041-1.737,2.412,2.412,0,0,0-1.205-.2h-.545v2.1Z" fill="#1c425c"/>
            <path d="M300.368,454.213a2.465,2.465,0,0,0,.183,1.261,1.616,1.616,0,0,0,1.357.672,1.661,1.661,0,0,0,1.373-.672,2.465,2.465,0,0,0,.183-1.261V448.5h2.073v5.967a3.582,3.582,0,0,1-.42,1.891,3.835,3.835,0,0,1-6.4,0,3.573,3.573,0,0,1-.42-1.891V448.5h2.073Z" fill="#1c425c"/>
            <path d="M309.4,457.841h-2.074V448.5H309.4Z" fill="#1c425c"/>
            <path d="M313.262,448.5v7.424h3.291v1.919h-5.365V448.5Z" fill="#1c425c"/>
            <path d="M319.73,448.5c3.124,0,5.141,1.835,5.141,4.664,0,2.844-2.017,4.679-5.141,4.679h-2.3V448.5Zm-.224,7.424h.265c1.877,0,3.026-1.037,3.026-2.745,0-1.724-1.134-2.76-3.026-2.76h-.265Z" fill="#1c425c"/>
          </g>
          <rect x="265.569" y="421.35" width="84" height="63.36" fill="none" stroke="#1c425c" stroke-linecap="round" stroke-linejoin="round" stroke-width="5"/>
        </g>
        <g>
          <g>
            <path d="M425.961,450.417h-2.186v7.424H421.7v-7.424h-2.2V448.5h6.457Z" fill="#1c425c"/>
            <path d="M432.19,450.4h-3.431v1.751h3.053v1.906h-3.053v1.863h3.557v1.919H426.7V448.5h5.491Z" fill="#1c425c"/>
            <path d="M437.916,451.229c-.561-.869-.8-1.05-1.373-1.05a.949.949,0,0,0-.994.925c0,.322.308.6.938.826l.841.322c1.639.616,2.381,1.471,2.381,2.731a3.178,3.178,0,0,1-3.32,3.1,3.253,3.253,0,0,1-2.549-1.148,4.064,4.064,0,0,1-.757-1.766l2.031-.546.029.112.055.224c.2.813.589,1.191,1.219,1.191a1.166,1.166,0,0,0,1.2-1.149c0-.42-.293-.672-1.162-1.009l-.813-.307c-1.457-.546-2.157-1.4-2.157-2.592a2.924,2.924,0,0,1,3.124-2.829,3.261,3.261,0,0,1,3.012,1.89Z" fill="#1c425c"/>
            <path d="M446.639,450.417h-2.186v7.424h-2.072v-7.424h-2.2V448.5h6.457Z" fill="#1c425c"/>
          </g>
          <rect x="391.069" y="421.35" width="84" height="63.36" fill="none" stroke="#1c425c" stroke-linecap="round" stroke-linejoin="round" stroke-width="5"/>
        </g>
        <g>
          <g>
            <path d="M536.6,449.941h-2.073V440.6h2.3a3.975,3.975,0,0,1,2.045.42,2.953,2.953,0,0,1,1.444,2.619,3.041,3.041,0,0,1-1.444,2.633,3.975,3.975,0,0,1-2.045.42H536.6Zm.35-5.14c.952,0,1.359-.336,1.359-1.163,0-.8-.407-1.149-1.359-1.149h-.364V444.8Z" fill="#1c425c"/>
            <path d="M543.276,446.313a2.462,2.462,0,0,0,.183,1.261,1.615,1.615,0,0,0,1.357.672,1.66,1.66,0,0,0,1.373-.672,2.462,2.462,0,0,0,.183-1.261V440.6h2.073v5.966a3.586,3.586,0,0,1-.42,1.892,3.835,3.835,0,0,1-6.4,0,3.577,3.577,0,0,1-.42-1.892V440.6h2.073Z" fill="#1c425c"/>
            <path d="M550.232,440.6h2.312a4.15,4.15,0,0,1,2.157.448,2.652,2.652,0,0,1,1.317,2.213,2.13,2.13,0,0,1-.77,1.667,2.642,2.642,0,0,1,1.2,2.2,2.727,2.727,0,0,1-1.471,2.381,3.76,3.76,0,0,1-2,.434h-2.747Zm2.466,3.74a1.689,1.689,0,0,0,.911-.141.907.907,0,0,0,.461-.841c0-.685-.377-.952-1.372-.952h-.462v1.934Zm.21,3.754a2.064,2.064,0,0,0,1.037-.168,1.022,1.022,0,0,0,.041-1.737,2.4,2.4,0,0,0-1.2-.2h-.546v2.1Z" fill="#1c425c"/>
            <path d="M559.8,440.6v7.423h3.292v1.919h-5.365V440.6Z" fill="#1c425c"/>
            <path d="M566.04,449.941h-2.073V440.6h2.073Z" fill="#1c425c"/>
            <path d="M572.1,443.33c-.561-.869-.8-1.051-1.374-1.051a.95.95,0,0,0-.994.925c0,.322.308.6.938.826l.841.323c1.638.616,2.381,1.47,2.381,2.731a3.178,3.178,0,0,1-3.32,3.1,3.254,3.254,0,0,1-2.549-1.149,4.031,4.031,0,0,1-.757-1.765l2.031-.546.029.112.055.224c.2.812.589,1.19,1.219,1.19a1.167,1.167,0,0,0,1.2-1.148c0-.42-.294-.672-1.163-1.009l-.812-.308c-1.457-.546-2.158-1.4-2.158-2.592a2.925,2.925,0,0,1,3.125-2.829,3.261,3.261,0,0,1,3.011,1.891Z" fill="#1c425c"/>
            <path d="M577.324,444.254h3.207V440.6H582.6v9.342h-2.073v-3.767h-3.207v3.767H575.25V440.6h2.074Z" fill="#1c425c"/>
            <path d="M541.086,464.741h-2.074V455.4h2.074Z" fill="#1c425c"/>
            <path d="M542.876,455.4h1.9l2.8,4.874,2.788-4.874h1.9v9.343H550.2v-5.182l-1.878,3.319H546.84l-1.891-3.319v5.182h-2.073Z" fill="#1c425c"/>
            <path d="M555.911,462.682l-.714,2.059h-2.185L556.5,455.4h2.381l3.488,9.343h-2.2l-.715-2.059Zm1.765-5.071-1.092,3.152h2.2Z" fill="#1c425c"/>
            <path d="M571.707,459.418v.967a5.1,5.1,0,0,1-.6,2.535,4.251,4.251,0,0,1-3.809,2.059,4.911,4.911,0,1,1-.014-9.819,5.2,5.2,0,0,1,3.838,1.737l-1.471,1.373a3.112,3.112,0,0,0-2.381-1.177,2.977,2.977,0,0,0,.014,5.953,2.176,2.176,0,0,0,2.269-1.736h-2.493v-1.892Z" fill="#1c425c"/>
            <path d="M578.48,457.3h-3.431v1.751H578.1v1.905h-3.054v1.863h3.558v1.919H572.99V455.4h5.49Z" fill="#1c425c"/>
          </g>
          <rect x="516.569" y="421.35" width="84" height="63.36" fill="none" stroke="#1c425c" stroke-linecap="round" stroke-linejoin="round" stroke-width="5"/>
        </g>
      </g>
      <path d="M614.07,368.03H270.92a18.692,18.692,0,0,1,.19,2.71,19.286,19.286,0,0,1-.14,2.29h340.6v128.5h-357V389.92a19.391,19.391,0,0,1-5,.09V504.03a2.5,2.5,0,0,0,2.5,2.5h362a2.5,2.5,0,0,0,2.5-2.5V370.53A2.5,2.5,0,0,0,614.07,368.03Z" fill="#1c425c"/>
      <g>
        <polyline points="358.819 442.766 369.464 453.411 358.819 464.057" fill="none" stroke="#1c425c" stroke-linecap="round" stroke-linejoin="round" stroke-width="5"/>
        <polyline points="370.674 442.766 381.319 453.411 370.674 464.057" fill="none" stroke="#1c425c" stroke-linecap="round" stroke-linejoin="round" stroke-width="5"/>
      </g>
      <g>
        <polyline points="484.819 442.384 495.464 453.03 484.819 463.675" fill="none" stroke="#1c425c" stroke-linecap="round" stroke-linejoin="round" stroke-width="5"/>
        <polyline points="496.674 442.384 507.319 453.03 496.674 463.675" fill="none" stroke="#1c425c" stroke-linecap="round" stroke-linejoin="round" stroke-width="5"/>
      </g>
      <g>
        <g>
          <path d="M703.54,396.05v2.43h3.2a2.784,2.784,0,0,1-2.91,2.23,3.825,3.825,0,0,1-.02-7.65,4,4,0,0,1,3.06,1.52l1.89-1.77a6.692,6.692,0,0,0-4.93-2.23,6.312,6.312,0,1,0,.02,12.62,5.446,5.446,0,0,0,4.89-2.65,6.5,6.5,0,0,0,.78-3.26v-1.24Z" fill="#1c425c"/>
          <path d="M714.84,394.61a4.3,4.3,0,1,0,4.29,4.29A4.269,4.269,0,0,0,714.84,394.61Zm-.05,6.28a2,2,0,1,1,1.76-1.99A1.783,1.783,0,0,1,714.79,400.89Z" fill="#1c425c"/>
          <path d="M729.39,399.06a3.862,3.862,0,0,1-3.06,1.65,3.827,3.827,0,1,1,3-6.01l1.89-1.78a6.207,6.207,0,0,0-4.86-2.34,6.31,6.31,0,1,0,4.92,10.24Z" fill="#1c425c"/>
          <path d="M735.54,390.88h-2.95v12.01h2.95c4.02,0,6.61-2.35,6.61-6.01C742.15,393.24,739.56,390.88,735.54,390.88Zm.06,9.55h-.35v-7.08h.35c2.43,0,3.88,1.33,3.88,3.55C739.48,399.09,738.01,400.43,735.6,400.43Z" fill="#1c425c"/>
          <path d="M753.27,391.42a5.184,5.184,0,0,0-2.63-.54h-2.95v12.01h2.67v-4.17h.28a5.184,5.184,0,0,0,2.63-.54,3.918,3.918,0,0,0,1.86-3.39A3.815,3.815,0,0,0,753.27,391.42Zm-2.47,4.87h-.46v-2.98h.46c1.23,0,1.75.45,1.75,1.48C752.55,395.85,752.03,396.29,750.8,396.29Z" fill="#1c425c"/>
          <path d="M756.33,390.88v12.01H759V390.88Z" fill="#1c425c"/>
          <path d="M766.88,391.42a5.209,5.209,0,0,0-2.63-.54H761.3v12.01h2.66v-4.17h.29a5.209,5.209,0,0,0,2.63-.54,3.931,3.931,0,0,0,1.85-3.39A3.807,3.807,0,0,0,766.88,391.42Zm-2.47,4.87h-.46v-2.98h.46c1.23,0,1.75.45,1.75,1.48C766.16,395.85,765.64,396.29,764.41,396.29Z" fill="#1c425c"/>
          <path d="M772.58,400.43v-2.4h3.93v-2.45h-3.93v-2.25H777v-2.45h-7.06v12.01h7.22v-2.46Z" fill="#1c425c"/>
          <path d="M781.51,400.43v-9.55h-2.66v12.01h6.89v-2.46Z" fill="#1c425c"/>
          <path d="M786.88,390.88v12.01h2.66V390.88Z" fill="#1c425c"/>
          <path d="M799.62,390.88v7.3l-5.54-7.3h-2.24v12.01h2.67V395.6l5.54,7.29h2.24V390.88Z" fill="#1c425c"/>
          <path d="M807.23,400.43v-2.4h3.93v-2.45h-3.93v-2.25h4.42v-2.45h-7.06v12.01h7.22v-2.46Z" fill="#1c425c"/>
          <path d="M814.74,400.21a1.475,1.475,0,1,0,1.51,1.48A1.5,1.5,0,0,0,814.74,400.21Zm-.02-5.08a1.481,1.481,0,1,0,1.53,1.48A1.494,1.494,0,0,0,814.72,395.13Z" fill="#1c425c"/>
          <path d="M825.16,390.88h-2.95v12.01h2.95c4.02,0,6.61-2.35,6.61-6.01C831.77,393.24,829.18,390.88,825.16,390.88Zm.06,9.55h-.35v-7.08h.35c2.43,0,3.89,1.33,3.89,3.55C829.11,399.09,827.63,400.43,825.22,400.43Z" fill="#1c425c"/>
          <path d="M836.05,400.43v-2.4h3.93v-2.45h-3.93v-2.25h4.41v-2.45H833.4v12.01h7.22v-2.46Z" fill="#1c425c"/>
          <path d="M847.9,391.42a5.209,5.209,0,0,0-2.63-.54h-2.96v12.01h2.67v-4.17h.29a5.209,5.209,0,0,0,2.63-.54,3.931,3.931,0,0,0,1.85-3.39A3.807,3.807,0,0,0,847.9,391.42Zm-2.47,4.87h-.47v-2.98h.47c1.22,0,1.75.45,1.75,1.48C847.18,395.85,846.65,396.29,845.43,396.29Z" fill="#1c425c"/>
          <path d="M853.62,400.43v-9.55h-2.66v12.01h6.89v-2.46Z" fill="#1c425c"/>
          <path d="M864.4,390.58a6.311,6.311,0,1,0,6.41,6.32A6.413,6.413,0,0,0,864.4,390.58Zm0,10.13a3.826,3.826,0,1,1,3.73-3.81A3.791,3.791,0,0,1,864.4,400.71Z" fill="#1c425c"/>
          <path d="M878.06,390.88l-2.39,4.31-2.38-4.31H870.3l4.04,7.06v4.95H877v-4.95l4.04-7.06Z" fill="#1c425c"/>
          <path d="M884.52,390.88v2.47h2.83v9.54h2.67v-9.54h2.8v-2.47Z" fill="#1c425c"/>
          <path d="M899.3,390.58a6.311,6.311,0,1,0,6.41,6.32A6.42,6.42,0,0,0,899.3,390.58Zm0,10.13a3.826,3.826,0,1,1,3.73-3.81A3.791,3.791,0,0,1,899.3,400.71Z" fill="#1c425c"/>
          <path d="M915.99,395.71l-1.08-.42c-.81-.28-1.21-.64-1.21-1.06a1.227,1.227,0,0,1,1.28-1.19c.74,0,1.05.24,1.77,1.35l2.19-1.38a4.186,4.186,0,0,0-3.87-2.43,3.756,3.756,0,0,0-4.02,3.63c0,1.54.91,2.63,2.78,3.34l1.04.39c1.12.43,1.5.76,1.5,1.3a1.5,1.5,0,0,1-1.55,1.47c-.81,0-1.32-.48-1.57-1.53l-.07-.28-.04-.15-2.61.7a5.2,5.2,0,0,0,.98,2.27,4.17,4.17,0,0,0,3.27,1.48,4.086,4.086,0,0,0,4.27-3.98C919.05,397.6,918.1,396.5,915.99,395.71Z" fill="#1c425c"/>
          <path d="M919.66,390.88v2.47h2.83v9.54h2.66v-9.54h2.81v-2.47Z" fill="#1c425c"/>
          <path d="M934.4,390.88h-3.06l-4.48,12.01h2.81l.92-2.64h4.55l.92,2.64h2.83Zm-2.95,6.9,1.4-4.05,1.43,4.05Z" fill="#1c425c"/>
          <path d="M944.92,396.05v2.43h3.2a2.8,2.8,0,0,1-2.92,2.23,3.825,3.825,0,0,1-.01-7.65,4.011,4.011,0,0,1,3.06,1.52l1.89-1.77a6.7,6.7,0,0,0-4.94-2.23,6.312,6.312,0,1,0,.02,12.62,5.462,5.462,0,0,0,4.9-2.65,6.6,6.6,0,0,0,.77-3.26v-1.24Z" fill="#1c425c"/>
          <path d="M952.54,390.88v12.01h2.67V390.88Z" fill="#1c425c"/>
          <path d="M965.29,390.88v7.3l-5.54-7.3h-2.24v12.01h2.67V395.6l5.54,7.29h2.24V390.88Z" fill="#1c425c"/>
          <path d="M975.77,396.05v2.43h3.2a2.8,2.8,0,0,1-2.92,2.23,3.825,3.825,0,0,1-.01-7.65,4.011,4.011,0,0,1,3.06,1.52l1.89-1.77a6.7,6.7,0,0,0-4.94-2.23,6.312,6.312,0,1,0,.02,12.62,5.462,5.462,0,0,0,4.9-2.65,6.6,6.6,0,0,0,.77-3.26v-1.24Z" fill="#1c425c"/>
        </g>
        <g>
          <g>
            <g>
              <path d="M729.54,439.1h-2.3v9.34h2.3c3.12,0,5.14-1.83,5.14-4.68C734.68,440.93,732.66,439.1,729.54,439.1Zm.04,7.42h-.27v-5.5h.27c1.89,0,3.02,1.03,3.02,2.76C732.6,445.49,731.46,446.52,729.58,446.52Z" fill="#1c425c"/>
              <path d="M738.01,446.52v-1.86h3.05v-1.91h-3.05V441h3.43v-1.9h-5.49v9.34h5.61v-1.92Z" fill="#1c425c"/>
              <path d="M747.22,439.52a3.941,3.941,0,0,0-2.05-.42h-2.29v9.34h2.07v-3.25h.22a3.941,3.941,0,0,0,2.05-.42,3.049,3.049,0,0,0,1.44-2.63A2.942,2.942,0,0,0,747.22,439.52Zm-1.92,3.78h-.36v-2.31h.36c.95,0,1.36.35,1.36,1.15C746.66,442.96,746.25,443.3,745.3,443.3Z" fill="#1c425c"/>
              <path d="M751.67,446.52V439.1H749.6v9.34h5.36v-1.92Z" fill="#1c425c"/>
              <path d="M760.06,438.86a4.911,4.911,0,1,0,4.98,4.92A5,5,0,0,0,760.06,438.86Zm0,7.89a2.959,2.959,0,0,1-2.89-2.93,2.9,2.9,0,1,1,5.79-.04A2.956,2.956,0,0,1,760.06,446.75Z" fill="#1c425c"/>
              <path d="M770.68,439.1l-1.86,3.35-1.85-3.35h-2.32l3.13,5.49v3.85h2.08v-3.85l3.13-5.49Z" fill="#1c425c"/>
              <path d="M775.71,439.1v1.92h2.19v7.42h2.08v-7.42h2.18V439.1Z" fill="#1c425c"/>
              <path d="M787.2,438.86a4.911,4.911,0,1,0,4.99,4.92A5,5,0,0,0,787.2,438.86Zm0,7.89a2.957,2.957,0,0,1-2.88-2.93,2.891,2.891,0,1,1,2.88,2.93Z" fill="#1c425c"/>
              <path d="M735.97,459.65l-.84-.32c-.63-.22-.94-.5-.94-.83a.95.95,0,0,1,1-.92c.57,0,.81.18,1.37,1.05l1.71-1.08a3.266,3.266,0,0,0-3.01-1.89,2.93,2.93,0,0,0-3.13,2.83c0,1.19.7,2.04,2.16,2.59l.81.31c.87.34,1.16.59,1.16,1.01a1.168,1.168,0,0,1-1.2,1.15c-.63,0-1.02-.38-1.22-1.19l-.05-.23-.03-.11-2.03.55a4.1,4.1,0,0,0,.75,1.76,3.272,3.272,0,0,0,2.55,1.15,3.181,3.181,0,0,0,3.32-3.1C738.35,461.12,737.61,460.27,735.97,459.65Z" fill="#1c425c"/>
              <path d="M738.82,455.9v1.92h2.2v7.42h2.08v-7.42h2.18V455.9Z" fill="#1c425c"/>
              <path d="M750.29,455.9h-2.38l-3.49,9.34h2.19l.71-2.06h3.55l.71,2.06h2.2Zm-2.3,5.36,1.1-3.15,1.1,3.15Z" fill="#1c425c"/>
              <path d="M758.47,459.92v1.89h2.49a2.175,2.175,0,0,1-2.27,1.74,2.98,2.98,0,0,1-.01-5.96,3.117,3.117,0,0,1,2.38,1.18l1.47-1.37a5.2,5.2,0,0,0-3.84-1.74,4.912,4.912,0,1,0,.02,9.82,4.27,4.27,0,0,0,3.81-2.06,5.13,5.13,0,0,0,.6-2.54v-.96Z" fill="#1c425c"/>
              <path d="M764.4,455.9v9.34h2.07V455.9Z" fill="#1c425c"/>
              <path d="M774.32,455.9v5.67L770,455.9h-1.73v9.34h2.07v-5.67l4.31,5.67h1.74V455.9Z" fill="#1c425c"/>
              <path d="M782.46,459.92v1.89h2.5a2.189,2.189,0,0,1-2.27,1.74,2.98,2.98,0,0,1-.02-5.96,3.1,3.1,0,0,1,2.38,1.18l1.48-1.37a5.2,5.2,0,0,0-3.84-1.74,4.912,4.912,0,1,0,.01,9.82,4.259,4.259,0,0,0,3.81-2.06,5.13,5.13,0,0,0,.6-2.54v-.96Z" fill="#1c425c"/>
            </g>
            <path d="M818.24,418.85H700.64a2.5,2.5,0,0,0-2.5,2.5v63.36a2.5,2.5,0,0,0,2.5,2.5h117.6a2.5,2.5,0,0,0,2.5-2.5V421.35A2.5,2.5,0,0,0,818.24,418.85Zm-2.5,63.36H703.14V423.85h112.6Z" fill="#1c425c"/>
          </g>
          <g>
            <g>
              <path d="M884.61,441.02a3.878,3.878,0,0,0-2.04-.42h-2.3v9.34h2.07v-3.25h.23a3.878,3.878,0,0,0,2.04-.42,3.036,3.036,0,0,0,1.45-2.63A2.95,2.95,0,0,0,884.61,441.02Zm-1.91,3.78h-.37v-2.31h.37c.95,0,1.35.35,1.35,1.15C884.05,444.46,883.65,444.8,882.7,444.8Z" fill="#1c425c"/>
              <path d="M891.53,440.36a4.911,4.911,0,1,0,4.99,4.92A4.989,4.989,0,0,0,891.53,440.36Zm0,7.89a2.959,2.959,0,0,1-2.89-2.93,2.9,2.9,0,1,1,2.89,2.93Z" fill="#1c425c"/>
              <path d="M901.34,444.35l-.84-.32c-.63-.22-.94-.5-.94-.83a.956.956,0,0,1,1-.92c.57,0,.81.18,1.37,1.05l1.71-1.08a3.257,3.257,0,0,0-3.01-1.89,2.93,2.93,0,0,0-3.13,2.83c0,1.19.71,2.05,2.16,2.59l.81.31c.87.34,1.17.59,1.17,1.01a1.171,1.171,0,0,1-1.21,1.15c-.63,0-1.02-.38-1.22-1.19l-.05-.23-.03-.11-2.03.55a3.987,3.987,0,0,0,.76,1.76,3.22,3.22,0,0,0,2.54,1.15,3.175,3.175,0,0,0,3.32-3.1C903.72,445.82,902.98,444.97,901.34,444.35Z" fill="#1c425c"/>
              <path d="M904.2,440.6v1.92h2.2v7.42h2.07v-7.42h2.18V440.6Z" fill="#1c425c"/>
              <path d="M916.77,440.6h-2.3v9.34h2.3c3.12,0,5.14-1.83,5.14-4.68C921.91,442.43,919.89,440.6,916.77,440.6Zm.04,7.42h-.26v-5.5h.26c1.89,0,3.03,1.03,3.03,2.76C919.84,446.99,918.69,448.02,916.81,448.02Z" fill="#1c425c"/>
              <path d="M925.24,448.02v-1.86h3.05v-1.91h-3.05V442.5h3.43v-1.9h-5.49v9.34h5.62v-1.92Z" fill="#1c425c"/>
              <path d="M934.45,441.02a3.9,3.9,0,0,0-2.04-.42h-2.3v9.34h2.07v-3.25h.23a3.9,3.9,0,0,0,2.04-.42,3.057,3.057,0,0,0,1.45-2.63A2.95,2.95,0,0,0,934.45,441.02Zm-1.92,3.78h-.36v-2.31h.36c.96,0,1.36.35,1.36,1.15C933.89,444.46,933.49,444.8,932.53,444.8Z" fill="#1c425c"/>
              <path d="M938.9,448.02V440.6h-2.07v9.34h5.37v-1.92Z" fill="#1c425c"/>
              <path d="M947.29,440.36a4.911,4.911,0,1,0,4.99,4.92A5,5,0,0,0,947.29,440.36Zm0,7.89a2.957,2.957,0,0,1-2.88-2.93,2.891,2.891,0,1,1,2.88,2.93Z" fill="#1c425c"/>
              <path d="M957.92,440.6l-1.87,3.35-1.84-3.35h-2.33l3.14,5.49v3.85h2.07v-3.85l3.14-5.49Z" fill="#1c425c"/>
              <path d="M883.09,455.4l-2.12,6.43-2.13-6.43h-2.18l3.12,9.34h2.37l3.12-9.34Z" fill="#1c425c"/>
              <path d="M888.07,462.82v-1.86h3.05v-1.91h-3.05V457.3h3.43v-1.9h-5.49v9.34h5.62v-1.92Z" fill="#1c425c"/>
              <path d="M897.7,460.89a2.871,2.871,0,0,0,1.24-2.42,3.006,3.006,0,0,0-1.47-2.62,4.448,4.448,0,0,0-2.23-.45h-2.3v9.34h2.07v-3.25h.23a1.284,1.284,0,0,0,.22-.01h.27l1.81,3.26h2.34Zm-2.35-1.29H895v-2.31h.35c1.09,0,1.58.36,1.58,1.18C896.93,459.26,896.47,459.6,895.35,459.6Z" fill="#1c425c"/>
              <path d="M900.77,455.4v9.34h2.07V455.4Z" fill="#1c425c"/>
              <path d="M909.83,457.3v-1.9h-5.2v9.34h2.08v-3.77h2.84v-1.92h-2.84V457.3Z" fill="#1c425c"/>
              <path d="M911.04,455.4v9.34h2.08V455.4Z" fill="#1c425c"/>
              <path d="M921.73,461.76a3,3,0,0,1-2.38,1.29,2.982,2.982,0,1,1,2.34-4.68l1.47-1.39a4.854,4.854,0,0,0-3.78-1.82,4.91,4.91,0,1,0,3.82,7.97Z" fill="#1c425c"/>
              <path d="M929.23,455.4h-2.38l-3.49,9.34h2.19l.71-2.06h3.55l.71,2.06h2.2Zm-2.3,5.36,1.1-3.15,1.1,3.15Z" fill="#1c425c"/>
              <path d="M931.85,455.4v1.92h2.19v7.42h2.08v-7.42h2.18V455.4Z" fill="#1c425c"/>
              <path d="M939.04,455.4v9.34h2.08V455.4Z" fill="#1c425c"/>
              <path d="M947.35,455.16a4.911,4.911,0,1,0,4.98,4.92A5,5,0,0,0,947.35,455.16Zm0,7.89a2.959,2.959,0,0,1-2.89-2.93,2.9,2.9,0,1,1,5.79-.04A2.956,2.956,0,0,1,947.35,463.05Z" fill="#1c425c"/>
              <path d="M959.64,455.4v5.67l-4.32-5.67h-1.73v9.34h2.07v-5.67l4.31,5.67h1.74V455.4Z" fill="#1c425c"/>
            </g>
            <path d="M978.49,418.85H860.89a2.5,2.5,0,0,0-2.5,2.5v63.36a2.5,2.5,0,0,0,2.5,2.5h117.6a2.5,2.5,0,0,0,2.5-2.5V421.35A2.5,2.5,0,0,0,978.49,418.85Zm-2.5,63.36H863.39V423.85h112.6Z" fill="#1c425c"/>
          </g>
          <g>
            <path d="M828.444,466.175a2.5,2.5,0,0,1-1.767-4.268l8.878-8.878-8.878-8.877a2.5,2.5,0,0,1,3.535-3.535l10.645,10.645a2.5,2.5,0,0,1,0,3.535l-10.645,10.645A2.489,2.489,0,0,1,828.444,466.175Z" fill="#1c425c"/>
            <path d="M840.3,466.175a2.5,2.5,0,0,1-1.768-4.268l8.878-8.878-8.878-8.877a2.5,2.5,0,0,1,3.535-3.535l10.646,10.645a2.5,2.5,0,0,1,0,3.535l-10.646,10.645A2.489,2.489,0,0,1,840.3,466.175Z" fill="#1c425c"/>
          </g>
        </g>
      </g>
      <g>
        <g>
          <path d="M1092.67,396.05v2.43h3.21a2.8,2.8,0,0,1-2.92,2.23,3.825,3.825,0,0,1-.02-7.65,4,4,0,0,1,3.06,1.52l1.89-1.77a6.692,6.692,0,0,0-4.93-2.23,6.312,6.312,0,1,0,.02,12.62,5.446,5.446,0,0,0,4.89-2.65,6.5,6.5,0,0,0,.78-3.26v-1.24Z" fill="#1c425c"/>
          <path d="M1103.97,394.61a4.3,4.3,0,1,0,4.29,4.29A4.269,4.269,0,0,0,1103.97,394.61Zm-.05,6.28a2,2,0,1,1,1.76-1.99A1.783,1.783,0,0,1,1103.92,400.89Z" fill="#1c425c"/>
          <path d="M1118.52,399.06a3.862,3.862,0,0,1-3.06,1.65,3.827,3.827,0,1,1,3-6.01l1.89-1.78a6.193,6.193,0,0,0-4.86-2.34,6.31,6.31,0,1,0,4.92,10.24Z" fill="#1c425c"/>
          <path d="M1124.67,390.88h-2.95v12.01h2.95c4.02,0,6.61-2.35,6.61-6.01C1131.28,393.24,1128.69,390.88,1124.67,390.88Zm.06,9.55h-.35v-7.08h.35c2.43,0,3.89,1.33,3.89,3.55C1128.62,399.09,1127.14,400.43,1124.73,400.43Z" fill="#1c425c"/>
          <path d="M1142.4,391.42a5.184,5.184,0,0,0-2.63-.54h-2.95v12.01h2.67v-4.17h.28a5.184,5.184,0,0,0,2.63-.54,3.918,3.918,0,0,0,1.86-3.39A3.815,3.815,0,0,0,1142.4,391.42Zm-2.46,4.87h-.47v-2.98h.47c1.22,0,1.74.45,1.74,1.48C1141.68,395.85,1141.16,396.29,1139.94,396.29Z" fill="#1c425c"/>
          <path d="M1145.46,390.88v12.01h2.67V390.88Z" fill="#1c425c"/>
          <path d="M1156.01,391.42a5.209,5.209,0,0,0-2.63-.54h-2.95v12.01h2.66v-4.17h.29a5.209,5.209,0,0,0,2.63-.54,3.94,3.94,0,0,0,1.86-3.39A3.815,3.815,0,0,0,1156.01,391.42Zm-2.47,4.87h-.46v-2.98h.46c1.23,0,1.75.45,1.75,1.48C1155.29,395.85,1154.77,396.29,1153.54,396.29Z" fill="#1c425c"/>
          <path d="M1161.71,400.43v-2.4h3.93v-2.45h-3.93v-2.25h4.42v-2.45h-7.06v12.01h7.22v-2.46Z" fill="#1c425c"/>
          <path d="M1170.64,400.43v-9.55h-2.66v12.01h6.9v-2.46Z" fill="#1c425c"/>
          <path d="M1176.01,390.88v12.01h2.66V390.88Z" fill="#1c425c"/>
          <path d="M1188.75,390.88v7.3l-5.54-7.3h-2.24v12.01h2.67V395.6l5.54,7.29h2.24V390.88Z" fill="#1c425c"/>
          <path d="M1196.37,400.43v-2.4h3.92v-2.45h-3.92v-2.25h4.41v-2.45h-7.06v12.01h7.22v-2.46Z" fill="#1c425c"/>
          <path d="M1203.87,400.21a1.475,1.475,0,1,0,1.51,1.48A1.5,1.5,0,0,0,1203.87,400.21Zm-.02-5.08a1.481,1.481,0,1,0,1.53,1.48A1.494,1.494,0,0,0,1203.85,395.13Z" fill="#1c425c"/>
          <path d="M1214.29,390.88h-2.95v12.01h2.95c4.02,0,6.61-2.35,6.61-6.01C1220.9,393.24,1218.31,390.88,1214.29,390.88Zm.06,9.55H1214v-7.08h.35c2.43,0,3.89,1.33,3.89,3.55C1218.24,399.09,1216.76,400.43,1214.35,400.43Z" fill="#1c425c"/>
          <path d="M1225.18,400.43v-2.4h3.93v-2.45h-3.93v-2.25h4.41v-2.45h-7.05v12.01h7.22v-2.46Z" fill="#1c425c"/>
          <path d="M1237.03,391.42a5.209,5.209,0,0,0-2.63-.54h-2.95v12.01h2.66v-4.17h.29a5.209,5.209,0,0,0,2.63-.54,3.931,3.931,0,0,0,1.85-3.39A3.807,3.807,0,0,0,1237.03,391.42Zm-2.47,4.87h-.47v-2.98h.47c1.22,0,1.75.45,1.75,1.48C1236.31,395.85,1235.78,396.29,1234.56,396.29Z" fill="#1c425c"/>
          <path d="M1242.75,400.43v-9.55h-2.67v12.01h6.9v-2.46Z" fill="#1c425c"/>
          <path d="M1253.53,390.58a6.311,6.311,0,1,0,6.41,6.32A6.413,6.413,0,0,0,1253.53,390.58Zm0,10.13a3.826,3.826,0,1,1,3.73-3.81A3.791,3.791,0,0,1,1253.53,400.71Z" fill="#1c425c"/>
          <path d="M1267.2,390.88l-2.4,4.31-2.38-4.31h-2.99l4.04,7.06v4.95h2.66v-4.95l4.04-7.06Z" fill="#1c425c"/>
          <path d="M1273.65,390.88v2.47h2.83v9.54h2.67v-9.54h2.8v-2.47Z" fill="#1c425c"/>
          <path d="M1288.43,390.58a6.311,6.311,0,1,0,6.41,6.32A6.42,6.42,0,0,0,1288.43,390.58Zm0,10.13a3.826,3.826,0,1,1,3.73-3.81A3.8,3.8,0,0,1,1288.43,400.71Z" fill="#1c425c"/>
          <path d="M1305.96,391.42a5.143,5.143,0,0,0-2.62-.54h-2.96v12.01h2.67v-4.17h.29a5.143,5.143,0,0,0,2.62-.54,3.918,3.918,0,0,0,1.86-3.39A3.8,3.8,0,0,0,1305.96,391.42Zm-2.46,4.87h-.47v-2.98h.47c1.22,0,1.75.45,1.75,1.48C1305.25,395.85,1304.72,396.29,1303.5,396.29Z" fill="#1c425c"/>
          <path d="M1315.15,397.94a3.7,3.7,0,0,0,1.58-3.11,3.87,3.87,0,0,0-1.89-3.37,5.655,5.655,0,0,0-2.86-.58h-2.96v12.01h2.67v-4.17h.29a1.1,1.1,0,0,0,.28-.02h.35l2.32,4.19h3.01Zm-3.03-1.65h-.45v-2.98h.45c1.41,0,2.04.47,2.04,1.52C1314.16,395.85,1313.56,396.29,1312.12,396.29Z" fill="#1c425c"/>
          <path d="M1324.61,390.58a6.311,6.311,0,1,0,6.41,6.32A6.413,6.413,0,0,0,1324.61,390.58Zm0,10.13a3.826,3.826,0,1,1,3.73-3.81A3.8,3.8,0,0,1,1324.61,400.71Z" fill="#1c425c"/>
          <path d="M1335.59,390.88h-2.95v12.01h2.95c4.02,0,6.61-2.35,6.61-6.01C1342.2,393.24,1339.61,390.88,1335.59,390.88Zm.06,9.55h-.35v-7.08h.35c2.43,0,3.89,1.33,3.89,3.55C1339.54,399.09,1338.06,400.43,1335.65,400.43Z" fill="#1c425c"/>
          <path d="M1350.46,390.88v7.35a3.2,3.2,0,0,1-.23,1.62,2.135,2.135,0,0,1-1.77.86,2.065,2.065,0,0,1-1.74-.86,3.167,3.167,0,0,1-.24-1.62v-7.35h-2.66v7.67a4.6,4.6,0,0,0,.54,2.44,4.936,4.936,0,0,0,8.23,0,4.7,4.7,0,0,0,.54-2.44v-7.67Z" fill="#1c425c"/>
          <path d="M1364.2,399.06a3.866,3.866,0,0,1-3.07,1.65,3.827,3.827,0,1,1,3.01-6.01l1.89-1.78a6.221,6.221,0,0,0-4.86-2.34,6.31,6.31,0,1,0,4.92,10.24Z" fill="#1c425c"/>
          <path d="M1366.57,390.88v2.47h2.83v9.54h2.66v-9.54h2.81v-2.47Z" fill="#1c425c"/>
          <path d="M1375.82,390.88v12.01h2.67V390.88Z" fill="#1c425c"/>
          <path d="M1386.5,390.58a6.311,6.311,0,1,0,6.41,6.32A6.422,6.422,0,0,0,1386.5,390.58Zm0,10.13a3.826,3.826,0,1,1,3.72-3.81A3.791,3.791,0,0,1,1386.5,400.71Z" fill="#1c425c"/>
          <path d="M1402.3,390.88v7.3l-5.55-7.3h-2.23v12.01h2.67V395.6l5.54,7.29h2.23V390.88Z" fill="#1c425c"/>
        </g>
        <path d="M1427.07,368.03H1084.03a19.383,19.383,0,1,0-21.46,20.98V504.03a2.5,2.5,0,0,0,2.5,2.5h362a2.5,2.5,0,0,0,2.5-2.5V370.53A2.5,2.5,0,0,0,1427.07,368.03Zm-364.5,11.65-2.47,1.65a2.406,2.406,0,0,1-1.33.4,2.38,2.38,0,0,1-2.4-2.4v-9.59a2.4,2.4,0,0,1,4.79,0v5.11l1.41-.94,6.25-4.17-2.56-1.71-8.83-5.89a2.4,2.4,0,1,1,2.66-3.99l14.39,9.6a2.3,2.3,0,0,1,.34.28,2.388,2.388,0,0,1-.34,3.71l-1.93,1.29-4.98,3.32Zm362,121.85h-357V388.92a19.428,19.428,0,0,0,16.26-15.89h340.74Z" fill="#1c425c"/>
        <g>
          <g>
            <g>
              <path d="M1135.91,439.1h-2.3v9.34h2.3c3.13,0,5.14-1.83,5.14-4.68C1141.05,440.93,1139.04,439.1,1135.91,439.1Zm.04,7.42h-.26v-5.5h.26c1.89,0,3.03,1.03,3.03,2.76C1138.98,445.49,1137.83,446.52,1135.95,446.52Z" fill="#1c425c"/>
              <path d="M1144.38,446.52v-1.86h3.05v-1.91h-3.05V441h3.43v-1.9h-5.49v9.34h5.62v-1.92Z" fill="#1c425c"/>
              <path d="M1153.59,439.52a3.878,3.878,0,0,0-2.04-.42h-2.3v9.34h2.07v-3.25h.23a3.878,3.878,0,0,0,2.04-.42,3.036,3.036,0,0,0,1.45-2.63A2.95,2.95,0,0,0,1153.59,439.52Zm-1.92,3.78h-.36v-2.31h.36c.96,0,1.36.35,1.36,1.15C1153.03,442.96,1152.63,443.3,1151.67,443.3Z" fill="#1c425c"/>
              <path d="M1158.04,446.52V439.1h-2.07v9.34h5.37v-1.92Z" fill="#1c425c"/>
              <path d="M1166.43,438.86a4.911,4.911,0,1,0,4.99,4.92A5,5,0,0,0,1166.43,438.86Zm0,7.89a2.957,2.957,0,0,1-2.88-2.93,2.891,2.891,0,1,1,2.88,2.93Z" fill="#1c425c"/>
              <path d="M1177.06,439.1l-1.86,3.35-1.85-3.35h-2.33l3.14,5.49v3.85h2.07v-3.85l3.14-5.49Z" fill="#1c425c"/>
              <path d="M1182.08,439.1v1.92h2.2v7.42h2.07v-7.42h2.19V439.1Z" fill="#1c425c"/>
              <path d="M1193.58,438.86a4.911,4.911,0,1,0,4.98,4.92A5,5,0,0,0,1193.58,438.86Zm0,7.89a2.959,2.959,0,0,1-2.89-2.93,2.9,2.9,0,1,1,5.79-.04A2.956,2.956,0,0,1,1193.58,446.75Z" fill="#1c425c"/>
              <path d="M1129.49,456.32a3.9,3.9,0,0,0-2.04-.42h-2.3v9.34h2.07v-3.25h.23a3.9,3.9,0,0,0,2.04-.42,3.036,3.036,0,0,0,1.45-2.63A2.95,2.95,0,0,0,1129.49,456.32Zm-1.92,3.78h-.36v-2.31h.36c.96,0,1.36.35,1.36,1.15C1128.93,459.76,1128.53,460.1,1127.57,460.1Z" fill="#1c425c"/>
              <path d="M1136.63,461.39a2.871,2.871,0,0,0,1.24-2.42,2.994,2.994,0,0,0-1.48-2.62,4.407,4.407,0,0,0-2.22-.45h-2.3v9.34h2.07v-3.25h.23a1.284,1.284,0,0,0,.22-.01h.27l1.8,3.26h2.34Zm-2.35-1.29h-.35v-2.31h.35c1.09,0,1.58.36,1.58,1.18C1135.86,459.76,1135.4,460.1,1134.28,460.1Z" fill="#1c425c"/>
              <path d="M1144,455.66a4.911,4.911,0,1,0,4.98,4.92A5,5,0,0,0,1144,455.66Zm0,7.89a2.959,2.959,0,0,1-2.89-2.93,2.9,2.9,0,1,1,5.79-.04A2.956,2.956,0,0,1,1144,463.55Z" fill="#1c425c"/>
              <path d="M1152.54,455.9h-2.3v9.34h2.3c3.12,0,5.14-1.83,5.14-4.68C1157.68,457.73,1155.66,455.9,1152.54,455.9Zm.04,7.42h-.27v-5.5h.27c1.89,0,3.02,1.03,3.02,2.76C1155.6,462.29,1154.46,463.32,1152.58,463.32Z" fill="#1c425c"/>
              <path d="M1164.1,455.9v5.71a2.447,2.447,0,0,1-.18,1.26,1.658,1.658,0,0,1-1.37.68,1.6,1.6,0,0,1-1.36-.68,2.447,2.447,0,0,1-.18-1.26V455.9h-2.08v5.97a3.627,3.627,0,0,0,.42,1.89,3.728,3.728,0,0,0,3.21,1.72,3.669,3.669,0,0,0,3.19-1.72,3.532,3.532,0,0,0,.42-1.89V455.9Z" fill="#1c425c"/>
              <path d="M1174.78,462.26a2.987,2.987,0,0,1-2.38,1.29,2.982,2.982,0,1,1,2.34-4.68l1.47-1.39a4.826,4.826,0,0,0-3.78-1.82,4.91,4.91,0,1,0,3.82,7.97Z" fill="#1c425c"/>
              <path d="M1176.63,455.9v1.92h2.2v7.42h2.07v-7.42h2.18V455.9Z" fill="#1c425c"/>
              <path d="M1183.82,455.9v9.34h2.08V455.9Z" fill="#1c425c"/>
              <path d="M1192.13,455.66a4.911,4.911,0,1,0,4.99,4.92A4.989,4.989,0,0,0,1192.13,455.66Zm0,7.89a2.959,2.959,0,0,1-2.89-2.93,2.9,2.9,0,1,1,5.79-.04A2.956,2.956,0,0,1,1192.13,463.55Z" fill="#1c425c"/>
              <path d="M1204.42,455.9v5.67l-4.31-5.67h-1.74v9.34h2.07v-5.67l4.32,5.67h1.73V455.9Z" fill="#1c425c"/>
            </g>
            <path d="M1224.62,418.85h-117.6a2.5,2.5,0,0,0-2.5,2.5v63.36a2.5,2.5,0,0,0,2.5,2.5h117.6a2.5,2.5,0,0,0,2.5-2.5V421.35A2.5,2.5,0,0,0,1224.62,418.85Zm-2.5,63.36h-112.6V423.85h112.6Z" fill="#1c425c"/>
          </g>
          <g>
            <g>
              <path d="M1315.98,433.12a3.9,3.9,0,0,0-2.04-.42h-2.3v9.34h2.07v-3.25h.23a3.9,3.9,0,0,0,2.04-.42,3.036,3.036,0,0,0,1.45-2.63A2.95,2.95,0,0,0,1315.98,433.12Zm-1.92,3.78h-.36v-2.31h.36c.96,0,1.36.35,1.36,1.15C1315.42,436.56,1315.02,436.9,1314.06,436.9Z" fill="#1c425c"/>
              <path d="M1322.9,432.46a4.911,4.911,0,1,0,4.99,4.92A4.989,4.989,0,0,0,1322.9,432.46Zm0,7.89a2.959,2.959,0,0,1-2.89-2.93,2.9,2.9,0,1,1,2.89,2.93Z" fill="#1c425c"/>
              <path d="M1332.71,436.45l-.84-.32c-.63-.22-.94-.5-.94-.83a.956.956,0,0,1,1-.92c.57,0,.81.18,1.37,1.05l1.71-1.08a3.266,3.266,0,0,0-3.01-1.89,2.921,2.921,0,0,0-3.12,2.83c0,1.19.7,2.04,2.15,2.59l.81.31c.87.34,1.17.59,1.17,1.01a1.177,1.177,0,0,1-1.21,1.15c-.63,0-1.02-.38-1.22-1.19l-.05-.23-.03-.11-2.03.55a4.1,4.1,0,0,0,.75,1.76,3.287,3.287,0,0,0,2.55,1.15,3.175,3.175,0,0,0,3.32-3.1C1335.09,437.92,1334.35,437.07,1332.71,436.45Z" fill="#1c425c"/>
              <path d="M1335.57,432.7v1.92h2.2v7.42h2.07v-7.42h2.18V432.7Z" fill="#1c425c"/>
              <path d="M1289.99,447.92a3.9,3.9,0,0,0-2.04-.42h-2.3v9.34h2.07v-3.25h.23a4,4,0,0,0,2.04-.42,3.036,3.036,0,0,0,1.45-2.63A2.95,2.95,0,0,0,1289.99,447.92Zm-1.92,3.78h-.36v-2.31h.36c.96,0,1.36.35,1.36,1.15C1289.43,451.36,1289.03,451.7,1288.07,451.7Z" fill="#1c425c"/>
              <path d="M1297.13,452.99a2.871,2.871,0,0,0,1.24-2.42,3.015,3.015,0,0,0-1.48-2.62,4.407,4.407,0,0,0-2.22-.45h-2.3v9.34h2.07v-3.25h.23a1.284,1.284,0,0,0,.22-.01h.27l1.8,3.26h2.34Zm-2.35-1.29h-.35v-2.31h.35c1.09,0,1.58.36,1.58,1.18C1296.36,451.36,1295.9,451.7,1294.78,451.7Z" fill="#1c425c"/>
              <path d="M1304.5,447.26a4.911,4.911,0,1,0,4.98,4.92A5,5,0,0,0,1304.5,447.26Zm0,7.89a2.959,2.959,0,0,1-2.89-2.93,2.9,2.9,0,1,1,5.79-.04A2.956,2.956,0,0,1,1304.5,455.15Z" fill="#1c425c"/>
              <path d="M1313.04,447.5h-2.3v9.34h2.3c3.12,0,5.14-1.83,5.14-4.68C1318.18,449.33,1316.16,447.5,1313.04,447.5Zm.04,7.42h-.27v-5.5h.27c1.89,0,3.02,1.03,3.02,2.76C1316.1,453.88,1314.96,454.92,1313.08,454.92Z" fill="#1c425c"/>
              <path d="M1324.6,447.5v5.71a2.447,2.447,0,0,1-.18,1.26,1.658,1.658,0,0,1-1.37.68,1.6,1.6,0,0,1-1.36-.68,2.447,2.447,0,0,1-.18-1.26V447.5h-2.08v5.96a3.641,3.641,0,0,0,.42,1.9,3.837,3.837,0,0,0,6.4,0,3.547,3.547,0,0,0,.42-1.9V447.5Z" fill="#1c425c"/>
              <path d="M1335.28,453.86a2.987,2.987,0,0,1-2.38,1.29,2.982,2.982,0,1,1,2.34-4.68l1.47-1.39a4.826,4.826,0,0,0-3.78-1.82,4.91,4.91,0,1,0,3.82,7.97Z" fill="#1c425c"/>
              <path d="M1337.13,447.5v1.92h2.2v7.42h2.07v-7.42h2.18V447.5Z" fill="#1c425c"/>
              <path d="M1344.32,447.5v9.34h2.08V447.5Z" fill="#1c425c"/>
              <path d="M1352.63,447.26a4.911,4.911,0,1,0,4.98,4.92A5,5,0,0,0,1352.63,447.26Zm0,7.89a2.959,2.959,0,0,1-2.89-2.93,2.9,2.9,0,1,1,5.79-.04A2.956,2.956,0,0,1,1352.63,455.15Z" fill="#1c425c"/>
              <path d="M1364.92,447.5v5.67l-4.31-5.67h-1.74v9.34h2.07v-5.67l4.32,5.67h1.73V447.5Z" fill="#1c425c"/>
              <path d="M1289.71,462.3l-2.11,6.43-2.13-6.43h-2.19l3.13,9.34h2.37l3.12-9.34Z" fill="#1c425c"/>
              <path d="M1294.7,469.72v-1.86h3.05v-1.91h-3.05V464.2h3.43v-1.9h-5.49v9.34h5.61v-1.92Z" fill="#1c425c"/>
              <path d="M1304.33,467.79a2.887,2.887,0,0,0,1.23-2.42,3.006,3.006,0,0,0-1.47-2.62,4.423,4.423,0,0,0-2.23-.45h-2.29v9.34h2.07v-3.25h.22a1.484,1.484,0,0,0,.23-.01h.26l1.81,3.26h2.34Zm-2.35-1.29h-.36v-2.31h.36c1.09,0,1.58.36,1.58,1.18C1303.56,466.16,1303.1,466.5,1301.98,466.5Z" fill="#1c425c"/>
              <path d="M1307.39,462.3v9.34h2.08V462.3Z" fill="#1c425c"/>
              <path d="M1316.45,464.2v-1.9h-5.19v9.34h2.07v-3.77h2.84v-1.92h-2.84V464.2Z" fill="#1c425c"/>
              <path d="M1317.67,462.3v9.34h2.07V462.3Z" fill="#1c425c"/>
              <path d="M1328.35,468.66a2.987,2.987,0,0,1-2.38,1.29,2.982,2.982,0,1,1,2.34-4.68l1.47-1.39a4.826,4.826,0,0,0-3.78-1.82,4.91,4.91,0,1,0,3.82,7.97Z" fill="#1c425c"/>
              <path d="M1335.86,462.3h-2.39l-3.48,9.34h2.18l.72-2.06h3.54l.71,2.06h2.2Zm-2.3,5.36,1.09-3.15,1.11,3.15Z" fill="#1c425c"/>
              <path d="M1338.47,462.3v1.92h2.2v7.42h2.07v-7.42h2.19V462.3Z" fill="#1c425c"/>
              <path d="M1345.67,462.3v9.34h2.07V462.3Z" fill="#1c425c"/>
              <path d="M1353.97,462.06a4.911,4.911,0,1,0,4.99,4.92A5,5,0,0,0,1353.97,462.06Zm0,7.89a2.957,2.957,0,0,1-2.88-2.93,2.891,2.891,0,1,1,2.88,2.93Z" fill="#1c425c"/>
              <path d="M1366.26,462.3v5.67l-4.31-5.67h-1.74v9.34h2.08v-5.67l4.31,5.67h1.74V462.3Z" fill="#1c425c"/>
            </g>
            <path d="M1385.12,418.85h-117.6a2.5,2.5,0,0,0-2.5,2.5v63.36a2.5,2.5,0,0,0,2.5,2.5h117.6a2.5,2.5,0,0,0,2.5-2.5V421.35A2.5,2.5,0,0,0,1385.12,418.85Zm-2.5,63.36h-112.6V423.85h112.6Z" fill="#1c425c"/>
          </g>
          <g>
            <path d="M1234.819,466.175a2.5,2.5,0,0,1-1.767-4.268l8.878-8.878-8.878-8.877a2.5,2.5,0,0,1,3.535-3.535l10.645,10.645a2.5,2.5,0,0,1,0,3.535l-10.645,10.645A2.489,2.489,0,0,1,1234.819,466.175Z" fill="#1c425c"/>
            <path d="M1246.674,466.175a2.5,2.5,0,0,1-1.768-4.268l8.878-8.878-8.878-8.877a2.5,2.5,0,1,1,3.535-3.535l10.646,10.645a2.5,2.5,0,0,1,0,3.535l-10.646,10.645A2.489,2.489,0,0,1,1246.674,466.175Z" fill="#1c425c"/>
          </g>
        </g>
      </g>
      <g>
        <line x1="614.069" y1="437.28" x2="652.646" y2="437.28" fill="none" stroke="#1c425c" stroke-linecap="round" stroke-linejoin="round" stroke-width="5"/>
        <path d="M634.377,455.9l0,0a2.5,2.5,0,0,1,.128-3.535l16.226-15.079L634.5,422.2a2.5,2.5,0,0,1-.127-3.535l0,0a2.5,2.5,0,0,1,3.531-.127l20.161,18.748-20.161,18.744A2.5,2.5,0,0,1,634.377,455.9Z" fill="#1c425c"/>
      </g>
      <g>
        <line x1="208.069" y1="437.28" x2="246.646" y2="437.28" fill="none" stroke="#1c425c" stroke-linecap="round" stroke-linejoin="round" stroke-width="5"/>
        <path d="M228.377,455.9l0,0a2.5,2.5,0,0,1,.128-3.535l16.226-15.079L228.5,422.2a2.5,2.5,0,0,1-.127-3.535l0,0a2.5,2.5,0,0,1,3.531-.127l20.161,18.748-20.161,18.744A2.5,2.5,0,0,1,228.377,455.9Z" fill="#1c425c"/>
      </g>
      <g>
        <line x1="1021.069" y1="437.03" x2="1059.646" y2="437.03" fill="none" stroke="#1c425c" stroke-linecap="round" stroke-linejoin="round" stroke-width="5"/>
        <path d="M1041.377,455.651l0,0a2.5,2.5,0,0,1,.128-3.535l16.226-15.079L1041.5,421.951a2.5,2.5,0,0,1-.127-3.535l0,0a2.5,2.5,0,0,1,3.531-.127l20.161,18.748-20.161,18.744A2.5,2.5,0,0,1,1041.377,455.651Z" fill="#1c425c"/>
      </g>
      <g>
        <g>
          <polyline points="982.819 178.37 981.669 179.91 981.659 179.91 913.699 270.53" fill="none" stroke="#1c425c" stroke-linecap="round" stroke-linejoin="round" stroke-width="5" stroke-dasharray="8 14"/>
          <line x1="896.449" y1="293.53" x2="839.069" y2="370.03" fill="none" stroke="#1c425c" stroke-linecap="round" stroke-linejoin="round" stroke-width="5" stroke-dasharray="8 14"/>
          <path d="M986.751,204.156h0A2.5,2.5,0,0,1,984,201.933l-2.327-22.027-21.8,3.931a2.5,2.5,0,0,1-2.9-2.019v0a2.5,2.5,0,0,1,2.018-2.9l27.1-4.879,2.9,27.374A2.5,2.5,0,0,1,986.751,204.156Z" fill="#1c425c"/>
        </g>
        <g>
          <polyline points="1101.325 178.371 1102.475 179.901 1170.445 270.531" fill="none" stroke="#1c425c" stroke-linecap="round" stroke-linejoin="round" stroke-width="5" stroke-dasharray="8 14"/>
          <line x1="1245.065" y1="370.031" x2="1187.695" y2="293.531" fill="none" stroke="#1c425c" stroke-linecap="round" stroke-linejoin="round" stroke-width="5" stroke-dasharray="8 14"/>
          <path d="M1127.181,181.811v0a2.5,2.5,0,0,1-2.9,2.019l-21.8-3.933-2.331,22.031a2.5,2.5,0,0,1-2.752,2.223h0a2.5,2.5,0,0,1-2.22-2.749l2.9-27.377,27.091,4.882A2.5,2.5,0,0,1,1127.181,181.811Z" fill="#1c425c"/>
        </g>
      </g>
      <g id="g3052">
        <path d="M1035.555,94.851l-6.71,1.94a13.721,13.721,0,0,1,1.949-8.68l5.23,4.67-.009.03a1.165,1.165,0,0,1,.15,1.62,1.139,1.139,0,0,1-.61.4Z" fill="#1c425c"/>
        <path d="M1037.774,100.511l.02.02-2.659,6.44a13.847,13.847,0,0,1-5.54-6.93l6.88-1.16.01.01a1.937,1.937,0,0,1,.229-.02,1.184,1.184,0,0,1,1.131.91A1.123,1.123,0,0,1,1037.774,100.511Z" fill="#1c425c"/>
        <path d="M1038.6,89.561l-5.729-4.06a13.732,13.732,0,0,1,6.6-3.6c.48-.11.949-.19,1.42-.25l-.391,6.99-.029.01a1.177,1.177,0,0,1-1.17,1.13,1.164,1.164,0,0,1-.69-.23Z" fill="#1c425c"/>
        <polygon points="1040.155 94.811 1041.495 93.151 1043.635 93.151 1044.964 94.811 1044.495 96.891 1042.564 97.811 1040.635 96.881 1040.155 94.811" fill="#1c425c"/>
        <path d="M1043.625,102.311l3.39,6.12a12.254,12.254,0,0,1-1.35.38,13.743,13.743,0,0,1-7.52-.39l3.379-6.11h.011a1.17,1.17,0,0,1,.989-.62,1.1,1.1,0,0,1,.551.12,1.214,1.214,0,0,1,.529.5Z" fill="#1c425c"/>
        <path d="M1044.635,88.631l-.4-6.98a13.846,13.846,0,0,1,7.979,3.85l-5.69,4.03h-.02a1.186,1.186,0,0,1-1.609-.22A1.173,1.173,0,0,1,1044.635,88.631Z" fill="#1c425c"/>
        <path d="M1048.645,98.851l6.939,1.17a13.79,13.79,0,0,1-5.56,6.98l-2.69-6.51.011-.01a1.17,1.17,0,0,1,.57-1.52,1.2,1.2,0,0,1,.45-.12,2.47,2.47,0,0,1,.27.02Z" fill="#1c425c"/>
        <path d="M1056.015,92.3a13.583,13.583,0,0,1,.29,4.47l-6.73-1.95-.011-.02a1.181,1.181,0,0,1-.829-1.4,1.129,1.129,0,0,1,.369-.62v-.02l5.2-4.65A14.1,14.1,0,0,1,1056.015,92.3Z" fill="#1c425c"/>
        <path d="M1074.464,100.981l-5.5-23.88a4.246,4.246,0,0,0-2.3-2.87l-22.26-10.62a4.187,4.187,0,0,0-2.06-.41,4.056,4.056,0,0,0-1.631.41l-22.25,10.63a4.224,4.224,0,0,0-2.3,2.86l-5.491,23.88a4.179,4.179,0,0,0,.58,3.24,2.624,2.624,0,0,0,.241.33l15.4,19.15a4.252,4.252,0,0,0,3.33,1.59l24.69-.01a4.246,4.246,0,0,0,3.33-1.58l15.4-19.15A4.216,4.216,0,0,0,1074.464,100.981Zm-8.469-.29a1.41,1.41,0,0,1-1.721.97h-.02a.031.031,0,0,0-.019-.01c-.11-.03-.25-.05-.35-.08a10.423,10.423,0,0,1-1.19-.46,12.689,12.689,0,0,0-2.32-.68,1.026,1.026,0,0,0-.75.28c-.1-.02-.39-.08-.57-.1a17.335,17.335,0,0,1-7.67,9.66,3.855,3.855,0,0,0,.219.53,1.072,1.072,0,0,0-.109.79,12.153,12.153,0,0,0,1.19,2.11c.239.37.489.65.71,1.06.05.1.12.26.169.36a1.335,1.335,0,1,1-2.4,1.14c-.05-.1-.13-.24-.17-.34a12.551,12.551,0,0,1-.391-1.22,12.294,12.294,0,0,0-.909-2.24,1.022,1.022,0,0,0-.68-.41c-.04-.08-.2-.37-.28-.52a17.327,17.327,0,0,1-2.29.69,17.118,17.118,0,0,1-10-.72l-.31.55a1.068,1.068,0,0,0-.571.28,9.173,9.173,0,0,0-1.029,2.39,10.3,10.3,0,0,1-.39,1.22c-.041.1-.11.24-.16.34v.01a1.339,1.339,0,1,1-2.41-1.14c.05-.11.12-.26.17-.36a10.34,10.34,0,0,1,.719-1.07,13.412,13.412,0,0,0,1.2-2.16,1.271,1.271,0,0,0-.121-.76l.25-.58a17.292,17.292,0,0,1-7.679-9.59l-.58.1a1.6,1.6,0,0,0-.77-.27,12.644,12.644,0,0,0-2.32.68,9.972,9.972,0,0,1-1.2.46,2.84,2.84,0,0,1-.34.08c-.01,0-.02.01-.03.01h-.021a1.334,1.334,0,1,1-.589-2.59c.009-.01.009-.01.02-.01h.009c.111-.03.261-.07.361-.09.46-.08.84-.06,1.28-.1a12.151,12.151,0,0,0,2.379-.39,1.75,1.75,0,0,0,.571-.58l.56-.16a17.262,17.262,0,0,1,2.72-12.01l-.43-.39a1.428,1.428,0,0,0-.26-.76,13.03,13.03,0,0,0-1.98-1.4,10.534,10.534,0,0,1-1.11-.64c-.08-.06-.19-.15-.27-.22-.011-.01-.02-.01-.02-.02a1.406,1.406,0,0,1-.33-1.96,1.3,1.3,0,0,1,1.06-.47,1.6,1.6,0,0,1,.929.35c.091.07.21.17.29.24a9.3,9.3,0,0,1,.88.93,12.74,12.74,0,0,0,1.8,1.62,1.018,1.018,0,0,0,.79.07c.069.06.33.25.48.35a17.1,17.1,0,0,1,8.7-4.98,18.257,18.257,0,0,1,2.409-.37l.031-.56a1.458,1.458,0,0,0,.429-.69,12.416,12.416,0,0,0-.149-2.41,11.982,11.982,0,0,1-.18-1.27V72.8a1.338,1.338,0,1,1,2.66,0c0,.12.01.27.01.38a10.024,10.024,0,0,1-.191,1.27,13.361,13.361,0,0,0-.15,2.41,1.124,1.124,0,0,0,.44.67c0,.1.02.42.031.59a17.541,17.541,0,0,1,11.06,5.34l.5-.36a1.483,1.483,0,0,0,.81-.08,12.977,12.977,0,0,0,1.8-1.63,10.82,10.82,0,0,1,.879-.93c.081-.07.2-.16.291-.24a1.342,1.342,0,1,1,1.66,2.09c-.09.07-.21.17-.29.23a10.659,10.659,0,0,1-1.11.65,12.009,12.009,0,0,0-1.98,1.39,1.024,1.024,0,0,0-.25.75c-.071.07-.341.3-.47.43a17.25,17.25,0,0,1,2.489,5.77,16.953,16.953,0,0,1,.281,6.21l.54.16a1.494,1.494,0,0,0,.569.58,13.242,13.242,0,0,0,2.391.39c.44.04.819.02,1.28.1.11.02.269.07.39.09A1.411,1.411,0,0,1,1065.995,100.691Z" fill="#1c425c"/>
      </g>
      <path d="M270.92,368.03a19.386,19.386,0,1,0-21.35,21.98,19.391,19.391,0,0,0,5-.09,19.436,19.436,0,0,0,16.54-19.18A18.692,18.692,0,0,0,270.92,368.03Zm-9.44,4.71-.43.29-6.48,4.32-5,3.33-2.47,1.65a2.406,2.406,0,0,1-1.33.4,2.38,2.38,0,0,1-2.4-2.4v-9.59a2.4,2.4,0,0,1,4.79,0v5.11l1.41-.94,6.25-4.17-4.04-2.7-7.35-4.9a2.4,2.4,0,1,1,2.66-3.99l13.31,8.88,1.08.72a2.395,2.395,0,0,1,0,3.99Z" fill="#1c425c"/>
      <path d="M1020.57,368.03H677.92a19.386,19.386,0,1,0-21.85,21.92V504.03a2.5,2.5,0,0,0,2.5,2.5h362a2.5,2.5,0,0,0,2.5-2.5V370.53A2.5,2.5,0,0,0,1020.57,368.03ZM654.1,382.33a2.406,2.406,0,0,1-1.33.4,2.38,2.38,0,0,1-2.4-2.4v-9.59a2.4,2.4,0,0,1,4.79,0v5.11l.91-.61,6.75-4.5-4.06-2.71-7.33-4.89a2.4,2.4,0,1,1,2.66-3.99l13.31,8.88,1.08.72a2.395,2.395,0,0,1,0,3.99l-.43.29-6.98,4.65-5,3.34Zm363.97,119.2h-357V389.98a19.4,19.4,0,0,0,16.9-16.95h340.1Z" fill="#1c425c"/>
      <g>
        <path d="M864.856,287.462h-2.8l-2.9-4.418-.752.8v3.617h-2.369V276.786h2.369v3.841l3.585-3.841h3.026l-4.242,4.529Z" fill="#1c425c"/>
        <path d="M868.23,283.316a2.83,2.83,0,0,0,.208,1.441,1.851,1.851,0,0,0,1.553.768,1.9,1.9,0,0,0,1.569-.768,2.83,2.83,0,0,0,.208-1.441v-6.53h2.369V283.6a4.086,4.086,0,0,1-.481,2.162,4.382,4.382,0,0,1-7.314,0,4.086,4.086,0,0,1-.481-2.162v-6.818h2.369Z" fill="#1c425c"/>
        <path d="M876.181,276.786h2.64a4.76,4.76,0,0,1,2.466.512,3.033,3.033,0,0,1,1.5,2.529,2.429,2.429,0,0,1-.88,1.9,3.02,3.02,0,0,1,1.376,2.514,3.117,3.117,0,0,1-1.681,2.721,4.3,4.3,0,0,1-2.288.5h-3.137ZM879,281.06a1.937,1.937,0,0,0,1.04-.161,1.034,1.034,0,0,0,.528-.96c0-.784-.432-1.088-1.568-1.088h-.528v2.209Zm.24,4.29a2.35,2.35,0,0,0,1.185-.193,1.168,1.168,0,0,0,.048-1.984,2.766,2.766,0,0,0-1.377-.225h-.624v2.4Z" fill="#1c425c"/>
        <path d="M891.016,278.963h-3.922v2h3.49v2.177h-3.49v2.129h4.066v2.192h-6.419V276.786h6.275Z" fill="#1c425c"/>
        <path d="M900.376,280.18a3.327,3.327,0,1,0-2.673,5.345,3.423,3.423,0,0,0,2.721-1.472l1.68,1.568a5.638,5.638,0,1,1-4.369-9.107,5.539,5.539,0,0,1,4.322,2.081Z" fill="#1c425c"/>
        <path d="M909.911,278.979h-2.5v8.483h-2.369v-8.483h-2.514v-2.193h7.38Z" fill="#1c425c"/>
        <path d="M913.126,276.786v8.484h3.762v2.192h-6.131V276.786Z" fill="#1c425c"/>
        <path d="M923.524,285.109l-.816,2.353h-2.5l3.986-10.676h2.721l3.985,10.676h-2.512l-.817-2.353Zm2.018-5.795-1.249,3.6h2.513Z" fill="#1c425c"/>
        <path d="M934.133,287.462h-2.369V276.786h2.625a4.544,4.544,0,0,1,2.337.48,3.377,3.377,0,0,1,1.648,2.993,3.478,3.478,0,0,1-1.648,3.01,4.555,4.555,0,0,1-2.337.48h-.256Zm.4-5.874c1.088,0,1.552-.384,1.552-1.329,0-.912-.464-1.313-1.552-1.313h-.417v2.642Z" fill="#1c425c"/>
        <path d="M941.813,287.462h-2.369V276.786h2.625a4.544,4.544,0,0,1,2.337.48,3.376,3.376,0,0,1,1.649,2.993,3.477,3.477,0,0,1-1.649,3.01,4.555,4.555,0,0,1-2.337.48h-.256Zm.4-5.874c1.088,0,1.552-.384,1.552-1.329,0-.912-.464-1.313-1.552-1.313H941.8v2.642Z" fill="#1c425c"/>
        <path d="M949.493,276.786v8.484h3.762v2.192h-6.131V276.786Z" fill="#1c425c"/>
        <path d="M951.876,276.786h2.657l2.113,3.825,2.128-3.825h2.642l-3.586,6.275v4.4h-2.369v-4.4Z" fill="#1c425c"/>
      </g>
      <g>
        <path d="M1135.856,287.462h-2.8l-2.9-4.418-.752.8v3.617h-2.369V276.786h2.369v3.841l3.585-3.841h3.026l-4.242,4.529Z" fill="#1c425c"/>
        <path d="M1139.23,283.316a2.83,2.83,0,0,0,.208,1.441,1.851,1.851,0,0,0,1.553.768,1.9,1.9,0,0,0,1.569-.768,2.83,2.83,0,0,0,.208-1.441v-6.53h2.369V283.6a4.086,4.086,0,0,1-.481,2.162,4.382,4.382,0,0,1-7.314,0,4.086,4.086,0,0,1-.481-2.162v-6.818h2.369Z" fill="#1c425c"/>
        <path d="M1147.181,276.786h2.64a4.76,4.76,0,0,1,2.466.512,3.033,3.033,0,0,1,1.5,2.529,2.429,2.429,0,0,1-.88,1.9,3.02,3.02,0,0,1,1.376,2.514,3.117,3.117,0,0,1-1.681,2.721,4.3,4.3,0,0,1-2.288.5h-3.137ZM1150,281.06a1.937,1.937,0,0,0,1.04-.161,1.034,1.034,0,0,0,.528-.96c0-.784-.432-1.088-1.568-1.088h-.528v2.209Zm.24,4.29a2.35,2.35,0,0,0,1.185-.193,1.168,1.168,0,0,0,.048-1.984,2.766,2.766,0,0,0-1.377-.225h-.624v2.4Z" fill="#1c425c"/>
        <path d="M1162.016,278.963h-3.922v2h3.49v2.177h-3.49v2.129h4.066v2.192h-6.419V276.786h6.275Z" fill="#1c425c"/>
        <path d="M1171.376,280.18a3.327,3.327,0,1,0-2.673,5.345,3.423,3.423,0,0,0,2.721-1.472l1.68,1.568a5.638,5.638,0,1,1-4.369-9.107,5.539,5.539,0,0,1,4.322,2.081Z" fill="#1c425c"/>
        <path d="M1180.911,278.979h-2.5v8.483h-2.369v-8.483h-2.514v-2.193h7.38Z" fill="#1c425c"/>
        <path d="M1184.126,276.786v8.484h3.762v2.192h-6.131V276.786Z" fill="#1c425c"/>
        <path d="M1194.524,285.109l-.816,2.353h-2.5l3.986-10.676h2.721l3.985,10.676h-2.512l-.817-2.353Zm2.018-5.795-1.249,3.6h2.513Z" fill="#1c425c"/>
        <path d="M1205.133,287.462h-2.369V276.786h2.625a4.544,4.544,0,0,1,2.337.48,3.377,3.377,0,0,1,1.648,2.993,3.478,3.478,0,0,1-1.648,3.01,4.555,4.555,0,0,1-2.337.48h-.256Zm.4-5.874c1.088,0,1.552-.384,1.552-1.329,0-.912-.464-1.313-1.552-1.313h-.417v2.642Z" fill="#1c425c"/>
        <path d="M1212.813,287.462h-2.369V276.786h2.625a4.544,4.544,0,0,1,2.337.48,3.376,3.376,0,0,1,1.649,2.993,3.477,3.477,0,0,1-1.649,3.01,4.555,4.555,0,0,1-2.337.48h-.256Zm.4-5.874c1.088,0,1.552-.384,1.552-1.329,0-.912-.464-1.313-1.552-1.313h-.417v2.642Z" fill="#1c425c"/>
        <path d="M1220.493,276.786v8.484h3.762v2.192h-6.131V276.786Z" fill="#1c425c"/>
        <path d="M1222.876,276.786h2.657l2.113,3.825,2.128-3.825h2.642l-3.586,6.275v4.4h-2.369v-4.4Z" fill="#1c425c"/>
      </g>
      <g>
        <path d="M392.925,287.462h-2.369V276.786h2.625a4.544,4.544,0,0,1,2.337.48,3.377,3.377,0,0,1,1.648,2.993,3.478,3.478,0,0,1-1.648,3.01,4.555,4.555,0,0,1-2.337.48h-.256Zm.4-5.874c1.088,0,1.552-.384,1.552-1.329,0-.912-.464-1.313-1.552-1.313h-.417v2.642Z" fill="#1c425c"/>
        <path d="M400.557,283.316a2.819,2.819,0,0,0,.208,1.441,1.849,1.849,0,0,0,1.552.768,1.9,1.9,0,0,0,1.569-.768,2.83,2.83,0,0,0,.208-1.441v-6.53h2.369V283.6a4.086,4.086,0,0,1-.481,2.162,4.382,4.382,0,0,1-7.314,0,4.087,4.087,0,0,1-.48-2.162v-6.818h2.369Z" fill="#1c425c"/>
        <path d="M413.325,279.907c-.639-.992-.912-1.2-1.568-1.2a1.085,1.085,0,0,0-1.137,1.056c0,.368.353.688,1.072.944l.961.368c1.872.7,2.721,1.681,2.721,3.122a3.63,3.63,0,0,1-3.793,3.537,3.719,3.719,0,0,1-2.914-1.312,4.62,4.62,0,0,1-.864-2.017l2.321-.625.032.129.064.256c.224.928.673,1.36,1.392,1.36a1.333,1.333,0,0,0,1.377-1.312c0-.481-.336-.769-1.328-1.152l-.929-.353c-1.665-.624-2.464-1.6-2.464-2.961a3.34,3.34,0,0,1,3.569-3.233,3.724,3.724,0,0,1,3.441,2.161Z" fill="#1c425c"/>
        <path d="M419.293,280.964h3.665v-4.178h2.369v10.676h-2.369v-4.306h-3.665v4.306h-2.369V276.786h2.369Z" fill="#1c425c"/>
        <path d="M433.244,287.462h-2.369V276.786h2.369Z" fill="#1c425c"/>
        <path d="M435.291,276.786h2.177l3.2,5.57,3.185-5.57h2.177v10.676h-2.369V281.54l-2.144,3.793h-1.7l-2.161-3.793v5.922h-2.369Z" fill="#1c425c"/>
        <path d="M450.188,285.109l-.817,2.353h-2.5l3.986-10.676h2.721l3.985,10.676h-2.512l-.817-2.353Zm2.017-5.795-1.249,3.6h2.513Z" fill="#1c425c"/>
        <path d="M468.239,281.38v1.1a5.834,5.834,0,0,1-.688,2.9,4.858,4.858,0,0,1-4.354,2.353,5.612,5.612,0,1,1-.016-11.22,5.942,5.942,0,0,1,4.385,1.984l-1.68,1.569a3.558,3.558,0,0,0-2.721-1.344,3.4,3.4,0,0,0,.016,6.8,2.487,2.487,0,0,0,2.593-1.984h-2.849V281.38Z" fill="#1c425c"/>
        <path d="M475.981,278.963H472.06v2h3.49v2.177h-3.49v2.129h4.066v2.192h-6.419V276.786h6.274Z" fill="#1c425c"/>
      </g>
      <path d="M482.487,83.5c-2.1-1.407-6.935-1.922-10.654-1.221-.479-3.5-2.431-6.539-5.981-9.285L463.81,71.63l-1.362,2.043a15.847,15.847,0,0,0-2.329,9.767,12.4,12.4,0,0,0,1.8,5.36,14.687,14.687,0,0,1-7.055,1.552h-63.33l-.124.729c-.595,3.512-.582,14.468,6.531,22.889,5.408,6.4,13.515,9.647,24.1,9.647,22.938,0,39.908-10.559,47.855-29.752,3.125.062,9.853.019,13.31-6.585.09-.152.3-.548.9-1.8l.331-.687Zm-49.949-15.9h9.63V58.838h-9.63Zm0,10.5h9.63V69.343h-9.63Zm-11.38,0h9.63V69.343h-9.63Zm-11.38,0h9.63V69.343h-9.63ZM398.4,88.6h9.629V79.847H398.4Zm11.38,0h9.63V79.847h-9.63Zm11.38,0h9.63V79.847h-9.63Zm11.38,0h9.63V79.847h-9.63Zm11.381,0h9.629V79.847h-9.629Z" fill="#1c425c" fill-rule="evenodd"/>
      <g>
        <g>
          <path d="M101.52,465.364l2.418-7.346h2.5l-3.57,10.675h-2.7L96.59,458.018h2.5Z" fill="#1c425c"/>
          <path d="M113.553,460.194h-3.922v2h3.489v2.177h-3.489V466.5H113.7v2.192h-6.419V458.018h6.276Z" fill="#1c425c"/>
          <path d="M118.383,464.964h-.3a1.134,1.134,0,0,1-.257.016h-.256v3.713H115.2V458.018h2.625a5.09,5.09,0,0,1,2.545.511,3.448,3.448,0,0,1,1.682,2.993,3.3,3.3,0,0,1-1.408,2.77l2.48,4.4h-2.674Zm-.432-2.145c1.28,0,1.809-.383,1.809-1.3s-.561-1.344-1.809-1.344h-.4v2.641Z" fill="#1c425c"/>
          <path d="M128.88,461.139c-.64-.993-.912-1.2-1.568-1.2a1.085,1.085,0,0,0-1.137,1.056c0,.368.352.689,1.073.944l.959.369c1.873.7,2.722,1.68,2.722,3.122a3.632,3.632,0,0,1-3.794,3.537,3.711,3.711,0,0,1-2.912-1.313,4.633,4.633,0,0,1-.866-2.016l2.322-.625.032.129.064.255c.224.928.672,1.361,1.393,1.361a1.333,1.333,0,0,0,1.376-1.313c0-.48-.337-.768-1.329-1.152l-.928-.353c-1.665-.624-2.465-1.6-2.465-2.96a3.342,3.342,0,0,1,3.57-3.234,3.727,3.727,0,0,1,3.441,2.161Z" fill="#1c425c"/>
          <path d="M134.848,468.693h-2.369V458.018h2.369Z" fill="#1c425c"/>
          <path d="M147.666,463.363a5.692,5.692,0,1,1-5.7-5.618A5.677,5.677,0,0,1,147.666,463.363Zm-9,.048a3.307,3.307,0,1,0,3.281-3.457A3.337,3.337,0,0,0,138.671,463.411Z" fill="#1c425c"/>
          <path d="M149.1,458.018h1.984l4.93,6.482v-6.482h2.369v10.675H156.4l-4.929-6.482v6.482H149.1Z" fill="#1c425c"/>
          <path d="M102.312,480.611a3.326,3.326,0,1,0-2.671,5.346,3.424,3.424,0,0,0,2.72-1.473l1.68,1.569a5.639,5.639,0,1,1-4.369-9.108,5.542,5.542,0,0,1,4.322,2.081Z" fill="#1c425c"/>
          <path d="M115.707,482.563a5.692,5.692,0,1,1-5.7-5.618A5.678,5.678,0,0,1,115.707,482.563Zm-9,.048a3.307,3.307,0,1,0,3.281-3.457A3.337,3.337,0,0,0,106.711,482.611Z" fill="#1c425c"/>
          <path d="M117.143,477.218h1.984l4.93,6.482v-6.482h2.369v10.676h-1.985l-4.929-6.483v6.483h-2.369Z" fill="#1c425c"/>
          <path d="M134.648,479.41h-2.5v8.484h-2.368V479.41H127.27v-2.192h7.378Z" fill="#1c425c"/>
          <path d="M138.679,484.164h-.3a1.077,1.077,0,0,1-.256.017h-.256v3.713h-2.369V477.218h2.625a5.1,5.1,0,0,1,2.545.511,3.45,3.45,0,0,1,1.68,2.994,3.293,3.293,0,0,1-1.408,2.769l2.481,4.4h-2.673Zm-.433-2.144c1.281,0,1.81-.384,1.81-1.3s-.561-1.345-1.81-1.345h-.4v2.642Z" fill="#1c425c"/>
          <path d="M155.051,482.563a5.692,5.692,0,1,1-5.7-5.618A5.679,5.679,0,0,1,155.051,482.563Zm-9,.048a3.307,3.307,0,1,0,3.281-3.457A3.337,3.337,0,0,0,146.055,482.611Z" fill="#1c425c"/>
          <path d="M158.854,477.218V485.7h3.761v2.193h-6.13V477.218Z" fill="#1c425c"/>
        </g>
        <circle cx="128.069" cy="437.28" r="78.133" fill="none" stroke="#1c425c" stroke-linecap="round" stroke-linejoin="round" stroke-width="5"/>
        <path d="M128.272,379.191a32.738,32.738,0,0,0-10.345,63.8c1.637.3,2.234-.71,2.234-1.578,0-.777-.028-2.835-.044-5.567-9.106,1.978-11.027-4.388-11.027-4.388-1.488-3.782-3.634-4.788-3.634-4.788-2.972-2.031.225-1.99.225-1.99,3.285.231,5.014,3.373,5.014,3.373,2.92,5,7.661,3.558,9.526,2.72a7,7,0,0,1,2.078-4.376c-7.268-.826-14.91-3.635-14.91-16.178a12.652,12.652,0,0,1,3.369-8.784,11.776,11.776,0,0,1,.321-8.663s2.749-.881,9,3.355a31.022,31.022,0,0,1,16.39,0c6.25-4.236,8.993-3.355,8.993-3.355a11.761,11.761,0,0,1,.326,8.663,12.631,12.631,0,0,1,3.365,8.784c0,12.575-7.654,15.342-14.946,16.152,1.175,1.011,2.222,3.009,2.222,6.062,0,4.377-.04,7.907-.04,8.98,0,.876.589,1.894,2.251,1.574a32.739,32.739,0,0,0-10.37-63.792Z" fill="#1c425c" fill-rule="evenodd"/>
      </g>
    </g>
    <path d="M456.451,119.592a2.021,2.021,0,1,1-2.014-1.967A1.976,1.976,0,0,1,456.451,119.592Zm-3.538,0a1.524,1.524,0,0,0,1.535,1.571,1.505,1.505,0,0,0,1.5-1.558,1.519,1.519,0,1,0-3.035-.013Zm1.212,1.032h-.456v-1.967a3.986,3.986,0,0,1,.756-.06,1.228,1.228,0,0,1,.684.144.547.547,0,0,1,.191.432.5.5,0,0,1-.407.455v.025a.578.578,0,0,1,.359.479,1.494,1.494,0,0,0,.145.492h-.492a1.711,1.711,0,0,1-.157-.48c-.035-.216-.155-.312-.407-.312h-.216Zm.012-1.115h.216c.252,0,.456-.084.456-.288,0-.18-.132-.3-.42-.3a1.092,1.092,0,0,0-.252.024Z" fill="#1c425c"/>
  </g>
</svg>
